<?xml version="1.0" encoding="utf-8"?>
<!-- Generator: Adobe Illustrator 23.0.0, SVG Export Plug-In . SVG Version: 6.00 Build 0)  -->
<svg version="1.1" id="Layer_1" xmlns="http://www.w3.org/2000/svg" xmlns:xlink="http://www.w3.org/1999/xlink" x="0px" y="0px"
	 viewBox="0 0 290.8 290.4" style="enable-background:new 0 0 290.8 290.4;" xml:space="preserve">
<style type="text/css">
	.st0{fill:none;stroke:#000000;stroke-linejoin:round;}
</style>
<title>ay</title>
<polyline class="st0" points="144.9,141.5 200.3,180.6 202,133.9 "/>
<path class="st0" d="M197.2,121.8l-8.6-3.2c-4.4-1.6-6.6-6.5-5-10.9c0.2-0.6,0.5-1.1,0.8-1.6l12.9-20.3c2.2-3.4,6.4-4.8,10.2-3.4
	l8.7,3.2c4.4,1.6,6.6,6.5,5,10.8c-0.2,0.6-0.5,1.1-0.8,1.6l-12.9,20.4C205.2,121.9,200.9,123.3,197.2,121.8z"/>
<polyline class="st0" points="123.3,134.9 68.8,157.7 135,210 "/>
</svg>
