<svg id="Layer_1" data-name="Layer 1" xmlns="http://www.w3.org/2000/svg" viewBox="0 0 677.9 841"><defs><style>.cls-1{fill:#d3c7d1;}.cls-1,.cls-2,.cls-3{stroke:#000;}.cls-1,.cls-2{stroke-linejoin:round;}.cls-2,.cls-3{fill:none;}.cls-3{stroke-miterlimit:10;}</style></defs><title>ay</title><rect class="cls-1" x="0.5" y="0.5" width="676.9" height="840"/><path class="cls-2" d="M381.58,487.57l-2.93,3a3.89,3.89,0,0,1-6-.47L366.41,481a3.92,3.92,0,0,1,.43-4.9l2.93-3a3.88,3.88,0,0,1,6,.47l6.23,9.14A3.92,3.92,0,0,1,381.58,487.57Z"/><path class="cls-2" d="M334.85,555.25l2.61-3.31a3.88,3.88,0,0,1,6-.13l7.1,8.48a3.91,3.91,0,0,1,.06,4.92L348,568.52a3.88,3.88,0,0,1-6,.13l-7.11-8.48A3.91,3.91,0,0,1,334.85,555.25Z"/><path class="cls-2" d="M405.7,585l-3.27,3.39a4.33,4.33,0,0,1-6.7-.52l-7-10.2a4.33,4.33,0,0,1,.48-5.46l3.26-3.4a4.33,4.33,0,0,1,6.71.53l6.95,10.19A4.37,4.37,0,0,1,405.7,585Z"/><path class="cls-2" d="M177.62,464.58,173,462.84a4.59,4.59,0,0,1-2.32-6.74l7-11a4.6,4.6,0,0,1,5.51-1.83L187.8,445a4.59,4.59,0,0,1,2.31,6.74l-7,11A4.6,4.6,0,0,1,177.62,464.58Z"/><path class="cls-2" d="M317.45,527.9l-4.05-.7a3.84,3.84,0,0,1-2.88-5.2l4-10.23a3.81,3.81,0,0,1,4.2-2.39l4,.7a3.84,3.84,0,0,1,2.88,5.2l-4,10.23A3.81,3.81,0,0,1,317.45,527.9Z"/><path class="cls-2" d="M313,334l-4.93,3.5c-2.9,2.06-6.69,1.32-7.83-1.54l-5.15-12.86a5.49,5.49,0,0,1,2.25-6.31l4.94-3.5c2.89-2.06,6.68-1.32,7.83,1.54l5.14,12.86A5.46,5.46,0,0,1,313,334Z"/><path class="cls-2" d="M273.6,486.64l-3.87,3.66c-2.28,2.15-5.18,2.49-6,.7l-3.68-8.07c-.61-1.34.17-3.45,1.87-5.06l3.88-3.66c2.27-2.15,5.17-2.49,6-.7l3.68,8.07C276.08,482.92,275.3,485,273.6,486.64Z"/><path class="cls-2" d="M203.47,488.69l-3.87,3.66c-2.28,2.16-5.18,2.49-6,.7L189.92,485c-.61-1.34.17-3.45,1.87-5.06l3.88-3.66c2.27-2.15,5.17-2.49,6-.7l3.68,8.07C206,485,205.17,487.09,203.47,488.69Z"/><path class="cls-2" d="M404.15,371.25l1,5.22c.56,3.07-.73,5.67-2.67,5.39l-8.73-1.3c-1.45-.22-2.79-2-3.21-4.31l-1-5.22c-.56-3.07.73-5.67,2.67-5.38l8.73,1.3C402.39,367.16,403.73,369,404.15,371.25Z"/><path class="cls-2" d="M380.92,308.7,377.8,313c-1.83,2.53-4.6,3.4-5.73,1.79L367,307.57c-.85-1.19-.47-3.4.89-5.29L371,298c1.83-2.52,4.6-3.39,5.73-1.79l5.09,7.21C382.66,304.6,382.28,306.81,380.92,308.7Z"/><polyline class="cls-2" points="283.11 554.49 305 542.18 294.87 528.1 302.87 516.9"/><line class="cls-2" x1="374.13" y1="547.45" x2="351.57" y2="536.42"/><line class="cls-2" x1="390.28" y1="526.83" x2="404.47" y2="514.5"/><polyline class="cls-2" points="322.99 426.08 342.75 435.13 332.74 446.5"/><line class="cls-2" x1="428.06" y1="463.42" x2="447.81" y2="472.46"/><line class="cls-2" x1="272.53" y1="382.49" x2="267.35" y2="361.39"/><line class="cls-2" x1="316.27" y1="448.32" x2="311.35" y2="467.61"/><polyline class="cls-2" points="378.6 432.63 387.67 414.5 399.94 415.57 397.27 402.24"/><polyline class="cls-2" points="460.75 406.8 469.82 388.66 482.08 389.73 479.42 376.4"/><polyline class="cls-2" points="516.4 535.98 525.47 517.85 537.73 518.92 535.07 505.58"/><polyline class="cls-2" points="427.5 576.37 449.18 577.79 459.22 567.01"/><polyline class="cls-2" points="444.73 492.9 435.67 511.03 449.53 509.43"/><line class="cls-3" x1="260.21" y1="513.7" x2="279.41" y2="523.3"/><polyline class="cls-3" points="342.87 588.89 323.67 579.29 314.07 591.03"/><line class="cls-3" x1="373.25" y1="577.96" x2="367.95" y2="598.76"/><polyline class="cls-2" points="350.57 377.63 359.7 364.43 374.17 363.45"/><polyline class="cls-2" points="362.31 523.75 371.43 510.56 385.91 509.58"/><path class="cls-2" d="M429.58,441.55l-9.4,4.69a3.3,3.3,0,0,1-4.78-2.95V432a3.32,3.32,0,0,1,1.83-3l9.39-4.69a3.3,3.3,0,0,1,4.78,2.95v11.28A3.32,3.32,0,0,1,429.58,441.55Z"/><path class="cls-2" d="M531.67,440.55l-9.39,4.69a3.3,3.3,0,0,1-4.78-2.95V431a3.32,3.32,0,0,1,1.82-3l9.4-4.69a3.3,3.3,0,0,1,4.78,2.95v11.28A3.32,3.32,0,0,1,531.67,440.55Z"/><polyline class="cls-2" points="278.88 293.44 259.68 290.24 265.01 301.44 256.48 312.11"/><line class="cls-2" x1="451.67" y1="289.71" x2="442.6" y2="301.97"/><polyline class="cls-2" points="284.7 247.52 291.64 267.79 304.97 262.99"/><polyline class="cls-2" points="342.34 319.57 349.27 339.84 362.6 335.04"/><line class="cls-2" x1="445.27" y1="371.84" x2="447.4" y2="390.5"/><line class="cls-2" x1="406.87" y1="391.57" x2="415.4" y2="404.9"/><line class="cls-2" x1="404.74" y1="320.11" x2="415.4" y2="330.24"/><polyline class="cls-2" points="404.74 291.84 423.4 296.11 428.73 309.97 436.2 325.44"/><polyline class="cls-2" points="603.44 156.2 594.99 173.38 580.26 175.38 563.49 179.07"/><line class="cls-2" x1="411.14" y1="354.24" x2="429.8" y2="358.5"/><polyline class="cls-2" points="379.14 323.99 379.14 341.29 385.54 353.17 395.14 338.77"/><line class="cls-2" x1="366.34" y1="399.57" x2="382.34" y2="386.24"/><line class="cls-2" x1="287.94" y1="363.84" x2="302.87" y2="375.04"/><polyline class="cls-2" points="305.01 352.1 325.81 349.44 335.4 361.17"/><polyline class="cls-2" points="193.71 320.31 214.51 317.64 224.11 329.37"/><line class="cls-2" x1="310.34" y1="413.43" x2="325.81" y2="401.7"/><line class="cls-2" x1="325.81" y1="371.84" x2="339.14" y2="382.5"/><polyline class="cls-2" points="278.34 315.84 285.81 330.77 275.68 331.31 259.68 328.64"/><line class="cls-2" x1="279.94" y1="345.7" x2="259.68" y2="352.64"/><polyline class="cls-2" points="256.48 407.57 272.48 399.57 254.88 394.77 257.54 377.17"/><polyline class="cls-2" points="125.48 493.57 141.47 485.57 123.88 480.77 126.54 463.17"/><line class="cls-2" x1="269.81" y1="418.77" x2="285.81" y2="427.3"/><line class="cls-2" x1="292.21" y1="446.5" x2="302.87" y2="427.3"/><polyline class="cls-2" points="302.87 298.24 324.74 293.97 332.74 303.57"/><path class="cls-2" d="M174.52,575.27l.95,5.22c.56,3.06-.73,5.67-2.66,5.38l-8.73-1.3c-1.45-.22-2.79-2-3.21-4.31l-1-5.21c-.56-3.07.73-5.68,2.67-5.39l8.73,1.3C172.75,571.18,174.09,573,174.52,575.27Z"/><path class="cls-2" d="M134.52,798.27l.95,5.22c.56,3.06-.73,5.67-2.66,5.38l-8.73-1.3c-1.45-.22-2.79-2-3.21-4.31l-1-5.21c-.56-3.07.73-5.68,2.67-5.39l8.73,1.3C132.75,794.18,134.09,796,134.52,798.27Z"/><path class="cls-2" d="M151.28,512.71l-3.11,4.3c-1.83,2.52-4.61,3.39-5.74,1.79l-5.09-7.21c-.84-1.2-.47-3.41.9-5.3l3.11-4.29c1.83-2.53,4.61-3.4,5.74-1.79l5.09,7.21C153,508.61,152.65,510.82,151.28,512.71Z"/><polyline class="cls-2" points="120.94 581.64 130.06 568.45 144.54 567.47"/><polyline class="cls-2" points="112.7 523.59 119.64 543.85 132.97 539.05"/><line class="cls-2" x1="167.23" y1="593.58" x2="175.76" y2="606.92"/><line class="cls-2" x1="165.1" y1="522.12" x2="175.76" y2="532.25"/><polyline class="cls-2" points="165.1 493.86 183.76 498.12 189.1 511.99 196.56 527.45"/><line class="cls-2" x1="171.5" y1="556.25" x2="190.16" y2="560.52"/><polyline class="cls-2" points="149.5 528 149.5 545.31 155.9 557.18 165.5 542.79"/><line class="cls-2" x1="136.7" y1="603.58" x2="152.7" y2="590.25"/><polyline class="cls-2" points="75.37 556.12 96.17 553.45 105.77 565.18"/><line class="cls-2" x1="96.17" y1="575.85" x2="109.5" y2="586.52"/><polyline class="cls-2" points="73.24 502.25 95.1 497.99 103.1 507.59"/><polyline class="cls-2" points="253.28 528.1 264.48 537.7 253.28 554.23"/><polyline class="cls-2" points="466.24 448.11 481.7 438.51 493.44 443.31 497.7 432.64"/><line class="cls-2" x1="342.87" y1="460.9" x2="362.6" y2="453.97"/><line class="cls-2" x1="292.21" y1="482.23" x2="295.41" y2="501.96"/><path class="cls-2" d="M610.45,245.9l-4.05-.7a3.84,3.84,0,0,1-2.88-5.2l4-10.23a3.81,3.81,0,0,1,4.2-2.39l4,.7a3.84,3.84,0,0,1,2.88,5.2l-4,10.23A3.81,3.81,0,0,1,610.45,245.9Z"/><path class="cls-2" d="M566.6,204.64l-3.87,3.66c-2.28,2.15-5.18,2.49-6,.7l-3.68-8.07c-.61-1.34.17-3.45,1.87-5.06l3.88-3.66c2.27-2.15,5.17-2.49,6-.7l3.68,8.07C569.08,200.92,568.3,203,566.6,204.64Z"/><polyline class="cls-2" points="576.11 272.49 598 260.18 587.87 246.1 595.87 234.9"/><line class="cls-3" x1="553.21" y1="231.7" x2="572.41" y2="241.3"/><polyline class="cls-2" points="546.28 246.1 557.48 255.69 546.28 272.23"/><line class="cls-2" x1="585.21" y1="200.23" x2="588.41" y2="219.96"/><polyline class="cls-2" points="265.54 578.49 260.21 595.83 273.54 593.66"/><line class="cls-2" x1="288.9" y1="576.59" x2="295.78" y2="594"/><polyline class="cls-3" points="241.87 728.89 222.67 719.29 213.07 731.03"/><polyline class="cls-2" points="164.54 718.49 159.21 735.83 172.54 733.66"/><line class="cls-2" x1="187.9" y1="716.59" x2="194.78" y2="734"/><line class="cls-2" x1="185.9" y1="809.59" x2="192.78" y2="827"/><polyline class="cls-2" points="395.14 460.9 405.27 472.63 411.13 467.83"/><line class="cls-2" x1="399.94" y1="492.9" x2="425" y2="492.9"/><line class="cls-2" x1="461.28" y1="627.83" x2="475.47" y2="615.5"/><polyline class="cls-2" points="433.31 624.75 442.43 611.56 456.91 610.58"/><line class="cls-2" x1="438.94" y1="653.9" x2="464" y2="653.9"/><polyline class="cls-2" points="447.4 426.23 449.53 442.77 442.6 453.97"/><line class="cls-2" x1="379.14" y1="453.97" x2="392.47" y2="436.9"/><polyline class="cls-2" points="426.6 387.3 432.47 402.24 444.73 404.37"/><polyline class="cls-2" points="435.67 343.57 447.93 353.17 452.73 338.77"/><polyline class="cls-2" points="455.67 266.57 467.93 276.17 472.73 261.77"/><path class="cls-2" d="M233.31,222.87l1.9.52c2.94.81,3.91,4.47,1.91,7.19l-2.7,3.68a4.91,4.91,0,0,1-5.16,2l-1.9-.52c-2.94-.8-3.91-4.47-1.91-7.19l2.7-3.68A4.93,4.93,0,0,1,233.31,222.87Z"/><path class="cls-2" d="M485,339.49l-2.54-.92c-3.91-1.42-5.72-5.95-3.54-8.9l2.94-4a5.48,5.48,0,0,1,6.36-1.6l2.54.92c3.91,1.42,5.71,5.95,3.54,8.9l-2.95,4A5.45,5.45,0,0,1,485,339.49Z"/><path class="cls-2" d="M226.82,302l-1.49-4.25c-2.29-6.53.24-13.89,5-14.43l6.41-.73c3-.34,5.91,2.18,7.34,6.27l1.49,4.24c2.29,6.54-.24,13.89-5,14.43l-6.41.74C231.2,308.64,228.25,306.13,226.82,302Z"/><path class="cls-2" d="M348.72,423.94l-1.49-4.25c-2.3-6.54.24-13.89,5-14.43l6.41-.73c2.95-.34,5.91,2.18,7.34,6.26l1.49,4.25c2.29,6.54-.24,13.89-5,14.43l-6.4.73C353.1,430.54,350.15,428,348.72,423.94Z"/><path class="cls-2" d="M635.72,37.94l-1.49-4.25c-2.3-6.54.24-13.89,5-14.43l6.41-.73c2.95-.34,5.91,2.18,7.34,6.26L654.44,29c2.29,6.54-.24,13.89-5,14.43l-6.4.73C640.1,44.54,637.15,42,635.72,37.94Z"/><path class="cls-2" d="M240,399.9l-.63,1.61c-1,2.47-3.92,3.54-5.76,2.09l-2.5-2a3.5,3.5,0,0,1-.9-4.1l.64-1.61c1-2.47,3.91-3.54,5.76-2.09l2.49,2A3.49,3.49,0,0,1,240,399.9Z"/><path class="cls-2" d="M487.5,245.17l-1.56,1.5c-2.42,2.32-6.13-.76-7.3-6l-1.57-7.14c-.73-3.29-.2-6.48,1.3-7.93l1.57-1.51c2.42-2.31,6.13.76,7.3,6l1.57,7.14C489.54,240.53,489,243.72,487.5,245.17Z"/><path class="cls-2" d="M179.46,217.65l-3.64-2.09c-5.6-3.2-5.68-11.23-.15-15.76l7.48-6.12a10.4,10.4,0,0,1,11.62-1.38l3.64,2.09c5.6,3.21,5.68,11.24.15,15.76l-7.47,6.12A10.41,10.41,0,0,1,179.46,217.65Z"/><path class="cls-2" d="M230.48,566.15l-2.77,3.15c-4.25,4.86-12.14,3.34-15.48-3l-4.51-8.55a10.4,10.4,0,0,1,1-11.67l2.76-3.15c4.26-4.85,12.14-3.34,15.48,3l4.52,8.54A10.41,10.41,0,0,1,230.48,566.15Z"/><path class="cls-2" d="M197.45,344l-.91-1.41c-1.39-2.17,1.14-4.71,5-5l5.19-.37c2.4-.17,4.6.62,5.47,2l.91,1.41c1.4,2.17-1.13,4.71-5,5l-5.2.37C200.52,346.17,198.32,345.37,197.45,344Z"/><path class="cls-2" d="M138.53,290.5h-1.68c-2.58,0-3.36-3.48-1.53-6.87l2.47-4.58c1.14-2.12,3-3.55,4.6-3.56h1.68c2.58,0,3.37,3.48,1.54,6.87l-2.47,4.58C142,289.06,140.15,290.49,138.53,290.5Z"/><path class="cls-2" d="M291.63,410.92H290c-2.58,0-3.36-3.48-1.54-6.87l2.48-4.58c1.14-2.12,3-3.55,4.6-3.56h1.68c2.58,0,3.36,3.48,1.54,6.87l-2.47,4.58C295.1,409.48,293.24,410.91,291.63,410.92Z"/><line class="cls-2" x1="203.53" y1="621.07" x2="198.35" y2="599.97"/><line class="cls-2" x1="218.94" y1="602.42" x2="233.87" y2="613.62"/><polyline class="cls-2" points="187.48 646.15 203.47 638.15 185.88 633.35 188.54 615.75"/><line class="cls-2" x1="200.81" y1="657.35" x2="216.81" y2="665.88"/><line class="cls-2" x1="96.81" y1="818.35" x2="112.81" y2="826.88"/><line class="cls-2" x1="201.81" y1="697.35" x2="217.81" y2="705.88"/><line class="cls-2" x1="223.21" y1="685.08" x2="233.87" y2="665.88"/><line class="cls-2" x1="242.21" y1="827.08" x2="252.87" y2="807.88"/><path class="cls-2" d="M222.63,649.5H221c-2.58,0-3.36-3.48-1.54-6.87l2.48-4.58c1.14-2.12,3-3.55,4.6-3.56h1.68c2.58,0,3.36,3.48,1.54,6.87l-2.47,4.58C226.1,648.06,224.24,649.49,222.63,649.5Z"/><path class="cls-2" d="M192.2,273.65l-.24,3.13c-.36,4.83-6.85,6.06-12.72,2.43l-8-4.91c-3.67-2.27-6-5.83-5.76-8.84l.24-3.14c.36-4.82,6.84-6.06,12.72-2.43l8,4.92C190.11,267.08,192.42,270.63,192.2,273.65Z"/><path class="cls-2" d="M506.64,492.57l-.23,3.13c-.37,4.83-6.85,6.07-12.73,2.43l-7.95-4.91c-3.67-2.27-6-5.83-5.76-8.84l.23-3.13c.37-4.83,6.85-6.07,12.73-2.43l7.95,4.91C504.55,486,506.87,489.56,506.64,492.57Z"/><path class="cls-2" d="M638.64,567.57l-.23,3.13c-.37,4.83-6.85,6.07-12.73,2.43l-7.95-4.91c-3.67-2.27-6-5.83-5.76-8.84l.23-3.13c.37-4.83,6.85-6.07,12.73-2.43l8,4.91C636.55,561,638.87,564.56,638.64,567.57Z"/><path class="cls-2" d="M263.29,212.83H261c-3.51,0-5.66-3.83-4.22-7.47l1.93-4.93a5.72,5.72,0,0,1,5.16-3.79h2.27c3.5,0,5.66,3.83,4.22,7.47L268.45,209A5.72,5.72,0,0,1,263.29,212.83Z"/><path class="cls-2" d="M168.07,357.23l-1.58-.23c-2.45-.36-3.29-3.44-1.66-6.05l2.2-3.52a4.57,4.57,0,0,1,4.26-2.34l1.59.24c2.44.36,3.29,3.44,1.66,6.05l-2.21,3.52A4.54,4.54,0,0,1,168.07,357.23Z"/><path class="cls-2" d="M498.16,407.25l.23-1.38c.35-2.12,3.32-2.26,5.84-.29l3.41,2.67c1.57,1.24,2.48,2.95,2.26,4.28l-.22,1.37c-.35,2.12-3.33,2.27-5.85.3l-3.41-2.68C498.85,410.29,497.94,408.57,498.16,407.25Z"/><path class="cls-2" d="M128.09,419.38l.81-1.76c1.25-2.71,4.29-4.15,6-2.83l2.28,1.79c1.05.82,1.23,2.52.45,4.21l-.81,1.76c-1.25,2.71-4.29,4.15-6,2.83l-2.27-1.79C127.5,422.77,127.31,421.08,128.09,419.38Z"/><path class="cls-2" d="M20.09,492.38l.81-1.76c1.25-2.71,4.29-4.15,6-2.83l2.28,1.79c1.05.82,1.23,2.52.45,4.21l-.81,1.76c-1.25,2.71-4.29,4.15-6,2.83l-2.27-1.79C19.5,495.77,19.31,494.08,20.09,492.38Z"/><polyline class="cls-2" points="527.22 261.23 527.49 273.37 506.47 294.29"/><line class="cls-2" x1="488.32" y1="280.41" x2="485.38" y2="292.19"/><line class="cls-2" x1="234.98" y1="264.26" x2="222.84" y2="264.7"/><line class="cls-2" x1="176.96" y1="233.18" x2="197.52" y2="244.78"/><line class="cls-2" x1="158.5" y1="186" x2="153.55" y2="209.08"/><line class="cls-2" x1="209.2" y1="291.57" x2="200.05" y2="299.56"/><polyline class="cls-2" points="495.23 359.28 502.23 362.51 502.76 372.74 483.93 365.74"/><polyline class="cls-2" points="562.75 754.8 571.82 736.66 584.09 737.73 581.42 724.4"/><line class="cls-2" x1="547.27" y1="719.84" x2="549.4" y2="738.5"/><polyline class="cls-2" points="537.67 691.57 549.93 701.17 554.73 686.77"/><path class="cls-2" d="M587,687.49l-2.54-.92c-3.91-1.42-5.72-6-3.54-8.9l2.94-4a5.48,5.48,0,0,1,6.36-1.6l2.54.92c3.91,1.42,5.71,6,3.54,8.9l-3,4A5.45,5.45,0,0,1,587,687.49Z"/><polyline class="cls-2" points="597.23 707.28 604.23 710.51 604.76 720.74 585.93 713.74"/><polyline class="cls-2" points="620.75 806.8 629.82 788.66 642.09 789.73 639.42 776.4"/><line class="cls-2" x1="605.27" y1="771.84" x2="607.4" y2="790.5"/><polyline class="cls-2" points="655.23 759.28 662.23 762.51 662.76 772.74 643.93 765.74"/><line class="cls-2" x1="488.77" y1="399.11" x2="482.04" y2="407.45"/><polyline class="cls-2" points="183.47 398.69 178.9 388.99 200.16 385.36 198.54 405.81"/><polyline class="cls-2" points="219.8 398.55 206.59 409.27 219.8 420.88"/><polyline class="cls-2" points="159.79 305.17 164.64 314.32 172.71 301.94"/><polyline class="cls-2" points="492.88 104.55 473.68 101.34 479.01 112.54 470.48 123.21"/><polyline class="cls-2" points="509.7 53.63 516.64 73.89 529.97 69.09"/><path class="cls-2" d="M440.82,113.15l-1.49-4.25c-2.29-6.54.24-13.89,5-14.43l6.41-.74c3-.33,5.91,2.19,7.34,6.27l1.49,4.25c2.29,6.53-.24,13.89-5,14.43l-6.41.73C445.2,119.75,442.25,117.23,440.82,113.15Z"/><path class="cls-2" d="M372.53,95.5h-1.68c-2.58,0-3.36-3.48-1.53-6.87l2.47-4.58c1.14-2.12,3-3.55,4.6-3.56h1.68c2.58,0,3.37,3.48,1.54,6.87l-2.47,4.58C376,94.06,374.15,95.49,372.53,95.5Z"/><path class="cls-2" d="M421.2,79.75,421,82.89c-.36,4.82-6.85,6.06-12.72,2.42l-8-4.91c-3.67-2.27-6-5.82-5.76-8.84l.24-3.13c.36-4.83,6.84-6.06,12.72-2.43l8,4.91C419.11,73.18,421.42,76.74,421.2,79.75Z"/><line class="cls-2" x1="448.98" y1="75.37" x2="436.84" y2="75.81"/><line class="cls-2" x1="423.2" y1="102.68" x2="414.05" y2="110.66"/><polyline class="cls-2" points="373.79 116.28 378.64 125.43 386.71 113.05"/><path class="cls-2" d="M24.53,45.5H22.85c-2.58,0-3.36-3.48-1.53-6.87l2.47-4.58c1.14-2.12,3-3.55,4.6-3.56h1.68c2.58,0,3.37,3.48,1.54,6.87l-2.47,4.58C28,44.06,26.15,45.49,24.53,45.5Z"/><path class="cls-2" d="M73.2,29.75,73,32.89c-.36,4.82-6.85,6.06-12.72,2.42l-8-4.91c-3.67-2.27-6-5.82-5.76-8.84l.24-3.13c.36-4.83,6.84-6.06,12.72-2.43l8,4.91C71.11,23.18,73.42,26.74,73.2,29.75Z"/><line class="cls-2" x1="75.2" y1="52.68" x2="66.05" y2="60.66"/><polyline class="cls-2" points="25.79 66.28 30.64 75.43 38.71 63.05"/><polyline class="cls-2" points="251.04 234.73 242.29 240.27 255.26 247.36"/><path class="cls-2" d="M206.31,786.87l1.9.52c2.94.81,3.91,4.47,1.91,7.19l-2.7,3.68a4.91,4.91,0,0,1-5.16,2l-1.9-.52c-2.94-.8-3.91-4.47-1.91-7.19l2.7-3.68A4.93,4.93,0,0,1,206.31,786.87Z"/><path class="cls-2" d="M236.29,776.83H234c-3.51,0-5.66-3.83-4.22-7.47l1.93-4.93a5.72,5.72,0,0,1,5.16-3.79h2.27c3.5,0,5.66,3.83,4.22,7.47L241.45,773A5.72,5.72,0,0,1,236.29,776.83Z"/><polyline class="cls-2" points="224.04 798.73 215.29 804.27 228.26 811.36"/><polyline class="cls-2" points="368.88 724.44 349.68 721.24 355.01 732.44 346.48 743.11"/><polyline class="cls-2" points="288.71 749.3 309.51 746.64 319.11 758.37"/><polyline class="cls-2" points="368.34 746.84 375.81 761.77 365.68 762.3 349.68 759.64"/><path class="cls-2" d="M319.31,645.87l1.9.52c2.94.81,3.91,4.47,1.91,7.19l-2.7,3.68a4.91,4.91,0,0,1-5.16,2l-1.9-.52c-2.94-.8-3.91-4.47-1.91-7.19l2.7-3.68A4.93,4.93,0,0,1,319.31,645.87Z"/><path class="cls-2" d="M512.31,688.87l1.9.52c2.94.81,3.91,4.47,1.91,7.19l-2.7,3.68a4.91,4.91,0,0,1-5.16,2l-1.9-.52c-2.94-.8-3.91-4.47-1.91-7.19l2.7-3.68A4.93,4.93,0,0,1,512.31,688.87Z"/><path class="cls-2" d="M321.82,731l-1.49-4.25c-2.29-6.53.24-13.89,5-14.43l6.41-.73c3-.34,5.91,2.18,7.34,6.27l1.49,4.24c2.29,6.54-.24,13.89-5,14.43l-6.41.74C326.2,737.64,323.25,735.13,321.82,731Z"/><path class="cls-2" d="M269.46,648.65l-3.64-2.09c-5.6-3.2-5.68-11.23-.15-15.76l7.48-6.12a10.4,10.4,0,0,1,11.62-1.38l3.64,2.09c5.6,3.21,5.68,11.24.15,15.76l-7.47,6.12A10.41,10.41,0,0,1,269.46,648.65Z"/><path class="cls-2" d="M292.45,773l-.91-1.41c-1.39-2.17,1.14-4.71,5-5l5.19-.37c2.4-.17,4.6.62,5.47,2l.91,1.41c1.4,2.17-1.13,4.71-5,5l-5.2.37C295.52,775.17,293.32,774.37,292.45,773Z"/><path class="cls-2" d="M385.45,783l-.91-1.41c-1.39-2.17,1.14-4.71,5-5l5.19-.37c2.4-.17,4.6.62,5.47,2l.91,1.41c1.4,2.17-1.13,4.71-5,5l-5.2.37C388.52,785.17,386.32,784.37,385.45,783Z"/><path class="cls-2" d="M243.53,711.4h-1.68c-2.58,0-3.36-3.49-1.53-6.87l2.47-4.59c1.14-2.11,3-3.54,4.6-3.55l1.68,0c2.58,0,3.37,3.49,1.54,6.88l-2.47,4.58C247,710,245.15,711.39,243.53,711.4Z"/><path class="cls-2" d="M302.2,697.65l-.24,3.13c-.36,4.83-6.85,6.06-12.72,2.43l-8-4.91c-3.67-2.27-6-5.83-5.76-8.84l.24-3.14c.36-4.82,6.84-6.06,12.72-2.43l8,4.92C300.11,691.08,302.42,694.63,302.2,697.65Z"/><path class="cls-2" d="M353.29,643.83H351c-3.51,0-5.66-3.83-4.22-7.47l1.93-4.93a5.72,5.72,0,0,1,5.16-3.79h2.27c3.5,0,5.66,3.83,4.22,7.47L358.45,640A5.72,5.72,0,0,1,353.29,643.83Z"/><line class="cls-2" x1="329.98" y1="693.26" x2="317.84" y2="693.7"/><line class="cls-2" x1="271.96" y1="662.18" x2="292.52" y2="673.78"/><line class="cls-2" x1="248.5" y1="617" x2="243.55" y2="640.08"/><line class="cls-2" x1="304.2" y1="720.57" x2="295.05" y2="728.56"/><polyline class="cls-2" points="254.79 734.17 259.64 743.32 267.71 730.95"/><polyline class="cls-2" points="341.04 665.73 332.3 671.27 345.26 678.36"/><polyline class="cls-2" points="661.88 478.44 642.68 475.24 648.01 486.44 639.48 497.11"/><polyline class="cls-2" points="576.71 505.31 597.51 502.64 607.11 514.37"/><polyline class="cls-2" points="661.34 500.84 668.81 515.77 658.67 516.3 642.68 513.64"/><path class="cls-2" d="M616.31,407.87l1.9.52c2.94.81,3.91,4.47,1.91,7.19l-2.7,3.68a4.91,4.91,0,0,1-5.16,2l-1.9-.52c-2.94-.8-3.91-4.47-1.91-7.19l2.7-3.68A4.93,4.93,0,0,1,616.31,407.87Z"/><path class="cls-2" d="M609.82,487l-1.49-4.25c-2.29-6.53.24-13.89,5-14.43l6.41-.73c3-.34,5.91,2.18,7.34,6.27l1.49,4.24c2.29,6.54-.24,13.89-5,14.43l-6.41.74C614.2,493.64,611.25,491.13,609.82,487Z"/><polyline class="cls-2" points="575.88 772.44 556.68 769.24 562.01 780.44 553.48 791.11"/><path class="cls-2" d="M523.82,781l-1.49-4.25c-2.29-6.53.24-13.89,5-14.43l6.41-.73c3-.34,5.91,2.18,7.34,6.27l1.49,4.24c2.29,6.54-.24,13.89-5,14.43l-6.41.74C528.2,787.64,525.25,785.13,523.82,781Z"/><path class="cls-2" d="M638.82,824l-1.49-4.25c-2.29-6.53.24-13.89,5-14.43l6.41-.73c3-.34,5.91,2.18,7.34,6.27l1.49,4.24c2.29,6.54-.24,13.89-5,14.43l-6.41.74C643.2,830.64,640.25,828.13,638.82,824Z"/><path class="cls-2" d="M562.46,402.65l-3.64-2.09c-5.6-3.2-5.68-11.23-.15-15.76l7.48-6.12a10.4,10.4,0,0,1,11.62-1.38l3.64,2.09c5.6,3.21,5.68,11.24.15,15.76l-7.47,6.12A10.41,10.41,0,0,1,562.46,402.65Z"/><path class="cls-2" d="M580.45,529l-.91-1.41c-1.39-2.17,1.14-4.71,5-5l5.19-.37c2.4-.17,4.6.62,5.47,2l.91,1.41c1.4,2.17-1.13,4.71-5,5l-5.2.37C583.52,531.17,581.32,530.37,580.45,529Z"/><path class="cls-2" d="M531.53,467.4h-1.68c-2.58,0-3.36-3.49-1.53-6.87l2.47-4.59c1.14-2.11,3-3.54,4.6-3.55l1.68,0c2.58,0,3.37,3.49,1.54,6.88l-2.47,4.58C535,466,533.15,467.39,531.53,467.4Z"/><path class="cls-2" d="M561.53,562.5h-1.68c-2.58,0-3.36-3.48-1.53-6.87l2.47-4.58c1.14-2.12,3-3.55,4.6-3.56h1.68c2.58,0,3.37,3.48,1.54,6.87l-2.47,4.58C565,561.06,563.15,562.49,561.53,562.5Z"/><path class="cls-2" d="M650.53,447.5h-1.68c-2.58,0-3.36-3.48-1.53-6.87l2.47-4.58c1.14-2.12,3-3.55,4.6-3.56h1.68c2.58,0,3.37,3.48,1.54,6.87l-2.47,4.58C654,446.06,652.15,447.49,650.53,447.5Z"/><path class="cls-2" d="M590.2,453.65l-.24,3.13c-.36,4.83-6.85,6.06-12.72,2.43l-8-4.91c-3.67-2.27-6-5.83-5.76-8.84l.24-3.14c.36-4.82,6.84-6.06,12.72-2.43l8,4.92C588.11,447.08,590.42,450.63,590.2,453.65Z"/><path class="cls-2" d="M646.29,397.83H644c-3.51,0-5.66-3.83-4.22-7.47l1.93-4.93a5.72,5.72,0,0,1,5.16-3.79h2.27c3.5,0,5.66,3.83,4.22,7.47L651.45,394A5.72,5.72,0,0,1,646.29,397.83Z"/><line class="cls-2" x1="617.98" y1="449.26" x2="605.84" y2="449.7"/><line class="cls-2" x1="559.96" y1="418.18" x2="580.52" y2="429.78"/><line class="cls-2" x1="541.5" y1="371" x2="536.55" y2="394.08"/><line class="cls-2" x1="568.5" y1="132" x2="563.55" y2="155.08"/><line class="cls-2" x1="614.5" y1="14" x2="609.55" y2="37.08"/><line class="cls-2" x1="592.2" y1="476.57" x2="583.05" y2="484.56"/><polyline class="cls-2" points="542.79 490.17 547.64 499.32 555.71 486.94"/><polyline class="cls-2" points="634.04 419.73 625.29 425.27 638.26 432.36"/><polyline class="cls-2" points="344.45 481.84 335.71 487.38 348.67 494.47"/><polyline class="cls-2" points="156.34 398.93 164.68 409.73 161.47 422.88"/><polyline class="cls-2" points="220.74 357.44 210.7 366.68 197.32 364.61"/><polyline class="cls-2" points="464.31 316.24 474.07 306.71 487.5 308.38"/><path class="cls-2" d="M55.15,377.25l1,5.22c.56,3.07-.73,5.67-2.67,5.39l-8.73-1.3c-1.45-.22-2.79-2-3.21-4.31l-1-5.22c-.56-3.07.73-5.67,2.67-5.38l8.73,1.3C53.39,373.16,54.73,375,55.15,377.25Z"/><path class="cls-2" d="M31.92,314.7,28.8,319c-1.83,2.53-4.6,3.4-5.73,1.79L18,313.57c-.85-1.19-.47-3.4.89-5.29L22,304c1.83-2.52,4.6-3.39,5.73-1.79l5.09,7.21C33.66,310.6,33.28,312.81,31.92,314.7Z"/><line class="cls-2" x1="79.06" y1="469.42" x2="98.81" y2="478.46"/><line class="cls-2" x1="210.06" y1="512.42" x2="229.81" y2="521.46"/><line class="cls-2" x1="118.06" y1="648.42" x2="137.81" y2="657.46"/><polyline class="cls-2" points="29.6 438.63 38.67 420.5 50.94 421.57 48.27 408.24"/><polyline class="cls-2" points="111.75 412.8 120.82 394.66 133.09 395.73 130.42 382.4"/><polyline class="cls-2" points="1.57 383.63 10.7 370.43 25.17 369.45"/><path class="cls-2" d="M80.58,447.55l-9.4,4.69a3.3,3.3,0,0,1-4.78-2.95V438a3.32,3.32,0,0,1,1.83-3l9.39-4.69a3.3,3.3,0,0,1,4.78,2.95v11.28A3.32,3.32,0,0,1,80.58,447.55Z"/><line class="cls-2" x1="102.67" y1="295.71" x2="93.6" y2="307.97"/><line class="cls-2" x1="96.27" y1="377.84" x2="98.4" y2="396.5"/><line class="cls-2" x1="57.87" y1="397.57" x2="66.4" y2="410.9"/><line class="cls-2" x1="8.87" y1="460.57" x2="17.4" y2="473.9"/><line class="cls-2" x1="55.74" y1="326.11" x2="66.4" y2="336.24"/><polyline class="cls-2" points="55.73 297.84 74.4 302.11 79.73 315.97 87.2 331.44"/><polyline class="cls-2" points="141.19 197.25 136.94 208.65 126.14 210.25 114 213"/><line class="cls-2" x1="62.14" y1="360.24" x2="80.8" y2="364.5"/><polyline class="cls-2" points="30.14 329.99 30.14 347.29 36.54 359.17 46.14 344.77"/><line class="cls-2" x1="17.34" y1="405.57" x2="33.34" y2="392.24"/><polyline class="cls-2" points="117.24 454.11 132.7 444.51 144.44 449.31 148.7 438.64"/><polyline class="cls-2" points="46.14 466.9 56.27 478.63 62.13 473.83"/><line class="cls-2" x1="262.06" y1="450.42" x2="281.81" y2="459.46"/><polyline class="cls-2" points="229.14 447.9 239.27 459.63 245.13 454.83"/><polyline class="cls-2" points="98.4 432.23 100.53 448.77 93.6 459.97"/><line class="cls-2" x1="30.14" y1="459.97" x2="43.47" y2="442.9"/><polyline class="cls-2" points="77.6 393.3 83.47 408.24 95.73 410.37"/><polyline class="cls-2" points="212.6 459.3 218.47 474.24 230.73 476.37"/><polyline class="cls-2" points="86.67 349.57 98.93 359.17 103.73 344.77"/><path class="cls-2" d="M.5,412.46a5.07,5.07,0,0,1,2.7-1.2l6.41-.73c3-.34,5.91,2.18,7.34,6.26L18.44,421c2.29,6.54-.24,13.89-5,14.43l-6.4.73c-2.49.29-5-1.46-6.56-4.47"/><polyline class="cls-2" points="115.31 322.24 125.07 312.71 138.5 314.38"/><line class="cls-2" x1="298.67" y1="135.71" x2="289.6" y2="147.97"/><polyline class="cls-2" points="251.74 137.84 270.4 142.11 275.73 155.97 283.2 171.44"/><polyline class="cls-2" points="282.67 189.57 294.93 199.17 299.73 184.77"/><polyline class="cls-2" points="311.31 162.24 321.07 152.71 334.5 154.38"/><line class="cls-2" x1="170.67" y1="744.71" x2="161.6" y2="756.97"/><polyline class="cls-2" points="123.73 746.84 142.4 751.11 147.73 764.97 155.2 780.44"/><polyline class="cls-2" points="154.67 798.57 166.93 808.17 171.73 793.77"/><polyline class="cls-2" points="183.31 771.24 193.07 761.71 206.5 763.38"/><path class="cls-2" d="M382.52,215.27l1,5.22c.56,3.06-.73,5.67-2.66,5.38l-8.73-1.3c-1.45-.22-2.79-2-3.21-4.31l-1-5.21c-.56-3.07.73-5.68,2.67-5.39l8.73,1.3C380.75,211.18,382.09,213,382.52,215.27Z"/><path class="cls-2" d="M359.28,152.71l-3.11,4.3c-1.83,2.52-4.61,3.39-5.74,1.79l-5.09-7.21c-.84-1.2-.47-3.41.9-5.3l3.11-4.29c1.83-2.53,4.61-3.4,5.74-1.79l5.09,7.21C361,148.61,360.65,150.82,359.28,152.71Z"/><polyline class="cls-2" points="356.97 276.65 366.03 258.52 378.3 259.58 375.63 246.25"/><polyline class="cls-2" points="439.12 250.81 448.18 232.68 460.45 233.75 457.78 220.41"/><polyline class="cls-2" points="328.94 221.64 338.06 208.45 352.54 207.47"/><line class="cls-2" x1="430.03" y1="133.72" x2="420.96" y2="145.99"/><line class="cls-2" x1="423.63" y1="215.85" x2="425.76" y2="234.52"/><line class="cls-2" x1="393.23" y1="256.58" x2="401.76" y2="269.92"/><line class="cls-2" x1="383.1" y1="164.12" x2="393.76" y2="174.25"/><polyline class="cls-2" points="383.1 135.85 401.76 140.12 407.1 153.99 414.56 169.45"/><line class="cls-2" x1="389.5" y1="198.25" x2="408.16" y2="202.52"/><polyline class="cls-2" points="357.5 168 357.5 185.31 363.9 197.19 373.5 182.79"/><polyline class="cls-2" points="17.5 104 17.5 121.31 23.9 133.19 33.5 118.79"/><path class="cls-2" d="M564.28,60.71,561.17,65c-1.83,2.52-4.61,3.39-5.74,1.79l-5.09-7.21c-.84-1.2-.47-3.41.9-5.3L554.35,50c1.83-2.53,4.61-3.4,5.74-1.79l5.09,7.21C566,56.61,565.65,58.82,564.28,60.71Z"/><line class="cls-2" x1="588.1" y1="72.12" x2="598.76" y2="82.25"/><polyline class="cls-2" points="588.1 43.85 606.76 48.12 612.1 61.99 619.56 77.45"/><line class="cls-2" x1="594.5" y1="106.25" x2="613.16" y2="110.52"/><polyline class="cls-2" points="562.5 76 562.5 93.31 568.9 105.19 578.5 90.79"/><line class="cls-2" x1="344.7" y1="243.58" x2="360.7" y2="230.25"/><polyline class="cls-2" points="413.96 256.32 419.83 271.25 432.1 273.38"/><line class="cls-2" x1="384.67" y1="45.71" x2="375.6" y2="57.97"/><polyline class="cls-2" points="415.67 50.57 427.93 60.17 432.73 45.77"/><polyline class="cls-2" points="390.96 14.32 396.83 29.25 409.1 31.38"/><polyline class="cls-2" points="414.03 187.59 426.3 197.19 431.1 182.79"/><path class="cls-2" d="M618.28,348.71l-3.11,4.3c-1.83,2.52-4.61,3.39-5.74,1.79l-5.09-7.21c-.84-1.2-.47-3.41.9-5.3l3.11-4.29c1.83-2.53,4.61-3.4,5.74-1.79l5.09,7.21C620,344.61,619.65,346.82,618.28,348.71Z"/><line class="cls-2" x1="654.03" y1="232.72" x2="644.96" y2="244.99"/><line class="cls-2" x1="642.1" y1="360.12" x2="652.76" y2="370.25"/><polyline class="cls-2" points="642.1 331.86 660.76 336.12 666.1 349.99 673.56 365.45"/><polyline class="cls-2" points="616.5 364 616.5 381.31 622.9 393.19 632.5 378.79"/><polyline class="cls-2" points="638.03 286.59 650.3 296.19 655.1 281.79"/><path class="cls-2" d="M327.08,268l-1.49-4.24c-2.29-6.54.24-13.89,5-14.43l6.4-.74c3-.34,5.91,2.18,7.34,6.27l1.49,4.25c2.3,6.53-.24,13.88-5,14.43l-6.41.73C331.47,274.56,328.51,272,327.08,268Z"/><path class="cls-2" d="M464.08,193l-1.49-4.24c-2.29-6.54.24-13.89,5-14.43l6.4-.74c3-.34,5.91,2.18,7.34,6.27l1.49,4.25c2.3,6.53-.24,13.88-5,14.43l-6.41.73C468.47,199.56,465.51,197,464.08,193Z"/><path class="cls-2" d="M665.52,149.27l1,5.22c.56,3.06-.73,5.67-2.66,5.38l-8.73-1.3c-1.45-.22-2.79-2-3.21-4.31l-1-5.21c-.56-3.07.73-5.68,2.67-5.39l8.73,1.3C663.75,145.18,665.09,147,665.52,149.27Z"/><path class="cls-2" d="M642.28,86.71,639.17,91c-1.83,2.52-4.61,3.39-5.74,1.79l-5.09-7.21c-.84-1.2-.47-3.41.9-5.3L632.35,76c1.83-2.53,4.61-3.4,5.74-1.79l5.09,7.21C644,82.61,643.65,84.82,642.28,86.71Z"/><polyline class="cls-2" points="639.97 210.65 649.03 192.52 661.3 193.58 658.63 180.25"/><polyline class="cls-2" points="611.93 155.64 621.06 142.45 635.54 141.47"/><line class="cls-2" x1="538.03" y1="82.72" x2="528.96" y2="94.99"/><line class="cls-2" x1="531.63" y1="164.85" x2="533.76" y2="183.52"/><line class="cls-2" x1="501.23" y1="205.58" x2="509.76" y2="218.92"/><line class="cls-2" x1="666.1" y1="98.12" x2="676.76" y2="108.25"/><polyline class="cls-2" points="491.1 84.86 509.76 89.12 515.1 102.99 522.56 118.45"/><line class="cls-2" x1="497.5" y1="147.25" x2="516.16" y2="151.52"/><polyline class="cls-2" points="640.5 102 640.5 119.31 646.9 131.19 656.5 116.79"/><line class="cls-2" x1="627.7" y1="177.58" x2="643.7" y2="164.25"/><polyline class="cls-2" points="521.96 205.32 527.83 220.25 540.1 222.38"/><polyline class="cls-2" points="522.03 136.59 534.3 146.19 539.1 131.79"/><path class="cls-2" d="M610.08,202l-1.49-4.24c-2.29-6.54.24-13.89,5-14.43l6.4-.74c3-.34,5.91,2.18,7.34,6.27l1.49,4.25c2.3,6.53-.24,13.88-5,14.43l-6.41.73C614.47,208.56,611.51,206,610.08,202Z"/><polyline class="cls-2" points="442.67 160.25 452.44 150.72 465.87 152.39"/><polyline class="cls-2" points="336.5 110.71 348.74 120.35 353.58 105.96"/><path class="cls-2" d="M263.49,59.21l.94,5.22c.55,3.07-.74,5.67-2.68,5.38L253,68.48c-1.45-.22-2.78-2-3.2-4.31L248.88,59c-.55-3.07.75-5.68,2.68-5.38l8.73,1.32C261.74,55.11,263.07,56.91,263.49,59.21Z"/><path class="cls-2" d="M483.42,34.59l-3.12,4.29c-1.84,2.52-4.62,3.38-5.74,1.77l-5.07-7.22c-.84-1.2-.46-3.41.91-5.3l3.12-4.29c1.84-2.51,4.62-3.37,5.75-1.77l5.07,7.23C485.18,30.5,484.8,32.71,483.42,34.59Z"/><polyline class="cls-2" points="237.77 120.52 246.89 102.41 259.15 103.51 256.52 90.17"/><polyline class="cls-2" points="319.99 94.91 329.11 76.8 341.37 77.9 338.74 64.56"/><line class="cls-2" x1="554.23" y1="15.79" x2="545.13" y2="28.03"/><line class="cls-2" x1="304.6" y1="59.9" x2="306.68" y2="78.58"/><line class="cls-2" x1="274.09" y1="100.55" x2="282.59" y2="113.91"/><line class="cls-2" x1="264.21" y1="8.06" x2="274.85" y2="18.22"/><polyline class="cls-2" points="507.29 17.8 525.94 22.11 531.24 36 538.66 51.48"/><polyline class="cls-2" points="146.71 27.63 153.64 47.89 166.97 43.09"/><path class="cls-2" d="M203.28,28.71,200.17,33c-1.83,2.52-4.61,3.39-5.74,1.79l-5.09-7.21c-.84-1.2-.47-3.41.9-5.3L193.35,18c1.83-2.53,4.61-3.4,5.74-1.79l5.09,7.21C205,24.61,204.65,26.82,203.28,28.71Z"/><path class="cls-2" d="M307.42,229.59l-3.12,4.29c-1.84,2.52-4.62,3.38-5.74,1.77l-5.07-7.22c-.84-1.2-.46-3.41.91-5.3l3.12-4.29c1.84-2.51,4.62-3.37,5.75-1.77l5.07,7.23C309.18,225.5,308.8,227.71,307.42,229.59Z"/><line class="cls-2" x1="93.23" y1="27.79" x2="84.13" y2="40.03"/><polyline class="cls-2" points="131.5 15.5 154.9 13.61 163.03 17.66 173.66 22.48"/><line class="cls-2" x1="270.52" y1="42.21" x2="289.17" y2="46.53"/><polyline class="cls-2" points="238.6 11.87 238.56 29.18 244.92 41.08 254.56 26.7"/><line class="cls-2" x1="225.6" y1="87.42" x2="241.63" y2="74.13"/><polyline class="cls-2" points="294.82 100.34 300.65 115.29 312.91 117.46"/><polyline class="cls-2" points="295.08 31.61 307.32 41.25 312.16 26.86"/><path class="cls-2" d="M207.91,111.74l-1.48-4.25c-2.27-6.54.28-13.89,5-14.42l6.4-.71c3-.33,5.9,2.19,7.33,6.28l1.47,4.25c2.28,6.55-.28,13.89-5,14.42l-6.41.72C212.28,118.36,209.33,115.83,207.91,111.74Z"/><path class="cls-2" d="M345.11,37.12l-1.47-4.25c-2.28-6.55.28-13.89,5-14.42l6.41-.71c2.95-.34,5.9,2.19,7.32,6.28l1.48,4.25c2.27,6.55-.28,13.89-5,14.42l-6.41.71C349.48,43.73,346.54,41.21,345.11,37.12Z"/><polyline class="cls-2" points="566.79 42.36 576.59 32.85 590.01 34.56"/><path class="cls-2" d="M233.5,167.17l-1.56,1.5c-2.42,2.32-6.13-.76-7.3-6l-1.57-7.14c-.73-3.29-.2-6.48,1.3-7.93l1.57-1.51c2.42-2.31,6.13.76,7.3,6l1.57,7.14C235.54,162.53,235,165.72,233.5,167.17Z"/><path class="cls-2" d="M114.52,721.27l1,5.22c.56,3.06-.73,5.67-2.66,5.38l-8.73-1.3c-1.45-.22-2.79-2-3.21-4.31l-1-5.21c-.56-3.07.73-5.68,2.67-5.39l8.73,1.3C112.75,717.18,114.09,719,114.52,721.27Z"/><path class="cls-2" d="M91.28,658.71,88.17,663c-1.83,2.52-4.61,3.39-5.74,1.79l-5.09-7.21c-.84-1.2-.47-3.41.9-5.3L81.35,648c1.83-2.53,4.61-3.4,5.74-1.79l5.09,7.21C93,654.61,92.65,656.82,91.28,658.71Z"/><polyline class="cls-2" points="88.97 782.65 98.03 764.52 110.3 765.58 107.63 752.25"/><polyline class="cls-2" points="185.12 172.81 194.18 154.68 206.45 155.75 203.78 142.41"/><polyline class="cls-2" points="60.94 727.64 70.06 714.45 84.54 713.47"/><line class="cls-2" x1="176.03" y1="55.72" x2="166.96" y2="67.99"/><line class="cls-2" x1="169.63" y1="137.85" x2="171.76" y2="156.52"/><line class="cls-2" x1="129.1" y1="86.12" x2="139.76" y2="96.25"/><polyline class="cls-2" points="129.1 57.85 147.76 62.12 153.1 75.99 160.56 91.45"/><line class="cls-2" x1="135.5" y1="120.25" x2="154.16" y2="124.52"/><polyline class="cls-2" points="89.5 674 89.5 691.31 95.9 703.18 105.5 688.79"/><line class="cls-2" x1="76.7" y1="749.58" x2="92.7" y2="736.25"/><polyline class="cls-2" points="160.03 109.59 172.3 119.19 177.1 104.79"/><path class="cls-2" d="M59.08,774l-1.49-4.24c-2.29-6.54.24-13.89,5-14.43l6.4-.74c3-.34,5.91,2.18,7.34,6.27l1.49,4.25c2.3,6.53-.24,13.88-5,14.43l-6.41.73C63.47,780.56,60.51,778,59.08,774Z"/><polyline class="cls-2" points="188.67 82.25 198.44 72.72 211.87 74.39"/><path class="cls-2" d="M47.52,268.27l.95,5.22c.56,3.06-.73,5.67-2.66,5.38l-8.73-1.3c-1.45-.22-2.79-2-3.21-4.31l-1-5.21c-.56-3.07.73-5.68,2.67-5.39l8.73,1.3C45.75,264.18,47.09,266,47.52,268.27Z"/><path class="cls-2" d="M24.28,205.71,21.17,210c-1.83,2.52-4.61,3.39-5.74,1.79l-5.09-7.21c-.84-1.2-.47-3.41.9-5.3L14.35,195c1.83-2.53,4.61-3.4,5.74-1.79l5.09,7.21C26,201.61,25.65,203.82,24.28,205.71Z"/><polyline class="cls-2" points="0.5 264.5 7.5 256.5 17.54 260.47"/><line class="cls-2" x1="145.03" y1="238.72" x2="135.96" y2="250.99"/><line class="cls-2" x1="48.1" y1="217.12" x2="58.76" y2="227.25"/><polyline class="cls-2" points="38.1 192.85 56.77 197.12 62.1 210.99 69.56 226.45"/><line class="cls-2" x1="54.5" y1="251.25" x2="73.16" y2="255.52"/><polyline class="cls-2" points="22.5 221 22.5 238.31 28.9 250.19 38.5 235.79"/><polyline class="cls-2" points="79.03 240.59 91.3 250.19 96.1 235.79"/><polyline class="cls-2" points="99.67 275.25 109.44 265.72 122.87 267.39"/><path class="cls-2" d="M96.46,102.75l-3.64-2.08c-5.6-3.21-5.68-11.24-.15-15.77l7.48-6.12a10.39,10.39,0,0,1,11.62-1.37l3.64,2.08c5.6,3.21,5.68,11.24.15,15.76l-7.47,6.13A10.41,10.41,0,0,1,96.46,102.75Z"/><path class="cls-2" d="M75.53,169.5H73.85c-2.58,0-3.36-3.48-1.53-6.87l2.47-4.58c1.14-2.12,3-3.55,4.6-3.56h1.68c2.58,0,3.37,3.48,1.54,6.87l-2.47,4.58C79,168.06,77.15,169.49,75.53,169.5Z"/><path class="cls-2" d="M133.2,171.75l-.24,3.14c-.36,4.82-6.85,6.06-12.72,2.42l-8-4.91c-3.67-2.27-6-5.82-5.76-8.84l.24-3.13c.36-4.83,6.84-6.06,12.72-2.43l8,4.91C131.11,165.18,133.42,168.74,133.2,171.75Z"/><line class="cls-2" x1="93.96" y1="118.28" x2="114.52" y2="129.88"/><line class="cls-2" x1="75.5" y1="71.1" x2="70.55" y2="94.18"/><polyline class="cls-2" points="76.79 190.28 81.64 199.43 89.71 187.05"/><polyline class="cls-2" points="58.19 82.35 53.94 93.75 43.14 95.35 31 98.1"/><polyline class="cls-2" points="102.12 57.91 111.18 39.78 123.45 40.85 120.78 27.52"/><line class="cls-2" x1="62.03" y1="123.83" x2="52.96" y2="136.09"/><polyline class="cls-2" points="16.67 160.35 26.44 150.82 39.87 152.5"/><path class="cls-2" d="M636.28,640.71l-3.11,4.3c-1.83,2.52-4.61,3.39-5.74,1.79l-5.09-7.21c-.84-1.2-.47-3.41.9-5.3l3.11-4.29c1.83-2.53,4.61-3.4,5.74-1.79l5.09,7.21C638,636.61,637.65,638.82,636.28,640.71Z"/><line class="cls-2" x1="633.03" y1="702.72" x2="623.96" y2="714.99"/><line class="cls-2" x1="660.1" y1="652.12" x2="670.76" y2="662.25"/><polyline class="cls-2" points="662.68 590.15 669.8 607.93 661.44 620.21 652.98 635.15"/><polyline class="cls-2" points="634.5 656 634.5 673.31 640.9 685.18 650.5 670.79"/><polyline class="cls-2" points="613.03 744.59 625.3 754.18 630.1 739.79"/><polyline class="cls-2" points="645.67 729.25 655.44 719.72 668.87 721.39"/><line class="cls-2" x1="37.03" y1="808.72" x2="27.96" y2="820.99"/><polyline class="cls-2" points="49.5 788 49.5 805.31 55.9 817.18 65.5 802.79"/><polyline class="cls-2" points="571.03 805.59 583.3 815.18 588.1 800.79"/><polyline class="cls-2" points="78.67 810.25 88.44 800.72 101.87 802.39"/><line class="cls-2" x1="592.03" y1="289.72" x2="582.96" y2="301.99"/><line class="cls-2" x1="544.1" y1="317.12" x2="554.76" y2="327.25"/><line class="cls-2" x1="609.1" y1="265.12" x2="619.76" y2="275.25"/><polyline class="cls-2" points="545.1 291.86 563.76 296.12 569.1 309.99 576.56 325.45"/><polyline class="cls-2" points="519.5 324 519.5 341.31 525.9 353.19 535.5 338.79"/><polyline class="cls-2" points="576.03 343.59 588.3 353.19 593.1 338.79"/><polyline class="cls-2" points="604.67 316.25 614.44 306.72 627.87 308.39"/><path class="cls-2" d="M103.5,627.17l-1.56,1.5c-2.42,2.32-6.13-.76-7.3-6l-1.57-7.14c-.73-3.29-.2-6.48,1.3-7.93l1.57-1.51c2.42-2.31,6.13.76,7.3,6l1.57,7.14C105.54,622.53,105,625.72,103.5,627.17Z"/><path class="cls-2" d="M186.52,686.27l.95,5.22c.56,3.06-.73,5.67-2.66,5.38l-8.73-1.3c-1.45-.22-2.79-2-3.21-4.31l-1-5.21c-.56-3.07.73-5.68,2.67-5.39l8.73,1.3C184.75,682.18,186.09,684,186.52,686.27Z"/><path class="cls-2" d="M163.28,623.71l-3.11,4.3c-1.83,2.52-4.61,3.39-5.74,1.79l-5.09-7.21c-.84-1.2-.47-3.41.9-5.3l3.11-4.29c1.83-2.53,4.61-3.4,5.74-1.79l5.09,7.21C165,619.61,164.65,621.82,163.28,623.71Z"/><polyline class="cls-2" points="55.12 632.81 64.18 614.68 76.45 615.75 73.78 602.41"/><polyline class="cls-2" points="132.94 692.64 142.06 679.45 156.54 678.47"/><line class="cls-2" x1="46.03" y1="515.72" x2="36.96" y2="527.99"/><line class="cls-2" x1="24.03" y1="609.72" x2="14.96" y2="621.99"/><line class="cls-2" x1="39.63" y1="597.85" x2="41.76" y2="616.52"/><line class="cls-2" x1="-0.9" y1="546.12" x2="9.76" y2="556.25"/><polyline class="cls-2" points="-0.9 517.86 17.77 522.12 23.1 535.99 30.56 551.45"/><line class="cls-2" x1="5.5" y1="580.25" x2="24.16" y2="584.52"/><polyline class="cls-2" points="161.5 639 161.5 656.31 167.9 668.18 177.5 653.79"/><line class="cls-2" x1="148.7" y1="714.58" x2="164.7" y2="701.25"/><path class="cls-2" d="M62.52,677.27l.95,5.22c.56,3.06-.73,5.67-2.66,5.38l-8.73-1.3c-1.45-.22-2.79-2-3.21-4.31l-1-5.21c-.56-3.07.73-5.68,2.67-5.39l8.73,1.3C60.75,673.18,62.09,675,62.52,677.27Z"/><polyline class="cls-2" points="8.94 683.64 18.06 670.45 32.54 669.47"/><polyline class="cls-2" points="37.5 630 37.5 647.31 43.9 659.18 53.5 644.79"/><line class="cls-2" x1="24.7" y1="705.58" x2="40.7" y2="692.25"/><polyline class="cls-2" points="30.03 569.59 42.3 579.18 47.1 564.79"/><polyline class="cls-2" points="58.67 542.25 68.44 532.72 81.87 534.39"/><path class="cls-2" d="M556.5,637.17l-1.56,1.5c-2.42,2.32-6.13-.76-7.3-6l-1.57-7.14c-.73-3.29-.2-6.48,1.3-7.93l1.57-1.51c2.42-2.31,6.13.76,7.3,6l1.57,7.14C558.54,632.53,558,635.72,556.5,637.17Z"/><polyline class="cls-2" points="577.41 652.34 589.18 649.37 614.28 665.18"/><polyline class="cls-2" points="508.12 642.81 517.18 624.68 529.45 625.75 526.78 612.41"/><line class="cls-2" x1="499.03" y1="525.72" x2="489.96" y2="537.99"/><line class="cls-2" x1="492.63" y1="607.85" x2="494.76" y2="626.52"/><polyline class="cls-2" points="452.1 527.86 470.76 532.12 476.1 545.99 483.56 561.45"/><polyline class="cls-2" points="482.96 648.32 488.83 663.25 501.1 665.38"/><polyline class="cls-2" points="483.03 579.59 495.3 589.18 500.1 574.79"/><polyline class="cls-2" points="511.67 552.25 521.44 542.72 534.87 544.39"/><polyline class="cls-2" points="16.4 769.98 25.47 751.85 37.73 752.92 35.07 739.58"/><polyline class="cls-2" points="42.79 724.17 47.64 733.32 55.71 720.95"/><polyline class="cls-2" points="11.67 786.25 21.44 776.72 34.87 778.39"/><polyline class="cls-2" points="351.7 780.52 358.64 800.79 371.97 795.99"/><path class="cls-2" d="M306.31,806.87l1.9.52c2.94.81,3.91,4.47,1.91,7.19l-2.7,3.68a4.91,4.91,0,0,1-5.16,2l-1.9-.52c-2.94-.8-3.91-4.47-1.91-7.19l2.7-3.68A4.93,4.93,0,0,1,306.31,806.87Z"/><path class="cls-2" d="M555.5,831.17l-1.56,1.5c-2.42,2.32-6.13-.76-7.3-6l-1.57-7.14c-.73-3.29-.2-6.48,1.3-7.93l1.57-1.51c2.42-2.31,6.13.76,7.3,6l1.57,7.14C557.54,826.53,557,829.72,555.5,831.17Z"/><path class="cls-2" d="M252.46,801.65l-3.64-2.09c-5.6-3.2-5.68-11.23-.15-15.76l7.48-6.12a10.4,10.4,0,0,1,11.62-1.38l3.64,2.09c5.6,3.21,5.68,11.24.15,15.76l-7.47,6.12A10.41,10.41,0,0,1,252.46,801.65Z"/><path class="cls-2" d="M429.2,679.65l-.24,3.13c-.36,4.83-6.85,6.06-12.72,2.43l-8-4.91c-3.67-2.27-6-5.83-5.76-8.84l.24-3.14c.36-4.82,6.84-6.06,12.72-2.43l8,4.92C427.11,673.08,429.42,676.63,429.2,679.65Z"/><path class="cls-2" d="M331.29,798.83H329c-3.51,0-5.66-3.83-4.22-7.47l1.93-4.93a5.72,5.72,0,0,1,5.16-3.79h2.27c3.5,0,5.66,3.83,4.22,7.47L336.45,795A5.72,5.72,0,0,1,331.29,798.83Z"/><polyline class="cls-2" points="406.41 727.34 418.18 724.37 443.28 740.18"/><line class="cls-2" x1="280.98" y1="809.26" x2="268.84" y2="809.7"/><polyline class="cls-2" points="324.04 818.73 315.3 824.27 328.26 831.36"/><path class="cls-2" d="M450.52,801.27l1,5.22c.56,3.06-.73,5.67-2.66,5.38l-8.73-1.3c-1.45-.22-2.79-2-3.21-4.31l-1-5.21c-.56-3.07.73-5.68,2.67-5.39l8.73,1.3C448.75,797.18,450.09,799,450.52,801.27Z"/><path class="cls-2" d="M394.28,710.71l-3.11,4.3c-1.83,2.52-4.61,3.39-5.74,1.79l-5.09-7.21c-.84-1.2-.47-3.41.9-5.3l3.11-4.29c1.83-2.53,4.61-3.4,5.74-1.79l5.09,7.21C396,706.61,395.65,708.82,394.28,710.71Z"/><polyline class="cls-2" points="362.97 695.65 372.03 677.52 384.3 678.58 381.63 665.25"/><polyline class="cls-2" points="507.12 836.81 516.18 818.68 528.45 819.75 525.78 806.41"/><polyline class="cls-2" points="396.94 807.64 406.06 794.45 420.54 793.47"/><line class="cls-2" x1="498.03" y1="719.72" x2="488.96" y2="731.99"/><line class="cls-2" x1="471.03" y1="814.72" x2="461.96" y2="826.99"/><line class="cls-2" x1="491.63" y1="801.85" x2="493.76" y2="820.52"/><line class="cls-2" x1="345.23" y1="808.58" x2="353.76" y2="821.92"/><line class="cls-2" x1="451.1" y1="750.12" x2="461.76" y2="760.25"/><polyline class="cls-2" points="451.1 721.86 469.76 726.12 475.1 739.99 482.56 755.45"/><line class="cls-2" x1="457.5" y1="784.25" x2="476.16" y2="788.52"/><polyline class="cls-2" points="425.5 754 425.5 771.31 431.9 783.18 441.5 768.79"/><polyline class="cls-2" points="463.5 673 463.5 690.31 469.9 702.18 479.5 687.79"/><line class="cls-2" x1="412.7" y1="829.58" x2="428.7" y2="816.25"/><polyline class="cls-2" points="374.96 813.32 380.83 828.25 393.1 830.38"/><polyline class="cls-2" points="482.03 773.59 494.3 783.18 499.1 768.79"/><path class="cls-2" d="M395.08,637l-1.49-4.24c-2.29-6.54.24-13.89,5-14.43l6.4-.74c3-.34,5.91,2.18,7.34,6.27l1.49,4.25c2.3,6.53-.24,13.88-5,14.43l-6.41.73C399.47,643.56,396.51,641,395.08,637Z"/><path class="cls-2" d="M518.08,589l-1.49-4.24c-2.29-6.54.24-13.89,5-14.43l6.4-.74c3-.34,5.91,2.18,7.34,6.27l1.49,4.25c2.3,6.53-.24,13.88-5,14.43l-6.41.73C522.47,595.56,519.51,593,518.08,589Z"/><polyline class="cls-2" points="510.67 746.25 520.44 736.72 533.87 738.39"/><line class="cls-2" x1="602.03" y1="584.72" x2="592.96" y2="596.99"/><polyline class="cls-2" points="555.1 586.86 573.76 591.12 579.1 604.99 586.56 620.45"/><polyline class="cls-2" points="614.67 611.25 624.44 601.72 637.87 603.39"/><line class="cls-3" x1="197.93" y1="430.22" x2="217.13" y2="439.82"/><line class="cls-3" x1="308.93" y1="612.22" x2="328.13" y2="621.82"/><line class="cls-2" x1="235.67" y1="189.71" x2="226.6" y2="201.97"/><line class="cls-2" x1="456.5" y1="59.25" x2="475.16" y2="63.52"/><line class="cls-2" x1="150.5" y1="381.5" x2="175.5" y2="378.5"/><path class="cls-2" d="M123.56,350l.33-6.07c.19-3.57,3.94-6,7.74-5.11L148.77,343a5.78,5.78,0,0,1,4.64,5.77l-.32,6.07c-.19,3.57-3.94,6-7.75,5.11l-17.14-4.18A5.81,5.81,0,0,1,123.56,350Z"/><line class="cls-2" x1="640.5" y1="533.5" x2="660.5" y2="549.5"/><line class="cls-2" x1="597.5" y1="550.5" x2="618.5" y2="535.5"/><path d="M432.2,547.75c.42.67.84,1.31,1.21,1.93a27.39,27.39,0,0,1,2.07,4.21,4.83,4.83,0,0,1,.41,1.86,4.74,4.74,0,0,1-1.19,2.56,32.3,32.3,0,0,1-4.53,4.82,1.8,1.8,0,0,1-1.6.61,1.25,1.25,0,0,1-.69-1.45,3.73,3.73,0,0,1,.88-1.51l2.53-3a2.3,2.3,0,0,0,.5-.85,2.18,2.18,0,0,0-.16-1.12c-.69-2.12-1.53-4.41-3.44-5.56-2.44-1.45-7.82-.92-9.3,1.92-.67,1.29.26,2.8,1.15,4l2.21,2.87a5.37,5.37,0,0,1,1.05,1.82,1.81,1.81,0,0,1-.55,1.9,14.92,14.92,0,0,1-7.93-7.39,5.26,5.26,0,0,1-.63-2.86,6.2,6.2,0,0,1,1-2.32c2.26-3.76,5-7,5.74-11.46.06-.42,0-1-.4-1.08a.79.79,0,0,0-.4,0c-2.45.73-4.36,2.54-6.72,3.47-1,.39-5.54,2.53-5.22-.25a2.16,2.16,0,0,1,1-1.31c2.44-1.82,5.53-2.87,7.78-4.86a54.16,54.16,0,0,1,5.1-4.6c1.1-.75,4.62-1.4,4.21-3.29-.14-.62-.74-1-1.2-1.44a4.78,4.78,0,0,1-1-4.77,4.43,4.43,0,0,1,3.92-3.24c1.76-.05,4,1.76,3.82,3.65a4.84,4.84,0,0,1-.49,1.46,27.74,27.74,0,0,0-1.7,5c-.51,2.15,1,2.14,2.49,3.15a20.13,20.13,0,0,1,3.92,3.45,51.4,51.4,0,0,1,5.88,8.59,5.07,5.07,0,0,1,.86,2.18,1.73,1.73,0,0,1-1.18,1.82c-1.08.22-3.37-3.77-3.91-4.49-1-1.28-2.69-3.6-4.58-3.41s-2.82,2.71-2.71,4.37A10.65,10.65,0,0,0,432.2,547.75Z"/></svg>