<?xml version="1.0" encoding="utf-8"?>
<!-- Generator: Adobe Illustrator 23.0.0, SVG Export Plug-In . SVG Version: 6.00 Build 0)  -->
<svg version="1.1" id="Layer_1" xmlns="http://www.w3.org/2000/svg" xmlns:xlink="http://www.w3.org/1999/xlink" x="0px" y="0px"
	 viewBox="0 0 677.9 841" style="enable-background:new 0 0 677.9 841;" xml:space="preserve">
<style type="text/css">
	.st0{fill:#D3C7D1;stroke:#000000;stroke-linejoin:round;}
	.st1{fill:none;stroke:#000000;stroke-linejoin:round;}
	.st2{fill:none;stroke:#000000;stroke-miterlimit:10;}
</style>
<title>ay</title>
<rect x="0.5" y="0.5" class="st0" width="676.9" height="840"/>
<path class="st1" d="M381.6,487.6l-2.9,3c-1.5,1.6-3.9,1.6-5.5,0.1c-0.2-0.2-0.4-0.4-0.5-0.6l-6.2-9.1c-1-1.5-0.8-3.6,0.4-4.9l2.9-3
	c1.5-1.6,3.9-1.6,5.5-0.1c0.2,0.2,0.4,0.4,0.5,0.6l6.2,9.1C383,484.2,382.8,486.2,381.6,487.6z"/>
<path class="st1" d="M334.9,555.2l2.6-3.3c1.3-1.7,3.8-2,5.4-0.7c0.2,0.2,0.4,0.3,0.6,0.5l7.1,8.5c1.2,1.4,1.2,3.5,0.1,4.9l-2.6,3.3
	c-1.3,1.7-3.8,2-5.4,0.7c-0.2-0.2-0.4-0.3-0.6-0.5l-7.1-8.5C333.7,558.7,333.7,556.7,334.9,555.2z"/>
<path class="st1" d="M405.7,585l-3.3,3.4c-1.6,1.7-4.4,1.8-6.1,0.2c-0.2-0.2-0.4-0.4-0.6-0.7l-7-10.2c-1.2-1.7-1-4,0.5-5.5l3.3-3.4
	c1.6-1.7,4.4-1.8,6.1-0.2c0.2,0.2,0.4,0.4,0.6,0.7l7,10.2C407.3,581.2,407.1,583.5,405.7,585z"/>
<path class="st1" d="M177.6,464.6l-4.6-1.7c-2.4-0.9-3.6-3.5-2.7-5.9c0.1-0.3,0.2-0.6,0.4-0.9l7-11c1.2-1.8,3.5-2.6,5.5-1.8l4.6,1.7
	c2.4,0.9,3.6,3.5,2.7,5.9c-0.1,0.3-0.2,0.6-0.4,0.8l-7,11C181.9,464.6,179.7,465.3,177.6,464.6z"/>
<path class="st1" d="M317.5,527.9l-4-0.7c-2.1-0.4-3.5-2.4-3.1-4.5c0-0.3,0.1-0.5,0.2-0.7l4-10.2c0.7-1.7,2.4-2.7,4.2-2.4l4,0.7
	c2.1,0.4,3.5,2.4,3.1,4.5c0,0.3-0.1,0.5-0.2,0.7l-4,10.2C321,527.2,319.2,528.2,317.5,527.9z"/>
<path class="st1" d="M313,334l-4.9,3.5c-2.9,2.1-6.7,1.3-7.8-1.5l-5.1-12.9c-0.8-2.4,0.2-5,2.2-6.3l4.9-3.5c2.9-2.1,6.7-1.3,7.8,1.5
	l5.1,12.9C316,330.1,315.1,332.7,313,334z"/>
<path class="st1" d="M273.6,486.6l-3.9,3.7c-2.3,2.1-5.2,2.5-6,0.7l-3.7-8.1c-0.6-1.3,0.2-3.5,1.9-5.1l3.9-3.7
	c2.3-2.1,5.2-2.5,6-0.7l3.7,8.1C276.1,482.9,275.3,485,273.6,486.6z"/>
<path class="st1" d="M203.5,488.7l-3.9,3.7c-2.3,2.2-5.2,2.5-6,0.7l-3.7-8.1c-0.6-1.3,0.2-3.5,1.9-5.1l3.9-3.7
	c2.3-2.1,5.2-2.5,6-0.7l3.7,8.1C206,485,205.2,487.1,203.5,488.7z"/>
<path class="st1" d="M404.1,371.2l1,5.2c0.6,3.1-0.7,5.7-2.7,5.4l-8.7-1.3c-1.5-0.2-2.8-2-3.2-4.3l-1-5.2c-0.6-3.1,0.7-5.7,2.7-5.4
	l8.7,1.3C402.4,367.2,403.7,369,404.1,371.2z"/>
<path class="st1" d="M380.9,308.7l-3.1,4.3c-1.8,2.5-4.6,3.4-5.7,1.8l-5.1-7.2c-0.9-1.2-0.5-3.4,0.9-5.3l3.1-4.3
	c1.8-2.5,4.6-3.4,5.7-1.8l5.1,7.2C382.7,304.6,382.3,306.8,380.9,308.7z"/>
<polyline class="st1" points="283.1,554.5 305,542.2 294.9,528.1 302.9,516.9 "/>
<line class="st1" x1="374.1" y1="547.5" x2="351.6" y2="536.4"/>
<line class="st1" x1="390.3" y1="526.8" x2="404.5" y2="514.5"/>
<polyline class="st1" points="323,426.1 342.8,435.1 332.7,446.5 "/>
<line class="st1" x1="428.1" y1="463.4" x2="447.8" y2="472.5"/>
<line class="st1" x1="272.5" y1="382.5" x2="267.4" y2="361.4"/>
<line class="st1" x1="316.3" y1="448.3" x2="311.4" y2="467.6"/>
<polyline class="st1" points="378.6,432.6 387.7,414.5 399.9,415.6 397.3,402.2 "/>
<polyline class="st1" points="460.8,406.8 469.8,388.7 482.1,389.7 479.4,376.4 "/>
<polyline class="st1" points="516.4,536 525.5,517.8 537.7,518.9 535.1,505.6 "/>
<polyline class="st1" points="427.5,576.4 449.2,577.8 459.2,567 "/>
<polyline class="st1" points="444.7,492.9 435.7,511 449.5,509.4 "/>
<line class="st2" x1="260.2" y1="513.7" x2="279.4" y2="523.3"/>
<polyline class="st2" points="342.9,588.9 323.7,579.3 314.1,591 "/>
<line class="st2" x1="373.2" y1="578" x2="368" y2="598.8"/>
<polyline class="st1" points="350.6,377.6 359.7,364.4 374.2,363.5 "/>
<polyline class="st1" points="362.3,523.8 371.4,510.6 385.9,509.6 "/>
<path class="st1" d="M429.6,441.5l-9.4,4.7c-1.6,0.8-3.6,0.2-4.4-1.5c-0.2-0.5-0.4-1-0.4-1.5V432c0-1.3,0.7-2.4,1.8-3l9.4-4.7
	c1.6-0.8,3.6-0.2,4.4,1.5c0.2,0.5,0.4,1,0.4,1.5v11.3C431.4,439.8,430.7,441,429.6,441.5z"/>
<path class="st1" d="M531.7,440.5l-9.4,4.7c-1.6,0.8-3.6,0.2-4.4-1.5c-0.2-0.5-0.4-1-0.4-1.5V431c0-1.3,0.7-2.4,1.8-3l9.4-4.7
	c1.6-0.8,3.6-0.2,4.4,1.5c0.2,0.5,0.4,1,0.4,1.5v11.3C533.5,438.8,532.8,440,531.7,440.5z"/>
<polyline class="st1" points="278.9,293.4 259.7,290.2 265,301.4 256.5,312.1 "/>
<line class="st1" x1="451.7" y1="289.7" x2="442.6" y2="302"/>
<polyline class="st1" points="284.7,247.5 291.6,267.8 305,263 "/>
<polyline class="st1" points="342.3,319.6 349.3,339.8 362.6,335 "/>
<line class="st1" x1="445.3" y1="371.8" x2="447.4" y2="390.5"/>
<line class="st1" x1="406.9" y1="391.6" x2="415.4" y2="404.9"/>
<line class="st1" x1="404.7" y1="320.1" x2="415.4" y2="330.2"/>
<polyline class="st1" points="404.7,291.8 423.4,296.1 428.7,310 436.2,325.4 "/>
<polyline class="st1" points="603.4,156.2 595,173.4 580.3,175.4 563.5,179.1 "/>
<line class="st1" x1="411.1" y1="354.2" x2="429.8" y2="358.5"/>
<polyline class="st1" points="379.1,324 379.1,341.3 385.5,353.2 395.1,338.8 "/>
<line class="st1" x1="366.3" y1="399.6" x2="382.3" y2="386.2"/>
<line class="st1" x1="287.9" y1="363.8" x2="302.9" y2="375"/>
<polyline class="st1" points="305,352.1 325.8,349.4 335.4,361.2 "/>
<polyline class="st1" points="193.7,320.3 214.5,317.6 224.1,329.4 "/>
<line class="st1" x1="310.3" y1="413.4" x2="325.8" y2="401.7"/>
<line class="st1" x1="325.8" y1="371.8" x2="339.1" y2="382.5"/>
<polyline class="st1" points="278.3,315.8 285.8,330.8 275.7,331.3 259.7,328.6 "/>
<line class="st1" x1="279.9" y1="345.7" x2="259.7" y2="352.6"/>
<polyline class="st1" points="256.5,407.6 272.5,399.6 254.9,394.8 257.5,377.2 "/>
<polyline class="st1" points="125.5,493.6 141.5,485.6 123.9,480.8 126.5,463.2 "/>
<line class="st1" x1="269.8" y1="418.8" x2="285.8" y2="427.3"/>
<line class="st1" x1="292.2" y1="446.5" x2="302.9" y2="427.3"/>
<polyline class="st1" points="302.9,298.2 324.7,294 332.7,303.6 "/>
<path class="st1" d="M174.5,575.3l0.9,5.2c0.6,3.1-0.7,5.7-2.7,5.4l-8.7-1.3c-1.4-0.2-2.8-2-3.2-4.3l-1-5.2
	c-0.6-3.1,0.7-5.7,2.7-5.4l8.7,1.3C172.8,571.2,174.1,573,174.5,575.3z"/>
<path class="st1" d="M134.5,798.3l0.9,5.2c0.6,3.1-0.7,5.7-2.7,5.4l-8.7-1.3c-1.4-0.2-2.8-2-3.2-4.3l-1-5.2
	c-0.6-3.1,0.7-5.7,2.7-5.4l8.7,1.3C132.8,794.2,134.1,796,134.5,798.3z"/>
<path class="st1" d="M151.3,512.7l-3.1,4.3c-1.8,2.5-4.6,3.4-5.7,1.8l-5.1-7.2c-0.8-1.2-0.5-3.4,0.9-5.3l3.1-4.3
	c1.8-2.5,4.6-3.4,5.7-1.8l5.1,7.2C153,508.6,152.6,510.8,151.3,512.7z"/>
<polyline class="st1" points="112.7,523.6 119.6,543.8 133,539 "/>
<line class="st1" x1="167.2" y1="593.6" x2="175.8" y2="606.9"/>
<line class="st1" x1="165.1" y1="522.1" x2="175.8" y2="532.2"/>
<polyline class="st1" points="165.1,493.9 183.8,498.1 189.1,512 196.6,527.5 "/>
<line class="st1" x1="171.5" y1="556.2" x2="190.2" y2="560.5"/>
<polyline class="st1" points="149.5,528 149.5,545.3 155.9,557.2 165.5,542.8 "/>
<polyline class="st1" points="104.5,552.5 89.8,567.4 75,564.1 "/>
<polyline class="st1" points="73.2,502.2 95.1,498 103.1,507.6 "/>
<polyline class="st1" points="253.3,528.1 264.5,537.7 253.3,554.2 "/>
<polyline class="st1" points="466.2,448.1 481.7,438.5 493.4,443.3 497.7,432.6 "/>
<line class="st1" x1="342.9" y1="460.9" x2="362.6" y2="454"/>
<line class="st1" x1="292.2" y1="482.2" x2="295.4" y2="502"/>
<path class="st1" d="M610.5,245.9l-4-0.7c-2.1-0.4-3.5-2.4-3.1-4.5c0-0.3,0.1-0.5,0.2-0.7l4-10.2c0.7-1.7,2.4-2.7,4.2-2.4l4,0.7
	c2.1,0.4,3.5,2.4,3.1,4.5c0,0.3-0.1,0.5-0.2,0.7l-4,10.2C614,245.2,612.2,246.2,610.5,245.9z"/>
<path class="st1" d="M566.6,204.6l-3.9,3.7c-2.3,2.1-5.2,2.5-6,0.7l-3.7-8.1c-0.6-1.3,0.2-3.4,1.9-5.1l3.9-3.7
	c2.3-2.1,5.2-2.5,6-0.7l3.7,8.1C569.1,200.9,568.3,203,566.6,204.6z"/>
<polyline class="st1" points="576.1,272.5 598,260.2 587.9,246.1 595.9,234.9 "/>
<line class="st2" x1="553.2" y1="231.7" x2="572.4" y2="241.3"/>
<polyline class="st1" points="546.3,246.1 557.5,255.7 546.3,272.2 "/>
<line class="st1" x1="585.2" y1="200.2" x2="588.4" y2="220"/>
<polyline class="st1" points="265.5,578.5 260.2,595.8 273.5,593.7 "/>
<line class="st1" x1="288.9" y1="576.6" x2="295.8" y2="594"/>
<polyline class="st2" points="241.9,728.9 222.7,719.3 213.1,731 "/>
<polyline class="st1" points="164.5,718.5 159.2,735.8 172.5,733.7 "/>
<line class="st1" x1="187.9" y1="716.6" x2="194.8" y2="734"/>
<line class="st1" x1="185.9" y1="809.6" x2="192.8" y2="827"/>
<polyline class="st1" points="395.1,460.9 405.3,472.6 411.1,467.8 "/>
<line class="st1" x1="399.9" y1="492.9" x2="425" y2="492.9"/>
<line class="st1" x1="461.3" y1="627.8" x2="475.5" y2="615.5"/>
<polyline class="st1" points="433.3,624.8 442.4,611.6 456.9,610.6 "/>
<line class="st1" x1="438.9" y1="653.9" x2="464" y2="653.9"/>
<polyline class="st1" points="447.4,426.2 449.5,442.8 442.6,454 "/>
<line class="st1" x1="379.1" y1="454" x2="392.5" y2="436.9"/>
<polyline class="st1" points="426.6,387.3 432.5,402.2 444.7,404.4 "/>
<polyline class="st1" points="435.7,343.6 447.9,353.2 452.7,338.8 "/>
<polyline class="st1" points="455.7,266.6 467.9,276.2 472.7,261.8 "/>
<path class="st1" d="M233.3,222.9l1.9,0.5c2.9,0.8,3.9,4.5,1.9,7.2l-2.7,3.7c-1.1,1.7-3.2,2.5-5.2,2l-1.9-0.5
	c-2.9-0.8-3.9-4.5-1.9-7.2l2.7-3.7C229.3,223.2,231.3,222.4,233.3,222.9z"/>
<path class="st1" d="M485,339.5l-2.5-0.9c-3.9-1.4-5.7-6-3.5-8.9l2.9-4c1.5-1.9,4.1-2.5,6.4-1.6l2.5,0.9c3.9,1.4,5.7,6,3.5,8.9l-3,4
	C489.8,339.8,487.2,340.4,485,339.5z"/>
<path class="st1" d="M226.8,302l-1.5-4.2c-2.3-6.5,0.2-13.9,5-14.4l6.4-0.7c3-0.3,5.9,2.2,7.3,6.3l1.5,4.2c2.3,6.5-0.2,13.9-5,14.4
	l-6.4,0.7C231.2,308.6,228.2,306.1,226.8,302z"/>
<path class="st1" d="M348.7,423.9l-1.5-4.2c-2.3-6.5,0.2-13.9,5-14.4l6.4-0.7c3-0.3,5.9,2.2,7.3,6.3l1.5,4.2
	c2.3,6.5-0.2,13.9-5,14.4l-6.4,0.7C353.1,430.5,350.1,428,348.7,423.9z"/>
<path class="st1" d="M635.7,37.9l-1.5-4.2c-2.3-6.5,0.2-13.9,5-14.4l6.4-0.7c3-0.3,5.9,2.2,7.3,6.3l1.5,4.2c2.3,6.5-0.2,13.9-5,14.4
	l-6.4,0.7C640.1,44.5,637.2,42,635.7,37.9z"/>
<path class="st1" d="M240,399.9l-0.6,1.6c-1,2.5-3.9,3.5-5.8,2.1l-2.5-2c-1.2-1-1.5-2.7-0.9-4.1l0.6-1.6c1-2.5,3.9-3.5,5.8-2.1
	l2.5,2C240.3,396.8,240.6,398.5,240,399.9z"/>
<path class="st1" d="M487.5,245.2l-1.6,1.5c-2.4,2.3-6.1-0.8-7.3-6l-1.6-7.1c-0.7-3.3-0.2-6.5,1.3-7.9l1.6-1.5
	c2.4-2.3,6.1,0.8,7.3,6l1.6,7.1C489.5,240.5,489,243.7,487.5,245.2z"/>
<path class="st1" d="M179.5,217.6l-3.6-2.1c-5.6-3.2-5.7-11.2-0.1-15.8l7.5-6.1c3.2-2.8,7.8-3.3,11.6-1.4l3.6,2.1
	c5.6,3.2,5.7,11.2,0.1,15.8l-7.5,6.1C187.9,219.1,183.3,219.6,179.5,217.6z"/>
<path class="st1" d="M230.5,566.2l-2.8,3.2c-4.2,4.9-12.1,3.3-15.5-3l-4.5-8.5c-2.1-3.7-1.7-8.4,1-11.7l2.8-3.2
	c4.3-4.8,12.1-3.3,15.5,3l4.5,8.5C233.6,558.2,233.2,562.8,230.5,566.2z"/>
<path class="st1" d="M197.4,344l-0.9-1.4c-1.4-2.2,1.1-4.7,5-5l5.2-0.4c2.4-0.2,4.6,0.6,5.5,2l0.9,1.4c1.4,2.2-1.1,4.7-5,5l-5.2,0.4
	C200.5,346.2,198.3,345.4,197.4,344z"/>
<path class="st1" d="M138.5,290.5h-1.7c-2.6,0-3.4-3.5-1.5-6.9l2.5-4.6c1.1-2.1,3-3.5,4.6-3.6h1.7c2.6,0,3.4,3.5,1.5,6.9l-2.5,4.6
	C142,289.1,140.1,290.5,138.5,290.5z"/>
<path class="st1" d="M291.6,410.9H290c-2.6,0-3.4-3.5-1.5-6.9l2.5-4.6c1.1-2.1,3-3.5,4.6-3.6h1.7c2.6,0,3.4,3.5,1.5,6.9l-2.5,4.6
	C295.1,409.5,293.2,410.9,291.6,410.9z"/>
<line class="st1" x1="203.5" y1="621.1" x2="198.4" y2="600"/>
<line class="st1" x1="218.9" y1="602.4" x2="233.9" y2="613.6"/>
<polyline class="st1" points="187.5,646.2 203.5,638.2 185.9,633.3 188.5,615.8 "/>
<line class="st1" x1="200.8" y1="657.3" x2="216.8" y2="665.9"/>
<line class="st1" x1="96.8" y1="818.3" x2="112.8" y2="826.9"/>
<line class="st1" x1="201.8" y1="697.3" x2="217.8" y2="705.9"/>
<line class="st1" x1="223.2" y1="685.1" x2="233.9" y2="665.9"/>
<line class="st1" x1="242.2" y1="827.1" x2="252.9" y2="807.9"/>
<path class="st1" d="M222.6,649.5H221c-2.6,0-3.4-3.5-1.5-6.9l2.5-4.6c1.1-2.1,3-3.5,4.6-3.6h1.7c2.6,0,3.4,3.5,1.5,6.9l-2.5,4.6
	C226.1,648.1,224.2,649.5,222.6,649.5z"/>
<path class="st1" d="M192.2,273.6l-0.2,3.1c-0.4,4.8-6.9,6.1-12.7,2.4l-8-4.9c-3.7-2.3-6-5.8-5.8-8.8l0.2-3.1
	c0.4-4.8,6.8-6.1,12.7-2.4l8,4.9C190.1,267.1,192.4,270.6,192.2,273.6z"/>
<path class="st1" d="M506.6,492.6l-0.2,3.1c-0.4,4.8-6.9,6.1-12.7,2.4l-8-4.9c-3.7-2.3-6-5.8-5.8-8.8l0.2-3.1
	c0.4-4.8,6.9-6.1,12.7-2.4l8,4.9C504.5,486,506.9,489.6,506.6,492.6z"/>
<path class="st1" d="M638.6,567.6l-0.2,3.1c-0.4,4.8-6.8,6.1-12.7,2.4l-8-4.9c-3.7-2.3-6-5.8-5.8-8.8l0.2-3.1
	c0.4-4.8,6.8-6.1,12.7-2.4l8,4.9C636.5,561,638.9,564.6,638.6,567.6z"/>
<path class="st1" d="M263.3,212.8H261c-3.5,0-5.7-3.8-4.2-7.5l1.9-4.9c0.8-2.2,2.8-3.7,5.2-3.8h2.3c3.5,0,5.7,3.8,4.2,7.5l-1.9,4.9
	C267.7,211.2,265.6,212.7,263.3,212.8z"/>
<path class="st1" d="M168.1,357.2l-1.6-0.2c-2.4-0.4-3.3-3.4-1.7-6l2.2-3.5c0.9-1.5,2.5-2.4,4.3-2.3l1.6,0.2c2.4,0.4,3.3,3.4,1.7,6
	l-2.2,3.5C171.5,356.4,169.8,357.3,168.1,357.2z"/>
<path class="st1" d="M498.2,407.2l0.2-1.4c0.4-2.1,3.3-2.3,5.8-0.3l3.4,2.7c1.6,1.2,2.5,3,2.3,4.3l-0.2,1.4
	c-0.4,2.1-3.3,2.3-5.9,0.3l-3.4-2.7C498.9,410.3,497.9,408.6,498.2,407.2z"/>
<path class="st1" d="M128.1,419.4l0.8-1.8c1.2-2.7,4.3-4.1,6-2.8l2.3,1.8c1.1,0.8,1.2,2.5,0.4,4.2l-0.8,1.8c-1.2,2.7-4.3,4.1-6,2.8
	l-2.3-1.8C127.5,422.8,127.3,421.1,128.1,419.4z"/>
<path class="st1" d="M20.1,492.4l0.8-1.8c1.2-2.7,4.3-4.1,6-2.8l2.3,1.8c1,0.8,1.2,2.5,0.5,4.2l-0.8,1.8c-1.2,2.7-4.3,4.1-6,2.8
	l-2.3-1.8C19.5,495.8,19.3,494.1,20.1,492.4z"/>
<polyline class="st1" points="527.2,261.2 527.5,273.4 506.5,294.3 "/>
<line class="st1" x1="488.3" y1="280.4" x2="485.4" y2="292.2"/>
<line class="st1" x1="235" y1="264.3" x2="222.8" y2="264.7"/>
<line class="st1" x1="177" y1="233.2" x2="197.5" y2="244.8"/>
<line class="st1" x1="158.5" y1="186" x2="153.6" y2="209.1"/>
<line class="st1" x1="209.2" y1="291.6" x2="200.1" y2="299.6"/>
<polyline class="st1" points="495.2,359.3 502.2,362.5 502.8,372.7 483.9,365.7 "/>
<polyline class="st1" points="562.8,754.8 571.8,736.7 584.1,737.7 581.4,724.4 "/>
<line class="st1" x1="547.3" y1="719.8" x2="549.4" y2="738.5"/>
<polyline class="st1" points="537.7,691.6 549.9,701.2 554.7,686.8 "/>
<path class="st1" d="M587,687.5l-2.5-0.9c-3.9-1.4-5.7-6-3.5-8.9l2.9-4c1.5-1.9,4.1-2.5,6.4-1.6l2.5,0.9c3.9,1.4,5.7,6,3.5,8.9l-3,4
	C591.8,687.8,589.2,688.4,587,687.5z"/>
<polyline class="st1" points="597.2,707.3 604.2,710.5 604.8,720.7 585.9,713.7 "/>
<polyline class="st1" points="620.8,806.8 629.8,788.7 642.1,789.7 639.4,776.4 "/>
<line class="st1" x1="605.3" y1="771.8" x2="607.4" y2="790.5"/>
<polyline class="st1" points="655.2,759.3 662.2,762.5 662.8,772.7 643.9,765.7 "/>
<line class="st1" x1="488.8" y1="399.1" x2="482" y2="407.5"/>
<polyline class="st1" points="183.5,398.7 178.9,389 200.2,385.4 198.5,405.8 "/>
<polyline class="st1" points="219.8,398.5 206.6,409.3 219.8,420.9 "/>
<polyline class="st1" points="159.8,305.2 164.6,314.3 172.7,301.9 "/>
<polyline class="st1" points="492.9,104.6 473.7,101.3 479,112.5 470.5,123.2 "/>
<polyline class="st1" points="509.7,53.6 516.6,73.9 530,69.1 "/>
<path class="st1" d="M440.8,113.2l-1.5-4.2c-2.3-6.5,0.2-13.9,5-14.4l6.4-0.7c3-0.3,5.9,2.2,7.3,6.3l1.5,4.2
	c2.3,6.5-0.2,13.9-5,14.4l-6.4,0.7C445.2,119.8,442.2,117.2,440.8,113.2z"/>
<path class="st1" d="M372.5,95.5h-1.7c-2.6,0-3.4-3.5-1.5-6.9l2.5-4.6c1.1-2.1,3-3.6,4.6-3.6h1.7c2.6,0,3.4,3.5,1.5,6.9l-2.5,4.6
	C376,94.1,374.1,95.5,372.5,95.5z"/>
<path class="st1" d="M421.2,79.8l-0.2,3.1c-0.4,4.8-6.9,6.1-12.7,2.4l-8-4.9c-3.7-2.3-6-5.8-5.8-8.8l0.2-3.1
	c0.4-4.8,6.8-6.1,12.7-2.4l8,4.9C419.1,73.2,421.4,76.7,421.2,79.8z"/>
<line class="st1" x1="449" y1="75.4" x2="436.8" y2="75.8"/>
<line class="st1" x1="423.2" y1="102.7" x2="414" y2="110.7"/>
<polyline class="st1" points="373.8,116.3 378.6,125.4 386.7,113.1 "/>
<path class="st1" d="M24.5,45.5h-1.7c-2.6,0-3.4-3.5-1.5-6.9l2.5-4.6c1.1-2.1,3-3.5,4.6-3.6h1.7c2.6,0,3.4,3.5,1.5,6.9l-2.5,4.6
	C28,44.1,26.1,45.5,24.5,45.5z"/>
<path class="st1" d="M73.2,29.8L73,32.9c-0.4,4.8-6.8,6.1-12.7,2.4l-8-4.9c-3.7-2.3-6-5.8-5.8-8.8l0.2-3.1c0.4-4.8,6.8-6.1,12.7-2.4
	l8,4.9C71.1,23.2,73.4,26.7,73.2,29.8z"/>
<line class="st1" x1="75.2" y1="52.7" x2="66.1" y2="60.7"/>
<polyline class="st1" points="25.8,66.3 30.6,75.4 38.7,63 "/>
<polyline class="st1" points="251,234.7 242.3,240.3 255.3,247.4 "/>
<path class="st1" d="M206.3,786.9l1.9,0.5c2.9,0.8,3.9,4.5,1.9,7.2l-2.7,3.7c-1.1,1.7-3.2,2.5-5.2,2l-1.9-0.5
	c-2.9-0.8-3.9-4.5-1.9-7.2l2.7-3.7C202.3,787.2,204.3,786.4,206.3,786.9z"/>
<path class="st1" d="M236.3,776.8H234c-3.5,0-5.7-3.8-4.2-7.5l1.9-4.9c0.8-2.2,2.8-3.7,5.2-3.8h2.3c3.5,0,5.7,3.8,4.2,7.5l-1.9,4.9
	C240.7,775.2,238.6,776.7,236.3,776.8z"/>
<polyline class="st1" points="224,798.7 215.3,804.3 228.3,811.4 "/>
<polyline class="st1" points="368.9,724.4 349.7,721.2 355,732.4 346.5,743.1 "/>
<polyline class="st1" points="288.7,749.3 309.5,746.6 319.1,758.4 "/>
<polyline class="st1" points="368.3,746.8 375.8,761.8 365.7,762.3 349.7,759.6 "/>
<path class="st1" d="M319.3,645.9l1.9,0.5c2.9,0.8,3.9,4.5,1.9,7.2l-2.7,3.7c-1.1,1.7-3.2,2.5-5.2,2l-1.9-0.5
	c-2.9-0.8-3.9-4.5-1.9-7.2l2.7-3.7C315.3,646.2,317.3,645.4,319.3,645.9z"/>
<path class="st1" d="M512.3,688.9l1.9,0.5c2.9,0.8,3.9,4.5,1.9,7.2l-2.7,3.7c-1.1,1.7-3.2,2.5-5.2,2l-1.9-0.5
	c-2.9-0.8-3.9-4.5-1.9-7.2l2.7-3.7C508.3,689.2,510.3,688.4,512.3,688.9z"/>
<path class="st1" d="M321.8,731l-1.5-4.2c-2.3-6.5,0.2-13.9,5-14.4l6.4-0.7c3-0.3,5.9,2.2,7.3,6.3l1.5,4.2c2.3,6.5-0.2,13.9-5,14.4
	l-6.4,0.7C326.2,737.6,323.2,735.1,321.8,731z"/>
<path class="st1" d="M269.5,648.7l-3.6-2.1c-5.6-3.2-5.7-11.2-0.1-15.8l7.5-6.1c3.2-2.8,7.8-3.3,11.6-1.4l3.6,2.1
	c5.6,3.2,5.7,11.2,0.1,15.8l-7.5,6.1C277.9,650.1,273.3,650.6,269.5,648.7z"/>
<path class="st1" d="M292.5,773l-0.9-1.4c-1.4-2.2,1.1-4.7,5-5l5.2-0.4c2.4-0.2,4.6,0.6,5.5,2l0.9,1.4c1.4,2.2-1.1,4.7-5,5l-5.2,0.4
	C295.5,775.2,293.3,774.4,292.5,773z"/>
<path class="st1" d="M385.5,783l-0.9-1.4c-1.4-2.2,1.1-4.7,5-5l5.2-0.4c2.4-0.2,4.6,0.6,5.5,2l0.9,1.4c1.4,2.2-1.1,4.7-5,5l-5.2,0.4
	C388.5,785.2,386.3,784.4,385.5,783z"/>
<path class="st1" d="M243.5,711.4h-1.7c-2.6,0-3.4-3.5-1.5-6.9l2.5-4.6c1.1-2.1,3-3.5,4.6-3.5h1.7c2.6,0,3.4,3.5,1.5,6.9l-2.5,4.6
	C247,710,245.1,711.4,243.5,711.4z"/>
<path class="st1" d="M302.2,697.7l-0.2,3.1c-0.4,4.8-6.9,6.1-12.7,2.4l-8-4.9c-3.7-2.3-6-5.8-5.8-8.8l0.2-3.1
	c0.4-4.8,6.8-6.1,12.7-2.4l8,4.9C300.1,691.1,302.4,694.6,302.2,697.7z"/>
<path class="st1" d="M353.3,643.8H351c-3.5,0-5.7-3.8-4.2-7.5l1.9-4.9c0.8-2.2,2.8-3.7,5.2-3.8h2.3c3.5,0,5.7,3.8,4.2,7.5l-1.9,4.9
	C357.7,642.2,355.6,643.7,353.3,643.8z"/>
<line class="st1" x1="330" y1="693.3" x2="317.8" y2="693.7"/>
<line class="st1" x1="272" y1="662.2" x2="292.5" y2="673.8"/>
<line class="st1" x1="248.5" y1="617" x2="243.6" y2="640.1"/>
<line class="st1" x1="304.2" y1="720.6" x2="295" y2="728.6"/>
<polyline class="st1" points="254.8,734.2 259.6,743.3 267.7,731 "/>
<polyline class="st1" points="341,665.7 332.3,671.3 345.3,678.4 "/>
<polyline class="st1" points="661.9,478.4 642.7,475.2 648,486.4 639.5,497.1 "/>
<polyline class="st1" points="576.7,505.3 597.5,502.6 607.1,514.4 "/>
<polyline class="st1" points="661.3,500.8 668.8,515.8 658.7,516.3 642.7,513.6 "/>
<path class="st1" d="M616.3,407.9l1.9,0.5c2.9,0.8,3.9,4.5,1.9,7.2l-2.7,3.7c-1.1,1.7-3.2,2.5-5.2,2l-1.9-0.5
	c-2.9-0.8-3.9-4.5-1.9-7.2l2.7-3.7C612.3,408.2,614.3,407.4,616.3,407.9z"/>
<path class="st1" d="M609.8,487l-1.5-4.2c-2.3-6.5,0.2-13.9,5-14.4l6.4-0.7c3-0.3,5.9,2.2,7.3,6.3l1.5,4.2c2.3,6.5-0.2,13.9-5,14.4
	l-6.4,0.7C614.2,493.6,611.2,491.1,609.8,487z"/>
<polyline class="st1" points="575.9,772.4 556.7,769.2 562,780.4 553.5,791.1 "/>
<path class="st1" d="M523.8,781l-1.5-4.2c-2.3-6.5,0.2-13.9,5-14.4l6.4-0.7c3-0.3,5.9,2.2,7.3,6.3l1.5,4.2c2.3,6.5-0.2,13.9-5,14.4
	l-6.4,0.7C528.2,787.6,525.2,785.1,523.8,781z"/>
<path class="st1" d="M638.8,824l-1.5-4.2c-2.3-6.5,0.2-13.9,5-14.4l6.4-0.7c3-0.3,5.9,2.2,7.3,6.3l1.5,4.2c2.3,6.5-0.2,13.9-5,14.4
	l-6.4,0.7C643.2,830.6,640.2,828.1,638.8,824z"/>
<path class="st1" d="M562.5,402.6l-3.6-2.1c-5.6-3.2-5.7-11.2-0.2-15.8l7.5-6.1c3.2-2.8,7.8-3.3,11.6-1.4l3.6,2.1
	c5.6,3.2,5.7,11.2,0.2,15.8l-7.5,6.1C570.9,404.1,566.3,404.6,562.5,402.6z"/>
<path class="st1" d="M580.5,529l-0.9-1.4c-1.4-2.2,1.1-4.7,5-5l5.2-0.4c2.4-0.2,4.6,0.6,5.5,2l0.9,1.4c1.4,2.2-1.1,4.7-5,5l-5.2,0.4
	C583.5,531.2,581.3,530.4,580.5,529z"/>
<path class="st1" d="M531.5,467.4h-1.7c-2.6,0-3.4-3.5-1.5-6.9l2.5-4.6c1.1-2.1,3-3.5,4.6-3.5h1.7c2.6,0,3.4,3.5,1.5,6.9l-2.5,4.6
	C535,466,533.2,467.4,531.5,467.4z"/>
<path class="st1" d="M561.5,562.5h-1.7c-2.6,0-3.4-3.5-1.5-6.9l2.5-4.6c1.1-2.1,3-3.5,4.6-3.6h1.7c2.6,0,3.4,3.5,1.5,6.9l-2.5,4.6
	C565,561.1,563.2,562.5,561.5,562.5z"/>
<path class="st1" d="M650.5,447.5h-1.7c-2.6,0-3.4-3.5-1.5-6.9l2.5-4.6c1.1-2.1,3-3.5,4.6-3.6h1.7c2.6,0,3.4,3.5,1.5,6.9l-2.5,4.6
	C654,446.1,652.2,447.5,650.5,447.5z"/>
<path class="st1" d="M590.2,453.6l-0.2,3.1c-0.4,4.8-6.8,6.1-12.7,2.4l-8-4.9c-3.7-2.3-6-5.8-5.8-8.8l0.2-3.1
	c0.4-4.8,6.8-6.1,12.7-2.4l8,4.9C588.1,447.1,590.4,450.6,590.2,453.6z"/>
<path class="st1" d="M646.3,397.8H644c-3.5,0-5.7-3.8-4.2-7.5l1.9-4.9c0.8-2.2,2.8-3.7,5.2-3.8h2.3c3.5,0,5.7,3.8,4.2,7.5l-1.9,4.9
	C650.7,396.2,648.6,397.7,646.3,397.8z"/>
<line class="st1" x1="618" y1="449.3" x2="605.8" y2="449.7"/>
<line class="st1" x1="560" y1="418.2" x2="580.5" y2="429.8"/>
<line class="st1" x1="541.5" y1="371" x2="536.5" y2="394.1"/>
<line class="st1" x1="568.5" y1="132" x2="563.5" y2="155.1"/>
<line class="st1" x1="614.5" y1="14" x2="609.5" y2="37.1"/>
<line class="st1" x1="592.2" y1="476.6" x2="583" y2="484.6"/>
<polyline class="st1" points="542.8,490.2 547.6,499.3 555.7,486.9 "/>
<polyline class="st1" points="634,419.7 625.3,425.3 638.3,432.4 "/>
<polyline class="st1" points="344.5,481.8 335.7,487.4 348.7,494.5 "/>
<polyline class="st1" points="156.3,398.9 164.7,409.7 161.5,422.9 "/>
<polyline class="st1" points="220.7,357.4 210.7,366.7 197.3,364.6 "/>
<polyline class="st1" points="464.3,316.2 474.1,306.7 487.5,308.4 "/>
<path class="st1" d="M55.2,377.2l1,5.2c0.6,3.1-0.7,5.7-2.7,5.4l-8.7-1.3c-1.5-0.2-2.8-2-3.2-4.3l-1-5.2c-0.6-3.1,0.7-5.7,2.7-5.4
	l8.7,1.3C53.4,373.2,54.7,375,55.2,377.2z"/>
<path class="st1" d="M31.9,314.7l-3.1,4.3c-1.8,2.5-4.6,3.4-5.7,1.8l-5.1-7.2c-0.9-1.2-0.5-3.4,0.9-5.3L22,304
	c1.8-2.5,4.6-3.4,5.7-1.8l5.1,7.2C33.7,310.6,33.3,312.8,31.9,314.7z"/>
<line class="st1" x1="79.1" y1="469.4" x2="98.8" y2="478.5"/>
<line class="st1" x1="210.1" y1="512.4" x2="229.8" y2="521.5"/>
<line class="st1" x1="118.1" y1="648.4" x2="137.8" y2="657.5"/>
<polyline class="st1" points="29.6,438.6 38.7,420.5 50.9,421.6 48.3,408.2 "/>
<polyline class="st1" points="111.8,412.8 120.8,394.7 133.1,395.7 130.4,382.4 "/>
<polyline class="st1" points="1.6,383.6 10.7,370.4 25.2,369.5 "/>
<path class="st1" d="M80.6,447.5l-9.4,4.7c-1.6,0.8-3.6,0.2-4.4-1.5c-0.2-0.5-0.4-1-0.4-1.5V438c0-1.3,0.7-2.4,1.8-3l9.4-4.7
	c1.6-0.8,3.6-0.2,4.4,1.5c0.2,0.5,0.4,1,0.4,1.5v11.3C82.4,445.8,81.7,447,80.6,447.5z"/>
<line class="st1" x1="102.7" y1="295.7" x2="93.6" y2="308"/>
<line class="st1" x1="96.3" y1="377.8" x2="98.4" y2="396.5"/>
<line class="st1" x1="57.9" y1="397.6" x2="66.4" y2="410.9"/>
<line class="st1" x1="8.9" y1="460.6" x2="17.4" y2="473.9"/>
<line class="st1" x1="55.7" y1="326.1" x2="66.4" y2="336.2"/>
<polyline class="st1" points="55.7,297.8 74.4,302.1 79.7,316 87.2,331.4 "/>
<polyline class="st1" points="141.2,197.2 136.9,208.6 126.1,210.2 114,213 "/>
<line class="st1" x1="62.1" y1="360.2" x2="80.8" y2="364.5"/>
<polyline class="st1" points="30.1,330 30.1,347.3 36.5,359.2 46.1,344.8 "/>
<line class="st1" x1="17.3" y1="405.6" x2="33.3" y2="392.2"/>
<polyline class="st1" points="117.2,454.1 132.7,444.5 144.4,449.3 148.7,438.6 "/>
<polyline class="st1" points="46.1,466.9 56.3,478.6 62.1,473.8 "/>
<line class="st1" x1="262.1" y1="450.4" x2="281.8" y2="459.5"/>
<polyline class="st1" points="229.1,447.9 239.3,459.6 245.1,454.8 "/>
<polyline class="st1" points="98.4,432.2 100.5,448.8 93.6,460 "/>
<line class="st1" x1="30.1" y1="460" x2="43.5" y2="442.9"/>
<polyline class="st1" points="77.6,393.3 83.5,408.2 95.7,410.4 "/>
<polyline class="st1" points="212.6,459.3 218.5,474.2 230.7,476.4 "/>
<polyline class="st1" points="86.7,349.6 98.9,359.2 103.7,344.8 "/>
<path class="st1" d="M0.5,412.5c0.8-0.7,1.7-1.1,2.7-1.2l6.4-0.7c3-0.3,5.9,2.2,7.3,6.3l1.5,4.2c2.3,6.5-0.2,13.9-5,14.4L7,436.2
	c-2.5,0.3-5-1.5-6.6-4.5"/>
<polyline class="st1" points="115.3,322.2 125.1,312.7 138.5,314.4 "/>
<line class="st1" x1="298.7" y1="135.7" x2="289.6" y2="148"/>
<polyline class="st1" points="251.7,137.8 270.4,142.1 275.7,156 283.2,171.4 "/>
<polyline class="st1" points="282.7,189.6 294.9,199.2 299.7,184.8 "/>
<polyline class="st1" points="311.3,162.2 321.1,152.7 334.5,154.4 "/>
<line class="st1" x1="170.7" y1="744.7" x2="161.6" y2="757"/>
<polyline class="st1" points="123.7,746.8 142.4,751.1 147.7,765 155.2,780.4 "/>
<polyline class="st1" points="154.7,798.6 166.9,808.2 171.7,793.8 "/>
<polyline class="st1" points="183.3,771.2 193.1,761.7 206.5,763.4 "/>
<path class="st1" d="M382.5,215.3l1,5.2c0.6,3.1-0.7,5.7-2.7,5.4l-8.7-1.3c-1.5-0.2-2.8-2-3.2-4.3l-1-5.2c-0.6-3.1,0.7-5.7,2.7-5.4
	l8.7,1.3C380.8,211.2,382.1,213,382.5,215.3z"/>
<path class="st1" d="M359.3,152.7l-3.1,4.3c-1.8,2.5-4.6,3.4-5.7,1.8l-5.1-7.2c-0.8-1.2-0.5-3.4,0.9-5.3l3.1-4.3
	c1.8-2.5,4.6-3.4,5.7-1.8l5.1,7.2C361,148.6,360.6,150.8,359.3,152.7z"/>
<polyline class="st1" points="357,276.6 366,258.5 378.3,259.6 375.6,246.2 "/>
<polyline class="st1" points="439.1,250.8 448.2,232.7 460.5,233.8 457.8,220.4 "/>
<polyline class="st1" points="328.9,221.6 338.1,208.4 352.5,207.5 "/>
<line class="st1" x1="430" y1="133.7" x2="421" y2="146"/>
<line class="st1" x1="423.6" y1="215.9" x2="425.8" y2="234.5"/>
<line class="st1" x1="393.2" y1="256.6" x2="401.8" y2="269.9"/>
<line class="st1" x1="383.1" y1="164.1" x2="393.8" y2="174.2"/>
<polyline class="st1" points="383.1,135.9 401.8,140.1 407.1,154 414.6,169.4 "/>
<line class="st1" x1="389.5" y1="198.2" x2="408.2" y2="202.5"/>
<polyline class="st1" points="357.5,168 357.5,185.3 363.9,197.2 373.5,182.8 "/>
<polyline class="st1" points="17.5,104 17.5,121.3 23.9,133.2 33.5,118.8 "/>
<path class="st1" d="M564.3,60.7l-3.1,4.3c-1.8,2.5-4.6,3.4-5.7,1.8l-5.1-7.2c-0.8-1.2-0.5-3.4,0.9-5.3l3.1-4.3
	c1.8-2.5,4.6-3.4,5.7-1.8l5.1,7.2C566,56.6,565.7,58.8,564.3,60.7z"/>
<line class="st1" x1="588.1" y1="72.1" x2="598.8" y2="82.2"/>
<polyline class="st1" points="588.1,43.8 606.8,48.1 612.1,62 619.6,77.4 "/>
<line class="st1" x1="594.5" y1="106.2" x2="613.2" y2="110.5"/>
<polyline class="st1" points="562.5,76 562.5,93.3 568.9,105.2 578.5,90.8 "/>
<line class="st1" x1="344.7" y1="243.6" x2="360.7" y2="230.2"/>
<polyline class="st1" points="414,256.3 419.8,271.2 432.1,273.4 "/>
<line class="st1" x1="384.7" y1="45.7" x2="375.6" y2="58"/>
<polyline class="st1" points="415.7,50.6 427.9,60.2 432.7,45.8 "/>
<polyline class="st1" points="391,14.3 396.8,29.2 409.1,31.4 "/>
<polyline class="st1" points="414,187.6 426.3,197.2 431.1,182.8 "/>
<path class="st1" d="M618.3,348.7l-3.1,4.3c-1.8,2.5-4.6,3.4-5.7,1.8l-5.1-7.2c-0.8-1.2-0.5-3.4,0.9-5.3l3.1-4.3
	c1.8-2.5,4.6-3.4,5.7-1.8l5.1,7.2C620,344.6,619.7,346.8,618.3,348.7z"/>
<line class="st1" x1="654" y1="232.7" x2="645" y2="245"/>
<line class="st1" x1="642.1" y1="360.1" x2="652.8" y2="370.2"/>
<polyline class="st1" points="642.1,331.9 660.8,336.1 666.1,350 673.6,365.5 "/>
<polyline class="st1" points="616.5,364 616.5,381.3 622.9,393.2 632.5,378.8 "/>
<polyline class="st1" points="638,286.6 650.3,296.2 655.1,281.8 "/>
<path class="st1" d="M327.1,268l-1.5-4.2c-2.3-6.5,0.2-13.9,5-14.4l6.4-0.7c3-0.3,5.9,2.2,7.3,6.3l1.5,4.2c2.3,6.5-0.2,13.9-5,14.4
	l-6.4,0.7C331.5,274.6,328.5,272,327.1,268z"/>
<path class="st1" d="M464.1,193l-1.5-4.2c-2.3-6.5,0.2-13.9,5-14.4l6.4-0.7c3-0.3,5.9,2.2,7.3,6.3l1.5,4.2c2.3,6.5-0.2,13.9-5,14.4
	l-6.4,0.7C468.5,199.6,465.5,197,464.1,193z"/>
<path class="st1" d="M665.5,149.3l1,5.2c0.6,3.1-0.7,5.7-2.7,5.4l-8.7-1.3c-1.5-0.2-2.8-2-3.2-4.3l-1-5.2c-0.6-3.1,0.7-5.7,2.7-5.4
	l8.7,1.3C663.8,145.2,665.1,147,665.5,149.3z"/>
<path class="st1" d="M642.3,86.7l-3.1,4.3c-1.8,2.5-4.6,3.4-5.7,1.8l-5.1-7.2c-0.8-1.2-0.5-3.4,0.9-5.3l3.1-4.3
	c1.8-2.5,4.6-3.4,5.7-1.8l5.1,7.2C644,82.6,643.7,84.8,642.3,86.7z"/>
<polyline class="st1" points="640,210.6 649,192.5 661.3,193.6 658.6,180.2 "/>
<polyline class="st1" points="611.9,155.6 621.1,142.4 635.5,141.5 "/>
<line class="st1" x1="538" y1="82.7" x2="529" y2="95"/>
<line class="st1" x1="531.6" y1="164.9" x2="533.8" y2="183.5"/>
<line class="st1" x1="501.2" y1="205.6" x2="509.8" y2="218.9"/>
<line class="st1" x1="666.1" y1="98.1" x2="676.8" y2="108.2"/>
<polyline class="st1" points="491.1,84.9 509.8,89.1 515.1,103 522.6,118.4 "/>
<line class="st1" x1="497.5" y1="147.2" x2="516.2" y2="151.5"/>
<polyline class="st1" points="640.5,102 640.5,119.3 646.9,131.2 656.5,116.8 "/>
<line class="st1" x1="627.7" y1="177.6" x2="643.7" y2="164.2"/>
<polyline class="st1" points="522,205.3 527.8,220.2 540.1,222.4 "/>
<polyline class="st1" points="522,136.6 534.3,146.2 539.1,131.8 "/>
<path class="st1" d="M610.1,202l-1.5-4.2c-2.3-6.5,0.2-13.9,5-14.4l6.4-0.7c3-0.3,5.9,2.2,7.3,6.3l1.5,4.2c2.3,6.5-0.2,13.9-5,14.4
	l-6.4,0.7C614.5,208.6,611.5,206,610.1,202z"/>
<polyline class="st1" points="442.7,160.2 452.4,150.7 465.9,152.4 "/>
<polyline class="st1" points="336.5,110.7 348.7,120.3 353.6,106 "/>
<path class="st1" d="M263.5,59.2l0.9,5.2c0.5,3.1-0.7,5.7-2.7,5.4l-8.8-1.3c-1.4-0.2-2.8-2-3.2-4.3l-0.9-5.2
	c-0.6-3.1,0.8-5.7,2.7-5.4l8.7,1.3C261.7,55.1,263.1,56.9,263.5,59.2z"/>
<path class="st1" d="M483.4,34.6l-3.1,4.3c-1.8,2.5-4.6,3.4-5.7,1.8l-5.1-7.2c-0.8-1.2-0.5-3.4,0.9-5.3l3.1-4.3
	c1.8-2.5,4.6-3.4,5.8-1.8l5.1,7.2C485.2,30.5,484.8,32.7,483.4,34.6z"/>
<polyline class="st1" points="237.8,120.5 246.9,102.4 259.1,103.5 256.5,90.2 "/>
<polyline class="st1" points="320,94.9 329.1,76.8 341.4,77.9 338.7,64.6 "/>
<line class="st1" x1="554.2" y1="15.8" x2="545.1" y2="28"/>
<line class="st1" x1="304.6" y1="59.9" x2="306.7" y2="78.6"/>
<line class="st1" x1="274.1" y1="100.6" x2="282.6" y2="113.9"/>
<line class="st1" x1="264.2" y1="8.1" x2="274.9" y2="18.2"/>
<polyline class="st1" points="507.3,17.8 525.9,22.1 531.2,36 538.7,51.5 "/>
<polyline class="st1" points="146.7,27.6 153.6,47.9 167,43.1 "/>
<path class="st1" d="M203.3,28.7l-3.1,4.3c-1.8,2.5-4.6,3.4-5.7,1.8l-5.1-7.2c-0.8-1.2-0.5-3.4,0.9-5.3l3.1-4.3
	c1.8-2.5,4.6-3.4,5.7-1.8l5.1,7.2C205,24.6,204.6,26.8,203.3,28.7z"/>
<path class="st1" d="M307.4,229.6l-3.1,4.3c-1.8,2.5-4.6,3.4-5.7,1.8l-5.1-7.2c-0.8-1.2-0.5-3.4,0.9-5.3l3.1-4.3
	c1.8-2.5,4.6-3.4,5.8-1.8l5.1,7.2C309.2,225.5,308.8,227.7,307.4,229.6z"/>
<line class="st1" x1="93.2" y1="27.8" x2="84.1" y2="40"/>
<polyline class="st1" points="131.5,15.5 154.9,13.6 163,17.7 173.7,22.5 "/>
<line class="st1" x1="270.5" y1="42.2" x2="289.2" y2="46.5"/>
<polyline class="st1" points="238.6,11.9 238.6,29.2 244.9,41.1 254.6,26.7 "/>
<line class="st1" x1="225.6" y1="87.4" x2="241.6" y2="74.1"/>
<polyline class="st1" points="294.8,100.3 300.6,115.3 312.9,117.5 "/>
<polyline class="st1" points="295.1,31.6 307.3,41.2 312.2,26.9 "/>
<path class="st1" d="M207.9,111.7l-1.5-4.2c-2.3-6.5,0.3-13.9,5-14.4l6.4-0.7c3-0.3,5.9,2.2,7.3,6.3l1.5,4.2
	c2.3,6.6-0.3,13.9-5,14.4l-6.4,0.7C212.3,118.4,209.3,115.8,207.9,111.7z"/>
<path class="st1" d="M345.1,37.1l-1.5-4.2c-2.3-6.5,0.3-13.9,5-14.4l6.4-0.7c3-0.3,5.9,2.2,7.3,6.3l1.5,4.2c2.3,6.5-0.3,13.9-5,14.4
	l-6.4,0.7C349.5,43.7,346.5,41.2,345.1,37.1z"/>
<polyline class="st1" points="566.8,42.4 576.6,32.8 590,34.6 "/>
<path class="st1" d="M233.5,167.2l-1.6,1.5c-2.4,2.3-6.1-0.8-7.3-6l-1.6-7.1c-0.7-3.3-0.2-6.5,1.3-7.9l1.6-1.5
	c2.4-2.3,6.1,0.8,7.3,6l1.6,7.1C235.5,162.5,235,165.7,233.5,167.2z"/>
<path class="st1" d="M114.5,721.3l1,5.2c0.6,3.1-0.7,5.7-2.7,5.4l-8.7-1.3c-1.4-0.2-2.8-2-3.2-4.3l-1-5.2c-0.6-3.1,0.7-5.7,2.7-5.4
	l8.7,1.3C112.8,717.2,114.1,719,114.5,721.3z"/>
<path class="st1" d="M91.3,658.7l-3.1,4.3c-1.8,2.5-4.6,3.4-5.7,1.8l-5.1-7.2c-0.8-1.2-0.5-3.4,0.9-5.3l3.1-4.3
	c1.8-2.5,4.6-3.4,5.7-1.8l5.1,7.2C93,654.6,92.7,656.8,91.3,658.7z"/>
<polyline class="st1" points="89,782.7 98,764.5 110.3,765.6 107.6,752.2 "/>
<polyline class="st1" points="185.1,172.8 194.2,154.7 206.4,155.8 203.8,142.4 "/>
<polyline class="st1" points="60.9,727.6 70.1,714.5 84.5,713.5 "/>
<line class="st1" x1="176" y1="55.7" x2="167" y2="68"/>
<line class="st1" x1="169.6" y1="137.9" x2="171.8" y2="156.5"/>
<line class="st1" x1="129.1" y1="86.1" x2="139.8" y2="96.2"/>
<polyline class="st1" points="129.1,57.8 147.8,62.1 153.1,76 160.6,91.4 "/>
<line class="st1" x1="135.5" y1="120.2" x2="154.2" y2="124.5"/>
<polyline class="st1" points="89.5,674 89.5,691.3 95.9,703.2 105.5,688.8 "/>
<line class="st1" x1="76.7" y1="749.6" x2="92.7" y2="736.2"/>
<polyline class="st1" points="160,109.6 172.3,119.2 177.1,104.8 "/>
<path class="st1" d="M59.1,774l-1.5-4.2c-2.3-6.5,0.2-13.9,5-14.4l6.4-0.7c3-0.3,5.9,2.2,7.3,6.3l1.5,4.2c2.3,6.5-0.2,13.9-5,14.4
	l-6.4,0.7C63.5,780.6,60.5,778,59.1,774z"/>
<polyline class="st1" points="188.7,82.2 198.4,72.7 211.9,74.4 "/>
<path class="st1" d="M47.5,268.3l1,5.2c0.6,3.1-0.7,5.7-2.7,5.4l-8.7-1.3c-1.5-0.2-2.8-2-3.2-4.3l-1-5.2c-0.6-3.1,0.7-5.7,2.7-5.4
	l8.7,1.3C45.8,264.2,47.1,266,47.5,268.3z"/>
<path class="st1" d="M24.3,205.7l-3.1,4.3c-1.8,2.5-4.6,3.4-5.7,1.8l-5.1-7.2c-0.8-1.2-0.5-3.4,0.9-5.3l3.1-4.3
	c1.8-2.5,4.6-3.4,5.7-1.8l5.1,7.2C26,201.6,25.6,203.8,24.3,205.7z"/>
<polyline class="st1" points="0.5,264.5 7.5,256.5 17.5,260.5 "/>
<line class="st1" x1="145" y1="238.7" x2="136" y2="251"/>
<line class="st1" x1="48.1" y1="217.1" x2="58.8" y2="227.2"/>
<polyline class="st1" points="38.1,192.9 56.8,197.1 62.1,211 69.6,226.4 "/>
<line class="st1" x1="54.5" y1="251.2" x2="73.2" y2="255.5"/>
<polyline class="st1" points="22.5,221 22.5,238.3 28.9,250.2 38.5,235.8 "/>
<polyline class="st1" points="79,240.6 91.3,250.2 96.1,235.8 "/>
<polyline class="st1" points="99.7,275.2 109.4,265.7 122.9,267.4 "/>
<path class="st1" d="M96.5,102.8l-3.6-2.1c-5.6-3.2-5.7-11.2-0.2-15.8l7.5-6.1c3.2-2.8,7.8-3.3,11.6-1.4l3.6,2.1
	c5.6,3.2,5.7,11.2,0.2,15.8l-7.5,6.1C104.9,104.2,100.3,104.7,96.5,102.8z"/>
<path class="st1" d="M75.5,169.5h-1.7c-2.6,0-3.4-3.5-1.5-6.9l2.5-4.6c1.1-2.1,3-3.6,4.6-3.6h1.7c2.6,0,3.4,3.5,1.5,6.9l-2.5,4.6
	C79,168.1,77.2,169.5,75.5,169.5z"/>
<path class="st1" d="M133.2,171.8l-0.2,3.1c-0.4,4.8-6.8,6.1-12.7,2.4l-8-4.9c-3.7-2.3-6-5.8-5.8-8.8l0.2-3.1
	c0.4-4.8,6.8-6.1,12.7-2.4l8,4.9C131.1,165.2,133.4,168.7,133.2,171.8z"/>
<line class="st1" x1="94" y1="118.3" x2="114.5" y2="129.9"/>
<line class="st1" x1="75.5" y1="71.1" x2="70.6" y2="94.2"/>
<polyline class="st1" points="76.8,190.3 81.6,199.4 89.7,187.1 "/>
<polyline class="st1" points="58.2,82.3 53.9,93.8 43.1,95.3 31,98.1 "/>
<polyline class="st1" points="102.1,57.9 111.2,39.8 123.4,40.8 120.8,27.5 "/>
<line class="st1" x1="62" y1="123.8" x2="53" y2="136.1"/>
<polyline class="st1" points="16.7,160.4 26.4,150.8 39.9,152.5 "/>
<path class="st1" d="M636.3,640.7l-3.1,4.3c-1.8,2.5-4.6,3.4-5.7,1.8l-5.1-7.2c-0.8-1.2-0.5-3.4,0.9-5.3l3.1-4.3
	c1.8-2.5,4.6-3.4,5.7-1.8l5.1,7.2C638,636.6,637.7,638.8,636.3,640.7z"/>
<line class="st1" x1="633" y1="702.7" x2="624" y2="715"/>
<line class="st1" x1="660.1" y1="652.1" x2="670.8" y2="662.2"/>
<polyline class="st1" points="662.7,590.2 669.8,607.9 661.4,620.2 653,635.2 "/>
<polyline class="st1" points="634.5,656 634.5,673.3 640.9,685.2 650.5,670.8 "/>
<polyline class="st1" points="613,744.6 625.3,754.2 630.1,739.8 "/>
<polyline class="st1" points="645.7,729.2 655.4,719.7 668.9,721.4 "/>
<line class="st1" x1="37" y1="808.7" x2="28" y2="821"/>
<polyline class="st1" points="49.5,788 49.5,805.3 55.9,817.2 65.5,802.8 "/>
<polyline class="st1" points="571,805.6 583.3,815.2 588.1,800.8 "/>
<polyline class="st1" points="78.7,810.2 88.4,800.7 101.9,802.4 "/>
<line class="st1" x1="592" y1="289.7" x2="583" y2="302"/>
<line class="st1" x1="544.1" y1="317.1" x2="554.8" y2="327.2"/>
<line class="st1" x1="609.1" y1="265.1" x2="619.8" y2="275.2"/>
<polyline class="st1" points="545.1,291.9 563.8,296.1 569.1,310 576.6,325.5 "/>
<polyline class="st1" points="519.5,324 519.5,341.3 525.9,353.2 535.5,338.8 "/>
<polyline class="st1" points="576,343.6 588.3,353.2 593.1,338.8 "/>
<polyline class="st1" points="604.7,316.2 614.4,306.7 627.9,308.4 "/>
<path class="st1" d="M103.5,627.2l-1.6,1.5c-2.4,2.3-6.1-0.8-7.3-6l-1.6-7.1c-0.7-3.3-0.2-6.5,1.3-7.9l1.6-1.5
	c2.4-2.3,6.1,0.8,7.3,6l1.6,7.1C105.5,622.5,105,625.7,103.5,627.2z"/>
<path class="st1" d="M186.5,686.3l0.9,5.2c0.6,3.1-0.7,5.7-2.7,5.4l-8.7-1.3c-1.4-0.2-2.8-2-3.2-4.3l-1-5.2
	c-0.6-3.1,0.7-5.7,2.7-5.4l8.7,1.3C184.8,682.2,186.1,684,186.5,686.3z"/>
<path class="st1" d="M163.3,623.7l-3.1,4.3c-1.8,2.5-4.6,3.4-5.7,1.8l-5.1-7.2c-0.8-1.2-0.5-3.4,0.9-5.3l3.1-4.3
	c1.8-2.5,4.6-3.4,5.7-1.8l5.1,7.2C165,619.6,164.6,621.8,163.3,623.7z"/>
<polyline class="st1" points="55.1,632.8 64.2,614.7 76.4,615.8 73.8,602.4 "/>
<polyline class="st1" points="132.9,692.6 142.1,679.5 156.5,678.5 "/>
<line class="st1" x1="46" y1="515.7" x2="37" y2="528"/>
<line class="st1" x1="24" y1="609.7" x2="15" y2="622"/>
<line class="st1" x1="39.6" y1="597.8" x2="41.8" y2="616.5"/>
<line class="st1" x1="-0.9" y1="546.1" x2="9.8" y2="556.2"/>
<polyline class="st1" points="-0.9,517.9 17.8,522.1 23.1,536 30.6,551.5 "/>
<line class="st1" x1="5.5" y1="580.2" x2="24.2" y2="584.5"/>
<polyline class="st1" points="161.5,639 161.5,656.3 167.9,668.2 177.5,653.8 "/>
<line class="st1" x1="148.7" y1="714.6" x2="164.7" y2="701.2"/>
<path class="st1" d="M62.5,677.3l1,5.2c0.6,3.1-0.7,5.7-2.7,5.4l-8.7-1.3c-1.5-0.2-2.8-2-3.2-4.3l-1-5.2c-0.6-3.1,0.7-5.7,2.7-5.4
	l8.7,1.3C60.8,673.2,62.1,675,62.5,677.3z"/>
<polyline class="st1" points="8.9,683.6 18.1,670.5 32.5,669.5 "/>
<polyline class="st1" points="37.5,630 37.5,647.3 43.9,659.2 53.5,644.8 "/>
<line class="st1" x1="24.7" y1="705.6" x2="40.7" y2="692.2"/>
<polyline class="st1" points="30,569.6 42.3,579.2 47.1,564.8 "/>
<polyline class="st1" points="58.7,542.2 68.4,532.7 81.9,534.4 "/>
<path class="st1" d="M556.5,637.2l-1.6,1.5c-2.4,2.3-6.1-0.8-7.3-6l-1.6-7.1c-0.7-3.3-0.2-6.5,1.3-7.9l1.6-1.5
	c2.4-2.3,6.1,0.8,7.3,6l1.6,7.1C558.5,632.5,558,635.7,556.5,637.2z"/>
<polyline class="st1" points="577.4,652.3 589.2,649.4 614.3,665.2 "/>
<polyline class="st1" points="508.1,642.8 517.2,624.7 529.5,625.8 526.8,612.4 "/>
<line class="st1" x1="499" y1="525.7" x2="490" y2="538"/>
<line class="st1" x1="492.6" y1="607.8" x2="494.8" y2="626.5"/>
<polyline class="st1" points="461.9,515.5 478.2,525.5 478.8,540.3 480.9,557.4 "/>
<polyline class="st1" points="483,648.3 488.8,663.2 501.1,665.4 "/>
<polyline class="st1" points="483,579.6 495.3,589.2 500.1,574.8 "/>
<polyline class="st1" points="511.7,552.2 521.4,542.7 534.9,544.4 "/>
<polyline class="st1" points="16.4,770 25.5,751.8 37.7,752.9 35.1,739.6 "/>
<polyline class="st1" points="42.8,724.2 47.6,733.3 55.7,721 "/>
<polyline class="st1" points="11.7,786.2 21.4,776.7 34.9,778.4 "/>
<polyline class="st1" points="351.7,780.5 358.6,800.8 372,796 "/>
<path class="st1" d="M306.3,806.9l1.9,0.5c2.9,0.8,3.9,4.5,1.9,7.2l-2.7,3.7c-1.1,1.7-3.2,2.5-5.2,2l-1.9-0.5
	c-2.9-0.8-3.9-4.5-1.9-7.2l2.7-3.7C302.3,807.2,304.3,806.4,306.3,806.9z"/>
<path class="st1" d="M555.5,831.2l-1.6,1.5c-2.4,2.3-6.1-0.8-7.3-6l-1.6-7.1c-0.7-3.3-0.2-6.5,1.3-7.9l1.6-1.5
	c2.4-2.3,6.1,0.8,7.3,6l1.6,7.1C557.5,826.5,557,829.7,555.5,831.2z"/>
<path class="st1" d="M252.5,801.7l-3.6-2.1c-5.6-3.2-5.7-11.2-0.1-15.8l7.5-6.1c3.2-2.8,7.8-3.3,11.6-1.4l3.6,2.1
	c5.6,3.2,5.7,11.2,0.1,15.8l-7.5,6.1C260.9,803.1,256.3,803.6,252.5,801.7z"/>
<path class="st1" d="M429.2,679.7l-0.2,3.1c-0.4,4.8-6.9,6.1-12.7,2.4l-8-4.9c-3.7-2.3-6-5.8-5.8-8.8l0.2-3.1
	c0.4-4.8,6.8-6.1,12.7-2.4l8,4.9C427.1,673.1,429.4,676.6,429.2,679.7z"/>
<path class="st1" d="M331.3,798.8H329c-3.5,0-5.7-3.8-4.2-7.5l1.9-4.9c0.8-2.2,2.8-3.7,5.2-3.8h2.3c3.5,0,5.7,3.8,4.2,7.5l-1.9,4.9
	C335.7,797.2,333.6,798.7,331.3,798.8z"/>
<polyline class="st1" points="406.4,727.3 418.2,724.4 443.3,740.2 "/>
<line class="st1" x1="281" y1="809.3" x2="268.8" y2="809.7"/>
<polyline class="st1" points="324,818.7 315.3,824.3 328.3,831.4 "/>
<path class="st1" d="M450.5,801.3l1,5.2c0.6,3.1-0.7,5.7-2.7,5.4l-8.7-1.3c-1.5-0.2-2.8-2-3.2-4.3l-1-5.2c-0.6-3.1,0.7-5.7,2.7-5.4
	l8.7,1.3C448.8,797.2,450.1,799,450.5,801.3z"/>
<path class="st1" d="M394.3,710.7l-3.1,4.3c-1.8,2.5-4.6,3.4-5.7,1.8l-5.1-7.2c-0.8-1.2-0.5-3.4,0.9-5.3l3.1-4.3
	c1.8-2.5,4.6-3.4,5.7-1.8l5.1,7.2C396,706.6,395.6,708.8,394.3,710.7z"/>
<polyline class="st1" points="363,695.7 372,677.5 384.3,678.6 381.6,665.2 "/>
<polyline class="st1" points="507.1,836.8 516.2,818.7 528.5,819.8 525.8,806.4 "/>
<polyline class="st1" points="396.9,807.6 406.1,794.5 420.5,793.5 "/>
<line class="st1" x1="498" y1="719.7" x2="489" y2="732"/>
<line class="st1" x1="471" y1="814.7" x2="462" y2="827"/>
<line class="st1" x1="491.6" y1="801.8" x2="493.8" y2="820.5"/>
<line class="st1" x1="345.2" y1="808.6" x2="353.8" y2="821.9"/>
<line class="st1" x1="451.1" y1="750.1" x2="461.8" y2="760.2"/>
<polyline class="st1" points="451.1,721.9 469.8,726.1 475.1,740 482.6,755.5 "/>
<line class="st1" x1="457.5" y1="784.2" x2="476.2" y2="788.5"/>
<polyline class="st1" points="425.5,754 425.5,771.3 431.9,783.2 441.5,768.8 "/>
<polyline class="st1" points="463.5,673 463.5,690.3 469.9,702.2 479.5,687.8 "/>
<line class="st1" x1="412.7" y1="829.6" x2="428.7" y2="816.2"/>
<polyline class="st1" points="375,813.3 380.8,828.2 393.1,830.4 "/>
<polyline class="st1" points="482,773.6 494.3,783.2 499.1,768.8 "/>
<path class="st1" d="M395.1,637l-1.5-4.2c-2.3-6.5,0.2-13.9,5-14.4l6.4-0.7c3-0.3,5.9,2.2,7.3,6.3l1.5,4.2c2.3,6.5-0.2,13.9-5,14.4
	l-6.4,0.7C399.5,643.6,396.5,641,395.1,637z"/>
<path class="st1" d="M518.1,589l-1.5-4.2c-2.3-6.5,0.2-13.9,5-14.4l6.4-0.7c3-0.3,5.9,2.2,7.3,6.3l1.5,4.2c2.3,6.5-0.2,13.9-5,14.4
	l-6.4,0.7C522.5,595.6,519.5,593,518.1,589z"/>
<polyline class="st1" points="510.7,746.2 520.4,736.7 533.9,738.4 "/>
<line class="st1" x1="602" y1="584.7" x2="593" y2="597"/>
<polyline class="st1" points="555.1,586.9 573.8,591.1 579.1,605 586.6,620.5 "/>
<polyline class="st1" points="614.7,611.2 624.4,601.7 637.9,603.4 "/>
<line class="st2" x1="197.9" y1="430.2" x2="217.1" y2="439.8"/>
<line class="st2" x1="308.9" y1="612.2" x2="328.1" y2="621.8"/>
<line class="st1" x1="235.7" y1="189.7" x2="226.6" y2="202"/>
<line class="st1" x1="456.5" y1="59.2" x2="475.2" y2="63.5"/>
<line class="st1" x1="150.5" y1="381.5" x2="175.5" y2="378.5"/>
<path class="st1" d="M123.6,350l0.3-6.1c0.2-3.6,3.9-6,7.7-5.1l17.1,4.2c2.7,0.6,4.7,3,4.6,5.8l-0.3,6.1c-0.2,3.6-3.9,6-7.8,5.1
	l-17.1-4.2C125.5,355.2,123.5,352.8,123.6,350z"/>
<line class="st1" x1="640.5" y1="533.5" x2="660.5" y2="549.5"/>
<line class="st1" x1="597.5" y1="550.5" x2="618.5" y2="535.5"/>
<path d="M133.5,589.6c0.4,0.7,0.8,1.3,1.2,1.9c0.8,1.3,1.5,2.8,2.1,4.2c0.3,0.6,0.4,1.2,0.4,1.9c-0.1,1-0.5,1.8-1.2,2.6
	c-1.3,1.8-2.9,3.4-4.5,4.8c-0.4,0.5-1,0.7-1.6,0.6c-0.6-0.3-0.8-0.9-0.7-1.5c0.2-0.6,0.5-1.1,0.9-1.5l2.5-3c0.2-0.2,0.4-0.5,0.5-0.8
	c0-0.4,0-0.8-0.2-1.1c-0.7-2.1-1.5-4.4-3.4-5.6c-2.4-1.5-7.8-0.9-9.3,1.9c-0.7,1.3,0.3,2.8,1.1,4l2.2,2.9c0.5,0.5,0.8,1.2,1,1.8
	c0.2,0.7,0,1.4-0.5,1.9c-3.5-1.4-6.3-4-7.9-7.4c-0.5-0.9-0.7-1.9-0.6-2.9c0.2-0.8,0.5-1.6,1-2.3c2.3-3.8,5-7,5.7-11.5
	c0.1-0.4,0-1-0.4-1.1c-0.1,0-0.3,0-0.4,0c-2.5,0.7-4.4,2.5-6.7,3.5c-1,0.4-5.5,2.5-5.2-0.2c0.1-0.6,0.5-1,1-1.3
	c2.4-1.8,5.5-2.9,7.8-4.9c1.6-1.6,3.3-3.2,5.1-4.6c1.1-0.8,4.6-1.4,4.2-3.3c-0.1-0.6-0.7-1-1.2-1.4c-1.2-1.3-1.6-3.1-1-4.8
	c0.5-1.8,2.1-3.1,3.9-3.2c1.8,0,4,1.8,3.8,3.7c-0.1,0.5-0.2,1-0.5,1.5c-0.7,1.6-1.3,3.3-1.7,5c-0.5,2.2,1,2.1,2.5,3.2
	c1.5,1,2.8,2.1,3.9,3.5c2.2,2.7,4.2,5.5,5.9,8.6c0.5,0.6,0.7,1.4,0.9,2.2c0.1,0.8-0.4,1.6-1.2,1.8c-1.1,0.2-3.4-3.8-3.9-4.5
	c-1-1.3-2.7-3.6-4.6-3.4s-2.8,2.7-2.7,4.4C131.9,586.6,132.5,588.2,133.5,589.6z"/>
<polyline class="st1" points="417,543 426.1,529.8 440.6,528.9 "/>
<line class="st1" x1="432.7" y1="565" x2="448.7" y2="551.6"/>
<line class="st1" x1="392.2" y1="537.2" x2="405.5" y2="547.9"/>
</svg>
