<svg id="Layer_1" data-name="Layer 1" xmlns="http://www.w3.org/2000/svg" xmlns:xlink="http://www.w3.org/1999/xlink" viewBox="0 0 238.7 238.7"><defs><style>.cls-1,.cls-4,.cls-5{fill:none;}.cls-2{fill:#c3ccf4;}.cls-2,.cls-4,.cls-5{stroke:#000;}.cls-2,.cls-5{stroke-linejoin:round;}.cls-3{clip-path:url(#clip-path);}.cls-4{stroke-miterlimit:10;}</style><clipPath id="clip-path"><rect class="cls-1" x="0.5" y="0.5" width="237.7" height="237.7" transform="translate(0 238.7) rotate(-90)"/></clipPath></defs><title>bend</title><rect class="cls-2" x="0.5" y="0.5" width="237.7" height="237.7" transform="translate(0 238.7) rotate(-90)"/><g class="cls-3"><path class="cls-4" d="M-27.5,88.51c.34,12.11,4.24,23.79,8.1,35.27l6.52,19.38c3,9,6.11,18.1,11.55,25.87,9.41,13.45,25.55,22.66,40.53,28.64,18,7.18,36.24,14.41,54.76,20.27,12.26,3.87,25,7.12,37.83,6.27a77.65,77.65,0,0,0,20.87-4.62,93.8,93.8,0,0,0,37.27-24.06c2.74-2.95,5.29-7.64,2.61-10.64a7.22,7.22,0,0,0-4.53-2c-7.76-1-15.45,2.34-22,6.6-9.05,5.88-15.6,13.7-26.83,12.77a103.8,103.8,0,0,1-33.51-8.56c-.71-.31-1.52-.79-1.53-1.57a1.91,1.91,0,0,1,1.07-1.46c4.59-3,10.55-1.88,16-1.28a74.69,74.69,0,0,0,33.3-4c9.81-3.52,18.16-9.44,28-12.78,21.07-7.12,33.28-33,27.2-54-1.1-3.79-2.84-7.57-6-10s-7.92-3-10.94-.42c-6.44,5.4-.93,13.89-.22,20.16,1.47,12.85-11.92,23.26-21.09,29.49A46.44,46.44,0,0,1,159.82,164a48,48,0,0,1-11.07,1.79,269.87,269.87,0,0,1-28.3.65c-5.47-.16-11.67-.86-15-5.24,15.52-9.19,35.56-9.82,49.38-21.39,14.49-12.14,20.41-31.45,34.52-44.31,3.17-2.9,6.64-5.7,8.5-9.57,4.45-9.22-6.2-17.57-14.91-13.84-3.36,1.44-5.75,4.45-8,7.36-10.09,13.37-19.52,27.45-32,38.66s-28.63,19.45-45.34,18.29a4.79,4.79,0,0,1-3.3-1.15c-1.82-2,.36-5,2.55-6.58,9.64-6.8,21.73-9.22,31.75-15.43,13.94-8.63,22.13-23.33,30-37.18,1.84-3.24,3.46-7,5.73-9.93a74.6,74.6,0,0,0,5.18-7.36,23.37,23.37,0,0,0,2.2-4.35,7.85,7.85,0,0,0,.25-4.81,2.68,2.68,0,0,0-.58-1.09,3.78,3.78,0,0,0-.68-.51,39.44,39.44,0,0,0-3.61-2.24c-6.25-3-14,.44-18.49,5.69s-6.88,12-10.14,18.09a65.31,65.31,0,0,1-14.21,18,36.82,36.82,0,0,1-11.22,7.21c-7.27,2.76-15.39,2.08-23,.62-12.71-2.42-25-6.79-37-11.49C44.71,80.64,36.7,67.63,48.39,62.1c3.43-1.63,7.37-1.76,11.16-1.52,7.92.49,15.69,2.49,23.61,3,9.29.58,22.64-3.32,30.53-8.42,5.94-3.84,9.83-12.4,5.59-18.07-6.75-9.06-25.19-6.88-34.83-7.39-29.08-1.52-56.23-21.39-85-17"/><path class="cls-4" d="M95.29,29.7c3.19,2.73,5.88,8.67,5.17,12.81a1.86,1.86,0,0,0,.05,1.19c.32.6,1.16.59,1.83.53a41,41,0,0,1,18.26,2.36"/><path class="cls-4" d="M172.15,51.94c-.05-1.4-3.32-3-4.72-3a7,7,0,0,0-3.76,1.72,36.44,36.44,0,0,0-11.48,15.49,18.5,18.5,0,0,1,9.31,4.64"/><path class="cls-4" d="M197.92,77.31c-1.33-1.29-6.15-2.22-7.82-1.43a13.84,13.84,0,0,0-4.19,3.59l-8.4,9.42a32.37,32.37,0,0,1,12.19,5.79"/><path class="cls-4" d="M200.1,106.55c-2.13,1.37-3,6.25-2.07,8.6s2.72,4.25,4,6.42a3.34,3.34,0,0,0,1.27,1.43,2.86,2.86,0,0,0,1.27.17c1.62,0,4.42-.61,6-.63"/><path class="cls-4" d="M193.7,188.45c.4-1.47-2.43-1.18-3.95-1a18.92,18.92,0,0,0-12,7l6,6.34"/><path class="cls-4" d="M178.23,193.59c2.63.11,6.66,2.51,8.78,4.06"/><path class="cls-4" d="M202.63,122.2c.93-1.55,4.83-3.86,6.56-4.36"/><path class="cls-4" d="M179.43,86.79c1.68-1.61,5.29-1.36,7.44-.44a28.22,28.22,0,0,1,7.24,4.89"/><path class="cls-4" d="M153.5,63.83c2.83-2.07,8.2,0,10.2,2.91"/><path class="cls-4" d="M101.94,30.16c1.64.11,3.42,2.91,3.64,4.55a10.76,10.76,0,0,1-.83,4.82c-.39,1.19-1.4,3.5-1.8,4.68"/><path class="cls-4" d="M124.45,105.93c.25,2.06,2.76,5,4.32,4.48"/><path class="cls-4" d="M144.11,85.85c1-.63,4.31.1,5.3,2.33"/><path class="cls-4" d="M128.09,103.14c.22.22,4.28,2.64,4.54,4.7"/><path class="cls-4" d="M141.32,139.9a3.82,3.82,0,0,0,4.05,2.83"/><path class="cls-4" d="M147.46,137c1.91.12,3.49,1.49,5.23,2.31"/><path class="cls-4" d="M168.23,110.87a7.89,7.89,0,0,1,3.73,1.86"/><path class="cls-4" d="M201.11,145.38c2.74.41,4.49,1,4.5,2.76"/><path class="cls-4" d="M164.15,173.62a4.88,4.88,0,0,0,4.52,4.24"/><path class="cls-4" d="M169.09,172.06c3.46,1.05,3.37,3.16,4.28,4.29"/><path class="cls-4" d="M164.64,209.58a4.55,4.55,0,0,0,2.79,1.47"/><path class="cls-4" d="M134.67,219.83a3.26,3.26,0,0,0,3.39,2.74"/><path class="cls-4" d="M140.44,219.1l1.93,2.33"/><path class="cls-4" d="M56.25,24.2A4.6,4.6,0,0,0,55.88,31"/><path class="cls-4" d="M61.34,27.47c-.39.6,0,4.24-.43,4.84"/><path class="cls-4" d="M65.84,27.51a5.08,5.08,0,0,1,1.63,4.9"/><path class="cls-4" d="M69.55,119.84a6.83,6.83,0,0,0,6.8,2.68"/><path class="cls-4" d="M78.82,154a10.8,10.8,0,0,0,10.07,1.47"/><path class="cls-4" d="M84.36,180.78c.48,2,2.66,3.1,4.67,3.08a13.62,13.62,0,0,0,5.69-1.81"/><path class="cls-4" d="M73.5-26.17s-5,42,11,56"/><path class="cls-4" d="M107.84,96.24c4.33-16.59-9.34-33.41-9.34-33.41s26.69,2,34.35-2.5"/><path class="cls-4" d="M118,133.33c-5.22-2.3-7.55-11.64-7.55-11.64s34.41-9.52,37.73-13.69"/><path class="cls-4" d="M127.74,152.39s8,8.89,15.39,13.67"/><path class="cls-4" d="M160.5,193.83a41.3,41.3,0,0,0-4-9s31.18-6.1,39.59-10.55"/><path class="cls-4" d="M164.25,214.62s7.25,18.21,12.25,29.21"/><path class="cls-4" d="M136.5-10.17s57,32,67,54,8,53,23,67,31,25,31,35"/><path class="cls-4" d="M143.81,99.68s3.45,7.65,7.07,11.4"/><path class="cls-4" d="M163.5,130.83s14,12,18,19"/><path class="cls-4" d="M234.5,243.83c-13-12-41-77-41-77s20.51-13,27-17c13-8,21-23,21-23"/><path class="cls-4" d="M105.48,16.89s1-12.06,4-18.06"/><path class="cls-4" d="M119.5-2.17s-5.27,17.48-7.13,27.24"/><path class="cls-4" d="M119.35,31.58s4.15-11.75,4.15-19.75,5-17,5-17"/><path class="cls-4" d="M124,38.05A102.49,102.49,0,0,0,130.5,7.83a83.3,83.3,0,0,1,1-12"/><path class="cls-4" d="M98,4.24S85.5,1.83,82.5-1.17"/><path class="cls-4" d="M76.27.5s16,9.3,25.12,9.32c0,0,2.11-7,1.11-12"/><path class="cls-4" d="M74.13,6.79s21.5,7.82,28.94,6.93"/><path class="cls-4" d="M76.14,15.51s23.65,6.36,32.51,5.84"/><path class="cls-4" d="M79,22.51s8.55-.68,15.55,3.32,21,2,21,2"/><path class="cls-4" d="M116.65,34.56s1.25,1.13,5.55.7"/><path class="cls-4" d="M81.67,27.12s6.38.49,10.6,2.6"/><path class="cls-4" d="M126.51,42.75s8-6.92,10-15.92-2-12,2-19,5-10,5-10"/><path class="cls-4" d="M119.35,48.93a44,44,0,0,0,9.46-1s13.69-13.1,16.69-30.1,6-22,6-22"/><path class="cls-4" d="M110.25,57.11a96.4,96.4,0,0,0,12.25-1.28,18.41,18.41,0,0,1,9.27.64"/><path class="cls-5" d="M130.8,53.41s7.7-11.58,16.7-22.58S155,1.26,155,1.26"/><path class="cls-4" d="M132.31,58.36S145.5,46.83,149.5,39.83s7-9,10-16,1.43-18.48,1.43-18.48"/><path class="cls-4" d="M166.51,9.07s2,12.76-5,22.76-13,20-13,20L134,64.7s-11.45,4.13-17.45,3.13a124.54,124.54,0,0,0-15.3-1.08"/><path class="cls-4" d="M157.61,45.46s5.89-3.63,7.89-8.63,5-22.59,7.52-23.29"/><path class="cls-4" d="M104.18,72.33s13.32-1.5,17.32-.5,13-2.29,13-2.29l6.59-5"/><path class="cls-4" d="M106.51,77.57a25.64,25.64,0,0,0,10,.26L135.62,74S131.5,40.83,115.5,27.83s-23-39-23-39"/><path class="cls-4" d="M108.3,84.63s10.2-3.8,16.2-3.8,7.58-1.33,7.58-1.33"/><path class="cls-4" d="M167.5,45.83a24.79,24.79,0,0,0,6-14c1-9,5.52-13.89,5.52-13.89"/><path class="cls-4" d="M108.83,88.89s12.49-1.72,19.67-5.06"/><path class="cls-4" d="M171.5,48.83s9-9,10-16a75.45,75.45,0,0,1,2.31-11.11"/><line class="cls-4" x1="108.09" y1="93.91" x2="115.33" y2="93.89"/><path class="cls-4" d="M159.5,74.83s12-9,16-15a76.26,76.26,0,0,1,15-17c7-6,5.3-9.85,5.3-9.85"/><path class="cls-4" d="M171,56.33s15.68-19.93,18.61-29.21"/><path class="cls-4" d="M150.13,90.56S175.5,71.83,181.5,60.83s20.12-20.78,20.12-20.78"/><path class="cls-4" d="M137.44,106.33l8.05-3.27S168.1,84.43,173.3,81.63"/><path class="cls-4" d="M185.3,71.17c.2-.34,18.59-15.39,19.39-23.87"/><path class="cls-4" d="M147.07,106.05s11-4.25,14.23-8.23"/><path class="cls-4" d="M192,72s11.3-13.92,15.9-16"/><path class="cls-4" d="M111.76,126.7s12.74-5.87,19.74-6.87a61.12,61.12,0,0,0,14.68-4.62"/><path class="cls-4" d="M196.74,75.35s10.53-7.44,12.76-10.52"/><path class="cls-4" d="M115.67,131.86s13.88-5.19,16.86-5.61"/><path class="cls-4" d="M199,82.13s12.14-6,12.82-7.67"/><path class="cls-4" d="M176.82,111.13s10.68-6.3,16.68-14.3c6.79-9,20.28-13.58,20.28-13.58"/><path class="cls-4" d="M163.5,130.83s37-29,45-37c0,0,4.48-3.52,6.24-6.76"/><path class="cls-4" d="M131.16,155.58s15.34-10.75,19.11-12.14,17.17-8.37,17.17-8.37,19.06-8.24,23.06-15.24"/><path class="cls-4" d="M201.62,107.17s9-10.46,14.93-13.4"/><path class="cls-4" d="M135.44,160.14s36.07-16.9,39.07-18.6c0,0,13-3.71,18-13.71"/><path class="cls-4" d="M206.37,111.31s4.56-8.44,13.35-10"/><path class="cls-4" d="M141.58,165.16s14.92-2.33,22.92-10.33,15.73-6.94,15.73-6.94l11.27-11.06"/><path class="cls-4" d="M210.5,122.83s5.13-11.68,12.56-15.34"/><path class="cls-4" d="M211.11,133.53s9.52-16.13,19.95-18.41"/><path class="cls-4" d="M207.44,148.42s9.06-5.59,14.06-12.59,15.37-15.73,15.37-15.73"/><path class="cls-4" d="M196.09,174.28s33.41-25.45,44.41-27.45"/><path class="cls-4" d="M200.63,182.8s19.87-6,27.87-11,23-18,23-18"/><path class="cls-4" d="M199.18,179.62a18.2,18.2,0,0,1-8.32,4.06"/><path class="cls-4" d="M174.69,208.51s20-8,29.4-17.86c0,0,13.41-6.82,22.41-7.82s27-10,27-10"/><path class="cls-4" d="M166.51,221.35s12-9.52,22-10.52,20.75-9.73,20.75-9.73"/><path class="cls-4" d="M207.23,196.9s29.27-3.07,35.27-8.07"/><path class="cls-4" d="M212.27,207.58s21.23-8.75,30.23-8.75"/><path class="cls-4" d="M169.67,227.49s13.83-.66,19.83-4.66,25-11.34,25-11.34l26-4.66"/><path class="cls-4" d="M173.39,237.16s10.11-4.33,20.11-7.33,21.83-5.94,24.91-10c0,0,20.09-2,24.09-6"/><path class="cls-4" d="M186.5,241.83S218,230.17,221.76,226"/><path class="cls-4" d="M224.27,229.59s18.23-.76,20.23-2.76"/><line class="cls-4" x1="225.86" y1="232.89" x2="214.5" y2="238.83"/><line class="cls-4" x1="228.47" y1="236.29" x2="241.5" y2="235.83"/><path class="cls-4" d="M198,178.05s19.5-6.22,26.5-13.22,18-11,18-11"/><path class="cls-4" d="M206,194s33.55-7.17,35.55-9.17"/><path class="cls-4" d="M211.16,205.16s-21.93,17.41-42.79,19.54"/></g></svg>