<?xml version="1.0" encoding="utf-8"?>
<!-- Generator: Adobe Illustrator 23.0.1, SVG Export Plug-In . SVG Version: 6.00 Build 0)  -->
<svg version="1.1" id="Layer_1" xmlns="http://www.w3.org/2000/svg" xmlns:xlink="http://www.w3.org/1999/xlink" x="0px" y="0px"
	 viewBox="0 0 238.4 239.2" style="enable-background:new 0 0 238.4 239.2;" xml:space="preserve">
<style type="text/css">
	.st0{fill:#C3CCF4;stroke:#000000;stroke-miterlimit:10;}
	.st1{clip-path:url(#SVGID_2_);}
	.st2{fill:none;stroke:#000000;stroke-miterlimit:10;}
	.st3{stroke:#000000;stroke-miterlimit:10;}
</style>
<title>bend</title>
<rect x="0" y="0.9" transform="matrix(1 -2.443451e-03 2.443451e-03 1 -0.2923 0.2907)" class="st0" width="237.7" height="237.7"/>
<g>
	<defs>
		
			<rect id="SVGID_1_" x="0" y="0.9" transform="matrix(4.537840e-03 -1 1 4.537840e-03 -1.4809 238.0885)" width="237.7" height="237.7"/>
	</defs>
	<clipPath id="SVGID_2_">
		<use xlink:href="#SVGID_1_"  style="overflow:visible;"/>
	</clipPath>
	<g class="st1">
		<path class="st2" d="M40.4-43.8c37.2-16.9,70.3-34.8,112.4-23.5c18,4.8,34,15.2,50.7,23.6c28.9,14.6,62.6,25.6,79,54
			c12.1,20.9,11.9,46.6,11.4,70.9l-1.2,54.5c-0.5,24.7-1.1,49.7-7.8,73.4c-3.1,11.1-7.6,22-14.3,31.3
			c-11.4,15.8-28.5,26.2-45.4,35.2c-8.9,4.8-18,9.3-27.7,12.1c-17.7,5.3-36.6,4.8-54.7,1.1c-44-9.1-79.6-39.9-108.2-74.3
			c-7.9-9.5-14.9-19.8-23.2-28.9c-9.3-10.2-20.3-19-27.4-31c-9.6-16-11.1-35.5-12.4-54.3C-30.9,62.8-32,21.5-9.4-8.2
			C3.2-24.8,21.7-35.4,40.4-43.8z"/>
		<path class="st2" d="M11.6,81.4c6.4-1.6,15.7-11.4,22.2-13c3.3-0.8,6.8-1.8,9.2-4.2c2.8-2.8,3.7-7,5.8-10.4
			c4.2-6.7,12.8-9.2,17.7-15.4C73.1,30,78,19.8,84.5,11.2c-0.6-1.1-1.7-1.9-3-2"/>
		<path class="st2" d="M99.9,75.1c-1,7-15.6,11.1-15.6,11.1c-6.8,1.4-11.6,8.2-12.4,15.1c-0.5,4.1-0.2,6.9-0.2,11.9c0,0,1,12-5,8"/>
		<path class="st2" d="M162.9,179.3l-49.5-26.6c-7.2-3.9-14.6-7.8-20.9-13c-5.5-4.5-10.3-9.9-14.1-16"/>
		<path class="st3" d="M92.6,81.2c-1.5,3.8,9-3,7.4-6.2C100,75,97.2,69.4,92.6,81.2z"/>
		<path class="st2" d="M121.6,95c2.1-0.5,3.7-2,4.4-4c0.6-2,0.8-4.1,0.5-6.2c-0.6-8.3-3.7-17.4-11.2-21.2c-5.9-3-13.1-2-19.4,0"/>
		<path class="st2" d="M197,108.8c-1.6,0.6-3.4-0.2-4.1-1.8c-0.1-0.3-0.2-0.6-0.2-0.9c1.7,1.6,4.4-0.4,5.9-2.2
			c6.3-7.7,12.6-15.4,17.9-23.8c1.2-2,2.5-3.9,4-5.7c2.4-2.8,5.5-4.9,8.1-7.5s4.5-6.3,3.9-9.9"/>
		<path class="st2" d="M192.4,96.8c-2.7-4.2-2.8-9.5-2.7-14.4c-0.1-1.9,0.2-3.8,0.7-5.7c1.4-4.3,5.9-7.8,5.3-12.4"/>
		<path class="st2" d="M192.8,116.5c-2,0.3-4.1,0.6-6-0.2s-3-3.4-1.8-5"/>
		<path class="st2" d="M113.8,183.1c1.7,0.4,3,0,5,2c-4.8,5.1-11.3,8.4-16.2,13.6c-0.9,0.9-1.7,1.8-2.4,2.8c-0.7,1.1-1.4,2.2-2,3.4
			c-5.5,9.6-14.7,16.6-25.4,19.3"/>
		<path class="st2" d="M102.9,179.3c-7.5,0.4-14.8,2.8-21,7.1"/>
		<path class="st2" d="M128.8,182.8c-1.2-5.9-8.6-9.6-14.1-7"/>
		<path class="st2" d="M91.5,236c16.7-5.1,29.7-17.2,33.3-31c0.8-2.9,1.1-6.2-1.1-8.6"/>
		<path class="st2" d="M207,106.8c7.5,1.7,15.3,0.3,21.9-3.7c6.7-4.3,12.2-12,14.2-21.4"/>
		<path class="st3" d="M204.3,96.9c2-9.5,7.9-17.8,16.3-22.7C220.6,74.2,205,93.5,204.3,96.9z"/>
		<path class="st3" d="M86.1,217.3c0,0,7.3-15.7,19.6-21.8c0,0-7,9-8.8,11.6C94.9,210.2,86.1,217.3,86.1,217.3z"/>
		<path class="st3" d="M259.3,109.6c-4.5-0.8-9,3.2-13.1,4.2c-0.6,0.3-1.3,0.4-1.9,0.4c-0.7-0.1-1.2-0.8-1-1.4
			c-4.9,2.7-6.9,8.3-11.3,11.7c-2.9,2.2-6.7,3.3-10.1,4.9c-3.4,1.6-6.7,4-7.4,7.5c-0.6,3.3,1.2,6.7,4,9s6.1,3.7,9.5,5
			c6.4,2.5,9,3.6,15.6,1.4c4.7-1.5,9.1-3.7,13.1-6.5c1.2-0.9,2.5-2,2.8-3.4s-1.4-3.2-2.9-2.6c5-3,9.2-7.5,10.7-13
			c1.6-5.7-0.3-11.7-4.8-15.5C261.6,110.4,260.5,109.9,259.3,109.6z"/>
		<path class="st3" d="M139.3,261.4c4.8-2.3,10-5.1,12.5-11.3c1.3-3.2,1.6-7,3.1-10l2.5,1.4c0.9-4.9,1.3-9.8,1-14.8
			c-0.4-4.9-1.9-9.9-4.8-12.9s-7-3.9-10-1.3s-4.2,7.5-6.2,11.4c-2,3.5-4.3,6.9-7,9.9c-4.6,5.6-8.2,12.7-11.7,19.6
			c-0.7,1.2-1.2,2.6-1.4,4c-0.2,3,1.2,5.9,3.6,7.7c6.4,4.8,15.1,1.1,19.2-7.1"/>
		<path class="st2" d="M18.2,54.6c5.8-7.7,7.1-18.6,14.6-24.8c2-1.6,4.2-2.9,6.5-4l18.1-9.2"/>
		<path class="st2" d="M88.5,33.2c0,0-8,18-13,21s-12,3-18,10s-6,14-21,17"/>
		<path class="st3" d="M45.2,60.9c-1.7,5.4-15.6,9.4-15.6,9.4s13.6-8.4,20.6-18.4s23.9-24.7,23.9-24.7s-6.9,10.7-9.9,13.7
			C64.2,40.9,49.2,47.9,45.2,60.9z"/>
	</g>
</g>
<path class="st3" d="M71.6,111.1c0,0-3.2,7.4-5.9,9.2c-3,2,4,4,5.3,0C72,117.3,71.6,111.1,71.6,111.1z"/>
<path class="st2" d="M60.7,117.2c0,0-6,8,3,16s24,1.7,24,1.7"/>
</svg>
