<svg id="Layer_1" data-name="Layer 1" xmlns="http://www.w3.org/2000/svg" viewBox="0 0 464 721"><defs><style>.cls-1{fill:#c3ccf4;}.cls-1,.cls-2,.cls-3,.cls-4,.cls-5{stroke:#000;}.cls-1,.cls-3,.cls-4,.cls-5{stroke-linejoin:round;}.cls-2,.cls-3{fill:none;}.cls-2{stroke-miterlimit:10;}.cls-4{fill:#fff;}</style></defs><title>bend</title><path class="cls-1" d="M.5.5v720h463V.5Z"/><polyline class="cls-2" points="412.88 721.5 315.5 330.5 257.5 186.5 233 186 286.5 330.5 381.9 721.5"/><path class="cls-2" d="M312.5,346.5s3,6,3,10a24.27,24.27,0,0,1,2,10s2,4,2,7c0,0,5,10,5,16a28.34,28.34,0,0,1,1,12s3,3,3,6v2a16.7,16.7,0,0,1,3,9s2,3,3,10c0,0,1,10,1,13,0,0,4,4,3,6,0,0,2,3,2,10,0,0,4,6,3,11,0,0,4,5,4,14a15.3,15.3,0,0,0,2,10c3,5,3,12,3,12s1,1,1,6c0,0-2,5,0,8a15.3,15.3,0,0,1,4,10s5,5,2,9a19.93,19.93,0,0,1,1,10s3,4,3,7c0,0,5,9,5,17,0,0,2,3,2,5s3,4,3,11c0,0,2-2,3,8s4,8,3,16c0,0,6,14,5,23,0,0,2,0,1,5s2,6,3,11,6,8,4,11,0,5,0,9c0,0,2,1,2,7,0,0,2,1,3,10a12.68,12.68,0,0,1,2,6c0,3,3,5,3,11s4.26,17,4.26,17"/><path class="cls-1" d="M375.5,37.5s9.34-15.23,3-26c0,0-10.71,6.2-11,23"/><path class="cls-1" d="M397.32,34.15s5.42-17-3.31-26c0,0-8.91,8.58-5.18,25"/><path class="cls-1" d="M410.75,27.44s5.23-13.87-1-26.91a85.89,85.89,0,0,0-11,33.61"/><path class="cls-1" d="M412.5,35.5s9.34-15.23,3-26c0,0-10.71,6.2-11,23"/><path class="cls-1" d="M394.27,49.24s-2.54-14.15,1.4-24.09c0,0,2.72-5.39,11.05-8,0,0-.48,20.67-5.92,31.44A5.56,5.56,0,0,0,394.27,49.24Z"/><path class="cls-1" d="M431.27,43.24s-2.54-14.15,1.4-24.09c0,0,2.72-5.39,11.05-8,0,0-.48,20.67-5.92,31.44A5.56,5.56,0,0,0,431.27,43.24Z"/><path class="cls-1" d="M344.75,27.44s5.23-13.87-1-26.91a85.89,85.89,0,0,0-11,33.61"/><path class="cls-1" d="M352.5,26.5s9.34-15.23,3-26c0,0-10.71,6.2-11,23"/><path class="cls-1" d="M361.37,24.73S362.51,13,366.44,10a17.21,17.21,0,0,1,2.66,16.81"/><path class="cls-1" d="M352.11,19.25S360.43,5.56,366,3.38c0,0,1.56,10.79-7.88,21.2"/><path class="cls-1" d="M357.4,42.5s8.88-12.81,5-24.68c0,0-8.88,2.54-12.76,18.89"/><path class="cls-1" d="M347.66,38.62s9.44-11.1,7.26-25.11c0,0-8.3,0-13.62,16.47"/><path class="cls-1" d="M333.27,42.24s-2.54-14.15,1.4-24.09c0,0,2.72-5.39,11.05-8,0,0-.48,20.67-5.92,31.44A5.56,5.56,0,0,0,333.27,42.24Z"/><path class="cls-1" d="M368.75,45.44s5.23-13.87-1-26.91a85.89,85.89,0,0,0-11,33.61"/><path class="cls-1" d="M243.46,32.09s1.52-15.51-7.65-24c0,0-6.51,6.55-1.95,22.72"/><path class="cls-1" d="M315.31,31.8c11.57-5.92,13.52-25.24,13.52-25.24C320.72,11.49,315,19.77,315,19.77"/><path class="cls-1" d="M345.88,58.2s8-16.15,4-26.59c0,0-8.73,7.24-10.71,21.32"/><path class="cls-1" d="M384.5,46.5s9.34-15.23,3-26c0,0-10.71,6.2-11,23"/><path class="cls-1" d="M383.5,46.5s-.78-11.76,2.61-15.38a17.21,17.21,0,0,1,5.36,16.15"/><path class="cls-1" d="M384.7,49s6.53-15.27,15.11-18c0,0,1.72,15.67-5.15,21.31"/><path class="cls-1" d="M382.88,64.41s5.93-14.42-.41-25.19c0,0-8.13,4.39-8.42,21.19"/><path class="cls-1" d="M372.66,54.62s9.44-11.1,7.26-25.11c0,0-8.3,0-13.62,16.47"/><path class="cls-1" d="M306,33.05c9.59-8.77,6.37-27.92,6.37-27.92-6.52,6.89-9.83,16.38-9.83,16.38"/><path class="cls-1" d="M303.16,29.38s7.15-13.85,1.77-25.13c0,0-8.48,3.67-10.22,20.39"/><path class="cls-1" d="M297.43,30.33s1.33-15.53-7.94-23.9c0,0-6.44,6.62-1.68,22.74"/><path class="cls-1" d="M287.51,32s-3.11-15.27-14.37-20.68c0,0-4.3,8.17,4.82,22.28"/><path class="cls-1" d="M307.14,37.47s-.67-12.52-9.73-19.06c0,0-4.83,5.45,1.22,18.31"/><path class="cls-1" d="M292.46,40.09s1.52-15.51-7.65-24c0,0-6.51,6.55-1.95,22.72"/><path class="cls-1" d="M321.19,34.14s2.71-14.81-6.06-25c0,0-7.17,5-3.7,21.75"/><path class="cls-1" d="M319.09,38.3s13.71-5.61,19-19.08A86.09,86.09,0,0,0,306,34.11"/><path class="cls-1" d="M312.64,50.66s5.69-13.19,14.47-19.31c0,0,5.24-3,13.65-.61,0,0-11.81,17-22.29,23A5.57,5.57,0,0,0,312.64,50.66Z"/><path class="cls-1" d="M351.82,61.37s8.34-12.24,5.31-26.39a86.08,86.08,0,0,0-18.52,30.1"/><path class="cls-1" d="M338,56.63a49.39,49.39,0,0,0,5.21-32.19S330.81,36.87,324.31,58.7"/><path class="cls-1" d="M356.27,70.24s-2.54-14.15,1.4-24.09c0,0,2.72-5.39,11.05-8,0,0-.48,20.67-5.92,31.44A5.56,5.56,0,0,0,356.27,70.24Z"/><path class="cls-1" d="M305.31,44.8c11.57-5.92,13.52-25.24,13.52-25.24C310.72,24.49,305,32.77,305,32.77"/><path class="cls-1" d="M262,38.05c9.59-8.77,6.37-27.92,6.37-27.92-6.52,6.89-9.83,16.38-9.83,16.38"/><path class="cls-1" d="M257.16,35.38s7.15-13.85,1.77-25.13c0,0-8.48,3.67-10.22,20.39"/><path class="cls-1" d="M251.43,36.33s1.33-15.53-7.94-23.9c0,0-6.44,6.62-1.68,22.74"/><path class="cls-1" d="M239.84,44.8s-1.69-21-12.7-27.48c0,0-5.2,11.83,2.75,30.65"/><path class="cls-1" d="M262.14,41.47s-.67-12.52-9.73-19.06c0,0-4.83,5.45,1.22,18.31"/><path class="cls-1" d="M275,45.86s4.58-17.11-3.85-27.75c0,0-8.36,6.47-6.42,25.09"/><path class="cls-1" d="M310.24,53.06s4.5-14.92-2.85-25c0,0-7.66,5.16-6.32,21.91"/><path class="cls-1" d="M310.56,60.56s-2.83-14.09.91-24.12c0,0,2.61-5.44,10.88-8.26,0,0-.06,20.67-5.28,31.55A5.55,5.55,0,0,0,310.56,60.56Z"/><path class="cls-1" d="M318.56,66.56s-2.83-14.09.91-24.12c0,0,2.61-5.44,10.88-8.26,0,0-.06,20.67-5.28,31.55A5.55,5.55,0,0,0,318.56,66.56Z"/><path class="cls-1" d="M301.43,50.33s1.33-15.53-7.94-23.9c0,0-6.44,6.62-1.68,22.74"/><path class="cls-1" d="M290.92,54.41s-2.61-17.31-13.78-23.09c0,0-4.62,9.46,4.09,25.24"/><path class="cls-1" d="M335,59.65s2.28-12.32-5-20.81c0,0-6,4.17-3.11,18.09"/><path class="cls-1" d="M361.43,67.23s1.62-15.5-7.5-24c0,0-6.56,6.5-2.09,22.7"/><path class="cls-1" d="M370.05,67.92s6.6-10.65,2.91-21.2c0,0-7.08,1.72-9.47,15.73"/><path class="cls-1" d="M353.87,84.21S364,74,374.36,71.47c0,0,6-.88,12.94,4.4,0,0-17.17,11.51-29.11,13.28A5.55,5.55,0,0,0,353.87,84.21Z"/><path class="cls-1" d="M349.16,76.09c12.93-1.32,21.77-18.61,21.77-18.61-9.35,1.65-17.66,7.29-17.66,7.29"/><path class="cls-1" d="M244.15,43.49s-.75-12.5-9.85-19c0,0-4.79,5.48,1.33,18.31"/><path class="cls-1" d="M243.59,52.59s12-8.74,13.87-23.08a85.84,85.84,0,0,0-27.55,22.15"/><path class="cls-1" d="M368.25,109.47s6.15-14.32,0-25.18c0,0-8.19,4.26-8.74,21.06"/><path class="cls-1" d="M366.2,120.15s13.45-7.88,14.93-20.29c0,0-9.13-1.43-19.54,11.76"/><path class="cls-1" d="M249,70s-2.48-18,3.52-29.92c0,0,4-6.36,15.48-8.53,0,0-2,25.77-10.12,38.49A8.07,8.07,0,0,0,249,70Z"/><path class="cls-1" d="M231.78,62.21c9.81-8.53,7.07-27.75,7.07-27.75-6.69,6.73-10.24,16.13-10.24,16.13"/><path class="cls-1" d="M234.68,66.2s3.61-15.16-4.32-24.81c0,0-7.35,5.6-5,22.24"/><path class="cls-1" d="M240.66,76.24s-6.13-13-4.91-23.63c0,0,1.23-5.91,8.58-10.63,0,0,4.9,20.08,2.45,31.9A5.54,5.54,0,0,0,240.66,76.24Z"/><path class="cls-1" d="M216.48,27.84S215,12.32,204.35,5.76c0,0-5.14,7.68,2.46,22.67"/><path class="cls-1" d="M226.43,34.33s1.33-15.53-7.94-23.9c0,0-6.44,6.62-1.68,22.74"/><path class="cls-1" d="M215.37,41s-5.71-20.31-17.75-24.53c0,0-2.83,12.62,8.6,29.56"/><path class="cls-1" d="M220.05,41.13s1.88-12.39-5.67-20.64c0,0-5.82,4.36-2.52,18.18"/><path class="cls-1" d="M223.15,55s8.74-13,5.63-28.87a88.08,88.08,0,0,0-19.41,32.05"/><path class="cls-1" d="M210.81,59.64c8-10.26,1.6-28.59,1.6-28.59-5.27,7.89-6.94,17.8-6.94,17.8"/><path class="cls-1" d="M214.43,65s.63-15.57-9-23.51c0,0-6.13,6.9-.64,22.79"/><path class="cls-1" d="M222.23,68.7s-8.52-11.57-9.37-22.24c0,0,.07-6,6.38-12.09,0,0,8.68,18.76,8.55,30.83A5.57,5.57,0,0,0,222.23,68.7Z"/><path class="cls-1" d="M349.23,81S360.92,70.71,360,58.25c0,0-9.23.35-16.93,15.29"/><path class="cls-1" d="M219.18,74.17s5.23-14.68-1.62-25.13c0,0-7.9,4.77-7.39,21.57"/><path class="cls-1" d="M359.38,127.74s15.54-1.25,22.26-11.78c0,0-7.59-5.26-22.7,2.1"/><path class="cls-1" d="M348.33,92.67s2.48-14.15,9.61-22.14c0,0,4.4-4.12,13.14-3.74,0,0-7.57,19.24-16.38,27.48A5.56,5.56,0,0,0,348.33,92.67Z"/><path class="cls-1" d="M254.43,73.33s1.33-15.53-7.94-23.9c0,0-6.44,6.62-1.68,22.74"/><path class="cls-1" d="M244.51,75s-3.11-15.27-14.37-20.68c0,0-4.3,8.17,4.82,22.28"/><path class="cls-1" d="M312.66,74.28s-5.85-13.12-4.4-23.72c0,0,1.35-5.88,8.8-10.45,0,0,4.48,20.18,1.78,31.94A5.57,5.57,0,0,0,312.66,74.28Z"/><path class="cls-1" d="M323.66,81.69s4.14-13.76,12.16-20.84c0,0,4.86-3.57,13.49-2.17,0,0-9.79,18.21-19.51,25.35A5.58,5.58,0,0,0,323.66,81.69Z"/><path class="cls-1" d="M344.67,74.25s9.05-12.69,5.32-24.62c0,0-8.91,2.43-13,18.73"/><path class="cls-1" d="M327.66,75.21c11.92-5.19,15.07-24.35,15.07-24.35-8.4,4.41-14.6,12.31-14.6,12.31"/><path class="cls-1" d="M321.05,73S325.9,58.23,318.78,48c0,0-8.23,13.76-7.28,30.54"/><path class="cls-1" d="M328.23,74.89s8-13.38,3.32-25c0,0-8.68,3.14-11.46,19.71"/><path class="cls-1" d="M309.14,60.47s-.67-12.52-9.73-19.06c0,0-4.83,5.45,1.22,18.31"/><path class="cls-1" d="M271.75,71.29s-5.93-13.09-4.54-23.7c0,0,1.31-5.89,8.74-10.5,0,0,4.6,20.15,2,31.93A5.57,5.57,0,0,0,271.75,71.29Z"/><path class="cls-1" d="M296.46,60.09s1.52-15.51-7.65-24c0,0-6.51,6.55-1.95,22.72"/><path class="cls-1" d="M286.76,72.12c11.89-5.26,14.92-24.44,14.92-24.44-8.37,4.47-14.53,12.41-14.53,12.41"/><path class="cls-1" d="M298.5,74.5s12-8.67,14-23a86,86,0,0,0-27.68,22"/><path class="cls-1" d="M280.14,70s4.76-14.85-2.42-25.07c0,0-8.16,13.81-7.1,30.58"/><path class="cls-1" d="M287.33,71.8s7.91-13.43,3.17-25c0,0-8.67,3.19-11.34,19.78"/><path class="cls-1" d="M268.15,57.49s-.75-12.5-9.85-19c0,0-4.79,5.48,1.33,18.31"/><path class="cls-1" d="M257.59,71.59s12-8.74,13.87-23.08a85.84,85.84,0,0,0-27.55,22.15"/><path class="cls-1" d="M319.66,94.28s-5.85-13.12-4.4-23.72c0,0,1.35-5.88,8.8-10.45,0,0,4.48,20.18,1.78,31.94A5.57,5.57,0,0,0,319.66,94.28Z"/><path class="cls-1" d="M256.31,85.13s2.35-14.17,9.4-22.22c0,0,4.37-4.16,13.11-3.86,0,0-7.39,19.31-16.13,27.63A5.56,5.56,0,0,0,256.31,85.13Z"/><path class="cls-1" d="M364.94,146.61s5.92-14.41-.41-25.18c0,0-9.74,5.27-10,22.07"/><path class="cls-1" d="M350.63,155.45s16.79-6.54,20.87-16.95c0,0-11.33-.54-22.28,8.52"/><path class="cls-1" d="M363.5,156.5s9.34-15.23,3-26c0,0-10.71,6.2-11,23"/><path class="cls-1" d="M360.5,160.5s-.78-11.76,2.61-15.38a17.21,17.21,0,0,1,5.36,16.15"/><path class="cls-1" d="M360.7,166.83s3.8-11.33,8.8-13.33c0,0,1,11.62-3,15.81"/><path class="cls-1" d="M371.94,183.61s5.92-14.41-.41-25.18c0,0-8.13,4.39-8.42,21.19"/><path class="cls-1" d="M365.83,190.92s6.86-10.49,3.42-21.13c0,0-7.12,1.55-9.85,15.5"/><path class="cls-1" d="M358.88,181.41s5.93-14.42-.41-25.19c0,0-8.13,4.39-8.42,21.19"/><path class="cls-1" d="M350.07,185.86s7.64-9.93,5-20.8c0,0-7.21,1-11,14.69"/><path class="cls-1" d="M352.91,195.59A31.64,31.64,0,0,1,358.25,174s6.8,12.62,4.13,19.33"/><path class="cls-1" d="M341.52,199.3a33,33,0,0,1,9.9-20.31s3.78,14-.27,20.1"/><path class="cls-1" d="M356.24,201.63s5.48-13.28,14.17-19.54c0,0,5.19-3.07,13.64-.81,0,0-11.55,17.15-21.93,23.29A5.57,5.57,0,0,0,356.24,201.63Z"/><path class="cls-1" d="M369.67,211.85s12.38-9.47,12.32-22c0,0-9.23-.3-17.94,14.07"/><path class="cls-1" d="M355.85,196.91s2.8-7.76,15.28-6.61c0,0-10,14.94-20.88,22.12"/><path class="cls-1" d="M357.47,215s18,.29,27-11.09c0,0-8.17-6.91-26.4-.12"/><path class="cls-1" d="M338.36,210.36s9.61-10.91,24.38-6.81a79,79,0,0,1-21.94,15.53"/><path class="cls-1" d="M353.07,221.47s12.14,3.08,21.09-3.63c0,0-3.77-6.22-17.85-4.28"/><path class="cls-1" d="M355.15,229.62s11.66,3.15,20.38.71c0,0,4.77-1.8,7.75-8.37,0,0-17.42-1.19-27,2.4A4.46,4.46,0,0,1,355.15,229.62Z"/><path class="cls-1" d="M334.94,207.36c12.91,1.51,25.27-13.46,25.27-13.46-9.47-.41-18.81,3.29-18.81,3.29"/><path class="cls-1" d="M325.92,223.67c11.53-6,23.05-19.83,23.05-19.83-12.29-2.44-15.87,5-15.87,5"/><path class="cls-1" d="M354.12,238.79s15.35,2.68,24.5-5.83c0,0-6-7-22.51-3.65"/><path class="cls-1" d="M348.1,228.16s11-11,9.38-23.37c0,0-9.2.9-16,16.27"/><path class="cls-1" d="M341.18,241.41c11.83-5.4,24.07-18.59,24.07-18.59-12.15-3.08-16.12,4.14-16.12,4.14"/><path class="cls-1" d="M345.42,241.25s12.14,3.08,21.09-3.62c0,0-8.93-7.07-23-5.13"/><path class="cls-1" d="M335.2,228.38s14.57,2.4,21.38,16.49c0,0-18.08,2.63-26.27-10.15"/><path class="cls-1" d="M327.49,234.14s14.65-5.32,18.35-17.26c0,0-8.72-3-21.34,8"/><path class="cls-1" d="M335.77,106.45S342.19,93.6,351.3,88c0,0,5.4-2.69,13.66.17,0,0-12.75,16.27-23.54,21.66A5.57,5.57,0,0,0,335.77,106.45Z"/><path class="cls-1" d="M330.66,101.69s4.14-13.76,12.16-20.84c0,0,4.86-3.57,13.49-2.17,0,0-9.79,18.21-19.51,25.35A5.58,5.58,0,0,0,330.66,101.69Z"/><path class="cls-1" d="M354.66,118.21c11.92-5.19,15.07-24.35,15.07-24.35-8.4,4.41-14.6,12.31-14.6,12.31"/><path class="cls-1" d="M351.23,118.89s8-13.38,3.32-25c0,0-8.68,3.14-11.46,19.71"/><path class="cls-1" d="M344.43,83.23s1.62-15.5-7.5-24c0,0-6.56,6.5-2.09,22.7"/><path class="cls-1" d="M334.66,95.21c11.92-5.19,15.07-24.35,15.07-24.35-8.4,4.41-14.6,12.31-14.6,12.31"/><path class="cls-1" d="M423.5,18.5s-.78-11.76,2.61-15.38c0,0,7.36,7.15,5.39,17.38"/><path class="cls-1" d="M420.4,42.5s8.88-12.81,5-24.68c0,0-8.88,2.54-12.76,18.89"/><path class="cls-1" d="M404.66,59.3s12.68-13.55,10.41-30.1c0,0-10.76.35-18.32,20.1"/><path class="cls-1" d="M431.75,45.44s5.23-13.87-1-26.91a85.89,85.89,0,0,0-11,33.61"/><path class="cls-1" d="M403.88,65.2s8-16.15,4-26.59c0,0-8.73,7.24-10.71,21.32"/><path class="cls-1" d="M447.5,46.5s9.34-15.23,3-26c0,0-10.71,6.2-11,23"/><path class="cls-1" d="M446.5,46.5s-.78-11.76,2.61-15.38a17.21,17.21,0,0,1,5.36,16.15"/><path class="cls-1" d="M447.7,49.83s3.8-11.33,8.8-13.33c0,0,1,11.62-3,15.81"/><path class="cls-1" d="M458.94,66.61s5.92-14.41-.41-25.18c0,0-8.13,4.39-8.42,21.19"/><path class="cls-1" d="M445.88,64.41s5.93-14.42-.41-25.19c0,0-8.13,4.39-8.42,21.19"/><path class="cls-1" d="M435.66,54.62s9.44-11.1,7.26-25.11c0,0-8.3,0-13.62,16.47"/><path class="cls-1" d="M414.82,61.37s8.34-12.24,5.31-26.39a86.08,86.08,0,0,0-18.52,30.1"/><path class="cls-1" d="M392.43,72.81a47.89,47.89,0,0,0,5.86-31.71s-12.86,12.42-19.87,34"/><path class="cls-1" d="M419.27,70.24s-2.54-14.15,1.4-24.09c0,0,2.72-5.39,11.05-8,0,0-.48,20.67-5.92,31.44A5.56,5.56,0,0,0,419.27,70.24Z"/><path class="cls-1" d="M424.43,67.23s1.62-15.5-7.5-24c0,0-6.56,6.5-2.09,22.7"/><path class="cls-1" d="M433.05,67.92s6.6-10.65,2.91-21.2c0,0-7.08,1.72-9.47,15.73"/><path class="cls-1" d="M405.79,74.05S416.38,62.13,414,48.42c0,0-9.27.8-15.28,17.65"/><path class="cls-1" d="M328.05,93S332.9,78.23,325.78,68c0,0-8.23,13.76-7.28,30.54"/><path class="cls-1" d="M335.23,94.89s8-13.38,3.32-25c0,0-8.68,3.14-11.46,19.71"/><path class="cls-1" d="M309.84,84s8.24-9.44,6.31-20.45c0,0-7.26.55-11.9,14"/><path class="cls-1" d="M291.92,93.25S290,79,294.33,69.24c0,0,2.94-5.26,11.38-7.57,0,0-1.35,20.63-7.23,31.17A5.58,5.58,0,0,0,291.92,93.25Z"/><path class="cls-1" d="M305.94,94.61s5.92-14.41-.41-25.18c0,0-8.13,4.39-8.42,21.19"/><path class="cls-1" d="M305.5,94.5s12-8.67,14-23a86,86,0,0,0-27.68,22"/><path class="cls-1" d="M286.43,90.23s1.62-15.5-7.5-24c0,0-6.56,6.5-2.09,22.7"/><path class="cls-1" d="M284.9,86.34s-5-13.67,5.73-24.65a78.93,78.93,0,0,1,3.09,26.7"/><path class="cls-1" d="M245.78,81.21c9.81-8.53,7.07-27.75,7.07-27.75-6.69,6.73-10.24,16.13-10.24,16.13"/><path class="cls-1" d="M170.41,37.05s.33-15.59-9.47-23.34c0,0-6,7-.2,22.8"/><path class="cls-1" d="M189.3,41.56c8.89-9.48,4.21-28.32,4.21-28.32-6,7.37-8.54,17.09-8.54,17.09"/><path class="cls-1" d="M184.33,39.27s6.06-14.36-.17-25.19c0,0-8.17,4.32-8.62,21.11"/><path class="cls-1" d="M178.68,40.66s.14-15.59-9.75-23.22c0,0-5.91,7.1.07,22.8"/><path class="cls-1" d="M167.78,50S164.48,29.16,153,23.57c0,0-4.28,12.2,5.1,30.35"/><path class="cls-1" d="M189.76,45s-1.63-12.43-11.17-18.26c0,0-4.39,5.81,2.62,18.17"/><path class="cls-1" d="M202.9,48.35s3.25-17.41-6-27.37c0,0-7.84,7.09-4.47,25.51"/><path class="cls-1" d="M172,48.36S170.27,36,160.7,30.17c0,0-4.36,5.84,2.73,18.16"/><path class="cls-1" d="M172.12,57.47s11.26-9.63,12-24.08a86,86,0,0,0-25.77,24.2"/><path class="cls-1" d="M178.82,74.43S175,56.65,180,44.33c0,0,3.54-6.65,14.78-9.69,0,0-.06,25.85-7.13,39.15A8.07,8.07,0,0,0,178.82,74.43Z"/><path class="cls-1" d="M161.08,68c9.13-9.26,4.92-28.21,4.92-28.21-6.15,7.22-9,16.87-9,16.87"/><path class="cls-1" d="M164.28,71.73s2.44-15.39-6.21-24.41c0,0-6.9,6.15-3.3,22.57"/><path class="cls-1" d="M171,81.28s-7.11-12.49-6.7-23.18c0,0,.76-6,7.73-11.26,0,0,6.44,19.64,4.9,31.61A5.58,5.58,0,0,0,171,81.28Z"/><path class="cls-1" d="M143.18,34.88S140.5,19.53,129.39,13.8c0,0-4.52,8.05,4.2,22.42"/><path class="cls-1" d="M153.6,40.59s.14-15.59-9.75-23.22c0,0-5.91,7.1.08,22.8"/><path class="cls-1" d="M136.55,52.05s5-20.5-3.47-30.08c0,0-8.64,9.62-7,30"/><path class="cls-1" d="M147.77,47.85s.92-12.49-7.24-20.14c0,0-5.47,4.8-1.11,18.33"/><path class="cls-1" d="M151.93,61.43s7.71-13.62,3.39-29.21a88,88,0,0,0-16.89,33.44"/><path class="cls-1" d="M142.56,78s8.32-25.3-2.19-39.54c0,0-12.36,10.45-11.77,37.08"/><path class="cls-1" d="M152.29,78.17s-9.38-10.88-11-21.46c0,0-.39-6,5.43-12.54,0,0,10.1,18,10.9,30.08A5.58,5.58,0,0,0,152.29,78.17Z"/><path class="cls-1" d="M187.52,71.32s.14-15.59-9.76-23.22c0,0-5.9,7.1.08,22.8"/><path class="cls-1" d="M195.81,63.62s5.29-11.36.37-21.39c0,0-6.82,2.54-7.54,16.74"/><path class="cls-1" d="M188.56,76.72s8.16-12.37,4.93-26.47a85.8,85.8,0,0,0-18.08,30.38"/><path class="cls-1" d="M198.5,75.84c9.13-9.26,4.92-28.21,4.92-28.21-6.15,7.22-9,16.87-9,16.87"/><path class="cls-1" d="M248.68,85.2s3.61-15.16-4.32-24.81c0,0-7.35,5.6-5,22.24"/><path class="cls-1" d="M254.66,95.24s-6.13-13-4.91-23.63c0,0,1.23-5.91,8.58-10.63,0,0,4.9,20.08,2.45,31.9A5.54,5.54,0,0,0,254.66,95.24Z"/><path class="cls-1" d="M268.43,92.33s1.33-15.53-7.94-23.9c0,0-6.44,6.62-1.68,22.74"/><path class="cls-1" d="M274.62,91.11s8.05-11.25,1.52-24.16A53.07,53.07,0,0,0,262.8,98.07"/><path class="cls-1" d="M281.62,96.11S295,85.41,288.5,72.5c0,0-19,8-18.7,30.57"/><path class="cls-1" d="M248.51,94s-3.11-15.27-14.37-20.68c0,0-4.3,8.17,4.82,22.28"/><path class="cls-1" d="M255.77,107.07c2-12.85-2.29-30.33-2.29-30.33-9.26,8.45-5.41,15.74-5.41,15.74"/><path class="cls-1" d="M246.24,114.47s-1.6-14.45,11.38-22.6a78.93,78.93,0,0,1-3.29,26.67"/><path class="cls-1" d="M241.72,115c9.81-8.53,7.07-27.75,7.07-27.75-6.69,6.73-10.24,16.13-10.24,16.13"/><path class="cls-1" d="M235.82,112.74S235.11,99,225.07,91.65A49,49,0,0,0,229,119.44"/><path class="cls-1" d="M242.17,114.5s3.61-15.16-4.32-24.81c0,0-7.35,5.6-5,22.24"/><path class="cls-1" d="M244,127.58c-4.74-19.9-23-24.64-23-24.64-.52,11.69,12.27,22.35,12.27,22.35"/><path class="cls-1" d="M247.21,125.67s-.64-12.51-9.69-19.09c0,0-4.83,5.45,1.18,18.32"/><path class="cls-1" d="M242,138.1s-14.74-8.61-13.24-26.54a92.33,92.33,0,0,1,22.8,21.77"/><path class="cls-1" d="M273.52,102.05s1.33-15.53-7.94-23.91c0,0-6.44,6.63-1.68,22.74"/><path class="cls-1" d="M269.47,107.33s-4-19.92-15.23-25.33c0,0-3.44,12.81,5.68,26.93"/><path class="cls-1" d="M262.68,128.31c9.82-8.53,7.07-27.75,7.07-27.75-6.68,6.72-10.23,16.13-10.23,16.13"/><path class="cls-1" d="M255.73,128.22s.18-15.58-9.69-23.25c0,0-5.93,7.09,0,22.81"/><path class="cls-1" d="M263.13,127.83s3.61-15.16-4.32-24.81c0,0-7.35,5.6-5,22.24"/><path class="cls-1" d="M289.44,104.87c5.76-11.65,6.91-29.62,6.91-29.62-11.36,5.29-9.88,13.4-9.88,13.4"/><path class="cls-1" d="M278.13,109.07s2.81-14.26,17.64-18.14a79,79,0,0,1-11.15,24.46"/><path class="cls-1" d="M273.66,108.21c11.92-5.19,15.07-24.35,15.07-24.35-8.4,4.41-14.6,12.31-14.6,12.31"/><path class="cls-1" d="M275.23,112.89s8-13.38,3.32-25c0,0-8.68,3.14-11.46,19.71"/><path class="cls-1" d="M307.92,112.25S306,98,310.33,88.24c0,0,2.94-5.26,11.38-7.57,0,0-1.35,20.63-7.23,31.17A5.58,5.58,0,0,0,307.92,112.25Z"/><path class="cls-1" d="M307.88,112.41s5.93-14.42-.41-25.19c0,0-8.13,4.39-8.42,21.19"/><path class="cls-1" d="M302.43,109.23S304.62,89,295.5,80.5c0,0-7.13,11.19-2.66,27.39"/><path class="cls-1" d="M328.92,114.25s-1.95-14.23,2.41-24c0,0,2.94-5.26,11.38-7.57,0,0-1.35,20.63-7.23,31.17A5.58,5.58,0,0,0,328.92,114.25Z"/><path class="cls-1" d="M342.94,115.61s5.92-14.41-.41-25.18c0,0-8.13,4.39-8.42,21.19"/><path class="cls-1" d="M331.43,126.27s12.05-3.45,16.4-13.74c0,0-6.39-3.49-17.58,5.28"/><path class="cls-1" d="M329.88,113.41s5.93-14.42-.41-25.19c0,0-8.13,4.39-8.42,21.19"/><path class="cls-1" d="M320,132.45s15.74-8.83,17.73-23.16c0,0-10.53-1.85-22.87,13.19"/><path class="cls-1" d="M323.43,111.23s1.62-15.5-7.5-24c0,0-6.56,6.5-2.09,22.7"/><path class="cls-1" d="M310.66,129.21c11.92-5.19,15.07-24.35,15.07-24.35-8.4,4.41-14.6,12.31-14.6,12.31"/><path class="cls-1" d="M311.23,128.89s8-13.38,3.32-25c0,0-8.68,3.14-11.46,19.71"/><path class="cls-1" d="M297.84,117s8.24-9.44,6.31-20.45c0,0-7.26.55-11.9,14"/><path class="cls-1" d="M277.92,124.25s-1.95-14.23,2.41-24c0,0,2.94-5.26,11.38-7.57,0,0-1.35,20.63-7.23,31.17A5.58,5.58,0,0,0,277.92,124.25Z"/><path class="cls-1" d="M291.94,125.61s5.92-14.41-.41-25.18c0,0-8.13,4.39-8.42,21.19"/><path class="cls-1" d="M298.21,126.31s11.05-8.32,8.69-22.59a53,53,0,0,0-22.06,25.67"/><path class="cls-1" d="M272.43,121.23s1.62-15.5-7.5-24c0,0-6.56,6.5-2.09,22.7"/><path class="cls-1" d="M275.44,135.87c5.76-11.65,6.91-29.62,6.91-29.62-11.36,5.29-9.88,13.4-9.88,13.4"/><path class="cls-1" d="M264.13,140.07s2.81-14.26,17.64-18.14a79,79,0,0,1-11.15,24.46"/><path class="cls-1" d="M259.66,139.21c11.92-5.19,15.07-24.35,15.07-24.35-8.4,4.41-14.6,12.31-14.6,12.31"/><path class="cls-1" d="M256.05,135s4.85-14.81-2.27-25.08c0,0-8.23,13.76-7.28,30.54"/><path class="cls-1" d="M260.23,138.89s8-13.38,3.32-25c0,0-8.68,3.14-11.46,19.71"/><path class="cls-1" d="M259.05,150.91c1.45-20.41-14.55-30.41-14.55-30.41-4,11,5,25,5,25"/><path class="cls-1" d="M259.4,152.46c-3.57-20.14-21.52-25.94-21.52-25.94-1.2,11.64,10.94,23,10.94,23"/><path class="cls-1" d="M261.69,151.05s3.15-12.13-3.51-21.11c0,0-6.25,3.74-4.38,17.83"/><path class="cls-1" d="M253,161.33S241.47,148.7,248.28,132a92.5,92.5,0,0,1,15.22,27.6"/><path class="cls-1" d="M248.19,155.58s-2.34-13.9-13.21-20c0,0-4.63,6.78,3.7,20.32"/><path class="cls-1" d="M247.17,176.59s.62-15.58-9-23.52c0,0-6.13,6.91-.64,22.8"/><path class="cls-1" d="M255.49,175.81s.08-15.59-9.84-23.19c0,0-5.89,7.12.15,22.8"/><path class="cls-1" d="M347.92,141.25s-1.95-14.23,2.41-24c0,0,2.94-5.26,11.38-7.57,0,0-1.35,20.63-7.23,31.17A5.58,5.58,0,0,0,347.92,141.25Z"/><path class="cls-1" d="M348.88,140.41s5.93-14.42-.41-25.19c0,0-8.13,4.39-8.42,21.19"/><path class="cls-1" d="M343.43,166.27s12.05-3.45,16.4-13.74c0,0-6.39-3.49-17.58,5.28"/><path class="cls-1" d="M339,159.45s15.74-8.83,17.73-23.16c0,0-10.53-1.85-22.87,13.19"/><path class="cls-1" d="M342.43,138.23s1.62-15.5-7.5-24c0,0-6.56,6.5-2.09,22.7"/><path class="cls-1" d="M322.08,150.85c6.94-11,9.94-28.75,9.94-28.75-11.85,4.08-11.21,12.3-11.21,12.3"/><path class="cls-1" d="M338.44,180.87c5.76-11.65,6.91-29.62,6.91-29.62-11.36,5.29-9.88,13.4-9.88,13.4"/><path class="cls-1" d="M332.13,181.07s2.81-14.26,17.64-18.14a79,79,0,0,1-11.15,24.46"/><path class="cls-1" d="M329.66,156.21c11.92-5.19,15.07-24.35,15.07-24.35-8.4,4.41-14.6,12.31-14.6,12.31"/><path class="cls-1" d="M321.05,152s4.85-14.81-2.27-25.08c0,0-7.78,5-6.82,21.75"/><path class="cls-1" d="M330.23,155.89s8-13.38,3.32-25c0,0-8.68,3.14-11.46,19.71"/><path class="cls-1" d="M328.05,168.91c-.81-13-8.75-29.13-8.75-29.13-7.22,10.24-1.9,16.53-1.9,16.53"/><path class="cls-1" d="M325.62,163.21s8.73-9,7.38-20.09c0,0-7.28.16-12.62,13.33"/><path class="cls-1" d="M335.74,200.41s11.8-10.19,11-22.66c0,0-9.23.25-17.08,15.11"/><path class="cls-1" d="M293.92,143.25s-1.95-14.23,2.41-24c0,0,2.94-5.26,11.38-7.57,0,0-1.35,20.63-7.23,31.17A5.58,5.58,0,0,0,293.92,143.25Z"/><path class="cls-1" d="M307.94,144.61s5.92-14.41-.41-25.18c0,0-8.13,4.39-8.42,21.19"/><path class="cls-1" d="M293.88,136.41s5.93-14.42-.41-25.19c0,0-8.13,4.39-8.42,21.19"/><path class="cls-1" d="M299,153.45s15.74-8.83,17.73-23.16c0,0-10.53-1.85-22.87,13.19"/><path class="cls-1" d="M288.43,140.23s2.19-20.19-6.93-28.73c0,0-7.13,11.19-2.66,27.39"/><path class="cls-1" d="M291.44,154.87c5.76-11.65,6.91-29.62,6.91-29.62-11.36,5.29-9.88,13.4-9.88,13.4"/><path class="cls-1" d="M280.13,159.07s2.81-14.26,17.64-18.14a79,79,0,0,1-11.15,24.46"/><path class="cls-1" d="M298.43,161.27s12.05-3.45,16.4-13.74c0,0-6.39-3.49-17.58,5.28"/><path class="cls-1" d="M275.66,158.21c11.92-5.19,15.07-24.35,15.07-24.35-8.4,4.41-14.6,12.31-14.6,12.31"/><path class="cls-1" d="M269.05,156s4.85-14.81-2.27-25.08c0,0-7.78,5-6.82,21.75"/><path class="cls-1" d="M276.23,157.89s8-13.38,3.32-25c0,0-8.68,3.14-11.46,19.71"/><path class="cls-1" d="M276.08,176.85c6.94-11,9.94-28.75,9.94-28.75-11.85,4.08-11.21,12.3-11.21,12.3"/><path class="cls-1" d="M274.05,170.91c-.81-13-8.75-29.13-8.75-29.13-7.22,10.24-1.9,16.53-1.9,16.53"/><path class="cls-1" d="M269.55,175.35s-12-8.58-11.91-24.23a95.4,95.4,0,0,1,19.09,20.7"/><path class="cls-1" d="M271.62,165.21s8.73-9,7.38-20.09c0,0-7.28.16-12.62,13.33"/><path class="cls-1" d="M277.61,181.15s1.52-12-2.1-20.29c0,0-2.44-4.48-9.35-6.52,0,0,1.21,17.42,6.08,26.38A4.46,4.46,0,0,1,277.61,181.15Z"/><path class="cls-1" d="M297.51,169.56s4-15.06-3.67-24.92c0,0-7.49,5.4-5.6,22.1"/><path class="cls-1" d="M264.34,174.15s-1.81-15.48-12.58-21.82c0,0-5,7.78,2.92,22.62"/><path class="cls-1" d="M263.17,195.59s.62-15.58-9-23.52c0,0-6.13,6.91-.64,22.8"/><path class="cls-1" d="M251.49,180.81s.08-15.59-9.84-23.19c0,0-5.89,7.12.15,22.8"/><path class="cls-1" d="M245.31,194.27s-12.45-7.93-13.18-23.57a95.75,95.75,0,0,1,20.16,19.66"/><path class="cls-1" d="M246.84,184s8.24-9.44,6.31-20.45c0,0-7.26.55-11.9,14"/><path class="cls-1" d="M253.66,199.63s.88-12-3.17-20.14c0,0-2.67-4.35-9.68-6,0,0,2.13,17.33,7.47,26A4.44,4.44,0,0,1,253.66,199.63Z"/><path class="cls-1" d="M253.69,200.56s-4.81-14.82-16.61-18.93c0,0-3.36,8.6,7.3,21.6"/><path class="cls-1" d="M315.31,178.13s2.35-14.17,9.4-22.22c0,0,4.37-4.16,13.11-3.86,0,0-7.39,19.31-16.13,27.63A5.56,5.56,0,0,0,315.31,178.13Z"/><path class="cls-1" d="M328.29,183.58s9.93-12,7.06-24.18c0,0-9.06,1.79-14.31,17.75"/><path class="cls-1" d="M317.29,171.58s9.93-12,7.06-24.18c0,0-9.06,1.79-14.31,17.75"/><path class="cls-1" d="M317.1,189.36s17.65-3.77,23.78-16.87c0,0-9.51-4.89-25.74,5.83"/><path class="cls-1" d="M311,173.62s6.13-14.33,0-25.19c0,0-8.19,4.28-8.72,21.07"/><path class="cls-1" d="M309.49,188.5c8.95-9.43,15.37-26.25,15.37-26.25-12.42,1.68-13.4,9.87-13.4,9.87"/><path class="cls-1" d="M297.45,189.16s6.9-12.79,22.21-12.11a78.81,78.81,0,0,1-17.88,20.06"/><path class="cls-1" d="M314.27,196.68S326.8,197,334,188.4c0,0-5.07-5.22-18.36-.15"/><path class="cls-1" d="M318.14,204.16s12.07.44,20-3.9c0,0,4.24-2.82,5.66-9.89,0,0-17.24,2.75-25.73,8.4A4.46,4.46,0,0,1,318.14,204.16Z"/><path class="cls-1" d="M293.44,187c12.92-1.43,21.6-18.8,21.6-18.8-9.33,1.73-17.6,7.44-17.6,7.44"/><path class="cls-1" d="M286.45,180.48s9-12.71,5.25-24.63c0,0-8.9,2.45-13,18.76"/><path class="cls-1" d="M294.07,186.87s11.6-10.41,10.57-22.86c0,0-9.23.42-16.79,15.43"/><path class="cls-1" d="M288.32,204.94c9.88-8.45,18-24.52,18-24.52-12.52.39-14.35,8.44-14.35,8.44"/><path class="cls-1" d="M284.34,188.15s-1.81-15.48-12.58-21.82c0,0-5,7.78,2.92,22.62"/><path class="cls-1" d="M288.14,198.66c3.07-12.63.26-30.41.26-30.41-9.93,7.64-6.71,15.23-6.71,15.23"/><path class="cls-1" d="M282.52,201.57s-8.94-11.75-4.2-26.67a95.76,95.76,0,0,1,12.11,25.43"/><path class="cls-1" d="M287.5,192.5s11-6,13-17c0,0-7-2-16,9"/><path class="cls-1" d="M288.5,209.5s5-11,4-20c0,0-1-5-7-9,0,0-4,17-2,27A4.45,4.45,0,0,1,288.5,209.5Z"/><path class="cls-1" d="M321.94,228.32s8.29-13.2,3.88-24.89c0,0-8.76,2.95-11.9,19.46"/><path class="cls-1" d="M319.19,213.32s15.57-.84,22.57-11.19c0,0-7.46-5.45-22.76,1.5"/><path class="cls-1" d="M310.94,204.32s8.29-13.2,3.88-24.89c0,0-8.76,2.95-11.9,19.46"/><path class="cls-1" d="M307.18,218.79c10.31-7.92,19.27-23.53,19.27-23.53-12.53-.28-14.78,7.66-14.78,7.66"/><path class="cls-1" d="M301,217.53s.4-14.75,13.44-23.41a95.59,95.59,0,0,1-6.5,27.4"/><path class="cls-1" d="M311.27,217.68S323.8,218,331,209.4c0,0-5.07-5.22-18.36-.15"/><path class="cls-1" d="M303.68,232.92s9.81-7,13.42-15.36c0,0,1.63-4.83-1.59-11.29,0,0-11.93,12.76-15.17,22.43A4.44,4.44,0,0,1,303.68,232.92Z"/><path class="cls-1" d="M327.19,237.32s15.57-.84,22.57-11.19c0,0-7.46-5.45-22.76,1.5"/><path class="cls-1" d="M313.79,252.87c12.78-2.41,27.82-12.3,27.82-12.3-11.06-5.89-16.64.17-16.64.17"/><path class="cls-1" d="M315.18,242.79c10.31-7.92,19.27-23.53,19.27-23.53-12.53-.28-14.78,7.66-14.78,7.66"/><path class="cls-1" d="M309,241.53s.4-14.75,13.44-23.41a95.59,95.59,0,0,1-6.5,27.4"/><path class="cls-1" d="M319.27,241.68S331.8,242,339,233.4c0,0-5.07-5.22-18.36-.15"/><path class="cls-1" d="M311.68,256.92s9.81-7.05,13.42-15.36c0,0,1.63-4.83-1.59-11.29,0,0-11.93,12.76-15.17,22.43A4.44,4.44,0,0,1,311.68,256.92Z"/><path class="cls-1" d="M291,241.34c12.75,2.55,26.28-11.37,26.28-11.37-9.41-1.18-19,1.76-19,1.76"/><path class="cls-1" d="M273.49,186.81s.08-15.59-9.84-23.19c0,0-5.89,7.12.15,22.8"/><path class="cls-1" d="M271.49,194.81s.08-15.59-9.84-23.19c0,0-5.89,7.12.15,22.8"/><path class="cls-1" d="M283,217.34c12.75,2.55,26.28-11.37,26.28-11.37-9.41-1.18-19,1.76-19,1.76"/><path class="cls-1" d="M292.2,214.78s13.08-8.48,14-20.94c0,0-9.18-1-19,12.63"/><path class="cls-1" d="M288.32,234.94c9.88-8.45,18-24.52,18-24.52-12.52.39-14.35,8.44-14.35,8.44"/><path class="cls-1" d="M292.57,238.77s10.62-6.66,11.94-17.76c0,0-7.11-1.57-15.42,10"/><path class="cls-1" d="M283.17,209.59s.62-15.58-9-23.52c0,0-6.13,6.91-.64,22.8"/><path class="cls-1" d="M284.5,225.5c5-12,5-30,5-30-11,6-9,14-9,14"/><path class="cls-1" d="M251.63,201.41s-6.67-6.81-18.63-3c0,0,13.05,10.59,17.4,11.55"/><path class="cls-1" d="M251.5,215s-10-1.18-7-23.5C244.5,191.5,256.5,202.07,251.5,215Z"/><path class="cls-1" d="M260.79,216.46s-10.88,8.14-24.29-10C236.5,206.5,260.5,202.5,260.79,216.46Z"/><path class="cls-1" d="M278.5,227.5s-7-13,0-27a95.51,95.51,0,0,1,8,27"/><path class="cls-1" d="M265.31,208.27s-12.45-7.93-13.18-23.57a95.75,95.75,0,0,1,20.16,19.66"/><path class="cls-1" d="M266.84,198s8.24-9.44,6.31-20.45c0,0-7.26.55-11.9,14"/><path class="cls-1" d="M273.66,213.63s.88-12-3.17-20.14c0,0-2.67-4.35-9.68-6,0,0,2.13,17.33,7.47,26A4.44,4.44,0,0,1,273.66,213.63Z"/><path class="cls-1" d="M251.5,224.5s-7-11-5-21c0,0,13,14,9,21A2.77,2.77,0,0,1,251.5,224.5Z"/><path class="cls-1" d="M268.69,215.56s-4.81-14.82-16.61-18.93c0,0-3.36,8.6,7.3,21.6"/><path class="cls-1" d="M275.45,230c.54-13-5.7-29.88-5.7-29.88-8.24,9.44-3.59,16.25-3.59,16.25"/><path class="cls-1" d="M278,231.21a95.55,95.55,0,0,0-16.85-22.56c-1.72,15.56,9.35,25.33,9.35,25.33"/><path class="cls-1" d="M307.49,277.87c13-.1,23.42-16.48,23.42-16.48-9.46.76-18.27,5.59-18.27,5.59"/><path class="cls-1" d="M287.5,222.5s11-6,13-17c0,0-7-2-16,9"/><path class="cls-1" d="M288.5,239.5s5-11,4-20c0,0-1-5-7-9,0,0-4,17-2,27A4.45,4.45,0,0,1,288.5,239.5Z"/><path class="cls-1" d="M281.5,246.5c5-12-6-28-6-28-3,9-1,20-1,20"/><path class="cls-1" d="M303.2,256.78s13.08-8.48,14-20.94c0,0-9.18-1-19,12.63"/><path class="cls-1" d="M284.5,250.87c-5.49-15.89.64-22.8.64-22.8,9.65,7.94,9,23.52,9,23.52"/><path class="cls-1" d="M295.5,267.5c5-12,5-30,5-30-11,6-9,14-9,14"/><path class="cls-1" d="M289.5,269.5s-7-13,0-27a95.51,95.51,0,0,1,8,27"/><path class="cls-1" d="M298.5,264.5s11-6,13-17c0,0-7-2-16,9"/><path class="cls-1" d="M270.5,251.5s-2-9,8-18c0,0,4,4,1,23"/><path class="cls-1" d="M273.5,259.5s6-15,14-20c0,0,4,21-6,26S273.5,259.5,273.5,259.5Z"/><path class="cls-1" d="M299.32,276.94c9.88-8.45,18-24.52,18-24.52-12.52.39-14.35,8.44-14.35,8.44"/><path class="cls-1" d="M303.57,280.77s10.62-6.66,11.94-17.76c0,0-7.11-1.57-15.42,10"/><path class="cls-1" d="M276.5,279.5s-1-14,7-23l7-7s-1,20.16-4,26.58S276.5,279.5,276.5,279.5Z"/><path class="cls-1" d="M299.5,281.5s5-11,4-20c0,0-1-5-7-9,0,0-4,17-2,27A4.45,4.45,0,0,1,299.5,281.5Z"/><path class="cls-1" d="M292.5,292.5c5-12,5-30,5-30-11,6-11,18-11,18"/><path class="cls-1" d="M284.5,298.5s-7-13,0-27a95.51,95.51,0,0,1,8,27"/><path class="cls-1" d="M272.82,287s-13.32-6.5-14.32-20.5c0,0,14,4,19,18"/><path class="cls-1" d="M272.35,286.5s-6.85-9-2.85-17c0,0,14,9,15.5,25"/><path class="cls-1" d="M286.5,310.5c-1-.24-8-14-8-24,0,0,12,13,13,24C291.5,310.5,290.5,311.5,286.5,310.5Z"/><path class="cls-1" d="M273.5,294.5s-9-1-10-13c0,0,10.54,4.19,16,12"/><path class="cls-1" d="M297.88,285.59s7.87-9.13,16.43-12c0,0,4.95-1.23,11.08,2.42,0,0-13.72,10.78-23.61,13.24A4.34,4.34,0,0,0,297.88,285.59Z"/><path class="cls-1" d="M293.5,293.5s11-6,13-17c0,0-7-2-16,9"/><path class="cls-1" d="M297.36,289.49s9.36-6.35,17.13-1.92c0,0-9.75,13.49-25.81,14.11"/><path class="cls-1" d="M294.5,310.5s5-11,4-20c0,0-1-5-7-9,0,0-4,17-2,27A4.45,4.45,0,0,1,294.5,310.5Z"/><path class="cls-1" d="M268.86,271.5s13.43-17,10.51-26C279.37,245.5,261.27,250.5,268.86,271.5Z"/><path class="cls-1" d="M258,233.5s-6-19.27,0-26.5c0,0,9.64,20.48,4.82,26.5"/><path class="cls-1" d="M264,226s-15.44-2.94-22.5-7.65c0,0,9.41,17.65,17.65,14.12A6.46,6.46,0,0,0,264,226Z"/><path class="cls-1" d="M255.5,233.5s3-14,13-21c0,0,2.25,23.09-2.88,26.05S255.5,233.5,255.5,233.5Z"/><path class="cls-1" d="M261.5,240.5s-3-9-15-10c0,0,3,12,11,15"/><path class="cls-1" d="M259.5,244.5s1-12,14-19c0,0,1,22-4,25S259.5,244.5,259.5,244.5Z"/><path class="cls-1" d="M263.11,250.09c10.22,1.25-6.54-23.43-6.54-23.43a48.07,48.07,0,0,0-.34,16.26s2.13,5.75,5.14,7.12A8,8,0,0,1,263.11,250.09Z"/><path class="cls-1" d="M232.5,148.5a7,7,0,0,1,3.95,2.62"/><path class="cls-1" d="M232.5,160.5s.44,4.57,2.72,5.29"/><path class="cls-1" d="M105.22,43s-2.71-15.35-13.83-21c0,0-4.51,8.06,4.23,22.4"/><path class="cls-1" d="M124.62,43.8c6.88-11-1.38-28.6-1.38-28.6-4.42,8.39-5,18.42-5,18.42"/><path class="cls-1" d="M119.3,42.52s3.15-15.26-5.07-24.67c0,0-7.17,5.82-4.35,22.38"/><path class="cls-1" d="M114,45S111.13,29.67,100,24.1c0,0-4.42,8.11,4.5,22.35"/><path class="cls-1" d="M105.15,56.26s-7.29-19.8-19.63-23c0,0-1.83,12.79,10.9,28.78"/><path class="cls-1" d="M125.73,47.05s-4-11.87-14.51-15.74c0,0-3.17,6.55,6.11,17.31"/><path class="cls-1" d="M129.16,51.51s5.35-11.33.48-21.39c0,0-6.84,2.51-7.62,16.7"/><path class="cls-1" d="M108.94,53.84S104.86,42,94.35,38.19c0,0-3.14,6.57,6.21,17.28"/><path class="cls-1" d="M112.27,66.33s8.79-13,5.94-29.62A86.55,86.55,0,0,0,98.62,68.83"/><path class="cls-1" d="M117.22,83.62S112,66.18,116.13,53.51c0,0,3-6.9,14-10.79,0,0,1.91,25.78-4.13,39.58A8.07,8.07,0,0,0,117.22,83.62Z"/><path class="cls-1" d="M126,63.49s-1.27-7.42,5.76-16.7c0,0,15.77,20.48,18.3,35.33C150.05,82.12,129.51,76.34,126,63.49Z"/><path class="cls-1" d="M102.07,75.19c7.15-10.85-.66-28.63-.66-28.63-4.63,8.28-5.52,18.3-5.52,18.3"/><path class="cls-1" d="M105.94,78.26s-.6-15.58-10.84-22.74c0,0-5.57,7.37,1.15,22.78"/><path class="cls-1" d="M114.4,86.32S105,75.45,103.31,64.88c0,0-.41-6,5.4-12.55,0,0,10.13,18,11,30.06A5.55,5.55,0,0,0,114.4,86.32Z"/><path class="cls-1" d="M78.08,46.21s-5.61-14.54-17.62-18c0,0-2.88,8.78,8.47,21.17"/><path class="cls-1" d="M89.41,49.78S86.52,34.47,75.33,28.9c0,0-4.41,8.11,4.51,22.35"/><path class="cls-1" d="M80.56,59.19s-11-18-23.7-18.84c0,0,.67,12.91,16.25,26.15"/><path class="cls-1" d="M85.1,58.05s-1.52-12.44-11-18.36c0,0-4.44,5.77,2.47,18.19"/><path class="cls-1" d="M91.82,70.55s4.92-14.85-2.35-29.31A88,88,0,0,0,79.4,77.33"/><path class="cls-1" d="M81.19,78.36c4.93-12-6.16-28-6.16-28-3,9-1.89,19-1.89,19"/><path class="cls-1" d="M93.08,81.43s-10.53-9.77-13.36-20.1c0,0-1.06-5.94,4-13.06,0,0,12,16.81,14.16,28.69A5.55,5.55,0,0,0,93.08,81.43Z"/><path class="cls-3" d="M374.5.5c0,4-6.53,11.74-6.53,11.74S372.5,7.5,377.5,5.5c0,0-.09,5-1.54,8"/><path class="cls-3" d="M365.5.5s-4.27,3.13-4.13,6.06"/><path class="cls-3" d="M385.39,22.1A28,28,0,0,0,386.5,9.5s-5.56,3-6.78,4.48"/><path class="cls-3" d="M397.16,12.93S396.5,2.5,392.5.5c0,0-3.46,6.6-5.73,11.8"/><path class="cls-3" d="M377.3,8.19s3.2-3.69,6.2-4.69A7.73,7.73,0,0,1,388.27,9"/><path class="cls-3" d="M381.89,4.26A5.21,5.21,0,0,0,381.5.5"/><path class="cls-1" d="M460.82,60.84S456.5,55.5,457.5,50.5c0,0,5-1.38,6,1.81v8.36Z"/><path class="cls-3" d="M396.21,7S397.5,2.5,400,.5"/><path class="cls-3" d="M404.5.53s1.58,4.35,1.29,7.66"/><path class="cls-3" d="M316.56,11A14.45,14.45,0,0,1,323.23.53"/><path class="cls-3" d="M327.21.5a20.27,20.27,0,0,1,0,7.12"/><path class="cls-3" d="M327.47,13.5a23.45,23.45,0,0,1,7-6,23.44,23.44,0,0,1,1.4,8.89"/><path class="cls-3" d="M331.71,9.28s-1.29-5.72.75-8.75"/><path class="cls-3" d="M338.61.5s2,1,2.46,5"/><path class="cls-1" d="M412,7s2-5.44,5.26-6.47"/><path class="cls-1" d="M416.6,11.81s.9-5.31,2.9-7.31A20.36,20.36,0,0,1,423.88,9"/><path class="cls-1" d="M422.91.53s.59,5.4-.91,6.18"/><path class="cls-3" d="M430.75,10.77C430,7,428.44.53,428.44.53s11.43,5.56,12.25,11.77"/><path class="cls-3" d="M439.06,8.64s.09-6.08,2.76-8.11c0,0,7.83,8,7.26,13"/><path class="cls-3" d="M443.24,18.65s4.26-5.15,9.26-6.15c0,0,2,8.91-.52,11.45"/><path class="cls-3" d="M446.91,7A6.62,6.62,0,0,1,451,.5a27.64,27.64,0,0,1,8.26,7.37"/><path class="cls-3" d="M452.7,35.68s-.2-3.18,4.8-6.18a79.22,79.22,0,0,0,6,10"/><path class="cls-3" d="M452.7,27.17s2.8-9.67,5.8-12.67c0,0,4,3,5,6"/><path class="cls-3" d="M452.5,12.5a12.69,12.69,0,0,1,1-8s9,4.62,10,7.31"/><path class="cls-3" d="M457.35,5.56S460.5,3.5,460.5.5"/><path class="cls-3" d="M311.5.5s6,2,5,10"/><path class="cls-3" d="M307.5.5A8.71,8.71,0,0,0,306.26,8"/><path class="cls-3" d="M297.5.5s3.08,1.19,3,7.59"/><path class="cls-3" d="M292.56,10S290.5,4.5,293.5.5"/><path class="cls-3" d="M278,14.63s-.5-8.13,4.5-11.13c0,0,4,2.51,5,6.75"/><path class="cls-3" d="M273.5.5s4,4,5.19,7.59"/><path class="cls-3" d="M270.5.5s-1,3,3,11"/><path class="cls-3" d="M273.5,11.5s-1-4-7-8c0,0-3.16,3.05-2.08,11.52"/><path class="cls-3" d="M287.72.5a14,14,0,0,1,.34,8.5"/><path class="cls-3" d="M278.5.5A11.82,11.82,0,0,0,280,6"/><path class="cls-3" d="M261.5.5S260,8.47,260.25,14"/><path class="cls-3" d="M264.5.5S267.42,2,268,4.75"/><path class="cls-3" d="M246.64,16.09S247.5,8.5,251.5,4.5a25.17,25.17,0,0,0,4.8,7.66"/><path class="cls-3" d="M258.5,10.5s0-6-4-10"/><path class="cls-3" d="M248.78,8.59S249.5,3.5,241.5.5c0,0-1.89,3-2.95,11"/><path class="cls-3" d="M247.91,4.91S247.5,4.5,249.5.5"/><path class="cls-3" d="M234.44,10.11C234.38,5.72,229.5.5,229.5.5s-7.3,9.19-6.65,15.59"/><path class="cls-3" d="M210.71,12A15.69,15.69,0,0,1,212.86.53"/><path class="cls-3" d="M220.78.53a15,15,0,0,1,4,7.56"/><path class="cls-3" d="M204.5,5.5s.3-2-1.85-5"/><path class="cls-3" d="M197.54.5s-3.89,7.2,1.54,16.6"/><path class="cls-3" d="M186.1,18.82s-1.6-6.32,1.4-11.32c0,0,8,1,10,9"/><path class="cls-3" d="M147.8,21.45s-.3-4.95,4.7-11.95c0,0,4.81,3.64,5.9,9.32"/><path class="cls-3" d="M165.5,18.82s0-8.32,5-13.32c0,0,8.08,10,8,15.48"/><path class="cls-3" d="M176.94,15.48s.56-9,4.56-13c0,0,6,3,6,5"/><path class="cls-3" d="M192.58,9.5s-4.37-5-2.72-9"/><path class="cls-3" d="M173.9.5s2.54,7,4.07,9"/><path class="cls-3" d="M164.32.53s4.13,4,3.65,8.46"/><path class="cls-3" d="M159.16.5s-3.86,3.32-3.26,12.66"/><path class="cls-3" d="M136.69,20.09A21.93,21.93,0,0,1,139.5,6.5a103.26,103.26,0,0,0,9.9,8.4"/><line class="cls-3" x1="156.3" y1="6.5" x2="151.21" y2="0.5"/><path class="cls-3" d="M143.83,10.43a17.39,17.39,0,0,1,.68-9.9"/><path class="cls-3" d="M95.71,25S94.5,14.5,100.5,8.5c0,0,7.38,8.76,10.69,13.88"/><path class="cls-3" d="M117,22s-.5-10.49,5.5-16.49c0,0,5,6.51,6,11.25"/><path class="cls-3" d="M132,15.39s-2.88-7.83.84-14.86c0,0,3.52,2,10.62,7"/><path class="cls-3" d="M107.14,16.75A31.38,31.38,0,0,1,110.5,6.5a58.09,58.09,0,0,1,7.43,7.58"/><path class="cls-3" d="M117.93.5s-1.05,6.86,1.26,9.93"/><path class="cls-3" d="M127.36.5a15.59,15.59,0,0,1,3.78,5"/><path class="cls-3" d="M80.53,32.65s-2-6.15,1-14.15c0,0,6.45,4.4,8.73,8.2"/><path class="cls-3" d="M86.42,22.4S84.5,12.5,88.5,6.5c0,0,6.82,7.9,8.41,8"/><path class="cls-3" d="M93.84,12.19s-2.65-4.63,0-11.66"/><path class="cls-3" d="M101.39.5s6.51,6.86,7.31,9.93"/><path class="cls-3" d="M110.7.5S114.56,5,114,9.76"/><path class="cls-1" d="M63.5,69.5s3-4,2-19c0,0-12,8-13,18"/><path class="cls-3" d="M68.47,32.65s-3-8.15,0-15.15c0,0,8.86,4.15,11.43,8.07"/><path class="cls-3" d="M46.5,63.5a39.53,39.53,0,0,1,8-18s2.2,2,4.6,10"/><path class="cls-3" d="M74.7,21s.8-9.48,4.8-14.48c0,0,5.92,4.9,6.46,8"/><path class="cls-3" d="M85.5.5S82.37,5,82.94,9.76"/><path class="cls-3" d="M77.25,10.43C76,5.36,71.5.5,71.5.5s-8.22,6.61-9.61,13.3"/><path class="cls-3" d="M62.78,29.05S66.5,15.5,69.5,10.5a21.66,21.66,0,0,1,5.85,6.25"/><path class="cls-3" d="M51.22,50.4s-2.72-4.9.28-14.9c0,0,6.46.94,10.23,3"/><path class="cls-1" d="M65.53,20.09s-4-9.59-10-11.59c0,0-4,9-5,13"/><path class="cls-1" d="M50.09,40.81S46.5,31.5,41.5,27.5c0,0-4,6-4,10"/><path class="cls-1" d="M43.13,29.18A54.75,54.75,0,0,1,46.5,19.5s6,2,7,4"/><path class="cls-3" d="M46.37,33.39S55.5,19.5,58.5,17.5c0,0,4.44,5,4.72,10"/><path class="cls-3" d="M.5,45.49a20.55,20.55,0,0,1,8-13s3,4,5,13"/><path class="cls-3" d="M49.5,53.5s0-2-6-9c0,0-4,4-5,8"/><path class="cls-3" d="M46.5,63.5s-9-14-13-17c0,0-4,8-2,13"/><path class="cls-3" d="M35.5,77.5a35.76,35.76,0,0,1,5-17s2.73,3.66,5.87,8.33"/><path class="cls-3" d="M36,48.94A58.26,58.26,0,0,1,42.5,38.5s4.18,3,7.59,6"/><path class="cls-3" d="M9.5,54.5s3-10,8-13a61.31,61.31,0,0,1,5,8"/><path class="cls-3" d="M20.5,54.5a104,104,0,0,1,5-12,42.19,42.19,0,0,1,6.81,6.88"/><path class="cls-3" d="M.5,48.87s3,2.63,6,10.63a20.2,20.2,0,0,1,9-10,18,18,0,0,1,7,9"/><path class="cls-3" d="M20.5,63.5s4-10,6-13c0,0,6,11,7,13"/><path class="cls-3" d="M38.44,64.45c.06,0-2.94-5-2.94-5a79.22,79.22,0,0,1-6,10"/><path class="cls-3" d="M.5,68s2-5.47,6-8.47c0,0,2,1,5,6"/><path class="cls-3" d="M22.5,68.5a67,67,0,0,0-6-11s-7,10-7,15"/><path class="cls-3" d="M39.62,42.5s-3.12-8-6.12-10c0,0-4.29,4-4.65,13"/><path class="cls-3" d="M11.44,38.47s3.06-10,5.06-12c0,0,8.16,9,7.58,19"/><path class="cls-3" d="M22.11,35.5a30.89,30.89,0,0,1,4.39-9s4.36,4.31,5.68,7.66"/><path class="cls-3" d="M64.23,8.5s1.73-5-2.5-8"/><path class="cls-3" d="M30.35,31s1.15-8.5,5.15-12.5c0,0,7.11,4.07,9,7"/><path class="cls-3" d="M58,.5s-1.44,5-.48,9"/><path class="cls-3" d="M.5,31.93s4-10.43,8-14.43c0,0,4.86,8.37,5.93,12.68"/><path class="cls-3" d="M13.5,27.5s2-10,7-14c0,0,10.61,7.15,11.3,11.57"/><path class="cls-3" d="M41.34,22.4S40.5,9.5,44.5,6.5c0,0,7.6,2.9,8.3,8"/><path class="cls-3" d="M28.85,20.41S28.5,11.5,30.5,7.5c0,0,9,3,11,7.5"/><path class="cls-3" d="M5.53,21.5S3.5,14,.5,9.76"/><path class="cls-3" d="M3.52,15.63s4-9.13,8-11.13c0,0,5.93,6.26,7,11.13"/><path class="cls-3" d="M16.82,11.63S19.72.56,24.11.53l5.66,9"/><path class="cls-3" d="M35.15,9.76s-.21-7.2,3.57-9.23"/><path class="cls-3" d="M48.31.5S51,5.63,50.24,10.07"/><path class="cls-3" d="M4.32.53s3.66,3,3.92,7"/><path class="cls-1" d="M52.56,111s8.32-25.3-2.19-39.54c0,0-12.36,10.45-11.77,37.08"/><path class="cls-1" d="M26.15,89.26S18.86,69.46,6.52,66.21c0,0-1.83,12.79,10.9,28.78"/><path class="cls-1" d="M23.27,89.33s8.79-13,5.94-29.62A86.55,86.55,0,0,0,9.62,91.83"/><path class="cls-1" d="M27.22,110.62S22,93.18,26.13,80.51c0,0,3-6.9,14-10.79,0,0,1.91,25.78-4.13,39.58A8.07,8.07,0,0,0,27.22,110.62Z"/><path class="cls-1" d="M34,98.49s-3.49-5,1.51-17c0,0,18,9,22.55,35.62C58.05,117.12,37.51,111.34,34,98.49Z"/><path class="cls-1" d="M23.07,108.19c7.15-10.85-.66-28.63-.66-28.63-4.63,8.28-5.52,18.3-5.52,18.3"/><path class="cls-1" d="M26.37,113.11S28.19,97.63,19.18,89c0,0-6.64,6.42-2.39,22.68"/><path class="cls-1" d="M26.7,119s-2.86-14.08.86-24.11c0,0,2.6-5.45,10.87-8.29,0,0,0,20.68-5.22,31.57A5.55,5.55,0,0,0,26.7,119Z"/><path class="cls-1" d="M13.82,104.55s4.92-14.85-2.35-29.31c0,0-6.77,1.29-8,22.26"/><path class="cls-1" d="M14.08,114.43S3.55,104.66.72,94.33c0,0-1.06-5.94,4-13.06,0,0,12,16.81,14.16,28.69A5.55,5.55,0,0,0,14.08,114.43Z"/><path class="cls-1" d="M44.15,126s8.74-13,5.63-28.87a88.08,88.08,0,0,0-19.41,32.05"/><path class="cls-1" d="M31.81,130.64c8-10.26,1.6-28.59,1.6-28.59-5.27,7.89-6.94,17.8-6.94,17.8"/><path class="cls-1" d="M26.17,123.38c1.27-12.94-13.94-25-13.94-25-.23,9.48,3.66,18.75,3.66,18.75"/><path class="cls-1" d="M32.09,128s-7.79-13.5-20.19-15c0,0-1.49,9.11,11.64,19.6"/><path class="cls-1" d="M35.43,136s.63-15.57-9-23.51c0,0-6.13,6.9-.64,22.79"/><path class="cls-1" d="M43.23,139.7s-7.88-3.53-8.73-14.2c0,0-.57-14.07,5.74-20.13,0,0,8.68,18.76,8.55,30.83A5.57,5.57,0,0,0,43.23,139.7Z"/><path class="cls-1" d="M40.18,145.17s5.23-14.68-1.62-25.13c0,0-7.9,4.77-7.39,21.57"/><path class="cls-1" d="M6.5,124.84c9.13-9.26,4.92-28.21,4.92-28.21-6.15,7.22-9,16.87-9,16.87"/><path class="cls-1" d="M18.58,133.72c-.56-13-17.3-22.82-17.3-22.82A64.42,64.42,0,0,0,5.5,127.5"/><path class="cls-3" d="M.5,73.5S5.5,76,7,80.24"/><path class="cls-1" d="M11.5,136.5s6-9,10-12c0,0,3,11-1,17"/><path class="cls-1" d="M.5,140.5s4.33-13.89,7.25-18c0,0,5.77,13,3.75,20"/><path class="cls-1" d="M.5,120.5s4.36,5.36,4.18,8.18"/><path class="cls-1" d="M37.5,150.5s4-23,11-26c0,0,7,16,3,21"/><path class="cls-1" d="M25.5,143.5c9.42-9,4-19,4-19-7.36,2.77-11.14,16.8-11.14,16.8"/><path class="cls-1" d="M50.09,151s-7.79-13.5-20.19-15c0,0-1.49,9.11,11.64,19.6"/><path class="cls-1" d="M32.17,161.82c7.73-11.19-4.47-28.68-4.47-28.68a52,52,0,0,0-6,16.25"/><path class="cls-1" d="M29.5,159.5s6-9,10-12c0,0,3,11-1,17"/><path class="cls-1" d="M19.8,160s3-10.39,5.95-14.45c0,0,6.16,9.6,4.14,16.52"/><path class="cls-1" d="M9.5,151.5s6.08-11.94,9-16c0,0,5,12.08,3,19"/><path class="cls-1" d="M43.5,166.5c9.42-9,4-19,4-19-7.36,2.77-11.14,16.8-11.14,16.8"/><path class="cls-1" d="M9.86,157.75C18.78,144,3.6,132.52,3.6,132.52-1.18,140.26,2,154.17,2,154.17"/><path class="cls-1" d="M9.5,156.5a24.06,24.06,0,0,0-3-14s-4.87,6.54-6,13"/><path class="cls-1" d="M16.5,169.5s-2-11,0-18c0,0,3,0,6,9"/><path class="cls-1" d="M15.37,162.07S11.5,155.5,5.5,154.5c0,0,0,7,1,9"/><path class="cls-1" d="M.5,169.5s6-7,9-9a22.6,22.6,0,0,1,1,11"/><path class="cls-1" d="M19.5,171.5s1.05-10,6.3-15c0,0,3.15,1,4.2,6"/><path class="cls-1" d="M15.74,174a10,10,0,0,1,3.76-9.54,27.67,27.67,0,0,1,4,14"/><path class="cls-1" d="M6.5,178.5a24.08,24.08,0,0,1,7-10s4,6,2,12"/><path class="cls-1" d="M31.5,176.5s2.24-10,8.62-16c0,0,5.38,7,6.38,13"/><path class="cls-1" d="M25.5,171.5s1-7,8-13l2.86,5.8"/><path class="cls-1" d="M20.5,182.5s2-12,10-15c0,0,5,7,2,13"/><path class="cls-1" d="M33.5,189s2-14,10-17.5c0,0,5,8.17,2,15.17"/><path class="cls-1" d="M6.89,187.5S0,186.08,1.13,169c0,0,8.07,0,10.37,18.5"/><path class="cls-1" d="M9.47,189.5S5.34,183.78,17.72,172c0,0,6,5.45-4.85,20.65"/><path class="cls-1" d="M26.5,188.5s3-14,12-17c0,0,3,11-2,16"/><path class="cls-1" d="M22.5,194.5s-6-6-3-20c0,0,14,9,10,19"/><path class="cls-1" d="M32.36,195.12s1-8.42,13.92-14.67c0,0,1.52,16.58-8.82,19.58"/><path class="cls-1" d="M12.73,197.06A27.6,27.6,0,0,0,24,181.23S7.16,190.57,6.66,195"/><path class="cls-1" d="M4.57,199.13s-6-3.79,1.17-19.34c0,0,7.54,2.86,3.14,21"/><path class="cls-1" d="M8.71,205c4.83-2.93,5.79-21.5,5.79-21.5C5.82,185.45,1,198.16,1,198.16s-1.87,12.45,5.81,9.39"/><path class="cls-1" d="M7.5,213.5s-3-6,1-19c0,0,5,5,6,8"/><path class="cls-1" d="M11.5,212.5s-8-9-11-11v14s1,4,3,4"/><polygon class="cls-4" points="232.5 249.5 46.5 249.5 46.5 63.17 232.5 64.17 232.5 249.5"/><path class="cls-1" d="M295.5,299.5s2-12,8-16c0,0-1,17-3,20Z"/><path class="cls-1" d="M294.5,310.5s2-19,18-21c0,0-13,21-15,23A2.05,2.05,0,0,0,294.5,310.5Z"/><path class="cls-5" d="M234.78,298a61.2,61.2,0,0,0-4.85-5.87c-3.27-3.47-6.9-6.63-9.66-10.51s-4.6-8.74-3.64-13.4c1.51-7.42,9.6-14.71,17.59-12.18,5,1.57,4.51,6.12,4.81,10.9a67.21,67.21,0,0,0,23.7,46.8c6.12,5.11,13.83,9.24,21.73,8.17,1.43-.2,3.21-1.17,2.79-2.54-3.85-4.66-10.8-4.84-16.31-7.32-8.05-3.63-12.71-12.13-15.65-20.45a98,98,0,0,1-4-15c-.32-1.74-1.47-10.4,2.09-10,1.2.13,2.06,1.19,2.78,2.16a21.92,21.92,0,0,1,3.61,6.19c.86,2.74.61,5.71,1.26,8.5a26.44,26.44,0,0,0,2.44,6l4.08,8.13c1.21,2.41,2.57,5,4.95,6.25a10.23,10.23,0,0,0,4.92,1c3.5-.06,7.26-1.19,9.23-4.08a10.33,10.33,0,0,0,1.57-5.57,17.22,17.22,0,0,0-.89-6c-3.22-9.52-14-14.65-17.95-23.9a6.36,6.36,0,0,1-.64-3.49c.32-1.93,1.66-2.44,3.34-2.18,13.73,2.1,30.72,13.1,29.37,28.65-.41,4.67-1.8,9.21-2.14,13.88-.13,1.87.14,4.14,1.84,4.93,2.18,1,6.33-15.22,6.49-16.8.62-5.89,0-13.38-3.11-18.58-2.74-4.55-8.95-7.71-13.33-10.64a201.47,201.47,0,0,0-20.84-11.68c-10.18-5.19-22.59-14.53-33.91-16.51-4.82-.85-9.61,1.39-13.84,3.85-13.21,7.67-27.79,18.85-32.52,34.08-2.21,7.15-1.17,15.82,4.48,20.72,3.18,2.76,7.35,4,11.19,5.73s7.7,4.35,8.92,8.38c.72,2.38.4,4.94.08,7.41-2,15.64-8.75,31.64-8.75,47.42-.05,2.77.2,5.66,1.62,8s4.28,4.09,7,3.42a2.36,2.36,0,0,0,1.59-1.06c.47-.88,0-1.93-.37-2.85-3-7.37.67-15.57,4-22.8,2.46-5.4,4.77-10.89,6.9-16.43,1.08-2.82,1.83-6,3.18-8.69.86-1.71,2.27-3.43,2.92-.09,2.83,14.46-5.64,29-4.38,43.7a13.81,13.81,0,0,0,1.84,6.37,6.47,6.47,0,0,0,5.53,3.19,2.24,2.24,0,0,0,1.59-.62c.84-.94.15-2.39-.44-3.51-3.27-6.22-2.21-13.83,0-20.5s5.51-13,6.6-20C245.21,317.9,241.27,307,234.78,298Z"/><rect class="cls-2" x="0.5" y="330.5" width="266" height="30"/><polygon class="cls-2" points="275.5 379.5 0.5 379.5 0.5 360.5 266.5 360.5 275.5 379.5"/><polygon class="cls-2" points="266.5 330.5 0.5 330.5 46.5 249.5 233.5 249.5 266.5 330.5"/><rect class="cls-2" x="0.5" y="379.5" width="275" height="30"/><polygon class="cls-2" points="291.5 428.5 0.5 428.5 0.5 409.5 275.5 409.5 291.5 428.5"/><polygon class="cls-2" points="302.5 486.5 0.5 486.5 0.5 467.5 291.5 467.5 302.5 486.5"/><rect class="cls-2" x="0.5" y="428.5" width="291" height="39"/><rect class="cls-2" x="0.5" y="486.5" width="302" height="39"/><polygon class="cls-2" points="313.5 544.5 0.5 544.5 0.5 525.5 302.5 525.5 313.5 544.5"/><rect class="cls-2" x="0.5" y="544.5" width="313" height="39"/><polygon class="cls-2" points="324.5 602.5 0.5 602.5 0.5 583.5 313.5 583.5 324.5 602.5"/><rect class="cls-2" x="0.5" y="602.5" width="324" height="39"/><polygon class="cls-2" points="335.5 660.5 0.5 660.5 0.5 641.5 324.5 641.5 335.5 660.5"/><polygon class="cls-2" points="346.5 720.5 0.5 720.5 0.5 699.5 335.5 699.5 346.5 720.5"/><rect class="cls-2" x="0.5" y="660.5" width="335" height="39"/><polygon class="cls-2" points="46.5 197.5 17.5 198 0.5 223.7 0.5 266.4 46.5 197.5"/><path class="cls-1" d="M286.68,322.28s-12.89-17.64-11.05-27.68c0,0,18.49,15.26,16.65,25.3C292.28,319.9,292.87,327.12,286.68,322.28Z"/><path class="cls-1" d="M295.5,316.5s0-10,16-16c0,0-3,13-13,21C298.5,321.5,298.5,317.5,295.5,316.5Z"/><path class="cls-1" d="M296.5,322.5a47.39,47.39,0,0,0-1-30S287,303,293,322.92c.16.52.32,1.05.5,1.58C293.5,324.5,294.5,321.5,296.5,322.5Z"/><path class="cls-1" d="M291.5,323.74s-3.12-6.84-2.56-13c0,0,10.56,1.8,10.56,15.8S291.5,323.74,291.5,323.74Z"/><path class="cls-1" d="M299.52,324.5s0-9,5-16c0,0,5,10,2,21h-5Z"/><path class="cls-1" d="M302.56,331.48S307.13,318.69,324,317c-1.27,1.46-8.08,16.72-17.88,16.07Z"/><path class="cls-1" d="M293.5,334.5s3-17,19-22c0,0-7,18-16,22"/><path class="cls-1" d="M300.31,336.14a33.42,33.42,0,0,1,5.24-14.75s3.95,16.11-2.05,23.11c0,0-8-1-7-4A8.15,8.15,0,0,1,300.31,336.14Z"/><path class="cls-1" d="M301.17,344.58s1-9.84-6.53-21.37c0,0-4.66,14.6.16,21.94a1.91,1.91,0,0,1,2.76-.37C299.11,346,301.17,344.58,301.17,344.58Z"/><path class="cls-1" d="M309.71,329.57s3.75-6.51,9.12-9.66c0,0,4.68,9.64-6.71,17.77S309.71,329.57,309.71,329.57Z"/><path class="cls-1" d="M304.42,352.42S308.07,339,314.09,334c0,0-.67,15.33-1.27,21.82S304.42,352.42,304.42,352.42Z"/><path class="cls-1" d="M303,357s-5.33-12.83-3.64-20.48c0,0,8.86,12.53,12.36,18S303,357,303,357Z"/><path class="cls-1" d="M307,355.06s-5.54-12-18.47-13.85c0,0,13.85,20.32,17.55,19.39S307,355.06,307,355.06Z"/><path class="cls-1" d="M307,355.06s3.7-12.93,15.7-15.7c0,0-8.31,18.47-11.08,21.24s-5.54,0-5.54,0Z"/><path class="cls-1" d="M307,382s-5.33-12.83-3.64-20.48c0,0,8.86,12.53,12.36,18S307,382,307,382Z"/><path class="cls-1" d="M308.42,377.42S312.07,364,318.09,359c0,0-.67,15.33-1.27,21.82S308.42,377.42,308.42,377.42Z"/><path class="cls-1" d="M305.5,385.5s-13-9-15-16c0,0,20,7,24,12S305.5,385.5,305.5,385.5Z"/><path class="cls-1" d="M309.26,385.58s3.24,4.92,6.24,3.92,12-18,11-21C326.5,368.5,313,377.66,309.26,385.58Z"/><path class="cls-1" d="M29.5,202.5s-7.16-8.72,5.22-20.53c0,0,6,5.45-4.85,20.65"/><path class="cls-1" d="M32.5,204.5s7,0,10-11l1-8s-13,13-14,18C29.5,203.5,29.5,205.5,32.5,204.5Z"/><path class="cls-1" d="M21.5,202.5s-9-7-8-17c0,0,13,9,12,16C25.5,201.5,25.5,204.5,21.5,202.5Z"/><path class="cls-1" d="M25.5,205.5s-8-6-2-19c0,0,9,13,5,19C28.5,205.5,26.5,206.5,25.5,205.5Z"/><path class="cls-1" d="M21.5,213.5s-1.44-16.41-10.72-21.21c0,0,1.72,21.21,6.72,23.21S21.5,213.5,21.5,213.5Z"/><path class="cls-1" d="M17.5,213.5s.85-6.5,10.43-14.25c0,0-.43,13.25-5.43,17.25S17.5,213.5,17.5,213.5Z"/><path class="cls-1" d="M19.5,213.5s-6-9-17-10c0,0,7,17,15,16S19.5,213.5,19.5,213.5Z"/><path class="cls-1" d="M11.5,233.5S10.06,217.09.78,212.29c0,0,1.72,21.21,6.72,23.21S11.5,233.5,11.5,233.5Z"/><path class="cls-1" d="M7.5,233.5s.85-6.5,10.43-14.25c0,0-.43,13.25-5.43,17.25S7.5,233.5,7.5,233.5Z"/><path class="cls-1" d="M8.81,237.73A13,13,0,0,1,.5,235.37V223.5Z"/></svg>