<svg id="Layer_1" data-name="Layer 1" xmlns="http://www.w3.org/2000/svg" viewBox="0 0 395 377"><defs><style>.cls-1,.cls-3{fill:#e5ead0;}.cls-1,.cls-2,.cls-3,.cls-4{stroke:#000;stroke-linejoin:round;}.cls-1,.cls-2{stroke-linecap:round;}.cls-2,.cls-4{fill:none;}</style></defs><title>bikeout</title><rect class="cls-1" x="0.21" y="-0.5" width="395.29" height="377.47"/><path class="cls-2" d="M.21,191.93s172.4,122.5,231.35,185"/><path class="cls-2" d="M1.21,71.67s240.29,94,395.29,229.39"/><path class="cls-2" d="M21.5,207.26a101.36,101.36,0,0,0-21,3.24"/><path class="cls-2" d="M.5,216.5s18.69-1.24,27.35-4.62"/><line class="cls-2" x1="16.05" y1="203.31" x2="0.5" y2="205.5"/><path class="cls-2" d="M251.5,196.5c3,0,62.36-16.93,82-19,19-2,62-17,62-17"/><path class="cls-2" d="M243.5,191.5s41.72-9.16,73-16c32-7,79-19,79-19"/><path class="cls-2" d="M259.5,201.5s38.48-10,72-16c35.83-6.43,64.93-17.26,64-15"/><path class="cls-2" d="M.5,224.5s6-1,16-3a137.06,137.06,0,0,1,21.56-2.14"/><path class="cls-2" d="M.5,233.5s37.11-6,44.55-9"/><path class="cls-2" d="M.5,241.5s42.54-6.15,55.27-9.07"/><path class="cls-2" d="M.5,247.5c1.41.83,17.66-1.43,38-5,22.74-4,27.13-2.73,27.13-2.73"/><path class="cls-2" d="M.5,255.5c.79,1.06,5.46-.05,19-3,14.69-3.2,53.78-7,53.78-7"/><path class="cls-2" d="M.5,270.5s27-7,40-11c14.37-4.42,42.67-6.56,42.67-6.56"/><line class="cls-2" x1="0.5" y1="262.5" x2="78.23" y2="249.22"/><path class="cls-2" d="M.5,201.5A90.19,90.19,0,0,0,11,199.66"/><line class="cls-2" x1="5.11" y1="195.43" x2="0.5" y2="196.5"/><path class="cls-2" d="M.5,277.5s15-4,28-7,60.56-13.09,60.56-13.09"/><path class="cls-2" d="M.5,287.5s46-13,61-18,34.22-7,34.22-7"/><path class="cls-2" d="M.5,297.5s10.26-2.75,20-5c13-3,28-11,39-13s42.79-12,42.79-12"/><path class="cls-2" d="M.5,309.5s49-20,65-23,43.28-14,43.28-14"/><path class="cls-2" d="M234.58,186.51s26.92-10,49.92-14,53-17,79-23,32-4,32-4"/><path class="cls-2" d="M267.17,206.34S331.5,193.5,349.5,186.5s46-10,46-10"/><path class="cls-2" d="M395.5,150.5s-137.73,37.84-156.86,38.42"/><path class="cls-2" d="M227.72,182.49s86.78-27,109.78-33,58-11,58-11"/><path class="cls-2" d="M222.09,179.22S278.5,159.5,294.5,155.5s101-24,101-24"/><path class="cls-2" d="M215.41,175.37S280.5,152.5,315.5,143.5s80-20,80-20"/><path class="cls-2" d="M207.89,171.1s70.61-24.6,107.61-34.6,80-21,80-21"/><path class="cls-2" d="M198.3,165.73s78.2-28.23,113.2-35.23,84-23,84-23"/><path class="cls-2" d="M395.5,98.5s-70,21-110,31c-39.29,9.82-93.24,32.88-93.24,32.88"/><path class="cls-2" d="M184.11,157.92S315.5,114.5,344.5,106.5l51-15"/><path class="cls-2" d="M175.63,153.34S240.5,136.5,262.5,127.5s133-41,133-41"/><path class="cls-2" d="M168.33,149.44s31.17-8.94,70.17-20.94,132-50,157-52"/><path class="cls-2" d="M159.28,144.67S330.5,86.5,395.5,72.5"/><path class="cls-2" d="M273.25,210.18S385.5,180.5,395.5,181.5"/><path class="cls-2" d="M278.66,213.63S375.5,193.5,395.5,185.5"/><path class="cls-2" d="M395.5,191.5s-61,14-72,17-40.08,8.2-40.08,8.2"/><path class="cls-2" d="M288.7,220.14s86.8-20.64,106.8-24.64"/><path class="cls-2" d="M295.26,224.46s36.24-8,53.24-14,47-11,47-11"/><path class="cls-2" d="M302.91,229.58S346.5,217.5,369.5,211.5s26-7,26-7"/><path class="cls-2" d="M308.8,233.57s33.7-11.07,52.7-14.07a175.7,175.7,0,0,0,34-9"/><path class="cls-2" d="M315,237.87s28.46-2.37,37.46-6.37,43-16,43-16"/><line class="cls-2" x1="323.5" y1="243.79" x2="395.5" y2="221.5"/><path class="cls-2" d="M395.5,226.5S336.25,241.45,329.37,248"/><path class="cls-2" d="M334.37,251.58S385.5,236.5,395.5,232.5"/><path class="cls-2" d="M.5,318.5s43.66-19.77,112.33-42.88"/><path class="cls-2" d="M.5,326.5s18-8,38-15,79.26-32.06,79.26-32.06"/><path class="cls-2" d="M.5,333.5s113.17-44,127.58-46"/><path class="cls-2" d="M153,307.29C147.5,309.5,84.5,328.5,64.5,333.5s-64,21-64,21"/><path class="cls-2" d="M.5,350.5S124.68,308.44,147.59,303"/><path class="cls-2" d="M140.87,297.6S73.5,320.5,61.5,324.5s-61,17-61,17"/><path class="cls-2" d="M134.07,292.21S48.5,320.5,38.5,324.5s-38,13-38,13"/><path class="cls-2" d="M.5,361.5s50-18,78-24,80.78-25.08,80.78-25.08"/><path class="cls-2" d="M.5,366.5s93-24,125-36S166.08,318,166.08,318"/><path class="cls-2" d="M.5,372.5s46-10,76-20,94.11-30.77,94.11-30.77"/><path class="cls-2" d="M7.5,376.5s80-18,106-28,63.11-21.77,63.11-21.77"/><path class="cls-2" d="M33.5,376.5s89-21,107-29S182,331.26,182,331.26"/><path class="cls-2" d="M60.5,376.5s103.42-29.28,125.71-41.64"/><path class="cls-2" d="M83.5,376.5s50-14,72-21,38.4-14,38.4-14"/><line class="cls-2" x1="102.5" y1="376.5" x2="197.86" y2="344.97"/><path class="cls-2" d="M113.5,376.5s30-7,44-13,45.33-14.11,45.33-14.11"/><path class="cls-2" d="M135.5,376.5s62.92-15.77,71.46-23.38"/><path class="cls-2" d="M213.35,359s-44.85,12.5-54.85,17.5"/><line class="cls-2" x1="171.5" y1="376.5" x2="217.54" y2="362.95"/><path class="cls-2" d="M221.52,366.76c0-.34-25.75,6.27-32.52,10.24"/><line class="cls-2" x1="207.5" y1="376.5" x2="225.34" y2="370.56"/><line class="cls-2" x1="229.44" y1="374.75" x2="221.5" y2="376.5"/><path class="cls-2" d="M339.46,255.3s32-9.8,42-11.8,14-5,14-5"/><line class="cls-2" x1="344.43" y1="258.98" x2="395.5" y2="243.5"/><path class="cls-2" d="M350.56,263.59s14.94-5.09,27.94-8.09,17-6,17-6"/><path class="cls-2" d="M355.27,267.18s25.23-9.68,40.23-12.68"/><path class="cls-2" d="M395.5,260.5s-25,10.35-36,10.17"/><line class="cls-2" x1="367.48" y1="276.93" x2="395.5" y2="267.5"/><path class="cls-2" d="M373,281.37s10.47-1.87,16.47-4.87,6-4,6-4"/><line class="cls-2" x1="378.87" y1="286.13" x2="395.5" y2="280.5"/><path class="cls-2" d="M384.27,290.6s3.23-.1,11.23-4.1"/><line class="cls-2" x1="391.01" y1="296.31" x2="395.5" y2="293.5"/><path class="cls-2" d="M147.84,139.21S211.5,122.5,246.5,108.5s149-44,149-44"/><path class="cls-2" d="M395.5,56.5s-85,27-104,31-149.45,48.75-149.45,48.75"/><path class="cls-2" d="M134.94,132.64S201.5,108.5,231.5,100.5s78-22,111-34,53-19,53-19"/><path class="cls-2" d="M395.5,37.5s-65,18-76,23-90,26-107,30S119,124.71,119,124.71"/><path class="cls-2" d="M129.48,129.9s103-35.4,142-46.4,124-41,124-41"/><path class="cls-2" d="M109.24,119.92S198.5,90.5,213.5,82.5s50-9,68-16,114-37,114-37"/><path class="cls-2" d="M395.5,19.5s-44,18-62,23-116,26-131,34S102,116.43,102,116.43"/><path d="M190.15,172.12l-5.28,7.32c-2.25,3.13-4.6,6.58-4.42,10.43.21,4.63,3.8,8.43,6.54,11.85a68.42,68.42,0,0,1,8.69,13c.72,1.51,1.65,3.3,3.32,3.43a3,3,0,0,0,2.73-1.7,7.72,7.72,0,0,0,.74-3.29c.2-3.29.39-7.58-.69-10.72-1.33-3.86-3.72-7.43-4.06-11.5-.4-4.72,2-9.18,4.6-13.16,3.65-5.64,6.87-9.48,8.5-16"/><rect class="cls-3" x="194.43" y="211.01" width="18.14" height="7.36" rx="0.29" transform="translate(-73.27 110.26) rotate(-25.86)"/><path class="cls-1" d="M236.58,195.71c-20.67,0-37.42,25.14-37.42,56.14S215.91,308,236.58,308,274,282.84,274,251.85,257.24,195.71,236.58,195.71Zm-.89,107.09c-18.8,0-34-22.86-34-51s15.23-51,34-51,34,22.86,34,51S254.48,302.8,235.69,302.8Z"/><path class="cls-1" d="M198.86,237.92l34,11.57-28.35-69a14.39,14.39,0,0,0,3-2c1-1,30,73,30,73l-3,2-36-12-32-63,3-1,27,54,4.16-51,2.84-3Z"/><path class="cls-1" d="M141.58,162c-16.53,0-29.92,20.1-29.92,44.89s13.39,44.88,29.92,44.88,29.92-20.1,29.92-44.88S158.1,162,141.58,162Zm-.71,85.63c-15,0-27.21-18.28-27.21-40.81S125.84,166,140.87,166s27.2,18.28,27.2,40.82S155.89,247.59,140.87,247.59Z"/><polyline class="cls-1" points="205.54 174.5 203.5 177.5 160.5 161.5 169.5 177.5 166.5 178.5 156.87 161.72 142.5 205.5 138.89 205.26 162.03 131.5 165.5 129.5 159.03 156.83 205.54 174.5"/><path class="cls-1" d="M195.3,131.71v-6l-12.09-6L122.75,143.8l18.14,6v6.05s-.39,1.6,1.61,1.6a2,2,0,0,0,2-2v-9l-10.95-3.17L180.5,125.5Z"/><path class="cls-1" d="M182.43,169.05l12.11-5.69a8.1,8.1,0,0,1,4.3-.66l27.44,3.23c5.84.68,7.25,6.45,2.11,8.62l-21.15,8.95a8.27,8.27,0,0,1-5.76.16l-18.39-6.49C178.65,175.61,178.27,171,182.43,169.05Z"/><path d="M227.49,154.29a11.88,11.88,0,0,1-1.4,3.91c-1.06,1.82-2.88,2.75-4.34,4.21-4.45,4.46-9,7.81-15.07,9.72a53.79,53.79,0,0,1-12.85,2.2c-3.58.22-7.07-.57-10.47.63-7.15,2.53-12.69,8.23-17.83,13.57a1.94,1.94,0,0,0-.47,2.74c2.78,6.15,6.65,12.51,8.82,18.82s.63,15.72.53,22.4a14.5,14.5,0,0,1-.69,5,4.87,4.87,0,0,1-3.64,3.23,4.69,4.69,0,0,1-4.27-2.17,10.29,10.29,0,0,1-1.49-4.77c-.35-3.28-.09-6.6-.46-9.88-1-8.8-4.54-16-9.55-23.07-2.76-3.91-5.3-8.36-5.07-13.14.25-5.3,3.86-9.81,7.57-13.61a108.85,108.85,0,0,1,16.42-13.8c3.69-2.52,8-4,11.6-6.65,5.07-3.8,4.11-8,1.92-13.53-.56-1.4-1.35-2.89-2.78-3.36-2.31-.78-4.42,1.49-5.91,3.42a66.17,66.17,0,0,1-11.38,11.49,10.68,10.68,0,0,1-3.84,2.19c-4.73,1.24-8.82-3.42-13.51-4.82-2.65-.79-17.36.44-11.87-6.08a7.16,7.16,0,0,1,4.17-2.16c3.4-.65,6.89.07,10.34.44s7.18.32,10-1.63c5.34-3.63,5.13-11.8,9.43-16.63,3.45-3.87,9.14-4.89,13.11-8.23a4.47,4.47,0,0,0,1.8-2.77,4.32,4.32,0,0,0-.42-2.14,11.61,11.61,0,0,0-5.58-5.85c-6.95-3.33-16,.79-22.6-3.16-4.45-2.66-6.34-8.59-5-13.59s5.55-8.93,10.37-10.81c5.79-2.26,16.63-3,21.61,1.64,5.69,5.31,6.87,14.37,9.73,21.22a13.92,13.92,0,0,0,3.88,5.77,16.56,16.56,0,0,0,4.66,2.28c4,1.46,11.36,2.61,14.2,5.81,7.72,8.68,8.07,24.68,10.18,35.3A15.79,15.79,0,0,1,227.49,154.29Z"/><ellipse class="cls-4" cx="192.26" cy="229.45" rx="6.05" ry="12.09"/><polyline class="cls-4" points="168.07 241.54 192.26 229.45 195.55 219.31"/><rect class="cls-3" x="157.01" y="239.98" width="18.14" height="7.36" rx="0.29" transform="translate(-89.65 96.84) rotate(-25.86)"/><path class="cls-2" d="M93.31,112.27S191.5,72.5,262.5,54.5s133-40.3,133-40.3"/><path class="cls-2" d="M395.52,8.25s-47,14.25-84,26.25-188,55.17-226,74.08"/><path class="cls-2" d="M75.71,104S236.5,49.5,287.5,37.5s108-38,108-38"/><path class="cls-2" d="M65.63,98.5s128.87-38,149.87-47,166-52,166-52"/><path class="cls-2" d="M362.44-.5c-3.94,0-71.94,19-96.94,30S59,96.37,59,96.37"/><path class="cls-1" d="M51.4,93S178.5,50.5,215.5,40.5s124-41,124-41"/><path class="cls-1" d="M41.83,88.75S146.5,48.5,200.5,37.5,321.69-.5,321.69-.5"/><path class="cls-1" d="M30.4,83.79S98.5,63.5,119.5,56.5s186-57,186-57"/><path class="cls-1" d="M19.28,79.07S119.5,46.5,140.5,41.5s72-16,87-22,55.92-20,55.92-20"/><path class="cls-1" d="M264.81-.5s-48.31,10-64.31,18-77,21-94,27-93.38,32-93.38,32"/><path class="cls-1" d="M5.75,73.48s138.75-52,171.75-59,50.22-15,50.22-15"/><path class="cls-1" d="M.5,67.5s176.08-61,205-68"/><path class="cls-1" d="M.21,60.34S42.5,40.5,69.5,33.5,181.76-.5,181.76-.5"/><path class="cls-1" d="M.5,54s42-16.52,58-24.52S162-.5,162-.5"/><path class="cls-1" d="M140.87-.5s-55.37,17-95.37,30-45,18-45,18"/><path class="cls-1" d="M.21,38.49S102.72,6.5,122.5-.5"/><path class="cls-1" d="M.21,29.5s44.29-10,58.29-15S107-.5,107-.5"/><path class="cls-1" d="M81.26-.5S26.92,14.5.21,23.5"/><path class="cls-1" d="M61.36-.5S8.92,6.5.21,14.5"/><line class="cls-1" x1="25.51" y1="-0.5" x2="0.21" y2="8.25"/></svg>