<?xml version="1.0" encoding="utf-8"?>
<!-- Generator: Adobe Illustrator 23.0.0, SVG Export Plug-In . SVG Version: 6.00 Build 0)  -->
<svg version="1.1" id="Layer_1" xmlns="http://www.w3.org/2000/svg" xmlns:xlink="http://www.w3.org/1999/xlink" x="0px" y="0px"
	 viewBox="0 0 691 691.5" style="enable-background:new 0 0 691 691.5;" xml:space="preserve">
<style type="text/css">
	.st0{fill:#F4F1CE;stroke:#000000;stroke-linejoin:round;}
	.st1{fill:none;stroke:#000000;stroke-linejoin:round;}
</style>
<title>room</title>
<rect x="0.5" y="0.5" class="st0" width="690" height="690.5"/>
<rect x="469.4" y="372.4" class="st1" width="118" height="178"/>
<line class="st1" x1="0.9" y1="550.4" x2="690.9" y2="550.4"/>
<line class="st1" x1="0.9" y1="146.4" x2="690.9" y2="146.4"/>
<path class="st1" d="M690.4,541.8c-5.8,5.8-12.4,7.5-21.3,7.5c-17.8,0-32.2-14.4-32.2-32.2c0-17.8,14.4-32.2,32.2-32.2
	c7.9,0,15.5,2.9,21.4,8.2"/>
<rect x="469.4" y="579.4" class="st1" width="118" height="46"/>
<rect x="338.4" y="482.5" class="st1" width="67.5" height="67.9"/>
<rect x="664.4" y="461.4" class="st1" width="26" height="16"/>
<rect x="35.4" y="337.4" class="st1" width="129" height="213"/>
<line class="st1" x1="35.9" y1="414.4" x2="164.9" y2="414.4"/>
<line class="st1" x1="35.9" y1="479.4" x2="164.9" y2="479.4"/>
<rect x="347.7" y="444.9" class="st1" width="20.7" height="37"/>
<circle class="st1" cx="259.9" cy="372.9" r="36.5"/>
<circle class="st1" cx="357.9" cy="422.9" r="10.5"/>
<line class="st1" x1="577.4" y1="454.4" x2="577.4" y2="473.4"/>
<rect x="47.4" y="389.4" class="st1" width="9" height="25"/>
<rect x="35.4" y="382.4" class="st1" width="12" height="32"/>
<rect x="127.4" y="446.4" class="st1" width="6" height="33"/>
<rect x="114.4" y="452.4" class="st1" width="13" height="27"/>
<rect x="82.4" y="452.4" class="st1" width="8" height="27"/>
<rect x="74.4" y="446.4" class="st1" width="8" height="33"/>
<rect x="66.4" y="446.4" class="st1" width="8" height="33"/>
<rect x="54.4" y="440.4" class="st1" width="12" height="39"/>
<rect x="44.4" y="443.4" class="st1" width="10" height="36"/>
<rect x="35.4" y="443.4" class="st1" width="9" height="36"/>
<rect x="104.4" y="449.4" class="st1" width="10" height="30"/>
<rect x="90.4" y="446.4" class="st1" width="14" height="33"/>
<rect x="53.2" y="522.4" class="st1" width="12.7" height="28"/>
<rect x="66.4" y="516.4" class="st1" width="14" height="34"/>
<rect x="119.4" y="504.4" class="st1" width="10" height="46"/>
<rect x="129.4" y="519.4" class="st1" width="9" height="31"/>
<rect x="138.4" y="514.4" class="st1" width="12" height="36"/>
<rect x="150.4" y="511.4" class="st1" width="14" height="39"/>
<rect x="35.4" y="519.4" class="st1" width="17.8" height="31"/>
<rect x="144.4" y="438.4" class="st1" width="9" height="41"/>
<rect x="153.4" y="450.4" class="st1" width="11" height="29"/>
<rect x="81.4" y="389.4" class="st1" width="17" height="25"/>
<rect x="98.4" y="384.4" class="st1" width="9" height="30"/>
<rect x="107.4" y="387.4" class="st1" width="9" height="27"/>
<rect x="129.4" y="384.4" class="st1" width="14" height="30"/>
<rect x="116.4" y="389.4" class="st1" width="13" height="25"/>
<rect x="143.4" y="380.4" class="st1" width="8.4" height="34"/>
<rect x="151.8" y="380.4" class="st1" width="12.6" height="34"/>
<polyline class="st1" points="278.3,365.8 262.2,371.4 240.5,378.9 "/>
<line class="st1" x1="191.4" y1="145.4" x2="191.4" y2="550.4"/>
</svg>
