<svg id="Layer_1" data-name="Layer 1" xmlns="http://www.w3.org/2000/svg" viewBox="0 0 691.03 691.5"><defs><style>.cls-1{fill:#f4f1ce;}.cls-1,.cls-2,.cls-3{stroke:#000;stroke-linejoin:round;}.cls-2{fill:none;}.cls-3{fill:#fff;}</style></defs><title>room</title><rect class="cls-1" x="0.5" y="0.5" width="690.03" height="690.5"/><rect class="cls-2" x="469.42" y="372.37" width="118" height="178"/><line class="cls-2" x1="0.92" y1="550.37" x2="690.92" y2="550.37"/><line class="cls-2" x1="0.92" y1="146.37" x2="690.92" y2="146.37"/><path class="cls-2" d="M690.44,541.84c-5.83,5.83-12.44,7.53-21.33,7.53a32.2,32.2,0,1,1,21.43-56.23"/><rect class="cls-2" x="469.42" y="579.37" width="118" height="46"/><rect class="cls-2" x="338.42" y="482.52" width="67.5" height="67.85"/><rect class="cls-2" x="664.42" y="461.37" width="26" height="16"/><rect class="cls-2" x="35.42" y="337.37" width="129" height="213"/><line class="cls-2" x1="35.92" y1="414.37" x2="164.92" y2="414.37"/><line class="cls-2" x1="35.92" y1="479.37" x2="164.92" y2="479.37"/><rect class="cls-2" x="347.69" y="444.87" width="20.73" height="37.04"/><circle class="cls-2" cx="259.92" cy="372.87" r="36.5"/><circle class="cls-2" cx="357.92" cy="422.87" r="10.5"/><line class="cls-2" x1="577.42" y1="454.37" x2="577.42" y2="473.37"/><rect class="cls-2" x="47.42" y="389.37" width="9" height="25"/><rect class="cls-2" x="35.42" y="382.37" width="12" height="32"/><rect class="cls-2" x="127.42" y="446.37" width="12" height="33"/><rect class="cls-2" x="114.42" y="452.37" width="13" height="27"/><rect class="cls-2" x="82.42" y="452.37" width="8" height="27"/><rect class="cls-2" x="74.42" y="446.37" width="8" height="33"/><rect class="cls-2" x="66.42" y="446.37" width="8" height="33"/><rect class="cls-2" x="54.42" y="440.37" width="12" height="39"/><rect class="cls-2" x="44.42" y="443.37" width="10" height="36"/><rect class="cls-2" x="35.42" y="443.37" width="9" height="36"/><rect class="cls-2" x="104.42" y="449.37" width="10" height="30"/><rect class="cls-2" x="90.42" y="446.37" width="14" height="33"/><rect class="cls-2" x="53.21" y="522.37" width="12.71" height="28"/><rect class="cls-2" x="66.42" y="516.37" width="14" height="34"/><rect class="cls-2" x="119.42" y="504.37" width="10" height="46"/><rect class="cls-2" x="129.42" y="519.37" width="9" height="31"/><rect class="cls-2" x="138.42" y="514.37" width="12" height="36"/><rect class="cls-2" x="150.42" y="511.37" width="14" height="39"/><rect class="cls-2" x="35.42" y="519.37" width="17.79" height="31"/><rect class="cls-2" x="144.42" y="438.37" width="9" height="41"/><rect class="cls-2" x="153.42" y="450.37" width="11" height="29"/><rect class="cls-2" x="81.42" y="389.37" width="17" height="25"/><rect class="cls-2" x="98.42" y="384.37" width="9" height="30"/><rect class="cls-2" x="107.42" y="387.37" width="9" height="27"/><rect class="cls-2" x="129.42" y="384.37" width="14" height="30"/><rect class="cls-2" x="116.42" y="389.37" width="13" height="25"/><rect class="cls-2" x="143.42" y="380.37" width="8.39" height="34"/><rect class="cls-2" x="151.81" y="380.37" width="12.61" height="34"/><rect class="cls-3" x="56.42" y="377.37" width="25" height="37"/><rect class="cls-3" x="133.42" y="434.37" width="11" height="45"/><rect class="cls-3" x="80.42" y="510.37" width="39" height="40" transform="translate(199.84 1060.74) rotate(180)"/><polyline class="cls-2" points="278.31 365.81 262.25 371.39 240.52 378.93"/><line class="cls-2" x1="191.42" y1="145.37" x2="191.42" y2="550.37"/></svg>