<svg id="Layer_1" data-name="Layer 1" xmlns="http://www.w3.org/2000/svg" viewBox="0 0 396.29 378.47"><defs><style>.cls-1{fill:#fff;}.cls-1,.cls-2,.cls-3{stroke:#000;stroke-linejoin:round;}.cls-2{fill:#f4f1ce;}.cls-3{fill:none;}</style></defs><title>room</title><rect class="cls-1" x="0.5" y="0.5" width="395.29" height="377.47"/><rect class="cls-2" x="0.5" y="0.5" width="395.29" height="377.47"/><rect class="cls-2" x="85.79" y="73.5" width="225" height="225"/><line class="cls-2" x1="85.79" y1="265.5" x2="310.79" y2="202.5"/><circle class="cls-3" cx="251.79" cy="115.5" r="21"/><polygon class="cls-2" points="86.12 148.07 138.09 133.26 168.41 242.71 104.11 260.52 86.12 195.47 86.12 148.07"/><line class="cls-3" x1="232.79" y1="123.5" x2="142.79" y2="149.5"/><line class="cls-3" x1="217.83" y1="147.4" x2="310.79" y2="122.5"/><line class="cls-3" x1="230.29" y1="86.5" x2="272.29" y2="86.5"/><line class="cls-3" x1="299.79" y1="86.5" x2="299.79" y2="125.45"/><polyline class="cls-3" points="119.79 101.5 158.06 90.79 168.65 126.63"/><rect class="cls-3" x="232.8" y="212.51" width="17.98" height="17.98" rx="8.99" transform="translate(143.14 -91.22) rotate(30)"/><path d="M197.42,233.93a1.66,1.66,0,0,1-.94-.54,7,7,0,0,1-.93-2.44,64.5,64.5,0,0,1-1.63-7.26c-.77-4.24-1.21-8.54-2-12.77-.95-5-.69-16.63-5.24-20a23.83,23.83,0,0,0-4.26,15,4.69,4.69,0,0,1-.28,2.53c-.42.76-1.57,1.16-2.15.52-3-3.27-.56-16.23.81-20.17,2.21-6.34,7.34-11.44,13.1-14.68a3,3,0,0,0,1.19-.95c1-1.62-1.47-3-3-4.21-1.85-1.51-2.93-5.63-1.45-7.75,1.61-2.31,6-1.24,7.65.37a6.69,6.69,0,0,1,.87,8.09c-.89,1.43-1.63,2.08-.19,3.29a10.74,10.74,0,0,0,3.64,1.78c2.72.89,5.72,1.27,8.06,3.05,2.93,2.25,3.91,6.19,5,9.51a40.77,40.77,0,0,1,1.44,6.84c.11.72,1.09,6.72.49,7a1.63,1.63,0,0,1-1.84-.7,4.83,4.83,0,0,1-.63-2c-.73-4.39-1.79-8.9-4.55-12.4a2.25,2.25,0,0,0-3.86.07c-1.07,1.52-.6,4.12-.35,5.81a92.51,92.51,0,0,0,4,16.48c1.08,3.13,2.32,6.2,3.29,9.37.76,2.48,2.4,6.69,1.73,9.27a1.67,1.67,0,0,1-3.06.7,5.08,5.08,0,0,1-.84-1.77c-1.16-3.68-1.85-7.57-3.68-11-1-1.94-2.51-5.22-4.84-5.88-3.51-1-3.54,5-3.47,7.11l.47,13.11a7,7,0,0,1-.37,3.15A2.29,2.29,0,0,1,197.42,233.93Z"/></svg>