<svg id="Layer_1" data-name="Layer 1" xmlns="http://www.w3.org/2000/svg" xmlns:xlink="http://www.w3.org/1999/xlink" viewBox="0 0 691.03 691.5"><defs><style>.cls-1,.cls-12,.cls-13,.cls-6{fill:#e5ead0;}.cls-1,.cls-10,.cls-11,.cls-12,.cls-13,.cls-2,.cls-3,.cls-4,.cls-5,.cls-8,.cls-9{stroke:#000;}.cls-1,.cls-8,.cls-9{stroke-miterlimit:10;}.cls-11,.cls-2{fill:#f4f1ce;}.cls-10,.cls-11,.cls-12,.cls-13,.cls-2,.cls-3,.cls-4,.cls-5{stroke-linejoin:round;}.cls-3{fill:#fff;}.cls-4,.cls-5,.cls-8{fill:none;}.cls-11,.cls-13,.cls-5{stroke-linecap:round;}.cls-7{clip-path:url(#clip-path);}.cls-9{fill:#c1e8c5;}.cls-10{fill:#efd9ce;}</style><clipPath id="clip-path"><rect class="cls-1" x="259.51" y="116.5" width="430.91" height="430.37"/></clipPath></defs><title>room</title><rect class="cls-2" x="0.5" y="0.5" width="690.03" height="690.5"/><line class="cls-3" x1="258.42" y1="546.37" x2="-1.58" y2="691.37"/><line class="cls-3" x1="258.42" y1="116.37" x2="-1.58" y2="0.37"/><polyline class="cls-4" points="34.39 671.81 34.39 458.37 106.42 440.37 106.42 631.74"/><line class="cls-5" x1="42.42" y1="563.37" x2="42.42" y2="577.37"/><rect class="cls-6" x="259.51" y="116.5" width="430.91" height="430.37"/><g class="cls-7"><path class="cls-6" d="M301.4,191.11c-61.85,0-84.81-62.25-88.63-99-1.65-15.86,13.27-39,38-59C278.46,10.78,313.41-4,346.67-7.47a128,128,0,0,1,13.16-.71c40.7,0,62.27,21.46,89.58,48.64C463.76,54.72,480,70.9,501.24,85.63a6.59,6.59,0,0,1,2.82,7.77C500.84,106,471.76,128,430,149.48c-43.21,22.26-88.5,38-118.18,41.08A100.19,100.19,0,0,1,301.4,191.11Z"/><path d="M359.83-7.68c40.49,0,62,21.4,89.23,48.49C463.42,55.09,479.69,71.28,501,86a6.15,6.15,0,0,1,2.62,7.24c-3.19,12.42-32.17,34.3-73.82,55.76-43.17,22.23-88.39,38-118,41a101.66,101.66,0,0,1-10.34.54c-15.1,0-28.77-3.71-40.62-11-10.16-6.27-19.07-15.23-26.5-26.62C218.07,128.08,214.1,100,213.27,92c-1.63-15.7,13.21-38.67,37.82-58.52C278.7,11.23,313.56-3.53,346.72-7a126.86,126.86,0,0,1,13.11-.71h0m0-1A127.57,127.57,0,0,0,346.62-8C272.7-.29,208.89,59.52,212.27,92.13c3.22,31,23.53,99.48,89.13,99.48a102.46,102.46,0,0,0,10.45-.55c73.91-7.67,216.61-87.15,189.68-105.84-60.51-42-78.74-93.9-141.7-93.9Z"/><path class="cls-1" d="M255.13,358.22c4.55-.68,6.64-1.17,10.45-1.91l15.07-33c-81.55-25.3-155.54,2-159.51-36.29-4.14-39.88,64.37-179.24,150-148.8,72.71,25.84,127.06,49.92,165.25,80"/><path class="cls-1" d="M271,355.43c50.11-10.37,33-24.75,33-24.75a124.36,124.36,0,0,1-13.24-4q-2.31-.84-4.62-1.62Z"/><path class="cls-1" d="M343.74,350.76s-8.14,3.31-25.66,16.68c-2.19,1.68-7.09,6.89-5.86,4.89,0-.08-51.6,8.43-56.08,5.75s-4.16.43-.43-4.16c2.72-3.35,16-14.57,16-14.57,25-5.22,70.12-14.63,77.49-16.15"/><path class="cls-1" d="M405.22,192.4S432,154.3,451,124.61s74.51-91.9,130.41-110,91.21-12,100.44-4L697,156.25"/><path class="cls-1" d="M356.2,332.68a137.05,137.05,0,0,1-42.83-.09,10.73,10.73,0,0,1-.12,10.14s29.95-2.06,39.42-4.09"/><path class="cls-8" d="M458.27,435c31.17-.06,62.1-1.35,62.1-1.35s54.11-1.39,55.08-14.11c.56-7.39,3.29-14.13,41.18-20.05,60-9.38-5.24-10-12.73-11.29s-28.39-.2,18.85-20.87,50.09-33.56,37.26-45.89-87.57-3.52-66.94-47.68-21.39-74.48-59-72.67-98,17.52-98,17.52-13.8-21.68-15.81-30.92a60.19,60.19,0,0,1-1.59-15.33"/><path class="cls-8" d="M458.27,435h-1.38s14.15-10.95,24.44-13.07,20.46-5.28,26.59-7a47.67,47.67,0,0,0,12.29-6c25.36,7.2,45.61,1.47,53.48-8.22,9.31-11.47-5.17-19.42,14.54-32s57.48-33.29,37.69-41.74-33.87,7.72-77.48,22.75-64.94-68.9-55.8-71.95,19.07,11.68,19.07,11.68c9.83,13.69,25.11,39.42,25.11,39.42,15.67,19.38,55.58-11,47.73-26s-8.22-28.57-6.11-48.75-3.89-37.42-43.21-41.74-107.55,12.89-107.55,12.89"/><path class="cls-8" d="M310.27,393.47c3.16,10.18,26.89,16.12,58.18,13.92,60.54-4.25,93.22-12.83,96.27-3.69s-84.33,27.67-48.34,30.23c9,.64,19.9.95,31.28,1,0,0,20.87-14.85,38.32-18.77a197.36,197.36,0,0,0,29.21-8.76c-3.11-1.07-6.27-2.32-9.5-3.79-24.48-13.22-28.72-33.79-68.93-26.46-9.25,2-55.84,28.91-71.29,11.6a40.65,40.65,0,0,1-4-9.82S330,391.42,310.27,393.47Z"/><path class="cls-8" d="M329.71,160.37l19,24.23s17.62,30.74,12.9,45.94S338.21,247.68,328.36,254s-7.24,11.26-7,23.84,32,45,32,45l8.24-1c2,19.63,11.63,31.6,11.63,31.6-5,2.41-8.53,9-10.25,11.45s-2.37,7.6-2.32,8.41c-11.79,8.33-52,15.09-52,15.09-1.18-11.43,24.55-26.71,24.55-26.71,34.5-31.95,28.61-57.7,59.1-98.59,33.56-45,111.77-103,173.55-109.43,51.61-5.35,113.24,28.17,135.73,62.61q1.85,2.82,3.73,5.51"/><path class="cls-4" d="M255.08,362.82s2.33-.71,9.24-2.15c0,0-31.65,24.05-17,23.57s60.89-7.83,60.89-7.83c-8.12,9.27-8,16.93-2.61,22.8,7.1,7.66,28.86,14.86,53,14.46s82.11-8.53,89.71-6.16-23.26,8.71-37.49,13.34-24,11.95-12.93,17.11,30.87,3.36,111.47,1c70.18-2,71.67-14.32,71.67-14.32a47.18,47.18,0,0,0,8.15,3.93c15.31,5.77,71.94-5.36,94.81-7.74,13.45-1.39,27.92,0,48.86,1.09"/><path class="cls-8" d="M720.12,338.84c-3.49,2.43-20.45,16.78-24.83,18.86-31.74,15.05-53,7.32-53,7.32-15.2,8-30.72,13.79-32.76,16.3s9.75,3.81,21.52,4.8c0,0,46.58-17.1,85.79-18.57"/><path class="cls-8" d="M670.62,185.86s-14.9-37.33-10.93-59.8,29.8-36.72,38.4-45"/><path class="cls-8" d="M652.07,174.13s-13.74-31.15-5.61-54,17.16-27,28.23-41.81c5.19-6.94,12.63-12.27,21.44-16.11"/><path class="cls-8" d="M626.45,162.6s-4.51-35.78,4.94-66.18,14.22-35.09,34.26-44.53c9.06-4.27,16.62-8.59,23.05-12"/><path class="cls-8" d="M616.6,158.9s-2.43-61.74,14.21-86.05,25.55-29.45,36.55-34.79c6.28-3.05,15.33-5.88,25.45-7.86"/><path class="cls-8" d="M693.59,43.75c-8.4,3.84-17.13,9-27.3,14.38-14.94,7.86-23.54,16.1-31.52,50.55s-.52,55.74-.52,55.74c-11.07,14.81,39.6,77.84,31.8,103.86s-36.25,37.39-36.25,37.39C616.14,302.12,600.87,297,598,291.1a12.7,12.7,0,0,1-1.29-6.42s8.78,7.75,24.77-.22,10.77-37.89,10.77-37.89-10.19-27.31-27.5-42.32-15.85-11-15-22.61,2.58-27.58,2.58-27.58"/><path class="cls-8" d="M610.36,156.92s-2.51-44.39,11-76.26S650.73,39.78,665.89,34a170,170,0,0,1,22-6.12"/><path class="cls-8" d="M696.33,15.33s-32.06,3.09-52.59,17.83C623.92,47.38,616.9,58,607.6,100s-6.37,55.9-6.37,55.9"/><path class="cls-8" d="M687.87,11.24c-4.28,1-26.33,1.16-44.67,16.72S614.5,55.1,611.31,64.89s-16.66,62.18-15.86,75,0,14.95,0,14.95"/><path class="cls-8" d="M672.55,7.05s-42.23-1.92-62.79,32.79c-17.15,29-34.31,70.91-32,94.78l4,18.44"/><path class="cls-8" d="M663.91,4.79S631.15,3,611.67,27.87C591.25,54,568,109.49,570.29,133.61l4,19.7"/><path class="cls-8" d="M555.5,154.73s-3.24-31.18,4.57-57.2,11.53-30.62,16.58-42.7,16-40,40.74-48.62"/><path class="cls-8" d="M548.33,156.53S547,92.58,556,68.53s26.23-45.8,41.47-58.41"/><path class="cls-8" d="M588.12,12.15s-23.7,26.09-33.91,49.21-10.33,72.52-10.33,72.52l.4,24.12"/><path class="cls-8" d="M533.06,161.27s-11-45.09-6.69-64.45,8.63-28.21,11.82-38S559,24.62,559,24.62"/><path class="cls-8" d="M538.75,36.44S523.53,59.29,520,85.93s-.17,38.89-.23,48.35S528,162.84,528,162.84"/><path class="cls-8" d="M523,165.46s-7.57-22.33-8.65-32.72-.87-38.78,2-51.69,14.1-38.76,14.1-38.76"/><path class="cls-8" d="M517.39,52.49s-19.12,36.74-14.52,70.94,12.52,44.75,12.52,44.75"/><path class="cls-8" d="M499,175.83s-12.28-25.52-10.17-45.7,4.48-54.92,4.48-54.92"/><path class="cls-8" d="M487.94,80.85s-1.53,35.88-5.93,54.2,12.89,43.14,12.89,43.14"/><path class="cls-8" d="M476.25,94.68s-4.24,35.1-1.69,49.54,12.33,37.86,12.33,37.86,13.38-2.7,19.3-6.47,4-5.66,4-5.66-11.36-25.09-11.44-46.09-3.5-28.65,10.38-64.44"/><path class="cls-8" d="M470.18,102.92s-3,30.52-.6,43.92,13.33,37.76,13.33,37.76"/><path class="cls-8" d="M459.07,116.42s.33,33.58,5,47.81a118.38,118.38,0,0,0,11.66,25.05"/><path class="cls-8" d="M455.5,121.25s-1.3,29.29,3.33,43.52a112.78,112.78,0,0,0,13.26,26.46"/><path class="cls-8" d="M446.64,132.94s-.53,30,4.42,42.59a91.56,91.56,0,0,0,12.76,22.07"/><path class="cls-8" d="M442.6,139.31s-2.37,25.39,2.53,37.57,14.47,22.51,14.47,22.51,53.51-7.69,71.14-20,7.41-19.68,7.41-19.68-12.35-48.1-5-68.82,15.65-41.55,21.95-51.66S573.8,17.3,573.8,17.3"/><path class="cls-8" d="M433.31,151.66s1.44,24,5.53,33.05,11,22.23,11,22.23"/><path class="cls-8" d="M428.54,158.85s2.48,21.41,5.32,28.47,11.85,23.07,11.85,23.07"/><path class="cls-8" d="M411.2,184.16c1.62,8,10.05,23.38,10.05,23.38s4.62,13.62-.12,23.87"/><path class="cls-8" d="M408.41,187.6A55.86,55.86,0,0,0,414.47,203s8.59,24.57,1.38,33.48"/><path class="cls-8" d="M565.89,153.65c-17.37,24.92-10.65,42.9-10.65,42.9,8.69,1.2,14.08,3.67,24.58,10.29,15.74,9.92,23.59,24.87,24.6,44.73.56,10.88-3,18.41-5.5,24.8,0,0,27.81,18.06,28.52-15.64s-33.07-55.4-40.38-65.15-1.72-41.84-1.72-41.84"/><path class="cls-8" d="M423.28,166.36A73.37,73.37,0,0,0,425,183c2,9.25,15.82,30.93,15.82,30.93s76.77-19.53,97.88-18.57c2.76.13,5.23.25,7.47.38,0,0,3.38-32.5,14.29-41.25,0,0-5-33.37,11.78-72.93s23.67-65,57.49-77.67"/><path class="cls-8" d="M639.84,167.76c-7.82,5.79,12.35,37.87,19.38,55s15.49,27.81,11.52,50.29-31.6,34.87-31.6,34.87c7.74,1.74,13.44,2.73,13.44,2.73a49.78,49.78,0,0,1,10.47,5.8s23.3-14.55,22.68-40.75-20.35-74.59-21.22-82.9-1-12.33-1-12.33-18.12-40.32-8.52-59.18,26-33.16,35.4-43.6"/><path class="cls-8" d="M671.14,185.8c-3.4,7.71,3.74,25.88,10,45.2s11.3,48.21,7.62,63.3-20.48,26.76-20.48,26.76c4.54,5,7.3,11.78,3.29,20.2,0,0,34.67-21.67,41.22-48.3"/><path class="cls-8" d="M723.58,372.1s-18,13.95-22.54,20.73-18.51,21.75-18.51,21.75c-20.53,2.41-66.87,11-78,10.33-12.69-.79-27.78-6.89-21-10.43,19.93-10.47,60.66-13.13,64.63-15.11,8-4,9.63-8.36,3.07-10.83-1.69-.64-5.55-1.12-10.28-1.57,0,0,50.57-11.58,82.65-14.87"/><path class="cls-8" d="M728,415.13c-14.94-.82-30.92-1.35-38.46-1.15,0,0,13.15-15,16.87-19.61S726,375,726,375"/><path class="cls-8" d="M466.66,195.15s37.81-5.7,52.65-14.6,13.79-8.78,15.44-13.16-2.92-5.82-2.92-5.82"/><path class="cls-8" d="M480,186.73s26.71-5.92,33.55-10.83,5.62-9.51,5.62-9.51"/><path class="cls-8" d="M396.51,285.8a67.61,67.61,0,0,1,18,8.6c30.36,19.75,10.84,33.54,1.09,40.86-3.41,2.56-10.16,5.34-17.76,8.26,0,0-15.75-17.39-11.24-34.67S396.51,285.8,396.51,285.8Z"/><path class="cls-8" d="M381,280.16a36.12,36.12,0,0,1,7.36.14s21.65-39,40-44.08c20.25-5.58,61.82-11.68,87.09-11.15,25.85.54,41.3,3.07,45.42,22.6,1.83,8.64,1.33,23.12,4.82,36.28a150,150,0,0,0,12.7,31.25c6.74-5.95,3.08-10.83-.79-17.78s-4.56-23.69-3.57-34.3,6.27-20.61-7.71-33.87-41.12-11.49-52.88-13.42-89,12.48-89,12.48"/><path class="cls-8" d="M569,325.12a67.9,67.9,0,0,0,6.66-6.48s-13.64-30.1-15.86-41.43,1.16-24.58-7.94-35.95c-10.86-13.58-45.16-10-57.85-10.8s-47.82,5-66,12.1-32.15,39.06-32.15,39.06a75.14,75.14,0,0,1,11.06,3.58s9.48-33,49.91-38.28,68.39-9.2,78.72-.81S569,325.12,569,325.12Z"/><path class="cls-8" d="M489.09,274.05c2.79-3.45,12.47-1.3,19.35,4.29s14.74,20.53,24.79,36.3S547.53,331,547.53,331c6.24,1.77,11.8.29,16.53-2.44,0,0-18.38-76.17-39.93-81.29S460.4,250.76,437,258.44a32.72,32.72,0,0,0-23.27,30,49.11,49.11,0,0,1,15.34,12.26s4-29.23,29.69-35.05S489.09,274.05,489.09,274.05Z"/><path class="cls-8" d="M494.13,316.57c-3.14-8.2-6.08-16.91-7.15-22.34-1.14-5.79.69-10.23.21-13.36-1.55-10-13.19-10.51-13.19-10.51s-4.49-2.69-22.55,5.49-17.55,33.82-17.55,33.82a22,22,0,0,1,.86,7.84,21,21,0,0,1-2.39,8.54s13,3,17.77-12.24,11.68-19.07,17.91-19.72,10.72,2,14.38,6.91Z"/><path class="cls-8" d="M510.76,341.14c-5.87-6-8.89-13-15.45-17.31a48.72,48.72,0,0,1-11.69-11.39s-9.94-14.73-18-11.79S453.41,325,444.37,329.12A41.36,41.36,0,0,1,427,332.78c-6.62,6-16.61,9.83-26.58,13.42a67.39,67.39,0,0,0,51.4,4.21C480.29,341.15,510.76,341.14,510.76,341.14Z"/><path class="cls-8" d="M525.41,352.85a22.09,22.09,0,0,0,9.14,2.4s-.8,15,2.25,24.16S516.41,404,516.41,404a45.55,45.55,0,0,1-6.77-2.85c-16.67-8.78-21.91-18.74-28.47-21.21-3.54-1.33-9.18-5.2-17.64-7.4,0,0,15.3-5,22.69-4.68s20.18,2.11,29.21-2A17.3,17.3,0,0,0,525.41,352.85Z"/><path class="cls-8" d="M441.1,371.84a53.83,53.83,0,0,1,17.39-.35s16.58-9.84,40.92-8.16,22.48-12.54,22.48-12.54a56.22,56.22,0,0,1-6.46-5.15s-14.63.73-33.34,2.68-13,6.6-42,10.66-47.92-9.82-47.92-9.82a91,91,0,0,0-15.42,6.94,23.88,23.88,0,0,0-9.25,9.38"/><path class="cls-8" d="M523.71,406c15.62,3.37,33.4,2.33,37.94.28,6-2.73,9.74-7.32,12.32-12.84s-3.05-9.14,3.26-19.25,22.39-17,36.3-24.78,15.12-16.28,15.12-16.28c-8.25-8.6-22.37-2.93-27.57-2.39S563,348.32,547.72,353.06a57.89,57.89,0,0,1-7,1.75s-3.23,10.87,2.66,27.07c0,0,1.58,5.09-6.09,12.19S523.71,406,523.71,406Z"/><path class="cls-8" d="M365.52,372.78a18.61,18.61,0,0,1,2-7.3"/><path class="cls-8" d="M441.1,371.84c-1.87.33-3.8.76-5.81,1.3-25.56,6.85-34.05,16.14-45.59,16.29s-17.89-.25-21.44-4.08a24.38,24.38,0,0,1-2.74-12.57"/><path class="cls-8" d="M716.36,302.54c-3.15,7.9-8.51,15.74-15,23-11.29,12.73-35.13,22.95-35.13,22.95-4.9,5.1-11.93,9.81-19.39,14,0,0,36.68,3.77,60.4-20.75a122.29,122.29,0,0,0,15.22-19.92"/><path class="cls-9" d="M373.42,179.5s40.69-14.92,57.35-24.22"/><path class="cls-8" d="M240.82,225.4c62.73,17.3,63.73,97.75,63.73,97.75l-13.28-3.77s-5.92-54.65-26-66.22-22.59-10.09-22.59-10.09"/><path class="cls-8" d="M243.28,249.13s9.77-1.79,25.11,14.21c16.5,17.2,17.16,53.9,17.16,53.9-5.88-1.65-11.68-3.22-16.85-4.59,0,0-1.66-42.17-23.55-45.5"/><path class="cls-8" d="M249.36,307.66s5.53,1.37,13.63,3.48c0,0-3.59-33.21-17.17-37.58"/><path class="cls-8" d="M240.12,218.67s36.54,2.83,53.22,42.08S311.57,325,311.57,325s26.85,5.62,34.84,1.64-32-25-31.09-56.66,20.71-23.16,38.12-37.58-34.86-76.54-34.86-76.54"/><path class="cls-8" d="M298.81,148.29S345.4,195.46,329.67,216s-38.07-2.35-53.16-6-37.95-6.3-37.95-6.3"/><path class="cls-8" d="M237.72,195.6s36.67,4.08,48,12.35,24.7,15.3,35.59,8.91S320,183.39,320,183.39l-29.25-38.11"/><path class="cls-8" d="M236.09,179.88s30.26,4.57,45.11,4.38c11.54-.15,15.27-4.74,12.11-14.91-3.05-9.83-8.61-22.22-22.16-31.32"/><path class="cls-8" d="M235.3,172.22s38,7.3,47.11,3.51c10.07-4.2-5.6-23.58-5.6-23.58a51.87,51.87,0,0,0-18.46-17.29"/><path class="cls-8" d="M234.19,161.56s19.8,3.46,26.53-2.49-15.16-25.17-15.16-25.17"/><path class="cls-8" d="M233.52,155.06s10.36,3.66,17.31-.22S238,134.68,238,134.68"/><path class="cls-8" d="M364,315.23s-19-23.07-15.23-37.12S385,242.83,381,224.33s-18.21-49.59-18.21-49.59"/><path class="cls-8" d="M370.44,178.15s18.41,41.16,16.59,54-29.81,36.71-32.78,48.58c-2.3,9.18,12.15,30.06,12.15,30.06-3.91,17,10.88,40.84,10.88,40.84,4.48-1.95,9.5-3.87,14.44-5.74,0,0-11.5-17.36-12.37-25.74-1.51-14.55,10.84-35.64,10.84-35.64-8.07-1-12.32,1.12-12.32,1.12"/><path class="cls-8" d="M386.91,186.68s24.74,39.72,8.23,72.95"/><path class="cls-8" d="M393.63,190.31s17.27,39.27,8,61.27"/><path class="cls-8" d="M232.15,50s20.31,70,63.25,68.74,56.47,27.76,103,10.32S465.5,56.91,465.5,56.91"/><path class="cls-8" d="M236.46,46.54S250.91,95,275.4,108.17s16.85.35,40.58,6.29,29.07,16.94,58.28,15S424.4,106.36,432.78,96,463,53,463,53"/><path class="cls-8" d="M224.38,67.06s7.36,45.64,26.11,54.2c0,0,32.37,8.19,63,19.73s63.59,15.46,84.88,8,71.9-68.12,76.36-85"/><path class="cls-8" d="M227.94,101.36s6.53,17.36,16.53,22.62,36.53,7.77,51,15.72,50.3,18.94,69.22,19.08,34.41-2.52,46.35-9,38.12-37.58,38.12-37.58,27.76-34.87,30-44.33"/><path class="cls-8" d="M244.74,37.55S265.53,84,288,88s20,0,44.91-2.57S358,114.3,378.56,110.06s68.19-73,68.19-73"/><path class="cls-8" d="M249.33,33.65S274.13,75.73,284,80s41.9-1.19,54.48-1.45,24.85,26.84,35.35,26.8,25.84-14.24,41.68-33.74a398.37,398.37,0,0,0,27.32-38.3"/><path class="cls-8" d="M267.89,20.25S286.31,51.35,301.3,54s26.41,1.46,46.05-1.63,22.37,2.93,33.7.7,20.14-8.39,23.76-14a81.76,81.76,0,0,0,7.95-14.48,42.73,42.73,0,0,0,3.58-14.52"/><path class="cls-8" d="M263.41,23.19s22.77,47.09,66.92,37.25,33.8,7,60.28-3.63,30.85-42,30.85-42"/><path class="cls-8" d="M454.85,45.15c26.81-5.15,78.89-69.6,78.89-69.6,5,3.08,9.72,6.22,14.27,9.27,0,0-39.63,71.36-75.77,76.93"/><path class="cls-8" d="M477.29,66.24c33.69-2.41,74.57-78.83,74.57-78.83,6.19,4.15,12,8.06,17.79,11.33,0,0-9.54,23.48-21.06,31.33"/><path class="cls-8" d="M699,115.15s-13.83-1.72-13.68,40.29,2.59,44.41,2.59,44.41"/><path class="cls-8" d="M681.53,194s-11.24-82.18,14.85-83.83"/><path class="cls-1" d="M248.49,542.24s241.88-78.69,501.89-94.12"/><path class="cls-8" d="M351.85,553.81a1154.17,1154.17,0,0,1,360.72-42"/><path class="cls-8" d="M393,555.45a838.47,838.47,0,0,1,280.68-28.79c6.38.42,12.79.93,19,2.6,5.94,1.6,11.75,4.39,15.81,9"/><path class="cls-8" d="M454.13,555.15l49.68-12c11.84-2.87,23.72-5.74,35.82-7.16,12.26-1.43,24.64-1.37,37-1.26q30.21.27,60.42.86c9,.17,18,.37,26.8,2,16,2.9,30.84,10.26,45.41,17.54"/><path class="cls-8" d="M329.78,554l99.58-26.66c16.82-4.5,33.68-9,50.88-11.75,11.58-1.85,23.27-2.88,35-3.92l70-6.19c17.28-1.53,34.57-3.06,51.89-3.9q31.29-1.51,62.63,0"/><path class="cls-8" d="M313.74,551q66.94-21,134.82-38.93c21-5.55,42.22-10.89,63.89-12.56,17.25-1.33,34.58-.32,51.87-.83,9.42-.28,18.82-1,28.21-1.74l117.72-9.15"/><path class="cls-8" d="M290.64,552.6c19.65-8.67,40.42-14.46,61.11-20.23l129.11-36c14.37-4,47.81-5,62.61-6.9s29.76-1.57,44.68-1.71c51-.46,82.83-9,133.55-14.57"/><path class="cls-8" d="M266.32,552.23c62.18-25.87,128-41.68,193.49-57.37,22.35-5.36,44.77-10.73,67.58-13.58,14.23-1.78,28.57-2.56,42.89-3.35l167.44-9.2"/><path class="cls-8" d="M554,470.69c3.46-.32,112.46-9.32,138.46-9.32"/><path class="cls-8" d="M258.42,548.37s70.95-28.42,74-30"/></g><rect class="cls-8" x="259.51" y="116.5" width="430.91" height="430.37"/><rect class="cls-2" x="317.21" y="164.53" width="321.21" height="320.81"/><path class="cls-10" d="M643.46,607.76a1.74,1.74,0,0,1-1.47.83l-175.14.28a2.55,2.55,0,0,1-1.59-4.57l47.41-36.55a4.21,4.21,0,0,1,2.58-.88H664.53a1.74,1.74,0,0,1,1.49,2.66Z"/><line class="cls-4" x1="454.23" y1="552.77" x2="454.23" y2="583.21"/><rect class="cls-2" x="458.74" y="552.2" width="21.42" height="6.77"/><path class="cls-11" d="M463.43,567.43H436a.35.35,0,0,1-.22-.63l17.57-14.51a.31.31,0,0,1,.22-.09h26.23a.35.35,0,0,1,.24.61l-16.4,14.52A.39.39,0,0,1,463.43,567.43Z"/><rect class="cls-2" x="435.06" y="566.86" width="29.32" height="5.64"/><line class="cls-4" x1="464.38" y1="566.86" x2="464.38" y2="597.31"/><line class="cls-4" x1="435.06" y1="567.43" x2="435.06" y2="597.87"/><line class="cls-4" x1="480.16" y1="552.77" x2="480.16" y2="583.21"/><polygon class="cls-2" points="499.65 579.75 520.86 555.71 581.66 555.71 560.45 579.75 499.65 579.75"/><path class="cls-2" d="M522.71,519h57.1a1.85,1.85,0,0,1,1.85,1.85v34.91a0,0,0,0,1,0,0h-60.8a0,0,0,0,1,0,0V520.8A1.85,1.85,0,0,1,522.71,519Z"/><polygon class="cls-2" points="560.45 579.75 581.66 555.71 642.46 555.71 624.63 579.75 560.45 579.75"/><path class="cls-2" d="M640,519H584.16a2.5,2.5,0,0,0-2.5,2.5v34.26h60.8V521.45A2.5,2.5,0,0,0,640,519Z"/><path class="cls-2" d="M501.64,588.94h58.87a.65.65,0,0,0,.65-.65V580.4a.65.65,0,0,0-.65-.65H500.3a.65.65,0,0,0-.65.65V587A2,2,0,0,0,501.64,588.94Z"/><path class="cls-2" d="M560.45,588.94H622a2.59,2.59,0,0,0,2.59-2.59v-6.6H560.45Z"/><line class="cls-2" x1="501.06" y1="588.29" x2="501.06" y2="596.72"/><line class="cls-2" x1="624.63" y1="588.23" x2="624.63" y2="596.01"/><line class="cls-2" x1="642.42" y1="565.12" x2="642.42" y2="574.31"/><rect class="cls-2" x="574.21" y="531.52" width="43.5" height="27.42" rx="3.62" transform="translate(68.03 -66.11) rotate(6.73)"/><rect class="cls-2" x="525.74" y="533.51" width="47.98" height="27.95" rx="3.62" transform="translate(-41.52 45.12) rotate(-4.53)"/><polygon class="cls-2" points="642.42 555.37 642.42 565.37 624.63 588.23 624.42 579.37 642.42 555.37"/><path class="cls-2" d="M59.41,675.37h79.34A1.94,1.94,0,0,0,140,675l54.81-38a2,2,0,0,0-1.21-3.56H121a1.91,1.91,0,0,0-1,.3l-61.57,38A2,2,0,0,0,59.41,675.37Z"/><ellipse class="cls-8" cx="217.72" cy="564.66" rx="13.2" ry="19.8"/><polyline class="cls-5" points="216.25 540.46 216.25 537.53 225.05 534.59 195.72 522.86 189.85 525.79 189.85 528.73"/><line class="cls-5" x1="207.45" y1="528.14" x2="216.25" y2="563.93"/><rect class="cls-12" x="182.93" y="566.72" width="8.8" height="3.57" rx="0.29" transform="translate(107.93 1161.79) rotate(-154.14)"/><polyline class="cls-5" points="186.91 552.2 172.25 587.4 189.85 581.53 210.38 540.46 186.91 552.2 189.85 581.53"/><path class="cls-13" d="M197.55,546.36l-5.87-2.76a3.9,3.9,0,0,0-2.09-.32l-13.32,1.56c-2.83.34-3.51,3.13-1,4.19l10.26,4.34a4,4,0,0,0,2.79.08l8.93-3.15C199.39,549.54,199.57,547.31,197.55,546.36Z"/><ellipse class="cls-4" cx="192.78" cy="575.67" rx="2.93" ry="5.87"/><ellipse class="cls-8" cx="173.08" cy="586.07" rx="15.51" ry="24.8"/><polyline class="cls-4" points="204.52 581.53 192.78 575.66 191.18 570.75"/><rect class="cls-12" x="201.08" y="580.78" width="8.8" height="3.57" rx="0.29" transform="translate(136.3 1196.42) rotate(-154.14)"/></svg>