<svg id="Layer_1" data-name="Layer 1" xmlns="http://www.w3.org/2000/svg" viewBox="0 0 240 428.88"><defs><style>.cls-1,.cls-3{fill:#e5ead0;}.cls-1,.cls-2,.cls-3,.cls-4{stroke:#000;}.cls-1,.cls-2{stroke-linejoin:round;}.cls-3,.cls-4{stroke-miterlimit:10;}.cls-4{fill:none;}</style></defs><title>cave</title><rect class="cls-1" x="0.5" y="0.5" width="238.99" height="427.88"/><path class="cls-2" d="M157.16,349.28,120.06,351V338.84a50.46,50.46,0,0,1,1.4-10.95c.93-3.72-1.4-10.24-1.4-10.24,0-7.08,5-11.22,10.48-14.91,3.27-2.21,1.58-5.59,5.82-5.59h4.19c5.66,0,7.71,0,11.41,3.73s9.09,11.11,9.09,16.77c0,0-.47,10.48-.7,13.5s-1.17,5.94-.47,9.32S157.16,349.28,157.16,349.28Z"/><path class="cls-3" d="M239.47,420.29s-46.65-2.48-52.24-6.84-13.69-8.08-18-9.95-11.82-4.35-16.17-9.95-7.46-5.6-10-9.95-6.84-7.46-10.57-9.33S128.14,362.46,125,360s-3.74-4.36-5-9.33,0-13.06,0-13.06a17,17,0,0,0,5,3.11c2.84,1.08,14.44-.48,14.3,2.49-.18,3.78,6.47,1.61,10.57,3.11,6.84,2.48,11.61,6.72,18.25,9,6,2.07,10.87,5.78,15.34,7.14,4.64,1.4,11.25,1.65,16.79,2.48,19,2.84,39.2,1.72,39.2,1.72Z"/><path class="cls-4" d="M28.33,428.38s-10.26-29.23-6.53-41.67,1.86-23,3.11-36.07S18.69,338.2,28,317.06s0-72.77,11.81-84,6.84-15.55,16.79-21.77,13.69-8.71,18.66-9.33,49.13-18,72.77-13.06,36.69,6.22,48.51,8.71,12.43-.62,23.63,2.48,19.3,11.17,19.3,11.17"/><path class="cls-4" d="M.5,168.11s18.19-32,40-34.52,24.88-12.44,37.32-6.84,9.33,0,21.14-1.87,8.09-1.86,31.1,0,29.23-9.33,57.84-1.24,33.58,13.06,36.69,15.55,15,15.23,15,15.23"/><path class="cls-4" d="M.5,86S29.88,55.85,42.32,57.09s16.79-7.46,33.58-6.21S89,38.44,132.5,41.55s68.41,16.17,74.63,18.65S239.49,86,239.49,86"/><path class="cls-4" d="M.5,14.49A41,41,0,0,1,21,.5"/><path class="cls-4" d="M208.06.5s11.51,4.35,17.73,6.84a107.24,107.24,0,0,1,13.7,7.15"/><path class="cls-4" d="M239.49,285.65s-24.28-37-47.29-35.14-75.25-11.82-82.71-3.73-9.33,11.82-18.66,19.28S77.15,282.23,73.42,292.8s-4.36,10.57-3.74,23.63-1.24,4.36,3.74,28,8.7,29.23,4.35,34.2-6.22,5.6-3.11,12.44,6.84,9.95,8.71,13.06,0,3.11.62,8.09,17.72,16.17,17.72,16.17"/></svg>