<svg id="Layer_1" data-name="Layer 1" xmlns="http://www.w3.org/2000/svg" viewBox="0 0 717.07 685.86"><defs><style>.cls-1,.cls-2,.cls-3{stroke:#efd9ce;stroke-linejoin:round;}.cls-2{fill:none;}.cls-3{fill:#efd9ce;}</style></defs><title>cavetunnel</title><rect class="cls-1" x="0.5" y="0.5" width="716.07" height="684.86"/><path class="cls-2" d="M187.41,684S155,657.12,156.15,647.08s-7.81-30.74-11.16-35.46-14.51-7.5-16.75-15,6.7-25.39,11.17-32.66,10-9.49,11.16-20.66-1.12-29,1.12-33.48,19-13.4,22.32-14.52,24.56-5.58,24.56-5.58,11.16-21.21,11.16-25.67S236,439.45,236,439.45l3.35-27.91-10-15.62-2.79-25.68,17.86-19.7,16.74-1.83s24.64-10.91,23.44-17.39a71.43,71.43,0,0,0-5.58-16.89h12.28l13.4,15.17c-1.12,10.5-4.47,22.39-11.17,27s-17.86,9.13-17.86,9.13l-13.39,3.35s-1.12,11.63,4.46,14.19,10,8.78,10,8.78c10.05,12.75,8.93,31.72,13.39,38.42S299,445,295.69,451.73s-10.05,11.16-5.59,19,11.17,11.16,20.1,13.39,20.09,13.1,20.09,13.1,13.4,8.63,22.33,0,30.14-25.38,32.37-28.73,14.51-3.34,17.86-2.23,22.32-13.39,31.25-17.86,14.52-.67,22.33-9.26,7.44-15.86,22.7-14c14.86,1.81,1.86-3.54,30.88-.19s35.72,3.35,40.19,0,4-5.68,13-9-.7-6.3,23.85-8.68,24.56-9.9,43.54,0,34.6,11,31.25,14.36-14.51,17.53-14.51,17.53l-16.74,19.31-4.47,12.28s-9.72,8.18-11.16,19c-3.94,29.53-5.32,23.45,6.27,42.42s0,44.65,0,44.65-8.5,13.91-11.85,34.87,11.85,38.81,11.85,38.81V684s25-2.85,25.54-12.33S666.08,651,666.08,651"/><path class="cls-3" d="M278.94,314.43s-3.91-8.37,0-15.07a45.38,45.38,0,0,0,5-14.51l9.49-2.79s6.14,3.9,6.14,6.69-8.37,25.68-8.37,25.68"/><path class="cls-2" d="M661.82,421.59s17.86-19,22.33-28.49,10.6-13.37,10.6-16.44,11.73-11.81,5.59-24.46S694.2,335,694.2,335l3.35-17.78"/><path class="cls-3" d="M621.21,403.24s-9.06-38-2.36-44.72A108.32,108.32,0,0,0,630,345.17c.56-.6-3.35-20.78,0-23s12.63-41.26,32.27-27.87S678,314.43,678,314.43s-2.79,20.54-2.79,23.11,6.14,21.54,6.14,23.77-3.91,16.75-4.47,19-15.07,41.3-15.07,41.3"/><path class="cls-2" d="M226.48,370.24s-11.17-30.7-20.1-37.39c-16.08-12.07-31.81-25.12-31.81-25.12s.56-25.12-1.67-28.46-20.1-24.56-20.1-24.56-21.15-12.28-23-21.21-5.31-11.37-12.69-25.68c-6.35-12.32-18.42-19-27.35-25.11L79.13,168.2s-6.42-24.84-12.28-25.68-15.91-19.25-15.91-19.25S36.71,104.85,27.5,98.15"/><path class="cls-2" d="M510,424.94s6.7-27.73,5.58-32.84.13-26.88-2.73-35.53-19.59-9.29-2.29-24.6l17.3-15.31S516.24,301,515.36,291.54s-3.59-18.41,0-21.76,6.93-14.85,8-16.91,4.46-10,4.46-10V214l7.82-10.4"/><path class="cls-2" d="M569.17,267.54s12.28-8.65,13.4-33.34c0,0,20.09,3.2,16.74-8s-5.94-23.75.38-26.94,14.78-13.18,16.69-12.09S632.8,170.43,637.27,166s4.23-6.69,11.6-7.81,27.47,0,27.47,0"/><path class="cls-2" d="M555.78,249.91s-7.82,13.17-11.16,22.66,3.34,19,3.34,19,1.3,1.68,1.77,6.7.65,8,0,10.13"/><path class="cls-2" d="M492.71,399.26s6.14-6.69,3.91-12.83-3.91-12.28-3.91-12.28,6-8.93,4.39-10.61-7.74-9.48-7.74-9.48"/><path class="cls-1" d="M662.28,220.18s18.52,2.76,24.1,12.78c0,0,7.44-.76,10.42,3.33s1.86,5.21,2.61,7.07-.38,8.22,2.6,9.51,8.93,6.49,8.93,6.49l6.75,14.88"/><path class="cls-1" d="M690,167.08a11.31,11.31,0,0,0,4.5,7,36.68,36.68,0,0,0,7.64,4.18s2.4.56,2.4,2.23,2.79,9.77,2.79,9.77l8.65,5"/><path class="cls-1" d="M574.2,186.66s4.81-18.07,12.9-22.95,18,0,18,0,9.94-15,16.89-18.4,24.84-9,24.84-9,19.87-33.62,25.83-33.16,44.71,19.61,44.71,19.61"/><path class="cls-1" d="M295.69,451.73s17.3-17.3,19-26.79,6.7-22.61,15.91-25.68,10.88-15.62,10.88-15.62-3.35-19.82,6.7-27.07S358.54,335,358.54,335"/><path class="cls-1" d="M364.06,314.43l15.35-22.89H392.8a31.16,31.16,0,0,1,10.61-17.3,200.61,200.61,0,0,1,19-13.39s8.38-10.53,8.38-13.64,7.25-27,7.25-27l11.72-4,14.51-7.82,5.31-14.18"/><path class="cls-1" d="M267.89,278s1.5-7.58,7.89-11.55"/><path class="cls-1" d="M277.91,310.75s-1.37-8.93-2.64-9.86-3.87-3-3.87-3,1.67-7.07,0-9.48a19.54,19.54,0,0,1-2.42-4.84"/><path class="cls-1" d="M288.4,262.34s5.43,3.72,8.77,3,8.19-1.44,8.19-1.44l3.35,3.67s4.84.77,6.32,4.66,0,9.86,0,9.86"/><path class="cls-1" d="M278.66,278.71s.84-3.91,2.79-3.77,4.75,0,4.75,0,3.07-2.7,4.46-2.74,6.14,0,6.14,0"/><path class="cls-1" d="M302.05,316.52s1.11-4.44,3.95-5.77a8.43,8.43,0,0,0,3.9-4.52l2.13-9.06,3.67-4.77"/><path class="cls-1" d="M315.7,320.77s6.61-3.73,7.68-10,3.73-8.06,3.73-8.06,10.45-5,10.81-10.29,0-20.22,0-20.22"/><path class="cls-1" d="M258.11,260.48s.71-9.93,3.91-12.06a5,5,0,0,1,5.87,0l7.89-4.61s.07-2.13,4.68,0a124.07,124.07,0,0,0,13.12,4.61l9.93-1.42"/><path class="cls-1" d="M256.69,268.64s3.2,9.46,0,13.42-3.54,6.08-2.48,6.79a46,46,0,0,1,3.9,3.55v7.45l2.13,7.8,8.74,6.78"/><polyline class="cls-1" points="261.32 339.26 262.48 329.5 251.31 320.77 243.78 320.77 239.31 316.52 239.31 305.78 226.48 291.53 221.45 270.61 226.48 254.15"/><path class="cls-1" d="M234,240.47,244.9,225.4h8.77l7.66-7.81s9-3.35,10.51-3.35"/><path class="cls-1" d="M189.92,258.26v-19.9s6.7-5.7,11.72-11l5-5.3L212.52,209l8.93-5.39"/><polyline class="cls-1" points="200.73 328.56 200.73 308.29 189.92 291.53"/><path class="cls-1" d="M308.87,216.2c.17.57,12.31,4,12.31,4l5.93,14,5.57,3,11.5,16.94"/><path class="cls-1" d="M299.59,382.91l9.28-6.25L315.7,365s9-4.66,11.41-10.95"/><path class="cls-1" d="M555.78,419.78s4.42-17.51,0-20.52,0-10.8,0-10.8l6-11.8-6-12.87,8.56-13.22"/><path class="cls-1" d="M587.52,332.7s11.25-11.48,6.51-18.23,2.17-16.05,2.17-16.05l4.71-11.74"/><path class="cls-2" d="M152.8,254.71s0-28.47,7.82-38.51,14.51-12.64,14.51-12.64,3.35-17.41,8.93-16.9a70.86,70.86,0,0,0,11.26,0l10.37-11.76L234,167.08"/><path class="cls-2" d="M261.33,181.17s3-6.83,7.65-6.83h8.93s14.71-1.68,17.78,0a8.74,8.74,0,0,1,3.9,5.2s4.1-1.3,6.14-.18,7.07,1.81,7.07,1.81l5.58,5.07s7.15-2,8.51,0,8.8,5.4,8.8,5.4"/><path class="cls-1" d="M358.54,230.91a15.91,15.91,0,0,1,4.12,7.05l.84,3.91.56,4.19,3.07,5.61-3.07,4.43v6.24l-1.23,4.09"/><path class="cls-1" d="M561.92,227.36s3.17.71,2.42-7.18,2.6-11.8,2.6-11.8"/><path class="cls-1" d="M310.2,484.1s10-3.35,10-8.37a19.81,19.81,0,0,1,2.24-8.93l13.21-6.7"/><path class="cls-1" d="M402.85,466.24s2.51-16.18,4-20.09a17.48,17.48,0,0,1,5.45-6.7l-4.75-8.37s7-8.93,7.54-9.49,0-12.84,0-12.84l8.93-9.49"/><path class="cls-1" d="M441.36,382.91s8.93-14.34,4.46-21,3.91-11.3,3.91-11.3,2.79-8.24,2.79-11.3,2.79-22.75,2.79-22.75l5-6.47,3.9-17.65"/><path class="cls-1" d="M481.27,260.48s7.46-19.42,12.1-17.62,13.85-12,13.85-12V212.6l9.21-17.33"/><polyline class="cls-1" points="535.68 181.17 549.73 173.59 559.08 157.65 574.2 148.38"/><polyline class="cls-1" points="681.36 130.8 695.59 140.85 715.96 140.85"/><path class="cls-1" d="M600.91,130.8s13.47-10.88,21.84-10.05,15.07-4.18,15.07-4.18"/><path class="cls-1" d="M550.53,138.51s11.16-25.11,15.4-24.69,15.12,0,15.12,0,1.67-11.3,8.37-11.3h14.23l19.58-14.23,21.44-6.7,24.46-20.93,19.08,11.72"/><path class="cls-1" d="M315.7,151.73c2.31-.84,20.67-3.35,22.37,0s0,10.05,0,10.05l10.92,3s10.72,7.23,9.55,8.81-.32,6.42.09,9,4.2,12.66,4.2,12.66L380,208.38l9.21,17.2v12.78"/><path class="cls-1" d="M438,220.18s-1.12-22.4-7-24.91-17.58-18.42-17.58-18.42l5-12.07-15.63-26.27-25.4-7.71"/><polyline class="cls-1" points="189.92 148.38 205.69 130.8 221.45 130.8 234.01 123.68 252.92 113.22 273.44 116.57 280.81 123.68"/><polyline class="cls-1" points="79.13 168.2 87.04 140.74 96.54 133.19 116.49 124.1 126.94 107.31 147.83 103.36 153.53 87.28 166.83 91.52 195.32 85.59"/><path class="cls-1" d="M151.69,509.78l-21.35-43.54-11-21.73L98.1,432.75s5.59-26.36,3.35-27.69-22.32-28.4-22.32-28.4L53.45,327.6,27.5,286.68s-4.19-25.28,5.86-20.25,13.4,20.25,13.4,20.25l18.41,27.57s15.91,14.49,16.75,14.31,10.88,25.5,10.88,25.5l27.63,39.3"/><path class="cls-1" d="M114.57,342.93l20.09,27.31v36.84s4.19,11.16,6.7,12.7,15.07-2.1,16.74,1.81,0,20.65,0,20.65l13.4,17.86"/><path class="cls-1" d="M107,328.56c-2.51.66-14.23-20.19-14.23-20.19L71,292.4"/><path class="cls-1" d="M16.62,248.67s.83-8.12,15.07-1.46a40.09,40.09,0,0,1,19.25,18.56"/><path class="cls-1" d="M128.24,596.58,107,565.31s-9.2-23.44-11.72-25.12-16.18-7.53-16.18-7.53H43.41l-9.63-14.51L.5,499.2"/><polyline class="cls-1" points="624.91 564.94 650.38 536.85 662.28 532.66 676.34 518.43"/><path class="cls-1" d="M666.29,509.78s-2.51-10.61,10.05-14S690,486.61,690,486.61l27.41-26.51"/><path class="cls-1" d="M625.16,541.68s16.49-24.09,25.46-23.25"/><path class="cls-1" d="M626.1,470.71s11.76-1.12,19.69-10.61,13.46-15.59,13.46-15.59l17.09-5.62,11.87-26.27"/><path class="cls-1" d="M637.89,265.77s15.16-11.5,19.27-7.52,24.2,4.09,24.2,4.09v19.72l17.3,4.62v9.8"/><polyline class="cls-1" points="637.89 499.2 645.79 484.94 657.16 484.94 666.08 472.1"/><path class="cls-1" d="M610.62,605l27.2-19.63s12.2-.83,12.8,0,6.54-.37,6.54-.37l11.12-15.71"/><polyline class="cls-1" points="651.99 628.29 668.27 623.49 676.34 606.71 702.12 600.3 715.96 564.94"/><path class="cls-2" d="M.5,297.17s1.6,23.5,16.12,30.43,17.16,29,17.16,29"/><line class="cls-2" x1="43.41" y1="368.48" x2="59.03" y2="388.71"/><path class="cls-2" d="M71,412.62S60.71,435,71,441.67a91.81,91.81,0,0,0,22.61,10.06V472.1L107,485.65l12.28,13.55"/><path class="cls-2" d="M66.45,518.15s1-26.23-3-34-8.37-16.74-10-17.86-19.67-10.33-19.67-10.33L30,438.33,17.14,427.17"/><path class="cls-1" d="M.5,570.61H12.15l5,13.4H27.5s10.33,7.25,11.44,9.49,12.28,13.39,12.28,13.39"/><polyline class="cls-1" points="105.78 635.67 120.85 642.09 124.2 656.32 129.22 667.48 143.73 671.39 148.2 683.67"/><polyline class="cls-1" points="114.95 242.78 126.51 259.77 135.9 265.34 144.66 268.33 152.81 285.46 157.6 289.95 167.26 295.37 174.92 308.11"/><path class="cls-1" d="M.5,203.56S8.8,217.89,20,217.88s19.53,9.48,19.53,9.48l6.7,11s15.63,8.74,16.74,10.31,3.61,13.67,3.61,13.67L76.9,280.1l12.26,6.58"/><path class="cls-1" d="M249.36,79.73s25.55-8.37,27.85-3.35,10.52,12.56,10.52,12.56h9.07l13.4,5,5.5,9.21,22.37-3.59h29.06l10.32,6.94"/></svg>