<svg id="Layer_1" data-name="Layer 1" xmlns="http://www.w3.org/2000/svg" viewBox="0 0 943.02 643.51"><defs><style>.cls-1,.cls-2{stroke:#f4f1ce;stroke-linejoin:round;}.cls-2{fill:none;}</style></defs><title>caveinner</title><rect class="cls-1" x="0.5" y="0.5" width="942.02" height="642.51"/><path class="cls-2" d="M378.58,643c82.86-46.42,177-69.47,271.28-81,11.73-1.44,23.69-2.76,34.52-7.52s10.08-25.57,26-33.83c18-9.37,46.79-9.59,66.27-13.86a132.15,132.15,0,0,0,49.07-22c6.1-4.42,12.29-10.26,12.66-17.8.48-9.77-8.71-16.83-14.07-25a35.37,35.37,0,0,1-4.79-27.14c1.28-5.46,3.88-10.62,4.51-16.19.79-7-1.62-14-5-20.22-11.69-21.84-34.47-36-58.29-42.85s-49-7.14-73.73-7.42c-26.08-.3-68.09,18.08-94.16,17.78-51.2-.59-86.64-19.85-137.49-13.81-20.21,2.39-42.07,5.53-59.77-4.5-2.38-1.35-4.77-3.08-5.67-5.66-.83-2.38-.24-5-.35-7.51-.39-8.62.19-19.58-6.21-25.37-28.3-25.61-57.82,4.88-82.47,4.62-25.5-.28-51.28-1.16-76.93-1-8.26.06-17.37.47-23.38,6.13-2.61,2.45-4.35,5.67-6.45,8.57-14.34,19.75-43.3,22.72-60.54,40-16.73,16.76-18.8,43-17.8,66.61.51,11.86,1.49,24-2.1,35.35-3.2,10.08-9.84,18.75-17.4,26.15C71,500.27,35.51,511.93.5,517.23"/><path class="cls-2" d="M389.51,317.33s7.87-49.31,17.22-62.55,3.89-25.64,3.89-25.64l8.8-18"/><path class="cls-2" d="M200.58,298.84s1.33-10.82-9.57-20-14-23.73-27.26-23.09-24.92-18.06-24.92-18.06L125.59,233"/><path class="cls-2" d="M365.45,278.8V265.91S375.57,254,374,248.55s.16-19.41.16-19.41"/><path class="cls-2" d="M155.86,254s-6.13-5.42-6.13-17.1-10.9-21.8-10.9-21.8l-13.24-21"/><path class="cls-2" d="M117.34,381.78s-2.65-26.23-12-31.44a45.15,45.15,0,0,1-14.79-14.17L71.08,321.76"/><path class="cls-2" d="M374.18,265.91s5.29-3.4,6.85-11.94,0-21,0-21,10-12.46,8.48-15.58-7.59-15.57-7.59-15.57"/><path class="cls-2" d="M391.41,205.76s-2.73-9.34-1.75-15.31a25.33,25.33,0,0,1,4.6-10.53v-5.83"/><path class="cls-2" d="M391.86,287.75s-2.15-12.72,0-16.09,6-11.68,6-11.68l3.11-14.8L407.5,239"/><path class="cls-2" d="M379.41,285.84a39.61,39.61,0,0,0,4.21-13.66,37.84,37.84,0,0,1,3.9-13.24c.51-1.3,7-7.79,6.74-9.87s0-12.72,0-12.72l4.94-11.94"/><path class="cls-2" d="M401.79,214.55s12.2-7.79,12.2-12.72,5.43-15.58,5.43-15.58L428.79,172"/><path class="cls-2" d="M392.83,325.76s2.21-7.38,3.51-13.09,6.49-10.9,5.45-16.87"/><path class="cls-2" d="M402.83,285.84s-1-5.62,4.67-12.11,7.53-13,6.49-16.87"/><path class="cls-2" d="M417.89,248.3s8-14.94,7-19.16,2.33-11.22,2.33-11.22l3.38-11.16"/><path class="cls-2" d="M414.27,151v9.6L407.53,172s-.55,9.08,0,10.9-5.71,15.31-5.71,15.31L389.51,217.4"/><path class="cls-2" d="M140.73,229.14s-5-6.67-12-7.84a13.67,13.67,0,0,1-9.74-6.75l-9.73-12.72-11.3-3.64"/><path class="cls-2" d="M128.32,213.67s-5.12-14.57-9-17.29-5.82-17.14-5.82-17.14l-7-7.26"/><path class="cls-2" d="M112,221.3s4.62,9.18,7.38,12.57l2.75,3.39,6.23,1.69,5.84,7.66s3.11-.78,5.06,4.08"/><path class="cls-2" d="M146.62,213.67s7.53,5.29,7.79,7.63a44.41,44.41,0,0,0,1.45,6.23s-1.92,9.08,0,9.86,2.44,3.9,2.44,3.9,3.37,7.78,6.49,8,12.2,1.36,12.2,1.36"/><path class="cls-2" d="M152.85,260.5s7.27-1,11.68,2.85,10.12,12.2,10.12,12.2l6,3.25s7.27,7.4,7.79,10.25,4.15,6.75,4.15,6.75"/><path class="cls-2" d="M182.7,256.86a131.19,131.19,0,0,0,9.86,11.42c4.94,4.94,7.05,8.05,8.07,9.09s4.14,8.47,4.14,8.47"/><path class="cls-2" d="M134.68,184.18s0,8.82,4.54,12.2a38.76,38.76,0,0,1,7.4,7.27l10.12,10.9,11.94,6.75s-4.67,10.6-3.63,10.88,3.11,3.65,5.71,6.77"/><path class="cls-2" d="M177,241.81a6.18,6.18,0,0,1,5.71,2.85c2.34,3.38,7.53,6,7.53,6s6.49,4.87,6.75,6.17,1.81,7.39,1.81,7.39"/><path class="cls-2" d="M134.68,164.64a35.56,35.56,0,0,1,4.54-26.28c8.18-12.85,4.67-29.79,4.67-29.79l15.19-26.28,13.63-18.11"/><path class="cls-2" d="M125.59,186.84s1.56-21.61,0-22.2-6.28-12.85-6.25-16.35,6.06-10.51,6.25-12.85,1.17-29.2,2.73-31"/><path class="cls-2" d="M65.63,140.51l9.43,5.29,6.14,19.61s6.55,3.05,9.41,5.43S105,185.54,105,185.54"/><path class="cls-2" d="M53.17,166.78l17.91,7.88,4.67,7.61s9,8.92,10.51,8.66,9.15,0,9.15,0"/><path class="cls-2" d="M69.13,186.84s2.34,9.54,10.9,15,13.63,3.24,15.38,4.93,8.76,10.64,8.76,10.64"/><path class="cls-2" d="M83.54,217.4s12.46-.77,14.4,3.9,6.23,12.57,6.23,12.57l4.68,5.08s4.67,3.76,6.23,4.93,10.51,4.42,10.51,4.42"/><path class="cls-2" d="M133.87,255.13a30.7,30.7,0,0,0,8.85,5.24"/><path class="cls-2" d="M69.13,204.94s4,6,8.7,6.23"/><polyline class="cls-2" points="66.41 159.26 54.46 150.95 42.63 126.09 52.73 102.54"/><path class="cls-2" d="M157,63l-8.31,13.24-3.89,9.08s-2.34,6.23-5.58,8-4.54,11.16-4.54,11.16v12.27L133.87,129"/><path class="cls-2" d="M408.51,310.78a15,15,0,0,0,5.76-11.94c.05-8,3.62-20,3.62-20l6.36-12.89"/><path class="cls-2" d="M117.34,114.41s-3.63-14.53.07-19.53S128.32,80,128.32,80V64.18"/><path class="cls-2" d="M66.4,224a28.93,28.93,0,0,0,7.89,5.13c4.77,2.09,17,4.73,17,4.73l12.84,16.82"/><path class="cls-2" d="M112,257.75a44.33,44.33,0,0,0,16.36,8.16"/><path class="cls-2" d="M144.8,273.86a12.45,12.45,0,0,0,8.49,3.51c5.2,0,9.82,8.47,9.82,8.47"/><path class="cls-2" d="M146.62,186.84s-2-19.86,0-22.2"/><path class="cls-2" d="M154,140.7s4.73-4.09,7.84-17.82,0-22.49,0-22.49l9-11.09"/><line class="cls-2" x1="193.73" y1="64.18" x2="210.48" y2="53.08"/><path class="cls-2" d="M187.89,99.23s4.64-8.18,12.74-9.93"/><path class="cls-2" d="M170.76,151c1.17-4.41-2.92,11.94,0,18.37a21.1,21.1,0,0,1,2,11.6"/><line class="cls-2" x1="169.69" y1="201.83" x2="179.52" y2="211.56"/><path class="cls-2" d="M104.56,122.88s-4.28,6.91-2.72,13.14,4.28,16.36,2.72,19.08"/><polyline class="cls-2" points="54.46 244.66 73.48 248.29 81.2 267.63 95.41 271.35 104.17 278.8"/><path class="cls-2" d="M145.75,303.46s4.56-1.95,10.11,4.67,13.83,9.2,13.83,9.2"/><line class="cls-2" x1="171.27" y1="295.8" x2="176.99" y2="301.51"/><line class="cls-2" x1="115.08" y1="303.19" x2="123.83" y2="310.26"/><path class="cls-2" d="M443.52,150.2s5.26-3.66,18.11-17.1,14-18.69,14-18.69"/><path class="cls-2" d="M424.25,164.64S429.5,143,433,140.7s18.1-14.61,18.1-14.61"/><path class="cls-2" d="M428.79,198.19a33,33,0,0,1,8.89-17.27A186.13,186.13,0,0,1,454,166.78L462.21,151l9.93-5.29"/><polyline class="cls-2" points="483.82 159.26 475.65 174.57 459.58 198.19 450.47 211.56 443.52 229.14"/><path class="cls-2" d="M399.2,159.26s4.76-19,5.27-20.27-5.27-12.9-5.27-12.9"/><path class="cls-2" d="M377,127s-.82-3.85-5.94-6.47a75,75,0,0,0-8.37-3.76"/><path class="cls-2" d="M349.64,91.37s11.29.26,12.07,4.35,14,6.82,14,6.82"/><line class="cls-2" x1="401.79" y1="102.54" x2="407.5" y2="111.1"/><path class="cls-2" d="M419.42,134.47s9.5-15.19,14.95-19.47,3.31-15.77,3.31-15.77l-11.1-9.93"/><path class="cls-2" d="M343.85,59.75s12.59-2.85,18.81,4.43"/><polyline class="cls-2" points="387.64 67.1 394.26 76.19 404.47 76.19 408.03 80.34"/><line class="cls-2" x1="253.7" y1="80.34" x2="270.25" y2="85.27"/><polyline class="cls-2" points="215.73 69.57 228.58 69.57 235.01 64.18"/><path class="cls-2" d="M298.09,69.57s11.09,2.27,14,6.62,12.26,9.08,12.26,9.08"/><path class="cls-2" d="M194.26,139l4.53-10s-1.39-10.26,5-12.26,8.59-5.65,8.59-5.65l17.86-8.25,4.8,4h13"/><path class="cls-2" d="M307.43,106.82a24.86,24.86,0,0,0,16.94,9.93c11.1,1.17,12.85,5.11,12.85,5.11"/><polyline class="cls-2" points="362.66 133.7 365.45 144.91 375.68 150.4 372.89 159.47 375.47 173.45"/><path class="cls-2" d="M459.58,115s.88-13.44,16.07-15.77,34.46-14,34.46-14l23.78-7.85"/><path class="cls-2" d="M483.82,129s4.09,2.05,8.76-7.15,17.53-15,17.53-15l17.52-4.28"/><polyline class="cls-2" points="518.87 94.26 539.89 85.27 552.16 85.27 569 82.82"/><path class="cls-2" d="M489.08,106.82s11.1-9.93,16.65-7.59"/><path class="cls-1" d="M97.94,361.56s-14.77-7.09-16.74-13.79S64,329.35,64,329.35l-14-7.59"/><polyline class="cls-1" points="24.82 306.73 49.93 306.73 60.43 317.33"/><path class="cls-1" d="M10.59,285.84s3.34,13.1,17.58,12.82,32.26,3.12,32.26,3.12l24.86,20"/><path class="cls-1" d="M122,365.06s3-2.59-1.89-13.29-16-15.72-16-15.72"/><polyline class="cls-1" points="17.56 262.65 27.61 274.82 38.77 282.58 52.73 285.08"/><line class="cls-1" x1="0.5" y1="265.91" x2="17.56" y2="279.85"/><polyline class="cls-2" points="832.68 372.91 856.37 347.47 898.47 332.65 925.26 315.35"/><path class="cls-2" d="M424.25,321.76l6.36-20.32s13.61-19.06,7.07-33.81l5.84-10.77"/><path class="cls-2" d="M806.55,361.56s7,4.35,16.59-6a269.36,269.36,0,0,1,20.47-19.53"/><path class="cls-2" d="M71.08,295.8s4.57.49,15.57,7.39,16.61,22.57,16.61,22.57"/><path class="cls-2" d="M196.53,159.26v9.35l-5.39,7.78a36.35,36.35,0,0,1,3.12,16.87l10.51,20.41"/><path class="cls-2" d="M357.52,190.93s2.46-6.7,2.57-10-2.57-8.94-2.57-8.94l-3.12-12.72L341.56,151a10,10,0,0,1-4.34-5.58c-1-3.7-12.85-4.67-12.85-4.67"/><path class="cls-2" d="M331.91,266.08l8.6-9.13s7.23-1.93,8.08-6.83S356.46,234,356.46,234s1.32-10.89.15-17.64,5-12.72,5-12.72"/><path class="cls-2" d="M198.79,233.87a12.16,12.16,0,0,1,6,7.91,24.63,24.63,0,0,0,3.95,8.91v9s6.77,2,7,7.94l7.51,6.23"/><path class="cls-2" d="M219.48,139s-.15-8.43,3.76-9.78,10.32-3.91,10.32-3.91l12.28-3.44,7.86,4.23c2.19.1,13.63-3.18,21.44,2.92s12.28,7.22,12.28,7.22"/><path class="cls-2" d="M330.68,168.61s7.81,1.39,8.09,7.53,2.79,8,2.79,8l-2.79,8.64,1.34,7.88"/><path class="cls-2" d="M215.73,203.47c-2.76-4.77-1.42-7.79-1.42-7.79l-5.59-12.83,4.76-13.22c.16-7.45,7.11-16,7.11-16"/><path class="cls-2" d="M217.38,227.53a9,9,0,0,0,3.17,9.82c5.2,4.09,7.15,11,7.15,11"/><path class="cls-2" d="M340.11,215.15s.06,6.35-3.95,10.82-5.05,13.81-5.05,13.81"/><path class="cls-2" d="M241.49,142.68s1.28-6,5.19-3.69,12.83,1.59,12.83,1.59"/><path class="cls-2" d="M230.21,174.57l4.8,9.61-2.4,11.5.95,11s-2.74,8-.95,11.86"/><path class="cls-2" d="M278.17,145.82s-1.28,2.3,3.82,4.86,9.43,5,9.43,5,6.73.7,6.67-.59,2.17-7.7,2.17-7.7h11"/><path class="cls-2" d="M309.47,161.6s7,4.22,7,7"/><path class="cls-2" d="M240,244s4.74,7.27,4.47,11.17a87.56,87.56,0,0,0,0,9.12"/><path class="cls-2" d="M242.22,292.73s1.33-11-.73-12.88-7.93-13.94-7.93-13.94"/><path class="cls-2" d="M86.69,92.53s-3.75,11.48-1.6,19.3-.67,20-.67,20l4.46,7.33"/><path class="cls-2" d="M248,165.56l7.54-4,8.42-5.91s.89.58,3.12,4.94,9.4,3.1,11,11.12l9.39,7.62"/><path class="cls-2" d="M257.38,186.84v11.35s4.54,2.35,4.59,6.75-2.3,16.36-2.3,16.36,2.84,7.2,6.23,10.88L267.05,244"/><path class="cls-2" d="M305.74,178.86l7.82,2.59v5.39l6.23,6.94-4.46,8.34s-3.07,5.8-1.12,9.44"/><path class="cls-2" d="M250.5,218.56s-2.92,4.45-2.53,5.85S250.5,233,250.5,233s-3.43,6.51,0,9.3a26.38,26.38,0,0,1,5.39,6l-1.12,11.39,7.2,4.56s5.64,4.64,3.41,9.61"/><polyline class="cls-2" points="319.79 229.14 319.79 242.28 324.37 248.29 322.33 262.25 322.33 270.75"/><path class="cls-2" d="M279.61,225.77l5.11,7.21a10.81,10.81,0,0,1,2.7,6.8c.28,4.45-3.07,8.52-3.07,8.52l3.07,9.45"/><path class="cls-2" d="M279.61,194s3.53-1.5,5.11,2.72,4.38,11.3,4.38,11.3"/><path class="cls-2" d="M868.82,342.73s25.54-47.22,37-51.78,36.72-37,36.72-37"/><path class="cls-2" d="M852.54,330.47l18-26.24s13.33-6.65,12.25-18.39L900,248.3l28-19.16"/><polyline class="cls-2" points="942.51 227.47 927.95 251.21 906.55 265.91 896.04 285.84"/><polyline class="cls-2" points="666.67 330.47 669.47 304.23 658.86 264.25"/><path class="cls-2" d="M672.26,271.35s-5-19-2.79-32.4a85.53,85.53,0,0,1,7.81-23.8"/><polyline class="cls-2" points="681.19 253.97 686.77 287.75 681.19 304.23"/><line class="cls-2" x1="668.9" y1="200.7" x2="664.17" y2="224.41"/><polyline class="cls-2" points="818.84 336.05 839.71 306.95 886.37 278.08"/><polyline class="cls-2" points="802.49 339.67 814.81 312.42 838.35 273.87"/><polyline class="cls-2" points="646.03 241.78 639.89 215.15 646.03 184.65"/><path class="cls-2" d="M629.84,253s12.28,22.17,13.12,39.21"/><polyline class="cls-2" points="646.03 142.68 664.16 161.6 650.49 212.56 656.63 248.29"/><line class="cls-2" x1="622.58" y1="301.44" x2="624.82" y2="317.41"/><polyline class="cls-2" points="690.83 236.61 694.99 214.9 690.33 193.7"/><polyline class="cls-2" points="683.98 120.92 698.1 164.12 698.32 182.41"/><path class="cls-2" d="M852.54,227.47s15.53-50.28,16.28-52.9,28.71-28.75,28.71-28.75l9-24.9"/><polyline class="cls-2" points="849.56 171.98 860.33 142.68 873.75 132.31"/><line class="cls-2" x1="893.65" y1="104.48" x2="888.07" y2="134.47"/><path class="cls-2" d="M879.54,194s1.37-10.15,14.11-19.47S920,145.37,920,145.37"/><polyline class="cls-1" points="0.5 312.03 24.82 325.76 35.14 347.21"/><path class="cls-2" d="M53.17,341.66l16,19.9,18,15.23a59.06,59.06,0,0,1,28.58,20.29"/><path class="cls-2" d="M942.52,175.74s-40.12,29.13-54.45,67.51c0,0-4.28,21.91-14.32,24.38s-24.19,20.71-24.19,20.71"/><polyline class="cls-2" points="879.54 213.67 861.65 243.25 814.81 271.35 798.4 304.23"/><polyline class="cls-2" points="818.84 243.25 828.54 211.17 843.61 186.84"/><path class="cls-2" d="M812.63,186.84l18.59-31V129.21l25.6-14.8L860.16,97s21.27-21.9,19.38-34"/><polyline class="cls-2" points="703.79 272.35 703.79 241.38 710.49 211.17 703.79 200.7"/><polyline class="cls-2" points="664.16 126.09 655.1 85.27 629.84 48.89"/><polyline class="cls-2" points="407.5 43.99 430.61 53.09 450.47 67.1 472.14 55.55"/><polyline class="cls-2" points="459.58 39.68 496.74 30.47 509.56 18.75"/><path class="cls-2" d="M677.28,184.65c5-9.62,0-31.07,0-31.07l-12.56-6.3-18-35.34L629.29,94.56"/><path class="cls-2" d="M639.89,85.27l-24-29.72S609.19,43.29,599.14,44"/><path class="cls-2" d="M610.3,89.3s6.16,23.56,19,31.62"/><path class="cls-2" d="M821.49,408.18s11.88-20.22,25.28-29.53,39.6-16.18,39.6-16.18,17.75-22.74,56.15-52.21"/><path class="cls-2" d="M860.16,403.21s30.08-7.44,51.35-33.58c22.8-28,31-33.58,31-33.58"/><polyline class="cls-2" points="843.61 440.42 852.61 425.35 903.33 403.21"/><path class="cls-2" d="M942.52,366.75l-23.19,23.44s-8.56,26-26.79,41.3"/><path class="cls-2" d="M917.53,53.08s10.35,22.63,7,29.73-3.17,33.94-3.17,33.94"/><path class="cls-2" d="M882.13,449.2s14.5-.81,35.31-14.18"/><path class="cls-2" d="M942.52,491.77s-15.75,25.67-39.19,33.49S868.72,513,849.56,506.77s-73,0-73,0"/><path class="cls-2" d="M942.52,499.83s-15.75,25.67-39.19,33.49S868.72,521,849.56,514.83s-73,0-73,0-52.43,5-61.92,12.21-16.36,27.19-16.36,27.19"/><path class="cls-2" d="M942.52,507.88s-15.75,25.68-39.19,33.49-34.61-12.28-53.77-18.48-73,0-73,0-37.81,1.22-54.53,8.54"/><path class="cls-2" d="M942.52,515.94s-15.75,25.68-39.19,33.49-34.61-12.28-53.77-18.49-73,0-73,0l-30.69,2.65"/><path class="cls-2" d="M942.52,524s-15.75,25.68-39.19,33.49S868.72,545.21,849.56,539s-73,0-73,0l-20.43,2.63"/><line class="cls-2" x1="772.76" y1="339.67" x2="780.82" y2="313.94"/><path class="cls-2" d="M818.84,427.06s6.71-17.07,19.51-18.88"/><polyline class="cls-2" points="692.66 328.19 703.79 307.07 701.28 292.73"/><line class="cls-2" x1="9.03" y1="233.87" x2="27.05" y2="253.01"/><polyline class="cls-2" points="261.97 43.99 279.61 46.93 298.09 46.93 311.23 53.09"/><polyline class="cls-2" points="193.73 36.89 216.99 29.21 242.64 29.21"/><polyline class="cls-2" points="312.96 29.21 324.37 36.89 341.56 36.89 355.79 39.68"/><polyline class="cls-2" points="138.3 48.89 155.86 33.05 171.27 29.21"/><path class="cls-2" d="M342.23,15.68s21.87,10.6,31.95,8.37,23.2-4,23.2-4l16.89,6.82"/><polyline class="cls-2" points="307.43 293.09 305.74 272.35 307.43 248.29"/><polyline class="cls-2" points="66.41 115 71.08 67.1 88.88 53.09 104.17 29.21"/><path class="cls-2" d="M101.46,73.72l5.05-20.64,21.81-20s10-10.42,19.75-14.3"/><polyline class="cls-2" points="220.59 15.68 257.38 13.4 278.03 21.26"/><path class="cls-2" d="M430.61,13.4s19.46,8.42,41.53,2.28"/><polyline class="cls-2" points="44.91 203.47 27.05 186.84 27.05 169.71"/><polyline class="cls-2" points="22.03 82.81 38.77 48.54 63.97 36.89"/><polyline class="cls-2" points="27.05 371.51 42.63 394.1 65.63 403.21 77.83 403.21"/><line class="cls-2" x1="35.98" y1="0.5" x2="17.56" y2="18.75"/><polyline class="cls-2" points="610.3 130.43 623.7 150.2 623.7 179.38"/><path class="cls-2" d="M592.44,186.84s15.63,12.73,10.61,26.83a82.07,82.07,0,0,0-4.81,26.11l.9,24.47"/><path class="cls-2" d="M690.33,67.15a132.81,132.81,0,0,0,7.89,35.39c7.53,19.74,7.53,45.42,7.53,45.42"/><path class="cls-2" d="M884,.5s-17.21,9.87-20.09,19.83A70.27,70.27,0,0,0,861.65,44L849.56,55.55"/><path class="cls-2" d="M861.65,44s.38,30.12-5.49,36.34-23.48,22.2-23.48,22.2-13.39,17.37-18.38,26.67"/><polyline class="cls-2" points="838.97 16.23 828.6 43.99 825.08 74.28"/><polyline class="cls-2" points="802.49 158.87 792.54 186.46 798.4 221.3 798.4 243.25 785 271.35"/><polyline class="cls-2" points="463.67 82.82 475.65 74.28 497.4 72.42 527.63 59.2"/><polyline class="cls-2" points="501.19 48.89 535.51 39.05 552.16 46.37 574.86 43.97"/><polyline class="cls-2" points="580.72 61.69 604.04 68.65 619.8 80.34"/><polyline class="cls-2" points="543.93 67.15 569 68.65 587.42 80.34 598.24 80.34"/><line class="cls-2" x1="574.86" y1="119.47" x2="585.75" y2="138.47"/><path class="cls-2" d="M629.84,29.21,647,34.44s8.79,18.64,11.86,19.47,14.23,5.94,14.23,5.94l6.42,26.75"/><polyline class="cls-2" points="533.89 21.26 569 23.86 592.44 34.44 617 33.05"/><polyline class="cls-2" points="714.68 174.57 723.89 194.2 719.28 232.18"/><polyline class="cls-2" points="714.68 328.19 714.68 298.84 727.24 279.1 719.28 255.13"/><polyline class="cls-2" points="748.16 306.73 757.37 273.87 748.16 255.13"/><line class="cls-2" x1="761.56" y1="218.56" x2="765.75" y2="243.25"/><line class="cls-2" x1="738.12" y1="230.73" x2="748.17" y2="196.57"/><polyline class="cls-2" points="772.76 176.14 776.79 165.81 774.77 155.1 780.82 147.96"/><polyline class="cls-2" points="743.14 145.82 748.16 162.05 738.12 184.65"/><path class="cls-2" d="M738.12,94.26l10,25.21s14.23,4.3,13.39,6.62-4.19,14-4.19,14"/><polyline class="cls-2" points="761.56 178.74 763.65 192.82 765.75 204.94"/><polyline class="cls-2" points="776.6 217.36 785 230.91 780.82 246.69"/><polyline class="cls-2" points="723.89 73.72 723.89 99.7 732.26 116.75"/><path class="cls-2" d="M743.14,41.35c5,3.35,14.23,18.5,14.23,18.5V73.72l8.38,9.1"/><polyline class="cls-2" points="806.55 0.5 798.4 21.26 802.49 34.44"/><polyline class="cls-2" points="636.4 0.5 669.47 10.28 686.77 33.05"/><polyline class="cls-2" points="710.49 16.23 719.28 37.44 732.26 53.91"/><line class="cls-2" x1="752.77" y1="1.07" x2="765.75" y2="29.21"/><polyline class="cls-2" points="793.75 72.42 802.47 96.95 789.19 115.87"/><line class="cls-2" x1="623.7" y1="204.89" x2="629.84" y2="224.41"/><line class="cls-2" x1="763.44" y1="310.8" x2="768.05" y2="297.67"/><line class="cls-2" x1="917.44" y1="218.56" x2="942.52" y2="198.19"/><polyline class="cls-2" points="906.55 312.03 917.53 298.35 942.51 285.08"/><polyline class="cls-2" points="848.5 393.14 865.7 382.78 889.17 377.23"/><polyline class="cls-2" points="840.85 379.38 856.09 368.96 884.62 360.55"/><polyline class="cls-2" points="824.26 441.94 838.35 427.06 852.54 408.18"/><polyline class="cls-2" points="852.61 263.35 873.47 250.69 893.65 206.76"/><polyline class="cls-2" points="44.91 270.75 69.13 273.87 85.29 289.31"/><line class="cls-2" x1="0.5" y1="178.52" x2="17.56" y2="204.89"/><polyline class="cls-2" points="497.4 317.33 505.73 298.84 501.19 285.84"/><path class="cls-2" d="M509.56,256.65s-3.35,11,3.35,24.28"/><polyline class="cls-2" points="873.8 520.67 906.24 512.37 920.28 498.13"/><circle class="cls-2" cx="864.79" cy="374.73" r="24.39"/><circle class="cls-2" cx="489.08" cy="596.09" r="24.39"/><circle class="cls-2" cx="385.18" cy="196.57" r="24.39"/><path class="cls-2" d="M704.17,587.72s13.11-33.49,22.32-33.49,40,10,40,10l25.69,31.81s-19.88,17.33-30.09,13.32a66.46,66.46,0,0,0-27.66-4.18,21.25,21.25,0,0,1-14.79-4.93C715.78,597.1,710.5,592.77,704.17,587.72Z"/><path class="cls-2" d="M710.23,574.19l-7.65-3L695,572.7s-15.26,6.77-14,9.34a58.47,58.47,0,0,1,2.79,8.15s15.07,3.06,20.38-2.47"/><path class="cls-2" d="M735.82,532s6.69-2.79,13.39,4.47S771,547.58,771,547.58l11.7,15.14"/><path class="cls-2" d="M809.78,596.09s4-5,16.83-2.74,29-2.32,29-2.32"/><path class="cls-2" d="M866.77,588.88s17.35-4,15.23-6.76-12.1-5-12.1-5S861.47,581.07,866.77,588.88Z"/><path class="cls-2" d="M738.25,598.13S746.43,589,752,589s9.21-5,9.21-5l6.07,2.52"/><polyline class="cls-2" points="924.53 512.56 929.98 491.77 942.51 473.35"/><polyline class="cls-2" points="938.2 460.8 925.67 473.7 921.15 491.45"/><line class="cls-2" x1="886.37" y1="517.45" x2="892.54" y2="503.49"/><polyline class="cls-2" points="874.5 499.35 884.26 484.83 898.25 469.68"/><path class="cls-2" d="M364.43,407.79s3.47,5.07,19.86,4.45,16-.07,25.42,2.15"/><path class="cls-2" d="M685,366.36a46.72,46.72,0,0,0,18.39,1.81c9.3-1.21,17-.3,19.22,4.21"/><path class="cls-2" d="M445.35,514.15a32.42,32.42,0,0,1,13.82-.5,33,33,0,0,0,21.24-2.4"/><path class="cls-2" d="M552.78,541.14s15.13-4.83,28.62-5.35,22.2-5.1,22.22-9.76"/><path class="cls-2" d="M205,336.05s.43,5.34-8.27,6.84-13.57,3.08-17,7.67"/><path class="cls-2" d="M252.17,349.93s3.18-.46,9.72-4.2,6-4.92,14.17-2.79,10.68,1.89,13.65-.93"/><path class="cls-2" d="M344.46,302.08s1.51,1.55,10.13-1.24,12.54,5.29,12.54,5.29"/><path class="cls-2" d="M165.72,423.71s-6.58,3.34-5.65,10.5S159,445.93,159,445.93"/><path class="cls-2" d="M576.49,383.34s7.44,4.31,22.92.91l15.47-3.41"/><path class="cls-2" d="M66.11,532.35s18.34-3.44,31.83-14.9"/><path class="cls-2" d="M360.5,577.16s-5.28,7.09-17.66,7.09-26.39,9.57-26.39,9.57"/><path class="cls-2" d="M710.49,467.25s6.72-6.36,13.29-6.55,10.65,1,18.29-3.17.06-11.35.06-11.35"/><path class="cls-2" d="M774.31,382.63s17.86,7.15,11.7,26"/><path class="cls-2" d="M759.59,484.51s28-4,29.6-12.47"/><path class="cls-2" d="M.5,588.54s8-10.41,19.85-9.89,18.59-1.41,29.58-9.5"/><line class="cls-2" x1="316.45" y1="642.27" x2="353.26" y2="622.04"/><path class="cls-2" d="M145.75,615.49s20.5,1.28,22.6-4.49a26.87,26.87,0,0,1,19.94-17.18"/><path class="cls-2" d="M262,317s3.54,0,10.46-2.81,17.22,2,17.22,2"/><path class="cls-2" d="M785,546.08s13.4,16.14,13.4,37.86"/><polyline class="cls-2" points="882.84 358.33 864.79 361.86 851.98 366.75 840.85 376.51"/><polyline class="cls-2" points="840.4 372.91 855.19 361.3 880.78 356.33"/><polyline class="cls-2" points="854.73 352.52 847.33 360.55 841.74 366.75"/><polyline class="cls-2" points="840.94 369.63 855.7 356.33 862.74 350.44"/><polyline class="cls-2" points="855.19 361.3 864.79 355.21 877.05 353.66"/><line class="cls-2" x1="869.81" y1="350.87" x2="854.42" y2="357.48"/><polyline class="cls-2" points="392.5 219.83 397.1 210.05 408.64 189.93"/><polyline class="cls-2" points="397.85 217.4 401.85 205.76 409.34 193.26"/><polyline class="cls-2" points="409.51 198.19 403.59 208.37 401.79 214.55"/><polyline class="cls-2" points="464.97 599.8 474.4 596.09 482.77 593.63"/><polyline class="cls-2" points="487.51 591.03 499.51 585.26 510.93 585.26"/><polyline class="cls-2" points="464.97 593.63 479.98 590.94 489.08 583.93"/><line class="cls-2" x1="493.93" y1="582.12" x2="508.32" y2="581.12"/><polyline class="cls-2" points="465.81 588.78 471.51 586.93 477.03 586.93"/><polyline class="cls-2" points="481.1 582.12 493.93 577.16 504.35 577.16"/><polyline class="cls-2" points="469.09 582.12 477.03 581.12 492.72 571.98"/><path class="cls-2" d="M771,547.58s45.52-6.91,61.29-4.43,22.42,5.2,36.54,16.12,27,10.76,37,6.24,30.1-18,36.68-31.93"/><path class="cls-2" d="M790.32,554.23s40.51-12.91,58.17,0,27.21,19,34.35,20.42"/><path class="cls-2" d="M892.54,577.16a47.64,47.64,0,0,0,20.55-5.23c9.77-5.3,29.43-22.43,29.43-22.43"/><path class="cls-2" d="M801.19,561.57s25.67-6.24,34.32-2.3a126,126,0,0,1,24.65,15.38"/><path class="cls-2" d="M881.14,583.94s16.05,5.65,30-1.82L942.52,558"/><path class="cls-2" d="M513.47,596.09s58-15,86.23-19,79.81-8.2,86.51-10.74"/><path class="cls-2" d="M394.31,643s58.25-29.17,74.75-33"/><path class="cls-2" d="M413.38,643s44.79-21,63.65-25.72"/><path class="cls-2" d="M511.52,605.65s65.58-19.13,101-23.53,76.07-6.32,76.07-6.32"/><path class="cls-2" d="M681,582s-115.61,10.9-169.48,33.57S451.11,643,451.11,643"/><path class="cls-2" d="M683.79,590.19s-100.09,9.73-147,27.1S480.91,643,480.91,643"/><path class="cls-2" d="M508.32,643s91.38-33.29,134.17-38.87,70.13-9.61,70.13-9.61"/><path class="cls-2" d="M719.62,600.3s-75.3,10.84-109.15,20.18A497.51,497.51,0,0,0,547.24,643"/><path class="cls-2" d="M578.2,643s82.95-30.07,167.28-37.54"/><path class="cls-2" d="M610.47,643s39.77-16.77,70.45-21.35,78.67-13.15,78.67-13.15"/><path class="cls-2" d="M634.86,643s72.39-23.53,121.31-26.41c0,0,18.63.87,31.13-6.59,0,0,3.47-2.15,11.1-2.33s12.83,0,12.83,0"/><path class="cls-2" d="M664.17,643s78.13-21.79,97.11-21.35S792.16,614,798.4,614"/><path class="cls-2" d="M821.49,603.68s23.32,4.18,38.07,0,24.4-10.18,40.22-10.12,42.74-25.15,42.74-25.15"/><path class="cls-2" d="M723.05,636.33s26.33-8.11,51.26-7.82,30.92-12.56,47.18-13.39,32.85-.44,43.53-5.11"/><path class="cls-2" d="M879,605.65s17.66.49,28.82-5.35,34.73-21.74,34.73-21.74"/><path class="cls-2" d="M735.82,643s24.62-8.08,48.07-8.36,28.32-10.12,37.6-11.48c0,0,26.33-4.09,41.25-4.4s54.78-6.07,79.78-28.58"/><path class="cls-2" d="M792.16,643s25.89-12.89,36.44-12.86,39.62-4,61.64-5.91,52.28-18.59,52.28-18.59"/><path class="cls-2" d="M942.52,617.29s-25,11.26-48.87,14.87-57.49.8-69.39,10.85"/><path class="cls-2" d="M872.63,643s35.47-2.22,44.81-6.68,25.08-7.82,25.08-7.82"/><line class="cls-2" x1="942.52" y1="636.33" x2="925.67" y2="643.01"/><path class="cls-2" d="M931.83,505.45s6.06-20.38,10.69-22.89"/><path class="cls-2" d="M882.84,525.17s14.07-2.63,25.79-9.23,14.82-13.93,17-24.49,16.85-24.2,16.85-24.2"/><path class="cls-2" d="M897,509.4s12.71-9.53,15.64-15.39,7.6-23.45,7.6-23.45l9.39-7.81"/><polyline class="cls-2" points="909.28 486.07 916.16 459.4 942.51 444.14"/><line class="cls-2" x1="898.24" y1="497.45" x2="904.44" y2="490.56"/><polyline class="cls-2" points="867.87 516.77 880.78 507.88 895.14 488.05"/></svg>