<svg id="Layer_1" data-name="Layer 1" xmlns="http://www.w3.org/2000/svg" viewBox="0 0 239.99 429.5"><defs><style>.cls-1,.cls-3{fill:#e5ead0;}.cls-1,.cls-2,.cls-3{stroke:#000;}.cls-1,.cls-2{stroke-linejoin:round;}.cls-3{stroke-miterlimit:10;}</style></defs><title>cave</title><rect class="cls-1" x="0.5" y="0.5" width="238.99" height="428.5"/><path class="cls-2" d="M163.78,236.21,62.4,247.4V215.06c0-7.46,2.58-19.13,4.36-29.23,1.86-10.57,3.11-21.77,3.11-21.77-2.49-10.57-2.41-25.84,4.86-33.06,4.58-4.55,8.26-10.77,15-10.47,11,.49,6.08-13.31,16.17-16.79l16.17,2.49c15.11,0,11.24.66,21.14,10.57,4.91,4.91,14.31,10.57,17.42,21.14,2.67,9.1,6.22,16,6.22,23.64a34.43,34.43,0,0,1,4,17.67c-.32,6.22-3.76,12.2-4,15.29a86.25,86.25,0,0,0,1.86,24.87C170.62,228.43,163.78,236.21,163.78,236.21Z"/><path class="cls-3" d="M62.4,248C61.78,209.46,63,212,63,212s4.38-.33,12.43,1.25c6.74,1.32,7.85,9.61,14.93,9.32,7.27-.29,28.39-3.73,36.69-2.48,10.59,1.59-1.34,4.72,2.49,10,2.19,3,29.23,3.73,34.21,6.22,11.81,5,18,11.19,18,11.19s3.73,3.73,1.25,10a75.53,75.53,0,0,1,10.57,3.73c3.73,1.87.62,2.49,10,8.09s36.07,21.76,36.07,21.76"/><path class="cls-3" d="M62.4,247.4s3.11,47.89,9.33,56,0,24.88,8.09,33S78,351.26,86.66,368.67s-.62,29.86,2.49,39.18S100,428.69,100,428.69"/><rect class="cls-3" x="166.84" y="417.8" width="25.63" height="3.11" transform="translate(-53.92 27.46) rotate(-7.6)"/><rect class="cls-3" x="194.47" y="410.65" width="25.63" height="3.11" transform="matrix(0.99, -0.13, 0.13, 0.99, -52.73, 31.06)"/><rect class="cls-3" x="184.3" y="394.79" width="9.33" height="27.99" transform="translate(-52.44 28.6) rotate(-7.6)"/><rect class="cls-3" x="183.66" y="407.46" width="18.29" height="17.96" transform="translate(-53.42 29.18) rotate(-7.6)"/><rect class="cls-3" x="188.65" y="384.84" width="4.35" height="23.01" transform="matrix(0.99, -0.13, 0.13, 0.99, -50.77, 28.74)"/><path d="M169,345.3c-1.65,2.05-2.69,4.52-4.15,6.71-2.54,3.84-6.27,6.71-9.43,10.06-6.89,7.31-7.81,19.14-6,28.67.5,2.68,1.18,5.33,1.92,8a16.53,16.53,0,0,0,3.1,6.18,24.89,24.89,0,0,1,3.36,5.75c1,2.4,1.63,5,3.2,7.08a2.7,2.7,0,0,0,.93.85,2.8,2.8,0,0,0,1.12.23,24.82,24.82,0,0,0,7.14-.57,4.07,4.07,0,0,0,1.82-.78c1.1-1,1-2.74.5-4.15-.73-2.34-2-4.48-2.83-6.78s-1-4.72-1.61-7.07c-.2-.78-.58-1.44-.73-2.24-.2-1.12-.34-2.26-.5-3.38-.56-4.2-.87-8.84,1.46-12.59"/><path d="M174.94,366.27c-.79-1.89-1.61-3.88-1.47-5.82a6,6,0,0,1,3.41-4.86,11.25,11.25,0,0,1,6.06-.75,26.79,26.79,0,0,1,15.28,7.28c6.43,6,9.37,15,11.85,23.19a9.06,9.06,0,0,1,.59,2.84,14.79,14.79,0,0,0,.11,2.82,19.92,19.92,0,0,0,2,6.14c1.54,2.94,3.84,5.56,4.53,8.81a3,3,0,0,1,0,1.81,2.65,2.65,0,0,1-.82,1c-1.63,1.29-3.88,1.37-6,1.33a4.31,4.31,0,0,1-1.6-.23c-1.4-.57-1.84-2.28-2.22-3.74a24.84,24.84,0,0,0-1.34-3.83,6.75,6.75,0,0,0-1.34-2.17,21.54,21.54,0,0,0-1.76-1.35,11.8,11.8,0,0,1-2.82-4.1c-.9-1.79-1.72-3.62-2.52-5.45-2.16-5-4.37-10.59-8.86-13.3"/><rect class="cls-3" x="157.87" y="375.54" width="57.74" height="23.13" rx="11.56" ry="11.56" transform="translate(-80.66 50.63) rotate(-12.72)"/><rect class="cls-3" x="130.39" y="302.62" width="73.24" height="3.2" transform="translate(-48.67 32.33) rotate(-9.66)"/><rect class="cls-3" x="155.91" y="300.79" width="22.16" height="6.68" transform="translate(-48.66 32.33) rotate(-9.66)"/><rect class="cls-3" x="114.79" y="307.59" width="28.56" height="6.22" rx="3.11" ry="3.11" transform="translate(-50.3 26.06) rotate(-9.66)"/><path d="M159.51,414.69l1.31,4.59c.25.86.5,1.71.79,2.55.43,1.21.86,2.32,2.11,2.7a14.29,14.29,0,0,0,4.53.79,5.07,5.07,0,0,0,4.14-2.08,7,7,0,0,0,.86-3.27c.21-2.43.19-5.19-1.52-6.93"/><path d="M206.78,406l1,4.58c.19.86.39,1.72.62,2.56.33,1.2.67,2.32,1.64,2.7a8.79,8.79,0,0,0,3.53.78,3.74,3.74,0,0,0,3.24-2.08,8.74,8.74,0,0,0,.67-3.26c.17-2.44.15-5.2-1.19-6.94"/><rect class="cls-3" x="192.37" y="294.87" width="23.31" height="6.22" rx="3.11" ry="3.11" transform="translate(-47.1 38.45) rotate(-9.66)"/><path d="M199.88,302.41l-.12.15a2.54,2.54,0,0,1-1.63.71,6.6,6.6,0,0,1-4.34-1c-1.08-.69-2.51-1.29-3.23-2.39-1.28-1.93,0-4.46,1.29-6.39,5-7.57,13-14.94,2.55-22.77-7.42-5.55-19.32-5.22-25.58,1.67-1.7,1.87-3.25,4.07-3.47,6.58s.89,4.92,2.05,7.16c1.7,3.25,3.72,6.58,7,8.3,2.07,1.1,4.9,1.91,5.24,4.23a4.7,4.7,0,0,1-1.64,3.72c-3,3.14-7.36,5.16-11.51,6.25-3.93,1-7.09.89-10.63,3.48-7.43,5.44-8.56,15.3-16.91,20.07a3.53,3.53,0,0,1-2.08.63c-1.36-.16-2.1-1.64-2.52-2.93a37.19,37.19,0,0,1-1.6-7.45c-.13-1.27-.17-2.54-.21-3.81a6.6,6.6,0,0,1,0-1.33,9.22,9.22,0,0,1,.61-1.69c1.22-3,2.26-6.33,1.54-9.52a1.76,1.76,0,0,0-.55-1,2.57,2.57,0,0,0-1.46-.26c-1.18-.05-2.3-.64-3.48-.67a7.6,7.6,0,0,0-3.79,1.33c-.82.45-3,1-3.3,2a1.35,1.35,0,0,0,.64,1.42,5.72,5.72,0,0,1,1.29,1c.62.85.24,2,0,3.05a37,37,0,0,0-.31,15.26c1,5.35,2.63,12.72,6.75,16.65s11.55,2.67,16.54,1.11c4.8-1.49,9.37-3.74,14.3-4.75a3.39,3.39,0,0,1,2.8.3c1,.8.82,2.31.58,3.54-.86,4.38-1.7,8.76-2.64,13.11-.84,3.84-3.42,8.29-3.42,12.19-1.37,9.24,6.27,18.07,15.25,20.62s18.68.08,27.15-3.85c5.15-2.4,10.36-5.68,12.59-10.9,4.5-10.53-2.18-23.16,1.06-34.41,2.48-8.57,8.36-25.07,1.54-32.83a7.77,7.77,0,0,0-3.47-2.27,5.45,5.45,0,0,1-3.27-2,7.83,7.83,0,0,1-.92-2.19L207,297.59c-.39-1.28-.87-2.68-2-3.38a5.56,5.56,0,0,0-2.05-.62,12.52,12.52,0,0,0-3.34-.25,6.32,6.32,0,0,0-4.68,3,11.86,11.86,0,0,1,4,2.57,4.59,4.59,0,0,1,1.2,1.7A2.12,2.12,0,0,1,199.88,302.41Z"/><path class="cls-3" d="M200.47,419.05,188,420.92,187,410.62a4.72,4.72,0,0,1,4.06-5.31l2.33-.31a4.73,4.73,0,0,1,5.32,4.06Z"/><polygon class="cls-3" points="190.65 420.92 191.76 428.69 200.47 428.69 198.77 419.3 190.65 420.92"/><path class="cls-3" d="M162.07,418.5h12.39a0,0,0,0,1,0,0v5a0,0,0,0,1,0,0H162.07a2.51,2.51,0,0,1-2.51-2.51v0a2.51,2.51,0,0,1,2.51-2.51Z" transform="translate(-54.25 25.8) rotate(-7.6)"/><path class="cls-3" d="M206.47,408.9h11.78a2.51,2.51,0,0,1,2.51,2.51v0a2.51,2.51,0,0,1-2.51,2.51H206.47a0,0,0,0,1,0,0v-5a0,0,0,0,1,0,0Z" transform="translate(-52.57 31.89) rotate(-7.6)"/></svg>