<svg id="Layer_1" data-name="Layer 1" xmlns="http://www.w3.org/2000/svg" viewBox="0 0 195.75 178.99"><defs><style>.cls-1,.cls-2{stroke:#efd9ce;stroke-linejoin:round;}.cls-2{fill:none;}</style></defs><title>cavetunnel</title><rect class="cls-1" x="0.58" y="0.5" width="194.67" height="177.99"/><path class="cls-1" d="M13.74,178.49s4.38-32.91,14.85-47.41c7.34-10.16,17.49-10.34,21.45-10.72,12.84-1.24,24.75-9.6,29.7-17.58S97.91,89.49,97.91,89.49l34.62-3.78,24.75,3.78,38-12"/><path class="cls-1" d="M64.92,125s7.13.51,14.47-8.11"/><path class="cls-1" d="M164.82,98a22.69,22.69,0,0,0,16.64-5.25"/><line class="cls-1" x1="93.05" y1="83.22" x2="102.78" y2="81.45"/><path class="cls-1" d="M117.9,95.42s11.7-3.35,18.54-2.69"/><polyline class="cls-1" points="19.63 133.5 24.03 123.58 37.02 116.46"/><line class="cls-1" x1="195.25" y1="68.57" x2="184.86" y2="72.31"/><line class="cls-1" x1="137.6" y1="79.46" x2="155.54" y2="81.45"/><line class="cls-1" x1="25.23" y1="170.58" x2="28.32" y2="159.31"/><path class="cls-2" d="M57.91,103.26s12.78-5.37,14-10.32"/><path class="cls-1" d="M35.93,143.6A18.13,18.13,0,0,1,44.73,132"/><path class="cls-1" d="M88,105.67s5.78-6.28,14.44-7"/><line class="cls-1" x1="143.58" y1="101.11" x2="158.43" y2="105.93"/><line class="cls-1" x1="184.86" y1="103.26" x2="195.25" y2="101.11"/><path class="cls-2" d="M117.9,87.31s12.48-21.26,22.79-25.38S158.84,48.73,158.43,38,175.34.5,175.34.5"/><path class="cls-1" d="M124.4,65.64s7.43-8.66,13.2-10.1"/><path class="cls-1" d="M152.24,39s1.65-13.41,4.95-18.77"/><line class="cls-1" x1="184.86" y1="0.5" x2="177.4" y2="12.02"/><path class="cls-1" d="M168.12,35.12s3.92,11.55-5,17.73"/><line class="cls-1" x1="140.08" y1="71.42" x2="151.01" y2="65.64"/><path class="cls-1" d="M83.78,98.1s-4.53-15.41,0-25.79S98.3,55.21,97.91,46.67C97.45,36.34,89.09,30,90.12,20.89,91.58,8.06,115.53.5,115.53.5"/><path class="cls-2" d="M195.25,146.9s-37.64-7.43-49.71,2.06-36.6,10.35-36.6,10.35-38.36,0-40.7-15.71S50,120.36,50,120.36s-14.11-22.26-.52-42.9C63.83,55.73,30.8,48,20.67,32.64,15.43,24.71,7.88,2.12,47.48.5"/><path class="cls-1" d="M129.15,149.13s14.43-5.66,23.09-11.32"/><path class="cls-1" d="M171.22,150.61s19.19,1.23,24,5.36"/><path class="cls-1" d="M104.5,167.93s20.11,1.87,26.5-3"/><path class="cls-1" d="M77.58,141.53s7,7.36,13.62,7.6"/><path class="cls-1" d="M58.9,139.83s-1,13.81,11.26,19.48"/><path class="cls-1" d="M81.2,65.64s3.25-5.31,6.76-10.1"/><path class="cls-1" d="M98.65,27.69s.39-10.31,8.64-13.61"/><path class="cls-1" d="M104.5,43.91s3.25,7.91-5.85,16.68"/><path class="cls-1" d="M96.15.5S84.6,7.9,84.39,14.08"/><path class="cls-2" d="M17.78.5a17,17,0,0,0-6.6,13.58"/><path class="cls-2" d="M23.83,22.88S26.58,34,35.93,39"/><path class="cls-2" d="M38.4,7.29S43.08,4.79,60.68.5"/><path class="cls-1" d="M18.45,43.57S31,50.76,31.56,55"/><path class="cls-1" d="M38.4,87.31s-2.19,4.59,0,12.29"/><path class="cls-1" d="M41.43,60.59s6.32,3.78,1.92,9.85"/><path class="cls-1" d="M51.88,87.31s3-8.06,8.8-12.73"/><path class="cls-1" d="M49.54,49.3s8.36,4.45,9.34,11.29"/><path class="cls-1" d="M20.31,149.13S4.79,140.81,7.06,125s13.5-22.63,11.39-38.51S.5,70.44.5,70.44"/><path class="cls-1" d="M6.65,66.09s11.19.93,13.28,9.72"/><path class="cls-1" d="M11.05,81.45s5.71,5,2.24,14.16"/><path class="cls-1" d="M21.13,103.26s-7.67,12.7-7,15.86"/><path class="cls-1" d="M6.65,109.78A37.92,37.92,0,0,0,.5,125"/><path class="cls-1" d="M4.48,141.53s.52,5.15,6.5,8"/><path class="cls-1" d="M11.59,163.08s-3.5,11.11-3.19,15.41"/><path class="cls-2" d="M107.29,88.53s.21,25,19.88,30.59,68.08,1.8,68.08,1.8"/><path class="cls-2" d="M108.5,115.92s4.87,11.2,22.5,9.9"/><path class="cls-2" d="M131,112.9a112,112,0,0,0,18.46,4"/><line class="cls-2" x1="152.24" y1="127.98" x2="168.99" y2="127.98"/><line class="cls-2" x1="167.48" y1="114.88" x2="187.33" y2="114.88"/><path class="cls-2" d="M195.25,137.81s-10.27-2.14-17.85-1.5"/><path class="cls-1" d="M81.77,25.63S83.9,34.74,88,40.91"/><path class="cls-1" d="M143.58,159.31s9.53-5.4,17-6"/></svg>