<svg id="Layer_1" data-name="Layer 1" xmlns="http://www.w3.org/2000/svg" viewBox="0 0 266.19 247.34"><defs><style>.cls-1,.cls-2{stroke:#efd9ce;stroke-linejoin:round;}.cls-2{fill:none;}</style></defs><title>cavetunnel</title><rect class="cls-1" x="0.5" y="0.5" width="265.19" height="246.34" transform="translate(266.19 247.34) rotate(-180)"/><path class="cls-1" d="M265.69,190.68s-4.36-28.12-11.89-29.13S239.73,154,239.73,154s-8-10-7.25-12.55-8.3-6.53-13.33-8.54-1.67-15.57-1.67-15.57-.66-14.57-12.81-9S184,98.78,184,98.78,166.91,65.63,164.4,57.59s-8.54-4-11.05-8.53-9.54-10.55-9.54-10.55l-6-14.56s-27.62-1.51-29.13-5.53S90.07.5,90.07.5"/><path class="cls-1" d="M265.69,200.73s-14.91-11-16.92-23.61c0,0-11.05-4-11.55-10.54,0,0-6.53-14.07-15.06-12.06L208.6,139s-8,3.52-17.58-6-13.14-23.61-13.14-23.61-5.95-7.53-8.46-9S156.87,81.7,156.87,81.7s3.51-8.54-8-13.56-27.78-14.06-27.78-14.06a22.42,22.42,0,0,1,0-11.55C122.71,36,99.11,35,99.11,35a53.72,53.72,0,0,0-5-8.53C90.57,21.43,74.5.5,74.5.5"/><path class="cls-1" d="M265.69,216.8s-19.43-1.51-22.44-12.05-16-14.07-16-14.07H211.61l-5.09-16.57s-3-3.52-5.46-4-9.23-2.38-9.23-2.38,2.45-7.34-7.34-10.17c-16.85-4.88-10.2,1.5-14.39-4a22.06,22.06,0,0,1-4.19-12.05s1-5.53-5-9.55a48.18,48.18,0,0,1-9.54-8.25l-5-3.8-3.52-13.56s-6.86,7.53-9.7,2.51-8.88-13.23-8.88-13.23.69-6.86-3.17-9.87-20.43-8.54-20.43-8.54c-3.52-11.55-9-7.53-10.55-18.08a23.53,23.53,0,0,0-9-15.57s-8.54,5-10-3a25.57,25.57,0,0,0-7-13.06s-7,3.52-9.54-6-5.52-8.19-8.54-14.56L42.86.5"/><path class="cls-1" d="M265.69,153s-12.4-2-13.4-7.54c0,0-13.06-4-13.56-14.56s-8.54-10-8.54-10,3-17.41-8-20.26-20.09-5-20.09-5-6.53-7.86-9.55-14.89S180,59.6,180,59.6s-3-8.53-5-10-6.53,0-13.06-8.54-14.57-25.11-14.57-25.11-7-5-9-5S124.72.5,124.72.5"/><path class="cls-1" d="M265.69,246.84s-15.41-4.43-19.43-16.48-11.55-10.55-11.55-10.55l-12.55-.06s-4-2.95-8.54-10-12.56-11.55-12.56-11.55-13.06,6.53-19.08,0-6-8-7-9.55-4.85-2.51-4.85-2.51-11.23,6.53-13.23-4.52-10.05-18.58-10.05-18.58-26.43,7.53-25.77-6S116.69,137,116.69,137s-6,5.52-7.54-4.52S97.6,116.35,97.6,116.35,75,108,79.52,100.61s-5-15.39-5-15.39S53.91,79.69,53.91,69.15s-4.52-16.58-4.52-16.58-5.52,2.51-10.55-10S29.3,25.45,29.3,25.45l-10-6L.5,16.41"/><path class="cls-2" d="M195.21,200.34s-9.22-2.5-10.35-12.29A14.25,14.25,0,0,0,174.69,176s-.37-8.28-7.91-8.66-15.44-6.78-15.44-6.78L147.2,153s-13.89.75-14.1-3.39-4.36-9-4.36-9-1.88-10.55-9.42-15.07-16.72-5.11-16.72-5.11"/><path class="cls-2" d="M163.25,133.93s-.52-15.81-6.45-18.39c-4.33-1.89-3.55-12.46-3.55-12.46s-7.37-2.47-9.82-9.58c-4.12-12-10.33-10.17-10.33-10.17s-14.53-.72-14.91-6.57-6.4-6.23-6.4-6.23H102.6L89,54.65"/><path class="cls-2" d="M210.52,185.1s-9.86-.91-11.33-5.1a14.56,14.56,0,0,0-4.16-6.29l-12.74-2.3-2.46-15.7"/><path class="cls-2" d="M154.28,71.66s.47-6.53-5.38-8.54-6.6-3.52-6.6-3.52.25-5.52-1.76-7-8.79-5.77-8.79-5.77-4,.5-4.52-5-12-9.54-12-9.54-2-4.27-6.53-3.76-14.56-2-14.56-2"/><path class="cls-2" d="M214.7,98.72s-3.84-8-2.59-10.24-9-5.27-9-5.27-2.51-6.28-6.28-9-14.47-11-14.47-11"/><path class="cls-2" d="M.5,38s2.35,4.52,6.87,3.51A62,62,0,0,0,17.42,38l14.06,3.66s-3,10.53,4.52,13,17.91,14.5,17.91,14.5"/><path class="cls-2" d="M.5,49.06s7.38-.88,11.39,5.59,8.54,2.94,8.54,2.94.49,3.08,6.78,5.56,11.71,8.51,11.71,8.51-5.12,1.16,0,5.1,12.65,6.45,12.65,6.45l10,11.08s11.65-3.39,10.64,1.3,5.53,17.25,5.53,17.25,6.69,10.61,12.38,10.83,8.71,2.23,8.71,2.23l10.37,6.53"/><path class="cls-2" d="M170.1,186.16s-2.18,15.57,12.22,22.1c0,0-3.25,6,12.85,10.55,0,0,4.56,11.55,13.09,11.55l18.59,6.53,2.51,10"/><path class="cls-2" d="M.5,93.5s4.68,7.88,7.08,8.71a8.16,8.16,0,0,0,4.8,0s-2.8,6.19,2,7.66a14.32,14.32,0,0,1,7.4,6h9.33s-1,7.78,3.14,8.66,11,1.57,11,1.57l3.93,6.63s-4.33.56,2.87,4.7a31,31,0,0,1,10.81,10.78s-2,2.91,4.8,4.15S79.23,160.26,80,161.5s2.13,10.25,7.07,10.1a36.32,36.32,0,0,1,9.49,1.1,15,15,0,0,1,6,10.45c.57,6.78,3.59,3,11.12,7.53a20.86,20.86,0,0,1,4.9,9.66s10.06-3.91,14.07,0"/><path class="cls-2" d="M140.06,164.5s-3.05,10.36,0,13.38l3,3-2.2,5.27s1.38,4.15,4.24,6.41,2.1,11.67,2.1,11.67,9.42,6.41,17.71,4.52,9.41,4.9,9.41,4.9-4.52,4.14-2.63,8.29S186,231,186,231l3.39,7.91s13.56-.76,14.69,1.5a52.2,52.2,0,0,0,4.52,6.44"/><path class="cls-2" d="M80,161.5S78.72,175,81.88,178.86s5.22,4.87,5.22,4.87V189s-2.06,3.11,2.44,4.36,12.31,2.54,12.31,2.54.56,1.19,4.34,8a134.4,134.4,0,0,1,6.47,13.68s.3,4,8.1,5.91,9.46,6.53,9.46,6.53l5.36,3.11s-3.71,4.66-1.61,6.22,9.46,7.49,9.46,7.49"/><path class="cls-2" d="M22.19.5S34.68,6.87,33.71,14.4s2.42,8.29,2.42,8.29,4.14,3,5.27,3.77S52.81,33.36,54.83,38,64,53.58,64,53.58L74.5,58.1l3.06,9s8.29,1.54,6.78,9.62S86.6,87.1,86.6,87.1a28.16,28.16,0,0,1,11.3,8.49c4.9,6.2,19.59,13.06,19.59,13.06s10.17,3.69,11.3,7.08,7.53,9.79,7.91,10.92,3.19,12.81,3.19,12.81-4.39.5,5.25,4A46.79,46.79,0,0,1,160.8,153l6,14.31"/><path class="cls-2" d="M173.67,246.84s-2.87-11.1-6.89-13.78a20.07,20.07,0,0,0-8-3.13s3.12-2.68-4.47-6.25a54.81,54.81,0,0,0-12.95-4.47s2.79-8.49-2.63-9.83-5.6-3.71-5.6-3.71.3-15.92-8.91-19.51c0,0-1.63-9.83-10.11-7.6,0,0-1.36-17.14-4.93-17.06l-6.55-2.59s-.14-11.17-4.16-11.62c0,0,.79-13.4-18.68-8,0,0-2.23-3.63-5.26-9.83-2-4-7.25-21.79-20.59-23.22-4.16-.45-3.64-8.71-11-7.48,0,0,.19-14.54-13.21-8H15.36s.89-9.59-5.36-9.79A13.28,13.28,0,0,1,.5,76.76"/><path class="cls-2" d="M.5,123.67s13.78-.25,14.53,8c0,0,.38,8.58,4.52,8.58s10.93,2.26,10.93,2.26,4.58,4.14,3.23,7.91c0,0,13.7,0,13.33,4.14,0,0-1.12,12.06,4.91,12.81,0,0,9.35,1.13,9.57,7.53,0,0,.14,9.42,5.08,13.56,0,0,9.36,5,7.9,11.92L84,207.63c4.9,7.16,9.33,2.14,10.13,9.17,0,0,9.82,7.41,8.51,13.81,0,0,11.39,3.39,9,7.53l4.76,8.7"/><path class="cls-1" d="M99.11,35s5.1,13.57,10,19.66c0,0,7.21,13.87,18.88,14.5,0,0,9.73,12,17.11,11.78,0,0,2.06,11.48,20.45,14.66"/><path class="cls-2" d="M148.9.5s9.64.72,9.64,9c0,0,12.81,2.88,13.19,6.9s6.15,16.07,6.15,16.07,1.47-4,4.44,2.51,5.23,11,5.23,11,12.5,2.64,11,10.17c0,0,2.6,11.68,7.49,15.45,0,0,15.82-4.52,18.84,2.26,0,0,1.5,14,9.41,16.8,0,0,11.68,4.29,14.32,11.82S252.33,115,252.33,115s.21,1.89,6.78,1.89,6.58,14.77,6.58,14.77"/><path class="cls-2" d="M.5,146.92s11.14-4.83,16.79,4.59c0,0,16.58,1.91,18.84,10,0,0-2,11.1,2.79,13.36s6.18-1.5,9.79,5.65c0,0,9.42,4.9,5.2,14.69,0,0,13-3.64,12.69,5.53,0,0,7.86,5,7.9,11.42,0,0,15,4.15,12.59,9.42l13,1.29"/><path class="cls-2" d="M38.92,174.86s8,10.93,3.94,15.82c0,0,7.74-1.13,11,4.52s3,8.67.92,15.07c0,0,8.35,3.8,6.69,6.23v6.36s2-.16,5.08,3.23c0,0,13.86.75,13.16,7.16,0,0,7.12-3,9.24,4.14,0,0,12.5,4.21,11.08,9.45"/><path class="cls-2" d="M.5,153s4.58,10.16,9.68,11.48c0,0,14.58.19,11.3,8.1,0,0,6.92,5.28,7.65,9.42s0,2.25,0,2.25a11.38,11.38,0,0,0,3.49,12.06s13.18,5.28,8.85,12.43c0,0,14,9.42,11.58,16.58,0,0,6.62,5.65,6.47,10.92,0,0,12.24,6.09,9.68,10.58"/><path class="cls-1" d="M170.1.5s21.59,2.6,16.69,11.27c0,0,7.79-1.51,8.42,9l3.3,10.92s6.74-2.13,7.12,3.26a22.55,22.55,0,0,0,3,9.55s10.55-4.15,13.18,4.52,9.42,20.09,9.42,20.09-.38,7.44,8.29,14.77S252.71,85.59,255,93.5c0,0,10.72.29,10.72,7.11"/><path class="cls-1" d="M226.26,59.83s3.1-1.23,6.68,2.41c2.59,2.64,2.07,3.82,2.07,3.82s3.71-3.93,7.64-1C245.1,67,245,72.05,245,72.05s10.73,3.47,12.24,8.88,8.46,3,8.46,3"/><path class="cls-2" d="M193.45.5s8.79,4.36,7.78,9.13c0,0,10.55-2.76,10.8,4.77v10s7.53,1.76,7.53,5l2.51,10.3s7.79-2,9,3.26c0,0,0,7.28,2.26,8.79,0,0,12.15-3.64,12.61,2.83,0,0,4,10.31,6.48,10.64,0,0,5.82,3,1.53,10.56"/><path class="cls-2" d="M212,14.4s9-2,11.05,4c0,0,7.78-1.51,9.29,5.53a13.17,13.17,0,0,0,7.78,9.29s8.29-6,10,0a50,50,0,0,0,5.37,11.55s2.66-1.09,4.17,4.23,5.95,9.58,5.95,9.58"/><path class="cls-2" d="M.5,178.63s1,5.27,8.13,7.53c0,0-1.88,7.91,0,11.3s9.42,10.17,9.42,10.17-1.89,7,1.88,9.17-1.51,8.91,2.26,12.3,6.78,6,6.78,6-1.51,11.71,1.88,11.71"/><path class="cls-2" d="M54.83,246.84s-16.13-7.19-15.91-15.1c0,0-6.56-3.46-8.07-8.88,0,0,1.51-6.15,0-10.12,0,0-11.3-7.71-8.66-12.81,0,0,.75-13.79-1.88-15.66S8.83,168.7,13.62,164.81"/><path class="cls-2" d="M.5,208.39a22.78,22.78,0,0,0,4.74,6v8.45s4.55,2.85,7,4c0,0,0,10.17,3.46,11.68,0,0-1.4,8.32,4.63,8.32"/><path class="cls-2" d="M217.89.5s10.71,3,10,8.25c0,0,6.4-2.52,9,5.33,0,0,6-2.31,12.81,6,0,0,10.54,4.52,11.67,6.41l4.32,16.19"/><path class="cls-2" d="M248.19.5s5,1.85,7.38,10.51c0,0,10.12-.5,10.12,5.4"/><path class="cls-1" d="M153.25,103.08s12,6.62,13.53,14.15c0,0,2.57,13.06,11.1,16.7l7,9.29s9-6.92,11.68,3.7l6.4,13.45s7.22-3.73,11.71,4.44c0,0,21.06,7.42,18.42,16.08,0,0,7.16,3,10.55,9.79,0,0,8,14.91,11.9,15,0,0,10.12-5.7,10.12,2.72"/></svg>