<svg id="Layer_1" data-name="Layer 1" xmlns="http://www.w3.org/2000/svg" viewBox="0 0 420.46 298.77"><defs><style>.cls-1,.cls-2{stroke:#f4f1ce;stroke-linejoin:round;}.cls-2{fill:none;}</style></defs><title>caveinner</title><rect class="cls-1" x="0.5" y="0.5" width="419.46" height="297.77"/><path class="cls-2" d="M208.23,161.63c92.86-15.78,186.92-31.35,211.18-33.94"/><path class="cls-1" d="M85.11,175.91c36.16-6.06,79.51-13.29,123.12-20.48"/><path class="cls-2" d="M.57,197.41S37.1,191,88.74,182.11"/><path class="cls-2" d="M197.54,186.24c22.54-4.18,41-7.19,51-8,43.53-3.35,170.85-33.21,170.85-33.21"/><path class="cls-1" d="M104.3,199.69c33.45-7.34,68.49-14.79,97.48-20.42"/><path class="cls-2" d="M.51,227.43s52-11.64,109.12-23.61"/><path class="cls-2" d="M419.41,176.05S206.83,193.82,142.3,217.86.51,249.28.51,249.28"/><path class="cls-2" d="M.51,277.84s199.15-56.46,286.11-65.18,133.72-15.55,133.72-15.55"/><path class="cls-2" d="M419.41,225.42S138.07,239.24,10.79,298.28"/><path class="cls-2" d="M51.42,298.28s270.57-50.55,368.92-49"/><path class="cls-2" d="M419.41,274.46s-178.22,2.61-225.55,23.82"/><path class="cls-2" d="M109.63,203.82A64.63,64.63,0,1,1,144.47,214a64.59,64.59,0,0,1-34.84-10.19"/><path class="cls-2" d="M209,145.07l-11.18,2-18.05-1.83s-43.9,3.51-53,6.34-29-6.34-29-6.34,1.3-12.68,2-20.49S128,106.09,128,106.09a23.42,23.42,0,0,1,5.3-10.42c4.19-4.46,22.45-9.92,22.45-9.92"/><path class="cls-2" d="M132.51,150.29s3.68-15.92,16.33-18.89,23.63-5.33,32.19-10.16,21.63,0,21.63,0,14.64-.82,17.62,1.22,18.23,3.39,20.65,5.23,7.52,5.34,7.52,5.34"/><path class="cls-2" d="M111.72,150.29l6-18.19s7.59-9.71,13.68-11.43c9.33-2.63,10-3.94,19.72-12,9.05-7.48,24.93-10.86,35.91-8"/><path class="cls-2" d="M143.11,148.79a120.7,120.7,0,0,1,23.12-14.1c13.86-6.25,26.44-6.54,31.73-5.17h8"/><path class="cls-2" d="M152.33,147.74l27.86-10.48,27.24-2.51s12.85-2.42,16,0S234,138.82,234,138.82"/><path class="cls-1" d="M208.23,140.27s-19.37-1.73-32,5.21"/><path class="cls-2" d="M209,142.8c-18.77-.32-22,3.12-22,3.12"/><path class="cls-2" d="M187,100.71s26.14-2.78,32.84,0A62.4,62.4,0,0,0,231,104.33s28.74-4,30.14,2.31,27.35,7.17,17.58,15.27-38.79,12.78-38.79,12.78l-9.4,6.56L209,142.8"/><path class="cls-2" d="M208.23,138.82s18.19.55,19.68,2.43"/><path class="cls-2" d="M205.36,127.69s15.29.17,20.5,3S239,135.32,239,135.32"/><path class="cls-2" d="M197.52,112.48s37.39,1.59,41.49,6.43,22,10.94,22,10.94"/><path class="cls-2" d="M273.6,125.1s-17-6.85-22.44-12.62-17.3-1-23.25-2.11-19.6-5.06-34.75-3.48"/><path class="cls-1" d="M194.14,146.65s6-2.41,10.83-.88"/><path class="cls-2" d="M208,137.62c-1.4.47-15.63-.51-20.38,1.2s-7.12-.41-22.68,7.66"/><path class="cls-2" d="M206.75,132.1s-16.59-1.59-26,1.57-23.15,5.45-31.95,14.46"/><path class="cls-2" d="M204.37,125.1s-13.86-3.75-27.07,1.64-30,10.35-33.11,14a47.36,47.36,0,0,0-5.66,8.67"/><path class="cls-2" d="M122.05,152.07s3.53-14.23,6.6-16.75S158.13,120.7,165,119.58s20.87-9.18,32.55-7.1"/><path class="cls-2" d="M233.46.5s-.76,2.15-22.37,12.94-62.25,8.65-72.3,9.4S126.08,32.34,124.05,38c-4,11-23.07,12.65-48,10.79S45.54,54.37,36.61,62.56,2.37,72.23.5,72.23c0,0,18.62-12.65,31.08-16.37a159.44,159.44,0,0,1,21.08-4.93"/><path class="cls-2" d="M.5,65.39s7.08-6.93,28.29-16.6C51.05,38.64,51.54,36.12,73.07,36.37c16.19.18,26.85-21.07,54.73-21.07S189,19.9,189,19.9"/><path class="cls-2" d="M.5,55.86S35.86,24.6,58.93,22.74s39.8-21.58,75.16-18.6,77,9.3,77,9.3"/><path class="cls-2" d="M80.46,49c16.75-2.47,25.34-24.1,50.24-23"/><path class="cls-2" d="M.5,38.93A60.58,60.58,0,0,1,36,15.3C60,9.72,87.11.5,87.11.5"/><path class="cls-2" d="M.5,11.12S8.89.5,27.86.5"/><path class="cls-2" d="M211.09.5s9,2.15,13.88,5.66"/><path class="cls-2" d="M16.36,70.38s19.1-9.33,22.56-10"/><path class="cls-2" d="M98.73,49.27S114.93,39.12,124.05,38"/></svg>