<svg id="Layer_1" data-name="Layer 1" xmlns="http://www.w3.org/2000/svg" viewBox="0 0 420.46 298.77"><defs><style>.cls-1,.cls-2{stroke:#f4f1ce;stroke-linejoin:round;}.cls-2{fill:none;}</style></defs><title>caveinner</title><rect class="cls-1" x="0.5" y="0.5" width="419.46" height="297.77"/><path class="cls-2" d="M211,203.82a64.63,64.63,0,1,0-29.78-54.44A64.29,64.29,0,0,0,211,203.82"/><path class="cls-2" d="M214.39,298.27s1.51-24.83,15-39.37C243.12,244,232,216.85,243.2,193c8.2-17.44,29.53-20.1,33.79-35.17s1.87-26.79,19.82-32.65,30.12-9.21,30.31-33.49,5.49-22.21,15-33.29S326.19,29.13,353.58.5"/><path class="cls-2" d="M1.06,206.5s1-17.26,10.39-27.36c9.57-10.35,1.81-29.22,9.63-45.84,5.69-12.12,20.52-14,23.48-24.43s1.3-18.62,13.77-22.69,20.94-6.4,21.06-23.28S83.21,47.47,89.8,39.77s-11-20.31,8-40.21"/><path class="cls-2" d="M310.45,145.78s20.11-2.23,28.3-17.48S340.23,96.67,351,84.76,376,75.09,380.42,55.37,371.12,19.68,390.84.5"/><path class="cls-2" d="M279.58,298.27s-7.44-19.65,10.79-30.44,19-35.46,18.61-53.82,13.77-21.71,22.32-39.2,6.32-18.24,19.35-23.44,24.19-4.84,29.4-26.79.37-25.31,14.51-30.52S420,73.23,420,57.23c0,0-21.77,1.76-43,20.46s-22.61,27.07-40.75,68.09"/><path class="cls-2" d="M306.64,298.27s3.08-37.88,31.36-42,12.28-37.21,18.23-51,17.49-14.88,34.61-18.61,13-31.62,18.23-40.93,11.27-11.9,11.27-11.9"/><path class="cls-2" d="M349,298.27s-1.34-18.53,18.38-28.21,16-27.16,23.44-40.55,29.5-22.33,29.5-22.33"/><path class="cls-2" d="M384.67,298.27s-2.76-17.79,9.89-25.23,26.17-15.63,25.78-26.42"/><path class="cls-2" d="M420,280.48s-3.82,12.88-13.49,17.79"/><path class="cls-2" d="M310.45,282s12.3-14.54,30.53-18.63,27.53-15.26,22.51-28.28c0,0-9.12-23.82,4.65-31.63s22-5.58,34.25-9.68,4.45-36.83,6.68-48"/><path class="cls-2" d="M339.86,298.27s-7.21-19.47,2.86-35.33"/><path class="cls-2" d="M364.16,246.62S376.73,244,382.68,228s1.66-26,37.28-30.49"/><path class="cls-2" d="M328.15,268.2s-7.26,19.21-5,30.07"/><path class="cls-2" d="M361.51,228s18.52-12.75,25.23-30.93"/><path class="cls-2" d="M409.5,168.11s3.16-13.77,10.85-16"/><path class="cls-2" d="M386.74,240.41S361.86,253.19,360,274.83"/><path class="cls-2" d="M337.57,287.18s9.45-10,16-28.52"/><path class="cls-2" d="M285.54,298.27s-4.1-18.67,7.44-23.44,26.31-14.81,29.71-30.44-10.48-31.81-2.24-54.42"/><path class="cls-2" d="M338.28,160.11s23.23-4.28,35.08-9.49c10.69-4.7,24.55-17.49,20.83-33.49s8.39-23.44,25.22-26.42"/><path class="cls-2" d="M317.81,205s29.58-13.8,31.21-47.09"/><path class="cls-2" d="M389.54,298.27s4.48-16.58,12.85-19.65,13.32-5,17.95-13.67"/><path class="cls-2" d="M396.79,298.27s10-17.46,23.56-23.44"/><path class="cls-2" d="M226,298.27S224.51,277,236.79,265s15.72-25,12.33-41.4L245.83,214"/><path class="cls-2" d="M238.15,298.27s-7.93-19.58,28.29-47c0,0,19.56-11.56,22.91-15.71s8.83-14.86.09-38.53"/><path class="cls-2" d="M259.57,212.54s6.39,29.89-2.06,46.12"/><path class="cls-2" d="M309,163.11s1.57-8.67,27.24-17.33,22.26-32.25,25.28-43.25c4.86-17.77,27.7-27.18,53.42-26.63"/><path class="cls-2" d="M413.21.5s-18.09,16.08-18.65,33.38,2.76,21.23-5,34.54"/><path class="cls-2" d="M420,27.46S420,43.1,404.94,61"/><path class="cls-2" d="M420.34,6s-13.87,19.26-15.4,34.88c-1.5,15.41-6.28,22.71-6.28,22.71"/><path class="cls-2" d="M284,201.55s6.29,12.53-5.9,26.45a53.8,53.8,0,0,0-11.64,23.31"/><path class="cls-2" d="M271,208.92s-2,13,3.86,23.2"/><path class="cls-2" d="M240.4,280.61s8.53-27.19,21.48-45"/><path class="cls-2" d="M365.54.5s-13.88,6.31-14.89,27,11.79,29.53,0,37.67c-8.25,5.69-10.61,6.42-13.29,21.49-3,17.07-5.05,29.86-14.67,35.72S307.16,129,307.16,129"/><path class="cls-2" d="M377.26.5s-5.86,11.33-5.58,19.42,5,45.14-8.6,56"/><path class="cls-2" d="M309.46,138s26.86-5.15,33.93-27.16"/><path class="cls-2" d="M374.12,7.84s-8.49,6.78-10.63,23,7.25,28.71-7.91,49.79"/><path class="cls-2" d="M322.69,232.94s-.17-24.27,20-35.43,5.33-26.75,20.77-34.4,30.93-7.28,37.89-21.42S402.57,109,420,105.23"/><path class="cls-2" d="M272.77,165.38s-15.61-68-75.28-58.87"/><path class="cls-2" d="M273,90.71c8.43,6.33,5.24,30.24,1.91,34.7s-4.37,25.87-4.37,25.87"/><path class="cls-2" d="M264.24,87.43s12.32,10.48,8.53,18.23-6.92,6.8-6.33,13.84-1.88,19.77-1.88,19.77"/><path class="cls-2" d="M254.22,85.3a20.54,20.54,0,0,0,7.67,12.48c6.53,4.75-3,12.28-4.38,19.54s-1.05,10.14-1.05,10.14"/><path class="cls-2" d="M250.35,121.3c-1.45-8.36,1.05-16.82,2.44-23s-7-13.58-7-13.58"/><path class="cls-2" d="M238.15,114a17.08,17.08,0,0,1,6-13.11c6.42-5.3-3.74-15.55-3.74-15.55"/><path class="cls-2" d="M235.13,85.65a28.68,28.68,0,0,0,0,11c1.2,5.86-6.13,12.74-6.13,12.74"/><path class="cls-2" d="M223.87,88.59s-4.91,7.59,0,19.14"/><path class="cls-2" d="M214.7,92.74s2.88,7.19-.31,13.23"/><path class="cls-2" d="M207.26,97.53s-2.47,3.7,1.72,7.7"/><path class="cls-2" d="M203.39,105.84a67.75,67.75,0,0,1-12.69,9.82"/><path class="cls-2" d="M185,127.46s7.06-5.37,12-4.54,21.8-8.88,20.31-16.58"/><path class="cls-2" d="M182,139.27s8.15-4.34,24.54-8.26S226,108.34,226,108.34"/><path class="cls-2" d="M235.13,112.23S229.35,118,228,129s-17.59,20.26-46.75,23.14"/><path class="cls-2" d="M247.13,120.76s-14,14.14-18.13,23.63-12.21,17.21-20,15.72-21-4.56-26.85.18"/><path class="cls-2" d="M259.7,135.74s-13.28.37-19.3,4.79-10.82,26.46-26,27.58-24.41-5-30.12,1"/><path class="cls-2" d="M188.9,180s35.93,8.79,48.51-7.4,12.43-21.3,28-26.79"/><path class="cls-2" d="M270.49,157.86a57.21,57.21,0,0,0-20.14,12.76c-9.28,9.21-17.85,21.75-32.89,24.18S195.55,190,195.55,190"/><path class="cls-2" d="M274.86,163.11s-11.51-39.55-34.46-47.69"/><path class="cls-2" d="M226,210.88s-49.06-13.81-88.68,66.62"/><path class="cls-2" d="M206.54,210.92s-34.12-25.32-56.82-3.74-19.35,48-16.74,63.63,23.07,3,38.32-2.61,33.21-7.81,38.93-18.6S206.54,210.92,206.54,210.92Z"/><path class="cls-2" d="M161,136.38s-11.72-39.76-93.76-3.11c0,0-2.48,4.93,9.48,14.27s36.28,46.54,61.4,38.37,33.49-22.13,33.49-22.13Z"/><path class="cls-2" d="M72,135.74S161.35,153.86,185,171.31"/></svg>