<svg id="Layer_1" data-name="Layer 1" xmlns="http://www.w3.org/2000/svg" viewBox="0 0 420.46 300.35"><defs><style>.cls-1,.cls-2{stroke:#f4f1ce;stroke-linejoin:round;}.cls-2{fill:none;}</style></defs><title>caveinner</title><rect class="cls-1" x="0.5" y="0.5" width="419.46" height="299.35"/><path class="cls-1" d="M.13,254.66s8.42-14.88,14-17.11a86.93,86.93,0,0,1,13.4-3.72s13-8.56,13.76-9.68S67.71,176.52,68.08,175s52.84-11.64,52.84-11.64l26.79-30.08,25.68-16.69s21.21-12.28,30.14-13.4,35,0,35,0l32.38-30.51a72.47,72.47,0,0,1,27.53-15c16.74-4.75,51-16.66,51-16.66L374.32.5"/><path class="cls-2" d="M.13,274s35.4-14.51,47.68-12.28,41.86,6,41.86,6l25.67-13.09,45.21-19.72s44.09-5.58,46.33-5S242,195.31,242,195.31V184.15l30.7-31.25,37.95-20.1,49.67,10,45.77-23.44,13.46-22.89"/><polyline class="cls-1" points="0.13 218.76 26.04 203.69 34.97 180.24 57.29 154.01 98.6 145.64 137.67 115.5"/><polyline class="cls-2" points="66.78 127.58 88.55 92.06 116.46 70.29 150.5 70.29 169.48 81.45 191.25 65.83 204.09 47.41 233.11 38.48 251.53 23.41"/><path class="cls-2" d="M110.88,106.57s35.16-1.12,40.74-6.14,31.26-3.91,31.26-3.91l64.74-24,20.09-32.37L339.71.5"/><polyline class="cls-1" points="101.94 110.48 81.85 132.8 33.29 152.34 15.99 197.55 0.13 209.27"/><polyline class="cls-2" points="0.13 185.27 26.04 138.38 56.18 102.11 74.6 92.06 93.26 61.36 129.85 57.74"/><path class="cls-2" d="M.13,143.41l17-32.93,25.11-10L54.5,78.66,68.9,53.53l47-20.08S133.76.5,146,.5s75.9,7.28,75.9,7.28L246.5.5"/><path class="cls-2" d="M119.81,45.17s20.09-3.34,23.44-11.72,15.9-15.07,15.9-15.07,23.73,1.68,25.4,0,17.86-2.79,17.86-2.79"/><path class="cls-2" d="M151.06,53.53s22.33,7.84,25.68,4.21,33.12-27.36,33.12-27.36L271.62.5"/><polyline class="cls-2" points="161.11 37.15 177.85 37.15 219.15 17.83"/><path class="cls-2" d="M204.92,72,225.29,58.7l16.19-5.17s3.91-7.24,17.3-19a156.75,156.75,0,0,1,27.35-19L301.76.5"/><line class="cls-2" x1="119.81" y1="90.38" x2="146.04" y2="85.36"/><polyline class="cls-2" points="39.81 138.94 55.43 127.58 64.99 108.43"/><path class="cls-2" d="M266,64.15,283.9,47.41S301.76,36.93,307,37.15s17.86.77,28.28-6.77,13-12.55,13-12.55L355.34.5"/><path class="cls-2" d="M9.67,228.24,29,218.76s11.16-9.12,10.79-12.47S48.74,181,48.74,181"/><path class="cls-2" d="M61.39,168.71s8.18-9.12,25.67-8.84,26.05-4.18,26.05-4.18l12.65-14.14"/><path class="cls-2" d="M27.53,115.5s.37,11.91-5.58,17.86-21.82,29-21.82,29"/><polyline class="cls-2" points="131.34 0.5 118.32 15.59 107.15 20.99 93.57 33.64"/><path class="cls-2" d="M.13,117,19,96.52l17.86-6.14s-2.23-8,3-13.21A48.21,48.21,0,0,1,51,69"/><path class="cls-2" d="M155.9,221.17s-3-21.95,5.21-27.16,15.63-11.91,16.37-10.79a10.92,10.92,0,0,0,1.86,2.05S166.32,211.13,155.9,221.17Z"/><path class="cls-2" d="M193.48,204.8s-5.95-30.32,4.84-44.93l10.79-14.6h2.23s2.25,27.9-1.48,35.72S193.48,204.8,193.48,204.8Z"/><path class="cls-2" d="M132.92,222.61s-9.39-13.71-7.16-22.27,4.09-17.24,4.09-17.24h3.07s6.61,18,4.75,28S132.92,222.61,132.92,222.61Z"/><path class="cls-1" d="M124.22,236s3.68,13.42,20.14,13.14,19-2.51,19-2.51,1.4-3.65,0-4S142.79,231.9,138,233.14,124.22,236,124.22,236Z"/><polyline class="cls-1" points="163.96 245.27 140.46 242.48 124.22 236.03"/><path class="cls-1" d="M275.65,124.5s4.69,17.11,25.68,16.75,24.2-3.2,24.2-3.2,1.78-4.65,0-5.17-26.2-13.65-32.31-12.07S275.65,124.5,275.65,124.5Z"/><polyline class="cls-1" points="326.32 136.27 296.35 132.72 275.65 124.5"/><polyline class="cls-1" points="132.92 183.1 131.71 202.85 132.92 222.61"/><path class="cls-2" d="M268.2,132.5s-9.39-13.71-7.16-22.27S265.14,93,265.14,93h3.06s6.61,18,4.75,28S268.2,132.5,268.2,132.5Z"/><polyline class="cls-1" points="268.2 92.99 266.99 112.74 268.2 132.5"/><polyline class="cls-1" points="155.9 221.17 161.11 202.14 179.34 185.27"/><polyline class="cls-1" points="193.21 203.22 203.35 175.03 209.11 145.27"/><path class="cls-2" d="M290.31,112.06S285.93,89.74,293.88,79l7.94-10.75h1.65s1.65,20.55-1.1,26.3S290.31,112.06,290.31,112.06Z"/><polyline class="cls-1" points="290.11 110.9 297.58 90.15 301.82 68.23"/><path class="cls-1" d="M170.25,211.74s.9,17.65,10.11,21.4,12.85,5.43,12.85,5.43l1.94-2.54s-8.09-14.76-10.88-17.27S170.25,211.74,170.25,211.74Z"/><path class="cls-1" d="M187.74,204.62s6,15.51,15.61,18a73.31,73.31,0,0,0,15.8,2.55v-6.4s-7.53-8.93-12.83-9.49S187.74,204.62,187.74,204.62Z"/><polyline class="cls-1" points="170.25 211.74 180.92 226.57 194.28 237.17"/><path class="cls-1" d="M265,136s1.1,21.61,12.38,26.2,15.72,6.65,15.72,6.65l2.39-3.1s-9.91-18.08-13.33-21.16S265,136,265,136Z"/><polyline class="cls-1" points="265 135.97 278.06 154.13 294.42 167.11"/><polyline class="cls-1" points="188.33 204.8 203.88 216.31 219.15 221.97"/><path class="cls-1" d="M243.45,158.55s6,15.51,15.6,18a73.43,73.43,0,0,0,15.81,2.55v-6.4s-7.53-8.93-12.84-9.49S243.45,158.55,243.45,158.55Z"/><polyline class="cls-1" points="244.04 158.73 259.58 170.25 274.86 175.9"/><path class="cls-1" d="M216.57,206.31s5.93-13.79,15-15.88,31.26-6,31.26-6l2.23,5s-21.7,18.56-24.24,18.84S216.57,206.31,216.57,206.31Z"/><path class="cls-1" d="M233.6,222s-11.93,20.8-11,28.61,7.68,27.21,7.68,27.21,1,.7,3.9-.7,5.72-22.19,5.31-25.53S233.6,222,233.6,222Z"/><path class="cls-1" d="M247.12,242.44s18.5-14.61,28.41-13.36,26.09,5,26.09,5l1.12,4.47S280.55,250,276.36,248.62,247.12,242.44,247.12,242.44Z"/><path class="cls-1" d="M259.41,250.61s-1.47,23.26,10.12,28.56a134.93,134.93,0,0,0,25.25,8.1s2-3.07,1.54-3.35S287.81,271.22,280,268,259.41,250.61,259.41,250.61Z"/><path class="cls-1" d="M286.24,261s8.26-10.66,22.08-10.41A288.56,288.56,0,0,1,338,253.08l2.93,5.3S324.22,277.22,314.32,274,286.24,261,286.24,261Z"/><polyline class="cls-1" points="286.24 261.02 318.69 261.73 339.71 256.11"/><polyline class="cls-1" points="216.57 206.31 237.94 199.03 263.75 186.49"/><path class="cls-1" d="M363.07,101.29s5.93-13.79,15-15.88,31.25-6,31.25-6l2.24,5s-21.7,18.56-24.25,18.84S363.07,101.29,363.07,101.29Z"/><polyline class="cls-1" points="363.07 101.29 384.44 94.01 410.24 81.47"/><polyline class="cls-2" points="234.78 225.27 229.76 248.73 232.27 277.8"/><path class="cls-1" d="M355.55,100.76s-11.93,20.79-10.95,28.6,7.67,27.21,7.67,27.21,1,.7,3.91-.7,5.72-22.18,5.3-25.53S355.55,100.76,355.55,100.76Z"/><polyline class="cls-2" points="355.55 100.76 351.71 127.53 354.22 156.6"/><polyline class="cls-2" points="259.41 250.6 270.88 272.52 295.49 286.08"/><polyline class="cls-1" points="247.12 242.44 277.45 237.17 302.1 236.03"/><path class="cls-2" d="M232.07,218.76l25.78-7,28.39,3.51,1,3.51s-34.05,13-43.17,7.81S232.07,218.76,232.07,218.76Z"/><polyline class="cls-2" points="286.24 217.08 257.67 219.77 232.07 218.76"/><path class="cls-2" d="M122.05,241.11s-10.43-10.56-11.17-18.5-2-23.2-2-23.2h4.65s9.62,14.14,9.84,21.76S122.05,241.11,122.05,241.11Z"/><polyline class="cls-2" points="122.05 241.11 116.08 220.26 111.99 199.41"/><path class="cls-2" d="M113.19,255.76s-9.57-2.21-11.24-6.58-4.66-22.42-4.66-22.42H102s8.91,10.52,11.24,15.68,4.4,11.24,4.4,11.24,9.29-31,18.22-32.51,20.09,0,20.09,0,23.81-17.86,34.23-16.55,36.47-5.77,44.65,20.65,54.33,36.46,54.33,36.46"/><polyline class="cls-2" points="99.34 226.76 105.85 243.5 115.34 254.66"/><path class="cls-2" d="M158.6,236s-4.61-2.62-6.84-4.3-2.52-11.11-2.52-11.11,8.24,3,12.29,7.71,4,6,4,6"/><polyline class="cls-2" points="161.58 234.81 155.9 230.2 149.25 220.62"/><polyline class="cls-2" points="54.69 92.99 68.9 78.66 90.78 53.53 107.34 47.41"/><polyline class="cls-2" points="57.29 57.74 68.9 39.97 81.02 37.15"/><path class="cls-2" d="M.13,96.52,25.58,77.17,46.13,47.44S62.64,30.77,68.9,29.6s17-6.19,17-6.19"/><path class="cls-2" d="M97.29,17.07C94.5,17.27,119.81.5,119.81.5"/><polyline class="cls-2" points="0.13 79.41 15.99 71.95 27.53 55.59 39.81 42.94"/><polyline class="cls-2" points="46.88 32.33 52.4 20.62 66.78 17.83 82.6 8.79"/><path class="cls-2" d="M6.69,58.7S10.55,49,13.83,47.44s15.37-4.5,15.37-4.5L39.81,29.6"/><polyline class="cls-2" points="0.13 42.94 23.25 33.64 39.81 12.06 52.4 8.79"/><line class="cls-2" x1="61.39" y1="11.69" x2="74.78" y2="0.5"/><path class="cls-2" d="M37.2.5s-14.14,6.35-14,9.7-5.4,10.36-5.4,10.36L.13,23.41"/><line class="cls-2" x1="0.13" y1="32.33" x2="11.9" y2="30.38"/><polyline class="cls-2" points="13.83 0.5 9.67 8.79 0.13 11.95"/><path class="cls-2" d="M127.62,29.6c-.37,1.43,19.72-16.43,23.44-17.91s16.56-2.9,16.56-2.9"/><path class="cls-2" d="M207.28,204.8s14.38-38.14,32.29-44.93,38.75-48.46,53.63-47.72,64.52-21.64,85.58-5.58,40.81,40.56,40.81,40.56"/><path class="cls-1" d="M223.45,174.24s4,16.23,16.12,17.17,28.63,0,28.63,0L266,182.29s-18.79-11.53-27.54-9.67A67.61,67.61,0,0,1,223.45,174.24Z"/><polyline class="cls-1" points="223.45 174.24 242.04 184.15 268.2 191.41"/><path class="cls-2" d="M203.56,152.78l2.76-24,5-1.17s10.58,20.85,11.25,28.29-6,28.56-6,28.56c-.21-1.4-5.23-10.19-5.23-10.19"/><polyline class="cls-2" points="216.36 183.03 215.25 156.01 209.11 128.1"/><path class="cls-2" d="M230.32,166.16s-3.63-22.75-.7-27.22,7.53-18.26,7.53-18.26h4.47s3.66,22.45,1.83,26.63S230.32,166.16,230.32,166.16Z"/><polyline class="cls-2" points="230.83 165.5 237.85 137.55 239.25 120.68"/><path class="cls-2" d="M254.9,147.88s-6.58-21.31-6.72-24.19,3.35-25.49,3.35-25.49h3.37s6.06,22.41,4.55,29.9S254.9,147.88,254.9,147.88Z"/><polyline class="cls-2" points="254.9 147.88 254.74 121.5 252.97 98.2"/><path class="cls-2" d="M310.69,109.14s.93-21.33,7.44-27.67,16.19-16,16.19-16l4.46,2.78S337.11,89.64,332.46,93,310.69,109.14,310.69,109.14Z"/><path class="cls-2" d="M338.78,102.63s4.47-27.32,10.79-32.34,23.26-13.77,23.26-13.77L376,58.7s-5.39,23.83-11.72,28.6S338.78,102.63,338.78,102.63Z"/><polyline class="cls-2" points="310.69 108.06 324.74 90.15 337.08 67.17"/><polyline class="cls-2" points="338.78 102.63 353.03 77.92 373.77 57.17"/><line class="cls-2" x1="306.6" y1="110.13" x2="315.46" y2="128.1"/><path class="cls-2" d="M306.6,110.13s23.07,3.14,26,7.6,7.07,20.94,7.07,20.94"/><polyline class="cls-2" points="306.6 110.13 326.32 123.04 335.26 137.77"/><path class="cls-1" d="M368.92,102.63s-6.7,17.31-5,25,5,26.25,5,26.25l3.91,2.18s10.79-26.6,8-31.51S368.92,102.63,368.92,102.63Z"/><polyline class="cls-1" points="368.89 103.29 372.92 129.32 370.96 154.96"/><path class="cls-1" d="M391.88,117.66s-9.43,25.93-4.57,36.54S399.62,178,399.62,178l5.95-3.77s.37-22.83-2-29S391.88,117.66,391.88,117.66Z"/><polyline class="cls-1" points="392.51 119.11 392.92 145.27 402.95 175.9"/><path class="cls-1" d="M387.31,113.55s11.94-10,19.38-10.26a47.68,47.68,0,0,1,12.9,1.23V120S407.75,121.66,387.31,113.55Z"/><polyline class="cls-1" points="387.31 113.56 407.99 110.9 419.59 112.23"/><path class="cls-2" d="M419.59,183l-6.84,8.79-3.46-.41s.93-25.68.95-29,6-19.29,6-19.29l3.38,9.69"/><polyline class="cls-2" points="411.56 191.82 416.55 166.16 416.21 143.09"/><path class="cls-2" d="M419.59,129.13s-12.12-.69-16.14.19c0,0,14.16,12.4,16.14,11.94"/><line class="cls-2" x1="419.59" y1="135.07" x2="404.69" y2="130.39"/><path class="cls-2" d="M144.09,220.52s.8-23.25,11.28-36.09-1.52-55.11-1.52-55.11"/><path class="cls-2" d="M147.82,199.41S137.11,184.67,136,175.9s-1.39-19.3-1.39-19.3L138,156s11.1,10.25,11.24,16.4S147.82,199.41,147.82,199.41Z"/><path class="cls-2" d="M156.35,183s9.5-19.81,15.64-19.25a145.45,145.45,0,0,0,16.34,0l-1.11,6.71s-14.24,9.88-17,11.64S156.35,183,156.35,183Z"/><path class="cls-2" d="M158.91,155s1.3-12.5,8.45-17.19S187.74,123,187.74,123l4.1,3.34s-9.62,23.28-12.5,26S158.91,155,158.91,155Z"/><path class="cls-2" d="M159.66,168.82a30.12,30.12,0,0,1-12-12.22,62.17,62.17,0,0,1-5.69-16.79l4.11-4.74S155.69,137.85,159.66,168.82Z"/><polyline class="cls-2" points="143.74 137.77 151.88 151.54 159.66 168.82"/><polyline class="cls-2" points="158.91 154.96 175.38 145.27 189.54 124.5"/><polyline class="cls-2" points="136.27 156.6 143.74 174.24 147.82 199.41"/><polyline class="cls-2" points="156.35 183.03 171.15 172.41 187.72 167.46"/><path class="cls-2" d="M150.45,248.59c-4.77,27.39-26.9,49-55,51.16-33.45,2.55-62.7-23.42-65.34-58a65.43,65.43,0,0,1,0-9.9"/><path class="cls-2" d="M138.08,207.59a60.58,60.58,0,0,1,7.68,26.54"/><path class="cls-2" d="M63.1,184.29a55.67,55.67,0,0,1,63.73,9"/></svg>