<svg id="Layer_1" data-name="Layer 1" xmlns="http://www.w3.org/2000/svg" viewBox="0 0 438.53 262.5"><defs><style>.cls-1,.cls-2,.cls-3{stroke:#efd9ce;}.cls-1,.cls-2{stroke-linejoin:round;}.cls-2,.cls-3{fill:none;}.cls-3{stroke-miterlimit:10;}</style></defs><title>cavetunnel</title><rect class="cls-1" x="0.5" y="0.5" width="437.53" height="261.5"/><path class="cls-2" d="M18.31.5S36.14,164.66,198.57,168,376.08.5,376.08.5"/><path class="cls-2" d="M35.05.5S51.22,142.15,198.45,145,359.33.5,359.33.5"/><line class="cls-1" x1="355.47" y1="43.86" x2="221.19" y2="0.5"/><line class="cls-2" x1="336.87" y1="80.68" x2="213.66" y2="0.5"/><line class="cls-2" x1="311.47" y1="112.09" x2="206.96" y2="0.5"/><line class="cls-2" x1="198.79" y1="150.99" x2="197.19" y2="0.5"/><line class="cls-2" x1="201.1" y1="0.5" x2="235.98" y2="147.22"/><line class="cls-2" x1="277.23" y1="134.8" x2="203.89" y2="0.5"/><line class="cls-2" x1="158.81" y1="145.77" x2="193.19" y2="0.5"/><line class="cls-2" x1="189.47" y1="0.5" x2="115.31" y2="131"/><line class="cls-2" x1="186.12" y1="0.5" x2="86.5" y2="111.19"/><line class="cls-2" x1="180.17" y1="0.5" x2="64.56" y2="85.63"/><line class="cls-2" x1="173.1" y1="0.5" x2="45.86" y2="52.39"/><line class="cls-2" x1="158.96" y1="0.5" x2="33.94" y2="19.68"/><path class="cls-1" d="M137.2,169.68s54.88-6,67.16-4.83,18.23.74,25.67-1.86,51.72,3.35,51.72,3.35l20.47-.33,6.32,2.05"/><path class="cls-1" d="M335.93,173.5s4.66-1.93,8.93-1,9.49-1.84,9.49-1.84,8.19,0,8.93,0,6.06-1,6.06-1"/><path class="cls-2" d="M79.93,219.6s4.56-4.68,6.7-7.08c1.92-2.15,7.91,1.24,7.91,1.24s4.5,5.6,6.38,5.6,3.78,4.81,3.78,4.81a44.47,44.47,0,0,0-6.08,2c-3.91,1.49-9.21.36-9.21.36S76.69,226.64,79.93,219.6Z"/><path class="cls-1" d="M66.72,207.32s-3.91-4.72-5.21-4.26-7.63.88-8,2.12-3.9,4.12-1.11,4.73,2.84,1.64,6.63,1.89S66.72,207.32,66.72,207.32Z"/><path class="cls-3" d="M29.47.5S39,62.08,81.33,106.17,198.79,151,198.79,151s94.27,2.66,135.43-66.71c0,0,24-29.15,32.37-83.78"/><path class="cls-1" d="M124.23,152.49c-4.71.08-7.87,1.38-15.69,3.61s-4.65-1.49-13.21,1.12"/><path class="cls-1" d="M354.34,163.76s-6.33-2-11.54,0-8.74,3.21-8.74,3.21.18-2.54-5-.46a44.18,44.18,0,0,1-8.93,2.65"/><path class="cls-1" d="M274.34,154.2s4.39,3.14,14,1.05"/><path class="cls-1" d="M298.36,149a25,25,0,0,1,12.11,0c7,1.63,10,2,10,2s4.87-3.69,7-2.74,8.36,1.29,8.36,1.29L342,151"/><path class="cls-1" d="M297.57,158.71s9.48-1.31,11,0,6.51,1.67,6.51,1.67l6-1.12,4.46,1.12"/><path class="cls-1" d="M289.12,176.49s9.59-2.66,13-1.11c6.53,2.93,10.74,1.76,10.74,1.76s5.4-2,9.15-.26,5.93,2.65,5.93,2.65"/><path class="cls-1" d="M260.21,175.34s4.46-3,15.62-1.5"/></svg>