<?xml version="1.0" encoding="utf-8"?>
<!-- Generator: Adobe Illustrator 23.0.0, SVG Export Plug-In . SVG Version: 6.00 Build 0)  -->
<svg version="1.1" id="Layer_1" xmlns="http://www.w3.org/2000/svg" xmlns:xlink="http://www.w3.org/1999/xlink" x="0px" y="0px"
	 viewBox="0 0 752.7 487.5" style="enable-background:new 0 0 752.7 487.5;" xml:space="preserve">
<style type="text/css">
	.st0{fill:#F4F1CE;}
	.st1{fill:none;stroke:#000000;stroke-linejoin:round;}
	.st2{fill:none;stroke:#000000;stroke-miterlimit:10;}
	.st3{enable-background:new    ;}
</style>
<title>comic</title>
<rect x="0.5" y="0.5" class="st0" width="751.7" height="486.5"/>
<rect x="142.3" y="35.5" class="st1" width="212.2" height="391.5"/>
<rect x="405.3" y="35.5" class="st1" width="212.2" height="391.5"/>
<line class="st1" x1="378" y1="0.5" x2="378" y2="487"/>
<path d="M239.3,353.1c0-0.2,0.1-0.5,0.1-0.7c1.9-14.6,3.7-29.1,5.6-43.7c0.9-7.4,1.6-14.4,3.1-21.8c0-0.6,0.3-1.1,0.7-1.5
	c0.7-0.4,1.5-0.3,2.2,0.1c5.4,2.5,5.7,8.2,6.8,13.5c4,19.8,4.5,40.6,11.7,59.7c0.6,2,1.7,3.7,3.2,5.1c1.6,1.3,4.2,1.7,5.8,0.3
	c2.1-1.2-1.5-29.6-1.7-33.2l-1.7-33.2l-1.7-33.2c-0.5-9.6-1.8-16.6,1.1-25.9c0.2-0.7,0.6-1.5,1.3-1.6c0.3,0,0.6,0,0.9,0.2
	c5.4,2,8.9,7.3,10.4,12.8s1.5,11.3,1.9,17c0,2.1,0.5,4.1,1.3,6c0.9,1.9,2.8,3.1,4.9,3.2c0.5,0,1.1-0.2,1.5-0.5
	c0.7-0.8,1-1.9,0.8-2.9l-0.9-22c-0.7-17.4-13.5-35.6-27.6-45.4c-7.2-5-19-9-17.7-19.4c1.1-8.9,7.6-18.7-5.9-21.7
	c-6.7-1.5-14.4-0.4-19,4.8c-3.8,4.3-3.8,9.3,0.2,13.7c2.1,2.1,4.4,4,6.8,5.6c4.4,3.3,8.9,9.6,4.1,14.3s-12.4,5.2-17.3,9.7
	c-11.2,10.2-12,26.5-12.4,40.6c-0.2,6.1-0.2,12.6,3.1,17.7c0.9,1.3,2.4,2.5,3.8,1.9c2.9-6.2,2.5-13.3,3.5-20
	c0.8-5.8,2.9-11.3,6-16.2c3.2-4.8,6.5-2.2,7.2,3c1.7,14.1-0.7,28.3-1.7,42.5c-1.6,22.2,0.1,44.4,1.9,66.6c0.2,2.1,0.4,4.4,1.8,6.1
	s4.4,2.1,5.6,0.3C239,354.3,239.2,353.7,239.3,353.1z"/>
<path d="M515.9,327c-9.1-9.8-26.5-1.3-27.2,11.2c0,1.2-0.1,2.3-0.4,3.5c-0.9,2.4-3.7,3.3-6.1,4.2c-3.4,1.1-6.8,2.7-9,5.4
	s-3.2,6.9-1.3,9.9c2.2,3.5,7.1,4,11.2,3.9c5.9-0.2,11.8-1.3,17.6-0.5c5,0.6,9.8,2.5,14.7,3.5s10.3,1.2,14.7-1.3
	c1.8-1,3.3-2.5,5.1-3.5c6.6-3.7,15.7-0.7,21.8-5.1c1.8-1.3,3.2-3.7,2.3-5.7c-0.5-0.9-1.2-1.6-2.1-2.1c-6.5-4.6-13.8-7.9-21.5-10
	c-4.7-1.2-9.8-2.1-13.4-5.4C519.8,332.6,518.2,329.4,515.9,327z"/>
<line class="st2" x1="405" y1="317.5" x2="618" y2="317.5"/>
<line class="st2" x1="354" y1="317.5" x2="142" y2="317.5"/>
<path class="st1" d="M242,142l7.1,0.1c2.6,0.2,5.2,0.1,7.8-0.3c9.4-1.6,14.7-9.4,16.7-18.2c1.4-5.9,2.1-11.9,2-18
	c-0.1-3-0.5-6.1-2.1-8.6c-3.2-5-10-6.2-16-6.7c-14.3-1.2-28.7-1.1-43-1c-6.1,0-12.6,0.1-17.9,3.1c-4.9,2.8-8.4,7.8-10.2,13.1
	c-3.6,10.2-4.3,25.9,7.4,31.4c2.3,1.1,4.7,1,7.1,1.6c2.6,0.6,5.3,1.4,7.9,2.1c3.5,0.9,6.1,2.5,6.7,6.3c0.3,1.3,0,2.7-0.7,3.8
	c-0.5,0.6-1,1.1-1.6,1.5c-3.5,2.8-6.6,5-8.3,9.2c-1.4,3.6-1.8,7.6-0.9,11.4c1.2,5.2,8.1,9.6,14.2,8.5c-1.9,0.4-6.8-2.8-7.8-3.9
	c-2.2-2.1-2.7-4.8-2.5-7.8c0.2-3.2,1.9-6.1,4.6-7.7c2.6-1.7,5.7-2.6,7.9-4.8c1.6-1.8,2.6-4,3.1-6.4c0.7-2.8,1.2-5.9,3.4-7.6
	c1.9-1.4,4.4-1.5,6.7-1.4L242,142z"/>
<g class="st3">
	<path d="M210.3,113.6v-1.4h1.2v1.4H210.3z M210.3,122.2V115h1.2v7.3H210.3z"/>
</g>
<g class="st3">
	<path d="M213.6,113.5v-1.4h1.3v1.1c0,0.6-0.1,1.1-0.2,1.3c-0.2,0.4-0.5,0.6-0.9,0.8l-0.3-0.5c0.2-0.1,0.4-0.3,0.6-0.5
		c0.1-0.2,0.2-0.5,0.2-0.9H213.6z"/>
</g>
<g class="st3">
	<path d="M216.1,122.2V115h1.1v1c0.2-0.4,0.5-0.6,0.9-0.9c0.4-0.2,0.8-0.3,1.3-0.3c0.5,0,1,0.1,1.3,0.3s0.6,0.5,0.7,0.9
		c0.6-0.8,1.3-1.3,2.2-1.3c0.7,0,1.3,0.2,1.7,0.6c0.4,0.4,0.6,1,0.6,1.8v5h-1.2v-4.6c0-0.5,0-0.8-0.1-1.1c-0.1-0.2-0.2-0.4-0.4-0.5
		s-0.5-0.2-0.7-0.2c-0.5,0-0.9,0.2-1.3,0.5c-0.3,0.3-0.5,0.9-0.5,1.6v4.2h-1.2v-4.7c0-0.5-0.1-1-0.3-1.2s-0.5-0.4-1-0.4
		c-0.3,0-0.7,0.1-1,0.3s-0.5,0.4-0.6,0.8s-0.2,0.9-0.2,1.5v3.8H216.1z"/>
	<path d="M231.1,118.6c0-1.3,0.4-2.3,1.1-3c0.6-0.5,1.4-0.8,2.3-0.8c1,0,1.8,0.3,2.4,1c0.6,0.7,1,1.6,1,2.7c0,0.9-0.1,1.7-0.4,2.2
		c-0.3,0.5-0.7,1-1.2,1.2s-1.1,0.4-1.8,0.4c-1,0-1.8-0.3-2.5-1S231.1,119.8,231.1,118.6z M232.4,118.6c0,0.9,0.2,1.6,0.6,2.1
		c0.4,0.5,0.9,0.7,1.5,0.7c0.6,0,1.1-0.2,1.5-0.7s0.6-1.2,0.6-2.1c0-0.9-0.2-1.6-0.6-2c-0.4-0.5-0.9-0.7-1.5-0.7
		c-0.6,0-1.1,0.2-1.5,0.7S232.4,117.7,232.4,118.6z"/>
	<path d="M239.4,122.2v-10h1.2v5.7l2.9-3h1.6l-2.8,2.7l3.1,4.6h-1.5l-2.4-3.7l-0.9,0.8v2.9H239.4z"/>
</g>
</svg>
