<?xml version="1.0" encoding="utf-8"?>
<!-- Generator: Adobe Illustrator 23.0.0, SVG Export Plug-In . SVG Version: 6.00 Build 0)  -->
<svg version="1.1" id="Layer_1" xmlns="http://www.w3.org/2000/svg" xmlns:xlink="http://www.w3.org/1999/xlink" x="0px" y="0px"
	 viewBox="0 0 619.5 608.5" style="enable-background:new 0 0 619.5 608.5;" xml:space="preserve">
<style type="text/css">
	.st0{fill:#F4F1CE;}
	.st1{fill:#F4F1CE;stroke:#000000;stroke-linejoin:round;}
	.st2{fill:none;stroke:#000000;stroke-linejoin:round;}
	.st3{enable-background:new    ;}
</style>
<title>comic</title>
<rect x="0.5" y="0.5" class="st0" width="618.5" height="607.5"/>
<rect x="38.5" y="36.5" class="st1" width="237.4" height="247.8"/>
<rect x="343.4" y="34.5" class="st1" width="237.4" height="247.8"/>
<rect x="38.5" y="315.2" class="st1" width="237.4" height="247.8"/>
<rect x="343.4" y="313.2" class="st1" width="237.4" height="247.8"/>
<line class="st2" x1="310" y1="0.5" x2="310" y2="607.5"/>
<path d="M72.2,284.1v-26.9c0-7.8,0.3-16.3,5.6-22c3.8-4.1,9.8-6.1,12.3-11.1c2.8-5.3,0.6-11.7,0.2-17.7c-0.5-7.2,2.1-14.7,7.6-19.4
	s14-5.8,20.1-1.9s8.5,12.9,4.5,18.9c-1.7,2.5-4.2,4.3-6.3,6.5s-3.7,5.3-2.8,8.2c0.7,2.4,2.9,4.1,4.9,5.7c8,6.9,12.6,17.2,14.6,27.6
	s1.7,21.2,1.3,31.8"/>
<path d="M179.5,283.7c1.5-14.3,3.2-29.1,11.5-41.7c3-4.5,6.9-9.1,6.3-14.3c-0.5-4.9-5-8.8-8-13c-3.3-4.6-4.8-10.2-4.4-15.8
	c0.1-3.1,1.4-6,3.6-8.2c5.4-4.9,16.1-2.9,20.6,2.6s4.1,12.9,1.8,19.2c-1.4,3.9-3.3,8.5-0.3,11.7c2,2.1,5.5,2.7,8.4,4
	c6.7,2.8,10.3,9,13,14.8c5.9,12.8,9.8,26.6,11.3,40.6"/>
<path d="M376.2,282.1v-26.9c0-7.8,0.3-16.3,5.6-22c3.8-4.1,9.8-6.1,12.4-11.1c2.8-5.3,0.6-11.7,0.2-17.7c-0.5-7.2,2.1-14.7,7.6-19.4
	s14-5.8,20.1-1.9s8.5,12.9,4.5,18.9c-1.7,2.5-4.2,4.3-6.3,6.5s-3.7,5.3-2.8,8.2c0.7,2.4,2.9,4.1,4.9,5.7c8,6.9,12.6,17.2,14.6,27.6
	s1.7,21.2,1.3,31.8"/>
<path d="M483.5,281.7c1.5-14.3,3.2-29.1,11.5-41.7c3-4.5,6.9-9.1,6.3-14.3c-0.5-4.9-5-8.8-8-13c-3.3-4.6-4.8-10.2-4.4-15.8
	c0.1-3.1,1.4-6,3.6-8.2c5.4-4.9,16.1-2.9,20.6,2.6s4.1,12.9,1.8,19.2c-1.4,3.9-3.3,8.5-0.3,11.7c2,2.1,5.5,2.7,8.4,4
	c6.7,2.8,10.3,9,13,14.8c5.9,12.8,9.8,26.6,11.3,40.6"/>
<path d="M71.2,563.1v-26.9c0-7.8,0.3-16.3,5.6-22c3.8-4.1,9.8-6.1,12.3-11.1c2.8-5.3,0.6-11.7,0.2-17.7c-0.5-7.2,2.1-14.7,7.6-19.4
	s14-5.8,20.1-1.9s8.5,12.9,4.5,18.9c-1.7,2.5-4.2,4.3-6.3,6.5s-3.7,5.3-2.8,8.2c0.7,2.4,2.9,4.1,4.9,5.7c8,7,12.6,17.2,14.6,27.6
	s1.7,21.2,1.3,31.8"/>
<path d="M178.5,562.7c1.5-14.3,3.2-29.1,11.5-41.7c3-4.5,6.9-9.1,6.3-14.3c-0.5-4.9-5-8.8-8-13c-3.3-4.6-4.8-10.2-4.4-15.8
	c0.1-3.1,1.4-6,3.6-8.2c5.4-4.9,16.1-2.9,20.6,2.6s4.1,12.9,1.8,19.2c-1.4,3.9-3.3,8.5-0.3,11.7c2,2.1,5.5,2.7,8.4,4
	c6.7,2.8,10.3,9,13,14.8c5.9,12.8,9.8,26.6,11.3,40.6"/>
<path d="M376.2,562.1v-26.9c0-7.8,0.3-16.3,5.6-22c3.8-4.1,9.8-6.1,12.4-11.1c2.8-5.3,0.6-11.7,0.2-17.7c-0.5-7.2,2.1-14.7,7.6-19.4
	s14-5.8,20.1-1.9s8.5,12.9,4.5,18.9c-1.7,2.5-4.2,4.3-6.3,6.5s-3.7,5.3-2.8,8.2c0.7,2.4,2.9,4.1,4.9,5.7c8,7,12.6,17.2,14.6,27.6
	s1.7,21.2,1.3,31.8"/>
<path d="M483.5,561.7c1.5-14.3,3.2-29.1,11.5-41.7c3-4.5,6.9-9.1,6.3-14.3c-0.5-4.9-5-8.8-8-13c-3.3-4.6-4.8-10.2-4.4-15.8
	c0.1-3.1,1.4-6,3.6-8.2c5.4-4.9,16.1-2.9,20.6,2.6s4.1,12.9,1.8,19.2c-1.4,3.9-3.3,8.5-0.3,11.7c2,2.1,5.5,2.7,8.4,4
	c6.7,2.8,10.3,9,13,14.8c5.9,12.8,9.8,26.6,11.3,40.6"/>
<path class="st2" d="M187.2,129.3v7.8c0.1,2.3-0.1,4.5-0.6,6.7c-0.5,2.2-1.9,4.2-3.9,5.3c-1.9,0.8-3.9,1.1-5.9,1l-21.4,0.1
	c-5,0-12.3-0.3-16.1,3.7c-2.3,2.5-2.9,6.5-5.6,8.6s-6.4,1.5-9.5,2.7c-4.7,1.7-7.2,6.7-9.3,11.3c0.5-3.5,1.9-6.8,4-9.6
	c3.1-4.1,9.7-3.6,12.1-8.4c0.7-1.4-0.1-4.5-1.1-5.6c-1.2-1.4-3.4-1.4-5.2-2.2c-4.2-1.8-4.9-6.7-5.2-10.7c-0.5-6.6-1.8-14.9,1.8-20.8
	c1-1.6,2.5-2.9,4.1-3.9c7.1-4.5,16-5,24.4-5.1c3.2,0,6.5,0,9.7,0c5.5,0.1,10.9,0.6,16.4,1.5c4.3,0.7,7.6,1.9,9.6,6.2
	C187.1,121.4,187.2,125.4,187.2,129.3z"/>
<g class="st3">
	<path d="M138.2,135.7v-10h1.2v3.6c0.6-0.7,1.3-1,2.2-1c0.5,0,1,0.1,1.4,0.3c0.4,0.2,0.7,0.5,0.9,0.9s0.3,0.9,0.3,1.6v4.6h-1.2v-4.6
		c0-0.6-0.1-1.1-0.4-1.3c-0.3-0.3-0.6-0.4-1.1-0.4c-0.4,0-0.7,0.1-1,0.3c-0.3,0.2-0.6,0.4-0.7,0.8s-0.2,0.8-0.2,1.3v4H138.2z"/>
	<path d="M151,133.4l1.3,0.2c-0.2,0.7-0.6,1.3-1.1,1.7s-1.2,0.6-2.1,0.6c-1.1,0-1.9-0.3-2.5-1c-0.6-0.7-0.9-1.6-0.9-2.8
		c0-1.2,0.3-2.2,0.9-2.8s1.4-1,2.4-1c1,0,1.8,0.3,2.4,1s0.9,1.6,0.9,2.8c0,0.1,0,0.2,0,0.3h-5.4c0,0.8,0.3,1.4,0.7,1.8
		s0.9,0.6,1.5,0.6c0.5,0,0.8-0.1,1.2-0.4S150.8,133.9,151,133.4z M146.9,131.4h4.1c-0.1-0.6-0.2-1.1-0.5-1.4
		c-0.4-0.5-0.9-0.7-1.5-0.7c-0.6,0-1,0.2-1.4,0.6S147,130.8,146.9,131.4z"/>
	<path d="M153.8,135.7v-10h1.2v10H153.8z"/>
	<path d="M156.9,135.7v-10h1.2v10H156.9z"/>
	<path d="M159.5,132.1c0-1.3,0.4-2.3,1.1-3c0.6-0.5,1.4-0.8,2.3-0.8c1,0,1.8,0.3,2.4,1c0.6,0.7,1,1.6,1,2.7c0,0.9-0.1,1.7-0.4,2.2
		c-0.3,0.5-0.7,1-1.2,1.2s-1.1,0.4-1.8,0.4c-1,0-1.8-0.3-2.5-1S159.5,133.3,159.5,132.1z M160.8,132.1c0,0.9,0.2,1.6,0.6,2.1
		c0.4,0.5,0.9,0.7,1.5,0.7c0.6,0,1.1-0.2,1.5-0.7s0.6-1.2,0.6-2.1c0-0.9-0.2-1.6-0.6-2c-0.4-0.5-0.9-0.7-1.5-0.7
		c-0.6,0-1.1,0.2-1.5,0.7S160.8,131.2,160.8,132.1z"/>
</g>
<path class="st2" d="M506,413.3v7.8c0.1,2.3-0.1,4.5-0.6,6.7c-0.5,2.2-1.9,4.2-3.9,5.3c-1.9,0.8-3.9,1.1-5.9,1l-21.5,0.1
	c-5,0-12.3-0.3-16.1,3.7c-2.3,2.5-2.9,6.5-5.6,8.5s-6.4,1.5-9.5,2.7c-4.7,1.7-7.2,6.7-9.3,11.3c0.5-3.5,1.9-6.8,4-9.6
	c3.1-4.1,9.7-3.5,12.1-8.4c0.7-1.4-0.1-4.5-1.1-5.6c-1.2-1.5-3.4-1.4-5.2-2.2c-4.1-1.8-4.9-6.7-5.2-10.7c-0.5-6.5-1.8-14.9,1.8-20.9
	c1.1-1.6,2.5-2.9,4.1-3.9c7.1-4.5,16-5,24.4-5.1c3.2,0,6.5,0,9.7,0c5.5,0.1,10.9,0.6,16.4,1.5c4.3,0.6,7.6,1.9,9.6,6.2
	C505.9,405.4,506,409.4,506,413.3z"/>
<g class="st3">
	<path d="M457,419.7v-10h1.2v3.6c0.6-0.7,1.3-1,2.2-1c0.5,0,1,0.1,1.4,0.3c0.4,0.2,0.7,0.5,0.9,0.9s0.3,0.9,0.3,1.6v4.6h-1.2v-4.6
		c0-0.6-0.1-1.1-0.4-1.3c-0.3-0.3-0.6-0.4-1.1-0.4c-0.4,0-0.7,0.1-1,0.3c-0.3,0.2-0.5,0.4-0.7,0.8s-0.2,0.8-0.2,1.3v4H457z"/>
	<path d="M469.8,417.4l1.3,0.2c-0.2,0.7-0.6,1.3-1.1,1.7c-0.5,0.4-1.2,0.6-2.1,0.6c-1.1,0-1.9-0.3-2.5-1c-0.6-0.7-0.9-1.6-0.9-2.8
		c0-1.2,0.3-2.2,0.9-2.8s1.4-1,2.4-1c1,0,1.8,0.3,2.4,1s0.9,1.6,0.9,2.8c0,0.1,0,0.2,0,0.3h-5.4c0,0.8,0.3,1.4,0.7,1.8
		c0.4,0.4,0.9,0.6,1.5,0.6c0.5,0,0.8-0.1,1.2-0.4C469.3,418.3,469.6,417.9,469.8,417.4z M465.7,415.4h4.1c-0.1-0.6-0.2-1.1-0.5-1.4
		c-0.4-0.5-0.9-0.7-1.5-0.7c-0.6,0-1,0.2-1.4,0.6C466,414.3,465.8,414.8,465.7,415.4z"/>
	<path d="M472.6,419.7v-10h1.2v10H472.6z"/>
	<path d="M475.7,419.7v-10h1.2v10H475.7z"/>
	<path d="M478.4,416.1c0-1.3,0.4-2.3,1.1-3c0.6-0.5,1.4-0.8,2.3-0.8c1,0,1.8,0.3,2.4,1c0.6,0.7,1,1.6,1,2.7c0,0.9-0.1,1.7-0.4,2.2
		c-0.3,0.5-0.7,1-1.2,1.2c-0.5,0.3-1.1,0.4-1.8,0.4c-1,0-1.8-0.3-2.5-1C478.7,418.3,478.4,417.3,478.4,416.1z M479.6,416.1
		c0,0.9,0.2,1.6,0.6,2.1c0.4,0.5,0.9,0.7,1.5,0.7c0.6,0,1.1-0.2,1.5-0.7c0.4-0.5,0.6-1.2,0.6-2.1c0-0.9-0.2-1.6-0.6-2
		c-0.4-0.5-0.9-0.7-1.5-0.7c-0.6,0-1.1,0.2-1.5,0.7C479.8,414.5,479.6,415.2,479.6,416.1z"/>
	<path d="M488.9,417.3c0-0.2,0-0.3,0-0.4c0-0.5,0.1-0.9,0.2-1.3c0.1-0.3,0.3-0.5,0.5-0.8c0.2-0.2,0.5-0.5,0.9-0.9
		c0.4-0.4,0.7-0.7,0.8-0.9c0.1-0.2,0.2-0.5,0.2-0.7c0-0.5-0.2-0.9-0.6-1.3c-0.4-0.4-0.8-0.5-1.4-0.5c-0.5,0-1,0.2-1.3,0.5
		c-0.4,0.3-0.6,0.8-0.7,1.5l-1.3-0.2c0.1-0.9,0.5-1.6,1-2.1c0.6-0.5,1.3-0.7,2.2-0.7c1,0,1.8,0.3,2.3,0.8c0.6,0.5,0.9,1.2,0.9,1.9
		c0,0.4-0.1,0.8-0.3,1.2s-0.6,0.8-1.2,1.3c-0.4,0.4-0.7,0.6-0.8,0.8s-0.2,0.4-0.3,0.6c-0.1,0.2-0.1,0.6-0.1,1.1H488.9z M488.8,419.7
		v-1.4h1.4v1.4H488.8z"/>
</g>
</svg>
