<?xml version="1.0" encoding="utf-8"?>
<!-- Generator: Adobe Illustrator 23.0.0, SVG Export Plug-In . SVG Version: 6.00 Build 0)  -->
<svg version="1.1" id="Layer_1" xmlns="http://www.w3.org/2000/svg" xmlns:xlink="http://www.w3.org/1999/xlink" x="0px" y="0px"
	 viewBox="0 0 1220 405.5" style="enable-background:new 0 0 1220 405.5;" xml:space="preserve">
<style type="text/css">
	.st0{fill:#F4F1CE;}
	.st1{fill:#F4F1CE;stroke:#000000;stroke-linejoin:round;}
	.st2{fill:none;stroke:#000000;stroke-linejoin:round;}
	.st3{enable-background:new    ;}
</style>
<title>comic</title>
<rect x="0.5" y="0.5" class="st0" width="1219" height="404.5"/>
<rect x="506.5" y="37" class="st1" width="202.5" height="271"/>
<polyline class="st1" points="747.5,170 747.5,39 950,39 950,310 747.5,310 747.5,170 "/>
<rect x="985.5" y="39" class="st1" width="202.5" height="271"/>
<rect x="33" y="39" class="st1" width="202.5" height="271"/>
<rect x="271" y="39" class="st1" width="202.5" height="271"/>
<line class="st2" x1="609.5" y1="0.5" x2="609.5" y2="404.5"/>
<path class="st2" d="M506,130.1c35.6-25.3,68.8-44.6,103.5-45.2"/>
<path class="st2" d="M271.2,259c33.6-8.6,65.9-19,93.3-31.5c40.9-18.6,76.3-45,109-70"/>
<path class="st2" d="M33,297c0,0,100.8-7.4,202.5-29.6"/>
<path class="st2" d="M709,130.1c-43.7-25.7-70-44.7-99-45.2"/>
<path class="st2" d="M949.3,259c-33.6-8.6-65.9-19-93.3-31.5c-40.9-18.6-76.3-45-109-70"/>
<path class="st2" d="M1187.5,297c0,0-100.8-7.4-202.5-29.6"/>
<path d="M597.3,62.6c0.3,0.4,0.6,0.8,0.8,1.3c0.2,0.3,0.4,0.7,0.5,1.1c0.1,0.9-0.3,1.7-1,2.2c-0.6,0.6-1.4,1-2.1,1.6
	c-0.2,0.2-0.4,0.4-0.6,0.7c-0.5,1.1,0.3,2.5,0.5,3.6c0.3,1.4,0.6,2.8,0.8,4.2c0.4,2.7,0.6,5.5,0.5,8.3c0,1.2-0.1,2.5-0.2,3.7
	l-0.4,6.4c0,0.3-0.1,0.6-0.3,0.9c-0.4,0.2-0.8,0.1-1.1-0.3c-0.2-0.3-0.3-0.7-0.3-1.1c-0.3-2.8-0.1-5.5-0.4-8.3
	c-0.1-1.4-0.4-2.7-0.8-4c-0.2-0.6-0.2-1-0.9-1.1c-0.5,0-1,0.2-1.3,0.6c-0.4,0.5-0.5,1.2-0.6,1.8c-0.4,3.8-0.7,7.6-0.9,11.5
	c0,0.3-0.1,0.6-0.2,0.8c-0.1,0.3-0.4,0.5-0.7,0.5c-0.5,0-0.8-0.6-0.9-1c-0.5-2.2-0.1-4.4,0-6.7c0-1.1,0-2.1,0-3.2
	c0.1-4.1,1.1-8.2,0.4-12.2c0-0.4-0.2-0.7-0.5-1c-1.7-1.2-3.9,6.5-4.2,7.3c-0.2,0.6-0.6,1.2-1.2,1.6c-0.5-0.2-0.6-0.8-0.6-1.4
	c0.2-2.8,1.9-5.2,2.8-7.8c0.6-1.8,0.9-3.8,2.4-5.1c0.6-0.5,1.4-0.9,2-1.4c0.3-0.3,0.6-0.7,0.4-1.1c-0.3-0.6-1.2-0.7-1.8-1.1
	c-0.5-0.4-0.9-1-1.1-1.7c-0.6-1.3-0.3-2.9,0.7-4c1-0.8,2.3-1.2,3.6-0.9c1.6,0.3,2.6,1.1,2.1,2.8c-0.2,0.7-0.5,1.3-0.8,2
	c-0.3,0.7-0.8,1.8-0.6,2.5c0.1,0.2,0.2,0.4,0.4,0.6c0.8,0.7,1.8,1.1,2.9,0.9c1.1-0.2,2.3-0.6,1.7-1.9c-0.6-1.1-1.4-2.2-2.3-3
	c-0.2-0.2-0.4-0.4-0.5-0.6c-0.1-0.2,0-0.5,0.2-0.7c0.3-0.1,0.6,0,0.8,0.2C595.7,60.8,596.6,61.7,597.3,62.6z"/>
<path d="M441.1,177c-0.8,2-3.6,3.2-5.2,4.4c-0.1,0.1-0.2,0.2-0.3,0.3c0,0.2,0,0.4,0.1,0.5l1.8,4.1c0.2,0.5,0.5,0.9,0.8,1.3
	c0.3,0.3,0.8,0.5,1.3,0.5c0.3,0,0.7-0.1,1-0.3c1.6-0.6,3.2-1,4.8-1.2c0.4-0.1,1,0.1,0.9,0.5c0,0.2-0.2,0.3-0.4,0.4l-7,3.2
	c-0.3,0.1-0.6,0.3-0.9,0.3c-0.7,0.1-1.4-0.1-2-0.5c-0.6-0.4-1.1-0.9-1.6-1.5c-0.5-0.6-1.2-1-1.9-1.1c-1,0.1-2,1.1-2.7,1.8
	c-2.8,2.5,1.1,3.7,3,4.9c1,0.6,2.3,1.4,2.3,2.7c0,1.5-1,3.3-1.6,4.7c-0.5,1.1-0.7,2.3-0.3,3.4c0.2,0.4,0.5,1,0.3,1.4
	c-0.2,0.3-0.7,0.4-1,0.2c-3.1-1.6-0.6-6.4-2.8-8.6c-0.5-0.5-1.1-0.8-1.8-1c-1.5-0.5-3.3-1.8-4.2,0.4c-0.3,0.9-0.3,1.9,0,2.8
	c0.3,0.9,0.5,1.9,0.5,2.8c-0.1,1.9-1.5,3.4-2.8,4.9s-2.5,3.2-2.2,5.1c0.1,0.5,0.2,1.1-0.3,1.2c-1.2-1.1-1.8-2.7-1.6-4.3
	c0.4-1.7,1.6-3,2-4.7c0.5-2.9-1.2-5.8-1.4-8.8c-0.4-5.5,3.7-8.2,6.2-12.3c0.2-0.3,0.3-0.6,0.2-0.9s-0.6-0.3-0.9-0.2
	c-1.2,0.3-2.4,0.8-3.5,1.6c-0.6,0.5-1.3,1-2,1.4c-0.7,0.4-1.6,0.5-2.4,0.1c-0.1,0-0.2-0.1-0.2-0.2c-0.1-0.2,0.1-0.4,0.2-0.5
	c1.9-1.8,4-3.4,6-5c0.4-0.3,0.8-0.6,1.2-0.8c0.5-0.2,1.1-0.3,1.7-0.3c1.5-0.1,2.9-0.2,4.4-0.2c1.3,0,2.3,0.6,3.5,0.6
	c0.5,0.1,0.9-0.1,1.3-0.4c0.4-0.5,0.2-1.2,0.2-1.8c0-1,0.3-2.1,1-2.9c1-1.4,2.6-2.9,4.5-2C440.5,173.9,441.8,175.6,441.1,177z"/>
<path d="M173.6,274.4c0,0.7-0.1,1.4-0.3,2.1l-1.1,5.4c-0.3,1.5-0.6,2.9-0.7,4.4c0,0.6-0.3,1.5,0.4,1.6c0.5,0.1,1.2-0.7,1.4-1.1
	c0.3-0.6,0.5-1.3,0.6-2c0.9-4.6,1.9-9.2,3.2-13.8c0.1-0.4,0.4-0.9,0.8-0.9c0.2,0,0.5,0.2,0.6,0.4c3.5,3.8,5.7,8.5,6.2,13.6
	c0,1,0.2,2,0.5,3c0.4,0,0.8-0.2,0.9-0.6c0.1-0.4,0.2-0.8,0.2-1.2v-4.2c0.1-2.4-0.1-4.8-0.5-7.1c-0.3-1.2-0.7-2.3-1.1-3.4
	c-0.9-2.3-1.6-4.7-2.2-7.1c-0.3-1.6-0.9-3.3-0.7-4.9c0.5-3.2,2,1.2,2.3,2.2c0.4,1.5,1.1,3,2.1,4.2c0.2,0.3,0.5,0.6,0.9,0.8
	c0.4,0.2,0.8,0,1-0.4c-1.5-2.7-2.6-5.6-3.2-8.6c-0.5-1.9-0.6-5-2.5-6.1c-0.6-0.4-2.8-0.3-2.6-1.5c0-0.2,0.1-0.4,0.3-0.5
	c0.6-0.7,1.2-1.4,1.7-2.2c0.9-1.6,0.2-3.7-1.4-4.5c-1.6-0.9-3.7-0.2-4.5,1.4c-0.5,0.9-0.5,2.1,0,3c0.5,1.1,1.6,2.1,1.2,3.2
	c-0.3,0.8-1.1,0.9-1.7,1.3c-2.2,1.7-3.6,4.2-3.9,7c-0.5,3.1-0.9,6.4,0,9.4c0.5,0.1,1.1-0.1,1.3-0.6c0.2-0.5,0.2-1,0.1-1.6
	c-0.1-1.9,0.1-3.9,0.6-5.7c0.3-1.2,1.1-1.9,1.9-0.6c0.6,1,0.3,2.6,0.2,3.7c-0.2,3.1-0.9,6.2-1.4,9.4
	C173.7,272.8,173.7,273.6,173.6,274.4z"/>
<g class="st3">
	<path d="M660.7,57.5l0,0.7c0.4-0.5,1-0.8,1.6-0.8c1.1,0,1.7,0.6,1.7,1.9v3.6h-0.9v-3.6c0-0.4-0.1-0.7-0.3-0.9s-0.4-0.3-0.8-0.3
		c-0.3,0-0.6,0.1-0.8,0.2s-0.4,0.4-0.5,0.6v3.9h-0.9v-5.4H660.7z"/>
	<path d="M665.8,60.1c0-0.5,0.1-1,0.3-1.4s0.5-0.8,0.9-1c0.4-0.2,0.8-0.3,1.3-0.3c0.7,0,1.3,0.3,1.8,0.8c0.5,0.5,0.7,1.2,0.7,2v0.1
		c0,0.5-0.1,1-0.3,1.4c-0.2,0.4-0.5,0.7-0.9,1c-0.4,0.2-0.8,0.4-1.3,0.4c-0.7,0-1.3-0.3-1.8-0.8C666,61.7,665.8,61,665.8,60.1
		L665.8,60.1z M666.7,60.2c0,0.6,0.1,1.1,0.4,1.4c0.3,0.4,0.7,0.5,1.1,0.5c0.5,0,0.8-0.2,1.1-0.6s0.4-0.9,0.4-1.6
		c0-0.6-0.1-1.1-0.4-1.4c-0.3-0.4-0.7-0.6-1.1-0.6c-0.5,0-0.8,0.2-1.1,0.5C666.8,59,666.7,59.6,666.7,60.2z"/>
	<path d="M677.2,61.6l1-4.1h0.9l-1.6,5.4h-0.8l-1.3-4.1l-1.3,4.1h-0.8l-1.6-5.4h0.9l1.1,4.1l1.3-4.1h0.7L677.2,61.6z"/>
</g>
<g class="st3">
	<path d="M664.6,71.6l1-4.1h0.9l-1.6,5.4h-0.8l-1.3-4.1l-1.3,4.1h-0.8l-1.6-5.4h0.9l1.1,4.1l1.3-4.1h0.7L664.6,71.6z"/>
	<path d="M669,68.1c0.4-0.5,0.9-0.8,1.6-0.8c1.1,0,1.7,0.6,1.7,1.9v3.6h-0.9v-3.6c0-0.4-0.1-0.7-0.3-0.9c-0.2-0.2-0.4-0.3-0.8-0.3
		c-0.3,0-0.6,0.1-0.8,0.2c-0.2,0.2-0.4,0.4-0.5,0.6v3.9h-0.9v-7.7h0.9V68.1z"/>
	<path d="M677.6,72.9c-0.1-0.1-0.1-0.3-0.1-0.6c-0.4,0.4-0.9,0.7-1.5,0.7c-0.5,0-1-0.2-1.3-0.5s-0.5-0.7-0.5-1.2
		c0-0.6,0.2-1,0.6-1.3s1-0.5,1.8-0.5h0.9v-0.4c0-0.3-0.1-0.6-0.3-0.8c-0.2-0.2-0.5-0.3-0.9-0.3c-0.3,0-0.6,0.1-0.8,0.3
		s-0.3,0.4-0.3,0.6h-0.9c0-0.3,0.1-0.5,0.3-0.8c0.2-0.3,0.5-0.5,0.8-0.6c0.3-0.1,0.7-0.2,1.1-0.2c0.6,0,1.1,0.2,1.5,0.5
		c0.4,0.3,0.5,0.7,0.6,1.3v2.5c0,0.5,0.1,0.9,0.2,1.2v0.1H677.6z M676,72.2c0.3,0,0.6-0.1,0.8-0.2s0.5-0.3,0.6-0.6v-1.1h-0.7
		c-1.1,0-1.7,0.3-1.7,1c0,0.3,0.1,0.5,0.3,0.7C675.5,72.1,675.7,72.2,676,72.2z"/>
	<path d="M681.6,66.2v1.3h1v0.7h-1v3.4c0,0.2,0,0.4,0.1,0.5c0.1,0.1,0.2,0.2,0.5,0.2c0.1,0,0.3,0,0.4-0.1v0.7
		c-0.2,0.1-0.5,0.1-0.7,0.1c-0.4,0-0.7-0.1-0.9-0.4c-0.2-0.3-0.3-0.6-0.3-1.1v-3.4h-1v-0.7h1v-1.3H681.6z"/>
	<path d="M685.3,70.8c0-0.4,0.1-0.7,0.1-0.9c0.1-0.2,0.3-0.5,0.5-0.8l0.7-0.7c0.3-0.3,0.4-0.7,0.4-1c0-0.3-0.1-0.6-0.3-0.8
		c-0.2-0.2-0.5-0.3-0.8-0.3c-0.3,0-0.6,0.1-0.8,0.3s-0.3,0.4-0.3,0.7h-0.9c0-0.5,0.2-1,0.6-1.3c0.4-0.3,0.9-0.5,1.5-0.5
		c0.6,0,1.1,0.2,1.5,0.5c0.4,0.3,0.5,0.8,0.5,1.4c0,0.6-0.3,1.2-0.8,1.7l-0.5,0.5c-0.2,0.3-0.4,0.7-0.4,1.2H685.3z M685.2,72.4
		c0-0.2,0-0.3,0.1-0.4s0.2-0.2,0.4-0.2c0.2,0,0.3,0.1,0.4,0.2c0.1,0.1,0.1,0.2,0.1,0.4c0,0.2,0,0.3-0.1,0.4
		c-0.1,0.1-0.2,0.1-0.4,0.1c-0.2,0-0.3,0-0.4-0.1C685.3,72.7,685.2,72.6,685.2,72.4z"/>
</g>
<path class="st2" d="M656.8,49.7c-3,1.7-3.3,7.2-4,10c-1.5,5.8-3.9,11.1-11.3,11.7c-3.4,0.3-5.9-1.6-9-3c-3.3-1.5-5.2-2.8-10-3
	c-2.9-0.1-7,2.9-12,1c-2.7-1-7-10-14-8c7-1,10.2,9.4,13.1,10.9c3.9,2.1,10.9-0.5,13.9,0.1c5,1,10,7,15,8c8.9,1.8,12.6-2.6,14.1-1.6
	s0.7,3,5.3,4.7c5,1.8,27.5,2.8,31-0.6c7-7,4.9-21.1-0.1-27.5c-3.1-3.9-9.8-3.8-15.2-4.1C668.7,48.2,660.8,47.5,656.8,49.7z"/>
<path d="M1119.8,261.9c0.6-1.8,1.7-3.5,3.3-4.6c1.4-1,4.4-1.1,5.3,1c0.5,1.2-0.1,4.5-1.1,5.2c-0.8,0.5-1.8,0.8-2.7,0.8
	c-0.4,0-0.8,0.3-0.9,0.7c0,0.4,0.1,0.8,0.3,1.1c2.9,4.9,4.5,10.4,4.6,16.1c0,0.7-0.5,1.3-1.2,0.8s-0.6-1.5-0.7-2.1l-0.9-4.5
	c-0.2-0.9-0.3-2.7-1.2-3.2s-1.3,0.4-1.5,1.1c-0.4,1.9,0.2,3.9,0.5,5.8c0.4,2.2,0.8,4.4,1,6.7c0.2,1.8,0.2,3.6,0,5.5
	c-0.2,1.4-0.2,3-1.2,4.2c-0.1,0.1-0.3,0.2-0.4,0.2c-0.4-0.1-0.2-2.4-0.2-2.9c-0.1-2.2-0.2-13.5-4.2-12.1c-1.1,0.4-1.5,1.8-1.8,3
	l-2.4,11c-0.1,0.3-0.2,0.6-0.5,0.7s-0.7-0.4-0.8-0.8c-1.1-3.8-0.3-7.8,0.2-11.6l1.7-13.4c-0.3-0.5-0.9-0.7-1.3-0.4
	c-0.1,0-0.2,0.1-0.2,0.2c-0.5,0.4-0.8,1-0.9,1.6l-2,6.3c-0.2,0.5-0.7,1.2-1.2,0.8c-0.2-0.3-0.3-0.6-0.2-0.9
	c0.9-5.6,2.4-17.1,10.2-15.3"/>
<path d="M888,246.7c0.1-3.9,1.4-9.9-1.6-13.1c-0.1-0.2-0.4-0.3-0.6-0.3c-0.2,0.1-0.3,0.3-0.4,0.5c-2,4.4-6.3,7.2-10.4,9.7
	c-0.4,0.2-0.9,0.5-1.2,0.2s-0.2-1.1,0.3-1.6c1.5-1.6,3.5-2.6,5-4.3c1.3-1.6,2.2-3.5,2.7-5.5c0.6-1.9,1.1-3.8,1.5-5.8
	c0.3-1.4,1-3.3,0.7-4.8c-0.5-2.1-3-0.6-4.2-0.3c-1,0.4-1.7,1.3-1.9,2.4c-0.2,1-0.7,2-1.5,2.7c-0.4,0.1-0.8-0.2-0.9-0.6
	c-0.1-0.4-0.1-0.8,0.1-1.2c0.6-2,1.4-4,2.4-5.8c0.1-0.3,0.3-0.5,0.5-0.7c0.3-0.2,0.5-0.4,0.8-0.5c1.6-0.7,3.3-1.1,5-1.2
	c1.2-0.1,3-0.7,3.6-1.8s0-2.3,0.1-3.5c0.1-1.7,1.4-3,3.1-3c1.6,0.3,2.8,1.8,2.7,3.4c-0.2,1.6-1.1,3.1-2.4,4
	c-0.3,0.1-0.4,0.4-0.5,0.6c-0.2,1.2,2.6,2.6,3,3.6c0.2,0.4,0.3,0.8,0.3,1.2c0.2,1.1,0.4,2.3,0.8,3.4c0,0.2,0.1,0.3,0.3,0.4
	c0.2,0.1,0.3,0.1,0.5,0.1h4.6v0.9c-1.4,0.7-2.9,1.1-4.4,1.1c-0.6,0.1-1.2,0.1-1.8-0.1c-1.2-0.4-1.8-1.7-2.3-2.9
	c-0.3,7.2,0.3,14.7-2,21.6c-0.2,0.8-0.9,1.7-1.6,1.4L888,246.7z"/>
</svg>
