<svg id="Layer_1" data-name="Layer 1" xmlns="http://www.w3.org/2000/svg" xmlns:xlink="http://www.w3.org/1999/xlink" viewBox="0 0 711 1826"><defs><style>.cls-1,.cls-10,.cls-3{fill:none;}.cls-2,.cls-6,.cls-8,.cls-9{fill:#efd9ce;}.cls-2,.cls-3,.cls-4,.cls-7{stroke:#000;}.cls-10,.cls-2,.cls-3,.cls-4,.cls-6,.cls-7,.cls-9{stroke-linejoin:round;}.cls-5{clip-path:url(#clip-path);}.cls-6{stroke:#f2e4ce;}.cls-7{fill:#f2e4ce;}.cls-10,.cls-9{stroke:#efd9ce;}</style><clipPath id="clip-path"><path class="cls-1" d="M263.5,57.5,532,58l-24.5,82.5-62,143-178-15s-64-46-65-49,28-126,28-126Z"/></clipPath></defs><title>room</title><polygon class="cls-2" points="710.5 1825.5 0.5 1825.5 0.5 1479.94 0.5 1395.11 0.5 0.5 710.5 0.5 710.5 1825.5"/><line class="cls-3" x1="1" y1="194.5" x2="711" y2="194.5"/><polyline class="cls-4" points="540.5 63 542.5 1735.5 167.5 1658.5 169.5 118"/><path class="cls-2" d="M502.5,115.75c-3,4.12-7,4.94-16,4.94l-312,.91c-4.5,0-6.48-4.66-2.91-6.93l87.12-55.34A8.93,8.93,0,0,1,263.41,58H537.78c2.52,0,4.06,2.27,2.74,4Z"/><g class="cls-5"><polygon class="cls-2" points="270.77 140.26 293.76 88.75 394.87 56.8 372.88 108.32 270.77 140.26"/><path class="cls-2" d="M283.51,9.56H386.8a1.85,1.85,0,0,1,1.85,1.85V74.25a0,0,0,0,1,0,0h-107a0,0,0,0,1,0,0V11.41a1.85,1.85,0,0,1,1.85-1.85Z" transform="translate(2.78 101.98) rotate(-17.37)"/><polygon class="cls-2" points="372.88 108.32 394.5 56.5 497.98 24.86 480.67 74.6 372.88 108.32"/><path class="cls-2" d="M474.46-35.57,380.76-6.25a4.4,4.4,0,0,0-2.89,5.52l18,57.53L498,24.86,480-32.68A4.42,4.42,0,0,0,474.46-35.57Z"/><path class="cls-2" d="M278.94,154.65l98.86-30.93a1.14,1.14,0,0,0,.75-1.43L374.41,109a1.14,1.14,0,0,0-1.43-.75L271.86,139.92a1.14,1.14,0,0,0-.75,1.43l3.44,11A3.5,3.5,0,0,0,278.94,154.65Z"/><path class="cls-2" d="M377.71,123.75,481.15,91.39a4.56,4.56,0,0,0,3-5.71L480.67,74.6,372.88,108.32Z"/><line class="cls-6" x1="277.63" y1="153.85" x2="282.06" y2="168.01"/><line class="cls-2" x1="483.83" y1="85.96" x2="489.49" y2="104.85"/><line class="cls-2" x1="502.86" y1="40.68" x2="508.88" y2="58"/><rect class="cls-2" x="399.11" y="85.56" width="76.55" height="48.25" rx="3.62" transform="translate(155.65 -242.4) rotate(37.26)"/><rect class="cls-2" x="278.71" y="152.17" width="84.43" height="49.18" rx="3.62" transform="translate(7.39 366.31) rotate(-60)"/><polygon class="cls-2" points="497.74 24.3 502.99 41.1 485.13 88.84 480.12 74.07 497.74 24.3"/></g><line class="cls-7" x1="271" y1="58.16" x2="518" y2="58.16"/><path class="cls-8" d="M381.67,311.32a44.7,44.7,0,0,1,.1,9.81c-1.35,12.07-9.27,22.52-18.59,30.32-12.57,10.53-28,17.18-44,20.38-14.69,2.93-33.3,6-44.51-6.26-3.75-4.11-6.45-9.05-9.12-13.93-2.39-4.41.1-7.43,3.53-3.09s6.58,8.84,9.87,13.25a18.19,18.19,0,0,0,4.28,4.55c2.55,1.7,5.78,2,8.85,1.92a62.31,62.31,0,0,0,12.29-1.72c2.74-.63,5.63-1.47,7.46-3.6a5.26,5.26,0,0,0-2.73-8.59c-3.17-.84-7.32.77-10.27,1.87-4.13,1.54-9,3.95-13.29,1.63a10.58,10.58,0,0,1-4.22-4.7,15.93,15.93,0,0,1-.82-12.66,13.22,13.22,0,0,1,9.44-8.22,5.49,5.49,0,0,1,4,.46,6.68,6.68,0,0,1,1.76,1.87c2.24,3.08,17.88,17.47,18.7,6.34.16-2.24-1.06-4.33-2.24-6.25-2.8-4.53-5.91-9.34-10.83-11.37-2.84-1.17-6-1.27-9.06-1.28a161.77,161.77,0,0,0-18.41,1,7.93,7.93,0,0,1-3.63-.15,2.6,2.6,0,0,1-1.8-2.84c.28-1.11,1.47-1.7,2.54-2.12a47.85,47.85,0,0,1,21.91-3.39A34.39,34.39,0,0,1,313,323.3c3.29,3.07,5.85,6.85,9.19,9.86s7.88,5.23,12.26,4.21c7.91-1.84,11.15-11.16,10.94-18.27-.37-12.92-.42-25.94,1.5-38.76a102.18,102.18,0,0,1,4.59-19c2.18-6.17,5.57-11.12,9.67-16.25a6.21,6.21,0,0,1,2,5.22,20.91,20.91,0,0,1-1.42,5.62,101.18,101.18,0,0,0-3.66,51.45c.62,3.27,5.09,13.42,9.59,8,1.25-1.51,1.44-5.52,1.86-7.38a53,53,0,0,0,1.18-10.73c.17-9.74-1.85-19.43-1.13-29.18.59-8,5.11-15.92,9.83-22.4.7-1,1.63-2,2.82-1.93,2.07.12,2.37,3.08,1.88,5.1-1.43,5.87-4,11.4-5.42,17.28-3,12.7,0,25.93,2.05,38.81C381.13,307.09,381.45,309.2,381.67,311.32Z"/><path class="cls-2" d="M538.79,1736H295.89a29.46,29.46,0,0,1-16.17-4.82l-111.16-69.76a3.22,3.22,0,0,1,1.76-5.92l323.25,3a21.93,21.93,0,0,1,19.86,12.62l28.28,60.29A3.22,3.22,0,0,1,538.79,1736Z"/><path class="cls-2" d="M569.84,723.7l-25.54,50a6.54,6.54,0,0,1-10.11,2l-21.81-18.91a6.55,6.55,0,0,1-1.54-7.92l25.55-50a6.54,6.54,0,0,1,10.11-2l21.8,18.91A6.53,6.53,0,0,1,569.84,723.7Z"/><path class="cls-2" d="M523.88,801.46l-17.72,13.3a6.15,6.15,0,0,1-7.34,0l-27.66-20.38a6.15,6.15,0,0,1,0-9.87l17.72-13.3a6.15,6.15,0,0,1,7.34,0l27.66,20.38A6.15,6.15,0,0,1,523.88,801.46Z"/><line class="cls-9" x1="500.95" y1="842.1" x2="501.5" y2="870.5"/><line class="cls-9" x1="458.5" y1="810.5" x2="443.3" y2="832.06"/><line class="cls-9" x1="530.5" y1="810.5" x2="531.5" y2="835.5"/><line class="cls-2" x1="573.55" y1="1042.1" x2="579.18" y2="1084.44"/><line class="cls-9" x1="406.29" y1="1052.34" x2="406.76" y2="1092.07"/><line class="cls-9" x1="522.5" y1="1018.5" x2="514.41" y2="1066.19"/><path class="cls-2" d="M485.86,1144.41l-50.28,31.68c-11.22,7.07-8.07,24.21,4.92,26.85l17.89,3.62a14.71,14.71,0,0,0,10.75-2l50.28-31.68c11.22-7.07,8.07-24.21-4.92-26.85l-17.89-3.62A14.71,14.71,0,0,0,485.86,1144.41Z"/><path class="cls-2" d="M408.88,1148.42l-7.88-21.3a7.8,7.8,0,0,1,4.09-9.8l83.48-37.78a7.79,7.79,0,0,1,10.91,6l2.65,18a7.77,7.77,0,0,1-4.08,8l-78.25,41.12A7.78,7.78,0,0,1,408.88,1148.42Z"/><path class="cls-2" d="M515.79,1103.43,520,1087.7a11.82,11.82,0,0,1,18.91-6.1l26.19,21.48a11.81,11.81,0,0,1,4,11.92l-4.37,18a11.81,11.81,0,0,1-18.89,6.42l-24.75-19.9A15.51,15.51,0,0,1,515.79,1103.43Z"/><path class="cls-2" d="M235.55,878.57l-43.73,28.2a8.21,8.21,0,0,1-11.61-2.86L159.32,867a8.23,8.23,0,0,1,4.41-11.8l32.05-11.4a8.25,8.25,0,0,1,7.08.75l32.55,20.08A8.24,8.24,0,0,1,235.55,878.57Z"/><path class="cls-2" d="M188.39,932.66l5.5,12.11a5.42,5.42,0,0,0,7.89,2.29L256,911.75a5.42,5.42,0,0,0,2.2-6.19l-4.53-14.17a5.42,5.42,0,0,0-8.2-2.83l-55.22,37.38A5.41,5.41,0,0,0,188.39,932.66Z"/><line class="cls-9" x1="200.5" y1="967.5" x2="217.5" y2="1005.5"/><line class="cls-9" x1="262.5" y1="926.5" x2="262.5" y2="972.5"/><path class="cls-2" d="M294.57,1103.77,291,1114.11c-5.5,15.92-27.3,17.48-42.8,3.05l-21-19.51c-9.68-9-13.88-21.76-10.44-31.71l3.57-10.34c5.5-15.92,27.3-17.48,42.8-3l21,19.51C293.8,1081.07,298,1093.82,294.57,1103.77Z"/><path class="cls-2" d="M173.24,1127.13l-6.64-10c-10.23-15.43-11.78-35.48-3-39.37l11.83-5.25c5.46-2.43,13.43,2.42,19.82,12.06l6.65,10c10.23,15.43,11.77,35.48,3,39.37l-11.82,5.25C187.6,1141.62,179.63,1136.77,173.24,1127.13Z"/><path class="cls-2" d="M277,1291.88l-.68-7.55c-1.06-11.62,8.31-21.6,18.39-19.58l13.64,2.72c6.29,1.26,11,7,11.64,14.24l.68,7.55c1.06,11.62-8.31,21.6-18.39,19.59l-13.64-2.73C282.35,1304.86,277.68,1299.14,277,1291.88Z"/><path class="cls-2" d="M486.1,1367.57l3.54,1c5.45,1.5,7.26,8.3,3.55,13.36l-5,6.84a9.14,9.14,0,0,1-9.57,3.72l-3.55-1c-5.45-1.49-7.26-8.3-3.54-13.35l5-6.84A9.13,9.13,0,0,1,486.1,1367.57Z"/><path class="cls-2" d="M392.1,1227.57l3.54,1c5.45,1.5,7.26,8.3,3.55,13.36l-5,6.84a9.14,9.14,0,0,1-9.57,3.72l-3.55-1c-5.45-1.49-7.26-8.3-3.54-13.35l5-6.84A9.13,9.13,0,0,1,392.1,1227.57Z"/><path class="cls-2" d="M243.52,1554.72,238.8,1553c-7.26-2.63-10.61-11.06-6.57-16.54l5.47-7.41c2.52-3.42,7.27-4.62,11.81-3l4.72,1.71c7.27,2.63,10.61,11.06,6.57,16.54l-5.47,7.41C252.81,1555.17,248.06,1556.37,243.52,1554.72Z"/><path class="cls-2" d="M474.05,1514.68l-2.77-7.89c-4.26-12.15.44-25.81,9.24-26.82l11.9-1.36c5.49-.63,11,4.05,13.64,11.64l2.77,7.89c4.26,12.15-.45,25.81-9.24,26.82l-11.9,1.36C482.19,1527,476.71,1522.27,474.05,1514.68Z"/><path class="cls-2" d="M498.55,1696.51l-1.19,3c-1.82,4.6-7.27,6.58-10.7,3.89l-4.64-3.64a6.5,6.5,0,0,1-1.68-7.62l1.19-3c1.82-4.6,7.27-6.58,10.7-3.89l4.64,3.64A6.51,6.51,0,0,1,498.55,1696.51Z"/><path class="cls-2" d="M248.14,1379.46l-2.91,2.79c-4.49,4.31-11.39-1.41-13.55-11.22l-2.93-13.27c-1.35-6.12-.37-12,2.43-14.74l2.92-2.8c4.48-4.3,11.38,1.42,13.55,11.23l2.92,13.26C251.92,1370.84,251,1376.77,248.14,1379.46Z"/><path class="cls-2" d="M248.09,1189.06l-1.44,9.38c-2.21,14.44-14.21,25.62-23.55,21.93l-12.64-5c-5.84-2.3-8.84-9.91-7.46-18.93l1.44-9.38c2.21-14.44,14.21-25.62,23.56-21.93l12.64,5C246.48,1172.43,249.47,1180,248.09,1189.06Z"/><path class="cls-2" d="M386,1357.86l-6.76-3.87c-10.41-6-10.55-20.88-.28-29.29l13.89-11.37c6.42-5.26,15.1-6.28,21.61-2.56l6.76,3.87c10.41,6,10.55,20.88.28,29.29l-13.89,11.38C401.23,1360.56,392.54,1361.59,386,1357.86Z"/><path class="cls-2" d="M419.47,1592.68l-1.68-2.62c-2.6-4,2.11-8.75,9.24-9.26l9.65-.69c4.46-.31,8.55,1.17,10.17,3.69l1.69,2.62c2.6,4-2.11,8.75-9.25,9.26l-9.65.68C425.19,1596.68,421.1,1595.2,419.47,1592.68Z"/><path class="cls-2" d="M328.58,1478.17l-3.12,0c-4.8,0-6.26-6.48-2.86-12.77l4.59-8.52c2.12-3.93,5.56-6.59,8.56-6.61l3.12,0c4.79,0,6.25,6.48,2.86,12.77l-4.59,8.52C335,1475.5,331.57,1478.16,328.58,1478.17Z"/><path class="cls-2" d="M437.58,1452.63l-.43,5.82c-.68,9-12.73,11.27-23.65,4.52l-14.78-9.14c-6.82-4.22-11.13-10.82-10.7-16.42l.44-5.82c.67-9,12.72-11.27,23.64-4.52l14.78,9.14C433.7,1440.43,438,1447,437.58,1452.63Z"/><path class="cls-2" d="M511.74,1289l-1.72,2.6c-2.65,4-8.86,1.59-12.2-4.74l-4.51-8.55c-2.09-4-2.38-8.29-.72-10.79l1.72-2.6c2.64-4,8.86-1.59,12.19,4.73l4.52,8.56C513.1,1282.14,513.39,1286.48,511.74,1289Z"/><path class="cls-2" d="M541.82,1348.91l-4.23,0c-6.51,0-10.51-7.11-7.85-13.88l3.6-9.16c1.66-4.23,5.52-7.06,9.58-7l4.23,0c6.51,0,10.5,7.1,7.84,13.88l-3.6,9.16C549.73,1346.11,545.88,1348.94,541.82,1348.91Z"/><path class="cls-2" d="M357.46,1669.27l-3-.44c-4.54-.68-6.11-6.4-3.08-11.24l4.1-6.54c1.89-3,5.07-4.77,7.91-4.34l2.95.43c4.54.68,6.11,6.4,3.08,11.24l-4.09,6.54C363.47,1667.94,360.29,1669.69,357.46,1669.27Z"/><path class="cls-2" d="M267.94,1680.62l.42-2.55c.65-3.94,6.19-4.21,10.87-.54l6.33,5c2.92,2.29,4.61,5.49,4.21,7.94l-.43,2.56c-.65,3.94-6.18,4.21-10.86.54l-6.33-5C269.23,1686.28,267.53,1683.08,267.94,1680.62Z"/><path class="cls-2" d="M372.35,1712.28l1.51-3.27c2.32-5,8-7.71,11.1-5.26l4.23,3.32c2,1.53,2.3,4.67.85,7.82l-1.51,3.27c-2.31,5-8,7.71-11.1,5.26l-4.23-3.32C371.25,1718.57,370.91,1715.42,372.35,1712.28Z"/><path class="cls-2" d="M380.24,962.37l8.49-10.51c13.08-16.18,34.09-24.56,41.24-16.45l9.68,11c4.46,5.06,2,15.27-6.19,25.37L425,982.27c-13.08,16.18-34.08,24.56-41.24,16.45l-9.67-11C369.58,982.68,372.07,972.48,380.24,962.37Z"/><path class="cls-2" d="M518.56,924.34l4.62-6c7.1-9.21,20.09-11.72,25.49-4.91l7.31,9.2c3.37,4.25,2.66,11-1.78,16.74l-4.61,6c-7.11,9.22-20.09,11.72-25.49,4.92l-7.31-9.2C513.41,936.83,514.13,930.1,518.56,924.34Z"/><line class="cls-9" x1="329.72" y1="1153.27" x2="361.28" y2="1183.73"/><line class="cls-9" x1="260.98" y1="1245.02" x2="232.02" y2="1277.98"/><polyline class="cls-10" points="196.28 1308.35 206.53 1334.96 190.35 1333.36"/><polyline class="cls-10" points="330 1218 301.9 1213.12 301.63 1193.48"/><line class="cls-2" x1="154.78" y1="1188.93" x2="131.02" y2="1215.98"/><polyline class="cls-10" points="287 1407.65 308.87 1402.13 355.5 1431.5"/><line class="cls-9" x1="249.67" y1="1444.95" x2="244.2" y2="1466.84"/><line class="cls-9" x1="192.9" y1="1385.81" x2="207.07" y2="1422.94"/><line class="cls-9" x1="448.7" y1="1287.08" x2="455.16" y2="1308.7"/><line class="cls-9" x1="489.21" y1="1444.49" x2="466.66" y2="1445.3"/><line class="cls-9" x1="447.76" y1="1249.46" x2="484.02" y2="1233.67"/><line class="cls-9" x1="381.4" y1="1386.72" x2="419.6" y2="1408.28"/><line class="cls-9" x1="347.11" y1="1299.06" x2="337.89" y2="1341.94"/><line class="cls-9" x1="441.3" y1="1495.22" x2="424.31" y2="1510.07"/><line class="cls-9" x1="346.21" y1="1042.7" x2="312.79" y2="1014.3"/><polyline class="cls-10" points="262.5 1591.5 275.5 1597.5 276.5 1616.5 241.5 1603.5"/><line class="cls-10" x1="326.5" y1="1586.5" x2="314" y2="1602"/><line class="cls-3" x1="250.5" y1="1665.5" x2="238" y2="1681"/><polyline class="cls-2" points="393.49 1694.26 385.01 1676.24 424.5 1669.5 421.5 1707.5"/><polyline class="cls-2" points="461 1694 436.46 1713.93 461 1735.5"/><polyline class="cls-10" points="349.5 1520.5 358.5 1537.5 373.5 1514.5"/><polyline class="cls-10" points="519.05 1389.61 502.8 1399.9 526.9 1413.07"/><polyline class="cls-2" points="324.5 1691 340 1711.07 334.04 1735.5"/><polyline class="cls-10" points="462.75 1617.62 444.09 1634.78 419.24 1630.94"/><polyline class="cls-10" points="205.04 1511.51 223.19 1493.8 248.15 1496.91"/><line class="cls-2" x1="145.5" y1="1116.5" x2="137.5" y2="1153.5"/><line class="cls-2" x1="586" y1="1173" x2="560.68" y2="1194.76"/><line class="cls-2" x1="148.5" y1="1240.5" x2="152.15" y2="1263.13"/></svg>