<svg id="Layer_1" data-name="Layer 1" xmlns="http://www.w3.org/2000/svg" viewBox="0 0 396.29 378.47"><defs><style>.cls-1,.cls-4{fill:#efd9ce;}.cls-1,.cls-2,.cls-3{stroke:#000;}.cls-1,.cls-2,.cls-3,.cls-4{stroke-linejoin:round;}.cls-2{fill:none;}.cls-4{stroke:#efd9ce;}</style></defs><title>room</title><rect class="cls-1" x="0.5" y="0.5" width="395.29" height="377.47"/><line class="cls-2" x1="1.29" y1="121.5" x2="396.29" y2="121.5"/><path class="cls-3" d="M342.34,277.56a3.21,3.21,0,0,1-2.7,1.53l-321.89.51a4.7,4.7,0,0,1-2.92-8.41L102,204a7.74,7.74,0,0,1,4.74-1.62H381.07a3.22,3.22,0,0,1,2.74,4.9Z"/><polygon class="cls-1" points="90.62 250.76 118.67 201.82 223.47 180.3 195.42 229.24 90.62 250.76"/><path class="cls-1" d="M112.91,127H216.21a1.85,1.85,0,0,1,1.85,1.85v62.84a0,0,0,0,1,0,0h-107a0,0,0,0,1,0,0V128.88a1.85,1.85,0,0,1,1.85-1.85Z" transform="translate(-28.7 36.37) rotate(-11.61)"/><polygon class="cls-1" points="195.42 229.24 223.47 180.3 328.27 158.77 306.05 206.52 195.42 229.24"/><path class="cls-1" d="M310.94,96.29,214.77,116a4.41,4.41,0,0,0-3.43,5.2l12.13,59.06,104.8-21.53L316.14,99.72A4.4,4.4,0,0,0,310.94,96.29Z"/><path class="cls-1" d="M97.31,265.9l101.46-20.84a1.14,1.14,0,0,0,.89-1.35l-2.79-13.6a1.14,1.14,0,0,0-1.35-.89L91.74,250.54a1.13,1.13,0,0,0-.89,1.34l2.32,11.29A3.5,3.5,0,0,0,97.31,265.9Z"/><path class="cls-1" d="M198.67,245.08l106.17-21.8a4.56,4.56,0,0,0,3.55-5.39l-2.34-11.37L195.42,229.24Z"/><line class="cls-4" x1="96.08" y1="264.98" x2="99.06" y2="279.51"/><line class="cls-4" x1="307.06" y1="218.14" x2="310.79" y2="237.5"/><line class="cls-1" x1="331.54" y1="175" x2="335.79" y2="192.84"/><rect class="cls-1" x="206.14" y="133.04" width="76.55" height="48.25" rx="3.62" transform="translate(-12.47 21.33) rotate(-4.87)"/><rect class="cls-1" x="123.31" y="152.82" width="84.43" height="49.18" rx="3.62" transform="translate(-42.79 52.99) rotate(-16.14)"/><polygon class="cls-1" points="328.09 158.19 331.63 175.43 309.06 221.14 305.56 205.94 328.09 158.19"/><path d="M287.6,191.76c-2.7,5.79-5.63,11.63-7.41,17.78-1.66,5.77-1.18,12.47-1.78,18.51a17.62,17.62,0,0,1-1,5,6,6,0,0,1-3.52,3.56c-2.76-3-4-7.15-4.62-11.2-.78-4.87-1.71-9.83-1.16-14.68.59-5.28,2-10.38,1.57-15.73a4.52,4.52,0,0,0-.79-2.58c-1-1.16-2.73-1.16-4.23-1a44.57,44.57,0,0,0-25.72,12.44c-7.3,7.15-8,16.41-13.25,24.93a9.26,9.26,0,0,1-2.68,3.08,3.41,3.41,0,0,1-3.85,0c-1.68-1.37-1-4-.21-6.05,2.91-7.75,2.66-16.84,6.64-23.95A53.59,53.59,0,0,1,241.19,184c2.86-2,5.95-3.74,8.44-6.19,3.56-3.51,5.63-8.26,7.14-13A4.69,4.69,0,0,0,257,162a3.34,3.34,0,0,0-3.7-1.82,12.29,12.29,0,0,0-4.05,1.82A32.9,32.9,0,0,1,213,159a4.79,4.79,0,0,1-2-2.94c-.2-2.07,2.09-3.52,4.14-3.86,5.82-.95,11.6,2.66,17.46,2,4.2-.47,7.85-3.05,11-5.83,5.6-4.9,10.47-10.73,16.69-14.9C263.87,131,275.32,129,274,122.81c-.42-2-2.37-3.28-3.86-4.73-4-3.9-5-10.23-3.34-15.56,1.73-5.62,6.8-10.34,12.83-10.49,5.75-.13,13,5.81,12.39,12a15.23,15.23,0,0,1-1.61,4.73,91.49,91.49,0,0,0-5.64,16.34c-.56,2.33-1,5,.39,7,1.72,2.47,5.25,2.57,8.26,2.8,14.81,1.13,27.39,11.4,36.73,23,3.31,4.09,6.4,10,3.35,14.23-4.36-1.86-7.14-6.07-10.25-9.64-3.49-4-7.8-7.48-12.92-8.87-4.63-1.25-11.8-.49-15.13,3.5-3.18,3.82-1.68,10.75-1.94,15.38C292.89,179.17,290.42,185.49,287.6,191.76Z"/></svg>