<svg id="Layer_1" data-name="Layer 1" xmlns="http://www.w3.org/2000/svg" viewBox="0 0 396.29 378.47"><defs><style>.cls-1,.cls-4{fill:#efd9ce;}.cls-1,.cls-2,.cls-3{stroke:#000;}.cls-1,.cls-2,.cls-3,.cls-4{stroke-linejoin:round;}.cls-2{fill:none;}.cls-4{stroke:#efd9ce;}</style></defs><title>room</title><rect class="cls-1" x="0.5" y="0.5" width="395.29" height="377.47"/><line class="cls-2" x1="1.29" y1="121.5" x2="396.29" y2="121.5"/><path class="cls-3" d="M342.34,277.56a3.21,3.21,0,0,1-2.7,1.53l-321.89.51a4.7,4.7,0,0,1-2.92-8.41L102,204a7.74,7.74,0,0,1,4.74-1.62H381.07a3.22,3.22,0,0,1,2.74,4.9Z"/><path class="cls-1" d="M114.84,248.06l2.91-13.1a16.13,16.13,0,0,1,7.94-10.62l56-30.94A16.12,16.12,0,0,1,205.24,211l-2.9,13.09a16.15,16.15,0,0,1-8,10.62l-56,30.94A16.13,16.13,0,0,1,114.84,248.06Z"/><path class="cls-1" d="M134,127H195.1a23,23,0,0,1,23,23v20.63a21.11,21.11,0,0,1-21.11,21.11H132.17a21.11,21.11,0,0,1-21.11-21.11V150a23,23,0,0,1,23-23Z" transform="translate(-28.7 36.37) rotate(-11.61)"/><path class="cls-1" d="M217.66,190.44l1.28-2.24a20.18,20.18,0,0,1,13.45-9.73L289,166.84a20.18,20.18,0,0,1,22.36,28.28l-1,2.19a20.18,20.18,0,0,1-14.24,11.25l-56.88,11.68C222.2,223.74,209,205.52,217.66,190.44Z"/><path class="cls-1" d="M311.55,105.8l-40.61-7.51a32.84,32.84,0,0,0-38.27,26.32l-.62,3.35a28.45,28.45,0,0,0,22.79,33.14l49.27,9.12a28.44,28.44,0,0,0,33.14-22.8l.62-3.35A32.84,32.84,0,0,0,311.55,105.8Z"/><path class="cls-1" d="M147,277.74l90.18-18.52a6.91,6.91,0,0,0,5.37-8.15l-.47-2.32a6.91,6.91,0,0,0-8.15-5.37l-92.5,19a6.9,6.9,0,0,0-5.37,8.15h0A9.27,9.27,0,0,0,147,277.74Z"/><path class="cls-1" d="M203.11,234.58,297.92,254a10.36,10.36,0,0,0,12.23-8.08h0a5.81,5.81,0,0,0-4.53-6.85l-99.28-20.28a5.8,5.8,0,0,0-6.85,4.52l-.91,4.47A5.8,5.8,0,0,0,203.11,234.58Z"/><line class="cls-4" x1="104.79" y1="264.5" x2="99.06" y2="279.51"/><line class="cls-4" x1="298.79" y1="260.5" x2="288.29" y2="274.72"/><line class="cls-1" x1="342.22" y1="180.99" x2="352.79" y2="194.5"/><rect class="cls-1" x="99.31" y="164.82" width="84.43" height="49.18" rx="24.29" transform="translate(-89.16 137.55) rotate(-40.56)"/><path class="cls-1" d="M335.07,179.74l.21,1a4.88,4.88,0,0,1-.41,3.19l-15.66,31.74a5,5,0,0,1-9.27-1.08h0a4.93,4.93,0,0,1,.35-3.23l15.46-32.75A4.94,4.94,0,0,1,335.07,179.74Z"/><rect class="cls-1" x="268.14" y="205.04" width="76.55" height="48.25" rx="22.32" transform="translate(155.63 -122.5) rotate(30)"/><path d="M287.6,191.76c-2.7,5.79-5.63,11.63-7.41,17.78-1.66,5.77-1.18,12.47-1.78,18.51a17.62,17.62,0,0,1-1,5,6,6,0,0,1-3.52,3.56c-2.76-3-4-7.15-4.62-11.2-.78-4.87-1.71-9.83-1.16-14.68.59-5.28,2-10.38,1.57-15.73a4.52,4.52,0,0,0-.79-2.58c-1-1.16-2.73-1.16-4.23-1a44.57,44.57,0,0,0-25.72,12.44c-7.3,7.15-8,16.41-13.25,24.93a9.26,9.26,0,0,1-2.68,3.08,3.41,3.41,0,0,1-3.85,0c-1.68-1.37-1-4-.21-6.05,2.91-7.75,2.66-16.84,6.64-23.95A53.59,53.59,0,0,1,241.19,184c2.86-2,5.95-3.74,8.44-6.19,3.56-3.51,5.63-8.26,7.14-13A4.69,4.69,0,0,0,257,162a3.34,3.34,0,0,0-3.7-1.82,12.29,12.29,0,0,0-4.05,1.82A32.9,32.9,0,0,1,213,159a4.79,4.79,0,0,1-2-2.94c-.2-2.07,2.09-3.52,4.14-3.86,5.82-.95,11.6,2.66,17.46,2,4.2-.47,7.85-3.05,11-5.83,5.6-4.9,10.47-10.73,16.69-14.9C263.87,131,275.32,129,274,122.81c-.42-2-2.37-3.28-3.86-4.73-4-3.9-5-10.23-3.34-15.56,1.73-5.62,6.8-10.34,12.83-10.49,5.75-.13,13,5.81,12.39,12a15.23,15.23,0,0,1-1.61,4.73,91.49,91.49,0,0,0-5.64,16.34c-.56,2.33-1,5,.39,7,1.72,2.47,5.25,2.57,8.26,2.8,14.81,1.13,27.39,11.4,36.73,23,3.31,4.09,6.4,10,3.35,14.23-4.36-1.86-7.14-6.07-10.25-9.64-3.49-4-7.8-7.48-12.92-8.87-4.63-1.25-11.8-.49-15.13,3.5-3.18,3.82-1.68,10.75-1.94,15.38C292.89,179.17,290.42,185.49,287.6,191.76Z"/></svg>