<svg id="Layer_1" data-name="Layer 1" xmlns="http://www.w3.org/2000/svg" viewBox="0 0 419.62 419.18"><defs><style>.cls-1,.cls-4{fill:#e5ead0;}.cls-1,.cls-2,.cls-3,.cls-4,.cls-5,.cls-6{stroke:#000;}.cls-1,.cls-3,.cls-4,.cls-5,.cls-6{stroke-linejoin:round;}.cls-2,.cls-5,.cls-6{fill:none;}.cls-2{stroke-miterlimit:10;}.cls-3{fill:#f4f1ce;}.cls-4,.cls-5{stroke-linecap:round;}</style></defs><title>house</title><rect class="cls-1" x="0.5" y="0.5" width="418.62" height="418.1"/><line class="cls-2" x1="240.12" y1="338.77" x2="419.12" y2="338.77"/><path class="cls-2" d="M239.62,343.13s25,0,37-1,39-1,47,0,48,0,50,0,45-1,45-1"/><path class="cls-2" d="M245.62,346.13s25,1,36,0,19-2,28,0,34,2,42,1,10-1,25-1,42-1,42-1"/><path class="cls-2" d="M257.62,350.13s37,1,42,0,44,1,56,0,63-2,63-2"/><path class="cls-2" d="M418.62,352.13s-18,0-21,1-23-2-32,0-29,0-35,0-18-1-30,0-34,0-34,0"/><path class="cls-2" d="M279.62,357.13s22,0,31-1,31,1,39,1,69-1,69-1"/><path class="cls-2" d="M296.62,362.13s26.75-1,35-1c10,0,15,2,26,1s18-2,30-2h31"/><path class="cls-2" d="M311.62,366.13s31,1,40,0,20,1,27,0a211.15,211.15,0,0,1,26-2,93.4,93.4,0,0,1,14,1"/><path class="cls-2" d="M333.12,371.13c1,0,30.47,1,41.28,0s44.22-2,44.22-2"/><path class="cls-2" d="M353.62,375.13s33,1,40,0,25-1,25-1"/><line class="cls-2" x1="388.62" y1="380.13" x2="418.62" y2="379.13"/><rect class="cls-3" x="63.12" y="64.63" width="167" height="273.55"/><path class="cls-2" d="M.5,338.65H63.12s93.5,66.48,156.78,80"/><path class="cls-2" d="M237.26,343.15S333.62,380.92,419.12,382"/><path class="cls-4" d="M202.26,249.17c-16.84,0-30.48,20.47-30.48,45.72s13.64,45.73,30.48,45.73,30.48-20.47,30.48-45.73S219.09,249.17,202.26,249.17ZM202,337.69c-15.58,0-28.22-19.22-28.22-42.94s12.64-42.94,28.22-42.94,28.22,19.22,28.22,42.94S217.53,337.69,202,337.69Z"/><path class="cls-5" d="M205.65,239v-6.77l-18.32-6.77,65.73-27.1,13.55,6.77v6.78s-.34,7.69-7.17,6.71-3.9-2.93-2.93-2.93,3.91,2,5.86,0a5.37,5.37,0,0,0,1.95-4.88v-3.9l-11.71-5.85L240.9,206"/><line class="cls-5" x1="225.97" y1="210.57" x2="205.65" y2="293.2"/><path class="cls-1" d="M261.75,304.37l7.78-3.77-.59,9.45-3.6,1.74a.26.26,0,0,1-.23,0,.32.32,0,0,1-.15-.13l-1.07-2.22-2.27-4.69A.28.28,0,0,1,261.75,304.37Z"/><path class="cls-1" d="M282.15,303.18l-.63.3-2.26,1.57-8.44,4.09.52-9.43,8.18-4a.28.28,0,0,1,.38.14l2.29,4.72,0,2,.1.23A.29.29,0,0,1,282.15,303.18Z"/><path class="cls-4" d="M305.32,287c-7.23,0-14,3.43-19.59,9.34-.39.4-.77.83-1.15,1.26-.83.93-1.62,1.93-2.39,3a46.7,46.7,0,0,0-2.93,4.44,73.37,73.37,0,0,0-9,27.75c-.1.72-.18,1.45-.26,2.17-.3,3-.47,6.15-.47,9.34,0,31.63,16,57.27,35.8,57.27s35.8-25.64,35.8-57.27S325.09,287,305.32,287Zm-.84,110c-18.23,0-33-24-33-53.61q0-4,.36-7.9c.06-.72.14-1.44.23-2.16,1.37-11.81,5.14-22.24,10.44-29.94.21-.31.43-.61.64-.91.73-1,1.5-2,2.29-2.89q.57-.65,1.17-1.26c5.14-5.42,11.28-8.56,17.88-8.56,18.24,0,33,24,33,53.62S322.72,397.09,304.48,397.09Z"/><path class="cls-4" d="M286.6,298.42l-.87-2-11.37-27a9.34,9.34,0,0,1-2.89-.09l-1.94,31.27-.59,9.45-1.35,21.83-2.06-4.25a14.73,14.73,0,0,1-.9,2.24h0l2,4L270,335l1.84.61,35.42,11.81ZM270.25,332.8l-.73-.25,1.3-23.41.52-9.43L273,270.13l11.6,27.51.85,2,18.89,44.82-32.26-11.08Z"/><polyline class="cls-5" points="273.38 266.11 247.71 253.28 219.19 239.01 255.05 310.72 259.84 320.29 264.63 329.87"/><line class="cls-5" x1="274.36" y1="269.42" x2="273.1" y2="266.44"/><path class="cls-4" d="M300.32,258.79l-23.7,10a9,9,0,0,1-2.26.61,9.34,9.34,0,0,1-2.89-.09,8.25,8.25,0,0,1-1.3-.33l-20.6-7.27c-4.54-1.6-5.29-6-1.86-8.45a7.37,7.37,0,0,1,1.11-.65l1.81-.84,11.76-5.53a9.13,9.13,0,0,1,4.83-.74L298,249.13C304.49,249.9,306.07,256.36,300.32,258.79Z"/><path class="cls-6" d="M266.61,320.29a24.27,24.27,0,0,1-1.08,7.34,14.73,14.73,0,0,1-.9,2.24h0c-1.23,2.44-2.93,4-4.79,4-3.18,0-5.84-4.38-6.58-10.27a26.92,26.92,0,0,1-.2-3.29,21.89,21.89,0,0,1,2-9.57,10.46,10.46,0,0,1,1.31-2.05,4.6,4.6,0,0,1,3.48-1.92,4.78,4.78,0,0,1,3.69,2.19c.13.16.24.33.36.5a13,13,0,0,1,1.22,2.35A23.1,23.1,0,0,1,266.61,320.29Z"/><polyline class="cls-6" points="232.74 333.85 259.84 320.3 263.52 308.94"/><rect class="cls-1" x="220.35" y="332.1" width="20.32" height="8.25" rx="0.29" transform="translate(-123.57 134.21) rotate(-25.86)"/><line class="cls-5" x1="220.02" y1="235.73" x2="250.66" y2="251.81"/><polyline class="cls-5" points="265.53 327.63 260.7 317.65 256.36 308.67 224.4 242.59"/><polygon class="cls-1" points="173.97 361.13 63.6 338.65 63.6 65.1 173.97 87.59 173.97 361.13"/><rect class="cls-1" x="159.62" y="215.13" width="5" height="21" rx="2.5"/><path d="M248.78,206.71c2.8.23,5.75-.48,7.6-2.56,1.29-1.46,1.92-3.45,3.36-4.76s4.35-1.32,4.82.58a3.91,3.91,0,0,1-.33,2.19c-1.43,4-2.89,8.07-5.36,11.53s-6.14,6.31-10.37,6.81c-1.66.2-3.36,0-5,.33-8.38,1.48-4.7,18.46-4.12,24.19a721.37,721.37,0,0,1,2.85,107.61c-1.88,1.27-4.61.47-6.15-1.21s-2.16-4-2.61-6.21c-3.4-16.62-.56-34.29-5.76-50.44-1.34-4.19-4.05-5.72-5.36-1.4-1.51,5-1.2,11.41-1.88,16.63q-2.25,17.24-5.43,34.31c-.63,3.39-1.61,7.2-4.65,8.8a3.12,3.12,0,0,1-2.78.24c-1.32-.67-1.53-2.43-1.57-3.9q-1.29-44.52-.41-89.05c.14-7.35.26-15-3-21.61a5.48,5.48,0,0,0-2.93-3.08c-1.94-.61-3.93.79-5.2,2.37-3.36,4.15-6.42,9-10.9,12-2.68,1.84-6.32,2.74-9.2,1.23a10.51,10.51,0,0,1-3.07-2.69c-4-4.78-6.45-10.73-10.56-15.42a12.93,12.93,0,0,1-2.8-3.89c-.53-1.52-.13-3.53,1.33-4.19,1.67-.75,3.5.57,4.8,1.85A68.63,68.63,0,0,1,173,237.78c1.48,2.23,3.84,4.89,6.29,3.79,1.44-.65,2-2.34,2.48-3.85,2.87-9.5,6.41-19.26,13.15-26.76,3.82-4.26,16.33-9.91,12.73-17.17-.66-1.32-2.18-1.94-3.37-2.82a16.12,16.12,0,0,1-4.08-5.29c-5.26-9.26-8-21.31,5.92-23.73,4.74-.82,10,.54,13.22,4.1s4,9.39,1.19,13.31c-2.25,3.15-6.45,5-7.48,8.71-1.31,4.75,3.61,9.11,7.65,10.58,5.81,2.1,12.18,2.08,18.05,4.6,2.91,1.25,5.76,2.75,8.87,3.3C248,206.62,248.39,206.67,248.78,206.71Z"/><path class="cls-4" d="M265.43,258.54s5.25,2.07,7.38,2.07,8.51-3,8.51-3"/><path class="cls-2" d="M.5,342.34s18.12.79,24.12.79,43.81-.79,43.81-.79"/><path class="cls-2" d="M.5,348.13s18.12-2,24.12-2,21,2,26,1,21.49-2.29,21.49-2.29"/><path class="cls-2" d="M.5,351.85s20.12,1.28,26.12.28,18-2,24-1,26.4-3,26.4-3"/><path class="cls-2" d="M.5,355s63.56.49,79.84-4.7"/><path class="cls-2" d="M.5,358.92s18.12.21,28.12.21,18-1,23-1,33.72-4.55,33.72-4.55"/><path class="cls-2" d="M.5,363.39s27.12-1.26,32.12-.26,16-1,19-1,33.57-6.59,38.78-5.29"/><path class="cls-2" d="M.5,367.11s53.12-3,64.12-4,29.4-4,29.4-4"/><path class="cls-2" d="M.5,370.83s22.12-1.7,31.12-2.7,44-2,49-3S99,362.26,99,362.26"/><path class="cls-2" d="M.5,375.11s30.12-3,42.12-4,20-2,27-2,32.44-5,32.44-5"/><path class="cls-2" d="M.5,379.76s21.12-1.63,30.12-3.63,17,1,24,0,52.29-9,52.29-9"/><path class="cls-2" d="M.5,385.9s20.12-4.77,36.12-4.77a176.19,176.19,0,0,0,38-4c9-2,38.49-6.3,38.49-6.3"/><path class="cls-2" d="M.5,391.48s15.12-2.35,20.12-3.35,61-7,70-10,28.17-3.95,28.17-3.95"/><path class="cls-2" d="M.5,397.09s26.12-4,30.12-6,31-4,39-5,53-9.75,53-9.75"/><path class="cls-2" d="M.5,404.88s25.12-7.75,32.12-7.75,22-6,29-6,30-5,37-7,29.9-4.37,29.9-4.37"/><path class="cls-2" d="M132.58,382s-30,7.1-39,8.1-22,6-32,7-28,7-36,8S.5,413.53.5,413.53"/><path class="cls-2" d="M3.4,418.69s32.22-6.56,48.22-12.56,25-6,35-8,28-7,28-7l23.65-6"/><path class="cls-2" d="M34.47,418.6s24.15-6.47,39.15-10.47,29-3,39-7,30.52-13.38,30.52-13.38"/><path class="cls-2" d="M61.54,418.6s24.08-5.47,29.08-7.47,15-2,20-4,38.48-16.26,38.48-16.26"/><path class="cls-2" d="M91.59,418.6s25-4.47,35-11.47S155.22,394,155.22,394"/><path class="cls-2" d="M115,418.6s29.59-11.47,36.59-15.47,9.94-6,9.94-6"/><path class="cls-2" d="M132.58,418.69s14-7.56,21-10.56,15.68-7.39,15.68-7.39"/><path class="cls-2" d="M174.72,403.18s-3.1,3.95-10.1,6.95l-19.73,8.47"/><path class="cls-2" d="M159.62,418.6s10-4.47,15-6.47a10.57,10.57,0,0,0,6.22-6.28"/><line class="cls-2" x1="175.87" y1="418.6" x2="190.57" y2="409.71"/><line class="cls-2" x1="189.57" y1="418.71" x2="199" y2="412.77"/><line class="cls-2" x1="209.81" y1="416.16" x2="204.61" y2="418.6"/></svg>