<svg id="Layer_1" data-name="Layer 1" xmlns="http://www.w3.org/2000/svg" viewBox="0 0 420.27 419.19"><defs><style>.cls-1,.cls-3{fill:#e5ead0;}.cls-1,.cls-2,.cls-3{stroke:#000;stroke-linejoin:round;}.cls-2{fill:none;}.cls-3{stroke-linecap:round;}</style></defs><title>house</title><rect class="cls-1" x="0.73" y="0.5" width="418.87" height="418.1"/><path class="cls-1" d="M419.77,223.51S294.22,176,210.13,183.77C67.73,197,1.5,236.76,1.5,236.76"/><path class="cls-2" d="M332.21,239.41s18.48-5.28,23.48-14.28,5-16,5-16"/><path class="cls-2" d="M338.69,243.13s15-9,19-16,8-21,8-21"/><path class="cls-2" d="M344.69,246.13s9-9,13-15,11-24,11-24"/><path class="cls-2" d="M347.69,248.13s13-15,15-19,3-7,5-9,5-12,5-12"/><path class="cls-2" d="M352.69,250.15s5.88-11.86,10.78-16.8,9.8-10.87,10.78-14.82a84.1,84.1,0,0,1,2.94-8.9s0,10.87-2,15.81-5.88,10.87-10.78,13.84-8.82,9.88-9.8,11.85"/><path class="cls-2" d="M359.69,254.13s13-14,18-23,5-20,5-20"/><path class="cls-2" d="M362.69,256.13s15-14,21-24a122.84,122.84,0,0,0,9-18"/><path class="cls-2" d="M387.69,213.13s-2,16-4,19"/><path class="cls-2" d="M368.69,259.13s13-22,19-27,10-16,10-16"/><path class="cls-2" d="M372.69,261.13a86.41,86.41,0,0,0,18-18c8-11,14-22,14-25"/><path class="cls-2" d="M370.69,260.13s11-14,17-22,12-17,13-21"/><path class="cls-2" d="M378.69,265.13s14-11,22-23a157.68,157.68,0,0,0,12-21"/><path class="cls-2" d="M384.69,268.13s19-15,23-22,7-11,8-13,3-10,3-10"/><path class="cls-2" d="M390.69,272.13s26-23,29-29"/><path class="cls-2" d="M396.69,275.13c2-1,12-10,15-13l8-8"/><path class="cls-2" d="M391.86,253c-.17.15,13.83-11.85,18.83-18.85s6-12,6-12"/><path class="cls-2" d="M408.69,220.13s-14,25-19,31-13,12-13,12"/><path class="cls-2" d="M419.69,259.13c-2,4-17,19-18,19,0,0,12-4,18-12"/><path class="cls-2" d="M405.69,281.13s13-6,14-9"/><line class="cls-2" x1="419.19" y1="277.63" x2="410.69" y2="284.13"/><polygon class="cls-1" points="124.56 99 124.56 204.9 193.57 232.28 310.08 198.9 309.51 89.33 193.57 75.53 124.56 99"/><polygon class="cls-3" points="193.72 229.63 193.65 77.83 127.19 100.13 127.19 203.87 193.72 229.63"/><polygon class="cls-3" points="251.38 215.71 251.54 174.69 273.62 172.69 273.62 209.34 251.38 215.71"/><path class="cls-3" d="M251.54,215.71s111.8,62.11,132.5,81.43c0,0,24.92,17.56,35.73,33.35l-.17-39.07c-15.19-16.56-145.91-82.29-145.91-82.29Z"/><path class="cls-3" d="M394.38,418.6c3.61.83,18.57-4.16,25.22-8.31l.17-36.18c-79,27-276.13,18.72-276.13,18.72-46.55-3.33-77-9.27-107.41-30,0,0-24.92-14.92-35.73-32.37l.23,48.76s23.21,35.19,115.48,39.35Z"/><line class="cls-1" x1="126.69" y1="204.13" x2="193.69" y2="193.13"/><line class="cls-1" x1="126.69" y1="100.13" x2="193.66" y2="106.13"/><polygon class="cls-3" points="185.19 210.47 185.14 92.99 133.71 110.25 133.71 190.53 185.19 210.47"/><line class="cls-3" x1="270.69" y1="192.13" x2="270.69" y2="195.13"/><path class="cls-2" d="M124.69,198.13s-23.59,6.06-17.88,15-2.45,23.64,25.26,24.45,44,5.71,74.16-3.26,52.09-14.65,52.09-14.65"/><path class="cls-2" d="M97.82,202.13s-19.13,9-16.13,14,3,10,5,17,3,14,15,18,62,6,73,5,37-6,37-6l65.42-20"/><path class="cls-2" d="M1.5,325.63s48.19,49.5,83.19,55.5,136,11,200,7,135.08-21,135.08-21"/><path class="cls-2" d="M419.77,357.6c-3.08.53-72.08,19.53-110.08,22.53s-103,2-130,0-65,0-84-6-32-9-52-23-43-38-43-38"/><path class="cls-2" d="M6.88,233.85A46.3,46.3,0,0,0,.73,246.3"/><path class="cls-2" d="M10,232.27S5.5,242.66.69,253.13v44a31.37,31.37,0,0,0,5,14c6,10,30,29,44,38s52,22,65,24,20-1,46,0,58,5,71,3,67-2,81-2,47-7,55-9,33-9,35-10S419.6,349,419.6,349"/><path class="cls-2" d="M.73,319.5s37,39.63,68,51.63,113,14,113,14h109s77-9,100-15S419.6,362,419.6,362"/><path class="cls-2" d="M14.5,230.14S1.69,255.13.69,262.63"/><path class="cls-2" d="M.69,291.13s4,19,25,34,45,30,62,35,22,7,41,8,67,2,84,3a308.45,308.45,0,0,0,43,0c16-1,47-5,64-5s16,1,33-2,46-15,46-15,14.81-7,20.91-8.5"/><path class="cls-2" d="M419.6,333.63s-23.91,16.5-51.91,23.5-56,4-59,5-34,2-50,4-69,0-79,0-51-5-62-4-36-10-36-10-53-30-59-36S-1.69,287.8,1.5,275s6.19-22.84,10.19-31.84a83.71,83.71,0,0,1,9-15.48"/><path class="cls-2" d="M419.69,330.13s-39,21-62,24-108,6-124,7-107,1-123-4-83-36-96-59-10-31-2-48,13-25,13-25"/><path class="cls-2" d="M.69,385.13s24,19,36,24,40.5,9.47,40.5,9.47"/><path class="cls-2" d="M.69,389.57s12,10.56,20,15.56,34,13.47,34,13.47"/><path class="cls-2" d="M.69,395.88s18,12.25,27,16.25,14.5,6.56,14.5,6.56"/><path class="cls-2" d="M1.13,401.87s21.06,16.37,30.81,16.82"/><line class="cls-2" x1="0.69" y1="408.88" x2="15.69" y2="418.6"/><line class="cls-2" x1="1.13" y1="414.88" x2="6.88" y2="418.6"/><path class="cls-2" d="M30.69,223.13s-21,35-20,49,14,33,21,37,74,42,89,45,101,3,101,3,115-3,131-6S417.14,327,417.14,327"/><path class="cls-2" d="M413,322.14s-33.31,14-43.31,18-35,9-55,10-156,6-181,0-8,2-32-9-59-30-67-37-17-23-18-30,4-27,9-34,10-19,10-19"/><path class="cls-2" d="M38.69,220.13s-13,30-14,36-4,11,0,25,19,24,30,30,50,29,67,32,60,5,79,4,84,2,112-2,40-3,54-8,41.72-19.71,41.72-19.71"/><path class="cls-2" d="M405,314.16s-33.3,20-46.3,22-57,5-79,6-87-2-108-1-38,0-49-3-68-31-75-38-22-22-20-34,10.7-40.58,17-48"/><path class="cls-2" d="M86.7,205s-10,5.16-10,11.16,6,30,14,35,34,10,65,9a322.88,322.88,0,0,0,66-9c13-3,59.15-18.86,59.15-18.86"/><path class="cls-2" d="M78.14,207.3c-.45-.17-7.45,5.83-5.45,12.83s7,32,14,35,37,10,56,9,37-2,51-4,22-1,33-4,21-8,29-10,31.24-10.36,31.24-10.36"/><path class="cls-2" d="M52.69,215.47s-16,30.66-12,49.66c3.36,15.93,23,26,31,33s33,22,45,25,55,8,72,8,89,0,106-1,28-4,50-8,48.16-18.31,48.16-18.31"/><path class="cls-2" d="M398.25,308.23s-8.56,8.9-20.56,12.9-18,5-43,10-110,5-162,6-91-24-91-24-44.71-23.2-47-43c-3-26,14-53,14-53"/><path class="cls-2" d="M291.72,238.52l-29,11.61s-29,11-40,14-50,2-72,6-48.72-4.5-63-10c-13-5-16-20-18-34-2-13.78,1.68-16.88,1.68-16.88"/><path class="cls-2" d="M67.78,210.47s-3.09,10.66-1.09,18.66,2,26,12,31,52,15,65,16,14-2,36-2,19,2,37-1,4-5,29-9,28-7,39-10a161.58,161.58,0,0,0,21-7.5"/><path class="cls-2" d="M58.4,213.26s-14.71,40.87-5.71,52.87,45,46,73,45,21,3,54,2,52,2,61,0,45-5,48-5,39-7,39-7L367,284.34"/><path class="cls-2" d="M62.52,211.94s-7.83,27.19.17,42.19,26,25,45,32,37,6,52,10,13,2,40-2,35-3,44-5,31-9,51-13S331.49,262,331.49,262"/><path class="cls-2" d="M65.69,211.13s-6,16-2,29-1,17,17,28,63,17,74,17,49,0,66-4,39-11,44-12,11-5,26-7A67.33,67.33,0,0,0,316.47,253"/><path class="cls-2" d="M60.16,212.69s-10.47,31.44-4.47,41.44,19,23,27,29,13,12,28,15,10,0,27,3,3,3,36,3,33,5,51,0,17-1,41-6,34-10,43-12,18-5,22-7,14.43-9,14.43-9"/><path class="cls-2" d="M379.36,293.22s-42.67,18.91-69.67,21.91-53,2-60,4-25,5-36,4-32,1-37,0-34-5-37-4-28,1-41-9-50-35-52-43-3-16,0-26S56.22,214,56.22,214"/><path class="cls-2" d="M120.69,311.13s65,9,82,8,101-5,114-10,56.43-20.52,56.43-20.52"/><path class="cls-2" d="M383.69,297.13l-18,11s-35,9-46,13-56,3-101,7-79-9-79-9"/><path class="cls-2" d="M49.78,253.77s3.91,16.36,40.91,40.36c16.53,10.72,59,15,69,15s57,4,76,0,43-7,58-9,23-4,34-10,28.29-13,28.29-13"/><path class="cls-2" d="M87.69,277.15s8,11,33,16,25,5,39,8,73-3,87-6,64-15,73-19A141.48,141.48,0,0,0,338,265.9"/><path class="cls-2" d="M322.41,256.51a182.67,182.67,0,0,1-37.72,14.62c-20,5-53,18-74,18s-73,4-86-2-23.29-10.79-23.29-10.79"/><path class="cls-2" d="M75.59,257.88s7.1,9.25,26.1,13.25,34,10,62,9,47-2,65-7,22-2,35-7,47.49-16.27,47.49-16.27"/><path class="cls-2" d="M297.21,241.7c.48.43-35.52,14.43-45.52,17.43s-32,11-39,11-49.5-1.44-49.5-1.44"/><path class="cls-2" d="M278.45,295.17s19.24-1,31.24-4,40.5-17.65,40.5-17.65"/><path class="cls-1" d="M255.6,293.13a141.37,141.37,0,0,1,21.09-9c12-4,35-7,42-11l15.58-8.9"/><path class="cls-1" d="M327.69,301.13s12-8,19-13A89.78,89.78,0,0,1,360,280.24"/><line class="cls-2" x1="365.69" y1="308.13" x2="388.74" y2="300.62"/><path class="cls-2" d="M377.69,321.13a107,107,0,0,1-33,11,186.92,186.92,0,0,1-36.83,1.81"/><path class="cls-2" d="M245.25,320.22s55,2.89,71.22-6.1"/><path class="cls-2" d="M40.05,255.13s-4.36,19,4.64,27c0,0,25.37,22.15,36.68,23.08"/><path class="cls-2" d="M16.69,274.13s-3-7-1-14a54.2,54.2,0,0,1,6.79-13.83"/><path class="cls-2" d="M31.69,309.13s14,14,23,18,53,31,66,27"/><path class="cls-2" d="M294.89,219.94s23.8-6.81,29.8-10.81,6-12.26,6-12.26"/><path class="cls-2" d="M299,222.05s16.7-1.92,25.7-7.92,9.58-16.39,9.58-16.39"/><path class="cls-2" d="M304.56,224.93s17.13-5.8,20.13-7.8,13-13,13.52-18.5"/><path class="cls-2" d="M308.42,226.93s25.27-10.8,26.27-13.8,8.22-8.26,5.11-14.13"/><path class="cls-2" d="M312.78,229.26s12.91-8.13,19.91-10.13,12.72-16.85,11.86-18.92"/><path class="cls-2" d="M346.57,200.73a5.89,5.89,0,0,1,1.12,5.4c-1,3-7,12-13,15s-18.22,10-18.22,10"/><path class="cls-2" d="M320.51,233.24s28.18-15.11,31.18-21.11,2.47-9.38,2.47-9.38"/><path class="cls-2" d="M325.31,235.77s26.38-16.64,28.38-20.64,2-5,3-7a9.07,9.07,0,0,0,.7-4.5"/><path class="cls-2" d="M330.69,238.13s24-15,25-18,1-1,3-5,2.91-10.61,2.91-10.61"/><line class="cls-2" x1="414.94" y1="287.63" x2="419.6" y2="284.32"/><path class="cls-2" d="M419.6,235.13s-21.81,29-30.86,35"/><path class="cls-2" d="M404.76,418.69s12.18-3.81,14.56-6.18"/><line class="cls-2" x1="413.94" y1="418.6" x2="419.6" y2="415.32"/><path class="cls-2" d="M306.91,386.29c.78-.16,40.78-.16,68.78-6.16s44-9.48,44-9.48"/><path class="cls-2" d="M278.45,369.12s29.24,1,39.24,0,29.6-4.08,29.6-4.08"/><path class="cls-2" d="M228.86,376.69s36.83,1.44,46.83,1.44,45.63-4.55,45.63-4.55"/><path class="cls-2" d="M278.18,211.4s25.51-5.27,32.51-9.27c0,0,6.3-3.29,7-4a4,4,0,0,0,1-4"/><path class="cls-1" d="M291.38,218.13c.31,0,24.31-6,29.31-10s8-11.82,8-11.82"/><path class="cls-1" d="M288.71,216.77s25-6.64,29-10.64,9.24-6.22,7.62-10.61"/><path class="cls-2" d="M284.73,214.73s28-7.6,30-9.6,7-5,7-7V194.7"/><path class="cls-2" d="M314.53,193.14c.07-.13,2.47.42.16,3a12,12,0,0,1-5,3"/><path class="cls-2" d="M310.08,193.14s1.61,1,1.61,2-1.61,1.5-1.61,1.5"/><path class="cls-2" d="M270.69,226.49s-75,23.64-93,23.64-61-2-66-3-14-1-17-12-5-13-4-18,14.35-16,22.18-18.5c0,0-32.18,10.5-25.18,21.5s-3,29,31,30,54,7,91-4,63.93-18,63.93-18"/><path class="cls-2" d="M116.34,197.88s-19.65,7.25-21.65,16.25c-1.45,6.55,2,23,5,26s30,7,38,7,41,0,47-1,38-8,47-10,35-11.92,35-11.92"/><path class="cls-2" d="M123.69,196.13s-19,7-21,13c-1.41,4.25-5,18,3,24s17,9,30,10,28,2,42,0,14,0,30-5,18-7,32-9,22.81-7.27,22.81-7.27"/><path class="cls-2" d="M89.88,204.13s-11.19,5-11.19,11,7.74,25.14,10.87,26.57"/><path class="cls-2" d="M105.92,211.13s-4.23,11-.23,17,10.91,10.09,15.46,8.05"/><path class="cls-2" d="M102.13,210.47s-3.44,1.66-4.44,4.66,1,14,3,17,8,6,12,8,14,4,17,4a53.4,53.4,0,0,0,7.25-.73"/><path class="cls-2" d="M254.09,217.13s-47.4,15-54.4,16-38,8-61,2c0,0-13,1-18-4s-6-7-9-13-4-7,0-11,12.87-7.33,12.87-7.33"/><path class="cls-2" d="M124.56,202.13s-8.87,3-11.87,8,8,21,15,22,29,6,43,3,23-3,23-3"/><path class="cls-2" d="M124.69,205.13a13.9,13.9,0,0,0-7,5c-3.23,4.31-1,14,7,18s24,3,34,4,15,2,20,0a42,42,0,0,1,8.22-2.5"/><path class="cls-2" d="M126.69,205.75s-5,3.38-6,5.38,0,13,6,14,15,2,23,3,18,3,24,2,10-1.78,10-1.78"/><path class="cls-2" d="M128.87,206.61s-6.18,4.52-4.18,7.52-2,6,4,8,32,6,37,6S180.16,227,180.16,227"/><path class="cls-2" d="M130.61,207.3s-4.92,7.83-1.92,11.83,35,8,39,7a36.75,36.75,0,0,1,7.88-1"/><path class="cls-2" d="M132.9,208.21s-5.21,6.92-2.21,9.92,29,7,33,6a46.44,46.44,0,0,1,6.29-1.21"/><path class="cls-2" d="M135.53,209.25s-3.84,3.88-.84,7.88,22,5,25,5a19.46,19.46,0,0,0,5.79-1"/><path class="cls-2" d="M138.59,210.47s-2.9,5.66,3.1,7.66,13-.84,18.5,1.08"/><path class="cls-1" d="M142.86,212.69s-1.17,2.44,2.83,3.44,6.33.12,6.33.12"/></svg>