<?xml version="1.0" encoding="utf-8"?>
<!-- Generator: Adobe Illustrator 23.0.1, SVG Export Plug-In . SVG Version: 6.00 Build 0)  -->
<svg version="1.1" id="Layer_1" xmlns="http://www.w3.org/2000/svg" xmlns:xlink="http://www.w3.org/1999/xlink" x="0px" y="0px"
	 viewBox="0 0 311.6 311.6" style="enable-background:new 0 0 311.6 311.6;" xml:space="preserve">
<style type="text/css">
	.st0{stroke:#F4F1CE;stroke-linejoin:round;}
	.st1{stroke:#F4F1CE;stroke-linejoin:round;stroke-miterlimit:10;}
</style>
<title>incave</title>
<rect x="0.5" y="0.5" class="st0" width="310.6" height="310.6"/>
<rect x="126.9" y="93.5" class="st1" width="53.8" height="116.5"/>
<path class="st1" d="M196.2,213.8c-0.2-1.5-0.4-3-0.6-4.6c-1.4-9.4-4.8-20.1-4.8-29.5c-1.2-7.4-2.3-14.9-3.3-22.3
	c-0.5-3.9-2.7-12.9,1.8-14.7c2.2-0.9,4.7-0.1,6.6,1.5c1.8,1.6,3.1,3.7,4.4,5.9c2.9,5,5.8,9.9,8.7,14.9c0.9,1.6,1.9,3.2,3.4,4.2
	s3.6,1,4.7-0.5c1.5-2,0.1-5-1.2-7.1c-6.3-9.7-12.7-19.4-19-29.1c-2.8-4.2-5.8-8.7-10.3-10.4c-2.3-0.9-4.9-0.9-7.3-1.6
	c-2.4-0.7-4.8-2.3-5.5-4.9c-0.5-2.1,0.3-4.4,0-6.7c-0.4-3.7-3.6-6.3-6.9-7.3c-2.6-0.8-5.5-1-8,0.1s-4.6,3.6-4.9,6.5
	c-0.5,4.6,4.2,8.4,5.6,12.4c2.1,6.2-3.2,6.3-7.6,8.3c-3.9,1.9-6.8,5.3-9.4,9c-1.2,1.8-2.3,3.6-4,4.9c-3.6,2.7-8.4,2-12.7,1
	c-2-0.5-4.5-0.8-5.9,0.9c-1.1,1.5-0.8,3.8,0.3,5.3c1.1,1.5,2.8,2.4,4.4,3.2c4.4,2.3,9.4,4.6,14.1,2.9c5-1.9,6.8-8.8,11.6-10.6
	c7.4-2.8,9.9,9.2,10.6,14.9c0.5,3.7-0.2,8.4-3.4,9.6c-3.3,1.3-7.1-2.1-10.3-0.5c-1.5,0.8-2.4,2.4-3.1,4c-2.2,5.2-9.4,35.1-0.5,35.6
	c2.9,0.1,5.2-2.9,5.8-6s0-6.3,0-9.4c0-3.2,0.7-6.6,3-8.5c2.4-1.8,5.7-1.3,8.6-0.6c9.3,2.3,18.5,6,20.5,17c2.4,13.3,3.7,26.9,4,40.5
	c0,2,0.2,4.3,1.7,5.5c1.3,1,3.1,0.8,4.5-0.2c1.8-1.3,4.1-4.5,4.9-6.7c0.7-1.8,0.7-3.7,0.7-5.6C197.1,227.9,196.9,220.9,196.2,213.8z
	"/>
</svg>
