<svg id="Layer_1" data-name="Layer 1" xmlns="http://www.w3.org/2000/svg" viewBox="0 0 347.36 621.1"><defs><style>.cls-1,.cls-2{stroke:#f4f1ce;stroke-linejoin:round;}.cls-2{fill:none;}</style></defs><title>incave</title><rect class="cls-1" x="0.5" y="0.5" width="346.36" height="620.1"/><path class="cls-2" d="M.5,244.69s17.4-4.47,27.45,6.7,59.16,7.81,64.74,23.44,20,20.29,15,38.08C97,351.17,63.14,369.38,82.64,389.8c23.45,24.56,53.58,17.86,91,21.21,37.12,3.32,84.22-14.51,115.47-10s57.71,10,57.71,10"/><path class="cls-2" d="M1.62,142.93s4,8,10.7-26.61,17.86-46.89,19-64.75S67,35.94,74.83,43.76s12.28-5,27.91-5.84,17.86,10.3,23.44,28.16,3.35,35.72,10,45.77,2.24,49.12,6.7,52.47,15.63-16.75,13.4-56.93,11.16-45.77,10-62.52,30.14-2.23,35.73,38,22.32-34.61,29-26.79,15.63,40.18,22.32,60.28,0,79.25,11.17,78.14,13.39,37.3,20.09,49.35S294.74,265.9,307,268.13s20.43-10.05,30.13-12.28S348,243.29,348,243.29"/><path class="cls-2" d="M107.72,312.91s20.69-26.23,20.69-44.07,6.4-30.19,10.05-48,35.22-42.54,35.22-42.54"/><rect class="cls-1" x="181.59" y="233.53" width="63.86" height="138.25"/><polygon class="cls-2" points="272.74 509.3 190.48 527.5 82.87 480.2 165.13 462 272.74 509.3"/><path class="cls-2" d="M199.29,233.53s.58-10.6,8.08-15.59,13.25-6.23,14.41-8.11S229.27,203,235,190.51s22.5-21.91,22.5-21.91"/><path class="cls-2" d="M191.48,233.53s5.86-13.4,10.05-20.38a19.69,19.69,0,0,1,10.88-8.69s7-4.42,9.77-9.73,10.88-11.44,10.88-11.44,5.86-10.6,8.93-14.51,15.4-3.91,15.4-3.91"/><path class="cls-2" d="M197.34,204.46s-7.53,14-8.65,15.39-12.56,5.58-12.56,9.21,1.4,11.16,0,12.56S173.68,255,173.68,255s-2,4.19-3.69,7.82,0,12,0,12"/><path class="cls-2" d="M257.72,179.21s-9.17,5-13.85,12.54a67.18,67.18,0,0,1-8.4,11.25"/><path class="cls-2" d="M191.48,411.2s-1.67-6.14,2.05-11,5.58-7.44,5.58-8.56.37-7.07,2.42-10.79a71.83,71.83,0,0,0,3.9-9.09"/><path class="cls-2" d="M211.76,409s.36-5.6-.57-8.34,0-5.06,1-5.88,4.14-4.52,4.14-4.52l1.39-8.6"/><path class="cls-1" d="M230.13,371.78s-.42,13.84.42,16.91-2.33,7.67-2.33,7.67v10.11"/><path class="cls-1" d="M240.6,371.78s-1.12,12.62,2.23,17.55,5.25,13.82,5.25,13.82"/><path class="cls-1" d="M295.05,401.83s4.15-12.58,4.43-19.28,1.4-15.91,1.4-15.91a14.87,14.87,0,0,1,7.81-10.05c6.7-3.34,2.79-9.2,9.49-12A118.63,118.63,0,0,0,331,338.18"/><path class="cls-2" d="M295.16,365.25c1.53-3.07,2.37-4.45,3.76-10.87A19,19,0,0,1,308.69,341a110.21,110.21,0,0,0,11.72-8.1s4.19-5.58,9.77-3.62a12.57,12.57,0,0,0,9.77-.42l6.91-6.28"/><path class="cls-2" d="M291.21,349.06s1.43-10.64,4-14.26,15.76-7,15.76-7,5.3-7.15,6.42-7.26S331,316.87,331,316.87l5.58,3.66"/><polyline class="cls-1" points="324.88 353.52 335.13 345.71 346.86 344.6"/><polyline class="cls-1" points="312.32 381.43 314.55 371.78 322.36 358.53"/><polyline class="cls-1" points="316.64 405.32 316.64 391.49 327.48 376.41 336.04 358.53"/><path class="cls-1" d="M326.34,407s10.6-5.35,8.13-20c-1.27-7.57,5.58-14,5.58-14"/><path class="cls-1" d="M82.64,389.8s2.79-11.16,6.7-16.46a34.36,34.36,0,0,1,8.37-8.09s1.68-.56,3.91-11.73,6.1-16.33,6.1-16.33l11.2-15.48,6.14-11.16"/><path class="cls-1" d="M97.42,376.22s7-1.82,7.59-8.72a24.73,24.73,0,0,1,3.55-10.59,3.59,3.59,0,0,1,1.66-1.42c1.45-.63,4.39-2.71,6.55-9.59,3-9.49,3.35-13.21,5.58-15.07"/><path class="cls-1" d="M118.62,352.81s5.32-3.22,6.5-6.43S127.37,334,127.37,334s9-3.75,11.08-6.29c1.68-2.09,5.86-14.79,5.86-14.79"/><path class="cls-1" d="M130.27,321.71s7.82-5.58,7.82-14.51a24.35,24.35,0,0,1,5.2-14.88s-2.6-5.59,4.84-13.77,7.07-13,7.07-13"/><path class="cls-1" d="M95.22,399.57s5.82-6.62,6-10.88,9.56-.65,10.92-5.81,3.49-12.1,8.12-14.83"/><path class="cls-1" d="M245.46,299.39l9.65-5.77s.58-13.77,4.2-16.56,7.52-8.66,7.52-8.66"/><path class="cls-1" d="M251.76,274.83s3.66-1.14,6.16-6.43a82.55,82.55,0,0,1,5.28-9.48l8.09-3.63"/><path class="cls-1" d="M261.53,289.53s.46-7.45,2.14-8.56l11.9-8s1.68-8.19,4.65-10.42a24.62,24.62,0,0,1,6.7-3.35"/><path class="cls-1" d="M251.76,304.22s10.6-3.53,12.28-5.76,4.28-10.24,4.28-10.24l5.9-5.39"/><path class="cls-1" d="M210.81,186.66s1.3-6.16,6.89-8.39,10.06-8.93,11.45-13.4,15.1-11.73,15.1-11.73"/><path class="cls-1" d="M28,251.39s1-13.36,2.59-20,3.56-9.8,3.56-9.8a10,10,0,0,0,5.19-7.6s.32-4.42,4.54-9.76,6.8-4,8.75-8.47,7.13-13.8,8.42-13.36,7.13-12.46,7.13-12.46"/><path class="cls-1" d="M52,210.64a63.23,63.23,0,0,0,13.39-17.3c5-10.05,6.7-15.63,14.51-23.44l7.82-7.82V150.92l5-11.16"/><path class="cls-2" d="M107.72,299.39s4.35-15.07,9.45-20.66S124,267,122.83,259.2s2.23-23.44,2.23-23.44l5.21-14.51s3.72-.93,5.4-10.79,12.46-16.56,12.46-16.56l7.07-11.72"/><path class="cls-2" d="M103.85,292.6s9.31-14.05,8.75-19.63,4.57-12.28,4.57-12.28-1.57-10.7,0-16.88,7.52-19.22,7.89-22.56,7.44-18.61,7.44-18.61l8.2-8.18"/><path class="cls-2" d="M97.42,283.89s6.06-.32,7.92-9.53a97.49,97.49,0,0,1,5.21-17s-3-10.42,0-16.56,6.62-14.7,6.62-14.7l2.31-13,5.58-8.6"/><path class="cls-2" d="M112.6,216s-1.68,5.21-3.17,8.93-1.71,11.9-1.71,11.9l-3.87,7.31v13.53s.75,8.19-3.72,13.4-4.65,9.7-4.65,9.7"/><path class="cls-2" d="M92.69,274.83s2-8.56,4.73-12.65-2.34-16.09,0-18.65,4.42-8.52,4.42-8.52l2-11.16"/><path class="cls-2" d="M86.58,268.4a91.9,91.9,0,0,1,6.11-9.2c2.23-2.61,0-7.81,0-7.81"/><path class="cls-2" d="M86.58,257s-4.84,3.72-5.58,8.56"/><path class="cls-1" d="M24.28,226.56a56.47,56.47,0,0,0,5.84-13.64c2.34-8.19,1.95-13.4,5.85-13.72s8.19-4.74,8.19-4.74,3.12-13.12,5.46-14.29,5.06-4.77,5.06-4.77"/><path class="cls-1" d="M20.77,213.7a20.66,20.66,0,0,0,4.67-9.24,27,27,0,0,1,4.68-10l7-4.93"/><path class="cls-1" d="M74.65,188.92s7.9-5.11,9.64-7.48S88.71,175,88.71,175L92,170.38l3.32-5.69,3.16-3.21"/><path class="cls-1" d="M44.13,123s14-26.79,24-32.37S79.85,79.48,79.85,79.48L85.43,70"/><path class="cls-1" d="M61.06,113.34S65.43,111,73.62,101.4s2.19-10.74,13.65-21.48,11.24-19.7,11.24-19.7"/><path class="cls-1" d="M48,102.55s8.18-7.82,10.42-13.77,11.9-8.56,11.9-8.56"/><path class="cls-1" d="M41.34,182.18s2.13-7.82,5.3-10.42,9.58-13,9.58-13S49,153.53,48,147.94s0-16,0-16"/><path class="cls-1" d="M159.11,174.08s4-9.49,8-21.11,5.31-29.8,11.94-29.23,20.5-6.83,20.5-6.83l8.43-22.22"/><path class="cls-1" d="M54.68,169.9s9.44-6,6.38-12.84-6.38-16-6.38-16l3.5-22.65"/><path class="cls-1" d="M185.06,131.94s11.44-1.39,12.28-2.79,7-6.14,7-6.14l6.49-7.53,2.72-8.09"/><path class="cls-1" d="M144.31,189.53s4.94-12,7.17-15.45,6-9.21,6-9.21l5.21-25.11,2.61-7.82"/><path class="cls-2" d="M128.41,198.56s7.26-6.62,9.21-10.24,5.12-14.24,5.12-14.24,4.93-6.42,5.21-7.25,3.52-12.7,3.52-12.7"/><path class="cls-2" d="M167.76,123s1.52-5,5.92-7a22.25,22.25,0,0,1,9.85-1.4"/><polyline class="cls-1" points="114.46 210.64 121.16 195.57 130.27 185.8"/><path class="cls-1" d="M105.25,217.34s2.51-13.6,4.46-15.73,4.47-3,4.75-5.2,7.82-12,7.82-12,8.33-6.14,9.18-9.21S134,164.87,134,164.87"/><path class="cls-1" d="M91.29,246.92c-1-3.39-1.16-6.14,3.35-13.39,3.82-6.14,6.42-17.49,6.42-17.49"/><path class="cls-2" d="M283.85,400.25s7.54-14.49,7.82-18.33a93.38,93.38,0,0,1,1.67-10.14"/><path class="cls-2" d="M76.72,377.46s7.09-6.35,9.86-11.1,10.84-13.55,10.84-13.55,3.08-14.82,7.83-22,11.72-17,11.72-17,10.32-11.08,11.44-14.42,3.05-16.56,3.05-16.56l7.28-19.17"/><path class="cls-2" d="M131.46,306.08S136,301.9,136.78,291s7.25-18.69,7.53-19.81,2-9.95,2-9.95,4.47-4,3.91-7.63"/><path class="cls-2" d="M139.94,257.71a14.24,14.24,0,0,1,3.54-8.37c3.35-3.54,5-5.29,5-5.81s.38-5.35,0-7.4,2.4-3.54,3-4.65,1.13-4.09,4.48-7.63a32.64,32.64,0,0,1,6.14-5.21"/><path class="cls-2" d="M186.88,113.53s7.39-1.26,7.67-2.8.7-6.27.7-6.27,3.9-4.89,4-6,3.77-10.19,3.77-10.19"/><path class="cls-2" d="M174.22,107.39a25.72,25.72,0,0,1,5.9-1.31A23.89,23.89,0,0,0,185.6,105l2.91-3.63,4.6-5.21,2.79-4.88"/><path class="cls-1" d="M112.22,184.78s6.33-3.72,6.14-5.39,3.92-4.19,3.92-4.19,3.71-1.58,4.08-4.37,5.1-12.65,5.1-12.65l8.48-14"/><path class="cls-2" d="M134,261.25s2.81-14.61,4.75-17.72,4.59-6.93,4-7.81-.38-10.3,1.57-13.83a63.76,63.76,0,0,1,5.92-8.19s1.92-.34,6.62-5.33a110.85,110.85,0,0,1,10.91-9.81s3.44-3.6,7.88-4.1,10.33-7.8,10.33-7.8"/><path class="cls-2" d="M167.83,211.28s10.95-2.09,14.27-6.21,6.56-8.28,6.56-8.28l7.26-7.22,5.72-2.46"/><path class="cls-1" d="M212.13,371.78s-3.91,8.81-3.63,12.72-2.37,7.82-2.37,7.82-3.21,6.28-3.21,7.25v10.65"/><path class="cls-1" d="M223,371.78a51.63,51.63,0,0,0,.83,8.12,20.08,20.08,0,0,1,0,6.83l-1.67,5.59s-2.51,4.19-2.23,7.25"/><path class="cls-1" d="M125.06,363.39s4.47-11.91,8.93-18.8,12.28-11.72,12.28-11.72"/><path class="cls-1" d="M156.46,124.67s5-9.06,5.63-10.1,5.67-4.39,5.67-4.39"/><path class="cls-2" d="M95.9,133.06s3.49,1.12,9.35-6.7,7.35-12.83,7.35-12.83l7-6.14,11.84-6.49"/><path class="cls-1" d="M72.32,164.87s6.28-5.89,7.46-11.73.63-12.27,2.86-16.45,10-13.68,10-13.68l8.37-5.59"/><path class="cls-1" d="M222.55,165.62s3.07-8,5-9.86,5.44-1.68,7.11-3.91,2.61-4.46,5.58-6.51,8-3.16,8-3.16l8.42-1.87"/><path class="cls-1" d="M255.58,127.05s-5.12,7-8.1,7.34l-7.91.9s-5.3,1.31-5.67,1.86-4.18,7-4.18,7l-5.28,4.52-1.89,4.45"/><path class="cls-1" d="M177.81,175.2s11-3.77,15.62-3.63c4.19.13,5.73,1.08,8.1-2.51,1.53-2.33,3.9.09,5-3.44a48.78,48.78,0,0,1,4.26-8.56l5-5.77"/><path class="cls-2" d="M199.84,159.29s1.41-4.77,4.62-6.15,5.72-7.1,5.72-7.1,1.53-2.21,3.35-1.87,7.72-.81,9-4.08,5.63-7,5.63-7,8.14-5.08,8.88-4.94,9.54-1.13,9.54-1.13"/><path class="cls-1" d="M215.76,102.55a9.18,9.18,0,0,1,2.79-4.37c2.23-2,4-1.68,4-1.68s-1.71-2.79,1.89-6.14a102.32,102.32,0,0,0,8.06-8.93L238.12,70"/><path class="cls-1" d="M33.44,254.7s5.92-12.21,4.64-22.14,2.6-5.76,6-9.48a32.33,32.33,0,0,0,5.21-8.3"/><path class="cls-1" d="M95.48,151.29s.53-6.51,1.94-9,6.43-3.91,7.83-5.86a28.3,28.3,0,0,1,4.74-4.47s.41-1.7,3.69-7.27"/><path class="cls-1" d="M.5,214.78s2.13-4.63,4.86-6,2.74-5.07,3.19-6,4.1-5.17,4.1-5.17L19,193.06"/><path class="cls-1" d="M98.51,53.53s.32-5,2.55-7.82,6.66-7.6,6.66-7.6"/><path class="cls-1" d="M74.65,77s4.09-4.19,3.25-9.49a17.14,17.14,0,0,1,1.88-10.05V45.82"/><path class="cls-1" d="M90.13,47.39s1.44,9.21-3.44,17"/><path class="cls-1" d="M183,2.37s11.91,7.34,18.22,19.06,7.25,14.51,14.64,5.58,7.66-12.95,16.65-9,7.89,11.78,19.77,6.76,12.51-.62,16.28,7.5,0,18.18,4.41,21.25,9.68,5.86,11.13,16.46,4.29,32.56,10.06,32.56c5.23,0,2.79-9.68,9.49-26.7,8.73-22.19-1.9-27.35,9.21-32.93s8.09-8,10.85,7.59,7.79,21.16,11.56,32.88,3.49,48,12.69,49.16"/><path class="cls-1" d="M29,436.57s.94-1.56,4.95-1.78,5.09,1.11,8.11,0a62.39,62.39,0,0,1,7.23-2"/><path class="cls-1" d="M271.63,456s.94-1.56,4.95-1.79,5.09,1.12,8.11,0a63.65,63.65,0,0,1,7.23-2"/><path class="cls-1" d="M251.35,530.29s.93-1.56,4.94-1.78,5.09,1.11,8.11,0a63,63,0,0,1,7.23-2"/><path class="cls-1" d="M175.64,436.78s2.64-2.9,5-2,5.53.84,6.86,0,5.36-2.54,5.48-2.06,3.56,0,3.56,0"/><path class="cls-1" d="M1.62,511.56a22.78,22.78,0,0,0,9.7-.66"/><path class="cls-1" d="M102.87,439.74a22.63,22.63,0,0,0,9.71-.66"/><path class="cls-1" d="M141.48,541.61s.94-1.56,5-1.78,5.09,1.11,8.11,0a64.71,64.71,0,0,1,7.23-2"/><path class="cls-1" d="M215.4,544.78a22.7,22.7,0,0,0,9.71-.65"/><path class="cls-1" d="M113.76,528.15a22.7,22.7,0,0,0,9.71-.65"/><path class="cls-1" d="M243.2,546.27s4.09-2.08,6.88-1.69,7.07.82,7.07.82"/><path class="cls-1" d="M213,440.85s4.09-2.08,6.88-1.69,7.07.82,7.07.82"/><path class="cls-1" d="M6.47,270.08s6.47-.83,9.7,0"/><path class="cls-1" d="M20.77,289.17s4.05-1.72,6.9-.16,6.63-.9,8.29-1.19a53.49,53.49,0,0,1,6.14-.2"/><path class="cls-1" d="M60.6,451.51a74.94,74.94,0,0,1,7.58-2.13c2.83-.52,10.68-.81,10.68-.81"/><path class="cls-1" d="M68.13,306.08s3.35-1.95,6.42-1.11a30.63,30.63,0,0,0,8.09.45"/><path class="cls-1" d="M.5,358.55s4.56-2,8.19-1.12a56.28,56.28,0,0,0,7.48,1.12"/><path class="cls-1" d="M124.84,586s1.67-1.81,3.21-1.53a4.89,4.89,0,0,0,2.37,0s.28-1.23,2.65-1.37,5,0,5,0"/><path class="cls-1" d="M45.81,553.34a14.82,14.82,0,0,1,11.72-3.16"/></svg>