<svg id="Layer_1" data-name="Layer 1" xmlns="http://www.w3.org/2000/svg" viewBox="0 0 311.56 311.56"><defs><style>.cls-1,.cls-2,.cls-3,.cls-4,.cls-5,.cls-6{stroke:#f4f1ce;}.cls-1,.cls-3,.cls-4,.cls-5,.cls-6{stroke-linejoin:round;}.cls-2,.cls-3,.cls-6{fill:none;}.cls-2{stroke-miterlimit:10;}.cls-3,.cls-5{stroke-linecap:round;}.cls-4{fill:#e5ead0;}.cls-5{fill:#f4f1ce;}</style></defs><title>incave</title><rect class="cls-1" x="0.5" y="0.5" width="310.56" height="310.56"/><ellipse class="cls-2" cx="113.76" cy="159.29" rx="22.44" ry="33.65" transform="translate(-14.08 11.06) rotate(-5.24)"/><polyline class="cls-3" points="112.49 118.1 112.03 113.14 96.68 109.54 144.51 85.12 154.9 89.18 155.35 94.14"/><line class="cls-3" x1="125.47" y1="95.88" x2="116.13" y2="157.82"/><rect class="cls-4" x="158.32" y="158.04" width="14.96" height="6.07" rx="0.29" transform="translate(-59.37 108.79) rotate(-31.1)"/><polyline class="cls-3" points="163.96 133.41 194.25 190.71 163.55 183.51 122.42 117.19 163.96 133.41 163.55 183.51"/><path class="cls-5" d="M145.05,125.18l9.52-5.58a6.62,6.62,0,0,1,3.48-.87l22.78.58c4.84.12,6.43,4.75,2.38,6.92l-16.69,8.94a6.76,6.76,0,0,1-4.72.57l-15.59-3.94C142.44,130.85,141.79,127.1,145.05,125.18Z"/><ellipse class="cls-6" cx="157.67" cy="174.04" rx="4.99" ry="9.97" transform="translate(-15.24 15.13) rotate(-5.24)"/><ellipse class="cls-2" cx="192.63" cy="188.58" rx="26.35" ry="42.15" transform="translate(-16.42 18.39) rotate(-5.24)"/><polyline class="cls-6" points="138.72 185.79 157.67 174.04 159.61 165.47"/><rect class="cls-4" x="129.77" y="184.65" width="14.96" height="6.07" rx="0.29" transform="translate(-77.22 97.87) rotate(-31.1)"/></svg>