<?xml version="1.0" encoding="utf-8"?>
<!-- Generator: Adobe Illustrator 23.0.1, SVG Export Plug-In . SVG Version: 6.00 Build 0)  -->
<svg version="1.1" id="Layer_1" xmlns="http://www.w3.org/2000/svg" xmlns:xlink="http://www.w3.org/1999/xlink" x="0px" y="0px"
	 viewBox="0 0 347.4 621.1" style="enable-background:new 0 0 347.4 621.1;" xml:space="preserve">
<style type="text/css">
	.st0{fill:none;stroke:#F4F1CE;stroke-linejoin:round;}
	.st1{stroke:#F4F1CE;stroke-linejoin:round;}
</style>
<rect width="347.4" height="621.1"/>
<title>incave</title>
<path class="st0" d="M0.5,270.4c0,0,38.6,28.8,52.9,33.5s27,12.3,34.6,21.9s45.4,26.3,51.4,33.9S185,377,206,382.8
	c30.8,8.5,68.2,49.1,77.6,59.7s63.3,47.2,63.3,47.2"/>
<path class="st0" d="M0.5,258.4c0,0,52,22.3,85.5,48s39.1,35.7,73.7,42.4s50.2,23.4,50.2,23.4s22.3,0,36.8,13.4
	c14.5,13.4,53.6,52.5,53.6,52.5s46.5,6.7,46.5,21.2"/>
<path class="st0" d="M0.5,244.4c0,0,26.9,3.6,34.4,14c0,0,14.2,0.4,23.4,12.1c0,0,34.3,20,37.7,22.5s27.6,28.5,27.6,28.5
	s22.6,2.5,30.1,10s19.2,10.9,19.2,10.9s8.4,5,26,9.2c10.3,2.4,20.2,6.3,29.3,11.7c0,0,24.3,3.4,29.3,9.2c5,5.9,22.6,20.1,22.6,20.1
	s5,15.1,13.4,20.1s21.8,13,21.8,13l31.5,10.4"/>
<path class="st0" d="M0.5,220.1c0,0,61.2,28.5,72.9,44.4c0,0,27.6,7.5,36,17.6l21.8,31.8c0,0,20.9-5,31,5s27.6,21.4,27.6,21.4
	s25.1,7.1,29.3,8s38.5,5,54.4,15.1s22.6,16.8,22.6,16.8s15.1,19.2,18.4,22.5s32.3,23,32.3,23"/>
<path class="st0" d="M0.5,205.1c0,0,14.3,1.7,22.7,10.1s26-0.8,35.2,10s15.9,19.3,15.9,19.3s13.4,15.1,26.8,19.2
	s28.5,15.1,28.5,15.1s-2.5,8.4,10,15.1s18.5,2.7,25.2,7.2s9.2,8.7,15.1,12.9s-1.7,7.5,26,14.2s64.5,9.2,74.5,20.1
	s23.5,23.4,23.5,23.4l34.3,27.6l8.9,16.7"/>
<path class="st0" d="M0.5,190.8c0,0,23.5,11.7,36.1,14.2s15.1,2.5,23.4,10.1s17.6,14.2,20.1,17.6s4.2,4.2,10.9,11.7s25.1,14,25.1,14
	s16.8-2.2,25.1,8.6c4.8,6.1,8.8,12.9,11.8,20c0,0,10.9,5.1,26.8,13.9s29.3,14.6,35.2,17.9s5.9,4.2,33.5,10s53.6,5,72,25.1
	c11.3,12.5,20.3,27,26.5,42.7"/>
<path class="st0" d="M0.5,145.6c6.7-1,13.2-3,19.4-5.9c10.9-5.3,25.1,8.1,45.2,15.9c22.3,8.7,26.5,35.2,26.5,35.2s12,16.7,32.9,14.2
	c19-2.3,26.8,7.5,26.8,7.5s24,22.9,38.5,30.4c27.2,14.2,45.2,9.8,45.2,9.8s41.9-8.4,80.4-8.4c20.5,0,31.5-19.3,31.5-19.3"/>
<path class="st0" d="M35,504.8c0,0,10.6-19.9,19.2-21.4s24.8-3.5,30.7,2.2s12.8,11.3,17.9,20.5c5.1,9.2-13.9,18.4-25.9,19.3
	s-1.3-3.4-17.9-5.7C49.3,518.3,40.5,512.9,35,504.8z"/>
<path class="st0" d="M35,535.5c0,0,2.6-6.7,5.6-7.1c3.2-0.2,6.4-0.2,9.7,0c0,0,6,5.4,4.5,9s-9.2,3.4-12.8,3.1S35.7,542.2,35,535.5z"
	/>
<path class="st0" d="M89.2,489.6c0,0,7.8-5.4,12.6-5.4s10.3,2.2,17.6,1s11.6,5.5,11.6,5.5s7.4,8.8,6.7,10.7s-9,9.2-14,8.1
	s-21-3.4-21-3.4"/>
<path class="st0" d="M0.5,178.6c0,0,13.7,3.9,22.1,12.3s14-3.1,24.6,5.2s26.2,18.8,26.2,18.8l15.8,19.5c0,0,7.7-1.1,17.7,6.1
	s19,12.9,19,12.9s7.3-1.2,15.1,4.9l23.4,18.4c0,0,12.3,15.6,19.5,19.5s30.1,6.7,38.5,8.4s21.8,5.9,21.8,5.9l19.5,12.4
	c8.1-1.8,16.5-1.8,24.6,0c14,3,27.4,6.3,29.6,8s19.5,12.3,20.1,14s8.9,16.8,8.9,16.8"/>
<path class="st0" d="M34.7,348.6c2,1.1,3.6,2.7,4.9,4.5c1.8,2.8,5,3.7,6.5,6.3"/>
<path class="st0" d="M62,372.7c0,0,6.1,2,8.4,6.1"/>
<path class="st0" d="M0.5,445.7c0,0,3.8,1.1,5.3,3.2s2.1,7.8,2.7,8.4l4,3.4"/>
<path class="st0" d="M66.6,354c1.5,0,2.8,0.8,3.7,2c1.1,2,0.9,2.5,3.1,3.6s3.1,4,3.1,4"/>
<path class="st0" d="M28,569.5c0,0,8.9,0.6,12.4,6.4"/>
<path class="st0" d="M216.2,464.6c0,0,9.4,2.7,12.9,7.3"/>
<path class="st0" d="M219.1,484.2c0,0,8.8,3.7,10.5,8.4s9.4,8.2,9.4,8.2"/>
<path class="st0" d="M148.5,455c0,0,5.2-0.2,7.9,1.5s4,4.5,5.5,6.2c1.3,1.4,2.7,2.6,4.2,3.7"/>
<path class="st0" d="M299.1,586.2c2.5,0.7,4.8,2.1,6.4,4.1c2,2.6,3.5,5.5,4.6,8.6c0,0,5.6,3.7,6,7.1"/>
<path class="st0" d="M302,503.6c0,0,4.8,1.5,7.1,3.3s3.7,7.4,3.7,7.4s3.7,1.9,5.2,4.5s5.2,8.9,5.2,8.9"/>
<path class="st1" d="M297.6,562.7c0,0,8.9,2.4,10,6.8"/>
</svg>
