<svg id="Layer_1" data-name="Layer 1" xmlns="http://www.w3.org/2000/svg" viewBox="0 0 311.56 311.56"><defs><style>.cls-1,.cls-2{stroke:#f4f1ce;stroke-linejoin:round;}.cls-2{fill:none;}</style></defs><title>incave</title><rect class="cls-1" x="0.5" y="0.5" width="310.56" height="310.56"/><path class="cls-2" d="M91.33,123.51c5,4.2,9.88,11.29,12.6,13.36,4.11,3.12,11.58,5.21,16.69,4.53.85-.11,1.91-.54,1.87-1.39a1.88,1.88,0,0,0-.53-1l-2.8-3.34c-4.28-5.12-12.64-8.84-15.81-14.93-3-5.79.47-14.57,8-13.56a25.63,25.63,0,0,1,20.36,16.67c.83,2.39,1.44,5.12,3.51,6.56,5.31,3.69,5.25-5.23,4.13-8-3.15-7.84-7.46-16.15-5.23-24.3a6.18,6.18,0,0,1,1.83-3.26c3.09-2.48,6.38,1.49,7,3.71,1,3.52.74,6.39,2.37,9.71A228.89,228.89,0,0,1,155.05,131c1.72,4.71,3.8,10,8.48,11.84,3.32,1.29,7.06.39,10.49-.6s6.94-2.12,9.53-4.53a70.5,70.5,0,0,0,8.93-10.84c4.67-7.17,8.47-13.65,14.24-20.09,2-2.24,5.48-4.55,6.44-1.26.9,3.08-2.64,9.92-3.77,12.77C205,129.42,193.52,143,187.18,153.19c-.76,1.22-1.54,2.78-.79,4s2.3,1.29,3.62,1.07c9.48-1.63,18.36-14.69,24.66-22.93,2.25-2.93,9.44-12.33,13.39-12.56,3.5-.19,3.48,2.86,3.6,5.54.24,5.28-3.42,9.86-6.32,14a169,169,0,0,1-30.77,33c-4.42,3.61-9.1,7-14.44,9-37.55,14.08-71.24-28.76-94.95-50.36-1.9-1.73-3.86-3.54-4.81-5.93s-.56-5.51,1.57-6.94C84.75,119.26,88.07,120.77,91.33,123.51Z"/></svg>