<?xml version="1.0" encoding="utf-8"?>
<!-- Generator: Adobe Illustrator 23.0.1, SVG Export Plug-In . SVG Version: 6.00 Build 0)  -->
<svg version="1.1" id="Layer_1" xmlns="http://www.w3.org/2000/svg" xmlns:xlink="http://www.w3.org/1999/xlink" x="0px" y="0px"
	 viewBox="0 0 468 721" style="enable-background:new 0 0 468 721;" xml:space="preserve">
<style type="text/css">
	.st0{fill:#C3CCF4;stroke:#000000;stroke-linejoin:round;}
	.st1{fill:none;}
	.st2{fill:none;stroke:#000000;stroke-linejoin:round;}
	.st3{fill:#FFFFFF;stroke:#000000;stroke-linejoin:round;}
	.st4{stroke:#000000;stroke-linejoin:round;}
	.st5{fill:#C3CCF4;stroke:#000000;stroke-linecap:round;stroke-linejoin:round;}
	.st6{fill:none;stroke:#000000;stroke-linecap:round;stroke-linejoin:round;}
</style>
<title>jam</title>
<path class="st0" d="M0.5,0.5v720h467V0.5H0.5z"/>
<polygon class="st1" points="0.5,1 1,719 468,720.5 467,0 "/>
<path class="st2" d="M176.5,400.5c2.7-1.5,5-3.9,3.8-6.6c-0.5-1.2-1.7-1.9-2.4-3c-2.2-3.5,1.6-8.2,5.4-9.3s8.2-0.4,11.8-2.3
	c1.3-0.6,2.3-1.7,2.8-3.1c1-3.3-2.1-6.1-4.9-7.8s-6.1-4.1-5.5-7.5c0.6-3.8,5.3-4.6,8.9-4.5c14,0.7,28.5,3.2,41.6-2.2
	c4-1.6,8.3-5.4,7.3-9.8c-0.7-2.9-3.3-4.5-5.8-5.8c-12.9-6.8-15.8-11-29.9-13.8c-14.9-2.9-21.1-7.1-36.6-13.9
	c-15.9-7,13.1-19.4,22-11.9c9.7,8.1,23.1,9,34.2,3.4c2.4-1.2,5.1-3.3,4.9-6.2c-0.1-1-0.5-2-1.1-2.9c-4.7-7.5-36-19.2-43.1-21.8
	c-6.9-2.5-14.5-3.9-21.6-6.1c-15.1-4.6-28.2-5.5-33.2-15.6c-2.5-5.1,3.4-11.8,13.7-12.3c29.8-1.4,39.5,7.3,68.6,0.1
	c6.6-1.6,14.2-6.5,13.1-13.6c-0.6-3.9-19.6-17.4-30.8-16c-31.4,4-12.5-24.9-41.9-37.2c-10.9-4.6-26.9-7.1-34.9-10.8
	c-7.3-3.4-12.6-9.8-7.5-17.4c5.7-8.5,24.2-8.5,34-8.3c16.6,0.4,29.5,8.1,43.3,9.2c39,3,45.9-23.7,71.3-45.4
	c15.3-13.1-5.7-40.9-22.6-51.2c-8.9-5.5-20.6-15.6-20-29c0.2-4.8,3.3-9,7.2-11.6s11.4-4.8,15.7-6"/>
<path class="st2" d="M168.3,398.3c1.1-5.6-16.3-10.7-15.9-16.3c0.2-2.9,1.7-4.6,4.6-4.9c3.2-0.2,7.2-0.5,7.3-4.1
	c-0.8-5.6-8.1-5.8-12.8-7.6c-2.4-0.9-5-1.9-6.1-4.3c-5.2-11.1,19.6-8.8,24-13.4c1.2-1.3,2.1-3.2,1.5-4.9c-0.7-2-2.9-2.8-4.9-3.4
	c-24.1-6.9-50.2-7.9-72.4-19.4c-2.2-1-4.2-2.5-5.8-4.4c-3.4-4.7-1.3-11.7,3-15.5s10.2-5.5,15.8-7.2c6.2-1.9,14.4-6.4,8.5-12
	c-5.5-5.2-17.7-8.3-24.6-11.5c-6.5-3-13.1-6.2-17.9-11.5s-7.1-13.4-3.7-19.7c5.7-10.5,22-9.1,30.6-17.4c2-1.9,3.6-4.6,3.2-7.4
	c-0.4-2.1-1.5-4.1-3-5.6c-9.2-10.4-23.1-14.8-36.3-19.3s-27-9.8-34.9-21.2c-26.3-37.6,27.6-71.8,55-79.9c21.9-6.4,27.4-24.7,48-15
	c17,8,35.7-7.6,24-18c-12.4-11.1-33.9-24.1-49.3-30.7c-13.3-5.7-29.5-9.6-34.1-23.3"/>
<path class="st2" d="M144.5,405.8c-1-0.7-1.9-1.7-2.5-2.8c-1.7-3.3-3.5-7.4-8.5-7.6c-6,1.1-7.1,8.5-10.4,13s-10.2,8.2-14.8,4.8
	c-3.7-2.7-4.6-7.4-4.8-11.8c-0.2-5.7,0.7-9.9-2-15c-1.3-2.5-4.5-3.1-7.5-3.1s-5.1,2.4-6.8,4.6c-9.4,12.3-3.7,13.5-20.7,20.5
	c-8.7,3.6-8,18-16,19c-17.3,2.2-22.2-7.9-23-10c-7.6-19.7,4.1-35.4,8-56c3-15.8,3-20.8-3-34c-5-11,7-18-1-25c-8.5-7.5-26.3-12-31-12
	"/>
<path class="st2" d="M0.6,93.8c11.3-7.6,23.1-16.6,26.9-59.3c1.4-15.8-4.1-25.8-14.4-34"/>
<path class="st2" d="M0.7,242.5c2.3-2.9,4.8-5.3,8.8-8c3.4-2.3,10.7-6.7,12.6-10.4c2.7-5.4,0-12.4-4.6-16.2s-10.8-5.4-16.8-6.7"/>
<path class="st2" d="M149.1,398.8c-4.4-6.2-11.2-13.3-19.6-13.3c-9,0-5,8-11,8c-6.8,0-10.8-14.5-9-21c1.4-4.8,6.6-7.7,8.2-12.4
	c1.8-5.3-1.8-11.5-7.1-13.4s-11.3-0.4-15.8,2.9s-7.7,8.1-10.3,13.1c-3.1,5.8-5.8,12.2-10.6,16.7s-12.6,6.9-18.1,3.1
	c-5.9-4-6.2-12.6-5-19.7c2.5-14.5,5.4-13,8.7-27.3c4-17-9-20-1-38c5.6-12.6,6.1-21.4-9.1-25.2c-6.7-1.7-13.7-1.3-20.7-1.4
	c-8.9-0.1-20.8-1.1-27.6-7.5"/>
<path class="st2" d="M0.6,123.2c17.6-21.7,55.7-50,69.9-71.7c11.8-18-11.9-40.9-24-51"/>
<path class="st2" d="M156.3,397.8c-4.1-3.2-8.9-8.7-7.8-17.3c1-8-10.9-5.9-16-7s-4-9,0-17c5.5-10.9-7-18-19-18s-34,10-39,5
	s2-29,10-54s-45.6-31.5-50-43c-5-13,19-18,15-36c-2.5-11.1-33.2-32.2-48.9-51"/>
<path class="st2" d="M151.9,0.7c3,11.3,11.7,27.9,35.6,43.8c22.6,15.1,37.5,24.7,11,41c-26,16,1.5,26.5-28,32c-20,3.7-51.1-8.5-66-7
	c-32.9,3.4-44.5,15-50,37c-8,32,99,36.9,87,69c-6,16-53,18-42,35s70,21,62,36c-6.5,12.3-49.6,7.1-46,19c6,20,87,21,86,33
	c-1.2,14.5-35,10-35,21c0,7.1,16,6,12,13s-15,8-12,14s7,6,6,10c-0.1,0.4-0.3,0.9-0.4,1.3"/>
<path class="st2" d="M59.5,445.5c9.7-2.9,11.2-21.8,17-20c10,3,9.4-10.4,15-10c14.8,1.1,20,18,29,12c8.2-5.5,10.6-19.4,24-14.8"/>
<path class="st2" d="M-0.2,323.7c0,0,18.7,8.8,14.7,21.8s-13.5,24.3-14,31"/>
<path class="st2" d="M0.5,402.5c0,0,1,4,9,13s-3.5,13.1-2,22c1,6,11,8,11,8"/>
<path class="st2" d="M271.6,201.5c-16.7-13-64.1-5-69.7-19s18.1-29,44.6-24s44.6,2,58.5-11s-9.8-31,11.1-44s44.6-30,23.7-61
	s-3.8-42-3.8-42"/>
<path class="st2" d="M251.7,274.4c-10.7-2.8-19.8-6.3-21.9-11.9c-2.8-7.5,8.4-12.8,21.4-17.2"/>
<path class="st2" d="M234.5,374.3c-7-7,2.3-9.8,13.5-10.8c1.1-0.1,2.4-0.2,3.8-0.3"/>
<path class="st2" d="M177.6,404.5c4.1-5.1,9.7-9,16-11c12.5-4,2.8-9,12.5-12c6.6-2,20.2-1.8,26.2-3.6"/>
<path class="st2" d="M177.6,409.2c8.3-5.4,23.2-13.8,33.3-11.7c6.3,1.3,13.5,3.2,20,3.6"/>
<path class="st2" d="M369.1,201.6c5.9-10.9,14.1-18.4,25.3-15.3c30.8,8.6,41.4,5.1,43.4-8.7s2.9-13.7,12.2-14.4s-10.1-36.9-3.3-52
	c2.4-5.4,10.9-10.2,20.7-14.1"/>
<path class="st2" d="M393.9,0.5c-5.3,3.1-8.3,7.1-7.4,12c4,22,86,15,62,38s-39,18-42,57s-74,32-68,61c2.9,13.9,1.5,24.8-1.6,33.1"/>
<path class="st2" d="M437.5,253.5c5.8-2.8,10.1-7.9,9-17c-2.4-19.5,4.4-33.1,21-34.8"/>
<path class="st2" d="M437.5,284.1c5.5,0.2,11.3-1.9,16-8.6c4.4-6.2,9-10.1,13.4-12.3"/>
<path class="st2" d="M437.5,315.9c10.9-4.5,22.2-6.1,30,0.3"/>
<path class="st2" d="M437.5,368.9c9.5,0.4,19.9,0.3,30.5-1.1"/>
<path class="st2" d="M406.5,405.7c17.7-0.7,35,1,35,9.8c0,8.7,13,10.8,26.5,10.8"/>
<polygon class="st3" points="437.5,387.5 251.5,387.5 251.5,201.2 437.5,202.2 "/>
<line class="st2" x1="1" y1="445.5" x2="467" y2="445.5"/>
<path class="st0" d="M200.1,417.7c0,0-31.7,17.6-32.6,17.8l-3,44l-5-1v-38.4c0-2.6-1.9-4.9-4.5-5.4l-19.1-3.3
	c-2.5-0.4-4.9,1.2-5.3,3.7c0,0.3-0.1,0.5-0.1,0.8v36.4l-4-0.8v-46c0.2-1.4,1.1-2.6,2.4-3.2l32.4-14.9c2.8-1.2,5.8-1.6,8.8-1.1
	l29.4,5.3c1.7,0.3,2.9,2,2.5,3.7C201.8,416.4,201.1,417.3,200.1,417.7z"/>
<path class="st0" d="M175.3,425.2l51.6-21c9-4.5,10.6,1.1,10.6,11.2v36.2l-49,38l-24-4v-43C164.5,435.1,168.7,428.4,175.3,425.2z"/>
<path class="st0" d="M406.5,479.5l-176-25v-68.4c0-10.8,8.7-19.5,19.5-19.5c0.7,0,1.3,0,2,0.1l138.2,13.8c9.3,1.1,16.3,9,16.3,18.3
	L406.5,479.5z"/>
<path class="st2" d="M246.5,373.5l134.7,13c9.3,1.1,16.3,9,16.3,18.3V422"/>
<path class="st0" d="M329.5,511.5l-141-22v-24.4c0-10.8,8.7-19.5,19.5-19.5c0.7,0,1.3,0,2,0.1l136.5,25.8
	C355.8,472.6,329.5,511.5,329.5,511.5z"/>
<path class="st0" d="M240.6,460.6l-44.9-6.5c-5-0.6-5.1-6.7-0.5-10.3l33.1-14.3c1.3-0.4,2.7-0.6,4-0.4l37.2,4.4
	c5.2,0.7,17.6,11,12.5,12.8l-36.8,13.9C243.7,460.7,242.1,460.8,240.6,460.6z"/>
<path class="st0" d="M289.6,466.6l-45-5.5c-5-0.6-4.1-6.7-0.5-10.3l26.1-16.3c1.3-0.4,2.7-0.6,4-0.4l38.2,5.4
	c5.2,0.7,10.6,10,5.5,11.8l-23.8,14.9C292.7,466.7,291.1,466.8,289.6,466.6z"/>
<path class="st0" d="M355.6,474.6l-60-7.5c-5-0.6-4.1-6.7-0.5-10.3l24.1-17.3c1.3-0.4,2.7-0.6,4-0.4l51.2,5.4
	c5.2,0.7,5.6,9,0.5,10.8l-14.8,18.9C358.7,474.7,357.1,474.8,355.6,474.6z"/>
<path class="st0" d="M340.3,456.2l50.6-34c25.6-9.7,28.6,9.1,28.6,19.2v36.2l-68,38l-22-4v-38C329.5,466.2,334.5,460.5,340.3,456.2z
	"/>
<path class="st4" d="M300.5,405.8c3.1-2.8,8.5-4.3,11.4-0.4c0.7,1.2,1.3,2.4,1.5,3.8c2.4,9.7,3.4,19.7,2.9,29.7
	c-0.4,8.3,6,6.2,6.2-0.6l0.5-24.1c0.2-2.8,0-5.5-0.5-8.2c-2.1-9-12-14.6-21.2-14c-2.3,0.2-5.2,0.3-6.2-1.7c-0.3-0.8-0.4-1.6-0.3-2.5
	l0.2-8.7c0.1-3.7,0.1-7.6-1.4-11s-5.2-6.1-8.8-5.4c-1.5,0.4-2.8,1.1-3.9,2.2c-4.4,4.2-5.4,10.8-2.6,16.1c1.7,3.1,4.5,5.3,4,9
	c-0.5,3.5-3.8,6.4-6.8,7.7c-3.5,1.6-7.3,1.9-11.1,2.2c-0.9,0.2-1.8,0.1-2.6-0.3c-0.7-0.4-1.2-1.1-1.6-1.8c-3.6-6.2-5-13.7-9.4-19.3
	c-0.9-1.2-2.1-2.3-3.6-2.2s-2.8,1.8-2.9,3.4c0,1.6,0.4,3.2,1.2,4.6c4.1,9.5,7.9,25.2,20.7,25.7c3.5,0.1,6.9-0.4,8.6,3.2
	c1.1,2.3,0.6,5.1-1.2,6.9c-4.6,5.2-15.7,7.1-22.2,7.7c-4.4,0.4-8.9,0.1-13.2,1c-9.6,2.1-17.4,9.1-20.4,18.5
	c-2.9,9.2-4.8,20.2,1,28.8c1.9,2.8,4.3,5.1,5.8,8c3.5,7-4.7,13.1-2.6,20.2c1.7,1.2,4.1,0.7,5.8-0.5c1.6-1.4,2.8-3,3.7-4.9
	c2.6-4.8,4.1-9.8,1.9-15c-2.1-4.9-6.4-8.5-8.1-13.6c-1.4-4.2-0.5-8.9,1-13.1c0-4.3,7.9-15.1,12.6-15c6.6,0.2,1.7,10.6,1.1,13.7
	c-1.3,6.7-1.2,13.5,0.5,20.1c2.1,8.4,6.8,14.2,1.3,22.6c-1.7,2.5-3.7,5.7,1.7,6s9.8-4.8,10.8-10.1s-0.8-10.6-2.6-15.7
	s-3.9-10.2-3.6-15.6c0.4-8.1,6.8-15.7,14.9-17c3.9-0.6,8,0.2,12-0.1c6.1-0.4,11.3-3.6,15.6-7.8s4.4-9.5,4.7-15.4
	c0.4-5.6,1-12,4.9-16.3C299.9,406.4,300.2,406.1,300.5,405.8z"/>
<path class="st0" d="M177.5,402.6v14.9c0,1.2-0.7,2.3-1.8,2.9l-5.5,2.7c-0.5,0.2-1,0.4-1.6,0.3l-21.1-1.9c-1.7-0.1-3.1-1.5-3.1-3.2
	v-14.9c0-1.2,0.7-2.3,1.8-2.9l5.5-2.7c0.5-0.2,1-0.4,1.6-0.3l21.1,1.9C176.1,399.4,177.5,400.9,177.5,402.6z"/>
<path class="st5" d="M149.5,402.5l18,2c1.6,0,3,1.3,3,2.9c0,0,0,0.1,0,0.1v10"/>
<path class="st0" d="M166,406.5L166,406.5c1.4,0,2.5,1.1,2.5,2.5v9c0,1.4-1.1,2.5-2.5,2.5l0,0c-1.4,0-2.5-1.1-2.5-2.5v-9
	C163.5,407.6,164.6,406.5,166,406.5z"/>
<path class="st0" d="M160.7,409.5l-7.5-1c-0.4,0-0.8-0.3-0.8-0.8l0,0v-1.5c0-0.4,0.3-0.8,0.8-0.8l0,0l7.5,1c0.4,0,0.8,0.3,0.8,0.8
	l0,0v1.5C161.5,409.2,161.2,409.5,160.7,409.5L160.7,409.5z"/>
<path class="st0" d="M160.7,419.5l-7.5-1c-0.4,0-0.8-0.3-0.8-0.8l0,0v-1.5c0-0.4,0.3-0.8,0.8-0.8l0,0l7.5,1c0.4,0,0.8,0.3,0.8,0.8
	l0,0v1.5C161.5,419.2,161.2,419.5,160.7,419.5L160.7,419.5z"/>
<line class="st6" x1="155.5" y1="411.5" x2="159" y2="412"/>
<line class="st6" x1="155.5" y1="413.5" x2="159" y2="414"/>
<path class="st0" d="M148.5,404.5L148.5,404.5c1.1,0,2,0.9,2,2v10c0,1.1-0.9,2-2,2l0,0c-1.1,0-2-0.9-2-2v-10
	C146.5,405.4,147.4,404.5,148.5,404.5z"/>
<line class="st6" x1="152.5" y1="399.5" x2="171.5" y2="401.5"/>
<line class="st6" x1="170.5" y1="410.5" x2="175.5" y2="407.5"/>
<path class="st5" d="M351.5,511.5v-33c0,0,1-13-7-15"/>
<path class="st5" d="M185.5,457.5v-11c0,0,1-13-7-15"/>
<path class="st0" d="M81.6,445.5c0,0-0.1-12,11.9-9s15,4.7,33,1.4"/>
<path class="st2" d="M225.7,584.5L73.6,558.9c-2.9-0.5-4.9-3.3-4.4-6.2c0.3-1.5,1.2-2.9,2.5-3.7l65.4-40.6c6.1-3.8,13.4-5.2,20.4-4
	l146,24.9c2.9,0.5,4.9,3.3,4.4,6.2c-0.2,1.4-1,2.7-2.2,3.5l-58.4,40.6C241,584,233.2,585.8,225.7,584.5z"/>
</svg>
