<svg id="Layer_1" data-name="Layer 1" xmlns="http://www.w3.org/2000/svg" xmlns:xlink="http://www.w3.org/1999/xlink" viewBox="0 0 238.7 238.7"><defs><style>.cls-1,.cls-4{fill:none;}.cls-2{fill:#c3ccf4;}.cls-2,.cls-4,.cls-5,.cls-6{stroke:#000;stroke-linejoin:round;}.cls-3{clip-path:url(#clip-path);}.cls-4,.cls-5{stroke-linecap:round;}</style><clipPath id="clip-path"><rect class="cls-1" x="0.5" y="0.5" width="237.7" height="237.7" transform="translate(0 238.7) rotate(-90)"/></clipPath></defs><title>jam</title><rect class="cls-2" x="0.5" y="0.5" width="237.7" height="237.7" transform="translate(0 238.7) rotate(-90)"/><g class="cls-3"><path class="cls-4" d="M67.33-44.67c-22.66,21-34.65,55-30.71,87.28C38.23,55.8,41,68.09,40.33,81.47l-.57,12.42c-1.52,33-5,65.45,1.45,98.3,6,30.59,29.16,54.54,55.37,66.81"/><path class="cls-4" d="M106,49.27,103.34,113q-.66,16.17-1.32,32.34c-.37,9.19-.88,18.28.48,27.47.33,2.22,3,5.94,4,8,2.13,4.41,9.62,5.07,15.1,6.27s11.24.92,16.89.56a8.27,8.27,0,0,0,2.95-.55c2.86-1.32,2.53-5.11,5-6.86a9.54,9.54,0,0,1,3.36-1.19c2.22-.48,4.65-.95,6.72-.12s3,3.59,1.13,4.66"/><path class="cls-5" d="M179.43,32.35a75.59,75.59,0,0,1,27.49,4.16,96.46,96.46,0,0,1,18.39,8.32,7.39,7.39,0,0,0,4.11,1.5c1.48-.07,3-1.46,2.58-2.89A89.35,89.35,0,0,0,223.5,33a6.22,6.22,0,0,1,2.66-.8c.91-.23,1.89-1,1.6-1.93a2,2,0,0,0-1.18-1c-8-3.71-18.85-2.61-27.47-2.81a58.34,58.34,0,0,1-11.74-1c-4.79-1-9.6-2.21-14.54-2-4.34.18-8.57,1.42-12.74,2.64,1-.52.48-2.28-.61-2.63a4.48,4.48,0,0,0-3.29.72c-5.75,3-11.69,6.11-15.63,11.25A5.2,5.2,0,0,0,139.17,39c.23,2.22,2.79,3.39,5,3.52,6.43.35,11.92-4,17.58-6.39A48.84,48.84,0,0,1,179.43,32.35Z"/><path class="cls-4" d="M160.52,157.86c2.55-.87,5.27.54,7.6,1.91a12.63,12.63,0,0,1,3.45,2.6,9.67,9.67,0,0,1,1.56,2.92,19.62,19.62,0,0,1-9.07,23.9"/><path class="cls-4" d="M141,222.48c4.42.87,8.86-1.36,13.37-1.38,5,0,9.93,2.69,14.87,1.78"/><path class="cls-4" d="M161.9,81.46c8.62-5.73,19.51-7.19,29.81-6.12s20.18,4.5,29.95,7.9"/><path class="cls-4" d="M163.35,86c1.09,2.17,3.67,3.23,6.09,3.26a24.08,24.08,0,0,0,7.07-1.5c8.07-2.46,17.08-3.55,24.72,0,2.56,1.19,5,2.91,7.8,3.16,0,0,6.47-.06,9.47-5.06"/><path class="cls-5" d="M210.5,79.83c.07-.1-9.08-2.39-9.83-2.59a50.24,50.24,0,0,0-10-1.62c-2.71-.16-5.37-.05-8.07-.23-2.37-.16-5.3-.24-7.38,1.13s-.84,4.89.39,6.49c2.9,3.79,8.93,2.61,12.85,1.82,3.16-.63,5.9,0,9,1s5.37,2.35,8.92,1.2a6.78,6.78,0,0,0,4.14-3.92,3.21,3.21,0,0,0-.19-3.17"/><path class="cls-4" d="M145.93,87.9a13.47,13.47,0,0,0-1.86,3.95A4.54,4.54,0,0,0,145,96a5.23,5.23,0,0,0,4.61,1.14"/><path class="cls-4" d="M40.83,83c4-3.22,9.58-3.44,14.73-3.52A76.89,76.89,0,0,1,69,80.1,25.54,25.54,0,0,1,81.2,85.23"/><path class="cls-4" d="M82.5,88.83c-1,3-5.79,4.54-8.1,4.49-1.61,0-3.37-1-4.9-1.49-10.18-3.43-20,0-29-2"/><path class="cls-4" d="M84.5,86.83c1.51.7,2.93,3.92,2.12,5.38s-3.49.26-5.12.62"/><path class="cls-4" d="M92.5,88.83c1.84,3.66-.46,6.69-2,7"/><path class="cls-5" d="M46.5,80.83c-1.16,1.68-.58,5.18,1,6.48S50.21,90,52.25,90c4.09,0,8.47-.86,12.43.46a26.88,26.88,0,0,0,3.82.4c1.61.21,3-1.16,4.07-2.39A7.92,7.92,0,0,0,74.3,84a3.23,3.23,0,0,0-.13-1.45,2.91,2.91,0,0,0-1.49-1.42c-1.36-.66-2.94-.59-4.44-.79a68.61,68.61,0,0,0-9.74-.49c-5,0-8,.68-12,1"/><path class="cls-4" d="M49.43,104.24a31.55,31.55,0,0,1,22,1.94"/><path class="cls-4" d="M171.37,100a7.62,7.62,0,0,1,4.16-.36,31.55,31.55,0,0,1,11.79,3.89"/><path class="cls-4" d="M163.06,72.76c6.14-7.2,16.71-8.45,26.18-8.21,10.23.26,21.31,2.09,28.31,9.56"/><path class="cls-4" d="M40.47,70c7.58-2.17,15.36-4,23.25-3.89s16,2.33,22,7.47"/><path class="cls-5" d="M89.51,37.28a13.67,13.67,0,0,0-4.73-3.78,65.86,65.86,0,0,0-18.86-7,6.58,6.58,0,0,0-1.47-.19A3.55,3.55,0,0,0,61.12,30a57.5,57.5,0,0,0-21.8-.74,6.34,6.34,0,0,0-2.92,1,4.34,4.34,0,0,0-1.9,3.58c-.09,2.51-.38,7.46,1,7a13.67,13.67,0,0,1,6-1c2.65.06,5.29.47,7.94.52,8.61.18,17.3.37,25.64,2.1C80,43.47,95.29,45.81,89.51,37.28Z"/><path class="cls-4" d="M143.35,233.11A9.62,9.62,0,0,0,149,236.8c6.85,1.88,14.16-.86,20.14-4.69"/><path class="cls-4" d="M172.5,163.83c4,5.44,7.17,13.86,9.8,20.08s6.26,12.47,12.22,15.65"/><path class="cls-4" d="M115,185.81c-1,5-2.34,9.78-5.8,13.56"/><path class="cls-6" d="M145,182s1.22-1.43,3.46.8c3,3,5,3,7,2s4.24-1.29,2.62-4.64S145.58,179.22,145,182Z"/><path class="cls-4" d="M161.4,83.33s-3.4,2.49-3.4,5.8,2.6-.16,8.53-.5"/></g></svg>