<svg id="Layer_1" data-name="Layer 1" xmlns="http://www.w3.org/2000/svg" xmlns:xlink="http://www.w3.org/1999/xlink" viewBox="0 0 468 721"><defs><style>.cls-1,.cls-4{fill:none;}.cls-2,.cls-7{fill:#c3ccf4;}.cls-2,.cls-4,.cls-5,.cls-6,.cls-7{stroke:#000;stroke-linejoin:round;}.cls-3{clip-path:url(#clip-path);}.cls-5{fill:#fff;}.cls-7{stroke-linecap:round;}</style><clipPath id="clip-path"><path class="cls-1" d="M.5,1,1,719l467,1.5L467,0Z"/></clipPath></defs><title>jam</title><path class="cls-2" d="M.5.5v720h467V.5Z"/><g class="cls-3"><path class="cls-4" d="M174.37,401.48c3.35-1.18,7.53-4.19,6-7.58-.53-1.19-1.67-1.93-2.35-3-2.2-3.55,1.55-8.25,5.42-9.31s8.16-.37,11.75-2.27a5.49,5.49,0,0,0,2.83-3.08c1-3.26-2.13-6.14-4.92-7.8s-6.09-4.13-5.54-7.51c.62-3.8,5.33-4.64,8.92-4.46,14,.74,28.54,3.16,41.64-2.25,4-1.64,8.31-5.35,7.27-9.75-.67-2.85-3.34-4.52-5.79-5.82-12.85-6.77-15.75-11-29.86-13.82-14.91-2.94-21.07-7.08-36.57-13.87-15.94-7,13.1-19.36,22-11.9,9.67,8.08,23.05,9,34.22,3.41,2.44-1.22,5.1-3.34,4.87-6.2a6.35,6.35,0,0,0-1.1-2.87c-4.71-7.53-36-19.18-43.15-21.8-6.9-2.51-14.49-3.93-21.55-6.1-15.08-4.65-28.25-5.45-33.23-15.55-2.53-5.13,3.4-11.84,13.67-12.32,29.79-1.39,39.48,7.27,68.58.14,6.55-1.6,14.25-6.5,13.12-13.58-.63-3.89-19.55-17.44-30.81-16-31.39,4-12.51-24.93-41.9-37.18-10.95-4.56-26.91-7.1-34.87-10.78-7.28-3.38-12.62-9.83-7.5-17.41,5.74-8.49,24.22-8.49,34-8.28,16.65.35,29.51,8.15,43.33,9.21,39,3,45.94-23.7,71.27-45.44,15.26-13.09-5.72-40.86-22.55-51.21-8.87-5.45-20.6-15.63-20-29,.21-4.8,3.34-9,7.16-11.62s8.28-3.79,12.65-5"/><path class="cls-4" d="M160.7,403.87c21.32-8.08-8.8-14.44-8.29-21.79.2-2.94,1.66-4.64,4.61-4.85,3.18-.22,7.16-.48,7.32-4.13-.84-5.6-8.13-5.79-12.84-7.6-2.43-.93-5-1.91-6.1-4.27-5.18-11.06,19.59-8.79,24-13.42,1.25-1.3,2.13-3.19,1.54-4.89-.69-2-2.95-2.82-4.95-3.4-24.11-6.91-50.2-7.89-72.45-19.44a16.12,16.12,0,0,1-5.79-4.38c-3.41-4.67-1.27-11.66,3-15.53S101,294.71,106.51,293c6.19-1.87,14.39-6.44,8.53-12-5.46-5.23-17.68-8.27-24.6-11.51-6.47-3-13.13-6.2-17.87-11.53s-7.09-13.45-3.7-19.73c5.68-10.52,22-9.1,30.59-17.43,2-1.95,3.58-4.64,3.25-7.41a10.75,10.75,0,0,0-3-5.58C90.52,197.42,76.57,193,63.43,188.54s-27-9.82-34.9-21.17C2.27,129.72,56.09,95.56,83.5,87.5c21.91-6.44,27.36-24.71,48-15,17,8,35.71-7.56,24-18-12.42-11.07-33.95-24.14-49.27-30.7C92.89,18.1,76.86,12.71,72.21-1"/><path class="cls-4" d="M151.09,405.87c-2.08,3.11-7.36.48-9.08-2.81s-3.47-7.42-8.51-7.56c-6,1.14-7.1,8.47-10.44,13s-10.17,8.17-14.78,4.77c-3.65-2.69-4.64-7.41-4.78-11.78-.18-5.68.67-9.91-2-15C100.17,384,97,383.43,94,383.39s-5.07,2.41-6.78,4.64c-9.4,12.29-3.71,13.47-20.71,20.47-8.72,3.59-8,18-16,19-17.33,2.17-22.19-7.91-23-10-7.59-19.67,4.08-35.42,8-56,3-15.75,3-20.84-3-34-5-11,7-18-1-25-8.51-7.45-26.34-12-31-12s-8.9,8.58-9.5,12.95"/><path class="cls-4" d="M154,406.65c-2.71-4.71-11.7-21.15-24.48-21.15-9,0-5,8-11,8-6.76,0-10.8-14.55-9-21.05,1.36-4.79,6.56-7.66,8.2-12.37,1.84-5.29-1.84-11.45-7.08-13.44s-11.33-.4-15.85,2.91-7.69,8.13-10.34,13.07c-3.13,5.84-5.77,12.16-10.57,16.73s-12.64,6.87-18.11,3.13c-5.92-4-6.22-12.62-5-19.68,2.51-14.46,5.36-13,8.72-27.3,4-17-9-20-1-38,5.58-12.56,6.06-21.38-9.08-25.21-6.71-1.7-13.74-1.3-20.66-1.38-10.16-.12-24.26-1.41-30.2-10.54-.8-1.23-4.72-8.29-2.78-11.1C.39,242.6,2.79,239,9.5,234.5c3.43-2.32,10.73-6.74,12.59-10.44,2.74-5.43,0-12.36-4.65-16.25S6.62,202.37.67,201.1c-18-3.86-39.3-8.48-46.56-25.43-6.71-15.68,2.6-33.38,12.75-47.08A210.72,210.72,0,0,1-9.59,101.43C3.81,88.64,22.5,90.5,27.5,34.5c2-22.48-10.11-33.27-30-43.84"/><path class="cls-4" d="M161.5,401.5c1.75-.22-14.93-5.6-13-21,1-8-10.95-5.9-16-7s-4-9,0-17c5.46-10.92-7-18-19-18s-34,10-39,5,2-29,10-54-45.56-31.46-50-43c-5-13,19-18,15-36-3.25-14.64-56-47-58-68s60-62,79-91c15.69-23.95-30-56-30-56"/><path class="cls-4" d="M150.5-13.5s-5,30,37,58c22.64,15.09,37.52,24.68,11,41-26,16,1.5,26.47-28,32-20,3.74-51.08-8.54-66-7-32.9,3.39-44.5,15-50,37-8,32,99,36.95,87,69-6,16-53,18-42,35s70,21,62,36c-6.54,12.26-49.55,7.15-46,19,6,20,87,21,86,33-1.21,14.51-35,10-35,21,0,7.07,16,6,12,13s-15,8-12,14,7,6,6,10-6,9-6,9"/><path class="cls-4" d="M59.5,445.5c9.74-2.93,11.15-21.76,17-20,10,3,9.43-10.4,15-10,14.83,1.06,20,18,29,12s11-22,28-13"/><path class="cls-4" d="M-.17,323.72S18.5,332.5,14.5,345.5,1,369.79.5,376.5"/><path class="cls-4" d="M.5,402.5s1,4,9,13-3.48,13.12-2,22c1,6,11,8,11,8"/><path class="cls-4" d="M175.5,407.5a33.57,33.57,0,0,1,18.11-14c12.54-4,2.79-9,12.54-12s34.83-1,27.86-8,2.79-9,13.93-10,41.8-1,48.76-9-5.57-26-22.29-31-20.89-11-7-18,26.47-6,25.07-17-57.12-11-62.69-26,44.58-21,54.33-30,4.18-18-12.53-31-64.09-5-69.66-19,18.11-29,44.58-24,44.58,2,58.51-11-9.75-31,11.15-44,44.58-30,23.68-61-2.79-49-2.79-49"/><path class="cls-4" d="M171.5,413.5s24.82-19,39.42-16,33.58,9,38-6,13.14-19,32.12-17"/><path class="cls-4" d="M355.77,249.33s7.85-71.62,38.64-63,41.39,5.12,43.44-8.73,2.94-13.72,12.2-14.37-10.11-36.88-3.29-52,60.56-25.41,60.56-25.41"/><path class="cls-4" d="M456.5-11.5s-74,2-70,24,86,15,62,38-39,18-42,57-74,32-68,61c8.43,40.77-20,56-20,56"/><path class="cls-4" d="M414.5,256.5s35,4,32-20,8-39,34-34"/><path class="cls-4" d="M416.5,274.5s23,21,37,1,31-15,31-15"/><path class="cls-4" d="M403.5,337.5s50.07-43.73,68.07-16.73"/><path class="cls-4" d="M397,363.34s42.62,11,82.5,2.54"/><path class="cls-4" d="M369.5,409.5s72-12,72,6,56,8,56,8"/></g><polygon class="cls-5" points="437.5 387.5 251.5 387.5 251.5 201.17 437.5 202.17 437.5 387.5"/><line class="cls-4" x1="1" y1="445.5" x2="467" y2="445.5"/><path class="cls-2" d="M200.15,417.68s-31.68,17.63-32.65,17.82l-3,44-5-1.05V440.07a5.43,5.43,0,0,0-4.5-5.35l-19.15-3.3a4.57,4.57,0,0,0-5.35,4.51v36.41l-4-.84v-46a4,4,0,0,1,2.35-3.18l32.41-14.92a15,15,0,0,1,8.81-1.07l29.35,5.34A3.17,3.17,0,0,1,200.15,417.68Z"/><path class="cls-2" d="M175.29,425.16l51.62-21c9-4.47,10.59,1.09,10.59,11.16V451.5l-49,38-24-4v-43A19.39,19.39,0,0,1,175.29,425.16Z"/><path class="cls-2" d="M406.5,479.5l-176-25V386.13A19.51,19.51,0,0,1,252,366.73l138.21,13.82a18.47,18.47,0,0,1,16.27,18.33Z"/><path class="cls-4" d="M246.5,373.5l134.73,13a18.47,18.47,0,0,1,16.27,18.33V422"/><path class="cls-2" d="M329.5,511.5l-141-22V465.13A19.51,19.51,0,0,1,210,445.73L346.5,471.5C355.78,472.61,329.5,511.5,329.5,511.5Z"/><path class="cls-2" d="M240.6,460.63l-44.95-6.47c-5-.65-5.15-6.66-.48-10.3l33.06-14.3a9.09,9.09,0,0,1,4-.4l37.24,4.39c5.22.67,17.6,11.05,12.5,12.75l-36.8,13.88A10.31,10.31,0,0,1,240.6,460.63Z"/><path class="cls-2" d="M289.6,466.63l-45-5.47c-5-.65-4.15-6.66-.48-10.3l26.06-16.3a9.09,9.09,0,0,1,4-.4l38.24,5.39c5.22.67,10.6,10.05,5.5,11.75l-23.8,14.88A10.31,10.31,0,0,1,289.6,466.63Z"/><path class="cls-2" d="M355.6,474.63l-60-7.47c-5-.65-4.15-6.66-.48-10.3l24.06-17.3a9.09,9.09,0,0,1,4-.4l51.24,5.39c5.22.67,5.6,9.05.5,10.75l-14.8,18.88A10.31,10.31,0,0,1,355.6,474.63Z"/><path class="cls-2" d="M340.29,456.16l50.62-34c25.59-9.7,28.59,9.09,28.59,19.16V477.5l-68,38-22-4v-38C329.5,466.17,334.5,460.5,340.29,456.16Z"/><path class="cls-6" d="M300.48,405.82c3.14-2.77,8.49-4.32,11.35-.36a10.67,10.67,0,0,1,1.51,3.8A103.54,103.54,0,0,1,316.28,439c-.38,8.26,6.05,6.24,6.19-.63l.5-24.11a32.54,32.54,0,0,0-.53-8.25c-2.14-9-12-14.63-21.21-14-2.28.17-5.18.34-6.2-1.71a5.25,5.25,0,0,1-.34-2.46l.2-8.67c.08-3.71.14-7.57-1.4-11s-5.18-6.11-8.82-5.35a8.61,8.61,0,0,0-3.91,2.19,13.63,13.63,0,0,0-2.59,16.15c1.72,3.11,4.55,5.3,4,9-.52,3.46-3.79,6.35-6.78,7.71-3.45,1.57-7.32,1.88-11.1,2.16a4.72,4.72,0,0,1-2.61-.29,4.34,4.34,0,0,1-1.57-1.79c-3.6-6.22-5-13.66-9.44-19.33-.91-1.16-2.14-2.32-3.62-2.22s-2.76,1.77-2.88,3.38a10.11,10.11,0,0,0,1.17,4.65c4.07,9.5,7.93,25.2,20.72,25.69,3.45.13,6.85-.41,8.56,3.16a6.2,6.2,0,0,1-1.16,6.9c-4.56,5.24-15.74,7.14-22.23,7.66-4.41.35-8.88.1-13.22.95a27.52,27.52,0,0,0-20.43,18.5c-2.85,9.2-4.77,20.21,1,28.77,1.85,2.75,4.33,5.08,5.79,8.05,3.47,7.05-4.66,13.11-2.6,20.18,1.68,1.2,4.11.74,5.75-.5a14.74,14.74,0,0,0,3.67-4.93c2.63-4.83,4.15-9.81,1.88-15.05-2.11-4.86-6.43-8.46-8.06-13.59-1.35-4.25-.52-8.9,1-13.1,0-4.32,7.9-15.06,12.64-14.95,6.57.16,1.69,10.61,1.07,13.68a46.15,46.15,0,0,0,.47,20.12c2.09,8.38,6.82,14.24,1.29,22.61-1.68,2.55-3.71,5.69,1.66,6s9.82-4.78,10.75-10.07-.8-10.65-2.65-15.69-3.89-10.2-3.64-15.56c.38-8.14,6.84-15.7,14.89-16.95,3.94-.62,8,.16,11.95-.13,6.11-.44,11.32-3.56,15.61-7.79s4.35-9.51,4.72-15.37c.35-5.57,1-11.95,4.88-16.31A10.35,10.35,0,0,1,300.48,405.82Z"/><path class="cls-2" d="M177.5,402.6v14.91a3.22,3.22,0,0,1-1.78,2.88l-5.48,2.74a3.27,3.27,0,0,1-1.57.34l-21.07-1.85a3.23,3.23,0,0,1-3.1-3.22V403.49a3.22,3.22,0,0,1,1.78-2.88l5.48-2.74a3.27,3.27,0,0,1,1.57-.34l21.07,1.85A3.23,3.23,0,0,1,177.5,402.6Z"/><path class="cls-7" d="M149.5,402.5l18,2a2.94,2.94,0,0,1,3,3v10"/><rect class="cls-2" x="163.5" y="406.5" width="5" height="14" rx="2.5"/><path class="cls-2" d="M160.74,409.5l-7.48-1a.76.76,0,0,1-.76-.76v-1.48a.76.76,0,0,1,.76-.76l7.48,1a.76.76,0,0,1,.76.76v1.48A.76.76,0,0,1,160.74,409.5Z"/><path class="cls-2" d="M160.74,419.5l-7.48-1a.76.76,0,0,1-.76-.76v-1.48a.76.76,0,0,1,.76-.76l7.48,1a.76.76,0,0,1,.76.76v1.48A.76.76,0,0,1,160.74,419.5Z"/><line class="cls-7" x1="155.5" y1="411.5" x2="159" y2="412"/><line class="cls-7" x1="155.5" y1="413.5" x2="159" y2="414"/><rect class="cls-2" x="146.5" y="404.5" width="4" height="14" rx="2"/><line class="cls-7" x1="152.5" y1="399.5" x2="171.5" y2="401.5"/><line class="cls-7" x1="170.5" y1="410.5" x2="175.5" y2="407.5"/><path class="cls-7" d="M351.5,511.5v-33s1-13-7-15"/><path class="cls-7" d="M185.5,457.5v-11s1-13-7-15"/><path class="cls-2" d="M81.6,445.5s-.1-12,11.9-9,15,4.71,33,1.35"/><path class="cls-4" d="M225.68,584.51,73.57,558.87a5.39,5.39,0,0,1-1.95-9.9l65.43-40.6a29.39,29.39,0,0,1,20.42-4l146,24.92a5.39,5.39,0,0,1,2.17,9.73l-58.35,40.63A29.4,29.4,0,0,1,225.68,584.51Z"/></svg>