<svg id="Layer_1" data-name="Layer 1" xmlns="http://www.w3.org/2000/svg" xmlns:xlink="http://www.w3.org/1999/xlink" viewBox="0 0 239.3 239.3"><defs><style>.cls-1,.cls-4{fill:none;}.cls-2{fill:#c3ccf4;}.cls-2,.cls-4{stroke:#000;stroke-miterlimit:10;}.cls-3{clip-path:url(#clip-path);}.cls-4{stroke-linecap:round;}</style><clipPath id="clip-path"><rect class="cls-1" x="0.8" y="0.8" width="237.7" height="237.7" transform="translate(-0.3 0.3) rotate(-0.14)"/></clipPath></defs><title>jam</title><rect class="cls-2" x="0.8" y="0.8" width="237.7" height="237.7" transform="translate(-0.3 0.3) rotate(-0.14)"/><g class="cls-3"><path class="cls-4" d="M82.6,274.79c1.71-7.28-2.68-14.79-8.53-19.44S61,248.13,54.4,244.7s-13.15-8.22-15.71-15.23c-3.24-8.84.57-18.47,2.29-27.72a62.39,62.39,0,0,0-2.22-31.32c-3.17-9.39-8.6-18-10.47-27.77a12.89,12.89,0,0,1,.18-7c1.38-3.57,5.4-5.63,9.22-5.55s7.4,1.94,10.41,4.3c13,10.23,16.27,28.91,14.27,45.37-.53,4.4-1.35,9,0,13.2s5.6,8,9.9,6.85c4.11-1.08,6-5.71,7.16-9.81a128.12,128.12,0,0,0,4-46.32A30.13,30.13,0,0,0,81.17,134c-3.66-8-12.59-11.87-20.61-15.49S43.87,109.75,42,101.16c-3.35-15.27,17-29.36,11.54-44-1.5-4-4.69-7-7.23-10.37S41.79,39,43.26,35s6.07-6.09,10.28-5.79,8,2.56,11.35,5.17a30.22,30.22,0,0,1,7.89,8.75c4,7.23,3.6,16.2,1.41,24.2s-6,15.47-8.4,23.4a6.94,6.94,0,0,0-.28,4.57,7.24,7.24,0,0,0,3.17,3.12c9,5.64,18.61,10.87,24.95,19.36a36.42,36.42,0,0,1,7.11,23.26c-.12,2.53.13,6,2.64,6.38,1.94.33,3.44-1.64,4.29-3.41,6.87-14.25,3.44-32.76-8.06-43.61-6-5.71-14.72-10.75-14.81-19.07,0-3,1.13-5.81,2.42-8.49C90.43,66.25,94.58,60,96.88,53s2.44-15.25-2-21.15c-3.83-5.1-10.28-7.48-15-11.82S73.15,7,78.58,3.59c3.44-2.13,7.91-.78,11.64.8a123.43,123.43,0,0,1,19.5,10.36c3.44,2.24,6.89,4.78,8.84,8.41,3.17,5.9,1.63,13.14-.2,19.58q-3.26,11.5-7.43,22.7c-1,2.58-2,5.33-1.36,8,1.4,6.2,11.17,11.48,15.14,16.17,7.72,9.13,13,20.82,12.3,32.75a12.06,12.06,0,0,0,.28,5c.59,1.57,2.32,2.86,3.9,2.31a4.49,4.49,0,0,0,2-1.87,45.65,45.65,0,0,0,7.26-33.3c-2-12.24-11.81-20.89-14.15-32.55-1.08-5.38.47-10.91,2.27-16.09a157,157,0,0,1,8.65-20.19c2-4,5.78-8.49,10-7a7.39,7.39,0,0,1,3.67,3.46c6.48,11.19-2.82,25.28-.91,38.07,1,6.65,5,12.41,7.95,18.44a67.17,67.17,0,0,1,3.29,51c-.63,1.84-.69,4.75,1.26,4.83a2.94,2.94,0,0,0,1.85-.83c9.32-7.35,14.18-19.38,14.7-31.23S186.17,78.83,181.37,68c-1.39-3.15-2.92-6.32-3.25-9.74s.83-7.24,3.76-9,6.92-1.1,9.74.89,4.71,5,6.34,8.06a109.13,109.13,0,0,1,10.81,31.67c1.88,10.06,2.6,20.49.46,30.5-7.09,33.15-44.54,55.62-46.23,89.48-1,20,13.25,24.12,14,35s1.43,32.09-7,39"/><path class="cls-4" d="M29,134.8c1.49,5.13,4.1,10.79,6.23,15.69a7.53,7.53,0,0,1,.9,3.47c-.1,1.2-1.93,3.89-3.13,3.84"/><path class="cls-4" d="M50.58,216.56a13.28,13.28,0,0,0,9.61-4.26"/><path class="cls-4" d="M49.1,170.32a8.91,8.91,0,0,0,7.78-3"/><path class="cls-4" d="M92.26,158.35c1.37,1.65,4,1.73,5.91.77a14.4,14.4,0,0,0,4.6-4.43"/><path class="cls-4" d="M120.9,133.51a18.25,18.25,0,0,0,7.47.07"/><path class="cls-4" d="M153.5,131.72a7.26,7.26,0,0,0,7.6,2.91"/><path class="cls-4" d="M181.75,140.4a7.06,7.06,0,0,0,8.4,1.7"/><path class="cls-4" d="M194.26,112.42c1.28,1.14,3.27,1,4.88.41s3.11-1.54,4.8-1.84"/><path class="cls-4" d="M193.46,85.07a14.45,14.45,0,0,0,4.48-2.18"/><path class="cls-4" d="M145.44,50.93a7.43,7.43,0,0,0,7.45.28"/><path class="cls-4" d="M156.24,92a8,8,0,0,0,7.07-2.77"/><path class="cls-4" d="M103,33.27a6.1,6.1,0,0,0,4.86-4"/><path class="cls-4" d="M94.77,83A9.41,9.41,0,0,0,106,82.79"/><path class="cls-4" d="M62.49,110a15.15,15.15,0,0,0,9.89-3"/><path class="cls-4" d="M62.4,65.37a8.83,8.83,0,0,0,8.22-2.27"/><path class="cls-4" d="M86,194.08q2.64,3.22,5.18,6.54a54,54,0,0,1,4.79,7c5.64,10.34,4.71,23.32,0,34.11"/><path class="cls-4" d="M84.76,189.71c11.54-.56,29.8.48,40.24,7.09s9.62,16.36,15,30"/><path class="cls-4" d="M115.46,143.9a72.23,72.23,0,0,0,18.94,26.72c8.36,7.19,18.84,12.07,29.82,13"/><path class="cls-4" d="M125,160.8c4.31,8.4,7,23,5.84,34.14"/></g></svg>