<?xml version="1.0" encoding="utf-8"?>
<!-- Generator: Adobe Illustrator 23.0.1, SVG Export Plug-In . SVG Version: 6.00 Build 0)  -->
<svg version="1.1" id="Layer_1" xmlns="http://www.w3.org/2000/svg" xmlns:xlink="http://www.w3.org/1999/xlink" x="0px" y="0px"
	 viewBox="0 0 239.3 239.3" style="enable-background:new 0 0 239.3 239.3;" xml:space="preserve">
<style type="text/css">
	.st0{fill:#C3CCF4;stroke:#000000;stroke-miterlimit:10;}
	.st1{fill:none;stroke:#000000;stroke-linecap:round;stroke-miterlimit:10;}
</style>
<title>jam</title>
<polygon class="st0" points="0.5,0 238.8,0.5 238.8,238.8 0.5,238.8 "/>
<path class="st1" d="M45.3,238.7c-2.9-2.6-5.3-5.6-6.6-9.2c-3.2-8.8,0.6-18.5,2.3-27.7c1.9-10.5,1.2-21.2-2.2-31.3
	c-3.2-9.4-8.6-18-10.5-27.8c-0.6-2.3-0.5-4.7,0.2-7c1.4-3.6,5.4-5.6,9.2-5.6s7.4,1.9,10.4,4.3c13,10.2,16.3,28.9,14.3,45.4
	c-0.5,4.4-1.3,9,0,13.2s5.6,8,9.9,6.9c4.1-1.1,6-5.7,7.2-9.8c4.1-15.1,5.5-30.8,4-46.3c-0.2-3.3-1-6.6-2.3-9.7
	c-3.7-8-12.6-11.9-20.6-15.5s-16.7-8.8-18.6-17.3c-3.3-15.3,17-29.4,11.5-44c-1.5-4-4.7-7-7.2-10.4S41.8,39,43.3,35
	s6.1-6.1,10.3-5.8s8,2.6,11.4,5.2c3.2,2.4,5.9,5.3,7.9,8.8c4,7.2,3.6,16.2,1.4,24.2s-6,15.5-8.4,23.4c-0.6,1.4-0.7,3.1-0.3,4.6
	c0.7,1.3,1.8,2.4,3.2,3.1c9,5.6,18.6,10.9,25,19.4c5,6.7,7.5,14.9,7.1,23.3c-0.1,2.5,0.1,6,2.6,6.4c1.9,0.3,3.4-1.6,4.3-3.4
	c6.9-14.2,3.4-32.8-8.1-43.6c-6-5.7-14.7-10.8-14.8-19.1c0-3,1.1-5.8,2.4-8.5c3.2-6.6,7.4-12.8,9.7-19.8s2.4-15.2-2-21.1
	c-3.8-5.1-10.3-7.5-15-11.8S73.2,7,78.6,3.6c3.4-2.1,7.9-0.8,11.6,0.8c6.8,2.9,13.3,6.3,19.5,10.4c3.4,2.2,6.9,4.8,8.8,8.4
	c3.2,5.9,1.6,13.1-0.2,19.6c-2.2,7.7-4.7,15.2-7.4,22.7c-1,2.6-2,5.3-1.4,8c1.4,6.2,11.2,11.5,15.1,16.2c7.7,9.1,13,20.8,12.3,32.8
	c-0.3,1.7-0.2,3.4,0.3,5c0.6,1.6,2.3,2.9,3.9,2.3c0.8-0.4,1.5-1.1,2-1.9c6.6-9.7,9.2-21.7,7.3-33.3c-2-12.2-11.8-20.9-14.1-32.5
	c-1.1-5.4,0.5-10.9,2.3-16.1c2.4-6.9,5.3-13.7,8.6-20.2c2-4,5.8-8.5,10-7c1.6,0.7,2.9,1.9,3.7,3.5c6.5,11.2-2.8,25.3-0.9,38.1
	c1,6.6,5,12.4,7.9,18.4c7.8,15.9,9,34.2,3.3,51c-0.6,1.8-0.7,4.8,1.3,4.8c0.7,0,1.4-0.3,1.9-0.8c9.3-7.3,14.2-19.4,14.7-31.2
	s-2.9-23.6-7.7-34.4c-1.4-3.2-2.9-6.3-3.2-9.7s0.8-7.2,3.8-9s6.9-1.1,9.7,0.9s4.7,5,6.3,8.1c5.2,9.9,8.9,20.6,10.8,31.7
	c1.9,10.1,2.6,20.5,0.5,30.5c-7.1,33.1-44.5,55.6-46.2,89.5c-0.8,15.6,7.7,21.5,11.8,28.5"/>
<path class="st1" d="M29,134.8c1.5,5.1,4.1,10.8,6.2,15.7c0.6,1.1,0.9,2.3,0.9,3.5c-0.1,1.2-1.9,3.9-3.1,3.8"/>
<path class="st1" d="M50.6,216.6c3.7,0,7.1-1.6,9.6-4.3"/>
<path class="st1" d="M49.1,170.3c2.9,0.4,5.8-0.8,7.8-3"/>
<path class="st1" d="M92.3,158.4c1.4,1.6,4,1.7,5.9,0.8c1.8-1.1,3.4-2.6,4.6-4.4"/>
<path class="st1" d="M120.9,133.5c2.5,0.5,5,0.6,7.5,0.1"/>
<path class="st1" d="M153.5,131.7c1.7,2.4,4.7,3.6,7.6,2.9"/>
<path class="st1" d="M181.8,140.4c2.1,2.4,5.5,3.1,8.4,1.7"/>
<path class="st1" d="M194.3,112.4c1.3,1.1,3.3,1,4.9,0.4s3.1-1.5,4.8-1.8"/>
<path class="st1" d="M193.5,85.1c1.6-0.5,3.1-1.2,4.5-2.2"/>
<path class="st1" d="M145.4,50.9c2.3,1.4,5.1,1.5,7.4,0.3"/>
<path class="st1" d="M156.2,92c2.7,0.3,5.3-0.7,7.1-2.8"/>
<path class="st1" d="M103,33.3c2.2-0.3,4.1-1.9,4.9-4"/>
<path class="st1" d="M94.8,83c3.4,2.4,7.9,2.3,11.2-0.2"/>
<path class="st1" d="M62.5,110c3.5,0.2,7-0.9,9.9-3"/>
<path class="st1" d="M62.4,65.4c2.9,0.7,6.1-0.2,8.2-2.3"/>
<path class="st1" d="M86,194.1c1.8,2.1,3.5,4.3,5.2,6.5c1.8,2.2,3.4,4.5,4.8,7c5.1,9.3,4.8,20.8,1.3,30.9"/>
<path class="st1" d="M84.8,189.7c11.5-0.6,29.8,0.5,40.2,7.1s9.6,16.4,15,30"/>
<path class="st1" d="M115.5,143.9c4.2,10.2,10.7,19.4,18.9,26.7c8.4,7.2,18.8,12.1,29.8,13"/>
<path class="st1" d="M125,160.8c4.3,8.4,7,23,5.8,34.1"/>
</svg>
