<svg id="Layer_1" data-name="Layer 1" xmlns="http://www.w3.org/2000/svg" xmlns:xlink="http://www.w3.org/1999/xlink" viewBox="0 0 1362.07 841.01"><defs><style>.cls-1,.cls-5,.cls-6{fill:none;}.cls-2,.cls-4,.cls-8,.cls-9{fill:#c1e8c5;}.cls-3{clip-path:url(#clip-path);}.cls-4,.cls-5,.cls-6,.cls-7,.cls-8,.cls-9{stroke:#000;}.cls-4,.cls-6{stroke-miterlimit:10;}.cls-5,.cls-7,.cls-8,.cls-9{stroke-linejoin:round;}.cls-7{fill:#fff;}.cls-9{stroke-linecap:round;}</style><clipPath id="clip-path"><rect class="cls-1" x="-0.5" y="1.01" width="1362" height="839"/></clipPath></defs><title>landscape</title><rect class="cls-2" y="0.51" width="1362" height="839"/><path d="M1361.5,1V839H.5V1h1361m1-1H-.5V840h1363V0Z"/><g class="cls-3"><path class="cls-4" d="M63,271.3C62.85,238.69,120,139.13,167.15,138.64c69.94-.73,89.54,91.78,110.79,125.44"/><path class="cls-4" d="M72.57,236.89S80,250.51,82,249.51c0,0-2-8,9-17s15-22,15-27-3.59-19.61-3.59-19.61"/><path class="cls-5" d="M209.91,225.47c1.46,1.4,7.06,3.18,5,4.35-4.11,2.31-13.89,2.69-35.89,3.69s-16.25,16.26-16.25,16.26c-15.78,1-33.24,3.51-34.75-.26-2-5,6-15,6-15s11-18,8-29c-1.09-4-1.86-6-6-12,0,0,3,3,14,1s28-12,36-10,19.75,20.54,19.75,20.54a22.18,22.18,0,0,0-1.75,2.46,9.41,9.41,0,0,0-1.52,6.42S153,208.51,142,228.51s4,3,4,3,5-10,24-12a288.25,288.25,0,0,1,33.79-1.62,30.65,30.65,0,0,0,6.12,7.58"/><path class="cls-5" d="M216,294.47s1-17-4-29-18-15-35-16c-2.08-.13-4.37-.14-6.77-.09,0,0-3.23-5.91,1.77-7.91s29-1,38-3,11-4,11-4c15,11,9,47,9,47"/><path class="cls-5" d="M174,255.51s20-2,30,7,7,32,7,32"/><path class="cls-5" d="M106.1,181.08s8.9,22.43-.1,38.43-24,24-19,31,16,8,23,16a13.54,13.54,0,0,1,2.55,4.76S123,277.51,129,272.51s6.75-13.74,6.75-13.74c-8.54-.1-14.41-1.51-14.75-6.26-1-14,21-30,16-44s-23.64-36.19-23.64-36.19"/><path class="cls-4" d="M-1,186.88s75.23-43.59,214.11,91.52S-1,395.35-1,395.35"/><path class="cls-2" d="M269.24,441.56c-50.49,0-117.63-3.4-117.74-32.82-.06-19,18.05-56.71,43.06-89.62,29.82-39.23,61.61-61.87,87.23-62.12h1c66.37,0,96.47,62.44,118.45,108,6.89,14.3,12.85,26.66,19,35.64a5.9,5.9,0,0,1,.37,6.55c-8.75,16.75-84,34-121.1,34.14-3.27,0-6.92.05-10.86.08C282.89,441.5,276.24,441.56,269.24,441.56Z"/><path d="M282.86,256.5v1c29.25,0,53.89,11.93,75.32,36.46,18.51,21.2,31.34,47.81,42.65,71.28,6.91,14.33,12.87,26.7,19.1,35.72a5.43,5.43,0,0,1,.34,6c-8.69,16.62-83.69,33.74-120.67,33.87-3.26,0-6.91.05-10.85.08-5.87.06-12.51.13-19.51.13-21.43,0-52.75-.56-77.25-5.32-26.49-5.15-39.94-14.23-40-27-.06-18.61,18.41-57,43-89.32,29.72-39.1,61.37-61.67,86.84-61.92h1l0-1m0,0h-1c-59.15.58-130.92,114.84-130.79,152.25.11,30.2,69.27,33.32,118.24,33.32,11.67,0,22.2-.18,30.37-.21,42.44-.15,134.28-22.43,121.14-41.47-26.54-38.46-51-143.9-137.91-143.89Z"/><path class="cls-2" d="M534.47,384.75c-29.13,0-67.86-3-68-28.53-.11-30.91,40.05-131,74.11-131.43h.53c37.8,0,55.07,54.17,67.68,93.73,4,12.42,7.37,23.14,10.93,30.94,1.18,2.59.83,5.4-1,8.33-4,6.19-14.78,12.93-29.65,18.49-13.62,5.1-28.2,8.28-38.06,8.32-1.87,0-4,0-6.21.06C541.65,384.7,538.17,384.75,534.47,384.75Z"/><path d="M541.17,224.29v1c37.43,0,54.63,54,67.19,93.38,4,12.43,7.39,23.17,10.95,31,1.12,2.46.79,5-1,7.85-3.91,6.1-14.62,12.77-29.39,18.3-13.57,5.07-28.09,8.24-37.89,8.28l-6.22.06c-3.11,0-6.63.09-10.32.09-28.91,0-67.36-2.91-67.45-28-.06-16.45,10.24-49.05,24.48-77.52,16.88-33.76,34.79-53.22,49.14-53.41h.52v-1m0,0h-.53c-33.81.44-74.72,99.48-74.61,131.93.09,26.46,40.41,29,68.45,29,6.34,0,12.06-.14,16.54-.15,24.26-.09,76.74-19.32,69.21-35.85-15.22-33.4-29.32-125-79.06-125Z"/><path class="cls-4" d="M773.17,411.59c46.55,1.68,81.44.82,69.33-9.58-57-49-71-128-139-146-68.75-18.2-114,41-152,70-24.94,19,14.89,80,86,80,33.13,0,85,3.57,128.63,5.31,0,0,12.87-1.81,8.87-12.81s-75-2.09-75-2.09"/><path class="cls-2" d="M467.44,496.45c-64.32,0-149.83-3.52-149.94-33.95-.07-19.7,23.19-58.78,55.32-92.92,38.31-40.72,79.17-64.24,112.11-64.52h1.46c85.18,0,123.74,64.7,151.9,112,8.83,14.82,16.46,27.62,24.41,36.93a5,5,0,0,1,1,5.77c-8,17.5-107.28,36.33-156.09,36.51-4.19,0-8.86.05-13.92.09C485.81,496.37,476.88,496.45,467.44,496.45Z"/><path d="M486.41,305.55c37.62,0,69.29,12.38,96.8,37.86,23.73,22,40.15,49.52,54.65,73.84,8.84,14.85,16.48,27.67,24.46,37a4.56,4.56,0,0,1,.93,5.23c-8,17.36-106.94,36-155.63,36.22-4.19,0-8.92.05-13.92.09-7.89.07-16.82.15-26.26.15-27.32,0-67.26-.58-98.55-5.54-33.72-5.35-50.84-14.74-50.89-27.91,0-9.27,5.43-23.63,15.37-40.43,10.11-17.09,24.25-35.61,39.81-52.15,17.38-18.47,36.05-34,54-45,20.76-12.69,40.19-19.2,57.76-19.35h1.48m0-1h-1.47c-75.88.65-168.06,119.17-167.92,158,.11,31.11,87.69,34.44,150.44,34.44,15.46,0,29.42-.21,40.18-.24,54.46-.2,172.3-23.37,155.46-43.1-34-39.84-65.28-149.07-176.69-149.06Z"/><path class="cls-4" d="M880,296s9,9.5,19,12.5,34,5,40,5,13,1,24,3,32.59,1.9,32.59,1.9c4.07,4.19,5.39,6,7.57,8.6,0,0,12.71,13.67,15.84,18.5,8,12.38,20,41,22,53,1,6-2,8-1,17s14,41,14,50-3,6-6,23,17,30,17,30a828.31,828.31,0,0,1-107.63,7.81c-119.89.42-253.85-36.11-217.35-74.39C790.5,399,836.6,276.8,956.49,276.38s197,124.63,217.7,174c13.64,32.54-34,55.26-102.92,66.91,0,0-28.27-18.8-16.27-39.8s-13-55-9-71c2.22-8.88-9.92-41.1-23-63,0,0-26-38-60.17-54.17"/><path class="cls-4" d="M582,554.19c-56.51-9.43-98-13.59-98-42.56C484,473,555,384,642.51,384s192,101.42,192,140c0,11.79-10.44,22.25-27.22,30.52"/><path class="cls-4" d="M959.17,292c10.34,3,23.16,14.2,31.83,22.5,0,0-20,1-36-3s-52-3-59-8-12.33-9.34-12.33-9.34"/><path class="cls-4" d="M1372,532.51c-54-57-78.63-109.5-149.74-109.5S1104,513.51,1077,539.51c0,0-12,12-26,14s-19,0-21-2,5-4.16,16-6c24-4,27-3,27-3"/><path class="cls-2" d="M70.5,507.51c-30.75,0-53.88-13.45-68.73-40C-12.86,441.39-14,412.3-14,404c0-15.25,16.48-35.8,42-52.35,28.55-18.53,63.28-29.15,95.27-29.15,47.52,0,67.61,24.61,93,55.76,12.25,15,26.12,32,44.87,48.12a6.29,6.29,0,0,1,1.91,7.65c-4.3,11.62-34.15,29.7-76,46C143.72,497,99.06,507.51,70.5,507.51Z"/><path d="M123.26,323c47.29,0,67.31,24.52,92.66,55.58,12.25,15,26.14,32,44.93,48.18a5.85,5.85,0,0,1,1.76,7.1c-4.26,11.49-34,29.45-75.75,45.75C143.59,496.51,99,507,70.5,507c-16.36,0-30.74-3.93-42.74-11.68-10.24-6.62-18.84-16.05-25.55-28.05-14.58-26-15.71-55-15.71-63.27,0-15.09,16.39-35.47,41.76-51.93,28.48-18.48,63.1-29.07,95-29.07m0-1C52.15,322-14.5,372.64-14.5,404s13.89,104,85,104,214.79-61.55,191-82c-57-49-67.13-104-138.24-104Z"/><path class="cls-4" d="M139.5,561.89c0-25.26,34.06-60.48,66.5-97.38C251.62,412.6,308.47,361,389,361c53.7,0,77.9,26.3,115,59.5,58.1,52,117.36,124,137.5,162.5"/><path class="cls-4" d="M655,628.51c9-11,37.94-16.14,51-33,12.34-15.93,32.57-45.28,49-61,28.52-27.3,122.93-52.72,158-23,59,50,81,104,134,139a28,28,0,0,0,13,5"/><path class="cls-4" d="M1129.41,684.41c1.36-.53,2.88-1.14,4.59-1.9,9-4,27-5,35-9"/><path class="cls-4" d="M1018.55,681.27S1035,665.51,1047,666.51s12,2,19,7-7,13-13,17c0,0,0,4,7,3,9-1.28,15-10,30-7s29.51,16,38.26,12c4.54-2.08-8.73-4.64-8.26-7,.56-2.83,2.09-4.06,4.93-5.31,0,0,5.07-.69-11.93-5.69s-24,3-39-9c0,0-7-4-3-10s6-7,6-7-14-7,1-15,16.23-8,27-8c5,0,12-5,12-5"/><path class="cls-6" d="M1070,742.51c-4-2-8-9-8-9-7.5-15.5-36.38-63.5-77.87-63.5S916.5,716,909,730.5c-4.3,8.31,8.8,13,22.94,17.15,13.52,4,31.91,8.86,52.19,8.86,17.32,0,54.87,7,68.87,5,10.76-1.54,17.5-1.15,24,1,0,0,10-8,39-14s43-6,53-16,1-15-4-18-9-6-26-12c0,0-.83-.25-2.14-.69l-3.86-1.31s-6,3-15,1c-8.34-1.86-21.27-10.08-28-12-7-2-15,1-25,6s-15-2-15-2a95.08,95.08,0,0,1-10.13,6.88"/><path class="cls-4" d="M0,661.51c4.4-.2,6.44-.46,10.14-.78l17.6-30c-75.12-32.14-148.24-13.44-148.24-50.3,0-38.37,79-164.24,157.5-126.81,66.65,31.78,116,60.07,149.38,92.45"/><path class="cls-4" d="M15.37,660.42c48.72-4.92,33.84-20.3,33.84-20.3A122,122,0,0,1,37,635c-1.41-.69-2.83-1.36-4.24-2Z"/><path class="cls-4" d="M85.07,663.16S77,665.51,59,676.51c-2.25,1.37-7.42,5.85-6.06,4.07C53,680.51,3,683.51-1,680.51s-4,0,0-4c2.92-2.92,16.65-12.29,16.65-12.29,24.3-2.49,68.18-7,75.35-7.71"/><path class="cls-4" d="M98.72,647.19A131.33,131.33,0,0,1,58,642.87a10.25,10.25,0,0,1-1.11,9.64s28.71,1,37.93,0"/><path class="cls-4" d="M1102.5,649c15.5-22.5,28-53.72,60.75-53.72S1201.5,616,1216,634.51c.43.54,9,12,12,14"/><path class="cls-6" d="M185.76,754.66c29.68,3,59.24,4.85,59.24,4.85s51.65,4,53.82-8c1.27-7,4.53-13.12,41.18-15,58-3-4-10-11-12s-27-3,20-18,51-27,40-40-83-12-59-52-13-73-49-75-95,7-95,7-11-22-12-31a57.62,57.62,0,0,1,0-14.75"/><path class="cls-6" d="M185.76,754.66l-1.31-.13s14.55-9,24.55-10,20-3,26-4a45.68,45.68,0,0,0,12.29-4.46c23.42,9.35,43.27,5.9,51.71-2.54,10-10-3-19,17-29s58-26,40-36-33,4-76,14-55-72-46-74,17,13,17,13c8,14,20,40,20,40,13,20,54-5,48-20s-5-28-1-47,0-36-37-44-103.64,1.64-103.64,1.64"/><path class="cls-6" d="M49,700.51c2,10,24,18,54,19,58.05,1.93,90-3,92,6s-83,18-49,24c8.46,1.49,18.84,2.86,29.66,4.07,0,0,21.34-12.07,38.34-14.07a188.6,188.6,0,0,0,28.66-5.46q-4.28-2-8.66-4.54c-22-15-24-35-63-32-9,1-56,22-69,4a39.09,39.09,0,0,1-2.83-9.74S68,700.51,49,700.51Z"/><path class="cls-6" d="M90.53,480.56l15.74,24.95s13.73,31,7.73,45-24,14-34,19-8,10-9,22,26,46,26,46l8-.12c-.06,18.88,7.94,31.23,7.94,31.23-5,1.8-9,7.73-10.89,9.89s-3,7-3,7.77c-12,6.77-51,9.23-51,9.23,0-11,26-23,26-23,36-27,32.94-52.09,66-88,36.39-39.52,116.56-87,176-87,49.65,0,105,38,123,73,25.73,50,64.17,72.11,88,89"/><path class="cls-4" d="M379,746.51c17.37-11.58,54-55,105-89,36.14-24.1,59.3-63.63,96.25-63.63,78,0,149.75,97.63,191.75,137.63"/><path class="cls-4" d="M851,762.51c-17.32-9.82-33.54-49.16-62-60-21-8-48.59-16-72-16-55.4,0-100,56-125,80,0,0,4,5,18,7s30,5,22,9-22,3-37,2-67-4-58-11c0,0,5-6,27-6,0,0,10,1,11-3s-16-4-13-11,13-14,35-17,29-4,29-4"/><path class="cls-5" d="M965,673.51s-8,5-2,7,17,5,27,3,18.33-3,20.67-7"/><path class="cls-5" d="M956,677.51s-2,1,0,3,10,7,22,7,22.33-1,27.67-3a20.13,20.13,0,0,0,8.33-6"/><path class="cls-6" d="M1169,673.51s29-7,27-14-9-5-16-15-7-43-17-49"/><path class="cls-6" d="M826.49,735.85C841,740.2,828,737.51,849,742.51s55.33-3.67,55.33-3.67c2.29,3.32,6.8,7.54,15.67,10.67,9.81,3.46,20.62,5.59,33.19,7.16,0,0,.81,6.84-15.19,5.84s-23-13-42-13-28.76,2.7-20,10c12,10-12,12-24,10,0,0-4,1-13-10s-31-41-55-54-52-18-52-18"/><path class="cls-5" d="M-.5,665.88s2.28-.44,9-1.13c0,0-32.51,19.76-18.51,20.76s58.74-1.45,58.74-1.45c-8.65,8-9.33,15.32-4.74,21.45,6,8,26,17,49,19s79,0,86,3-23,6-37,9-24,9-14,15,29.05,6.25,106,12c67,5,69.63-6.56,69.63-6.56a44.21,44.21,0,0,0,7.37,4.56c14,7,69,2,91,2s46,8,99,12,18-17,0-28-16-27.1-16-27.1c11.24-2.74,20.79-6.24,30-8.9"/><path class="cls-6" d="M1167,595.39c4-.12,4,2.12,7,9.12s6,31,6,31c2,14,24,19,19,27s-27,14-27,14c-14,6-32,6-42,12s9.12,8.4,36,21c32,15,7,36-30,40s-53,15-53,15c1.76.81,5.77,3.38,7,4,6,3,7,7-6,14-15,8.06-4,7,4,9s77.1-.6,105,2c43,4,113.52-3.14,118-10l-3-1,11,1c7.17,1.84-64.42,23.36-115,15-17.76-2.94-76-2-109-3s-26-8-13-15,2-11,2-11c-13.49-7.07-38-4-38-4-14,1-35-4-62-6-8.63-.64-16.54-1.28-23.87-2,0,0,.87,7-9.13,8s-18,2-33-5-15-8-27-7-11,4-11,4,6,4,5,7-2,10-23,9-19-5-23-9-33-40-49-51a116.36,116.36,0,0,0-39-17c-18-4-17.83-9-47-9"/><path class="cls-6" d="M1064,736.62s-21,8.89-35,10.89-25,7-35,4-69-9-75-14-8-10-8-10c-8.5,2.25-9,6-9,6s-1,3-18,4-23,4-36,0c0,0-12-1-16-3s2-4,9-4,29,4,40,1,10-7,15-9,3-5-23-2-46-3-61-2"/><path class="cls-6" d="M1155,596a28.5,28.5,0,0,1,9,16.51c2,11,2,21,4,27s8,9-6,6-8-9-10-16-7.67-22.34-13.33-27.17"/><path class="cls-6" d="M1152.19,596.6a24,24,0,0,1,6.81,9.91c2,6,3,13,4,21s1,11,2,13,6,5-8,0c0,0-3,0-1-6,0,0,1-3-3-13s-7.55-17.08-10.77-21"/><path class="cls-6" d="M815,721.51a125.8,125.8,0,0,0,16,1c9.06,0,26,4,45,0s16,0,12,2-7,5-14,5-36-3-41-1-6.81,2.11-7.91,5.55"/><rect class="cls-5" y="0.51" width="1362" height="840"/><path class="cls-6" d="M434,696.51c-3.56,2-10.62,6.45-15,8-31.7,11.19-51.21,1.72-51.21,1.72-15.26,6.11-30.6,10.09-32.79,12.28s8.91,4.59,20,6.69c0,0,19.06-10.64,56.53-8.16"/><path class="cls-6" d="M494,635.51c-12,2-25,17-29,23-2.12,3.17-4.37,12.39-12,22"/><path class="cls-5" d="M944,685.51s1,8,49,12c0,0,20-2,26-6s6-5,6-5"/><path class="cls-5" d="M941,687.51s1,5,9,9c8.49,4.24,26,7,42,6s21-5,27-6,10-7,10-7"/><path class="cls-5" d="M933.62,695.11s-1.62,9.4,25.38,12.4,36,5,47,4,26.75-14.75,27.38-17.88"/><path class="cls-5" d="M930.25,698.76s-3.25,3.75,6.75,8.75,22,5,32,7,34,4,40,2,22-10.75,27.5-19.88"/><path class="cls-5" d="M916.83,717.34S931,728.51,956,731.51s30,7,45,6,22-9,36-10,16-10,16-10"/><path class="cls-5" d="M1055.88,722.51s2.12,7-7.88,9-17,2-25,6-33,6-41,4-28-5-35-6-29.25-12.5-32.12-15.25"/><path class="cls-5" d="M1062,733.51s1,2-12,5c-17,3.92-42,13-55,10s-70-9-76-16-6.38-8.38-6.38-8.38"/><path class="cls-6" d="M1134.08,606.07s10.92,15.44,9.92,27.44-3,10-6,8-3-7-9-13-6.71-9.66-6.71-9.66"/><path class="cls-6" d="M1131.69,608.19s7.31,9.32,8.31,16.32,2,13,0,14-3-6-8-11a51.55,51.55,0,0,1-8.08-10.77"/><path class="cls-6" d="M1113.83,631s5.17-.5,13.17,7.5,15,7,25,12,6,12-11,13c0,0-14-2-27-4s-25,3-34-2c0,0-22,13,16,18,0,0,27.5,2.5,34,9"/><path class="cls-6" d="M1112.5,633.26s8.5,5.25,13.5,10.25,16,6,18,8,9,2,9,5-9.21,3.72-15,3c-8-1-14-5-31-4s-19,4-26-2c0,0-16-10,13-16,0,0,15-3,20-6"/><path class="cls-5" d="M621,385.79c32,10.28,36,23.72,50,40.72,0,0-38,20-54,28s-47.75,10.75-50,29"/><path class="cls-5" d="M700,601.7s-20.89,1.81-27,1.81c-7,0-23-3-21-8s23-11,30-15,15-11,17-16,7-18-13-39c0,0-23-14-29-19s-12-12-7-19,4-12,15-26,19-19,15-32-14-19-18-26-18-14.49-33.47-18.75"/><path class="cls-4" d="M1001.55,672.85S993,645.51,1025,633.54"/><path class="cls-6" d="M995.86,671.3s-7.18-25.33,25-41.56"/><path class="cls-6" d="M1022,683.51s9-9,18-11,22-1,22,6c0,2.23-20,15-24,19"/><path class="cls-6" d="M1014.3,623.4s-7.3,7.11-39.3,27.11-64,31-95,16-30,12-12,15,66.24-.5,75-4c10-4,29.23-6.21,29.23-6.21"/><path class="cls-6" d="M1009.41,618.34S998,631.51,988,637.51s-47,28-60,29-22,6-35-1-38-13-41-4-3,21,11,24,60.19,3.6,74-1c12-4,19-7,19-7"/><path class="cls-6" d="M937.11,691.51c-1.11,1-33.11,6-42.11,5s-33,2-45-12-45-2-57,3-26-7,15-22,41-29,65-20,41,17,62,8,39-17,48-24,18.52-19.82,18.52-19.82"/><path class="cls-6" d="M997.81,605.42S986,622.51,975,629.51s-49,27-60,24-43.16-19.06-60-16c-11,2-18,11-31,16s-44,14-49,25c-4.63,10.18-8,17,9,15s28-13,47-11,14,16,37,18,32,0,40,0,23.34-3,23.34-3"/><path class="cls-5" d="M781,699.51s33,5,47,5,22.24,4.87,52,7c28,2,34-4,44.17-4.53,0,0-4.17,6.53,26.83,12.53s46,7,61,3,28-11.67,31.5-17.84"/><path class="cls-5" d="M793.89,704.7S807,706.51,818,708.51s22,2,35,5,29,2,55,0c0,0,8-1,12.5-1.74,0,0-1.5,3.74,20.5,7.74s36,12,53,12,43.67-14,52.83-22.5"/><path class="cls-4" d="M762.1,693.63s-23.1-18.12-.1-31.12,40-12,59-19,19-25,45-30,25,21,51,23,57-33,17-41-40-29-82-9c0,0-80,39-100,32s-35,0-46-23"/><path class="cls-6" d="M691.25,649c4.17-2.78,17.88-2.62,32.6-2,0,0-9.85,10.55-7.85,16.55,0,0,5,11,32,14"/><path class="cls-6" d="M747.77,675c.14-6.89,5.65-11.86,12.23-18.44,9-9,62-18,68-22s4-13,25-22,33-2,38,0,20,16,31,18,15-4,22-9,3-11,3-16-6-6-23-9-24-10-33-14-20,0-32,5-62,27-75,34-28,5-39,1c0,0-17,12,10,12s21-7,35-7-11,18-28,20c-7.14.84-19.32.27-31.65-.27,0,0-8.35,7.27-10.35,12.27s17,14,28,15"/><path class="cls-6" d="M755,691.51l-5-8a20.45,20.45,0,0,1-2.1-6.36"/><path class="cls-6" d="M702.67,599.34S705,612.51,715,615.51c7.16,2.14,13.8,2.76,21,4.4l3,.6s-9,5-6,9,2,11,22,9,28-7,29-5-14,9-19,9-17,3-36-1-41.75,4.12-41.75,4.12"/><path class="cls-6" d="M973.17,575.34S956,607.51,964,613.51s28.83-14.17,28.83-14.17"/><path class="cls-6" d="M975,578.12s-6,13.39-7,20.39-3,8-1,11,23.17-12.92,23.17-12.92"/><rect class="cls-7" x="486.5" y="498.51" width="27.5" height="55.5"/><rect class="cls-7" x="935" y="243.53" width="46" height="48.48"/><path class="cls-4" d="M689,609.51s17.47,8.13,20,17c2,7-14,5-22,6a125.3,125.3,0,0,1-14,1"/><path class="cls-4" d="M684.89,611.63s13,5.92,15,9.94,4.1,2,4.1,5-12.31,1-19.49,2-15,2.39-15,2.39"/><path class="cls-6" d="M958,556.51s-11,29-43,19-58-14-94-14c-33,0-68,9-62,17s38-2,49-3,19,15,2,17-46,16-69,13-30.75-15.25-30.75-15.25S680,595.51,679,593.51s32.17-9.34,39.08-14.17"/><path class="cls-6" d="M713.25,586.51a23.58,23.58,0,0,0,14.75,10c10,2,14,6,33,3s33-9,38-9,18-2,17-6-6-6-14-4-27,5-36,4-16-4-12-9,14-13,33-15,45-4,73,0,42,7,49,9,18,6,28,1,18-16.75,18-16.75"/><path class="cls-6" d="M950.75,549.26S941,560.51,920,556.51s-66-10-79-10-22-10,26-12,31-11,16-14-52,6-63,16-53,24-64,25c-10.16.92-24.5,8-30.25,8"/><path class="cls-6" d="M947.25,544.71s-4.25,6.8-14.25,7.8-67-9-76-9-21,1-19-2,12-3,26-3,37-2,39-7,6-11-10-15-37-2-48,3-18,8-24,11-18,13-24,14-31,13-36,12-31.5,8-31.5,8"/><path class="cls-6" d="M748.67,541s-.67,10.5,18.33,3.5,22-14,33-18,42.67-15,42.83-26.5"/><path class="cls-6" d="M745.17,544.71s.83,6.8,9.83,5.8,22-4,29-9,15-12,29-16,26-11,30-16a25.94,25.94,0,0,0,5-10"/><path class="cls-6" d="M855.58,498.59s1.42-1.08,8.42,5.92,39,2,45,7,8,11,8,16-7,12,7,14,17.78-2.07,17.78-2.07"/><path class="cls-6" d="M862.35,498.53s1.65,3,6.65,5,27.8.43,39.4,4.71"/><path class="cls-6" d="M1114.12,493.26c1.13,7.75,7.74,13.32,7.74,13.32,11.63-14.8,23.2-28.72,31.14-35.07,20-16,31-27,52-30s-17,29-14,40,18,17,16,33,16,30,31,11,38-35,22-46-15,10-27,15-23-5-16-17,25-36,19-43-10.17-12.17-25-10c0,0-10,3-21,16-8.5,10-31.25,7.37-31.25,7.37"/><path class="cls-6" d="M915.8,513.75s4.2,8.76,4.2,14.76-3,6,0,9,16.53,3,20.27,0c0,0,100.73-9,115.73-1s-84,12-73,20,89,5,98,0c5-2.75,20.2-23.37,36.25-44,0,0-7.25-8.47-7.25-13.72"/><path class="cls-5" d="M932.5,529s70.5-.5,103.5-3.5a393.88,393.88,0,0,0,62.17-11.13"/><path class="cls-6" d="M1172.72,525.23c4.76.28,8.89.3,11.28-.72,7-3,6-16,6-22s-2.4-14.68-2.4-14.68c-2.09-2.59-3.6-4.79-3.6-6.32,0-5,20-32,21-34s-9,2-9,2c-33.13,12.3-42.07,32.68-55.65,44.15,0,0,14.16-9.1,21.48-6.32C1186,496.51,1172.72,525.23,1172.72,525.23Z"/><path class="cls-6" d="M942.75,540.26s92.25-6.75,96.25-2.75-59,6-66,18,41,14,41,14,53,4,70-5c16.32-8.64,37.25-54.14,52.17-67.5,0,0,15.83-5.17,20.83-6.34s14,5.84,15,10.84,0,15-1,17a53.93,53.93,0,0,1-4.53,6.3c-7.72-.53-15.83-.88-20.47,1.7-9,5-9,5-11,9s-2.16,18.63-2.16,18.63c-8.93,7.17-20.22,15.49-37.84,21.37-39,13-125.17-5.12-125.17-5.12"/><path class="cls-4" d="M733.33,412.84s28.67,3,36.17,2.33"/><path class="cls-6" d="M683,390.51s-8,8,10,24-18.08,51.23-20,57a30.11,30.11,0,0,0,1,23c3,7,41,10,50-26s12-45,14-53"/><path class="cls-6" d="M735,414.06c-3,5.54-13,48.45-13,48.45-5,21-13,25-13,25-18,12-27,8-30,7s-4-10-4-10c-2-11,3-15,3-15,2.75-3.5,5.44-7.13,7.92-10.6l2.08-3.4s5,8,11,7,10-6,14-8,7-16,7-20-3.12-30.38-3.12-30.38"/><path class="cls-6" d="M686,391.51s-3,2,0,8,12,13,15,17c2.47,3.3,2,15-2,23,0,0-3.51,5.62-8.67,13.12,0,0,6.67,9.88,12.67,4.88s18.5-3.5,10.25-54.75"/><path class="cls-6" d="M745.17,420S741,488.51,726,499.51s-20,4-23,15-1,31,13,36,23.75.1,23.75.1"/><path class="cls-6" d="M744,546.17c-16,5.67-18,2.34-28-.66s-11-17-10-27,6-7,15-12,13-9,18-18,8-41,8-41c.22-1.08.43-2.81.64-4.86,0,0,7.36,23.86,7.36,36.86s25,16,26,10,5-28,0-35-17-13.67-16-19.84"/><path class="cls-6" d="M749,423.51s-.35,6.68-.85,13.16c0,0,6.52.5,13.18-4.83"/><path class="cls-6" d="M751,538.51s-16-24-6-37,29,8,42,5,11.33-40,4.17-49"/><path class="cls-6" d="M752.88,536.38S744,516.51,745,512.51s0-15,12-11,19,10,30,8,13-19,13-23-3.32-23.5-3.32-23.5"/><path class="cls-6" d="M750.67,440.34s8.33.17,11.33-3.83c0,0-1,6,9,12s9,19,9,19,0,20-3,21-16,0-18-6-1-15-2-20S750.67,440.34,750.67,440.34Z"/><path class="cls-4" d="M1069,545.51s-23,3-25,4S1060,551.88,1069,545.51Z"/><path class="cls-6" d="M758,531.67s-5,8.84,7,4.84,32-17,46-21,18.58-13.17,18.58-13.17"/><path class="cls-6" d="M760.67,529.67s-2.67,4.84.33,4.84,23-11,28-13,16-7,23-9,12.67-9.42,12.67-9.42"/><path class="cls-6" d="M1231,423.51c6.25,2.4,12,9,13,16s-11,24-11,24-12,16-12,22,8,3,12,2,9-10,12-14,7-2,14,0,15,9,12,19-14,21-30,36-15,16-29,11-12-21-12-31c0-5.4-4.66-11.37-9-16.52,0,0,7,24.52-5,35.52-5.94,5.45-16-1-35,1s-13.51,21.86-13.51,21.86c8.47-6.86,15.18-11.8,24.51-10.86,20,2,50,31,74,17s35-52,48-60a74.43,74.43,0,0,1,15.66-6.85S1274,474.51,1272,466.51s3.33-12,1.67-31.5"/><path class="cls-6" d="M1328.17,483a227,227,0,0,0-22.85,4.94"/><path class="cls-6" d="M973,574.51s39,9,57,10,55,2,78-9c0,0,19-13,31-22s16-15,35-6,33,19,53,17,29-22,34-28,14-23,21-33,49.23-17.12,49.23-17.12"/><path class="cls-6" d="M1305.5,488S1273,470.5,1275,460.19s1.7-23.52,1.7-23.52"/><path class="cls-6" d="M1162.38,444.88s15.62-.37,20.62-3.37,12-13,18.5-16"/><path class="cls-6" d="M691,690.51s13-2,41,6,42,14,52,22,43,38,47,45,3,18-14,9-60-40-76-45-21-19-50-18-43,4-43,4"/><path class="cls-6" d="M642.25,718.1S682,714.51,702,720.51s59,25,71,36,4,13,0,17-9,6-13,0-36-28-45-31-32-8-47-6-44.5-1.5-44.5-1.5"/><path class="cls-6" d="M618.67,739.67S667,746.51,681,748.51s38,8,44,10,21,10,12,16-29-4-34,1-15,14-24,12-51-18-64-19-15.33.45-19.67-4.78"/><path class="cls-6" d="M616.33,741.84S666,749.51,673,750.51s36,7,40,8,17,3,23,10c0,0,3,5-6,5s-14-3-22-2a20.23,20.23,0,0,0-5.59,1.39S702,764.51,679,762.51s-61-8-63-10-7-1.75-7-3.38"/><path class="cls-6" d="M597.5,761.34c2.5,4.83,9.5,4.17,15.5,3.17s27,5,38,10,28,9,31,10,9-3,13-6c1.59-1.2,4-1.8,4-3.46,0-6.45-6-6.54-11-8.54s-28-3-37-4-33-5-36-7-7.75-4.38-7.75-4.38"/><path class="cls-6" d="M595,763.51s-8,1-9,4,18,8,18,8,19,2,18,4-20,1-20,1-49-2-55-6c0,0,1-5,15-4s21-2,19-8-18-7-7-15,47-10.75,47-10.75"/><path class="cls-6" d="M1336.62,491.91S1303.5,503,1296.5,511s-28,44-34,49-18,15-34,15-55-21-66-18-47,39-64,38-58,7-74,2-39.58-7.58-39.58-7.58"/><path class="cls-6" d="M988,594s8,1.51,16,3.51,10,5,23,5c0,0-20,6-13,9s10,6,22,6,18.51-3,23.25.49c4.2,3.1-10,2.21-13.25,2.51-11,1-18,4-19,9s7,7,7,7c21,3,19,4,19,4,0,4-16,3-16,3"/><path class="cls-6" d="M1174,595.51c2.17-3.58,4.28-8.27,7.56-10.86s9.59-6.79,13.44-5.14c5.9,2.53,5.48,13,6.59,19.3a92.53,92.53,0,0,0,5.71,19.51c1.59,3.82,3.84,7.89,7.79,9.1,4.55,1.4,9.48-1.83,11.65-6.06s2.29-9.19,2.4-13.94.34-9.73,2.69-13.87,7.54-7.07,12-5.29c2.83,1.13,4.67,3.84,6.18,6.49a78.46,78.46,0,0,1,10.26,38,10.47,10.47,0,0,0,.75,4.76c2,3.79,7.51,3.27,11.65,2.14,5.77-1.57,11.88-3.46,15.68-8.08,5.6-6.85,4.06-17.1.4-25.16s-9.15-15.42-10.9-24.09c-.76-3.75-.74-7.81,1-11.19s5.67-5.82,9.41-5.06c3.55.72,6,3.91,7.91,7,5.6,9,9.4,19.09,14.7,28.32,1.39,2.41,3,4.84,5.29,6.36s5.63,1.88,7.81.15a8.7,8.7,0,0,0,2.63-4.83c2.2-8.64.13-17.81-2.94-26.19s-7.16-16.42-9.19-25.11-1.71-18.45,3.46-25.73,16.18-10.67,23.45-5.5c2.15,1.53,3.81,3.63,5.74,5.42a25.79,25.79,0,0,0,16.05,6.8"/><path class="cls-6" d="M1201.62,613.88c-3.37-6.62-4.62-24.37-5.62-27.37s-1-4-8-1-11.5,10.87-11.5,10.87a149.55,149.55,0,0,1,10.5,26.13c4,14-2,13,8,19s5-13,5-21a22.18,22.18,0,0,0-4-13"/><path class="cls-6" d="M1212.5,629.63s1.5,2.88,8.5.88,8-7,10-12,2-21,5-25c0,0,4-6,9-1s10,22,10,22,2,14,2,21,4,8,8,8,20-5,20-5,8-5,9-9,1-14-1-20-14-24-13-29c0,0-3-8,5-11s18,23,18,23,5,14,13,18,11-2,12-3,3-11,1-20-11-36-11-36-3-13,1-19,6-11,16-10,9,10,23,12l5,1"/><path class="cls-6" d="M1363,548.17s-19-10.66-26-1.66,15,56,6,67-25,4-32,16S1363,643,1363,643"/><path class="cls-6" d="M1363.5,638.6s-46.5-1.09-44.5-7.09,13-4,22-8,10-11,10-20-16-42-10-53,22,3.75,22,3.75"/><path class="cls-6" d="M1179.92,597.59s6.08,12.14,7.08,16.84,3,8.45,3,12.21,1.37,6.91,4,10.46c4,5.41,5-1.06,5-5.76s-1-12.21-1-15-2.17-9.56-5.08-11.83"/><path class="cls-6" d="M1204,617.51s3,19,7,22,10.42,1.83,10.42,1.83"/><path class="cls-6" d="M1207.83,622.76s2.17,11.75,4.17,13.75,7,1.62,7,1.62"/><path class="cls-6" d="M1159.9,595.57c-.46-3.05-3.72-7.05-6.81-7.13a16.32,16.32,0,0,0-8.76,2.67c-15.33,9.4-21.19,15.93-34.33,22.4s-31.54,10.1-46.17,10.67c-5.61.22-11.25-.24-16.83.42s-9.21.77-13,4.91c-2,4.19,4.23,5.23,7.8,5.69a102,102,0,0,0,15.72.83c1.5,0,3.32.05,4.07,1.36s0,2.86-1,3.94c-4,4.44-13.73,4.82-19.72,4.87"/><path class="cls-6" d="M1165,595s-3-9.47-12-9.47-14,5-28,15-30,14-40,17c-4.12,1.23-10,1.82-16,2.14,0,0,0-6.14-16-6.14s-33,0-29-4,21.3-6,21.3-6c17.19-.08,46-.52,56.7-3,13-3,27-13,27-13s28-23,38-26,31,11,49,17,16,2,41-9,38-45,46-55,36.5-17.91,36.5-17.91"/><path class="cls-6" d="M590.68,449.3c22.19-9,52.41-21.24,55.32-27.79,4-9-12-24-29-25-14.11-.83-23.4,4.54-30.15,14.39,0,0,26.15-6.39,27.15,1.61.47,3.73-11.48,12.25-17,20C590.7,441.36,590.68,449.3,590.68,449.3Z"/><path class="cls-6" d="M532.5,447s43.5-15.5,50.5-29.5c0,0,17-3,21-3s-10,13-13,20S584,452,584,452c-5.4,2.19-9.94,4.08-13,5.49-15,7-18.5,10.16-18.5,10.16"/><path class="cls-6" d="M529,444.51s33-14,43-24,12-18.5,21.5-22.25,19.5-5.75,29.5-3.75,18.5,6,21.25,11.5,9.75,9.5,7.75,14.5-20.41,16.77-34,22c-13,5-34,15-41,18-5.89,2.52-16,4-22,10"/><path class="cls-5" d="M649.08,506.33c3.48,3.68,8.23,6.83,13.31,9.94,0,0-.39,14.24-20.39,27.24s-33.25-10.25-33.25-10.25c-.86-4.32,1.62-12.06,5-20.39,0,0,9.23,11.64,14.23,8.64s7-13,12-15A12.46,12.46,0,0,1,649.08,506.33Z"/><path class="cls-5" d="M576,494.51s19,2.5,30-11.25,21-10.75,21-3.25c0,3.93-5.65,15.31-10.69,26.85,0,0,8.69,14.65,12.69,9.65s4.86-13.47,11-15c4-1,5.33-.31,5.33-.31-2-3.83-2.68-8.27-1.33-13.69,6.12-24.5,32.92-39.82,30.15-54.65,0,0-23.15,12.65-41.15,20.65s-47,15-51,18-12,8.34-10,18"/><path class="cls-5" d="M693,606.51s-8,2-25,2-38-11-10-23c2.55-1.1,5-2.12,7.29-3.1,0,0,5.71-3.9,5.71-8.9s3-18-2-17-17,11-22,13c-2.79,1.11-11.51,2.87-11.51,2.87"/><path class="cls-5" d="M619,547.46s4,5,12,4,25-11,28-17,7-16,7-16l5.47,3.24c9,5.64,17.53,12,20.53,21.76,6.16,20-.72,27-17,34.61,0,0,8-27.61-5-26.61s-27.33,19.66-38.17,14.83"/><path class="cls-6" d="M723.48,572.38C697,585.51,681,587.51,674,592.51s3,7.5,33.5.75"/><path class="cls-6" d="M551.2,562.49c-12.63,3.23-32.39,17.88-53.77,17.58s-9.65-31.81-27.95-37.73S462,504.51,462,504.51s5-14,24-15,24-5,29,1,17,31,21,50c0,0,4,9-18,18-10.35,4.23-19-4.5-19-4.5"/><path class="cls-6" d="M551.2,562.49c9.33-4.69,3.65-17.87.94-23.65s-6.49-11.06-8.59-17.09c-2.87-8.22-10.77-17.29-13.17-25.66-4.84-16.9-12.84-21.09-28.48-23.42-7.63-1.13-16.64-5-23.7-1.92-6.6,2.92-15.53,6.24-20.28,11.69C452.21,489,451,500.76,449,509.51"/><path class="cls-5" d="M449,509.51c-2.16,9.33-3.15,19.73-.26,30.39,2.13,7.84,8.51,13.73,12.5,19.12,0,0,7.47,7.82,11,16.34s11.34,18.31,31,14.85,50.17-14.92,61-22.91,6.16-28.5-1.66-38.29a213.09,213.09,0,0,1-21-32.86c-4.68-9.33-9.94-27.69-27.9-31.64s-39.68-6.22-51.27,2.93-27.64,16-27.82,32.3,1.49,20,2.76,33,19.09,56.55,31.48,63.51,32.14,9.58,45.76,6.17c0,0,35.43-8.93,56.43-20.93s11-40,8-53S563.69,504.42,556.35,492,537,455.09,516,449.3s-40-5.79-56,4.21S420,478.4,421,496s2,41.56,11.5,63.56"/><path class="cls-5" d="M557.46,563.42S533.58,577.77,516,581.87s-28.1,1.9-28.1,1.9-7.47-7.83-8.85-15.7-3.12-17.73-7.58-20A31.3,31.3,0,0,1,456,530.51c-3.88-10.49,3-27,3-27s1-12,23-16,23-6,29-4,9,7,13,15,17,33,16,44-12,14-18,18-16,3-20,0a33.52,33.52,0,0,1-6.5-6.5"/><path class="cls-6" d="M557.46,563.42c2.78-1.51,2.16-4,2.9-6.61a18.44,18.44,0,0,0-.79-12.7c-3.92-8.34-11.16-15.8-13.51-24.71-2.85-10.76-6.69-13-11.56-23-4-8.21-7.65-19.28-15.63-23.73-4.59-2.56-4.81-1.6-10-2.35s-8.81-2.38-16.46-3.88c-8.15-1.6-16.89.4-24.35,4s-14.23,9.23-17.91,16.67c-3,6.09-3.81,13-5.19,19.66-2,9.74-3.24,17.18-2.34,27.09,1.1,12,8.56,19.81,15,27.81A22.63,22.63,0,0,1,467,574.26c2.54,8.69,6.71,15.06,15.45,18.6s21.55,1.29,37.14-2.47,42.93-15.67,42.93-15.67,6.72-2.2,11.24-11.12-3.4-30.88-3.4-30.88S555.69,513,554,509.19s-7.15-13.71-11-22.82-10.81-20.06-18.57-23.77-39-8.36-50.68-5.3-10.32,4.86-24.05,13.37-18.72,20.56-20,24.84,4,39.92,4,39.92A181.27,181.27,0,0,0,445.42,573c8.39,18.83,23.44,29.38,29.06,32.46s30.12,3.84,41.94,1.76A292.11,292.11,0,0,0,563,589.51c25-12,21.7-17,23.85-33s-5.85-35-14.85-51-13-17-20-30-25-38-59-34-29,6-46,16-23,17-26,23-9,22.49,3,68.74"/><path class="cls-6" d="M412.5,538.51s-10.5-37-4.5-58,32-32,41-39,35-16.72,70.5-6.86"/><path class="cls-6" d="M479,623.51s29.67,3.66,46.33-1.67"/><path class="cls-4" d="M485,628.51s24,.66,34.5-1.17"/><path class="cls-6" d="M579.25,498a33.16,33.16,0,0,0,18.75-3.5c10-5,16-15.5,21-13.75s-15.57,35.25-14.29,47.5c0,0,8.29,36.25,7.29,47.25s-12.48,20.25-12.48,20.25-2.52,9.75.48,16.75,2,13-1,18-3,5-3,8,4,10,6,10-2-13,0-15,11-7,12-9,14.53-19.07,14.53-19.07"/><path class="cls-6" d="M609,533.51s10,35,8,43-12.29,20.86-12.29,20.86"/><path class="cls-6" d="M396,525.51s-10-31,0-52,19-24,31-37,33-18,55-17,25.25,4,25.25,4"/><path class="cls-6" d="M390,521.51s-8-23-2-45,23-33,29-40,14-17,32-21,48.5-1,48.5-1,17.5,4,30.5,3,34-7,50-21A268.73,268.73,0,0,0,605.83,368"/><path class="cls-6" d="M372.75,512s-.75-34.5,11.25-62.5,17-32,37-39,33-15,42-14,20.5,5.69,20.5,5.69"/><path class="cls-4" d="M622,551.76s5,20.75,4,28.75-8.74,20-8.74,20"/><path class="cls-4" d="M623,603.51s9-15,9-22-2.5-19-2.5-19"/><path class="cls-4" d="M491.62,634.26s15.63,1.5,19.5.87"/><path class="cls-6" d="M497.5,638.51l9.5.12s14,7.88,26,5.88,15-14.79,15-14.79"/><path class="cls-6" d="M363.75,507.51s3.79-59,22-80.5S413,401.51,424,397.51s30-6.5,48-5.25"/><path class="cls-6" d="M358,505s2-42.5,18-71.5,32-36,47-40,43-5.5,43-5.5a164.18,164.18,0,0,0,40.14,6.73s4.53,15.77-15.31,14.27c0,0-18.83-8.5-30.83-6.5s-24,8-39,14-24,13-35,45-6,53-6,53c-12,13,30,78,20,102s-38.19,32-38.19,32c-12.66-4.73-26.68-11.15-28.81-17a12,12,0,0,1-.59-6.24s7.59,8.24,23.59,2.24,14-35,14-35-7-27-22-43-14-12-12-23,5.18-26,5.18-26"/><path class="cls-6" d="M453.82,378.74S423,378.51,402,390.51c-20.27,11.58-28,21-41,60s-11.58,52.58-11.58,52.58"/><path class="cls-6" d="M446.17,374c-4.17.5-25.17-1.5-44.17,11.5s-30,23-34,32S346,475,345.5,487.27s-1.5,14.24-1.5,14.24"/><path class="cls-6" d="M432,368.51s-40-6-63,25c-19.19,25.86-39.67,64.11-39.83,87.05l2,17.95"/><path class="cls-6" d="M424,365.5s-31-4.94-52,16.81c-22,22.8-49.68,73.36-49.83,96.56L324,498"/><path class="cls-6" d="M306,497.51s0-30,10-54,14-28,20-39,20.17-37.5,44.58-43.25"/><path class="cls-6" d="M0,348.84s32.5-3.33,44-6.33"/><path class="cls-6" d="M299,498.51s5-61,16-83,29.5-42,45.25-52.5"/><path class="cls-6" d="M351.14,365S326,387.51,314,408.51s-17,68-17,68l-2,23"/><path class="cls-6" d="M284,501.51s-6-44,0-62,11-26,15-35S322.17,374,322.17,374"/><path class="cls-6" d="M301.75,383.26S285,403.51,279,428.51s-4,37-5,46,5,28,5,28"/><path class="cls-6" d="M274,504.51s-5-22-5-32,3-37,7-49S293.25,388,293.25,388"/><path class="cls-6" d="M279.83,396.42S258,429.51,259,462.51s7.5,43.83,7.5,43.83"/><path class="cls-4" d="M250.17,512s-9.17-25.5-5.17-44.5,9.69-51.84,9.69-51.84"/><path class="cls-6" d="M249,420.51s-5,34-11,51,8,42.33,8,42.33"/><path class="cls-6" d="M236.51,432.51s-7.51,33-6.51,47,8,37.25,8,37.25,13-1.25,19-4.25,4.33-5,4.33-5-8.33-25-6.33-45-.5-27.61,16.25-60.31"/><path class="cls-6" d="M229.91,439.76S224,468.51,225,481.51,234,518.76,234,518.76"/><path class="cls-4" d="M218,451.51s-3,32,0,46a113.46,113.46,0,0,0,8.62,25"/><path class="cls-6" d="M214.12,455.76S210,483.51,213,497.51A108.13,108.13,0,0,0,223,524"/><path class="cls-6" d="M204.54,466s-3.47,28.5,0,41a87.26,87.26,0,0,0,10,22.27"/><path class="cls-6" d="M200.06,471.67s-4.76,23.94-1.3,36,11.55,22.86,11.55,22.86,51.69-2,69.69-12,9-18,9-18-7-47,2-66,19-38,26-47,20-19,20-19"/><path class="cls-4" d="M190,482.51s-1,23,2,32,8.25,22.25,8.25,22.25"/><path class="cls-4" d="M184.75,488.88s.25,20.63,2.25,27.63,9,23.12,9,23.12"/><path class="cls-6" d="M165.75,511.26c.75,7.75,7.25,23.25,7.25,23.25s3.06,13.41-2.47,22.71"/><path class="cls-6" d="M162.75,514.26A53.73,53.73,0,0,0,167,529.51s5.75,24.23-2,32"/><path class="cls-6" d="M680,694.51c-9.78-1.24-25.76-.64-35,3-9.53,3.75-13.78,8.46-23,13s-19.67,9.5-29.35,6.21c-5.3-1.79-33.65-9.21-52.65-9.21a76.71,76.71,0,0,0-19.36,2.81S510,724.51,515,731.51s24,10,49,3,69-14.5,75.5-14.25c0,0,38.5-.75,48.5,1.25s13,2,22,6,45,22,45,22,18,9,18,15c0,0,2,3-2,6s-9-3-9-3-21-15-29-20-24-11-33-13-24-2-39-2-33.67-1.08-33.67-1.08"/><path class="cls-6" d="M316,497.51c-19,22-14.38,39.77-14.38,39.77,8.15,2,13,4.89,22.38,12.23,14,11,20,26,19,45-.55,10.41-4.7,17.22-7.69,23.06,0,0,24.69,19.94,28.69-12.06s-26-56-32-66,2.5-40,2.5-40"/><path class="cls-6" d="M179,495.51a70.41,70.41,0,0,0,0,16c1,9,12,31,12,31s75-11,95-8c2.61.39,4.95.75,7.07,1.1,0,0,6.43-30.6,17.68-37.85,0,0-1.42-32.25,18.42-68.25s28.94-59.5,62.39-68.25"/><path class="cls-6" d="M385,518.24c-8,4.74,8,37.27,13,54.27s12,28,6,49-33.52,30.07-33.52,30.07c7.19,2.42,12.52,3.93,12.52,3.93a47.11,47.11,0,0,1,9.39,6.55S416,650.51,418,625.51s-12-73-12-81,.27-11.84.27-11.84S393,492.51,404,475.51s28-29,38-38,47.33-17,70.17-9.5"/><path class="cls-6" d="M413,538.51c-4,7,1,25,5,44s6,47,1,61S396.87,667,396.87,667c3.82,5.22,5.78,11.93,1.13,19.55,0,0,47-23,46-54s-5-62-5-62"/><path class="cls-6" d="M430,700.51c-4.31,10.77.32,18.49,7.52,22.07,0,0-11.52,9.93-16.52,15.93s-19.76,18.88-19.76,18.88c-19.79.26-64.74,3.87-75.24,2.12-12-2-25.76-9.3-19-12,20-8,59-6.51,63-8,8-3,10-7,4-10-1.55-.78-5.18-1.62-9.63-2.51,0,0,10.93-4.56,41.78-4.53"/><path class="cls-6" d="M442.83,724.37a22.12,22.12,0,0,0,4,.43c3.65.06,7.7,0,11.8-.17,0,0,2.4,13.88,5.4,21.88s14.77,22.21,14.77,22.21a64,64,0,0,1-6.77-1.21c-12-3-51-9-64-10,0,0,14-13,18-17S442.83,724.37,442.83,724.37Z"/><path class="cls-6" d="M484.94,769.39c14.74,1.3,34.1,1.08,37.06-1.88,4-4-20-11-33-25s-8.28-19.93-8.28-19.93c-4.14.72-9.69,1.31-15.55,1.7,0,0-1.17,14.23,6.83,26.23S484.94,769.39,484.94,769.39Z"/><path class="cls-6" d="M654.17,709.42c13.17-3.08,48.83-3.91,54.83-2.91s26,11,29,14,14,6,18,8,42,26,43,27,25,15,27,15,2-3,0-7-51-49-61-53-40-10-49-14-29.94-5.16-29.94-5.16S661,690.51,648,693.51s-37,18-43,20c-4.81,1.6-25.71-3.23-40.5-7.27,0,0,12.5-13.73,11.5-23.73s-1-17-11-20-38,0-50-4a153.61,153.61,0,0,1-20.82-8.65"/><path class="cls-6" d="M434,696.51s-8,21,7,22,34-1,34-1,21-5,36-11,31-7,44-3l3,.89s17-14.89,12-29.89-42-8-56-12a219.52,219.52,0,0,1-24.84-8.74"/><path class="cls-6" d="M699,688.45s-34-5.94-60,2.06-24-8-19-16,42,3,40-9-30-13-29-30,19.56-17.94,19.56-17.94"/><path class="cls-6" d="M708,687.51s-26-5-36-5-22,2-39,6-12-9-12-9,0-5,15-4,19,0,23-2a10,10,0,0,0,5-6s-1-6-5-10a24.07,24.07,0,0,0-4.89-3.33S666,651.51,680,659.79c1.82,1.08,1.42,4.2,2,6.72,3,13,39,20.07,39,20.07"/><path class="cls-6" d="M666.48,628.63S652,638.51,663,643.51c7.39,3.36,12.07,6.72,15.26,12.5,0,0-15.26-8.5-27.76-3.77-2.5.27-11.89-5.9-12.5-7.73-1-3-6-8-1-14s7-7,12-8a29.27,29.27,0,0,1,8-.68"/><path class="cls-4" d="M668,630.51s-7,3-6,8,5,2,13,10,7,10,8,12,1.43,5.64,3,8c2,3,16.37,15.16,42.18,17.08"/><path class="cls-6" d="M675.77,635.87s-4.77-.36,3.23,9.64,12,13,15,21,27,11.59,27,11.59"/><path class="cls-6" d="M717.55,674.54s-15.55-2-18.55-7-12-17-16-21-6.48-7.18-4.74-8.59"/><path class="cls-6" d="M439.79,691.51s-4.79,23,16.21,21,49-17,63-19,22,1,32-3-1-22-26-21-43-2-46-8.49"/><path class="cls-6" d="M476,663.16s2,4.35,9,6.35,31,3,36,3,18-1,26,6,0,8,0,8-22,2-27,3-19,5-25,8-35,17-45,10-4.62-20.69-4.62-20.69"/><path class="cls-6" d="M449.77,683.23S452,699.51,469,697.51s25-9,32-11,9-7,4-8-26-1-29-4-4.5-8.08-4.5-8.08"/><path class="cls-6" d="M453,680.51s2,13,13,13c9,0,27-7,30-9s7-3-3-4-17,0-19-3a100.51,100.51,0,0,1-5-9.25"/><path class="cls-6" d="M499.38,645.55c-.38,0,14.62,11,34.62,10s42-3,47,3-5,38,0,42,17,6,25,0,0-18,5-26,22-10,31-11-6-12-10-14-9-14-6-21,16.72-15.69,16.72-15.69"/><path class="cls-6" d="M471.5,615.83c.25-.32,9.15,4.68,25.95,3.68s39.8-7.5,39.8-7.5,4.87,7.27,9,14.58c0,0-4.27,12.92-12.27,13.92s-12.59-3.17-14-6c-2-4,1.34-8.89,1.34-8.89"/><path class="cls-6" d="M502.78,642.61s16.22,9.9,27.22,8.9,21-6,22-11c.39-2-1.17-5.85-4-11"/><path class="cls-6" d="M543.5,607s-24.82,6.08-43.05,8.44-35.28-7.08-35.28-7.08"/><path class="cls-6" d="M540.2,609.51s15.8,24,15.8,28,0,9-5,12h12s8,0,11,1,10,1,11,8c0,0,0,17-1,25s-3,15,5,17,15,0,16-5-1-15,1-19,5-10,14-12,19-3,19-4-2-4-8-8-11-12-10-17a28.05,28.05,0,0,1,1-5s5-9,10-13,7.9-6.29,7.9-6.29"/><path class="cls-6" d="M551.25,602.51c13.25,14,20.75,34,19.75,38s1,4,1,4,3,2,7-2l10-14s6-13,0-17-5-4-5-8,5.48-9.18,5.48-9.18"/><path class="cls-6" d="M554.67,600.51s13.33,17,15.33,23,4,16,5,17,22-23,10-29,2-18,2-18,18-9,19-18,0-16-3-26-17-44-17-44"/><path class="cls-6" d="M510,635.51s5,4,9,5c0,0-5.18-8.58-2.09-10.79"/><path class="cls-6" d="M596.22,595.21s-3.22,15.3,1.78,21.3-9,19-5,24,5,12,10,11-1-15,3-18,9-5,13-10S631.82,607,631.82,607"/><path class="cls-6" d="M635.49,723.87S578,733.51,571,736.51s-44,11-56,3,0-27.62,0-27.62"/><path class="cls-6" d="M217.45,527.2S254,525.51,269,518.51s14-7,16-11-2.21-5.84-2.21-5.84"/><path class="cls-6" d="M231,520.51s26-3,33-7,6.29-8.5,6.29-8.5"/><path class="cls-6" d="M141.72,606.55a64.27,64.27,0,0,1,16.28,10c26.94,21.8,7,33-3,39-3.5,2.1-10.2,4.08-17.73,6.11,0,0-13.27-18.11-7.27-34.11S141.72,606.55,141.72,606.55Z"/><path class="cls-6" d="M127.55,599.65a34.44,34.44,0,0,1,7,.86s24.46-35,42.46-38c19.83-3.31,60-5,84-2,24.55,3.07,39,7,41,26,.88,8.4-1,22.13,1,35a143.82,143.82,0,0,0,9,31c7-5,4-10,1-17s-2-23,0-33,8-19-4-33-38-15-49-18-86,3.08-86,3.08"/><path class="cls-6" d="M302,661a63,63,0,0,0,7-5.51s-10-30-11-41,3.53-23.29-4-35c-9-14-42-14-54-16s-46,0-64,5-34.46,34-34.46,34A73.09,73.09,0,0,1,151.71,607S164,576.51,203,575.51s66-2,75,7S302,661,302,661Z"/><path class="cls-6" d="M231,604.51c3-3,12,0,18,6s12,21,20,37,12,17,12,17c5.76,2.3,11.2,1.45,16-.68,0,0-10-74.32-30-81.32s-61-3-84,2a31.32,31.32,0,0,0-25.11,26.24,46.89,46.89,0,0,1,13.39,13.18S178,596.51,203,593.51,231,604.51,231,604.51Z"/><path class="cls-6" d="M231.6,645.48c-2.18-8.11-4.12-16.69-4.6-22-.51-5.62,1.67-9.67,1.52-12.7-.49-9.69-11.52-11.3-11.52-11.3s-4-3-22,3S175,633,175,633a21.2,21.2,0,0,1,0,7.54,20.26,20.26,0,0,1-3.12,7.89S184,652.51,190,638.51s13-17,19-17,10,3,13,8Z"/><path class="cls-6" d="M245,670.51c-5-6.25-7.18-13.28-13-18a46.64,46.64,0,0,1-10-12s-8-15-16-13-14,22-23,25a39.52,39.52,0,0,1-16.88,1.76c-6.89,5-16.78,7.73-26.62,10.15a64.42,64.42,0,0,0,48.5,9.09C216,667.51,245,670.51,245,670.51Z"/><path class="cls-6" d="M257.79,683.1a21.05,21.05,0,0,0,8.46,3.19S264,700.51,266,709.51s-21.83,21.38-21.83,21.38a44.18,44.18,0,0,1-6.17-3.38c-15-10-19-20-25-23-3.24-1.62-8.22-5.86-16.06-8.79,0,0,15.06-3.21,22.06-2.21s19,4,28,1A16.57,16.57,0,0,0,257.79,683.1Z"/><path class="cls-6" d="M175.66,692.85a51.23,51.23,0,0,1,16.59,1.39S209,686.51,232,690.51s22.64-9.72,22.64-9.72a52.61,52.61,0,0,1-5.64-5.53s-14-.75-32-.75-13,5-41,6-44.64-14.08-44.64-14.08A87.24,87.24,0,0,0,116,671.51a22.84,22.84,0,0,0-9.73,8"/><path class="cls-6" d="M250.92,733.5c14.53,4.75,31.56,5.51,36.08,4,6-2,10-6,13-11s-2-9,5-18,23-14,37-20,16-14,16-14c-7-9-21-5-26-5s-38,13-53,16a54.48,54.48,0,0,1-6.86,1s-4.14,10-.14,26c0,0,1,5-7,11S250.92,733.5,250.92,733.5Z"/><path class="cls-6" d="M103.63,686.28a17.73,17.73,0,0,1,2.64-6.76"/><path class="cls-6" d="M175.66,692.85c-1.81.13-3.69.34-5.66.66-25,4-34,12-45,11s-17-2-20-6a23.34,23.34,0,0,1-1.37-12.23"/><path class="cls-6" d="M445,581.22S449,624.51,449,637.51s-9,26-21,37-35.7,18.38-35.7,18.38c-5.17,4.36-12.33,8.15-19.84,11.4,0,0,34.54,7.22,59.54-13.78s35.61-54.64,57.31-58.32"/><path class="cls-4" d="M130.25,503.09s40.2-10.18,57-17.38"/><path class="cls-6" d="M-.5,533.67c58,22.67,51,99.34,51,99.34-4.1-1.64-8.23-3.29-12.27-4.89,0,0-.23-52.61-18.23-65.61S-.5,550.68-.5,550.68"/><path class="cls-6" d="M-.5,556.51s9.48-.75,22.5,16c14,18,11,53,11,53-5.43-2.16-10.79-4.22-15.58-6,0,0,2.58-40.3-17.92-45.63"/><path class="cls-6" d="M-.5,612.82s5.13,1.84,12.64,4.66c0,0-.14-32-12.64-37.47"/><path class="cls-6" d="M-.5,527.2S34,533.51,46,572.51s11,63,11,63,25,8,33,5-28-27-24-57,22-20,40-32S80.38,475.2,80.38,475.2"/><path class="cls-6" d="M62.32,466S102,515.51,85,533.51s-36-6-50-11S-.5,512.76-.5,512.76"/><path class="cls-6" d="M-.5,505s34.5,7.5,44.5,16.5,22,17,33,12,2-32,2-32L54.93,462.35"/><path class="cls-4" d="M-.5,489.88s28.35,7.34,42.5,8.63c11,1,15-3,13-13-1.93-9.66-6-22-18-32"/><path class="cls-4" d="M-.5,482.51s35.46,10.71,44.5,8c10-3-3-23-3-23a49.63,49.63,0,0,0-15.87-18.28"/><path class="cls-4" d="M-.5,472.26s18.5,5.25,25.5.25-11.94-25.46-11.94-25.46"/><path class="cls-4" d="M-.5,466s9.5,4.5,16.5,1.5S5.82,447.05,5.82,447.05"/><path class="cls-4" d="M107.83,631.34S92,607.51,97,594.51s38-30,36-48-12.43-49-12.43-49"/><path class="cls-6" d="M127.55,501.51s13.45,41,10.45,53-32,32-36,43c-3.09,8.51,8.6,29.81,8.6,29.81-5.41,15.82,6.32,39.95,6.32,39.95,4.46-1.41,9.42-2.75,14.31-4,0,0-9.23-17.66-9.23-25.72,0-14,13.84-32.85,13.84-32.85-7.58-1.79-11.84-.15-11.84-.15"/><path class="cls-6" d="M142.37,511.26s19.63,40.25.63,70.25"/><path class="cls-6" d="M148.42,515.37S161,554.46,150,574.48"/><path class="cls-6" d="M8.59,365.83S21,434.51,62,437.51s51,32,97,20,71-62,71-62"/><path class="cls-6" d="M13,363s9,47.5,31,62.5,16,2,38,10,26,19,54,20,50-17,59-26,33-38,33-38"/><path class="cls-6" d="M-.5,381.34S2,425.51,19,435.51c0,0,30,11,58,25s59,21,80,16,75.17-57.74,81.08-73.37"/><path class="cls-6" d="M-.5,414.34S4,431.51,13,437.51s34,11,47,20,46,23,64,25,33,1,45-4,40-32,40-32,29.87-30.45,32.93-39.23"/><path class="cls-6" d="M21.79,355.27S37,401.51,58,407.51s19,2,43,2,21,30,41,28,72.11-62.71,72.11-62.71"/><path class="cls-6" d="M26.55,352S46,394.51,55,399.51s40,3,52,4,21,28,31,29,26-11,43-28a379.9,379.9,0,0,0,29.79-33.75"/><path class="cls-6" d="M45.54,341.09S60,372.51,74,376.51s25,4,44,3,21,5,32,4,20-6,24-11a77.81,77.81,0,0,0,9-13A41,41,0,0,0,187.85,346S228,336.51,244,326.51s36-17,36-17"/><path class="cls-6" d="M0,343.76s44.39-2.89,59-8.25c0,0,2,19,19,26s41,2,59,4,36-16,37.39-28.87"/><path class="cls-6" d="M63.86,333.14S67,340.51,70,347.51s11,11,26,12,38-2,44,0,16-3,23-9,9-16,9-16"/><path class="cls-6" d="M82.25,328S86,340.51,111,341.51s27-1,35-4a11.45,11.45,0,0,0,7.75-10.63"/><path class="cls-6" d="M0,308.93s25.18,5.71,64.22.83A50.41,50.41,0,0,0,78,315.51c8,2,12,1,13,5s-3,6-3,6,5,11,26,11,31-4,33-6a15.45,15.45,0,0,0,3.07-5.38"/><path class="cls-6" d="M41,343.44s17,47.07,60,42.07,31.48,10,57.74,2.5,33.51-36.95,33.51-36.95S221,341.51,238,334.51s46-22.69,46-22.69A179.22,179.22,0,0,1,299.23,322s-52.57,50-81.9,56.77"/><path class="cls-6" d="M221,383.26c26-2.25,82-58.45,82-58.45,4.45,3.42,8.64,6.88,12.67,10.23,0,0-44.77,64-79.72,65.74"/><path class="cls-6" d="M240.3,405.55c32.31,1,78.77-67.67,78.77-67.67,5.48,4.57,10.67,8.87,15.82,12.55,0,0-11.41,21.4-23.15,27.74"/><path class="cls-6" d="M366.74,362.35c-9.62.28-18.19-3.07-26.7-8.44,0,0-7.11,14.86-15.07,18.73"/><path class="cls-6" d="M180,339.51s62-51,100-30"/><path class="cls-6" d="M289.67,257.17s5.33,2.34,8.33,16.34-.29,40.77-.29,40.77c5.36,3.56,10.11,7.1,14.4,10.53,0,0,14.89-13.3,14.89-39.3,0,0,0-13-5-20"/><path class="cls-6" d="M326.25,267.63s5.75,3.88,3.75,24.88a68.28,68.28,0,0,1-14.34,35.2c4.23,3.51,8,6.85,11.55,9.93,0,0,24.53-33.59,22.16-53.36"/><path class="cls-6" d="M353,288c3,15.48-22.07,52.89-22.07,52.89,5.22,4.43,10,8.11,15,10.63a35.52,35.52,0,0,0,7.35,2.59S372,324.26,372.5,312.38"/><path class="cls-6" d="M285.06,257.17c15.05,9.67,8.19,54.21,8.19,54.21-17.12-11-19.24-13.28-30.43-12.52,0,0-3.62-28.35-15.82-30.35"/><path class="cls-6" d="M186,331.14s33-27.63,61-30.63c4.35-.47,7.9-.89,10.89-1.2,0,0-4.14-22.8-14-28.3"/><path class="cls-6" d="M584.68,344.42A131.53,131.53,0,0,1,561,372.51a101.27,101.27,0,0,0-1-23c-1.88-12.23-14-21-13-24s7-4,7-4"/><path class="cls-6" d="M459,309.51c-5,4-9,11-11,21-1.75,8.77,15,16,18.17,23.66S452.76,366,452.76,366c11.84,2.81,23.09,5.51,31.24,7.55,28,7,42-5,39-17s-57-18.34-52-30.17,21-17.83,38-19.83"/><path class="cls-6" d="M519,308.51s-37,5-41,15,16,12,27,16,20,6,22,15,1,17-11,22-23,3-52-4-77.58-17.24-77.58-17.24S372,357,358.87,355.14c0,0,14.71-25.21,17.92-36.42"/><path class="cls-6" d="M451,312.51s-9,14-7,23,20,15,19,20-16.83,8.89-16.83,8.89c-26.95-6.36-54.61-12.73-54.61-12.73"/><path class="cls-6" d="M401.59,343s17.41,10.5,31.41,5.5-3-20-1-27"/><path class="cls-6" d="M405,339.26s11,8.25,24,6.25,2-12,1-15a37.61,37.61,0,0,1-1.4-6.63"/><path class="cls-6" d="M548,318.51s-5,0-5,6,6,10,10,19,1.77,33.57,1.77,33.57c-8.3,6.69-17.57,12.11-26.77,13.43-28,4-69.18-8.23-69.18-8.23"/><path class="cls-4" d="M543,422.51s-22.82,6.36-28.41,7.68"/><path class="cls-4" d="M533,430.51s-8.82,2.36-14.41,3.68"/><path class="cls-6" d="M616.73,381.67S619,366.51,719,375.51c0,0,58,9,69,2s15.58-12.15,13-24"/><path class="cls-6" d="M613.57,377.14S612,374.51,629,370.51s62-3,87,0,61,9,69,4,10-10,11-16-1-14-1-14"/><path class="cls-6" d="M594,353.51s6,3,16,3,70-8,118-17,62-2,62-2,20-12,28-8a12.16,12.16,0,0,1,7.17,11.66"/><path class="cls-5" d="M786,331.51s-18-5-61,3-98,20-116,18-21-5-21-5-26,41-58,46a118.47,118.47,0,0,1-17.83,1.35S514,405.51,508,409.51c0,0,25,7,43-2s49.36-36.3,51-45"/><path class="cls-4" d="M577.51,337.07S575,327.51,588,325.51s77-1,105-6,69.33-10.67,74.17-15.84"/><path class="cls-6" d="M573.67,334.91s-.67-5.4,5.33-10.4,50-4,50-4,52-3,73-7,54-7.45,62-14.23"/><path class="cls-6" d="M741,275.51s-4,13-100,28c-36.23,5.66-48.33,12.66-73.17,9.33"/><path class="cls-6" d="M572.17,308.61s3.83,2.9,20.83-.1,54.23-9.75,79-15c66-14,64-22,64-22"/><path class="cls-6" d="M591,292.51s78.13-6.29,94-11c37-11,13-27,13-27"/><path class="cls-6" d="M598,286.51s59.32-3.47,77-7c30-6,26-20,12-26,0,0-18-1-36,14,0,0-25.1,16.33-35,6"/><path class="cls-6" d="M481.76,213.5s42.24-58,82.24-56,103,96,103,96a58.2,58.2,0,0,0-18,10c-5,4-15,7-20,9s-8.56-2.65-8.56-2.65"/><path class="cls-6" d="M693,393.51s28-4,42-4,38,0,42,4a7.38,7.38,0,0,1,1.27,8.74"/><path class="cls-4" d="M499.75,261.54s13.25,6,18.25,24,21,29,21,29"/><path class="cls-8" d="M548,318.51s-16-12-22-23l-.49-.9s8.49,5.9,18.49,3.9,5-26,0-35-21.25-24-24.62-27"/><path class="cls-6" d="M449.25,313a22.75,22.75,0,0,1,.39-6.13S486,264.51,496,260.51l6.33-3.15S509,260.51,514,269.51c4.18,7.51,5.56,12.94,9.4,20.93,0,0,11.6,8.07,19.6,5.07s0-26,0-26-12-18-17-22-9.62-7.75-9.62-7.75"/><path class="cls-4" d="M577.75,303.67S584,282.51,582,270.51s0-18,0-18"/><path class="cls-4" d="M581.44,300.43S585,287.51,585,278.51s-2.63-17.31-.32-21.15"/><path class="cls-6" d="M572,308.51s-15,3-13-10,4-38,0-47,5.4-18.75,5.4-18.75"/><path class="cls-6" d="M575.11,306S565,307.51,564,303.51s2-22,2-30-2.7-21.09-4-25c-1-3,1-6,1-6l4.83-7.38"/><path class="cls-6" d="M492.41,274.71S518.93,294,521,308.51"/><path class="cls-4" d="M490.92,279s19.36,15.92,23.08,21.5c4,6,3.83,7.66,3.83,7.66"/><path class="cls-4" d="M482,298.51s9,6,10,7"/><path class="cls-4" d="M483,295.51s11.52,8.35,15,10"/><path class="cls-6" d="M116.89,168.42s6.37,7.51,12.74,16.18c0,0,12.37,10.91,35.37-.09s25-4,31,1S211.08,201,211.08,201c2.84-1.35,6.19-2.29,10.92-5.44,9-6,11.37-15,9.19-21.48,0,0-14.19-22.52-50.19-16.52s-50.14-2.42-50.14-2.42"/><path class="cls-6" d="M234.86,276.44s2.14-13.93.14-21.93-1-13-10-23-18-12-17-18,7-10,16-13,11.85-19.87,11.85-19.87"/><path class="cls-4" d="M248.44,202.3s-13.65,26.67,9.45,59.94"/><path class="cls-4" d="M251.84,209.11s-5.84,9.4-.84,27.4S262.83,261,262.83,261"/><path class="cls-6" d="M134.67,152.07A58.13,58.13,0,0,0,169,155.51c19-4,37.13-5.61,49.06,3.69"/><path class="cls-5" d="M178.75,247.26S167,242.51,165,257.51c-1.27,9.49-13.34,14.17-22,16.34,0,0,14,5.66,14,13.66a34,34,0,0,1-4,15s13,0,27-15,17.83-23.19,17.83-23.19"/><path class="cls-5" d="M0,256.51s73,23,134,19c0,0,23,6,17,19s-15,13-21,11-21-6-33-5-38,6-51,6-46-2.84-46-2.84"/><path class="cls-6" d="M909.17,283.22S866,179.51,801,182.51,703.5,256,703.5,256"/><path class="cls-6" d="M1150.5,406s42.5-58.5,80.5-72.5,64,2,91,15,39.5,40.16,39.5,40.16"/><path class="cls-6" d="M94.2,122.94S138,73.51,216,72.51c66.48-.85,114.09,87.94,114.09,87.94"/><path class="cls-6" d="M527.83,168.67s-18.21-34.78-36.91-62.86C479.7,89,471.5,73.26,458,72.51c-36-2-70.17,86.85-70.17,86.85"/><path class="cls-6" d="M1070,316.51s37-80,86-81,96.49,92.93,96.49,92.93"/><path class="cls-6" d="M1228.49,289.51s53.51-57,134-57"/><path class="cls-6" d="M497,196.2s3,7.31,17,12.31,42,2,62-4,41.64-12,41.64-12,29.36-61,100.36-61,96.21,51.66,96.21,51.66"/><path class="cls-6" d="M777.75,186.76s26.47,14.15,55.25,17.75c24,3,31.21,9,31.21,9s52.79-89,105.79-82,126.15,142.9,126.15,142.9"/><path class="cls-6" d="M1073.36,236S1143,128.51,1198,128.51,1320,237.7,1320,237.7"/><path class="cls-6" d="M564,157.51s54-108,117-100,85.66,83.41,85.66,83.41"/><path class="cls-6" d="M622.41,80.11S567-16.49,523-6.49,432.32,83.4,432.32,83.4,393,42.51,346,45.51,272,93,272,93"/><path class="cls-6" d="M1198,128.51s86-110,122-77,85,40,85,40"/><path class="cls-6" d="M745.5,99S786,69.51,818,63.51c12.68-2.38,44,1.44,64,20C907.76,107.46,921.23,148,921.23,148"/><path class="cls-6" d="M165.33,80S129-6.49,121-15.49s-73-16-85-5-51,105-51,105"/><path class="cls-6" d="M346,45.51s-39-78-74-79S146.48,36.34,146.48,36.34"/><path class="cls-6" d="M591.5,36S657-34.49,712-35.49,844.5,65,844.5,65"/></g><path class="cls-5" d="M168.92,239.47c-10.07,6-9.92,6-10.92,13-.85,5.95,1,15-33,17-11.4.67-33.46,1-52.42-2.61,0,0,38.42-9.39,44.42-31.39s-5.17-33.5-5.17-33.5"/><path class="cls-5" d="M0,248.34s32.12,10.16,64.7,17c0,0,41.3-11.81,48.3-31.81S99.17,196,99.17,196"/><path class="cls-5" d="M0,229.51s29,9,59-2,29.5-31,25.75-37"/><path class="cls-5" d="M0,222.51s19,7,31,3-2-16-16-20S0,196,0,196"/><path class="cls-5" d="M0,190.51s8,11,26,15,16,18,16,18,13,2,24-6,15-12,15-19-5.75-11.75-5.75-11.75"/><path class="cls-5" d="M201.78,267.64S187,300.51,151,308.51s-34-7-78,0c0,0,30.83,5.13,22,16"/><path class="cls-4" d="M158.83,328.34S175,327.51,186,316.51s30-22,30-22"/><path class="cls-4" d="M165.33,331.51a61.67,61.67,0,0,0,17.67-7c8-5,14.67-15.67,23.83-20.84"/><path class="cls-4" d="M506,252.51c-47-101-147-105-193-87-29.17,11.41-67,32-67,32"/><path class="cls-5" d="M458.53,190.51s-13.7,20.72-66,16.88c0,0-68.6-34.32-36.08-50.1"/><path class="cls-9" d="M302,170s8,25.47,74,35.47q3.9.59,7.56,1s-38.56-14-40.56-36c0,0-1.56-5.4,4.72-12.7"/><path class="cls-6" d="M296.58,172.44S302,191.51,330,198.51s56,52,55,101c0,0-1.33,14-3.17,27.5"/><path class="cls-5" d="M262,231.51c-10.25-32.25,24.4-31.42,24.4-31.42,11,3.23,23,8.34,33.6,16.42a74.58,74.58,0,0,1,10.09,9.32S287,206.51,282,256.51"/><path class="cls-6" d="M385,332.51a183.93,183.93,0,0,0,4-34.17s16-38.83,39-58.83,48.92-31.64,48.92-31.64"/><path class="cls-5" d="M474.1,204.81c-20.1,7.67-34,16.44-46.1,27.7l9.37-22.58c18.47-5.51,25.95-15.43,25.95-15.43"/><path class="cls-5" d="M423.2,237.22c-25.9,25.33-34.2,52.29-34.2,52.29-4-67-35-83-35-83s19,7,57,7a96.07,96.07,0,0,0,21.32-2.26Z"/><path class="cls-6" d="M257.8,191.28s65.74-.69,94.2,56.23c21,42,14.17,56.16,14.17,56.16"/><path class="cls-6" d="M362.5,298.34a33.86,33.86,0,0,0-1.5-11.83s-7.84-31.36-26.16-55c0,0-21.81-7.43-32.82-3.21s-9,26.21-9,26.21"/><path class="cls-6" d="M251.83,194.5s4.52-1.73,20.17,2c0,0-17.5,4-15.75,22"/><rect class="cls-7" x="268.5" y="229.01" width="38.5" height="32"/><path class="cls-4" d="M307,245s34.82-1.27,38.91,35.62"/><path class="cls-4" d="M307,250.55s16-2,23,8,8.6,7.27,10.8,18.14"/><path class="cls-4" d="M391.5,345s9.5-52.5,37.5-81.5,58.86-42.08,58.86-42.08"/><path class="cls-5" d="M393.5,348.51s11.5-44,24.5-62,27-30,42-41c0,0-42,57-44.5,86"/><path class="cls-4" d="M419.38,329c1.37-18.5,46.62-86.5,48.62-89.5S490,224.37,490,224.37"/><path class="cls-6" d="M367.23,157.31s-12.23,8.2,3.77,20.2,41,23,61,17,15-12.34,15-12.34"/><path class="cls-6" d="M371.68,157.81s-6.68,7.7,8.32,18.7,33,19,47,15,15.79-12,15.79-12"/><path class="cls-6" d="M496.07,233.82S443.5,276.51,444.75,315"/><path class="cls-5" d="M506,252.51c-24,5-54.45,48.25-54.45,48.25,2.57-6.29,7.06-13.48,12.45-24.25,9-18,34.35-38.81,34.35-38.81s7,5.81,15.82,3.81"/><path class="cls-6" d="M0,72s79,9.5,122.5,90"/><path class="cls-6" d="M535,165.26s10.5,20.75,51.75,1.5"/><path class="cls-6" d="M530.75,167.51s2.25,8,16.25,11,44.75-8.41,44.75-8.41"/><path class="cls-6" d="M520,174.94s2,18.57,27,17.57,53.5-15.76,53.5-15.76"/><path class="cls-6" d="M515.5,178s1.13,8.17,10.5,16.5c9,8,42,0,42,0l37.25-14"/><path class="cls-6" d="M501.25,191s.75,12.5,25.75,15.5S613,188,613,188"/><path class="cls-6" d="M487.86,204.86S493,222.51,514,222.51s68-12,82-12,31.5-7.25,31.5-7.25"/><path class="cls-6" d="M485.25,209.26A29.17,29.17,0,0,0,501,224.51c12,5,68-5,76-6s31-3,43-6a92.16,92.16,0,0,0,11.5-4.64"/><path class="cls-4" d="M494.76,231.68s9.91,8.21,23.07,6"/><path class="cls-6" d="M566.44,234.13s60.06-5.12,71.81-18.87"/><path class="cls-6" d="M570.12,237.7S602,235.51,620,228.51s20.25-10.88,20.25-10.88"/><path class="cls-6" d="M580,249.63s25-.12,44-8.12,22-16.13,22-16.13"/><path class="cls-6" d="M583.08,254.42A95,95,0,0,0,626,244.51c22-11,22-16.84,22-16.84"/><path class="cls-4" d="M588.38,264.26S617,262.51,633,254.51s21.62-18.38,21.62-18.38"/><path class="cls-6" d="M590.5,269.23s29.5-2.72,44.5-10.72S656.75,239,656.75,239"/><path class="cls-4" d="M596,282.51a32.19,32.19,0,0,0,13.25-4.75"/><path class="cls-4" d="M664.75,250.19a9.25,9.25,0,0,1-4.5,3.93"/><path class="cls-4" d="M863,306.51s-29-30-78-34c0,0,6-9,2-22s-23-35.5-48.5-41.25"/><path class="cls-6" d="M712.25,241.06s22.11,25.56,67.69,30.94c0,0,18.06-33.74-44.94-59.12"/><path class="cls-6" d="M709.75,245A109.69,109.69,0,0,0,751,269.51c25,8,55,9,59,13s-8.25,38.5-50.12,11.25"/><path class="cls-6" d="M766.12,301.63s8.88,7.88,24.88,6.88,22-15,22-15,1-8,4-8,30,10.5,43,23.75"/><path class="cls-6" d="M780.17,321.84s38.83-22,65.83-1.67"/><path class="cls-6" d="M843,323.51s-16-10-32-7a156.72,156.72,0,0,0-28.66,8.33"/><path class="cls-4" d="M793.33,341.67S808,332.51,813,334.51s6,1,6,7-1.17,7.83-1.17,7.83"/><path class="cls-4" d="M871.75,300.6S842,269.51,819,260.51s-10-34-10-34S764,201,754,198.26"/><path class="cls-4" d="M758.66,194.59s45.09,23,52.34,25.92c5,2,10-3,25-4s48.78,29,61.89,44.52"/><path class="cls-6" d="M875.42,298.4S846,264.26,828,257.51c-16-6-22-18-15-27s20.91-9.7,27-8c18,5,62,45.72,62,45.72"/><path class="cls-6" d="M784.88,184.76S814,198.51,833,200.51s23.88,5.62,23.88,5.62"/></svg>