<?xml version="1.0" encoding="utf-8"?>
<!-- Generator: Adobe Illustrator 22.1.0, SVG Export Plug-In . SVG Version: 6.00 Build 0)  -->
<svg version="1.1" id="Layer_1" xmlns="http://www.w3.org/2000/svg" xmlns:xlink="http://www.w3.org/1999/xlink" x="0px" y="0px"
	 viewBox="0 0 1362.1 841" style="enable-background:new 0 0 1362.1 841;" xml:space="preserve">
<style type="text/css">
	.st0{fill:#C1E8C5;}
	.st1{clip-path:url(#SVGID_2_);}
	.st2{fill:#C1E8C5;stroke:#000000;stroke-miterlimit:10;}
	.st3{fill:none;stroke:#000000;stroke-linejoin:round;}
	.st4{fill:none;stroke:#000000;stroke-miterlimit:10;}
	.st5{fill:#FFFFFF;stroke:#000000;stroke-linejoin:round;}
	.st6{fill:#C1E8C5;stroke:#000000;stroke-linejoin:round;}
	.st7{fill:#C1E8C5;stroke:#000000;stroke-linecap:round;stroke-linejoin:round;}
</style>
<title>landscape</title>
<rect y="0.5" class="st0" width="1362" height="839"/>
<g>
	<g>
		<defs>
			<rect id="SVGID_1_" x="-0.5" y="1" width="1362" height="839"/>
		</defs>
		<clipPath id="SVGID_2_">
			<use xlink:href="#SVGID_1_"  style="overflow:visible;"/>
		</clipPath>
		<g class="st1">
			<path class="st2" d="M63,271.3c-0.2-32.6,57-132.2,104.1-132.7c69.9-0.7,89.5,91.8,110.8,125.4"/>
			<path class="st2" d="M72.6,236.9c0,0,7.4,13.6,9.4,12.6c0,0-2-8,9-17s15-22,15-27s-3.6-19.6-3.6-19.6"/>
			<path class="st3" d="M209.9,225.5c1.5,1.4,7.1,3.2,5,4.4c-4.1,2.3-13.9,2.7-35.9,3.7s-16.2,16.3-16.2,16.3
				c-15.8,1-33.2,3.5-34.8-0.3c-2-5,6-15,6-15s11-18,8-29c-1.1-4-1.9-6-6-12c0,0,3,3,14,1s28-12,36-10s19.8,20.5,19.8,20.5
				c-0.6,0.8-1.2,1.6-1.8,2.5c-1.3,1.9-1.8,4.2-1.5,6.4c0,0-49.5-5.4-60.5,14.6s4,3,4,3s5-10,24-12c11.2-1.2,22.5-1.7,33.8-1.6
				C205.4,220.7,207.5,223.3,209.9,225.5"/>
			<path class="st3" d="M216,294.5c0,0,1-17-4-29s-18-15-35-16c-2.1-0.1-4.4-0.1-6.8-0.1c0,0-3.2-5.9,1.8-7.9s29-1,38-3s11-4,11-4
				c15,11,9,47,9,47"/>
			<path class="st3" d="M174,255.5c0,0,20-2,30,7s7,32,7,32"/>
			<path class="st3" d="M106.1,181.1c0,0,8.9,22.4-0.1,38.4s-24,24-19,31s16,8,23,16c1.2,1.4,2,3,2.6,4.8c0,0,10.4,6.2,16.4,1.2
				s6.8-13.7,6.8-13.7c-8.5-0.1-14.4-1.5-14.8-6.3c-1-14,21-30,16-44s-23.6-36.2-23.6-36.2"/>
			<path class="st2" d="M-1,186.9c0,0,75.2-43.6,214.1,91.5S-1,395.4-1,395.4"/>
			<path class="st0" d="M269.2,441.6c-50.5,0-117.6-3.4-117.7-32.8c-0.1-19,18.1-56.7,43.1-89.6c29.8-39.2,61.6-61.9,87.2-62.1h1
				c66.4,0,96.5,62.4,118.4,108c6.9,14.3,12.9,26.7,19,35.6c1.4,1.9,1.6,4.5,0.4,6.5c-8.8,16.8-84,34-121.1,34.1
				c-3.3,0-6.9,0-10.9,0.1C282.9,441.5,276.2,441.6,269.2,441.6z"/>
			<path d="M282.9,256.5v1c29.2,0,53.9,11.9,75.3,36.5c18.5,21.2,31.3,47.8,42.6,71.3c6.9,14.3,12.9,26.7,19.1,35.7
				c1.3,1.7,1.4,4.1,0.3,6c-8.7,16.6-83.7,33.7-120.7,33.9c-3.3,0-6.9,0-10.9,0.1c-5.9,0.1-12.5,0.1-19.5,0.1
				c-21.4,0-52.8-0.6-77.2-5.3c-26.5-5.1-39.9-14.2-40-27c-0.1-18.6,18.4-57,43-89.3c29.7-39.1,61.4-61.7,86.8-61.9h1L282.9,256.5
				 M282.8,256.5h-1c-59.1,0.6-130.9,114.8-130.8,152.2c0.1,30.2,69.3,33.3,118.2,33.3c11.7,0,22.2-0.2,30.4-0.2
				c42.4-0.1,134.3-22.4,121.1-41.5C394.2,361.9,369.8,256.5,282.8,256.5L282.8,256.5z"/>
			<path class="st0" d="M534.5,384.8c-29.1,0-67.9-3-68-28.5c-0.1-30.9,40-131,74.1-131.4h0.5c37.8,0,55.1,54.2,67.7,93.7
				c4,12.4,7.4,23.1,10.9,30.9c1.2,2.6,0.8,5.4-1,8.3c-4,6.2-14.8,12.9-29.7,18.5c-13.6,5.1-28.2,8.3-38.1,8.3c-1.9,0-4,0-6.2,0.1
				C541.7,384.7,538.2,384.8,534.5,384.8z"/>
			<path d="M541.2,224.3v1c37.4,0,54.6,54,67.2,93.4c4,12.4,7.4,23.2,11,31c1.1,2.5,0.8,5-1,7.9c-3.9,6.1-14.6,12.8-29.4,18.3
				c-13.6,5.1-28.1,8.2-37.9,8.3l-6.2,0.1c-3.1,0-6.6,0.1-10.3,0.1c-28.9,0-67.4-2.9-67.5-28c-0.1-16.5,10.2-49,24.5-77.5
				c16.9-33.8,34.8-53.2,49.1-53.4h0.5L541.2,224.3 M541.2,224.3h-0.5c-33.8,0.4-74.7,99.5-74.6,131.9c0.1,26.5,40.4,29,68.5,29
				c6.3,0,12.1-0.1,16.5-0.1c24.3-0.1,76.7-19.3,69.2-35.9C605,315.8,590.9,224.2,541.2,224.3L541.2,224.3z"/>
			<path class="st2" d="M773.2,411.6c46.5,1.7,81.4,0.8,69.3-9.6c-57-49-71-128-139-146c-68.8-18.2-114,41-152,70
				c-24.9,19,14.9,80,86,80c33.1,0,85,3.6,128.6,5.3c0,0,12.9-1.8,8.9-12.8s-75-2.1-75-2.1"/>
			<path class="st0" d="M467.4,496.5c-64.3,0-149.8-3.5-149.9-34c-0.1-19.7,23.2-58.8,55.3-92.9c38.3-40.7,79.2-64.2,112.1-64.5h1.5
				c85.2,0,123.7,64.7,151.9,112c8.8,14.8,16.5,27.6,24.4,36.9c1.5,1.5,1.9,3.8,1,5.8c-8,17.5-107.3,36.3-156.1,36.5
				c-4.2,0-8.9,0-13.9,0.1C485.8,496.4,476.9,496.5,467.4,496.5z"/>
			<path d="M486.4,305.5c37.6,0,69.3,12.4,96.8,37.9c23.7,22,40.2,49.5,54.7,73.8c8.8,14.9,16.5,27.7,24.5,37
				c1.4,1.4,1.8,3.5,0.9,5.2c-8,17.4-106.9,36-155.6,36.2c-4.2,0-8.9,0-13.9,0.1c-7.9,0.1-16.8,0.1-26.3,0.1
				c-27.3,0-67.3-0.6-98.6-5.5c-33.7-5.4-50.8-14.7-50.9-27.9c0-9.3,5.4-23.6,15.4-40.4c10.1-17.1,24.2-35.6,39.8-52.1
				c17.4-18.5,36-34,54-45c20.8-12.7,40.2-19.2,57.8-19.4L486.4,305.5 M486.4,304.6H485c-75.9,0.6-168.1,119.2-167.9,158
				c0.1,31.1,87.7,34.4,150.4,34.4c15.5,0,29.4-0.2,40.2-0.2c54.5-0.2,172.3-23.4,155.5-43.1C629.1,413.8,597.8,304.6,486.4,304.6
				L486.4,304.6z"/>
			<path class="st2" d="M880,296c0,0,9,9.5,19,12.5s34,5,40,5s13,1,24,3s32.6,1.9,32.6,1.9c4.1,4.2,5.4,6,7.6,8.6
				c0,0,12.7,13.7,15.8,18.5c8,12.4,20,41,22,53c1,6-2,8-1,17s14,41,14,50s-3,6-6,23s17,30,17,30c-35.7,4.9-71.6,7.5-107.6,7.8
				c-119.9,0.4-253.8-36.1-217.3-74.4c50.5-52.9,96.6-175.1,216.5-175.5s197,124.6,217.7,174c13.6,32.5-34,55.3-102.9,66.9
				c0,0-28.3-18.8-16.3-39.8s-13-55-9-71c2.2-8.9-9.9-41.1-23-63c0,0-26-38-60.2-54.2"/>
			<path class="st2" d="M582,554.2c-56.5-9.4-98-13.6-98-42.6C484,473,555,384,642.5,384s192,101.4,192,140
				c0,11.8-10.4,22.2-27.2,30.5"/>
			<path class="st2" d="M959.2,292c10.3,3,23.2,14.2,31.8,22.5c0,0-20,1-36-3s-52-3-59-8s-12.3-9.3-12.3-9.3"/>
			<path class="st2" d="M1372,532.5c-54-57-78.6-109.5-149.7-109.5S1104,513.5,1077,539.5c0,0-12,12-26,14s-19,0-21-2s5-4.2,16-6
				c24-4,27-3,27-3"/>
			<path class="st0" d="M70.5,507.5c-30.8,0-53.9-13.5-68.7-40C-12.9,441.4-14,412.3-14,404c0-15.2,16.5-35.8,42-52.4
				c28.5-18.5,63.3-29.1,95.3-29.1c47.5,0,67.6,24.6,93,55.8c12.2,15,26.1,32,44.9,48.1c2.4,1.8,3.1,5,1.9,7.6
				c-4.3,11.6-34.1,29.7-76,46C143.7,497,99.1,507.5,70.5,507.5z"/>
			<path d="M123.3,323c47.3,0,67.3,24.5,92.7,55.6c12.2,15,26.1,32,44.9,48.2c2.2,1.7,2.9,4.6,1.8,7.1c-4.3,11.5-34,29.5-75.8,45.8
				C143.6,496.5,99,507,70.5,507c-16.4,0-30.7-3.9-42.7-11.7c-10.2-6.6-18.8-16-25.5-28c-14.6-26-15.7-55-15.7-63.3
				c0-15.1,16.4-35.5,41.8-51.9C56.7,333.6,91.4,323,123.3,323 M123.3,322c-71.1,0-137.8,50.6-137.8,82s13.9,104,85,104
				s214.8-61.5,191-82C204.5,377,194.4,322,123.3,322L123.3,322z"/>
			<path class="st2" d="M139.5,561.9c0-25.3,34.1-60.5,66.5-97.4C251.6,412.6,308.5,361,389,361c53.7,0,77.9,26.3,115,59.5
				c58.1,52,117.4,124,137.5,162.5"/>
			<path class="st2" d="M655,628.5c9-11,37.9-16.1,51-33c12.3-15.9,32.6-45.3,49-61c28.5-27.3,122.9-52.7,158-23
				c59,50,81,104,134,139c3.8,2.7,8.3,4.5,13,5"/>
			<path class="st2" d="M1129.4,684.4c1.4-0.5,2.9-1.1,4.6-1.9c9-4,27-5,35-9"/>
			<path class="st2" d="M1018.5,681.3c0,0,16.5-15.8,28.5-14.8s12,2,19,7s-7,13-13,17c0,0,0,4,7,3c9-1.3,15-10,30-7s29.5,16,38.3,12
				c4.5-2.1-8.7-4.6-8.3-7c0.6-2.8,2.1-4.1,4.9-5.3c0,0,5.1-0.7-11.9-5.7s-24,3-39-9c0,0-7-4-3-10s6-7,6-7s-14-7,1-15s16.2-8,27-8
				c5,0,12-5,12-5"/>
			<path class="st4" d="M1070,742.5c-4-2-8-9-8-9c-7.5-15.5-36.4-63.5-77.9-63.5s-67.6,46-75.1,60.5c-4.3,8.3,8.8,13,22.9,17.2
				c13.5,4,31.9,8.9,52.2,8.9c17.3,0,54.9,7,68.9,5c10.8-1.5,17.5-1.2,24,1c0,0,10-8,39-14s43-6,53-16s1-15-4-18s-9-6-26-12
				c0,0-0.8-0.2-2.1-0.7l-3.9-1.3c0,0-6,3-15,1c-8.3-1.9-21.3-10.1-28-12c-7-2-15,1-25,6s-15-2-15-2c-3.2,2.5-6.6,4.8-10.1,6.9"/>
			<path class="st2" d="M0,661.5c4.4-0.2,6.4-0.5,10.1-0.8l17.6-30c-75.1-32.1-148.2-13.4-148.2-50.3c0-38.4,79-164.2,157.5-126.8
				c66.7,31.8,116,60.1,149.4,92.5"/>
			<path class="st2" d="M15.4,660.4c48.7-4.9,33.8-20.3,33.8-20.3C45,638.6,41,636.9,37,635c-1.4-0.7-2.8-1.4-4.2-2L15.4,660.4z"/>
			<path class="st2" d="M85.1,663.2c0,0-8.1,2.4-26.1,13.4c-2.2,1.4-7.4,5.8-6.1,4.1C53,680.5,3,683.5-1,680.5s-4,0,0-4
				c2.9-2.9,16.6-12.3,16.6-12.3c24.3-2.5,68.2-7,75.3-7.7"/>
			<path class="st2" d="M98.7,647.2c-13.7,0.7-27.5-0.8-40.7-4.3c1.3,3.2,0.9,6.8-1.1,9.6c0,0,28.7,1,37.9,0"/>
			<path class="st2" d="M1102.5,649c15.5-22.5,28-53.7,60.8-53.7s38.2,20.7,52.8,39.2c0.4,0.5,9,12,12,14"/>
			<path class="st4" d="M185.8,754.7c29.7,3,59.2,4.8,59.2,4.8s51.6,4,53.8-8c1.3-7,4.5-13.1,41.2-15c58-3-4-10-11-12s-27-3,20-18
				s51-27,40-40s-83-12-59-52s-13-73-49-75s-95,7-95,7s-11-22-12-31c-0.6-4.9-0.6-9.9,0-14.8"/>
			<path class="st4" d="M185.8,754.7l-1.3-0.1c0,0,14.6-9,24.6-10s20-3,26-4c4.3-0.9,8.4-2.4,12.3-4.5c23.4,9.3,43.3,5.9,51.7-2.5
				c10-10-3-19,17-29s58-26,40-36s-33,4-76,14s-55-72-46-74s17,13,17,13c8,14,20,40,20,40c13,20,54-5,48-20s-5-28-1-47s0-36-37-44
				s-103.6,1.6-103.6,1.6"/>
			<path class="st4" d="M49,700.5c2,10,24,18,54,19c58.1,1.9,90-3,92,6s-83,18-49,24c8.5,1.5,18.8,2.9,29.7,4.1
				c0,0,21.3-12.1,38.3-14.1c9.7-1.1,19.3-2.9,28.7-5.5c-2.9-1.3-5.7-2.8-8.7-4.5c-22-15-24-35-63-32c-9,1-56,22-69,4
				c-1.4-3.1-2.3-6.4-2.8-9.7C99.2,691.8,68,700.5,49,700.5z"/>
			<path class="st4" d="M90.5,480.6l15.7,25c0,0,13.7,31,7.7,45s-24,14-34,19s-8,10-9,22s26,46,26,46l8-0.1
				c-0.1,18.9,7.9,31.2,7.9,31.2c-5,1.8-9,7.7-10.9,9.9s-3,7-3,7.8c-12,6.8-51,9.2-51,9.2c0-11,26-23,26-23c36-27,32.9-52.1,66-88
				c36.4-39.5,116.6-87,176-87c49.6,0,105,38,123,73c25.7,50,64.2,72.1,88,89"/>
			<path class="st2" d="M379,746.5c17.4-11.6,54-55,105-89c36.1-24.1,59.3-63.6,96.2-63.6c78,0,149.8,97.6,191.8,137.6"/>
			<path class="st2" d="M851,762.5c-17.3-9.8-33.5-49.2-62-60c-21-8-48.6-16-72-16c-55.4,0-100,56-125,80c0,0,4,5,18,7s30,5,22,9
				s-22,3-37,2s-67-4-58-11c0,0,5-6,27-6c0,0,10,1,11-3s-16-4-13-11s13-14,35-17s29-4,29-4"/>
			<path class="st3" d="M965,673.5c0,0-8,5-2,7s17,5,27,3s18.3-3,20.7-7"/>
			<path class="st3" d="M956,677.5c0,0-2,1,0,3s10,7,22,7s22.3-1,27.7-3c3.2-1.2,6.1-3.3,8.3-6"/>
			<path class="st4" d="M1169,673.5c0,0,29-7,27-14s-9-5-16-15s-7-43-17-49"/>
			<path class="st4" d="M826.5,735.8c14.5,4.4,1.5,1.7,22.5,6.7s55.3-3.7,55.3-3.7c2.3,3.3,6.8,7.5,15.7,10.7
				c9.8,3.5,20.6,5.6,33.2,7.2c0,0,0.8,6.8-15.2,5.8s-23-13-42-13s-28.8,2.7-20,10c12,10-12,12-24,10c0,0-4,1-13-10s-31-41-55-54
				s-52-18-52-18"/>
			<path class="st3" d="M-0.5,665.9c0,0,2.3-0.4,9-1.1c0,0-32.5,19.8-18.5,20.8s58.7-1.5,58.7-1.5c-8.7,8-9.3,15.3-4.7,21.5
				c6,8,26,17,49,19s79,0,86,3s-23,6-37,9s-24,9-14,15s29.1,6.2,106,12c67,5,69.6-6.6,69.6-6.6c2.3,1.8,4.8,3.3,7.4,4.6
				c14,7,69,2,91,2s46,8,99,12s18-17,0-28s-16-27.1-16-27.1c11.2-2.7,20.8-6.2,30-8.9"/>
			<path class="st4" d="M1167,595.4c4-0.1,4,2.1,7,9.1s6,31,6,31c2,14,24,19,19,27s-27,14-27,14c-14,6-32,6-42,12s9.1,8.4,36,21
				c32,15,7,36-30,40s-53,15-53,15c1.8,0.8,5.8,3.4,7,4c6,3,7,7-6,14c-15,8.1-4,7,4,9s77.1-0.6,105,2c43,4,113.5-3.1,118-10l-3-1
				l11,1c7.2,1.8-64.4,23.4-115,15c-17.8-2.9-76-2-109-3s-26-8-13-15s2-11,2-11c-13.5-7.1-38-4-38-4c-14,1-35-4-62-6
				c-8.6-0.6-16.5-1.3-23.9-2c0,0,0.9,7-9.1,8s-18,2-33-5s-15-8-27-7s-11,4-11,4s6,4,5,7s-2,10-23,9s-19-5-23-9s-33-40-49-51
				c-11.8-8-25.1-13.8-39-17c-18-4-17.8-9-47-9"/>
			<path class="st4" d="M1064,736.6c0,0-21,8.9-35,10.9s-25,7-35,4s-69-9-75-14s-8-10-8-10c-8.5,2.2-9,6-9,6s-1,3-18,4s-23,4-36,0
				c0,0-12-1-16-3s2-4,9-4s29,4,40,1s10-7,15-9s3-5-23-2s-46-3-61-2"/>
			<path class="st4" d="M1155,596c4.8,4.3,8,10.1,9,16.5c2,11,2,21,4,27s8,9-6,6s-8-9-10-16s-7.7-22.3-13.3-27.2"/>
			<path class="st4" d="M1152.2,596.6c3.1,2.7,5.4,6.1,6.8,9.9c2,6,3,13,4,21s1,11,2,13s6,5-8,0c0,0-3,0-1-6c0,0,1-3-3-13
				s-7.6-17.1-10.8-21"/>
			<path class="st4" d="M815,721.5c5.3,0.7,10.7,1,16,1c9.1,0,26,4,45,0s16,0,12,2s-7,5-14,5s-36-3-41-1s-6.8,2.1-7.9,5.5"/>
			<path class="st4" d="M434,696.5c-3.6,2-10.6,6.5-15,8c-31.7,11.2-51.2,1.7-51.2,1.7c-15.3,6.1-30.6,10.1-32.8,12.3
				s8.9,4.6,20,6.7c0,0,19.1-10.6,56.5-8.2"/>
			<path class="st4" d="M494,635.5c-12,2-25,17-29,23c-2.1,3.2-4.4,12.4-12,22"/>
			<path class="st3" d="M944,685.5c0,0,1,8,49,12c0,0,20-2,26-6s6-5,6-5"/>
			<path class="st3" d="M941,687.5c0,0,1,5,9,9c8.5,4.2,26,7,42,6s21-5,27-6s10-7,10-7"/>
			<path class="st3" d="M933.6,695.1c0,0-1.6,9.4,25.4,12.4s36,5,47,4s26.8-14.8,27.4-17.9"/>
			<path class="st3" d="M930.2,698.8c0,0-3.2,3.8,6.8,8.8s22,5,32,7s34,4,40,2s22-10.8,27.5-19.9"/>
			<path class="st3" d="M916.8,717.3c0,0,14.2,11.2,39.2,14.2s30,7,45,6s22-9,36-10s16-10,16-10"/>
			<path class="st3" d="M1055.9,722.5c0,0,2.1,7-7.9,9s-17,2-25,6s-33,6-41,4s-28-5-35-6s-29.2-12.5-32.1-15.2"/>
			<path class="st3" d="M1062,733.5c0,0,1,2-12,5c-17,3.9-42,13-55,10s-70-9-76-16s-6.4-8.4-6.4-8.4"/>
			<path class="st4" d="M1134.1,606.1c0,0,10.9,15.4,9.9,27.4s-3,10-6,8s-3-7-9-13s-6.7-9.7-6.7-9.7"/>
			<path class="st4" d="M1131.7,608.2c0,0,7.3,9.3,8.3,16.3s2,13,0,14s-3-6-8-11c-3.2-3.2-5.9-6.8-8.1-10.8"/>
			<path class="st4" d="M1113.8,631c0,0,5.2-0.5,13.2,7.5s15,7,25,12s6,12-11,13c0,0-14-2-27-4s-25,3-34-2c0,0-22,13,16,18
				c0,0,27.5,2.5,34,9"/>
			<path class="st4" d="M1112.5,633.3c0,0,8.5,5.2,13.5,10.2s16,6,18,8s9,2,9,5s-9.2,3.7-15,3c-8-1-14-5-31-4s-19,4-26-2
				c0,0-16-10,13-16c0,0,15-3,20-6"/>
			<path class="st3" d="M621,385.8c32,10.3,36,23.7,50,40.7c0,0-38,20-54,28s-47.8,10.8-50,29"/>
			<path class="st3" d="M700,601.7c0,0-20.9,1.8-27,1.8c-7,0-23-3-21-8s23-11,30-15s15-11,17-16s7-18-13-39c0,0-23-14-29-19
				s-12-12-7-19s4-12,15-26s19-19,15-32s-14-19-18-26s-18-14.5-33.5-18.8"/>
			<path class="st2" d="M1001.5,672.8c0,0-8.5-27.3,23.5-39.3"/>
			<path class="st4" d="M995.9,671.3c0,0-7.2-25.3,25-41.6"/>
			<path class="st4" d="M1022,683.5c0,0,9-9,18-11s22-1,22,6c0,2.2-20,15-24,19"/>
			<path class="st4" d="M1014.3,623.4c0,0-7.3,7.1-39.3,27.1s-64,31-95,16s-30,12-12,15s66.2-0.5,75-4c10-4,29.2-6.2,29.2-6.2"/>
			<path class="st4" d="M1009.4,618.3c0,0-11.4,13.2-21.4,19.2s-47,28-60,29s-22,6-35-1s-38-13-41-4s-3,21,11,24s60.2,3.6,74-1
				c12-4,19-7,19-7"/>
			<path class="st4" d="M937.1,691.5c-1.1,1-33.1,6-42.1,5s-33,2-45-12s-45-2-57,3s-26-7,15-22s41-29,65-20s41,17,62,8s39-17,48-24
				s18.5-19.8,18.5-19.8"/>
			<path class="st4" d="M997.8,605.4c0,0-11.8,17.1-22.8,24.1s-49,27-60,24s-43.2-19.1-60-16c-11,2-18,11-31,16s-44,14-49,25
				c-4.6,10.2-8,17,9,15s28-13,47-11s14,16,37,18s32,0,40,0s23.3-3,23.3-3"/>
			<path class="st3" d="M781,699.5c0,0,33,5,47,5s22.2,4.9,52,7c28,2,34-4,44.2-4.5c0,0-4.2,6.5,26.8,12.5s46,7,61,3
				s28-11.7,31.5-17.8"/>
			<path class="st3" d="M793.9,704.7c0,0,13.1,1.8,24.1,3.8s22,2,35,5s29,2,55,0c0,0,8-1,12.5-1.7c0,0-1.5,3.7,20.5,7.7s36,12,53,12
				s43.7-14,52.8-22.5"/>
			<path class="st2" d="M762.1,693.6c0,0-23.1-18.1-0.1-31.1s40-12,59-19s19-25,45-30s25,21,51,23s57-33,17-41s-40-29-82-9
				c0,0-80,39-100,32s-35,0-46-23"/>
			<path class="st4" d="M691.2,649c4.2-2.8,17.9-2.6,32.6-2c0,0-9.8,10.5-7.8,16.5c0,0,5,11,32,14"/>
			<path class="st4" d="M747.8,675c0.1-6.9,5.7-11.9,12.2-18.4c9-9,62-18,68-22s4-13,25-22s33-2,38,0s20,16,31,18s15-4,22-9
				s3-11,3-16s-6-6-23-9s-24-10-33-14s-20,0-32,5s-62,27-75,34s-28,5-39,1c0,0-17,12,10,12s21-7,35-7s-11,18-28,20
				c-7.1,0.8-19.3,0.3-31.7-0.3c0,0-8.3,7.3-10.3,12.3s17,14,28,15"/>
			<path class="st4" d="M755,691.5l-5-8c-1-2-1.8-4.1-2.1-6.4"/>
			<path class="st4" d="M702.7,599.3c0,0,2.3,13.2,12.3,16.2c7.2,2.1,13.8,2.8,21,4.4l3,0.6c0,0-9,5-6,9s2,11,22,9s28-7,29-5
				s-14,9-19,9s-17,3-36-1s-41.8,4.1-41.8,4.1"/>
			<path class="st4" d="M973.2,575.3c0,0-17.2,32.2-9.2,38.2s28.8-14.2,28.8-14.2"/>
			<path class="st4" d="M975,578.1c0,0-6,13.4-7,20.4s-3,8-1,11s23.2-12.9,23.2-12.9"/>
			<rect x="486.5" y="498.5" class="st5" width="27.5" height="55.5"/>
			<rect x="935" y="243.5" class="st5" width="46" height="48.5"/>
			<path class="st2" d="M689,609.5c0,0,17.5,8.1,20,17c2,7-14,5-22,6c-4.6,0.6-9.3,0.9-14,1"/>
			<path class="st2" d="M684.9,611.6c0,0,13,5.9,15,9.9s4.1,2,4.1,5s-12.3,1-19.5,2s-15,2.4-15,2.4"/>
			<path class="st4" d="M958,556.5c0,0-11,29-43,19s-58-14-94-14c-33,0-68,9-62,17s38-2,49-3s19,15,2,17s-46,16-69,13
				s-30.8-15.2-30.8-15.2s-30.2,5.2-31.2,3.2s32.2-9.3,39.1-14.2"/>
			<path class="st4" d="M713.2,586.5c3.4,5.1,8.7,8.7,14.8,10c10,2,14,6,33,3s33-9,38-9s18-2,17-6s-6-6-14-4s-27,5-36,4s-16-4-12-9
				s14-13,33-15s45-4,73,0s42,7,49,9s18,6,28,1s18-16.8,18-16.8"/>
			<path class="st4" d="M950.8,549.3c0,0-9.8,11.2-30.8,7.2s-66-10-79-10s-22-10,26-12s31-11,16-14s-52,6-63,16s-53,24-64,25
				c-10.2,0.9-24.5,8-30.2,8"/>
			<path class="st4" d="M947.2,544.7c0,0-4.2,6.8-14.2,7.8s-67-9-76-9s-21,1-19-2s12-3,26-3s37-2,39-7s6-11-10-15s-37-2-48,3
				s-18,8-24,11s-18,13-24,14s-31,13-36,12s-31.5,8-31.5,8"/>
			<path class="st4" d="M748.7,541c0,0-0.7,10.5,18.3,3.5s22-14,33-18s42.7-15,42.8-26.5"/>
			<path class="st4" d="M745.2,544.7c0,0,0.8,6.8,9.8,5.8s22-4,29-9s15-12,29-16s26-11,30-16c2.4-2.9,4.1-6.3,5-10"/>
			<path class="st4" d="M855.6,498.6c0,0,1.4-1.1,8.4,5.9s39,2,45,7s8,11,8,16s-7,12,7,14s17.8-2.1,17.8-2.1"/>
			<path class="st4" d="M862.3,498.5c0,0,1.7,3,6.7,5s27.8,0.4,39.4,4.7"/>
			<path class="st4" d="M1114.1,493.3c1.1,7.8,7.7,13.3,7.7,13.3c11.6-14.8,23.2-28.7,31.1-35.1c20-16,31-27,52-30s-17,29-14,40
				s18,17,16,33c-2,16,16,30,31,11s38-35,22-46s-15,10-27,15s-23-5-16-17s25-36,19-43s-10.2-12.2-25-10c0,0-10,3-21,16
				c-8.5,10-31.2,7.4-31.2,7.4"/>
			<path class="st4" d="M915.8,513.8c0,0,4.2,8.8,4.2,14.8s-3,6,0,9s16.5,3,20.3,0c0,0,100.7-9,115.7-1s-84,12-73,20s89,5,98,0
				c5-2.8,20.2-23.4,36.2-44c0,0-7.2-8.5-7.2-13.7"/>
			<path class="st3" d="M932.5,529c0,0,70.5-0.5,103.5-3.5c21-2,41.8-5.8,62.2-11.1"/>
			<path class="st4" d="M1172.7,525.2c4.8,0.3,8.9,0.3,11.3-0.7c7-3,6-16,6-22s-2.4-14.7-2.4-14.7c-2.1-2.6-3.6-4.8-3.6-6.3
				c0-5,20-32,21-34s-9,2-9,2c-33.1,12.3-42.1,32.7-55.7,44.1c0,0,14.2-9.1,21.5-6.3C1186,496.5,1172.7,525.2,1172.7,525.2z"/>
			<path class="st4" d="M942.8,540.3c0,0,92.2-6.8,96.2-2.8s-59,6-66,18s41,14,41,14s53,4,70-5c16.3-8.6,37.2-54.1,52.2-67.5
				c0,0,15.8-5.2,20.8-6.3s14,5.8,15,10.8s0,15-1,17c-1.4,2.2-2.9,4.3-4.5,6.3c-7.7-0.5-15.8-0.9-20.5,1.7c-9,5-9,5-11,9
				s-2.2,18.6-2.2,18.6c-8.9,7.2-20.2,15.5-37.8,21.4c-39,13-125.2-5.1-125.2-5.1"/>
			<path class="st2" d="M733.3,412.8c0,0,28.7,3,36.2,2.3"/>
			<path class="st4" d="M683,390.5c0,0-8,8,10,24s-18.1,51.2-20,57c-2.7,7.5-2.4,15.8,1,23c3,7,41,10,50-26s12-45,14-53"/>
			<path class="st4" d="M735,414.1c-3,5.5-13,48.5-13,48.5c-5,21-13,25-13,25c-18,12-27,8-30,7s-4-10-4-10c-2-11,3-15,3-15
				c2.8-3.5,5.4-7.1,7.9-10.6l2.1-3.4c0,0,5,8,11,7s10-6,14-8s7-16,7-20s-3.1-30.4-3.1-30.4"/>
			<path class="st4" d="M686,391.5c0,0-3,2,0,8s12,13,15,17c2.5,3.3,2,15-2,23c0,0-3.5,5.6-8.7,13.1c0,0,6.7,9.9,12.7,4.9
				s18.5-3.5,10.2-54.8"/>
			<path class="st4" d="M745.2,420c0,0-4.2,68.5-19.2,79.5s-20,4-23,15s-1,31,13,36s23.8,0.1,23.8,0.1"/>
			<path class="st4" d="M744,546.2c-16,5.7-18,2.3-28-0.7s-11-17-10-27s6-7,15-12s13-9,18-18s8-41,8-41c0.2-1.1,0.4-2.8,0.6-4.9
				c0,0,7.4,23.9,7.4,36.9s25,16,26,10s5-28,0-35s-17-13.7-16-19.8"/>
			<path class="st4" d="M749,423.5c0,0-0.3,6.7-0.8,13.2c0,0,6.5,0.5,13.2-4.8"/>
			<path class="st4" d="M751,538.5c0,0-16-24-6-37s29,8,42,5s11.3-40,4.2-49"/>
			<path class="st4" d="M752.9,536.4c0,0-8.9-19.9-7.9-23.9s0-15,12-11s19,10,30,8s13-19,13-23s-3.3-23.5-3.3-23.5"/>
			<path class="st4" d="M750.7,440.3c0,0,8.3,0.2,11.3-3.8c0,0-1,6,9,12s9,19,9,19s0,20-3,21s-16,0-18-6s-1-15-2-20
				S750.7,440.3,750.7,440.3z"/>
			<path class="st2" d="M1069,545.5c0,0-23,3-25,4S1060,551.9,1069,545.5z"/>
			<path class="st4" d="M758,531.7c0,0-5,8.8,7,4.8s32-17,46-21s18.6-13.2,18.6-13.2"/>
			<path class="st4" d="M760.7,529.7c0,0-2.7,4.8,0.3,4.8s23-11,28-13s16-7,23-9s12.7-9.4,12.7-9.4"/>
			<path class="st4" d="M1231,423.5c6.2,2.4,12,9,13,16s-11,24-11,24s-12,16-12,22s8,3,12,2s9-10,12-14s7-2,14,0s15,9,12,19
				s-14,21-30,36s-15,16-29,11s-12-21-12-31c0-5.4-4.7-11.4-9-16.5c0,0,7,24.5-5,35.5c-5.9,5.5-16-1-35,1s-13.5,21.9-13.5,21.9
				c8.5-6.9,15.2-11.8,24.5-10.9c20,2,50,31,74,17s35-52,48-60c4.9-2.9,10.2-5.2,15.7-6.9c0,0-25.7-15.1-27.7-23.1s3.3-12,1.7-31.5"
				/>
			<path class="st4" d="M1328.2,483c-7.7,1.3-15.3,2.9-22.8,4.9"/>
			<path class="st4" d="M973,574.5c0,0,39,9,57,10s55,2,78-9c0,0,19-13,31-22s16-15,35-6s33,19,53,17s29-22,34-28s14-23,21-33
				s49.2-17.1,49.2-17.1"/>
			<path class="st4" d="M1305.5,488c0,0-32.5-17.5-30.5-27.8s1.7-23.5,1.7-23.5"/>
			<path class="st4" d="M1162.4,444.9c0,0,15.6-0.4,20.6-3.4s12-13,18.5-16"/>
			<path class="st4" d="M691,690.5c0,0,13-2,41,6s42,14,52,22s43,38,47,45s3,18-14,9s-60-40-76-45s-21-19-50-18s-43,4-43,4"/>
			<path class="st4" d="M642.2,718.1c0,0,39.8-3.6,59.8,2.4s59,25,71,36s4,13,0,17s-9,6-13,0s-36-28-45-31s-32-8-47-6
				s-44.5-1.5-44.5-1.5"/>
			<path class="st4" d="M618.7,739.7c0,0,48.3,6.8,62.3,8.8s38,8,44,10s21,10,12,16s-29-4-34,1s-15,14-24,12s-51-18-64-19
				s-15.3,0.5-19.7-4.8"/>
			<path class="st4" d="M616.3,741.8c0,0,49.7,7.7,56.7,8.7s36,7,40,8s17,3,23,10c0,0,3,5-6,5s-14-3-22-2c-1.9,0.2-3.8,0.7-5.6,1.4
				c0,0-0.4-8.4-23.4-10.4s-61-8-63-10s-7-1.8-7-3.4"/>
			<path class="st4" d="M597.5,761.3c2.5,4.8,9.5,4.2,15.5,3.2s27,5,38,10s28,9,31,10s9-3,13-6c1.6-1.2,4-1.8,4-3.5
				c0-6.5-6-6.5-11-8.5s-28-3-37-4s-33-5-36-7s-7.8-4.4-7.8-4.4"/>
			<path class="st4" d="M595,763.5c0,0-8,1-9,4s18,8,18,8s19,2,18,4s-20,1-20,1s-49-2-55-6c0,0,1-5,15-4s21-2,19-8s-18-7-7-15
				s47-10.8,47-10.8"/>
			<path class="st4" d="M1336.6,491.9c0,0-33.1,11.1-40.1,19.1s-28,44-34,49s-18,15-34,15s-55-21-66-18s-47,39-64,38s-58,7-74,2
				s-39.6-7.6-39.6-7.6"/>
			<path class="st4" d="M988,594c0,0,8,1.5,16,3.5s10,5,23,5c0,0-20,6-13,9s10,6,22,6s18.5-3,23.2,0.5c4.2,3.1-10,2.2-13.2,2.5
				c-11,1-18,4-19,9s7,7,7,7c21,3,19,4,19,4c0,4-16,3-16,3"/>
			<path class="st4" d="M1174,595.5c2.2-3.6,4.3-8.3,7.6-10.9s9.6-6.8,13.4-5.1c5.9,2.5,5.5,13,6.6,19.3c1.2,6.7,3.1,13.2,5.7,19.5
				c1.6,3.8,3.8,7.9,7.8,9.1c4.6,1.4,9.5-1.8,11.7-6.1s2.3-9.2,2.4-13.9s0.3-9.7,2.7-13.9s7.5-7.1,12-5.3c2.8,1.1,4.7,3.8,6.2,6.5
				c6.6,11.6,10.1,24.7,10.3,38c-0.1,1.6,0.1,3.3,0.8,4.8c2,3.8,7.5,3.3,11.7,2.1c5.8-1.6,11.9-3.5,15.7-8.1
				c5.6-6.8,4.1-17.1,0.4-25.2s-9.2-15.4-10.9-24.1c-0.8-3.8-0.7-7.8,1-11.2s5.7-5.8,9.4-5.1c3.6,0.7,6,3.9,7.9,7
				c5.6,9,9.4,19.1,14.7,28.3c1.4,2.4,3,4.8,5.3,6.4s5.6,1.9,7.8,0.2c1.4-1.3,2.3-3,2.6-4.8c2.2-8.6,0.1-17.8-2.9-26.2
				s-7.2-16.4-9.2-25.1s-1.7-18.5,3.5-25.7s16.2-10.7,23.4-5.5c2.2,1.5,3.8,3.6,5.7,5.4c4.4,4.1,10.1,6.5,16.1,6.8"/>
			<path class="st4" d="M1201.6,613.9c-3.4-6.6-4.6-24.4-5.6-27.4s-1-4-8-1s-11.5,10.9-11.5,10.9c4.3,8.4,7.8,17.1,10.5,26.1
				c4,14-2,13,8,19s5-13,5-21c0.1-4.6-1.3-9.2-4-13"/>
			<path class="st4" d="M1212.5,629.6c0,0,1.5,2.9,8.5,0.9s8-7,10-12s2-21,5-25c0,0,4-6,9-1s10,22,10,22s2,14,2,21s4,8,8,8
				s20-5,20-5s8-5,9-9s1-14-1-20s-14-24-13-29c0,0-3-8,5-11s18,23,18,23s5,14,13,18s11-2,12-3s3-11,1-20s-11-36-11-36s-3-13,1-19
				s6-11,16-10s9,10,23,12l5,1"/>
			<path class="st4" d="M1363,548.2c0,0-19-10.7-26-1.7s15,56,6,67s-25,4-32,16s52,13.5,52,13.5"/>
			<path class="st4" d="M1363.5,638.6c0,0-46.5-1.1-44.5-7.1s13-4,22-8s10-11,10-20s-16-42-10-53s22,3.8,22,3.8"/>
			<path class="st4" d="M1179.9,597.6c0,0,6.1,12.1,7.1,16.8s3,8.5,3,12.2s1.4,6.9,4,10.5c4,5.4,5-1.1,5-5.8s-1-12.2-1-15
				s-2.2-9.6-5.1-11.8"/>
			<path class="st4" d="M1204,617.5c0,0,3,19,7,22s10.4,1.8,10.4,1.8"/>
			<path class="st4" d="M1207.8,622.8c0,0,2.2,11.8,4.2,13.8s7,1.6,7,1.6"/>
			<path class="st4" d="M1159.9,595.6c-0.5-3-3.7-7-6.8-7.1c-3.1,0-6.2,1-8.8,2.7c-15.3,9.4-21.2,15.9-34.3,22.4
				s-31.5,10.1-46.2,10.7c-5.6,0.2-11.2-0.2-16.8,0.4s-9.2,0.8-13,4.9c-2,4.2,4.2,5.2,7.8,5.7c5.2,0.7,10.5,1,15.7,0.8
				c1.5,0,3.3,0,4.1,1.4s0,2.9-1,3.9c-4,4.4-13.7,4.8-19.7,4.9"/>
			<path class="st4" d="M1165,595c0,0-3-9.5-12-9.5s-14,5-28,15s-30,14-40,17c-4.1,1.2-10,1.8-16,2.1c0,0,0-6.1-16-6.1s-33,0-29-4
				s21.3-6,21.3-6c17.2-0.1,46-0.5,56.7-3c13-3,27-13,27-13s28-23,38-26s31,11,49,17s16,2,41-9s38-45,46-55s36.5-17.9,36.5-17.9"/>
			<path class="st4" d="M590.7,449.3c22.2-9,52.4-21.2,55.3-27.8c4-9-12-24-29-25c-14.1-0.8-23.4,4.5-30.2,14.4
				c0,0,26.2-6.4,27.2,1.6c0.5,3.7-11.5,12.2-17,20C590.7,441.4,590.7,449.3,590.7,449.3z"/>
			<path class="st4" d="M532.5,447c0,0,43.5-15.5,50.5-29.5c0,0,17-3,21-3s-10,13-13,20s-7,17.5-7,17.5c-5.4,2.2-9.9,4.1-13,5.5
				c-15,7-18.5,10.2-18.5,10.2"/>
			<path class="st4" d="M529,444.5c0,0,33-14,43-24s12-18.5,21.5-22.2s19.5-5.8,29.5-3.8s18.5,6,21.2,11.5s9.8,9.5,7.8,14.5
				s-20.4,16.8-34,22c-13,5-34,15-41,18c-5.9,2.5-16,4-22,10"/>
			<path class="st3" d="M649.1,506.3c3.5,3.7,8.2,6.8,13.3,9.9c0,0-0.4,14.2-20.4,27.2s-33.2-10.2-33.2-10.2
				c-0.9-4.3,1.6-12.1,5-20.4c0,0,9.2,11.6,14.2,8.6s7-13,12-15C642.9,505.3,646.1,505.2,649.1,506.3z"/>
			<path class="st3" d="M576,494.5c0,0,19,2.5,30-11.2s21-10.8,21-3.2c0,3.9-5.7,15.3-10.7,26.9c0,0,8.7,14.6,12.7,9.6
				s4.9-13.5,11-15c4-1,5.3-0.3,5.3-0.3c-2-3.8-2.7-8.3-1.3-13.7c6.1-24.5,32.9-39.8,30.2-54.6c0,0-23.2,12.6-41.2,20.6
				s-47,15-51,18s-12,8.3-10,18"/>
			<path class="st3" d="M693,606.5c0,0-8,2-25,2s-38-11-10-23c2.5-1.1,5-2.1,7.3-3.1c0,0,5.7-3.9,5.7-8.9s3-18-2-17s-17,11-22,13
				c-2.8,1.1-11.5,2.9-11.5,2.9"/>
			<path class="st3" d="M619,547.5c0,0,4,5,12,4s25-11,28-17s7-16,7-16l5.5,3.2c9,5.6,17.5,12,20.5,21.8c6.2,20-0.7,27-17,34.6
				c0,0,8-27.6-5-26.6s-27.3,19.7-38.2,14.8"/>
			<path class="st4" d="M723.5,572.4C697,585.5,681,587.5,674,592.5s3,7.5,33.5,0.8"/>
			<path class="st4" d="M551.2,562.5c-12.6,3.2-32.4,17.9-53.8,17.6s-9.6-31.8-28-37.7s-7.5-37.8-7.5-37.8s5-14,24-15s24-5,29,1
				s17,31,21,50c0,0,4,9-18,18c-10.4,4.2-19-4.5-19-4.5"/>
			<path class="st4" d="M551.2,562.5c9.3-4.7,3.7-17.9,0.9-23.7s-6.5-11.1-8.6-17.1c-2.9-8.2-10.8-17.3-13.2-25.7
				c-4.8-16.9-12.8-21.1-28.5-23.4c-7.6-1.1-16.6-5-23.7-1.9c-6.6,2.9-15.5,6.2-20.3,11.7c-5.7,6.6-6.9,18.3-8.9,27.1"/>
			<path class="st3" d="M449,509.5c-2.2,9.3-3.1,19.7-0.3,30.4c2.1,7.8,8.5,13.7,12.5,19.1c0,0,7.5,7.8,11,16.3s11.3,18.3,31,14.8
				s50.2-14.9,61-22.9s6.2-28.5-1.7-38.3c-8-10.3-15-21.3-21-32.9c-4.7-9.3-9.9-27.7-27.9-31.6s-39.7-6.2-51.3,2.9
				s-27.6,16-27.8,32.3c-0.2,16.3,1.5,20,2.8,33s19.1,56.5,31.5,63.5s32.1,9.6,45.8,6.2c0,0,35.4-8.9,56.4-20.9s11-40,8-53
				s-15.3-24.1-22.7-36.5S537,455.1,516,449.3s-40-5.8-56,4.2s-40,24.9-39,42.5c1,17.6,2,41.6,11.5,63.6"/>
			<path class="st3" d="M557.5,563.4c0,0-23.9,14.4-41.5,18.5s-28.1,1.9-28.1,1.9s-7.5-7.8-8.9-15.7s-3.1-17.7-7.6-20
				c-7.2-3.6-12.8-9.9-15.5-17.6c-3.9-10.5,3-27,3-27s1-12,23-16s23-6,29-4c6,2,9,7,13,15s17,33,16,44s-12,14-18,18s-16,3-20,0
				c-2.5-1.9-4.6-4-6.5-6.5"/>
			<path class="st4" d="M557.5,563.4c2.8-1.5,2.2-4,2.9-6.6c1.3-4.2,1-8.7-0.8-12.7c-3.9-8.3-11.2-15.8-13.5-24.7
				c-2.8-10.8-6.7-13-11.6-23c-4-8.2-7.7-19.3-15.6-23.7c-4.6-2.6-4.8-1.6-10-2.4s-8.8-2.4-16.5-3.9c-8.1-1.6-16.9,0.4-24.4,4
				s-14.2,9.2-17.9,16.7c-3,6.1-3.8,13-5.2,19.7c-2,9.7-3.2,17.2-2.3,27.1c1.1,12,8.6,19.8,15,27.8c4.5,2.9,7.9,7.4,9.4,12.6
				c2.5,8.7,6.7,15.1,15.5,18.6s21.5,1.3,37.1-2.5c15.6-3.8,42.9-15.7,42.9-15.7s6.7-2.2,11.2-11.1s-3.4-30.9-3.4-30.9
				S555.7,513,554,509.2s-7.2-13.7-11-22.8s-10.8-20.1-18.6-23.8s-39-8.4-50.7-5.3s-10.3,4.9-24,13.4s-18.7,20.6-20,24.8
				s4,39.9,4,39.9c2.5,12.9,6.5,25.5,11.7,37.6c8.4,18.8,23.4,29.4,29.1,32.5s30.1,3.8,41.9,1.8c16-4.6,31.6-10.5,46.6-17.7
				c25-12,21.7-17,23.8-33s-5.8-35-14.8-51s-13-17-20-30s-25-38-59-34s-29,6-46,16s-23,17-26,23s-9,22.5,3,68.7"/>
			<path class="st4" d="M412.5,538.5c0,0-10.5-37-4.5-58s32-32,41-39s35-16.7,70.5-6.9"/>
			<path class="st4" d="M479,623.5c0,0,29.7,3.7,46.3-1.7"/>
			<path class="st2" d="M485,628.5c0,0,24,0.7,34.5-1.2"/>
			<path class="st4" d="M579.2,498c6.5,0.7,13-0.5,18.8-3.5c10-5,16-15.5,21-13.8s-15.6,35.2-14.3,47.5c0,0,8.3,36.2,7.3,47.2
				s-12.5,20.2-12.5,20.2s-2.5,9.8,0.5,16.8s2,13-1,18s-3,5-3,8s4,10,6,10s-2-13,0-15s11-7,12-9s14.5-19.1,14.5-19.1"/>
			<path class="st4" d="M609,533.5c0,0,10,35,8,43s-12.3,20.9-12.3,20.9"/>
			<path class="st4" d="M396,525.5c0,0-10-31,0-52s19-24,31-37s33-18,55-17s25.2,4,25.2,4"/>
			<path class="st4" d="M390,521.5c0,0-8-23-2-45s23-33,29-40s14-17,32-21s48.5-1,48.5-1s17.5,4,30.5,3s34-7,50-21
				c10-8.8,19.3-18.3,27.8-28.5"/>
			<path class="st4" d="M372.8,512c0,0-0.8-34.5,11.2-62.5s17-32,37-39s33-15,42-14s20.5,5.7,20.5,5.7"/>
			<path class="st2" d="M622,551.8c0,0,5,20.8,4,28.8s-8.7,20-8.7,20"/>
			<path class="st2" d="M623,603.5c0,0,9-15,9-22s-2.5-19-2.5-19"/>
			<path class="st2" d="M491.6,634.3c0,0,15.6,1.5,19.5,0.9"/>
			<path class="st4" d="M497.5,638.5l9.5,0.1c0,0,14,7.9,26,5.9s15-14.8,15-14.8"/>
			<path class="st4" d="M363.8,507.5c0,0,3.8-59,22-80.5s27.2-25.5,38.2-29.5s30-6.5,48-5.2"/>
			<path class="st4" d="M358,505c0,0,2-42.5,18-71.5s32-36,47-40s43-5.5,43-5.5c13,3.9,26.5,6.2,40.1,6.7c0,0,4.5,15.8-15.3,14.3
				c0,0-18.8-8.5-30.8-6.5s-24,8-39,14s-24,13-35,45s-6,53-6,53c-12,13,30,78,20,102s-38.2,32-38.2,32c-12.7-4.7-26.7-11.2-28.8-17
				c-0.7-2-0.9-4.1-0.6-6.2c0,0,7.6,8.2,23.6,2.2s14-35,14-35s-7-27-22-43s-14-12-12-23s5.2-26,5.2-26"/>
			<path class="st4" d="M453.8,378.7c0,0-30.8-0.2-51.8,11.8c-20.3,11.6-28,21-41,60s-11.6,52.6-11.6,52.6"/>
			<path class="st4" d="M446.2,374c-4.2,0.5-25.2-1.5-44.2,11.5s-30,23-34,32s-22,57.5-22.5,69.8s-1.5,14.2-1.5,14.2"/>
			<path class="st4" d="M432,368.5c0,0-40-6-63,25c-19.2,25.9-39.7,64.1-39.8,87l2,18"/>
			<path class="st4" d="M424,365.5c0,0-31-4.9-52,16.8c-22,22.8-49.7,73.4-49.8,96.6L324,498"/>
			<path class="st4" d="M306,497.5c0,0,0-30,10-54s14-28,20-39s20.2-37.5,44.6-43.2"/>
			<path class="st4" d="M0,348.8c0,0,32.5-3.3,44-6.3"/>
			<path class="st4" d="M299,498.5c0,0,5-61,16-83s29.5-42,45.2-52.5"/>
			<path class="st4" d="M351.1,365c0,0-25.1,22.5-37.1,43.5s-17,68-17,68l-2,23"/>
			<path class="st4" d="M284,501.5c0,0-6-44,0-62s11-26,15-35s23.2-30.5,23.2-30.5"/>
			<path class="st4" d="M301.8,383.3c0,0-16.8,20.2-22.8,45.2s-4,37-5,46s5,28,5,28"/>
			<path class="st4" d="M274,504.5c0,0-5-22-5-32s3-37,7-49s17.2-35.5,17.2-35.5"/>
			<path class="st4" d="M279.8,396.4c0,0-21.8,33.1-20.8,66.1s7.5,43.8,7.5,43.8"/>
			<path class="st2" d="M250.2,512c0,0-9.2-25.5-5.2-44.5s9.7-51.8,9.7-51.8"/>
			<path class="st4" d="M249,420.5c0,0-5,34-11,51s8,42.3,8,42.3"/>
			<path class="st4" d="M236.5,432.5c0,0-7.5,33-6.5,47s8,37.2,8,37.2s13-1.2,19-4.2s4.3-5,4.3-5s-8.3-25-6.3-45
				c2-20-0.5-27.6,16.3-60.3"/>
			<path class="st4" d="M229.9,439.8c0,0-5.9,28.8-4.9,41.8s9,37.2,9,37.2"/>
			<path class="st2" d="M218,451.5c0,0-3,32,0,46c1.9,8.6,4.8,17,8.6,25"/>
			<path class="st4" d="M214.1,455.8c0,0-4.1,27.8-1.1,41.8c2.2,9.2,5.5,18.1,10,26.5"/>
			<path class="st4" d="M204.5,466c0,0-3.5,28.5,0,41c2.3,7.9,5.6,15.4,10,22.3"/>
			<path class="st4" d="M200.1,471.7c0,0-4.8,23.9-1.3,36c3.5,12.1,11.6,22.9,11.6,22.9s51.7-2,69.7-12s9-18,9-18s-7-47,2-66
				s19-38,26-47s20-19,20-19"/>
			<path class="st2" d="M190,482.5c0,0-1,23,2,32s8.2,22.2,8.2,22.2"/>
			<path class="st2" d="M184.8,488.9c0,0,0.2,20.6,2.2,27.6s9,23.1,9,23.1"/>
			<path class="st4" d="M165.8,511.3c0.8,7.8,7.2,23.2,7.2,23.2s3.1,13.4-2.5,22.7"/>
			<path class="st4" d="M162.8,514.3c0.7,5.3,2.1,10.4,4.2,15.2c0,0,5.8,24.2-2,32"/>
			<path class="st4" d="M680,694.5c-9.8-1.2-25.8-0.6-35,3c-9.5,3.8-13.8,8.5-23,13s-19.7,9.5-29.3,6.2c-5.3-1.8-33.7-9.2-52.7-9.2
				c-6.5,0.1-13.1,1.1-19.4,2.8c0,0-10.6,14.2-5.6,21.2c5,7,24,10,49,3s69-14.5,75.5-14.2c0,0,38.5-0.8,48.5,1.2s13,2,22,6
				s45,22,45,22s18,9,18,15c0,0,2,3-2,6s-9-3-9-3s-21-15-29-20s-24-11-33-13s-24-2-39-2s-33.7-1.1-33.7-1.1"/>
			<path class="st4" d="M316,497.5c-19,22-14.4,39.8-14.4,39.8c8.1,2,13,4.9,22.4,12.2c14,11,20,26,19,45
				c-0.5,10.4-4.7,17.2-7.7,23.1c0,0,24.7,19.9,28.7-12.1s-26-56-32-66s2.5-40,2.5-40"/>
			<path class="st4" d="M179,495.5c-0.6,5.3-0.6,10.7,0,16c1,9,12,31,12,31s75-11,95-8c2.6,0.4,5,0.8,7.1,1.1
				c0,0,6.4-30.6,17.7-37.9c0,0-1.4-32.2,18.4-68.2s28.9-59.5,62.4-68.2"/>
			<path class="st4" d="M385,518.2c-8,4.7,8,37.3,13,54.3s12,28,6,49s-33.5,30.1-33.5,30.1c7.2,2.4,12.5,3.9,12.5,3.9
				c3.4,1.8,6.5,4,9.4,6.5c0,0,23.6-11.5,25.6-36.5s-12-73-12-81s0.3-11.8,0.3-11.8s-13.3-40.2-2.3-57.2s28-29,38-38
				s47.3-17,70.2-9.5"/>
			<path class="st4" d="M413,538.5c-4,7,1,25,5,44s6,47,1,61S396.9,667,396.9,667c3.8,5.2,5.8,11.9,1.1,19.5c0,0,47-23,46-54
				s-5-62-5-62"/>
			<path class="st4" d="M430,700.5c-4.3,10.8,0.3,18.5,7.5,22.1c0,0-11.5,9.9-16.5,15.9s-19.8,18.9-19.8,18.9
				c-19.8,0.3-64.7,3.9-75.2,2.1c-12-2-25.8-9.3-19-12c20-8,59-6.5,63-8c8-3,10-7,4-10c-1.5-0.8-5.2-1.6-9.6-2.5
				c0,0,10.9-4.6,41.8-4.5"/>
			<path class="st4" d="M442.8,724.4c1.3,0.3,2.7,0.4,4,0.4c3.6,0.1,7.7,0,11.8-0.2c0,0,2.4,13.9,5.4,21.9s14.8,22.2,14.8,22.2
				c-2.3-0.3-4.5-0.7-6.8-1.2c-12-3-51-9-64-10c0,0,14-13,18-17S442.8,724.4,442.8,724.4z"/>
			<path class="st4" d="M484.9,769.4c14.7,1.3,34.1,1.1,37.1-1.9c4-4-20-11-33-25s-8.3-19.9-8.3-19.9c-4.1,0.7-9.7,1.3-15.5,1.7
				c0,0-1.2,14.2,6.8,26.2S484.9,769.4,484.9,769.4z"/>
			<path class="st4" d="M654.2,709.4c13.2-3.1,48.8-3.9,54.8-2.9s26,11,29,14s14,6,18,8s42,26,43,27s25,15,27,15s2-3,0-7
				s-51-49-61-53s-40-10-49-14s-29.9-5.2-29.9-5.2s-25.1-0.8-38.1,2.2s-37,18-43,20c-4.8,1.6-25.7-3.2-40.5-7.3
				c0,0,12.5-13.7,11.5-23.7s-1-17-11-20s-38,0-50-4c-7.1-2.4-14.1-5.3-20.8-8.7"/>
			<path class="st4" d="M434,696.5c0,0-8,21,7,22s34-1,34-1s21-5,36-11s31-7,44-3l3,0.9c0,0,17-14.9,12-29.9s-42-8-56-12
				c-8.4-2.4-16.7-5.3-24.8-8.7"/>
			<path class="st4" d="M699,688.5c0,0-34-5.9-60,2.1s-24-8-19-16s42,3,40-9s-30-13-29-30s19.6-17.9,19.6-17.9"/>
			<path class="st4" d="M708,687.5c0,0-26-5-36-5s-22,2-39,6s-12-9-12-9s0-5,15-4s19,0,23-2c2.4-1.2,4.2-3.4,5-6c0,0-1-6-5-10
				c-1.5-1.3-3.1-2.4-4.9-3.3c0,0,11.9-2.7,25.9,5.6c1.8,1.1,1.4,4.2,2,6.7c3,13,39,20.1,39,20.1"/>
			<path class="st4" d="M666.5,628.6c0,0-14.5,9.9-3.5,14.9c7.4,3.4,12.1,6.7,15.3,12.5c0,0-15.3-8.5-27.8-3.8
				c-2.5,0.3-11.9-5.9-12.5-7.7c-1-3-6-8-1-14s7-7,12-8c2.6-0.6,5.3-0.8,8-0.7"/>
			<path class="st2" d="M668,630.5c0,0-7,3-6,8s5,2,13,10s7,10,8,12s1.4,5.6,3,8c2,3,16.4,15.2,42.2,17.1"/>
			<path class="st4" d="M675.8,635.9c0,0-4.8-0.4,3.2,9.6s12,13,15,21s27,11.6,27,11.6"/>
			<path class="st4" d="M717.5,674.5c0,0-15.5-2-18.5-7s-12-17-16-21s-6.5-7.2-4.7-8.6"/>
			<path class="st4" d="M439.8,691.5c0,0-4.8,23,16.2,21s49-17,63-19s22,1,32-3s-1-22-26-21s-43-2-46-8.5"/>
			<path class="st4" d="M476,663.2c0,0,2,4.3,9,6.3s31,3,36,3s18-1,26,6s0,8,0,8s-22,2-27,3s-19,5-25,8s-35,17-45,10
				s-4.6-20.7-4.6-20.7"/>
			<path class="st4" d="M449.8,683.2c0,0,2.2,16.3,19.2,14.3s25-9,32-11s9-7,4-8s-26-1-29-4s-4.5-8.1-4.5-8.1"/>
			<path class="st4" d="M453,680.5c0,0,2,13,13,13c9,0,27-7,30-9s7-3-3-4s-17,0-19-3c-1.8-3-3.5-6.1-5-9.2"/>
			<path class="st4" d="M499.4,645.5c-0.4,0,14.6,11,34.6,10s42-3,47,3s-5,38,0,42s17,6,25,0s0-18,5-26s22-10,31-11s-6-12-10-14
				s-9-14-6-21s16.7-15.7,16.7-15.7"/>
			<path class="st4" d="M471.5,615.8c0.2-0.3,9.1,4.7,26,3.7c16.8-1,39.8-7.5,39.8-7.5s4.9,7.3,9,14.6c0,0-4.3,12.9-12.3,13.9
				s-12.6-3.2-14-6c-2-4,1.3-8.9,1.3-8.9"/>
			<path class="st4" d="M502.8,642.6c0,0,16.2,9.9,27.2,8.9s21-6,22-11c0.4-2-1.2-5.8-4-11"/>
			<path class="st4" d="M543.5,607c0,0-24.8,6.1-43,8.4s-35.3-7.1-35.3-7.1"/>
			<path class="st4" d="M540.2,609.5c0,0,15.8,24,15.8,28s0,9-5,12h12c0,0,8,0,11,1s10,1,11,8c0,0,0,17-1,25s-3,15,5,17s15,0,16-5
				s-1-15,1-19s5-10,14-12s19-3,19-4s-2-4-8-8s-11-12-10-17c0.2-1.7,0.5-3.4,1-5c0,0,5-9,10-13s7.9-6.3,7.9-6.3"/>
			<path class="st4" d="M551.2,602.5c13.2,14,20.8,34,19.8,38s1,4,1,4s3,2,7-2l10-14c0,0,6-13,0-17s-5-4-5-8s5.5-9.2,5.5-9.2"/>
			<path class="st4" d="M554.7,600.5c0,0,13.3,17,15.3,23s4,16,5,17s22-23,10-29s2-18,2-18s18-9,19-18s0-16-3-26s-17-44-17-44"/>
			<path class="st4" d="M510,635.5c0,0,5,4,9,5c0,0-5.2-8.6-2.1-10.8"/>
			<path class="st4" d="M596.2,595.2c0,0-3.2,15.3,1.8,21.3s-9,19-5,24s5,12,10,11s-1-15,3-18s9-5,13-10s12.8-16.5,12.8-16.5"/>
			<path class="st4" d="M635.5,723.9c0,0-57.5,9.6-64.5,12.6s-44,11-56,3s0-27.6,0-27.6"/>
			<path class="st4" d="M217.4,527.2c0,0,36.6-1.7,51.6-8.7s14-7,16-11s-2.2-5.8-2.2-5.8"/>
			<path class="st4" d="M231,520.5c0,0,26-3,33-7s6.3-8.5,6.3-8.5"/>
			<path class="st4" d="M141.7,606.5c5.9,2.5,11.4,5.9,16.3,10c26.9,21.8,7,33-3,39c-3.5,2.1-10.2,4.1-17.7,6.1
				c0,0-13.3-18.1-7.3-34.1S141.7,606.5,141.7,606.5z"/>
			<path class="st4" d="M127.6,599.7c2.4,0,4.7,0.3,7,0.9c0,0,24.5-35,42.5-38c19.8-3.3,60-5,84-2c24.5,3.1,39,7,41,26
				c0.9,8.4-1,22.1,1,35c1.8,10.6,4.8,21,9,31c7-5,4-10,1-17s-2-23,0-33s8-19-4-33s-38-15-49-18s-86,3.1-86,3.1"/>
			<path class="st4" d="M302,661c2.5-1.7,4.8-3.5,7-5.5c0,0-10-30-11-41s3.5-23.3-4-35c-9-14-42-14-54-16s-46,0-64,5
				s-34.5,34-34.5,34c3.5,1.2,6.9,2.8,10.2,4.5c0,0,12.3-30.5,51.3-31.5s66-2,75,7S302,661,302,661z"/>
			<path class="st4" d="M231,604.5c3-3,12,0,18,6s12,21,20,37s12,17,12,17c5.8,2.3,11.2,1.5,16-0.7c0,0-10-74.3-30-81.3s-61-3-84,2
				c-13.1,2.5-23.2,13-25.1,26.2c5.3,3.4,9.9,7.9,13.4,13.2c0,0,6.7-27.4,31.7-30.4S231,604.5,231,604.5z"/>
			<path class="st4" d="M231.6,645.5c-2.2-8.1-4.1-16.7-4.6-22c-0.5-5.6,1.7-9.7,1.5-12.7c-0.5-9.7-11.5-11.3-11.5-11.3s-4-3-22,3
				S175,633,175,633c0.5,2.5,0.5,5,0,7.5c-0.5,2.8-1.5,5.5-3.1,7.9c0,0,12.1,4.1,18.1-9.9s13-17,19-17s10,3,13,8L231.6,645.5z"/>
			<path class="st4" d="M245,670.5c-5-6.2-7.2-13.3-13-18c-4-3.4-7.4-7.5-10-12c0,0-8-15-16-13s-14,22-23,25
				c-5.4,1.8-11.2,2.4-16.9,1.8c-6.9,5-16.8,7.7-26.6,10.2c14.3,9.3,31.8,12.6,48.5,9.1C216,667.5,245,670.5,245,670.5z"/>
			<path class="st4" d="M257.8,683.1c2.6,1.7,5.4,2.8,8.5,3.2c0,0-2.2,14.2-0.2,23.2s-21.8,21.4-21.8,21.4c-2.1-1-4.2-2.1-6.2-3.4
				c-15-10-19-20-25-23c-3.2-1.6-8.2-5.9-16.1-8.8c0,0,15.1-3.2,22.1-2.2s19,4,28,1C252.3,692.8,256.3,688.5,257.8,683.1z"/>
			<path class="st4" d="M175.7,692.8c5.6-0.4,11.2,0,16.6,1.4c0,0,16.8-7.7,39.8-3.7s22.6-9.7,22.6-9.7c-2-1.7-3.9-3.5-5.6-5.5
				c0,0-14-0.8-32-0.8s-13,5-41,6s-44.6-14.1-44.6-14.1c-5.3,1.2-10.4,2.9-15.4,5.1c-3.9,1.7-7.3,4.5-9.7,8"/>
			<path class="st4" d="M250.9,733.5c14.5,4.8,31.6,5.5,36.1,4c6-2,10-6,13-11s-2-9,5-18s23-14,37-20s16-14,16-14c-7-9-21-5-26-5
				s-38,13-53,16c-2.3,0.5-4.6,0.8-6.9,1c0,0-4.1,10-0.1,26c0,0,1,5-7,11S250.9,733.5,250.9,733.5z"/>
			<path class="st4" d="M103.6,686.3c0.4-2.4,1.3-4.7,2.6-6.8"/>
			<path class="st4" d="M175.7,692.8c-1.8,0.1-3.7,0.3-5.7,0.7c-25,4-34,12-45,11s-17-2-20-6c-1.5-3.9-2-8.1-1.4-12.2"/>
			<path class="st4" d="M445,581.2c0,0,4,43.3,4,56.3s-9,26-21,37s-35.7,18.4-35.7,18.4c-5.2,4.4-12.3,8.2-19.8,11.4
				c0,0,34.5,7.2,59.5-13.8s35.6-54.6,57.3-58.3"/>
			<path class="st2" d="M130.2,503.1c0,0,40.2-10.2,57-17.4"/>
			<path class="st4" d="M-0.5,533.7c58,22.7,51,99.3,51,99.3c-4.1-1.6-8.2-3.3-12.3-4.9c0,0-0.2-52.6-18.2-65.6
				s-20.5-11.8-20.5-11.8"/>
			<path class="st4" d="M-0.5,556.5c0,0,9.5-0.8,22.5,16c14,18,11,53,11,53c-5.4-2.2-10.8-4.2-15.6-6c0,0,2.6-40.3-17.9-45.6"/>
			<path class="st4" d="M-0.5,612.8c0,0,5.1,1.8,12.6,4.7c0,0-0.1-32-12.6-37.5"/>
			<path class="st4" d="M-0.5,527.2c0,0,34.5,6.3,46.5,45.3s11,63,11,63s25,8,33,5s-28-27-24-57s22-20,40-32s-25.6-76.3-25.6-76.3"
				/>
			<path class="st4" d="M62.3,466c0,0,39.7,49.5,22.7,67.5s-36-6-50-11s-35.5-9.8-35.5-9.8"/>
			<path class="st4" d="M-0.5,505c0,0,34.5,7.5,44.5,16.5s22,17,33,12s2-32,2-32l-24.1-39.1"/>
			<path class="st2" d="M-0.5,489.9c0,0,28.4,7.3,42.5,8.6c11,1,15-3,13-13c-1.9-9.7-6-22-18-32"/>
			<path class="st2" d="M-0.5,482.5c0,0,35.5,10.7,44.5,8c10-3-3-23-3-23c-3.7-7.3-9.2-13.6-15.9-18.3"/>
			<path class="st2" d="M-0.5,472.3c0,0,18.5,5.2,25.5,0.2S13.1,447,13.1,447"/>
			<path class="st2" d="M-0.5,466c0,0,9.5,4.5,16.5,1.5S5.8,447,5.8,447"/>
			<path class="st2" d="M107.8,631.3c0,0-15.8-23.8-10.8-36.8s38-30,36-48s-12.4-49-12.4-49"/>
			<path class="st4" d="M127.6,501.5c0,0,13.4,41,10.4,53s-32,32-36,43c-3.1,8.5,8.6,29.8,8.6,29.8c-5.4,15.8,6.3,40,6.3,40
				c4.5-1.4,9.4-2.8,14.3-4c0,0-9.2-17.7-9.2-25.7c0-14,13.8-32.8,13.8-32.8c-7.6-1.8-11.8-0.2-11.8-0.2"/>
			<path class="st4" d="M142.4,511.3c0,0,19.6,40.2,0.6,70.2"/>
			<path class="st4" d="M148.4,515.4c0,0,12.6,39.1,1.6,59.1"/>
			<path class="st4" d="M8.6,365.8c0,0,12.4,68.7,53.4,71.7s51,32,97,20s71-62,71-62"/>
			<path class="st4" d="M13,363c0,0,9,47.5,31,62.5s16,2,38,10s26,19,54,20s50-17,59-26s33-38,33-38"/>
			<path class="st4" d="M-0.5,381.3c0,0,2.5,44.2,19.5,54.2c0,0,30,11,58,25s59,21,80,16s75.2-57.7,81.1-73.4"/>
			<path class="st4" d="M-0.5,414.3c0,0,4.5,17.2,13.5,23.2s34,11,47,20s46,23,64,25s33,1,45-4s40-32,40-32s29.9-30.5,32.9-39.2"/>
			<path class="st4" d="M21.8,355.3c0,0,15.2,46.2,36.2,52.2s19,2,43,2s21,30,41,28s72.1-62.7,72.1-62.7"/>
			<path class="st4" d="M26.5,352c0,0,19.5,42.5,28.5,47.5s40,3,52,4s21,28,31,29s26-11,43-28c10.6-10.7,20.5-21.9,29.8-33.8"/>
			<path class="st4" d="M45.5,341.1c0,0,14.5,31.4,28.5,35.4s25,4,44,3s21,5,32,4s20-6,24-11c3.4-4,6.4-8.4,9-13
				c2.4-4.2,4-8.8,4.9-13.5c0,0,40.1-9.5,56.1-19.5s36-17,36-17"/>
			<path class="st4" d="M0,343.8c0,0,44.4-2.9,59-8.2c0,0,2,19,19,26s41,2,59,4s36-16,37.4-28.9"/>
			<path class="st4" d="M63.9,333.1c0,0,3.1,7.4,6.1,14.4s11,11,26,12s38-2,44,0s16-3,23-9s9-16,9-16"/>
			<path class="st4" d="M82.2,328c0,0,3.8,12.5,28.8,13.5s27-1,35-4c4.6-1.6,7.7-5.8,7.8-10.6"/>
			<path class="st4" d="M0,308.9c0,0,25.2,5.7,64.2,0.8c4.3,2.6,8.9,4.5,13.8,5.8c8,2,12,1,13,5s-3,6-3,6s5,11,26,11s31-4,33-6
				c1.4-1.6,2.4-3.4,3.1-5.4"/>
			<path class="st4" d="M41,343.4c0,0,17,47.1,60,42.1s31.5,10,57.7,2.5s33.5-37,33.5-37s28.8-9.5,45.8-16.5s46-22.7,46-22.7
				c5.2,3.1,10.3,6.5,15.2,10.2c0,0-52.6,50-81.9,56.8"/>
			<path class="st4" d="M221,383.3c26-2.2,82-58.5,82-58.5c4.5,3.4,8.6,6.9,12.7,10.2c0,0-44.8,64-79.7,65.7"/>
			<path class="st4" d="M240.3,405.5c32.3,1,78.8-67.7,78.8-67.7c5.5,4.6,10.7,8.9,15.8,12.5c0,0-11.4,21.4-23.1,27.7"/>
			<path class="st4" d="M366.7,362.4c-9.6,0.3-18.2-3.1-26.7-8.4c0,0-7.1,14.9-15.1,18.7"/>
			<path class="st4" d="M180,339.5c0,0,62-51,100-30"/>
			<path class="st4" d="M289.7,257.2c0,0,5.3,2.3,8.3,16.3s-0.3,40.8-0.3,40.8c5.4,3.6,10.1,7.1,14.4,10.5c0,0,14.9-13.3,14.9-39.3
				c0,0,0-13-5-20"/>
			<path class="st4" d="M326.2,267.6c0,0,5.8,3.9,3.8,24.9c-1.4,12.9-6.3,25.1-14.3,35.2c4.2,3.5,8,6.9,11.5,9.9
				c0,0,24.5-33.6,22.2-53.4"/>
			<path class="st4" d="M353,288c3,15.5-22.1,52.9-22.1,52.9c5.2,4.4,10,8.1,15,10.6c2.3,1.1,4.8,2,7.4,2.6c0,0,18.7-29.9,19.2-41.7
				"/>
			<path class="st4" d="M285.1,257.2c15,9.7,8.2,54.2,8.2,54.2c-17.1-11-19.2-13.3-30.4-12.5c0,0-3.6-28.4-15.8-30.4"/>
			<path class="st4" d="M186,331.1c0,0,33-27.6,61-30.6c4.4-0.5,7.9-0.9,10.9-1.2c0,0-4.1-22.8-14-28.3"/>
			<path class="st4" d="M584.7,344.4c-6.5,10.4-14.5,19.9-23.7,28.1c0.5-7.7,0.2-15.4-1-23c-1.9-12.2-14-21-13-24s7-4,7-4"/>
			<path class="st4" d="M459,309.5c-5,4-9,11-11,21c-1.8,8.8,15,16,18.2,23.7S452.8,366,452.8,366c11.8,2.8,23.1,5.5,31.2,7.5
				c28,7,42-5,39-17s-57-18.3-52-30.2s21-17.8,38-19.8"/>
			<path class="st4" d="M519,308.5c0,0-37,5-41,15s16,12,27,16s20,6,22,15s1,17-11,22s-23,3-52-4s-77.6-17.2-77.6-17.2
				s-14.4,1.7-27.5-0.1c0,0,14.7-25.2,17.9-36.4"/>
			<path class="st4" d="M451,312.5c0,0-9,14-7,23s20,15,19,20s-16.8,8.9-16.8,8.9c-27-6.4-54.6-12.7-54.6-12.7"/>
			<path class="st4" d="M401.6,343c0,0,17.4,10.5,31.4,5.5s-3-20-1-27"/>
			<path class="st4" d="M405,339.3c0,0,11,8.2,24,6.2s2-12,1-15c-0.7-2.2-1.1-4.4-1.4-6.6"/>
			<path class="st4" d="M548,318.5c0,0-5,0-5,6s6,10,10,19s1.8,33.6,1.8,33.6c-8.3,6.7-17.6,12.1-26.8,13.4c-28,4-69.2-8.2-69.2-8.2
				"/>
			<path class="st2" d="M543,422.5c0,0-22.8,6.4-28.4,7.7"/>
			<path class="st2" d="M533,430.5c0,0-8.8,2.4-14.4,3.7"/>
			<path class="st4" d="M616.7,381.7c0,0,2.3-15.2,102.3-6.2c0,0,58,9,69,2s15.6-12.1,13-24"/>
			<path class="st4" d="M613.6,377.1c0,0-1.6-2.6,15.4-6.6s62-3,87,0s61,9,69,4s10-10,11-16s-1-14-1-14"/>
			<path class="st4" d="M594,353.5c0,0,6,3,16,3s70-8,118-17s62-2,62-2s20-12,28-8c4.6,2,7.4,6.7,7.2,11.7"/>
			<path class="st3" d="M786,331.5c0,0-18-5-61,3s-98,20-116,18s-21-5-21-5s-26,41-58,46c-5.9,0.9-11.9,1.3-17.8,1.4
				c0,0,1.8,10.6-4.2,14.6c0,0,25,7,43-2s49.4-36.3,51-45"/>
			<path class="st2" d="M577.5,337.1c0,0-2.5-9.6,10.5-11.6s77-1,105-6s69.3-10.7,74.2-15.8"/>
			<path class="st4" d="M573.7,334.9c0,0-0.7-5.4,5.3-10.4s50-4,50-4s52-3,73-7s54-7.5,62-14.2"/>
			<path class="st4" d="M741,275.5c0,0-4,13-100,28c-36.2,5.7-48.3,12.7-73.2,9.3"/>
			<path class="st4" d="M572.2,308.6c0,0,3.8,2.9,20.8-0.1s54.2-9.8,79-15c66-14,64-22,64-22"/>
			<path class="st4" d="M591,292.5c0,0,78.1-6.3,94-11c37-11,13-27,13-27"/>
			<path class="st4" d="M598,286.5c0,0,59.3-3.5,77-7c30-6,26-20,12-26c0,0-18-1-36,14c0,0-25.1,16.3-35,6"/>
			<path class="st4" d="M481.8,213.5c0,0,42.2-58,82.2-56s103,96,103,96c-6.5,2.2-12.6,5.6-18,10c-5,4-15,7-20,9s-8.6-2.6-8.6-2.6"
				/>
			<path class="st4" d="M693,393.5c0,0,28-4,42-4s38,0,42,4c2.3,2.3,2.8,5.9,1.3,8.7"/>
			<path class="st2" d="M499.8,261.5c0,0,13.2,6,18.2,24s21,29,21,29"/>
			<path class="st6" d="M548,318.5c0,0-16-12-22-23l-0.5-0.9c0,0,8.5,5.9,18.5,3.9s5-26,0-35s-21.2-24-24.6-27"/>
			<path class="st4" d="M449.2,313c-0.1-2.1,0-4.1,0.4-6.1c0,0,36.4-42.4,46.4-46.4l6.3-3.1c0,0,6.7,3.1,11.7,12.1
				c4.2,7.5,5.6,12.9,9.4,20.9c0,0,11.6,8.1,19.6,5.1s0-26,0-26s-12-18-17-22s-9.6-7.8-9.6-7.8"/>
			<path class="st2" d="M577.8,303.7c0,0,6.2-21.2,4.2-33.2s0-18,0-18"/>
			<path class="st2" d="M581.4,300.4c0,0,3.6-12.9,3.6-21.9s-2.6-17.3-0.3-21.1"/>
			<path class="st4" d="M572,308.5c0,0-15,3-13-10s4-38,0-47s5.4-18.8,5.4-18.8"/>
			<path class="st4" d="M575.1,306c0,0-10.1,1.5-11.1-2.5s2-22,2-30s-2.7-21.1-4-25c-1-3,1-6,1-6l4.8-7.4"/>
			<path class="st4" d="M492.4,274.7c0,0,26.5,19.3,28.6,33.8"/>
			<path class="st2" d="M490.9,279c0,0,19.4,15.9,23.1,21.5c4,6,3.8,7.7,3.8,7.7"/>
			<path class="st2" d="M482,298.5c0,0,9,6,10,7"/>
			<path class="st2" d="M483,295.5c0,0,11.5,8.4,15,10"/>
			<path class="st4" d="M116.9,168.4c0,0,6.4,7.5,12.7,16.2c0,0,12.4,10.9,35.4-0.1s25-4,31,1s15.1,15.5,15.1,15.5
				c2.8-1.4,6.2-2.3,10.9-5.4c9-6,11.4-15,9.2-21.5c0,0-14.2-22.5-50.2-16.5s-50.1-2.4-50.1-2.4"/>
			<path class="st4" d="M234.9,276.4c0,0,2.1-13.9,0.1-21.9s-1-13-10-23s-18-12-17-18s7-10,16-13s11.9-19.9,11.9-19.9"/>
			<path class="st2" d="M248.4,202.3c0,0-13.6,26.7,9.5,59.9"/>
			<path class="st2" d="M251.8,209.1c0,0-5.8,9.4-0.8,27.4s11.8,24.5,11.8,24.5"/>
			<path class="st4" d="M134.7,152.1c10.8,4.6,22.8,5.8,34.3,3.4c19-4,37.1-5.6,49.1,3.7"/>
			<path class="st3" d="M178.8,247.3c0,0-11.8-4.8-13.8,10.3c-1.3,9.5-13.3,14.2-22,16.3c0,0,14,5.7,14,13.7c-0.2,5.2-1.5,10.4-4,15
				c0,0,13,0,27-15s17.8-23.2,17.8-23.2"/>
			<path class="st3" d="M0,256.5c0,0,73,23,134,19c0,0,23,6,17,19s-15,13-21,11s-21-6-33-5s-38,6-51,6s-46-2.8-46-2.8"/>
			<path class="st4" d="M909.2,283.2c0,0-43.2-103.7-108.2-100.7S703.5,256,703.5,256"/>
			<path class="st4" d="M1150.5,406c0,0,42.5-58.5,80.5-72.5s64,2,91,15s39.5,40.2,39.5,40.2"/>
			<path class="st4" d="M94.2,122.9c0,0,43.8-49.4,121.8-50.4c66.5-0.8,114.1,87.9,114.1,87.9"/>
			<path class="st4" d="M527.8,168.7c0,0-18.2-34.8-36.9-62.9C479.7,89,471.5,73.3,458,72.5c-36-2-70.2,86.8-70.2,86.8"/>
			<path class="st4" d="M1070,316.5c0,0,37-80,86-81s96.5,92.9,96.5,92.9"/>
			<path class="st4" d="M1228.5,289.5c0,0,53.5-57,134-57"/>
			<path class="st4" d="M497,196.2c0,0,3,7.3,17,12.3s42,2,62-4s41.6-12,41.6-12s29.4-61,100.4-61s96.2,51.7,96.2,51.7"/>
			<path class="st4" d="M777.8,186.8c0,0,26.5,14.1,55.2,17.8c24,3,31.2,9,31.2,9s52.8-89,105.8-82s126.2,142.9,126.2,142.9"/>
			<path class="st4" d="M1073.4,236c0,0,69.6-107.5,124.6-107.5s122,109.2,122,109.2"/>
			<path class="st4" d="M564,157.5c0,0,54-108,117-100s85.7,83.4,85.7,83.4"/>
			<path class="st4" d="M622.4,80.1c0,0-55.4-96.6-99.4-86.6s-90.7,89.9-90.7,89.9S393,42.5,346,45.5S272,93,272,93"/>
			<path class="st4" d="M1198,128.5c0,0,86-110,122-77s85,40,85,40"/>
			<path class="st4" d="M745.5,99c0,0,40.5-29.5,72.5-35.5c12.7-2.4,44,1.4,64,20c25.8,24,39.2,64.5,39.2,64.5"/>
			<path class="st4" d="M165.3,80c0,0-36.3-86.5-44.3-95.5s-73-16-85-5s-51,105-51,105"/>
			<path class="st4" d="M346,45.5c0,0-39-78-74-79S146.5,36.3,146.5,36.3"/>
			<path class="st4" d="M591.5,36c0,0,65.5-70.5,120.5-71.5S844.5,65,844.5,65"/>
		</g>
	</g>
</g>
<path class="st3" d="M168.9,239.5c-10.1,6-9.9,6-10.9,13c-0.9,6,1,15-33,17c-11.4,0.7-33.5,1-52.4-2.6c0,0,38.4-9.4,44.4-31.4
	s-5.2-33.5-5.2-33.5"/>
<path class="st3" d="M0,248.3c0,0,32.1,10.2,64.7,17c0,0,41.3-11.8,48.3-31.8S99.2,196,99.2,196"/>
<path class="st3" d="M0,229.5c0,0,29,9,59-2s29.5-31,25.8-37"/>
<path class="st3" d="M0,222.5c0,0,19,7,31,3s-2-16-16-20S0,196,0,196"/>
<path class="st3" d="M0,190.5c0,0,8,11,26,15s16,18,16,18s13,2,24-6s15-12,15-19s-5.8-11.8-5.8-11.8"/>
<path class="st3" d="M201.8,267.6c0,0-14.8,32.9-50.8,40.9s-34-7-78,0c0,0,30.8,5.1,22,16"/>
<path class="st2" d="M158.8,328.3c0,0,16.2-0.8,27.2-11.8s30-22,30-22"/>
<path class="st2" d="M165.3,331.5c6.2-1.4,12.2-3.8,17.7-7c8-5,14.7-15.7,23.8-20.8"/>
<path class="st2" d="M506,252.5c-47-101-147-105-193-87c-29.2,11.4-67,32-67,32"/>
<path class="st3" d="M458.5,190.5c0,0-13.7,20.7-66,16.9c0,0-68.6-34.3-36.1-50.1"/>
<path class="st7" d="M302,170c0,0,8,25.5,74,35.5c2.6,0.4,5.1,0.7,7.6,1c3.7,0.4-38.6-14-40.6-36c0,0-1.6-5.4,4.7-12.7"/>
<path class="st4" d="M296.6,172.4c0,0,5.4,19.1,33.4,26.1s56,52,55,101c0,0-1.3,14-3.2,27.5"/>
<path class="st3" d="M262,231.5c-10.2-32.2,24.4-31.4,24.4-31.4c11,3.2,23,8.3,33.6,16.4c3.6,2.8,7,5.9,10.1,9.3
	c0,0-43.1-19.3-48.1,30.7"/>
<path class="st4" d="M385,332.5c2.4-11.2,3.7-22.7,4-34.2c0,0,16-38.8,39-58.8s48.9-31.6,48.9-31.6"/>
<path class="st3" d="M474.1,204.8c-20.1,7.7-34,16.4-46.1,27.7l9.4-22.6c18.5-5.5,26-15.4,26-15.4"/>
<path class="st3" d="M423.2,237.2c-25.9,25.3-34.2,52.3-34.2,52.3c-4-67-35-83-35-83s19,7,57,7c7.2,0,14.3-0.7,21.3-2.3L423.2,237.2
	z"/>
<path class="st4" d="M257.8,191.3c0,0,65.7-0.7,94.2,56.2c21,42,14.2,56.2,14.2,56.2"/>
<path class="st4" d="M362.5,298.3c0.2-4-0.3-8-1.5-11.8c0,0-7.8-31.4-26.2-55c0,0-21.8-7.4-32.8-3.2s-9,26.2-9,26.2"/>
<path class="st4" d="M251.8,194.5c0,0,4.5-1.7,20.2,2c0,0-17.5,4-15.8,22"/>
<rect x="268.5" y="229" class="st5" width="38.5" height="32"/>
<path class="st2" d="M307,245c0,0,34.8-1.3,38.9,35.6"/>
<path class="st2" d="M307,250.6c0,0,16-2,23,8s8.6,7.3,10.8,18.1"/>
<path class="st2" d="M391.5,345c0,0,9.5-52.5,37.5-81.5s58.9-42.1,58.9-42.1"/>
<path class="st3" d="M393.5,348.5c0,0,11.5-44,24.5-62s27-30,42-41c0,0-42,57-44.5,86"/>
<path class="st2" d="M419.4,329c1.4-18.5,46.6-86.5,48.6-89.5s22-15.1,22-15.1"/>
<path class="st4" d="M367.2,157.3c0,0-12.2,8.2,3.8,20.2s41,23,61,17s15-12.3,15-12.3"/>
<path class="st4" d="M371.7,157.8c0,0-6.7,7.7,8.3,18.7s33,19,47,15s15.8-12,15.8-12"/>
<path class="st4" d="M496.1,233.8c0,0-52.6,42.7-51.3,81.2"/>
<path class="st3" d="M506,252.5c-24,5-54.5,48.3-54.5,48.3c2.6-6.3,7.1-13.5,12.5-24.2c9-18,34.4-38.8,34.4-38.8s7,5.8,15.8,3.8"/>
<path class="st4" d="M0,72c0,0,79,9.5,122.5,90"/>
<path class="st4" d="M535,165.3c0,0,10.5,20.8,51.8,1.5"/>
<path class="st4" d="M530.8,167.5c0,0,2.2,8,16.2,11s44.8-8.4,44.8-8.4"/>
<path class="st4" d="M520,174.9c0,0,2,18.6,27,17.6s53.5-15.8,53.5-15.8"/>
<path class="st4" d="M515.5,178c0,0,1.1,8.2,10.5,16.5c9,8,42,0,42,0l37.2-14"/>
<path class="st4" d="M501.2,191c0,0,0.8,12.5,25.8,15.5s86-18.5,86-18.5"/>
<path class="st4" d="M487.9,204.9c0,0,5.1,17.6,26.1,17.6s68-12,82-12s31.5-7.2,31.5-7.2"/>
<path class="st4" d="M485.2,209.3c3.1,6.9,8.7,12.4,15.8,15.2c12,5,68-5,76-6s31-3,43-6c3.9-1.3,7.8-2.8,11.5-4.6"/>
<path class="st2" d="M494.8,231.7c0,0,9.9,8.2,23.1,6"/>
<path class="st4" d="M566.4,234.1c0,0,60.1-5.1,71.8-18.9"/>
<path class="st4" d="M570.1,237.7c0,0,31.9-2.2,49.9-9.2s20.2-10.9,20.2-10.9"/>
<path class="st4" d="M580,249.6c0,0,25-0.1,44-8.1s22-16.1,22-16.1"/>
<path class="st4" d="M583.1,254.4c14.9,0.1,29.6-3.3,42.9-9.9c22-11,22-16.8,22-16.8"/>
<path class="st2" d="M588.4,264.3c0,0,28.6-1.8,44.6-9.8s21.6-18.4,21.6-18.4"/>
<path class="st4" d="M590.5,269.2c0,0,29.5-2.7,44.5-10.7s21.8-19.5,21.8-19.5"/>
<path class="st2" d="M596,282.5c4.7-0.6,9.2-2.2,13.2-4.8"/>
<path class="st2" d="M664.8,250.2c-1,1.8-2.6,3.2-4.5,3.9"/>
<path class="st2" d="M863,306.5c0,0-29-30-78-34c0,0,6-9,2-22s-23-35.5-48.5-41.2"/>
<path class="st4" d="M712.2,241.1c0,0,22.1,25.6,67.7,30.9c0,0,18.1-33.7-44.9-59.1"/>
<path class="st4" d="M709.8,245c11.8,11.1,25.9,19.5,41.2,24.5c25,8,55,9,59,13s-8.2,38.5-50.1,11.2"/>
<path class="st4" d="M766.1,301.6c0,0,8.9,7.9,24.9,6.9s22-15,22-15s1-8,4-8s30,10.5,43,23.8"/>
<path class="st4" d="M780.2,321.8c0,0,38.8-22,65.8-1.7"/>
<path class="st4" d="M843,323.5c0,0-16-10-32-7c-9.8,1.9-19.4,4.6-28.7,8.3"/>
<path class="st2" d="M793.3,341.7c0,0,14.7-9.2,19.7-7.2s6,1,6,7s-1.2,7.8-1.2,7.8"/>
<path class="st2" d="M871.8,300.6c0,0-29.8-31.1-52.8-40.1s-10-34-10-34s-45-25.5-55-28.3"/>
<path class="st2" d="M758.7,194.6c0,0,45.1,23,52.3,25.9c5,2,10-3,25-4s48.8,29,61.9,44.5"/>
<path class="st4" d="M875.4,298.4c0,0-29.4-34.1-47.4-40.9c-16-6-22-18-15-27s20.9-9.7,27-8c18,5,62,45.7,62,45.7"/>
<path class="st4" d="M784.9,184.8c0,0,29.1,13.8,48.1,15.8s23.9,5.6,23.9,5.6"/>
</svg>
