<?xml version="1.0" encoding="utf-8"?>
<!-- Generator: Adobe Illustrator 23.0.1, SVG Export Plug-In . SVG Version: 6.00 Build 0)  -->
<svg version="1.1" id="Layer_1" xmlns="http://www.w3.org/2000/svg" xmlns:xlink="http://www.w3.org/1999/xlink" x="0px" y="0px"
	 viewBox="0 0 1363 840" style="enable-background:new 0 0 1363 840;" xml:space="preserve">
<style type="text/css">
	.st0{fill:#C1E8C5;}
	.st1{fill:none;}
	.st2{fill:#C1E8C5;stroke:#000000;stroke-miterlimit:10;}
	.st3{fill:none;stroke:#000000;stroke-miterlimit:10;}
	.st4{fill:none;stroke:#000000;stroke-linejoin:round;}
	.st5{fill:#C1E8C5;stroke:#000000;stroke-linejoin:round;}
	.st6{fill:none;stroke:#000000;stroke-linecap:round;stroke-linejoin:round;}
</style>
<title>landscape-05</title>
<rect class="st0" width="1363" height="840"/>
<polyline class="st1" points="0,4.4 0,0 6.1,0 "/>
<polyline class="st1" points="6.1,0 23.2,0 28.3,0 33,0 45.8,0 50.8,0 1363,0 1363,839 0,839 0,4.4 "/>
<path class="st2" d="M63.5,270.3c-0.1-32.6,57.1-132.2,104.2-132.7c69.9-0.7,89.5,91.8,110.8,125.5"/>
<path class="st3" d="M73.1,235.9c0,0,7.4,13.6,9.4,12.6c0,0-2-8,9-17s15-22,15-27s-3.6-19.6-3.6-19.6"/>
<path class="st4" d="M210.4,224.5c1.5,1.4,7.1,3.2,5,4.4c-4.1,2.3-13.9,2.7-35.9,3.7s-16.2,16.3-16.2,16.3
	c-15.8,1-33.2,3.5-34.8-0.3c-2-5,6-15,6-15s11-18,8-29c-1.1-4-1.9-6-6-12c0,0,3,3,14,1s28-12,36-10s19.8,20.6,19.8,20.6
	c-0.6,0.8-1.2,1.6-1.8,2.4c-1.3,1.9-1.8,4.2-1.5,6.4c0,0-49.5-5.4-60.5,14.6s4,3,4,3s5-10,24-12c11.2-1.2,22.5-1.7,33.8-1.6
	C205.9,219.7,208,222.3,210.4,224.5"/>
<path class="st4" d="M216.5,293.5c0,0,1-17-4-29s-18-15-35-16c-2.1-0.1-4.4-0.1-6.8-0.1c0,0-3.2-5.9,1.8-7.9s29-1,38-3s11-4,11-4
	c15,11,9,47,9,47"/>
<path class="st4" d="M174.5,254.5c0,0,20-2,30,7s7,32,7,32"/>
<path class="st4" d="M106.6,180.1c0,0,8.9,22.4-0.1,38.4s-24,24-19,31s16,8,23,16c1.2,1.4,2,3,2.6,4.8c0,0,10.4,6.2,16.4,1.2
	s6.8-13.7,6.8-13.7c-8.5-0.1-14.4-1.5-14.8-6.3c-1-14,21-30,16-44s-23.6-36.2-23.6-36.2"/>
<path class="st2" d="M-0.5,185.9c0,0,75.2-43.6,214.1,91.5S-0.5,394.3-0.5,394.3"/>
<path class="st0" d="M269.7,440.6c-50.5,0-117.6-3.4-117.7-32.8c-0.1-19,18.1-56.7,43.1-89.6c29.8-39.2,61.6-61.9,87.2-62.1h1
	c66.4,0,96.5,62.4,118.4,108c6.9,14.3,12.9,26.7,19,35.6c1.4,1.9,1.6,4.5,0.4,6.5c-8.8,16.8-84,34-121.1,34.1c-3.3,0-6.9,0-10.9,0.1
	C283.4,440.5,276.7,440.6,269.7,440.6z"/>
<path d="M283.4,255.5v1c29.2,0,53.9,11.9,75.3,36.5c18.5,21.2,31.3,47.8,42.6,71.3c6.9,14.3,12.9,26.7,19.1,35.7
	c1.3,1.7,1.4,4.1,0.3,6c-8.7,16.6-83.7,33.7-120.7,33.9c-3.3,0-6.9,0-10.9,0.1c-5.9,0-12.5,0.1-19.5,0.1c-21.4,0-52.8-0.5-77.2-5.3
	c-26.5-5.1-39.9-14.2-40-27c-0.1-18.6,18.4-57,43-89.3c29.7-39.1,61.4-61.7,86.8-61.9h1L283.4,255.5 M283.3,255.5h-1
	c-59.1,0.6-130.9,114.8-130.8,152.2c0.1,30.2,69.3,33.3,118.2,33.3c11.7,0,22.2-0.2,30.4-0.2c42.4-0.1,134.3-22.4,121.1-41.5
	C394.7,360.9,370.3,255.4,283.3,255.5L283.3,255.5z"/>
<path class="st0" d="M535,383.7c-29.1,0-67.9-3-68-28.5c-0.1-30.9,40-131,74.1-131.4h0.5c37.8,0,55.1,54.2,67.7,93.7
	c4,12.4,7.4,23.1,10.9,30.9c1.2,2.6,0.8,5.4-1,8.3c-4,6.2-14.8,12.9-29.7,18.5c-13.6,5.1-28.2,8.3-38.1,8.3l-6.2,0.1
	C542.2,383.7,538.7,383.7,535,383.7z"/>
<path d="M541.7,223.3v1c37.4,0,54.6,54,67.2,93.4c4,12.4,7.4,23.2,11,31c1.1,2.5,0.8,5-1,7.9c-3.9,6.1-14.6,12.8-29.4,18.3
	c-13.6,5.1-28.1,8.2-37.9,8.3l-6.2,0.1c-3.1,0-6.6,0.1-10.3,0.1c-28.9,0-67.4-2.9-67.5-28c-0.1-16.5,10.2-49,24.5-77.5
	c16.9-33.8,34.8-53.2,49.1-53.4h0.5L541.7,223.3 M541.7,223.3h-0.5c-33.8,0.4-74.7,99.5-74.6,131.9c0.1,26.5,40.4,29,68.5,29
	c6.3,0,12.1-0.1,16.5-0.1c24.3-0.1,76.7-19.3,69.2-35.8C605.5,314.8,591.4,223.3,541.7,223.3L541.7,223.3z"/>
<path class="st2" d="M773.7,410.6c46.5,1.7,81.4,0.8,69.3-9.6c-57-49-71-128-139-146c-68.8-18.2-114,41-152,70
	c-24.9,19,14.9,80,86,80c33.1,0,85,3.6,128.6,5.3c0,0,12.9-1.8,8.9-12.8s-75-2.1-75-2.1"/>
<path class="st0" d="M467.9,495.4c-64.3,0-149.8-3.5-149.9-33.9c-0.1-19.7,23.2-58.8,55.3-92.9c38.3-40.7,79.2-64.2,112.1-64.5h1.5
	c85.2,0,123.7,64.7,151.9,112c8.8,14.8,16.5,27.6,24.4,36.9c1.5,1.5,1.9,3.8,1,5.8c-8,17.5-107.3,36.3-156.1,36.5
	c-4.2,0-8.9,0-13.9,0.1C486.3,495.4,477.4,495.4,467.9,495.4z"/>
<path d="M486.9,304.5c37.6,0,69.3,12.4,96.8,37.9c23.7,22,40.2,49.5,54.7,73.9c8.8,14.8,16.5,27.7,24.5,37c1.4,1.4,1.8,3.5,0.9,5.2
	c-8,17.4-106.9,36-155.6,36.2c-4.2,0-8.9,0-13.9,0.1c-7.9,0.1-16.8,0.1-26.2,0.1c-27.3,0-67.3-0.6-98.5-5.5
	c-33.7-5.4-50.8-14.7-50.9-27.9c0-9.3,5.4-23.6,15.4-40.4c10.1-17.1,24.2-35.6,39.8-52.2c17.4-18.5,36-34,54-45
	c20.8-12.7,40.2-19.2,57.8-19.4L486.9,304.5 M486.9,303.6h-1.5c-75.9,0.6-168.1,119.2-167.9,158c0.1,31.1,87.7,34.4,150.4,34.4
	c15.5,0,29.4-0.2,40.2-0.2c54.5-0.2,172.3-23.4,155.5-43.1C629.6,412.8,598.3,303.6,486.9,303.6L486.9,303.6z"/>
<path class="st2" d="M880.5,295c0,0,9,9.5,19,12.5s34,5,40,5s13,1,24,3s32.6,1.9,32.6,1.9c4.1,4.2,5.4,6,7.6,8.6
	c0,0,12.7,13.7,15.8,18.5c8,12.4,20,41,22,53c1,6-2,8-1,17s14,41,14,50s-3,6-6,23s17,30,17,30c-35.7,4.9-71.6,7.6-107.6,7.8
	C838,525.7,704,489.2,740.5,450.9C791,398,837.1,275.8,957,275.4s197,124.6,217.7,174c13.6,32.5-34,55.3-102.9,66.9
	c0,0-28.3-18.8-16.3-39.8s-13-55-9-71c2.2-8.9-9.9-41.1-23-63c0,0-26-38-60.2-54.2c0,0-19.8-8.8-29.8-10.8"/>
<path class="st2" d="M582.5,553.2c-56.5-9.4-98-13.6-98-42.6c0-38.6,71-127.6,158.5-127.6s192,101.4,192,140
	c0,11.8-10.4,22.3-27.2,30.5"/>
<path class="st2" d="M921.5,279.5c30,3,61.3,25.7,70,34c0,0-20,1-36-3s-52-3-59-8s-12.3-9.3-12.3-9.3"/>
<path class="st2" d="M1363.7,522c-48.1-53.2-73.8-100-140.9-100c-71.1,0-118.3,90.5-145.3,116.5c0,0-12,12-26,14s-19,0-21-2
	s5-4.2,16-6c24-4,27-3,27-3"/>
<path class="st2" d="M0,374.8c7.2-8.3,16.9-16.7,28.5-24.2c28.5-18.5,63.3-29.2,95.3-29.2c47.5,0,67.6,24.6,93,55.8
	c12.2,15,26.1,32,44.9,48.1c2.4,1.8,3.2,5,1.9,7.7c-4.3,11.6-34.1,29.7-76,46c-43.3,17-88,27.5-116.5,27.5c-30.8,0-56.1-15-71-41.5"
	/>
<path class="st2" d="M140,560.9c0-25.3,34.1-60.5,66.5-97.4C252.1,411.6,309,360,389.5,360c53.7,0,77.9,26.3,115,59.5
	c58.1,52,117.4,124,137.5,162.5"/>
<path class="st2" d="M655.5,627.5c9-11,37.9-16.1,51-33c12.3-15.9,32.6-45.3,49-61c28.5-27.3,122.9-52.7,158-23
	c59,50,81,104,134,139c3.8,2.7,8.3,4.5,13,5"/>
<path class="st2" d="M1129.9,683.4c1.4-0.5,2.9-1.1,4.6-1.9c9-4,27-5,35-9"/>
<path class="st2" d="M1019,680.3c0,0,16.5-15.8,28.5-14.8s12,2,19,7s-7,13-13,17c0,0,0,4,7,3c9-1.3,15-10,30-7s29.5,16,38.3,12
	c4.5-2.1-8.7-4.6-8.3-7c0.6-2.8,2.1-4,4.9-5.3c0,0,5.1-0.7-11.9-5.7s-24,3-39-9c0,0-7-4-3-10s6-7,6-7s-14-7,1-15s16.2-8,27-8
	c5,0,12-5,12-5"/>
<path class="st3" d="M1070.5,741.5c-4-2-8-9-8-9c-7.5-15.5-36.4-63.5-77.9-63.5s-67.6,46-75.1,60.5c-4.3,8.3,8.8,13,22.9,17.2
	c13.5,4,31.9,8.9,52.2,8.9c17.3,0,54.9,7,68.9,5c10.8-1.5,17.5-1.2,24,1c0,0,10-8,39-14s43-6,53-16s1-15-4-18s-9-6-26-12
	c0,0-0.8-0.2-2.1-0.7l-3.9-1.3c0,0-6,3-15,1c-8.3-1.8-21.3-10.1-28-12c-7-2-15,1-25,6s-15-2-15-2c-3.2,2.5-6.6,4.8-10.1,6.9"/>
<path class="st2" d="M0,446.2c12.3-1.4,24.9,0.4,37.5,6.4c66.7,31.8,116,60.1,149.4,92.5"/>
<path class="st2" d="M0.5,660.5c4.4-0.2,6.4-0.5,10.1-0.8l17.6-30c-9.5-4.1-19-7.3-28.2-9.9"/>
<path class="st2" d="M15.9,659.4c48.7-4.9,33.8-20.3,33.8-20.3c-4.2-1.5-8.2-3.2-12.2-5.1c-1.4-0.7-2.8-1.3-4.2-2L15.9,659.4z"/>
<path class="st2" d="M-0.1,675.1c3.6-3.3,16.2-11.9,16.2-11.9c24.3-2.5,68.2-7,75.3-7.7"/>
<path class="st2" d="M85.6,662.2c0,0-8.1,2.3-26.1,13.3c-2.2,1.4-7.4,5.8-6.1,4.1c0.1-0.1-46.9,2.7-53.4,0.2"/>
<path class="st2" d="M99.2,646.2c-13.7,0.7-27.5-0.8-40.8-4.3c1.3,3.2,0.9,6.8-1.1,9.6c0,0,28.7,1,37.9,0"/>
<path class="st2" d="M1103,648c15.5-22.5,28-53.7,60.8-53.7s38.2,20.7,52.8,39.2c0.4,0.5,9,12,12,14"/>
<path class="st3" d="M186.3,753.7c29.7,3,59.2,4.8,59.2,4.8s51.6,4,53.8-8c1.3-7,4.5-13.1,41.2-15c58-3-4-10-11-12s-27-3,20-18
	s51-27,40-40s-83-12-59-52s-13-73-49-75s-95,7-95,7s-11-22-12-31c-0.6-4.9-0.6-9.9,0-14.8"/>
<path class="st3" d="M186.3,753.7l-1.3-0.1c0,0,14.6-9,24.6-10s20-3,26-4c4.3-0.9,8.4-2.4,12.3-4.5c23.4,9.4,43.3,5.9,51.7-2.5
	c10-10-3-19,17-29s58-26,40-36s-33,4-76,14s-55-72-46-74s17,13,17,13c8,14,20,40,20,40c13,20,54-5,48-20s-5-28-1-47s0-36-37-44
	s-103.6,1.6-103.6,1.6"/>
<path class="st3" d="M49.5,699.5c2,10,24,18,54,19c58.1,1.9,90-3,92,6s-83,18-49,24c8.5,1.5,18.8,2.9,29.7,4.1
	c0,0,21.3-12.1,38.3-14.1c9.7-1.1,19.3-2.9,28.7-5.5c-2.9-1.3-5.7-2.8-8.7-4.5c-22-15-24-35-63-32c-9,1-56,22-69,4
	c-1.4-3.1-2.3-6.4-2.8-9.7C99.7,690.7,68.5,699.5,49.5,699.5z"/>
<path class="st3" d="M91,479.6l15.7,24.9c0,0,13.7,31,7.7,45s-24,14-34,19s-8,10-9,22s26,46,26,46l8-0.1
	c-0.1,18.9,7.9,31.2,7.9,31.2c-5,1.8-9,7.7-10.9,9.9s-3,7-3,7.8c-12,6.8-51,9.2-51,9.2c0-11,26-23,26-23c36-27,32.9-52.1,66-88
	c36.4-39.5,116.6-87,176-87c49.6,0,105,38,123,73c25.7,50,64.2,72.1,88,89"/>
<path class="st2" d="M379.5,745.5c17.4-11.6,54-55,105-89c36.1-24.1,59.3-63.6,96.2-63.6c78,0,149.8,97.6,191.8,137.6"/>
<path class="st2" d="M851.5,761.5c-17.3-9.8-33.5-49.2-62-60c-21-8-48.6-16-72-16c-55.4,0-100,56-125,80c0,0,4,5,18,7s30,5,22,9
	s-22,3-37,2s-67-4-58-11c0,0,5-6,27-6c0,0,10,1,11-3s-16-4-13-11s13-14,35-17s29-4,29-4"/>
<path class="st4" d="M965.5,672.5c0,0-8,5-2,7s17,5,27,3s18.3-3,20.7-7"/>
<path class="st4" d="M956.5,676.5c0,0-2,1,0,3s10,7,22,7s22.3-1,27.7-3c3.2-1.2,6.1-3.3,8.3-6"/>
<path class="st3" d="M1169.5,672.5c0,0,29-7,27-14s-9-5-16-15s-7-43-17-49"/>
<path class="st3" d="M827,734.8c14.5,4.3,1.5,1.7,22.5,6.7s55.3-3.7,55.3-3.7c2.3,3.3,6.8,7.5,15.7,10.7c9.8,3.5,20.6,5.6,33.2,7.2
	c0,0,0.8,6.8-15.2,5.8s-23-13-42-13s-28.8,2.7-20,10c12,10-12,12-24,10c0,0-4,1-13-10s-31-41-55-54s-52-18-52-18"/>
<path class="st4" d="M-0.1,684.7c18.5,0,49.3-1.7,49.3-1.7c-8.7,8-9.3,15.3-4.7,21.4c6,8,26,17,49,19s79,0,86,3s-23,6-37,9
	s-24,9-14,15s29.1,6.3,106,12c67,5,69.6-6.5,69.6-6.5c2.3,1.8,4.8,3.3,7.4,4.5c14,7,69,2,91,2s46,8,99,12s18-17,0-28
	s-16-27.1-16-27.1c11.2-2.8,20.8-6.2,30-8.9"/>
<path class="st4" d="M0,664.9c0,0,2.3-0.4,9-1.1c0,0-4.3,2.6-9.1,6"/>
<path class="st3" d="M1363.4,772.8c-25.1,8.8-116.7,31.7-158.9,24.7c-17.8-2.9-76-2-109-3s-26-8-13-15s2-11,2-11
	c-13.5-7.1-38-4-38-4c-14,1-35-4-62-6c-8.6-0.6-16.5-1.3-23.9-2c0,0,0.9,7-9.1,8s-18,2-33-5s-15-8-27-7s-11,4-11,4s6,4,5,7
	s-2,10-23,9s-19-5-23-9s-33-40-49-51c-11.8-8-25.1-13.8-39-17c-18-4-17.8-9-47-9"/>
<path class="st3" d="M1167.5,594.4c4-0.1,4,2.1,7,9.1s6,31,6,31c2,14,24,19,19,27s-27,14-27,14c-14,6-32,6-42,12s9.1,8.4,36,21
	c32,15,7,36-30,40s-53,15-53,15c1.8,0.8,5.8,3.4,7,4c6,3,7,7-6,14c-15,8.1-4,7,4,9s77.1-0.6,105,2c42.4,3.9,87.7,0.1,169.5-25.9"/>
<path class="st3" d="M1064.5,735.6c0,0-21,8.9-35,10.9s-25,7-35,4s-69-9-75-14s-8-10-8-10c-8.5,2.2-9,6-9,6s-1,3-18,4s-23,4-36,0
	c0,0-12-1-16-3s2-4,9-4s29,4,40,1s10-7,15-9s3-5-23-2s-46-3-61-2"/>
<path class="st3" d="M1155.5,595c4.8,4.3,8,10.1,9,16.5c2,11,2,21,4,27s8,9-6,6s-8-9-10-16s-7.7-22.3-13.3-27.2"/>
<path class="st3" d="M1152.7,595.6c3.1,2.7,5.4,6.1,6.8,9.9c2,6,3,13,4,21s1,11,2,13s6,5-8,0c0,0-3,0-1-6c0,0,1-3-3-13
	s-7.6-17.1-10.8-21"/>
<path class="st3" d="M815.5,720.5c5.3,0.7,10.7,1,16,1c9.1,0,26,4,45,0s16,0,12,2s-7,5-14,5s-36-3-41-1s-6.8,2.1-7.9,5.6"/>
<path class="st3" d="M434.5,695.5c-3.6,2-10.6,6.5-15,8c-31.7,11.2-51.2,1.7-51.2,1.7c-15.3,6.1-30.6,10.1-32.8,12.3s8.9,4.6,20,6.7
	c0,0,19.1-10.6,56.5-8.2"/>
<path class="st3" d="M494.5,634.5c-12,2-25,17-29,23c-2.1,3.2-4.4,12.4-12,22"/>
<path class="st4" d="M944.5,684.5c0,0,1,8,49,12c0,0,20-2,26-6s6-5,6-5"/>
<path class="st4" d="M941.5,686.5c0,0,1,5,9,9c8.5,4.2,26,7,42,6s21-5,27-6s10-7,10-7"/>
<path class="st4" d="M934.1,694.1c0,0-1.6,9.4,25.4,12.4s36,5,47,4s26.8-14.8,27.4-17.9"/>
<path class="st4" d="M930.8,697.8c0,0-3.2,3.8,6.8,8.8s22,5,32,7s34,4,40,2s22-10.8,27.5-19.9"/>
<path class="st4" d="M917.3,716.3c0,0,14.2,11.2,39.2,14.2s30,7,45,6s22-9,36-10s16-10,16-10"/>
<path class="st4" d="M1056.4,721.5c0,0,2.1,7-7.9,9s-17,2-25,6s-33,6-41,4s-28-5-35-6s-29.2-12.5-32.1-15.2"/>
<path class="st4" d="M1062.5,732.5c0,0,1,2-12,5c-17,3.9-42,13-55,10s-70-9-76-16s-6.4-8.4-6.4-8.4"/>
<path class="st3" d="M1134.6,605.1c0,0,10.9,15.4,9.9,27.4s-3,10-6,8s-3-7-9-13s-6.7-9.7-6.7-9.7"/>
<path class="st3" d="M1132.2,607.2c0,0,7.3,9.3,8.3,16.3s2,13,0,14s-3-6-8-11c-3.2-3.2-5.9-6.8-8.1-10.8"/>
<path class="st3" d="M1114.3,630c0,0,5.2-0.5,13.2,7.5s15,7,25,12s6,12-11,13c0,0-14-2-27-4s-25,3-34-2c0,0-22,13,16,18
	c0,0,27.5,2.5,34,9"/>
<path class="st3" d="M1113,632.2c0,0,8.5,5.2,13.5,10.2s16,6,18,8s9,2,9,5s-9.2,3.7-15,3c-8-1-14-5-31-4s-19,4-26-2c0,0-16-10,13-16
	c0,0,15-3,20-6"/>
<path class="st4" d="M621.5,384.8c32,10.3,36,23.7,50,40.7c0,0-38,20-54,28s-47.8,10.8-50,29"/>
<path class="st4" d="M700.5,600.7c0,0-20.9,1.8-27,1.8c-7,0-23-3-21-8s23-11,30-15s15-11,17-16s7-18-13-39c0,0-23-14-29-19
	s-12-12-7-19s4-12,15-26s19-19,15-32s-14-19-18-26S644.5,388,629,383.8"/>
<path class="st2" d="M1002,671.8c0,0-8.5-27.3,23.5-39.3"/>
<path class="st3" d="M996.4,670.3c0,0-7.2-25.3,25-41.6"/>
<path class="st3" d="M1022.5,682.5c0,0,9-9,18-11s22-1,22,6c0,2.2-20,15-24,19"/>
<path class="st3" d="M1014.8,622.4c0,0-7.3,7.1-39.3,27.1s-64,31-95,16s-30,12-12,15s66.2-0.5,75-4c10-4,29.2-6.2,29.2-6.2"/>
<path class="st3" d="M1009.9,617.3c0,0-11.4,13.2-21.4,19.2s-47,28-60,29s-22,6-35-1s-38-13-41-4s-3,21,11,24s60.2,3.6,74-1
	c12-4,19-7,19-7"/>
<path class="st3" d="M937.6,690.5c-1.1,1-33.1,6-42.1,5s-33,2-45-12s-45-2-57,3s-26-7,15-22s41-29,65-20s41,17,62,8s39-17,48-24
	s18.5-19.8,18.5-19.8"/>
<path class="st3" d="M998.3,604.4c0,0-11.8,17.1-22.8,24.1s-49,27-60,24s-43.2-19.1-60-16c-11,2-18,11-31,16s-44,14-49,25
	c-4.6,10.2-8,17,9,15s28-13,47-11s14,16,37,18s32,0,40,0s23.3-3,23.3-3"/>
<path class="st4" d="M781.5,698.5c0,0,33,5,47,5s22.2,4.9,52,7c28,2,34-4,44.2-4.5c0,0-4.2,6.5,26.8,12.5s46,7,61,3
	s28-11.7,31.5-17.8"/>
<path class="st4" d="M794.4,703.7c0,0,13.1,1.8,24.1,3.8s22,2,35,5s29,2,55,0c0,0,8-1,12.5-1.7c0,0-1.5,3.7,20.5,7.7s36,12,53,12
	s43.7-14,52.8-22.5"/>
<path class="st2" d="M762.6,692.6c0,0-23.1-18.1-0.1-31.1s40-12,59-19s19-25,45-30s25,21,51,23s57-33,17-41s-40-29-82-9
	c0,0-80,39-100,32s-35,0-46-23"/>
<path class="st3" d="M691.8,648c4.2-2.8,17.9-2.6,32.6-2c0,0-9.8,10.5-7.8,16.5c0,0,5,11,32,14"/>
<path class="st3" d="M748.3,673.9c0.1-6.9,5.7-11.9,12.2-18.4c9-9,62-18,68-22s4-13,25-22s33-2,38,0s20,16,31,18s15-4,22-9
	s3-11,3-16s-6-6-23-9s-24-10-33-14s-20,0-32,5s-62,27-75,34s-28,5-39,1c0,0-17,12,10,12s21-7,35-7s-11,18-28,20
	c-7.1,0.8-19.3,0.3-31.7-0.3c0,0-8.3,7.3-10.3,12.3s17,14,28,15"/>
<path class="st3" d="M755.5,690.5l-5-8c-1-2-1.8-4.1-2.1-6.4"/>
<path class="st3" d="M703.2,598.3c0,0,2.3,13.2,12.3,16.2c7.2,2.2,13.8,2.8,21,4.4l3,0.6c0,0-9,5-6,9s2,11,22,9s28-7,29-5
	s-14,9-19,9s-17,3-36-1s-41.8,4.1-41.8,4.1"/>
<path class="st3" d="M973.7,574.3c0,0-17.2,32.2-9.2,38.2s28.8-14.2,28.8-14.2"/>
<path class="st3" d="M975.5,577.1c0,0-6,13.4-7,20.4s-3,8-1,11s23.2-12.9,23.2-12.9"/>
<path class="st2" d="M689.5,608.5c0,0,17.5,8.1,20,17c2,7-14,5-22,6c-4.6,0.6-9.3,0.9-14,1"/>
<path class="st2" d="M685.4,610.6c0,0,13,5.9,15,9.9s4.1,2,4.1,5s-12.3,1-19.5,2s-15,2.4-15,2.4"/>
<path class="st3" d="M958.5,555.5c0,0-11,29-43,19s-58-14-94-14c-33,0-68,9-62,17s38-2,49-3s19,15,2,17s-46,16-69,13
	s-30.8-15.2-30.8-15.2s-30.2,5.2-31.2,3.2s32.2-9.3,39.1-14.2"/>
<path class="st3" d="M713.8,585.5c3.4,5.1,8.7,8.7,14.8,10c10,2,14,6,33,3s33-9,38-9s18-2,17-6s-6-6-14-4s-27,5-36,4s-16-4-12-9
	s14-13,33-15s45-4,73,0s42,7,49,9s18,6,28,1s18-16.8,18-16.8"/>
<path class="st3" d="M951.2,548.2c0,0-9.8,11.2-30.8,7.2s-66-10-79-10s-22-10,26-12s31-11,16-14s-52,6-63,16s-53,24-64,25
	c-10.2,0.9-24.5,8-30.2,8"/>
<path class="st3" d="M947.8,543.7c0,0-4.2,6.8-14.2,7.8s-67-9-76-9s-21,1-19-2s12-3,26-3s37-2,39-7s6-11-10-15s-37-2-48,3
	s-18,8-24,11s-18,13-24,14s-31,13-36,12s-31.5,8-31.5,8"/>
<path class="st3" d="M749.2,540c0,0-0.7,10.5,18.3,3.5s22-14,33-18s42.7-15,42.8-26.5"/>
<path class="st3" d="M745.7,543.7c0,0,0.8,6.8,9.8,5.8s22-4,29-9s15-12,29-16s26-11,30-16c2.4-2.9,4.1-6.3,5-10"/>
<path class="st3" d="M856.1,497.6c0,0,1.4-1.1,8.4,5.9s39,2,45,7s8,11,8,16s-7,12,7,14s17.8-2.1,17.8-2.1"/>
<path class="st3" d="M862.8,497.5c0,0,1.7,3,6.7,5s27.8,0.4,39.4,4.7"/>
<path class="st3" d="M1114.6,492.2c1.1,7.8,7.7,13.3,7.7,13.3c11.6-14.8,23.2-28.7,31.1-35.1c20-16,31-27,52-30s-17,29-14,40
	s18,17,16,33s16,30,31,11s38-35,22-46s-15,10-27,15s-23-5-16-17s25-36,19-43s-10.2-12.2-25-10c0,0-10,3-21,16
	c-8.5,10-31.2,7.4-31.2,7.4"/>
<path class="st3" d="M916.3,512.7c0,0,4.2,8.8,4.2,14.8s-3,6,0,9s16.5,3,20.3,0c0,0,100.7-9,115.7-1s-84,12-73,20s89,5,98,0
	c5-2.8,20.2-23.4,36.2-44c0,0-7.2-8.5-7.2-13.7"/>
<path class="st4" d="M933,528c0,0,70.5-0.5,103.5-3.5c21-2,41.8-5.8,62.2-11.1"/>
<path class="st3" d="M1173.2,524.2c4.8,0.3,8.9,0.3,11.3-0.7c7-3,6-16,6-22s-2.4-14.7-2.4-14.7c-2.1-2.6-3.6-4.8-3.6-6.3
	c0-5,20-32,21-34s-9,2-9,2c-33.1,12.3-42.1,32.7-55.7,44.1c0,0,14.2-9.1,21.5-6.3C1186.5,495.5,1173.2,524.2,1173.2,524.2z"/>
<path class="st3" d="M943.2,539.2c0,0,92.2-6.8,96.2-2.8s-59,6-66,18s41,14,41,14s53,4,70-5c16.3-8.6,37.2-54.1,52.2-67.5
	c0,0,15.8-5.2,20.8-6.3s14,5.8,15,10.8s0,15-1,17c-1.4,2.2-2.9,4.3-4.5,6.3c-7.7-0.5-15.8-0.9-20.5,1.7c-9,5-9,5-11,9
	s-2.2,18.6-2.2,18.6c-8.9,7.2-20.2,15.5-37.8,21.4c-39,13-125.2-5.1-125.2-5.1"/>
<path class="st2" d="M733.8,411.8c0,0,28.7,3,36.2,2.3"/>
<path class="st3" d="M683.5,389.5c0,0-8,8,10,24s-18.1,51.2-20,57c-2.7,7.5-2.4,15.8,1,23c3,7,41,10,50-26s12-45,14-53"/>
<path class="st3" d="M735.5,413c-3,5.5-13,48.5-13,48.5c-5,21-13,25-13,25c-18,12-27,8-30,7s-4-10-4-10c-2-11,3-15,3-15
	c2.8-3.5,5.4-7.1,7.9-10.6l2.1-3.4c0,0,5,8,11,7s10-6,14-8s7-16,7-20s-3.1-30.4-3.1-30.4"/>
<path class="st3" d="M686.5,390.5c0,0-3,2,0,8s12,13,15,17c2.5,3.3,2,15-2,23c0,0-3.5,5.6-8.7,13.1c0,0,6.7,9.9,12.7,4.9
	s18.5-3.5,10.2-54.8"/>
<path class="st3" d="M745.7,419c0,0-4.2,68.5-19.2,79.5s-20,4-23,15s-1,31,13,36s23.8,0.1,23.8,0.1"/>
<path class="st3" d="M744.5,545.2c-16,5.7-18,2.3-28-0.7s-11-17-10-27s6-7,15-12s13-9,18-18s8-41,8-41c0.2-1.1,0.4-2.8,0.6-4.9
	c0,0,7.4,23.9,7.4,36.9s25,16,26,10s5-28,0-35s-17-13.7-16-19.8"/>
<path class="st3" d="M749.5,422.5c0,0-0.3,6.7-0.8,13.2c0,0,6.5,0.5,13.2-4.8"/>
<path class="st3" d="M751.5,537.5c0,0-16-24-6-37s29,8,42,5s11.3-40,4.2-49"/>
<path class="st3" d="M753.4,535.4c0,0-8.9-19.9-7.9-23.9s0-15,12-11s19,10,30,8s13-19,13-23s-3.3-23.5-3.3-23.5"/>
<path class="st3" d="M751.2,439.3c0,0,8.3,0.2,11.3-3.8c0,0-1,6,9,12s9,19,9,19s0,20-3,21s-16,0-18-6s-1-15-2-20
	S751.2,439.3,751.2,439.3z"/>
<path class="st2" d="M1069.5,544.5c0,0-23,3-25,4S1060.5,550.9,1069.5,544.5z"/>
<path class="st3" d="M758.5,530.7c0,0-5,8.8,7,4.8s32-17,46-21s18.6-13.2,18.6-13.2"/>
<path class="st3" d="M761.2,528.7c0,0-2.7,4.8,0.3,4.8s23-11,28-13s16-7,23-9s12.7-9.4,12.7-9.4"/>
<path class="st3" d="M1231.5,422.5c6.2,2.4,12,9,13,16s-11,24-11,24s-12,16-12,22s8,3,12,2s9-10,12-14s7-2,14,0s15,9,12,19
	s-14,21-30,36s-15,16-29,11s-12-21-12-31c0-5.4-4.7-11.4-9-16.5c0,0,7,24.5-5,35.5c-5.9,5.5-16-1-35,1s-13.5,21.9-13.5,21.9
	c8.5-6.8,15.2-11.8,24.5-10.9c20,2,50,31,74,17s35-52,48-60c4.9-2.9,10.2-5.2,15.7-6.9c0,0-25.7-15.1-27.7-23.1s3.3-12,1.7-31.5"/>
<path class="st3" d="M1328.7,482c-7.7,1.3-15.3,2.9-22.8,4.9"/>
<path class="st3" d="M1363.1,471.1c-10.6,5.8-24.9,12.8-28.7,17.2"/>
<path class="st3" d="M973.5,573.5c0,0,39,9,57,10s55,2,78-9c0,0,19-13,31-22s16-15,35-6s33,19,53,17s29-22,34-28s14-23,21-33
	s49.2-17.1,49.2-17.1s17.9-14.6,31-21"/>
<path class="st3" d="M1306,487c0,0-32.5-17.5-30.5-27.8s1.7-23.5,1.7-23.5"/>
<path class="st3" d="M1162.9,443.9c0,0,15.6-0.4,20.6-3.4s12-13,18.5-16"/>
<path class="st3" d="M691.5,689.5c0,0,13-2,41,6s42,14,52,22s43,38,47,45s3,18-14,9s-60-40-76-45s-21-19-50-18s-43,4-43,4"/>
<path class="st3" d="M642.8,717.1c0,0,39.8-3.6,59.8,2.4s59,25,71,36s4,13,0,17s-9,6-13,0s-36-28-45-31s-32-8-47-6S624,734,624,734"
	/>
<path class="st3" d="M619.2,738.7c0,0,48.3,6.8,62.3,8.8s38,8,44,10s21,10,12,16s-29-4-34,1s-15,14-24,12s-51-18-64-19
	s-15.3,0.5-19.7-4.8"/>
<path class="st3" d="M616.8,740.8c0,0,49.7,7.7,56.7,8.7s36,7,40,8s17,3,23,10c0,0,3,5-6,5s-14-3-22-2c-1.9,0.2-3.8,0.7-5.6,1.4
	c0,0-0.4-8.4-23.4-10.4s-61-8-63-10s-7-1.8-7-3.4"/>
<path class="st3" d="M598,760.3c2.5,4.8,9.5,4.2,15.5,3.2s27,5,38,10s28,9,31,10s9-3,13-6c1.6-1.2,4-1.8,4-3.5c0-6.5-6-6.5-11-8.5
	s-28-3-37-4s-33-5-36-7s-7.8-4.4-7.8-4.4"/>
<path class="st3" d="M595.5,762.5c0,0-8,1-9,4s18,8,18,8s19,2,18,4s-20,1-20,1s-49-2-55-6c0,0,1-5,15-4s21-2,19-8s-18-7-7-15
	s47-10.8,47-10.8"/>
<path class="st3" d="M1337.1,490.9c0,0-33.1,11.1-40.1,19.1s-28,44-34,49s-18,15-34,15s-55-21-66-18s-47,39-64,38s-58,7-74,2
	s-39.6-7.6-39.6-7.6"/>
<path class="st3" d="M988.5,593c0,0,8,1.5,16,3.5s10,5,23,5c0,0-20,6-13,9s10,6,22,6s18.5-3,23.2,0.5c4.2,3.1-10,2.2-13.2,2.5
	c-11,1-18,4-19,9s7,7,7,7c21,3,19,4,19,4c0,4-16,3-16,3"/>
<path class="st3" d="M1174.5,594.5c2.2-3.6,4.3-8.3,7.6-10.9s9.6-6.8,13.4-5.1c5.9,2.5,5.5,13,6.6,19.3c1.2,6.7,3.1,13.2,5.7,19.5
	c1.6,3.8,3.8,7.9,7.8,9.1c4.6,1.4,9.5-1.8,11.7-6.1s2.3-9.2,2.4-13.9s0.3-9.7,2.7-13.9s7.5-7.1,12-5.3c2.8,1.1,4.7,3.8,6.2,6.5
	c6.6,11.6,10.1,24.7,10.3,38c-0.1,1.6,0.1,3.2,0.8,4.8c2,3.8,7.5,3.3,11.7,2.1c5.8-1.6,11.9-3.5,15.7-8.1c5.6-6.8,4.1-17.1,0.4-25.2
	s-9.2-15.4-10.9-24.1c-0.8-3.7-0.7-7.8,1-11.2s5.7-5.8,9.4-5.1c3.6,0.7,6,3.9,7.9,7c5.6,9,9.4,19.1,14.7,28.3c1.4,2.4,3,4.8,5.3,6.4
	s5.6,1.9,7.8,0.2c1.4-1.3,2.3-3,2.6-4.8c2.2-8.6,0.1-17.8-2.9-26.2s-7.2-16.4-9.2-25.1s-1.7-18.5,3.5-25.7s16.2-10.7,23.4-5.5
	c2.2,1.5,3.8,3.6,5.7,5.4c4.4,4.1,10.1,6.5,16.1,6.8"/>
<path class="st3" d="M1202.1,612.9c-3.4-6.6-4.6-24.4-5.6-27.4s-1-4-8-1s-11.5,10.9-11.5,10.9c4.3,8.4,7.8,17.1,10.5,26.1
	c4,14-2,13,8,19s5-13,5-21c0.1-4.6-1.3-9.2-4-13"/>
<path class="st3" d="M1213,628.6c0,0,1.5,2.9,8.5,0.9s8-7,10-12s2-21,5-25c0,0,4-6,9-1s10,22,10,22s2,14,2,21s4,8,8,8s20-5,20-5
	s8-5,9-9s1-14-1-20s-14-24-13-29c0,0-3-8,5-11s18,23,18,23s5,14,13,18s11-2,12-3s3-11,1-20s-11-36-11-36s-3-13,1-19s6-11,16-10
	s9,10,23,12l5,1"/>
<path class="st3" d="M1363.5,547.2c0,0-19-10.7-26-1.7s15,56,6,67s-25,4-32,16s52,13.5,52,13.5"/>
<path class="st3" d="M1364,637.6c0,0-46.5-1.1-44.5-7.1s13-4,22-8s10-11,10-20s-16-42-10-53s22,3.8,22,3.8"/>
<path class="st3" d="M1180.4,596.6c0,0,6.1,12.1,7.1,16.8s3,8.5,3,12.2s1.4,6.9,4,10.5c4,5.4,5-1.1,5-5.8s-1-12.2-1-15
	s-2.2-9.5-5.1-11.8"/>
<path class="st3" d="M1204.5,616.5c0,0,3,19,7,22s10.4,1.8,10.4,1.8"/>
<path class="st3" d="M1208.3,621.8c0,0,2.2,11.8,4.2,13.8s7,1.6,7,1.6"/>
<path class="st3" d="M1160.4,594.6c-0.5-3-3.7-7-6.8-7.1c-3.1,0-6.2,1-8.8,2.7c-15.3,9.4-21.2,15.9-34.3,22.4s-31.5,10.1-46.2,10.7
	c-5.6,0.2-11.2-0.2-16.8,0.4s-9.2,0.8-13,4.9c-2,4.2,4.2,5.2,7.8,5.7c5.2,0.7,10.5,0.9,15.7,0.8c1.5,0,3.3,0.1,4.1,1.4s0,2.9-1,3.9
	c-4,4.5-13.7,4.8-19.7,4.9"/>
<path class="st3" d="M1165.5,594c0,0-3-9.5-12-9.5s-14,5-28,15s-30,14-40,17c-4.1,1.2-10,1.8-16,2.2c0,0,0-6.2-16-6.2s-33,0-29-4
	s21.3-6,21.3-6c17.2-0.1,46-0.5,56.7-3c13-3,27-13,27-13s28-23,38-26s31,11,49,17s16,2,41-9s38-45,46-55s36.5-17.9,36.5-17.9"/>
<path class="st3" d="M591.2,448.3c22.2-9,52.4-21.2,55.3-27.8c4-9-12-24-29-25c-14.1-0.8-23.4,4.5-30.2,14.4c0,0,26.2-6.4,27.2,1.6
	c0.5,3.7-11.5,12.2-17,20C591.2,440.4,591.2,448.3,591.2,448.3z"/>
<path class="st3" d="M533,446c0,0,43.5-15.5,50.5-29.5c0,0,17-3,21-3s-10,13-13,20s-7,17.5-7,17.5c-5.4,2.2-9.9,4.1-13,5.5
	c-15,7-18.5,10.2-18.5,10.2"/>
<path class="st3" d="M529.5,443.5c0,0,33-14,43-24s12-18.5,21.5-22.2s19.5-5.8,29.5-3.8s18.5,6,21.2,11.5s9.8,9.5,7.8,14.5
	s-20.4,16.8-34,22c-13,5-34,15-41,18c-5.9,2.5-16,4-22,10"/>
<path class="st4" d="M649.6,505.3c3.5,3.7,8.2,6.8,13.3,9.9c0,0-0.4,14.2-20.4,27.2s-33.2-10.2-33.2-10.2c-0.9-4.3,1.6-12.1,5-20.4
	c0,0,9.2,11.6,14.2,8.6s7-13,12-15C643.4,504.3,646.6,504.2,649.6,505.3z"/>
<path class="st4" d="M576.5,493.5c0,0,19,2.5,30-11.2s21-10.8,21-3.2c0,3.9-5.7,15.3-10.7,26.9c0,0,8.7,14.6,12.7,9.6
	s4.9-13.5,11-15c4-1,5.3-0.3,5.3-0.3c-2.2-4.2-2.7-9.1-1.3-13.7c6.1-24.5,32.9-39.8,30.2-54.6c0,0-23.2,12.6-41.2,20.6s-47,15-51,18
	s-12,8.3-10,18"/>
<path class="st4" d="M693.5,605.5c0,0-8,2-25,2s-38-11-10-23l7.3-3.1c0,0,5.7-3.9,5.7-8.9s3-18-2-17s-17,11-22,13
	c-2.8,1.1-11.5,2.9-11.5,2.9"/>
<path class="st4" d="M619.5,546.5c0,0,4,5,12,4s25-11,28-17s7-16,7-16l5.5,3.2c9,5.6,17.5,12,20.5,21.8c6.2,20-0.7,27-17,34.6
	c0,0,8-27.6-5-26.6s-27.3,19.7-38.2,14.8"/>
<path class="st3" d="M724,571.4c-26.5,13.1-42.5,15.1-49.5,20.1s3,7.5,33.5,0.8"/>
<path class="st3" d="M493.4,535.8c-4.9-7.6-4.5-18.6,2.3-21.8c13.4-6.4,14.9,12.5,14.9,12.5s1.8,8.4-4.2,11.2
	C505.3,538.2,496.1,540,493.4,535.8z"/>
<path class="st4" d="M551.7,561.5c-12.6,3.2-32.4,17.9-53.8,17.6s-9.6-31.8-28-37.7s-7.5-37.8-7.5-37.8s5-14,24-15s24-5,29,1
	s17,31,21,50c0,0,4,9-18,18c-10.4,4.2-19-4.5-19-4.5c-2.9-4.3-5.5-8.9-7.6-13.6c0,0,5.6,5.1,14.6,1.1s9-10,7-17s-4-15-13-14
	s-11,2-12,8s-2,11,0,19S496,553,496,553c1.9,2.5,4,4.6,6.5,6.5c4,3,14,4,20,0s17-7,18-18s-12-36-16-44s-7-13-13-15s-7,0-29,4
	s-23,16-23,16s-6.9,16.5-3,27c2.7,7.6,8.2,13.9,15.5,17.6c4.5,2.3,6.2,12.1,7.6,20s8.9,15.7,8.9,15.7s10.5,2.2,28.1-1.9
	c17.6-4.1,41.5-18.5,41.5-18.5"/>
<path class="st3" d="M551.7,561.5c9.3-4.7,3.7-17.9,0.9-23.7s-6.5-11.1-8.6-17.1c-2.9-8.2-10.8-17.3-13.2-25.7
	c-4.9-16.9-12.9-21.1-28.5-23.4c-7.6-1.1-16.6-5-23.7-1.9c-6.6,2.9-15.5,6.2-20.3,11.7c-5.7,6.6-6.9,18.3-8.9,27.1"/>
<path class="st4" d="M449.5,508.5c-2.2,9.3-3.1,19.7-0.3,30.4c2.1,7.8,8.5,13.7,12.5,19.1c0,0,7.5,7.8,11,16.3s11.3,18.3,31,14.8
	c19.7-3.5,50.2-14.9,61-22.9s6.2-28.5-1.7-38.3c-8-10.3-15-21.3-21-32.9c-4.7-9.3-9.9-27.7-27.9-31.6s-39.7-6.2-51.3,2.9
	s-27.6,16-27.8,32.3s1.5,20,2.8,33s19.1,56.5,31.5,63.5s32.1,9.6,45.8,6.2c0,0,35.4-8.9,56.4-20.9s11-40,8-53s-15.3-24.1-22.7-36.5
	s-19.3-36.9-40.3-42.7s-40-5.8-56,4.2s-40,24.9-39,42.4s2,41.6,11.5,63.6"/>
<path class="st3" d="M558,562.4c2.8-1.5,2.2-4,2.9-6.6c1.3-4.2,1-8.7-0.8-12.7c-3.9-8.3-11.2-15.8-13.5-24.7
	c-2.8-10.8-6.7-13-11.6-23c-4-8.2-7.7-19.3-15.6-23.7c-4.6-2.5-4.8-1.6-10-2.3s-8.8-2.4-16.5-3.9c-8.1-1.6-16.9,0.4-24.4,4
	s-14.2,9.2-17.9,16.7c-3,6.1-3.8,13-5.2,19.7c-2,9.7-3.2,17.2-2.3,27.1c1.1,12,8.6,19.8,15,27.8c4.5,3,7.8,7.4,9.3,12.6
	c2.5,8.7,6.7,15.1,15.5,18.6s21.5,1.3,37.1-2.5s42.9-15.7,42.9-15.7s6.7-2.2,11.2-11.1s-3.4-30.9-3.4-30.9s-14.6-19.7-16.3-23.5
	s-7.2-13.7-11-22.8s-10.8-20.1-18.5-23.8s-39-8.4-50.7-5.3s-10.3,4.9-24,13.4s-18.7,20.6-20,24.9s4,39.9,4,39.9
	c2.5,12.9,6.4,25.5,11.6,37.6c8.4,18.8,23.4,29.4,29.1,32.5s30.1,3.8,41.9,1.8c16-4.6,31.6-10.5,46.6-17.7c25-12,21.7-17,23.8-33
	s-5.8-35-14.8-51s-13-17-20-30s-25-38-59-34s-29,6-46,16s-23,17-26,23s-9,22.5,3,68.7"/>
<path class="st3" d="M413,537.5c0,0-10.5-37-4.5-58s32-32,41-39s35-16.7,70.5-6.9"/>
<path class="st3" d="M479.5,622.5c0,0,29.7,3.7,46.3-1.7"/>
<path class="st2" d="M485.5,627.5c0,0,24,0.7,34.5-1.2"/>
<path class="st3" d="M579.8,497c6.5,0.7,13-0.5,18.8-3.5c10-5,16-15.5,21-13.8s-15.6,35.2-14.3,47.5c0,0,8.3,36.2,7.3,47.2
	S600,594.8,600,594.8s-2.5,9.8,0.5,16.8s2,13-1,18s-3,5-3,8s4,10,6,10s-2-13,0-15s11-7,12-9s14.5-19.1,14.5-19.1"/>
<path class="st3" d="M609.5,532.5c0,0,10,35,8,43s-12.3,20.9-12.3,20.9"/>
<path class="st3" d="M396.5,524.5c0,0-10-31,0-52s19-24,31-37s33-18,55-17s25.2,4,25.2,4"/>
<path class="st3" d="M390.5,520.5c0,0-8-23-2-45s23-33,29-40s14-17,32-21s48.5-1,48.5-1s17.5,4,30.5,3s34-7,50-21
	c10-8.8,19.3-18.3,27.8-28.5"/>
<path class="st3" d="M373.2,511c0,0-0.8-34.5,11.2-62.5s17-32,37-39s33-15,42-14s20.5,5.7,20.5,5.7"/>
<path class="st2" d="M622.5,550.8c0,0,5,20.8,4,28.8s-8.7,20-8.7,20"/>
<path class="st2" d="M623.5,602.5c0,0,9-15,9-22s-2.5-19-2.5-19"/>
<path class="st2" d="M492.1,633.2c0,0,15.6,1.5,19.5,0.9"/>
<path class="st3" d="M498,637.5l9.5,0.1c0,0,14,7.9,26,5.9s15-14.8,15-14.8"/>
<path class="st3" d="M364.2,506.5c0,0,3.8-59,22-80.5s27.2-25.5,38.2-29.5s30-6.5,48-5.2"/>
<path class="st3" d="M358.5,504c0,0,2-42.5,18-71.5s32-36,47-40s43-5.5,43-5.5c13,3.9,26.5,6.2,40.1,6.7c0,0,4.5,15.8-15.3,14.3
	c0,0-18.8-8.5-30.8-6.5s-24,8-39,14s-24,13-35,45s-6,53-6,53c-12,13,30,78,20,102s-38.2,32-38.2,32c-12.7-4.7-26.7-11.2-28.8-17
	c-0.7-2-0.9-4.1-0.6-6.2c0,0,7.6,8.2,23.6,2.2s14-35,14-35s-7-27-22-43s-14-12-12-23s5.2-26,5.2-26"/>
<path class="st3" d="M454.3,377.7c0,0-30.8-0.2-51.8,11.8c-20.3,11.6-28,21-41,60s-11.6,52.6-11.6,52.6"/>
<path class="st3" d="M446.7,373c-4.2,0.5-25.2-1.5-44.2,11.5s-30,23-34,32s-22,57.5-22.5,69.8s-1.5,14.2-1.5,14.2"/>
<path class="st3" d="M432.5,367.5c0,0-40-6-63,25c-19.2,25.9-39.7,64.1-39.8,87.1l2,17.9"/>
<path class="st3" d="M424.5,364.5c0,0-31-4.9-52,16.8c-22,22.8-49.7,73.4-49.8,96.6l1.9,19.1"/>
<path class="st3" d="M306.5,496.5c0,0,0-30,10-54s14-28,20-39s20.2-37.5,44.6-43.2"/>
<path class="st3" d="M0.5,347.8c0,0,32.5-3.3,44-6.3"/>
<path class="st3" d="M299.5,497.5c0,0,5-61,16-83s29.5-42,45.2-52.5"/>
<path class="st3" d="M351.6,364c0,0-25.1,22.5-37.1,43.5s-17,68-17,68l-2,23"/>
<path class="st3" d="M284.5,500.5c0,0-6-44,0-62s11-26,15-35s23.2-30.5,23.2-30.5"/>
<path class="st3" d="M302.2,382.2c0,0-16.8,20.2-22.8,45.2s-4,37-5,46s5,28,5,28"/>
<path class="st3" d="M274.5,503.5c0,0-5-22-5-32s3-37,7-49s17.2-35.5,17.2-35.5"/>
<path class="st3" d="M280.3,395.4c0,0-21.8,33.1-20.8,66.1s7.5,43.8,7.5,43.8"/>
<path class="st2" d="M250.7,511c0,0-9.2-25.5-5.2-44.5s9.7-51.8,9.7-51.8"/>
<path class="st3" d="M249.5,419.5c0,0-5,34-11,51s8,42.3,8,42.3"/>
<path class="st3" d="M237,431.5c0,0-7.5,33-6.5,47s8,37.2,8,37.2s13-1.2,19-4.2c6-3,4.3-5,4.3-5s-8.3-25-6.3-45
	c2-20-0.5-27.6,16.3-60.3"/>
<path class="st3" d="M230.4,438.8c0,0-5.9,28.8-4.9,41.8s8.9,37.2,8.9,37.2"/>
<path class="st2" d="M218.5,450.5c0,0-3,32,0,46c1.9,8.6,4.8,17,8.6,25"/>
<path class="st3" d="M214.6,454.8c0,0-4.1,27.8-1.1,41.8c2.2,9.2,5.5,18.1,10,26.5"/>
<path class="st3" d="M205,465c0,0-3.5,28.5,0,41c2.3,7.9,5.6,15.4,10,22.3"/>
<path class="st3" d="M200.6,470.7c0,0-4.8,23.9-1.3,36c3.5,12.1,11.6,22.9,11.6,22.9s51.7-2,69.7-12s9-18,9-18s-7-47,2-66
	s19-38,26-47s20-19,20-19"/>
<path class="st2" d="M190.5,481.5c0,0-1,23,2,32s8.2,22.2,8.2,22.2"/>
<path class="st2" d="M185.2,487.9c0,0,0.2,20.6,2.2,27.6s9,23.1,9,23.1"/>
<path class="st3" d="M166.2,510.2c0.8,7.8,7.2,23.2,7.2,23.2s3.1,13.4-2.5,22.7"/>
<path class="st3" d="M163.2,513.2c0.7,5.3,2.1,10.4,4.2,15.2c0,0,5.8,24.2-2,32"/>
<path class="st3" d="M680.5,693.5c-9.8-1.2-25.8-0.6-35,3c-9.5,3.8-13.8,8.5-23,13s-19.7,9.5-29.3,6.2c-5.3-1.8-33.7-9.2-52.7-9.2
	c-6.5,0.1-13.1,1.1-19.4,2.8c0,0-10.6,14.2-5.6,21.2s24,10,49,3s69-14.5,75.5-14.2c0,0,38.5-0.8,48.5,1.2s13,2,22,6s45,22,45,22
	s18,9,18,15c0,0,2,3-2,6s-9-3-9-3s-21-15-29-20s-24-11-33-13s-24-2-39-2s-33.7-1.1-33.7-1.1"/>
<path class="st3" d="M316.5,496.5c-19,22-14.4,39.8-14.4,39.8c8.1,2,13,4.9,22.4,12.2c14,11,20,26,19,45
	c-0.5,10.4-4.7,17.2-7.7,23.1c0,0,24.7,19.9,28.7-12.1s-26-56-32-66s2.5-40,2.5-40"/>
<path class="st3" d="M179.5,494.5c-0.6,5.3-0.6,10.7,0,16c1,9,12,31,12,31s75-11,95-8c2.6,0.4,5,0.8,7.1,1.1c0,0,6.4-30.6,17.7-37.9
	c0,0-1.4-32.2,18.4-68.2s28.9-59.5,62.4-68.2"/>
<path class="st3" d="M385.5,517.2c-8,4.7,8,37.3,13,54.3s12,28,6,49S371,650.6,371,650.6c7.2,2.4,12.5,3.9,12.5,3.9
	c3.4,1.8,6.5,4,9.4,6.5c0,0,23.6-11.5,25.6-36.5s-12-73-12-81s0.3-11.8,0.3-11.8s-13.3-40.2-2.3-57.2s28-29,38-38s47.3-17,70.2-9.5"
	/>
<path class="st3" d="M413.5,537.5c-4,7,1,25,5,44s6,47,1,61S397.4,666,397.4,666c3.8,5.2,5.8,11.9,1.1,19.5c0,0,47-23,46-54
	s-5-62-5-62"/>
<path class="st3" d="M430.5,699.5c-4.3,10.8,0.3,18.5,7.5,22.1c0,0-11.5,9.9-16.5,15.9s-19.8,18.9-19.8,18.9
	c-19.8,0.3-64.7,3.9-75.2,2.1c-12-2-25.8-9.3-19-12c20-8,59-6.5,63-8c8-3,10-7,4-10c-1.5-0.8-5.2-1.6-9.6-2.5c0,0,10.9-4.6,41.8-4.5
	"/>
<path class="st3" d="M443.3,723.4c1.3,0.3,2.7,0.4,4,0.4c3.6,0.1,7.7,0,11.8-0.2c0,0,2.4,13.9,5.4,21.9s14.8,22.2,14.8,22.2
	c-2.3-0.3-4.5-0.7-6.8-1.2c-12-3-51-9-64-10c0,0,14-13,18-17S443.3,723.4,443.3,723.4z"/>
<path class="st3" d="M485.4,768.4c14.7,1.3,34.1,1.1,37.1-1.9c4-4-20-11-33-25s-8.3-19.9-8.3-19.9c-4.1,0.7-9.7,1.3-15.5,1.7
	c0,0-1.2,14.2,6.8,26.2S485.4,768.4,485.4,768.4z"/>
<path class="st3" d="M654.7,708.4c13.2-3.1,48.8-3.9,54.8-2.9s26,11,29,14s14,6,18,8s42,26,43,27s25,15,27,15s2-3,0-7s-51-49-61-53
	s-40-10-49-14s-29.9-5.2-29.9-5.2s-25.1-0.8-38.1,2.2s-37,18-43,20c-4.8,1.6-25.7-3.2-40.5-7.3c0,0,12.5-13.7,11.5-23.7s-1-17-11-20
	s-38,0-50-4c-7.1-2.4-14.1-5.3-20.8-8.7"/>
<path class="st3" d="M434.5,695.5c0,0-8,21,7,22s34-1,34-1s21-5,36-11s31-7,44-3l3,0.9c0,0,17-14.9,12-29.9s-42-8-56-12
	c-8.4-2.4-16.7-5.3-24.8-8.7"/>
<path class="st3" d="M699.5,687.5c0,0-34-6-60,2s-24-8-19-16s42,3,40-9s-30-13-29-30s19.6-17.9,19.6-17.9"/>
<path class="st3" d="M708.5,686.5c0,0-26-5-36-5s-22,2-39,6s-12-9-12-9s0-5,15-4s19,0,23-2c2.4-1.2,4.2-3.4,5-6c0,0-1-6-5-10
	c-1.5-1.3-3.1-2.4-4.9-3.3c0,0,11.9-2.7,25.9,5.6c1.8,1.1,1.4,4.2,2,6.7c3,13,39,20.1,39,20.1"/>
<path class="st3" d="M667,627.6c0,0-14.5,9.9-3.5,14.9c7.4,3.4,12.1,6.7,15.3,12.5c0,0-15.3-8.5-27.8-3.8
	c-2.5,0.3-11.9-5.9-12.5-7.7c-1-3-6-8-1-14s7-7,12-8c2.6-0.6,5.3-0.8,8-0.7"/>
<path class="st2" d="M668.5,629.5c0,0-7,3-6,8s5,2,13,10s7,10,8,12s1.4,5.7,3,8c2,3,16.4,15.2,42.2,17.1"/>
<path class="st3" d="M676.3,634.9c0,0-4.8-0.4,3.2,9.6s12,13,15,21s27,11.6,27,11.6"/>
<path class="st3" d="M718,673.5c0,0-15.5-2-18.5-7s-12-17-16-21s-6.5-7.2-4.7-8.6"/>
<path class="st3" d="M440.3,690.5c0,0-4.8,23,16.2,21s49-17,63-19s22,1,32-3s-1-22-26-21s-43-2-46-8.5"/>
<path class="st3" d="M476.5,662.2c0,0,2,4.3,9,6.3s31,3,36,3s18-1,26,6s0,8,0,8s-22,2-27,3s-19,5-25,8s-35,17-45,10
	s-4.6-20.7-4.6-20.7"/>
<path class="st3" d="M450.3,682.2c0,0,2.2,16.3,19.2,14.3s25-9,32-11s9-7,4-8s-26-1-29-4s-4.5-8.1-4.5-8.1"/>
<path class="st3" d="M453.5,679.5c0,0,2,13,13,13c9,0,27-7,30-9s7-3-3-4s-17,0-19-3c-1.8-3-3.5-6.1-5-9.2"/>
<path class="st3" d="M499.9,644.5c-0.4,0,14.6,11,34.6,10s42-3,47,3s-5,38,0,42s17,6,25,0s0-18,5-26s22-10,31-11s-6-12-10-14
	s-9-14-6-21s16.7-15.7,16.7-15.7"/>
<path class="st3" d="M472,614.8c0.2-0.3,9.1,4.7,26,3.7c16.8-1,39.8-7.5,39.8-7.5s4.9,7.3,9,14.6c0,0-4.3,12.9-12.3,13.9
	s-12.6-3.2-14-6c-2-4,1.3-8.9,1.3-8.9"/>
<path class="st3" d="M503.3,641.6c0,0,16.2,9.9,27.2,8.9s21-6,22-11c0.4-2-1.2-5.8-4-11"/>
<path class="st3" d="M544,606c0,0-24.8,6.1-43,8.4s-35.3-7.1-35.3-7.1"/>
<path class="st3" d="M540.7,608.5c0,0,15.8,24,15.8,28s0,9-5,12h12c0,0,8,0,11,1s10,1,11,8c0,0,0,17-1,25s-3,15,5,17s15,0,16-5
	s-1-15,1-19s5-10,14-12s19-3,19-4s-2-4-8-8s-11-12-10-17c0.2-1.7,0.5-3.4,1-5c0,0,5-9,10-13s7.9-6.3,7.9-6.3"/>
<path class="st3" d="M551.8,601.5c13.2,14,20.8,34,19.8,38s1,4,1,4s3,2,7-2l10-14c0,0,6-13,0-17s-5-4-5-8s5.5-9.2,5.5-9.2"/>
<path class="st3" d="M555.2,599.5c0,0,13.3,17,15.3,23s4,16,5,17s22-23,10-29s2-18,2-18s18-9,19-18s0-16-3-26s-17-44-17-44"/>
<path class="st3" d="M510.5,634.5c0,0,5,4,9,5c0,0-5.2-8.6-2.1-10.8"/>
<path class="st3" d="M596.7,594.2c0,0-3.2,15.3,1.8,21.3s-9,19-5,24s5,12,10,11s-1-15,3-18s9-5,13-10s12.8-16.5,12.8-16.5"/>
<path class="st3" d="M636,722.9c0,0-57.5,9.6-64.5,12.6s-44,11-56,3s0-27.6,0-27.6"/>
<path class="st3" d="M218,526.2c0,0,36.6-1.7,51.5-8.7c15-7,14-7,16-11s-2.2-5.8-2.2-5.8"/>
<path class="st3" d="M231.5,519.5c0,0,26-3,33-7s6.3-8.5,6.3-8.5"/>
<path class="st3" d="M142.2,605.5c5.9,2.5,11.4,5.9,16.3,10c26.9,21.8,7,33-3,39c-3.5,2.1-10.2,4.1-17.7,6.1c0,0-13.3-18.1-7.3-34.1
	S142.2,605.5,142.2,605.5z"/>
<path class="st3" d="M128.1,598.6c2.4,0.1,4.7,0.3,7,0.9c0,0,24.5-35,42.5-38c19.8-3.3,60-5,84-2c24.5,3.1,39,7,41,26
	c0.9,8.4-1,22.1,1,35c1.8,10.6,4.8,21,9,31c7-5,4-10,1-17s-2-23,0-33s8-19-4-33s-38-15-49-18s-86,3.1-86,3.1"/>
<path class="st3" d="M302.5,660c2.5-1.7,4.8-3.5,7-5.5c0,0-10-30-11-41s3.5-23.3-4-35c-9-14-42-14-54-16s-46,0-64,5
	s-34.5,34-34.5,34c3.5,1.2,6.9,2.7,10.2,4.5c0,0,12.3-30.5,51.3-31.5s66-2,75,7S302.5,660,302.5,660z"/>
<path class="st3" d="M231.5,603.5c3-3,12,0,18,6s12,21,20,37s12,17,12,17c5.8,2.3,11.2,1.5,16-0.7c0,0-10-74.3-30-81.3s-61-3-84,2
	c-13.1,2.5-23.2,13-25.1,26.2c5.3,3.4,9.9,7.9,13.4,13.2c0,0,6.7-27.4,31.7-30.4S231.5,603.5,231.5,603.5z"/>
<path class="st3" d="M232.1,644.5c-2.2-8.1-4.1-16.7-4.6-22c-0.5-5.6,1.7-9.7,1.5-12.7c-0.5-9.7-11.5-11.3-11.5-11.3s-4-3-22,3
	s-20,30.5-20,30.5c0.5,2.5,0.5,5,0,7.5c-0.5,2.8-1.5,5.5-3.1,7.9c0,0,12.1,4.1,18.1-9.9s13-17,19-17s10,3,13,8L232.1,644.5z"/>
<path class="st3" d="M245.5,669.5c-5-6.2-7.2-13.3-13-18c-4-3.4-7.4-7.5-10-12c0,0-8-15-16-13s-14,22-23,25
	c-5.4,1.8-11.2,2.4-16.9,1.8c-6.9,5-16.8,7.7-26.6,10.2c14.3,9.3,31.8,12.6,48.5,9.1C216.5,666.5,245.5,669.5,245.5,669.5z"/>
<path class="st3" d="M258.3,682.1c2.6,1.7,5.4,2.7,8.5,3.2c0,0-2.2,14.2-0.2,23.2s-21.8,21.4-21.8,21.4c-2.1-1-4.2-2.1-6.2-3.4
	c-15-10-19-20-25-23c-3.2-1.6-8.2-5.9-16.1-8.8c0,0,15.1-3.2,22.1-2.2s19,4,28,1C252.8,691.8,256.8,687.5,258.3,682.1z"/>
<path class="st3" d="M176.2,691.8c5.6-0.4,11.2,0,16.6,1.4c0,0,16.8-7.7,39.8-3.7s22.6-9.7,22.6-9.7c-2-1.7-3.9-3.6-5.6-5.5
	c0,0-14-0.8-32-0.8s-13,5-41,6s-44.6-14.1-44.6-14.1c-5.3,1.2-10.4,2.9-15.4,5.1c-3.9,1.7-7.3,4.5-9.7,8"/>
<path class="st3" d="M251.4,732.5c14.5,4.8,31.6,5.5,36.1,4c6-2,10-6,13-11s-2-9,5-18s23-14,37-20s16-14,16-14c-7-9-21-5-26-5
	s-38,13-53,16c-2.3,0.5-4.6,0.8-6.9,1c0,0-4.1,10-0.1,26c0,0,1,5-7,11S251.4,732.5,251.4,732.5z"/>
<path class="st3" d="M104.1,685.3c0.4-2.4,1.3-4.7,2.6-6.8"/>
<path class="st3" d="M176.2,691.8c-1.8,0.1-3.7,0.3-5.7,0.7c-25,4-34,12-45,11s-17-2-20-6c-1.5-3.9-2-8.1-1.4-12.2"/>
<path class="st3" d="M445.5,580.2c0,0,4,43.3,4,56.3s-9,26-21,37s-35.7,18.4-35.7,18.4c-5.2,4.4-12.3,8.2-19.8,11.4
	c0,0,34.5,7.2,59.5-13.8s35.6-54.6,57.3-58.3"/>
<path class="st2" d="M130.8,502.1c0,0,40.2-10.2,57-17.4"/>
<path class="st3" d="M0,532.7C58,555.3,51,632,51,632c-4.1-1.6-8.2-3.3-12.3-4.9c0,0-0.2-52.6-18.2-65.6S0,549.7,0,549.7"/>
<path class="st3" d="M0,555.5c0,0,9.5-0.7,22.5,16c14,18,11,53,11,53c-5.4-2.2-10.8-4.2-15.6-6c0,0,2.6-40.3-17.9-45.6"/>
<path class="st3" d="M0,611.8c0,0,5.1,1.8,12.6,4.7c0,0-0.1-32-12.6-37.5"/>
<path class="st3" d="M0,526.2c0,0,34.5,6.3,46.5,45.3s11,63,11,63s25,8,33,5s-28-27-24-57s22-20,40-32s-25.6-76.3-25.6-76.3"/>
<path class="st3" d="M62.8,465c0,0,39.7,49.5,22.7,67.5s-36-6-50-11S0,511.8,0,511.8"/>
<path class="st3" d="M0,504c0,0,34.5,7.5,44.5,16.5s22,17,33,12s2-32,2-32l-24.1-39.2"/>
<path class="st2" d="M0,488.9c0,0,28.4,7.3,42.5,8.6c11,1,15-3,13-13c-1.9-9.7-6-22-18-32"/>
<path class="st2" d="M0,481.5c0,0,35.5,10.7,44.5,8c10-3-3-23-3-23c-3.7-7.3-9.2-13.6-15.9-18.3"/>
<path class="st2" d="M0,471.2c0,0,18.5,5.2,25.5,0.2S13.6,446,13.6,446"/>
<path class="st2" d="M0,465c0,0,9.5,4.5,16.5,1.5S6.3,446,6.3,446"/>
<path class="st2" d="M108.3,630.3c0,0-15.8-23.8-10.8-36.8s38-30,36-48s-12.4-49-12.4-49"/>
<path class="st3" d="M128.1,500.5c0,0,13.4,41,10.4,53s-32,32-36,43c-3.1,8.5,8.6,29.8,8.6,29.8c-5.4,15.8,6.3,39.9,6.3,39.9
	c4.5-1.4,9.4-2.7,14.3-4c0,0-9.2-17.7-9.2-25.7c0-14,13.8-32.8,13.8-32.8c-7.6-1.8-11.8-0.2-11.8-0.2"/>
<path class="st3" d="M142.9,510.2c0,0,19.6,40.2,0.6,70.2"/>
<path class="st3" d="M148.9,514.4c0,0,12.6,39.1,1.6,59.1"/>
<path class="st3" d="M9.1,364.8c0,0,12.4,68.7,53.4,71.7s51,32,97,20s71-62,71-62"/>
<path class="st3" d="M13.5,362c0,0,9,47.5,31,62.5s16,2,38,10s26,19,54,20s50-17,59-26s33-38,33-38"/>
<path class="st3" d="M0,380.3c0,0,2.5,44.2,19.5,54.2c0,0,30,11,58,25s59,21,80,16s75.2-57.7,81.1-73.4"/>
<path class="st3" d="M0,413.3c0,0,4.5,17.2,13.5,23.2s34,11,47,20s46,23,64,25s33,1,45-4s40-32,40-32s29.9-30.5,32.9-39.2"/>
<path class="st3" d="M22.3,354.3c0,0,15.2,46.2,36.2,52.2s19,2,43,2s21,30,41,28s72.1-62.7,72.1-62.7"/>
<path class="st3" d="M27,351c0,0,19.5,42.5,28.5,47.5s40,3,52,4s21,28,31,29s26-11,43-28c10.6-10.7,20.5-21.9,29.8-33.8"/>
<path class="st3" d="M46,340.1c0,0,14.5,31.4,28.5,35.4s25,4,44,3s21,5,32,4s20-6,24-11c3.4-4,6.4-8.4,9-13c2.4-4.2,4-8.7,4.9-13.5
	c0,0,40.1-9.5,56.1-19.5s36-17,36-17"/>
<path class="st3" d="M0.5,342.8c0,0,44.4-2.9,59-8.2c0,0,2,19,19,26s41,2,59,4s36-16,37.4-28.9"/>
<path class="st3" d="M64.4,332.1c0,0,3.1,7.4,6.1,14.4s11,11,26,12s38-2,44,0s16-3,23-9s9-16,9-16"/>
<path class="st3" d="M82.8,327c0,0,3.8,12.5,28.8,13.5s27-1,35-4c4.6-1.6,7.7-5.8,7.8-10.6"/>
<path class="st3" d="M0.5,307.9c0,0,25.2,5.7,64.2,0.8c4.3,2.6,8.9,4.5,13.8,5.8c8,2,12,1,13,5s-3,6-3,6s5,11,26,11s31-4,33-6
	c1.4-1.6,2.4-3.4,3.1-5.4"/>
<path class="st3" d="M41.5,342.4c0,0,17,47.1,60,42.1s31.5,10,57.7,2.5s33.5-36.9,33.5-36.9s28.8-9.6,45.8-16.6s46-22.7,46-22.7
	c5.3,3.1,10.3,6.5,15.3,10.2c0,0-52.6,50-81.9,56.8"/>
<path class="st3" d="M221.5,382.2c26-2.2,82-58.5,82-58.5c4.5,3.4,8.6,6.9,12.7,10.2c0,0-44.8,64-79.7,65.7"/>
<path class="st3" d="M240.8,404.5c32.3,1,78.8-67.7,78.8-67.7c5.5,4.6,10.7,8.9,15.8,12.5c0,0-11.4,21.4-23.1,27.7"/>
<path class="st3" d="M367.2,361.4c-9.6,0.3-18.2-3.1-26.7-8.4c0,0-7.1,14.9-15.1,18.7"/>
<path class="st3" d="M180.5,338.5c0,0,62-51,100-30"/>
<path class="st3" d="M290.2,256.2c0,0,5.3,2.3,8.3,16.3s-0.3,40.8-0.3,40.8c5.4,3.6,10.1,7.1,14.4,10.5c0,0,14.9-13.3,14.9-39.3
	c0,0,0-13-5-20"/>
<path class="st3" d="M326.8,266.6c0,0,5.8,3.9,3.8,24.9c-1.4,12.9-6.3,25.1-14.3,35.2c4.2,3.5,8,6.9,11.5,9.9
	c0,0,24.5-33.6,22.2-53.4"/>
<path class="st3" d="M353.5,287c3,15.5-22.1,52.9-22.1,52.9c5.2,4.4,10,8.1,15,10.6c2.3,1.1,4.8,2,7.4,2.6c0,0,18.7-29.9,19.2-41.7"
	/>
<path class="st3" d="M285.6,256.2c15,9.7,8.2,54.2,8.2,54.2c-17.1-11-19.2-13.3-30.4-12.5c0,0-3.6-28.4-15.8-30.4"/>
<path class="st3" d="M186.5,330.1c0,0,33-27.6,61-30.6l10.9-1.2c0,0-4.1-22.8-14-28.3"/>
<path class="st3" d="M585.2,343.4c-6.5,10.4-14.5,19.9-23.7,28.1c0.5-7.7,0.2-15.4-1-23c-1.9-12.2-14-21-13-24s7-4,7-4"/>
<path class="st3" d="M459.5,308.5c-5,4-9,11-11,21c-1.8,8.8,15,16,18.2,23.7S453.3,365,453.3,365c11.8,2.8,23.1,5.5,31.2,7.5
	c28,7,42-5,39-17s-57-18.3-52-30.2s21-17.8,38-19.8"/>
<path class="st3" d="M519.5,307.5c0,0-37,5-41,15s16,12,27,16s20,6,22,15s1,17-11,22s-23,3-52-4s-77.6-17.2-77.6-17.2
	s-14.4,1.8-27.5-0.1c0,0,14.7-25.2,17.9-36.4"/>
<path class="st3" d="M451.5,311.5c0,0-9,14-7,23s20,15,19,20s-16.8,8.9-16.8,8.9c-27-6.4-54.6-12.7-54.6-12.7"/>
<path class="st3" d="M402.1,342c0,0,17.4,10.5,31.4,5.5s-3-20-1-27"/>
<path class="st3" d="M405.5,338.2c0,0,11,8.2,24,6.2s2-12,1-15c-0.7-2.2-1.1-4.4-1.4-6.6"/>
<path class="st3" d="M548.5,317.5c0,0-5,0-5,6s6,10,10,19s1.8,33.6,1.8,33.6c-8.3,6.7-17.6,12.1-26.8,13.4c-28,4-69.2-8.2-69.2-8.2"
	/>
<path class="st2" d="M543.5,421.5c0,0-22.8,6.4-28.4,7.7"/>
<path class="st2" d="M533.5,429.5c0,0-8.8,2.4-14.4,3.7"/>
<path class="st3" d="M617.2,380.7c0,0,2.3-15.2,102.3-6.2c0,0,58,9,69,2s15.6-12.1,13-24"/>
<path class="st3" d="M614.1,376.1c0,0-1.6-2.6,15.4-6.6s62-3,87,0s61,9,69,4s10-10,11-16s-1-14-1-14"/>
<path class="st3" d="M594.5,352.5c0,0,6,3,16,3s70-8,118-17s62-2,62-2s20-12,28-8c4.6,2,7.4,6.7,7.2,11.7"/>
<path class="st4" d="M786.5,330.5c0,0-18-5-61,3s-98,20-116,18s-21-5-21-5s-26,41-58,46c-5.9,0.9-11.9,1.3-17.8,1.4
	c0,0,1.8,10.6-4.2,14.6c0,0,25,7,43-2s49.4-36.3,51-45"/>
<path class="st2" d="M578,336.1c0,0-2.5-9.6,10.5-11.6s77-1,105-6s69.3-10.7,74.2-15.8"/>
<path class="st3" d="M574.2,333.9c0,0-0.7-5.4,5.3-10.4s50-4,50-4s52-3,73-7s54-7.5,62-14.2"/>
<path class="st3" d="M741.5,274.5c0,0-4,13-100,28c-36.2,5.7-48.3,12.7-73.2,9.3"/>
<path class="st3" d="M572.7,307.6c0,0,3.8,2.9,20.8-0.1s54.2-9.8,79-15c66-14,64-22,64-22"/>
<path class="st3" d="M591.5,291.5c0,0,78.1-6.3,94-11c37-11,13-27,13-27"/>
<path class="st3" d="M598.5,285.5c0,0,59.3-3.5,77-7c30-6,26-20,12-26c0,0-18-1-36,14c0,0-25.1,16.3-35,6"/>
<path class="st3" d="M482.3,212.5c0,0,42.2-58,82.2-56s103,96,103,96c-6.5,2.2-12.6,5.6-18,10c-5,4-15,7-20,9s-8.6-2.6-8.6-2.6"/>
<path class="st3" d="M693.5,392.5c0,0,28-4,42-4s38,0,42,4c2.3,2.3,2.8,5.9,1.3,8.7"/>
<path class="st2" d="M500.2,260.5c0,0,13.2,6,18.2,24s21,29,21,29"/>
<path class="st5" d="M548.5,317.5c0,0-16-12-22-23c-0.2-0.3-0.3-0.6-0.5-0.9c0,0,8.5,5.9,18.5,3.9s5-26,0-35s-21.2-24-24.6-27"/>
<path class="st3" d="M449.8,312c-0.1-2,0-4.1,0.4-6.1c0,0,36.4-42.4,46.4-46.4l6.3-3.1c0,0,6.7,3.1,11.7,12.1
	c4.2,7.5,5.6,12.9,9.4,20.9c0,0,11.6,8.1,19.6,5.1s0-26,0-26s-12-18-17-22s-9.6-7.8-9.6-7.8"/>
<path class="st2" d="M578.2,302.7c0,0,6.2-21.2,4.2-33.2s0-18,0-18"/>
<path class="st2" d="M581.9,299.4c0,0,3.6-12.9,3.6-21.9s-2.6-17.3-0.3-21.1"/>
<path class="st3" d="M572.5,307.5c0,0-15,3-13-10s4-38,0-47s5.4-18.8,5.4-18.8"/>
<path class="st3" d="M575.6,305c0,0-10.1,1.5-11.1-2.5s2-22,2-30s-2.7-21.1-4-25c-1-3,1-6,1-6l4.8-7.4"/>
<path class="st3" d="M492.9,273.7c0,0,26.5,19.3,28.6,33.8"/>
<path class="st2" d="M491.4,278c0,0,19.4,15.9,23.1,21.5c4,6,3.8,7.7,3.8,7.7"/>
<path class="st2" d="M482.5,297.5c0,0,9,6,10,7"/>
<path class="st2" d="M483.5,294.5c0,0,11.5,8.4,15,10"/>
<path class="st3" d="M117.4,167.4c0,0,6.4,7.5,12.7,16.2c0,0,12.4,10.9,35.4-0.1s25-4,31,1s15.1,15.4,15.1,15.4
	c2.8-1.3,6.2-2.3,10.9-5.4c9-6,11.4-14.9,9.2-21.5c0,0-14.2-22.5-50.2-16.5s-50.1-2.4-50.1-2.4"/>
<path class="st3" d="M235.4,275.4c0,0,2.1-13.9,0.1-21.9s-1-13-10-23s-18-12-17-18s7-10,16-13s11.9-19.9,11.9-19.9"/>
<path class="st2" d="M248.9,201.3c0,0-13.6,26.7,9.5,59.9"/>
<path class="st2" d="M252.3,208.1c0,0-5.8,9.4-0.8,27.4s11.8,24.5,11.8,24.5"/>
<path class="st3" d="M103.1,131.4c0,0,14.4,8.1,19.4,11.1s12.7,8.6,12.7,8.6c10.8,4.6,22.8,5.8,34.3,3.4c19-4,37.1-5.6,49.1,3.7"/>
<path class="st4" d="M179.2,246.2c0,0-11.8-4.8-13.8,10.2c-1.3,9.5-13.3,14.2-22,16.3c0,0,14,5.7,14,13.7c-0.2,5.2-1.5,10.4-4,15
	c0,0,13,0,27-15s17.8-23.2,17.8-23.2"/>
<path class="st4" d="M0.5,255.5c0,0,73,23,134,19c0,0,23,6,17,19s-15,13-21,11s-21-6-33-5s-38,6-51,6s-46-2.8-46-2.8"/>
<path class="st3" d="M909.7,282.2c0,0-43.2-103.7-108.2-100.7S704,255,704,255"/>
<path class="st3" d="M1151,405c0,0,42.5-58.5,80.5-72.5s64,2,91,15c20.8,10,35.1,32,40.6,41.5"/>
<path class="st3" d="M94.7,121.9c0,0,43.8-49.4,121.8-50.4c66.5-0.8,114.1,87.9,114.1,87.9"/>
<path class="st3" d="M528.3,167.7c0,0-18.2-34.8-36.9-62.9C480.2,88,472,72.2,458.5,71.5c-36-2-70.2,86.9-70.2,86.9"/>
<path class="st4" d="M1240,305c0,0-15.5,37.5-46.5,20.5s-13-60-40-60s-44,47-54,50s-29-1-29-1s37-79,86-80s96.5,92.9,96.5,92.9"/>
<path class="st3" d="M1363,231.5c-80.5,0-134,57-134,57s33.5,38,75.5,38c19.3-0.1,38.6-2.4,57.4-6.8"/>
<path class="st3" d="M1363,348.5c-5.5,1.3-11,2.8-14.5,4c-7.4,2.5-21-2-21-2"/>
<path class="st3" d="M1310.5,341.5c0,0,21,9,35,4c6.6-2.3,12.2-4.2,17.6-5.4"/>
<path class="st3" d="M497.5,195.2c0,0,3,7.3,17,12.3s42,2,62-4s41.6-12,41.6-12s29.4-61,100.4-61s96.2,51.7,96.2,51.7"/>
<path class="st3" d="M778.2,185.8c0,0,26.5,14.1,55.2,17.8c24,3,31.2,9,31.2,9s52.8-89,105.8-82s126.2,142.9,126.2,142.9"/>
<path class="st3" d="M564.5,156.5c0,0,54-108,117-100s85.7,83.4,85.7,83.4"/>
<path class="st3" d="M505.7,0c-37.9,22.6-72.8,82.4-72.8,82.4s-39.3-40.9-86.3-37.9s-74,47.5-74,47.5"/>
<path class="st3" d="M622.9,79.1c0,0-32.9-57.4-68.1-79.1"/>
<path class="st3" d="M1198.5,127.5c0,0,86-110,122-77c13.4,12.3,28.7,21,42.5,27.1"/>
<path class="st3" d="M885.3,183.8L885,173c0,0,4.3,2.7,6.7,2.3c9.8-8.8,22.7-13.2,35.8-12.3l14.8-17.6c-6.9,0.1-13.7,0.6-20.5,1.6
	c0,0-13.5-40.6-39.2-64.5c-20-18.5-51.3-22.4-64-20C786.5,68.5,746,98,746,98"/>
<path class="st3" d="M950,145.4c17.6,0.6,38.1,4.6,44.5,19.1c0,0-2,19-14,24c-12.5-11.4-27.6-19.7-44-24c-1.1-0.3-2.2-0.5-3.3-0.7
	L950,145.4z"/>
<path class="st3" d="M130.7,0c13.6,27.7,35.1,79,35.1,79s27.7,4.5,38.7,14.5s22,31,22,31l32,66"/>
<path class="st3" d="M0.1,49.4C7.3,33.2,15.9,14.4,23.2,0"/>
<path class="st3" d="M197-0.2c-27.2,17.7-50,35.5-50,35.5"/>
<path class="st3" d="M346.5,44.5c0,0-11.7-23.4-28.1-44.8"/>
<path class="st3" d="M827.4,185.4c0,0,3.1-26.9,0.1-30.9s-11-3-19-7c-4.2-2.1-7.4-6.3-9.5-9.7c0,0-16.2-3.6-23.4,6.6"/>
<path class="st4" d="M751.7,106.5c0,0,14.8-5,18.8-5s9,3,15,18c3,7.5,7.2,11,10.8,12.6c0,0-18.1-0.2-24.4,10.1"/>
<path class="st4" d="M843.5,194.5c10.5-8.9,11-25,11-25c0.6-17.5-5-31-24-49c0,0-18,12-28,13c0,0,8,14,24,15s5.2,39,5.2,39"/>
<path class="st4" d="M787.5,73.5c-8.5,10.8-7.5,27-7.5,27c-6.4-5.6-13.5-5.4-19.5-3c-10,4-12,5-12,5"/>
<path class="st3" d="M798.5,68.5c-13.5,11-14,37.1-14,37.1c2.5,3.7,4.5,7.7,6,11.9c8,22,36-2,36-2c-5.8-7-10.4-15.9-11-21
	c-0.2-2-1-8-0.3-9.9c0,0,1.3-11.1-1.7-15.1c-1.2-1.7-2.5-3.3-4-4.8"/>
<path class="st4" d="M784.7,0C818.1,28.7,845,64,845,64s-16.5,7.6-24.9,17.9c0,0,0.4-14.4-4.6-18.9"/>
<path class="st4" d="M592,35c0,0,16.1-17.4,39.1-35"/>
<path class="st3" d="M1252.7,425.5c0,0,57.8-34,64.8-40s19-10,26-10c4.3,0,8.6,1.1,12.5,3c0,0,10.5,13,0.5,23s-72,38.3-72,38.3"/>
<path class="st3" d="M1290.8,444.5c0,0,60.4-28.1,72.3-36.8"/>
<path class="st3" d="M1363.1,443.1c-15.4,14.1-40.1,31.2-40.1,31.2"/>
<path class="st3" d="M1301.9,453.4c0,0,37-24.2,61.1-28.3"/>
<path class="st3" d="M1363.1,435.4c-8.6,10-45.6,34.1-45.6,34.1"/>
<path class="st3" d="M1305.8,457c0,0,47.2-25.9,57.2-25.9"/>
<path class="st3" d="M1363.1,502.2l-12.3,5.2"/>
<path class="st3" d="M1346.6,502.3c0,0,8.8-3.7,16.8-7.3"/>
<path class="st3" d="M1235.5,282c0,0,31.7,32.5,68,34.5c20,0.9,40.1-1.1,59.5-6"/>
<path class="st3" d="M1363,245.2c-9.9-6-19.2-11.3-23.3-12.3"/>
<path class="st3" d="M1251.7,269.4c0,0,27.8,33.1,63.8,20.1s23,10,39,10c2.7,0,5.6-1,8.6-2.5"/>
<path class="st3" d="M1363,254.5c-9.3-6.5-33.7-20.1-33.7-20.1"/>
<path class="st3" d="M1257.6,265.2c0,0,16.9,20.3,35.9,19.3s10,1,29-5s25,4,29,9c2.4,3,7.7,0.6,11.6-1.8"/>
<path class="st4" d="M1258.5,159.5h-23c-28,0-67,10-89,34s-72.6,41.5-72.6,41.5s69.6-107.5,124.6-107.5s122,109.2,122,109.2
	s12,21.8-2,27.8s-48.8-6.8-48.8-6.8s1.8-8.2,13.8-14.2s28-20,28-20"/>
<path class="st3" d="M1278.7,252.8c0,0,25.8,9.7,34.8,5.7s0.8-20,0.8-20"/>
<path class="st3" d="M1362.5,370.3l-10.8,2"/>
<path class="st3" d="M1346.2,365.7c5.7-0.9,11.3-2.1,16.9-3.5"/>
<path class="st3" d="M1007.1-0.2c22,27.2,50.4,76.7,50.4,76.7"/>
<path class="st3" d="M860.5,68.7c0,0,39.2-48.4,65.3-69.1"/>
<path class="st3" d="M918.1,136.2c0,0,127.4-53.8,159.4-68.8s100,65,100,65"/>
<path class="st3" d="M1098.7-0.4c-27.9,18.5-57.5,49.9-57.5,49.9s9.2,19.5,7.8,30.8"/>
<path class="st3" d="M1363,101.7c-9.7,0-24.8,1.8-47.5,7.8c-42,11-81.5-22.8-81.5-22.8s-43.9-59.9-77.7-87"/>
<path class="st3" d="M1339.5,65.7c-4.1,9.5,11.1,22.2,23.5,30.6"/>
<path class="st3" d="M1199.3,43.3c0,0,20.7-23.2,44.4-43.7"/>
<path class="st3" d="M130.5,94.5c0,0,68.6,7.2,71.8,51.6"/>
<path class="st3" d="M211.8,152.4c0,0-6.1-20.7-17.3-36.9c-11-16-57-25-57-25s-16-5-14-18s4-18,12-17s21,2.5,21,2.5"/>
<path class="st4" d="M1077.5,239.7c0,0,25-7.2,45-19.2s39-33,50-39s43-12,56-14s36.5-1.3,36.5-1.3"/>
<path class="st3" d="M1363.7,87c-8.1-5.2-16.5-11.8-16.4-16.8"/>
<path class="st3" d="M1229,93.7c0,0,36.8,28.8,66.5,24.8c24.6-3.3,50.5-7.1,67.5-9.5"/>
<path class="st3" d="M1244.7,77.8c0,0,35.8,21.7,58.8,20.7s20-28,23-32c1.8-2.4,4.1-4.3,6.8-5.5"/>
<path class="st3" d="M1252.3,71.2c0,0,40.2,26.3,54.2,19.3s8-20,13-26s8-8.1,8-8.1"/>
<path class="st3" d="M1328.4-0.4c-13.1,13.2-40.1,41-45.1,50.4"/>
<path class="st3" d="M1316.2,47.8c0,0-7.8,18.8-20.8,20.8s-26.4-10.2-26.4-10.2S1298,17.9,1318.6,0"/>
<path class="st3" d="M1276.3,53.7c0,0,13.2,8.8,19.2,6.8s13.5-15.2,13.5-15.2"/>
<path class="st3" d="M1363,172.1c-11.2-6.2-29.5-15.6-39.5-17.6c-15-3-21,0-32-1s-34-13-47-22s-30.4-22.5-30.4-22.5"/>
<path class="st3" d="M1219.2,104.1c0,0,49.2,44.4,80.2,41.4c21.5-2.1,48.8,11.3,63.5,19.6"/>
<path class="st3" d="M1363,126.7c-7.3,2.5-14,5.5-13.5,7.8c0.5,2.5,7,5.8,13.4,8.4"/>
<path class="st3" d="M1363,150.6c-10.9-4.5-23.9-10.3-24.5-12.1c-0.9-2.8,5.1-13.4,24.5-18.9"/>
<path class="st3" d="M1363.1,201.7c-16.2-8.3-54-27.4-61.6-29.2c-13-3-24,5.4-24,5.4"/>
<path class="st3" d="M1271.2,171.6c0,0,21.2-12.1,43.2-2.1c15.6,7.1,37.3,18.7,48.6,24.9"/>
<path class="st3" d="M1291.4,195.7c0,0,24.1,4.8,43.1,13.8c11.3,5.3,21.8,12.8,28.6,18"/>
<path class="st3" d="M1296.7,202.5c0,0,35.8,10,61.8,29"/>
<path class="st3" d="M1304.5-0.4c-10.9,11.5-62.9,66.5-73.8,82.7"/>
<path class="st3" d="M1226.1,76.3c0,0,40.9-53.6,67.6-76.7"/>
<path class="st3" d="M1359.5-0.4c-5.1,12.6-16.9,36.9-36.6,52.8"/>
<path class="st3" d="M1318.5,48.5c0,0,26.8-30.5,36.1-49.2"/>
<path class="st3" d="M1363,44.1l-19.2,23.5"/>
<path class="st3" d="M1337,63.4c0,0,14.4-18.8,26-31.3"/>
<line class="st3" x1="1355.8" y1="73.7" x2="1363" y2="65.1"/>
<path class="st3" d="M1048.2,60.5c0,0,38.2,6,52.2-16c13-20.4,72.2-30.2,72.2-30.2"/>
<path class="st3" d="M1044.5,54.7c0,0,33.5,6.3,44.5-4.7s11-14,22-20s57.4-19.8,57.4-19.8"/>
<path class="st3" d="M1137.6-0.2c-2,2.2-4.3,4.4-7.1,5.7c-8,4-24,12-33,18s-15,15-22,16s-21.7-2.6-21.7-2.6"/>
<path class="st3" d="M1049.3,41.3c0,0,21.2,12.2,37.2-3.8s41-23,51-30c3.1-2.1,5.7-4.8,7.6-7.9"/>
<path class="st3" d="M1105.9-0.2c-3.8,3.2-8,6.6-11.4,8.7c-5.2,3.1-10.9,5.5-16.8,6.9"/>
<path class="st3" d="M1067.3,24.3c0,0,8.2,0.2,26.2-9.8c9.5-5.3,16.7-10.8,21.5-14.9"/>
<path class="st3" d="M1099,67.5c0,0,11.5-18,31.5-27s51.8-15.8,51.8-15.8"/>
<path class="st3" d="M1186,28.2c0,0-18,5.3-34.3,10.5c0,0-10.2,37-24.2,45.9"/>
<path class="st3" d="M1103.5,69.8c0,0,15-18.3,23-22.3c2.5-1.3,9.4-3.7,17.7-6.4c0,0-8.3,30.7-23,38.5"/>
<path class="st3" d="M1135.3,90.8c0,0,18.2-33.3,28.2-38.3l30.5-15.3"/>
<path class="st3" d="M1138.7,93.7c0,0,18.8-28.2,24.8-33.2s36,21.3,58.5,10.7"/>
<path class="st3" d="M1262.5-0.4c-23.6,23.2-48,61.9-48,61.9"/>
<path class="st3" d="M1197.3,41c0,0-23.8,11.5-22.8,13.5s23,13,32,13s11.7-1.3,11.7-1.3c14.6-20.1,40.6-48.4,57.4-66.2"/>
<path class="st3" d="M1148.5,103c0,0,9-19.5,28-20.5s48,10,57,4"/>
<path class="st3" d="M1153.4,107.1c0,0,5.1-13.6,18.1-15.6s50.5,5,55.2,3.5"/>
<path class="st3" d="M1163.5,117.2c0,0,10-7.7,29-8.7s28-6.5,28-6.5"/>
<path class="st3" d="M1180.1-0.5c1.4,4.1,5.2,8.3,9.7,12.3"/>
<path class="st3" d="M1224.9-0.4c-8,7.2-19.1,15.7-24.4,13.9c-5.8-1.9-9.5-8.8-11.4-13.5"/>
<path class="st3" d="M1217.8,23.9c-13.7-5.7-6.3-8.4-6.3-8.4c3.6-1.8,12.3-9.8,18.7-15.9"/>
<path class="st3" d="M1213.5,27.5c0,0-13.7-7-23.7-15.7"/>
<path class="st3" d="M1203.8,37.5c0,0-23.3-28.3-39.8-31.7"/>
<path class="st4" d="M852.2-0.5c-9.5,11.5-25.8,30.4-32.7,34.3"/>
<path class="st4" d="M823.7,38.6c0,0,26.8-23.1,31.8-30.1s23-10,9,13s-30.6,28.8-30.6,28.8"/>
<path class="st4" d="M837.9,55.1c0,0,11.6-2.6,22.6-15.6s18-28,17-41"/>
<path class="st4" d="M829.4-0.5c-4.7,4.9-13.6,12.1-27.9,15.9"/>
<path class="st4" d="M795,9c0,0,18.1-3.5,27.5-9.5"/>
<path class="st3" d="M1009.4,0c6.6,2.9,28.7,12.2,42.1,10.5c10.8-1.3,30.9-7.4,42.9-11.2"/>
<path class="st3" d="M1074.3-0.2c-6.1,1.5-12.8,3-18.8,3.7c-9.5,1.2-23.9-1.5-34.1-3.9"/>
<path class="st3" d="M1021.3,19c0,0,42.1,7,51.7,0.3"/>
<path class="st3" d="M1026,25.8c0,0,23.9,5.9,37.2,1.8"/>
<path class="st3" d="M968.9-0.5C982,13,998.7,37,983.5,61.5c-23,37-47,1.7-78.5,49.4"/>
<path class="st3" d="M895.6-0.5c-0.1,5.7-0.8,11.4-2.1,17c-3,13-41.3,49.2-41.3,49.2"/>
<path class="st3" d="M902.5,106.5c0,0,8-17,25-24s36-4,45-14s15-30,10-40s-39,15-60,9s-25.1-11-25.1-11c4-10.8,5.1-20.6,5.3-27"/>
<path class="st3" d="M900.5,23.5c0,0,17,11,28,10s47-11,48-15c0.8-3.3-10.4-14.8-14.7-19"/>
<path class="st3" d="M888,36.7c0,0,28.5,18.8,49.5,14.8s7,20-12,22s-44,8-44,8"/>
<path class="st3" d="M884.5,40.6c0,0,25,15.9,38,14.9s17-1,20,1s-6,10-12,11s-54,10.1-54,10.1"/>
<path class="st3" d="M1010.9,96.7c-3.8-1.7-7.7-3.1-11.7-4.2c0,0-3.7-14.1,1.3-21.1s4-22,6-23s7-7,10,3s-7.9,32.8,5,41"/>
<path class="st3" d="M912.2,125c0,0,20.2-23.5,26.2-24.5s27,3,35-1s10-5,18-4c5.1,0.7,10.1,1.7,15,3.1"/>
<path class="st3" d="M994.9-0.2c-0.9,5.4-2,16.9,1.6,27.7c5,15,6,30,0,40c0,0-4,14.6-2,21c1.6,5-12.4,1.8-16,4c-10,6-30,1-40,4
	s-28,24.6-28,24.6"/>
<path class="st3" d="M998.4-0.2c-0.2,4.3-0.6,13.7,0.1,19.7c1,8,6,24,6,24s6-5,10-2s8,8,7,14s-3,20-1,26c1,3.3,2.5,6.4,4.3,9.3"/>
<path class="st3" d="M1012.5,6.7c0,0-1,15.8,9,27.8s13,52.2,13,52.2"/>
<path class="st3" d="M1016.7,12.4c0,0-0.2,12.1,7.8,18s14,43,14,43l0.5,11"/>
<path class="st3" d="M1049.6,63.2c0,0,3.9,9.3,3.4,15.3"/>
<path class="st3" d="M940.1-0.5c1.1,2.8,1.6,6.9-2.6,10c-7,5-25,1.8-25,1.8"/>
<path class="st3" d="M909.5,15c0,0,25,3.5,31-2.5C944,9,944.1,3.7,943.6,0"/>
<path class="st3" d="M602.8,48c0,0,3.6-4.8,9.5-11.8c9.7-1.1,19.2-3.2,28.4-6.4c0,0-9.4,35.6-10.8,43.7"/>
<path class="st3" d="M674.6-0.5c-3.9,6-13.3,19.3-24.2,25.9c0,0-13,30.5-13,42.8"/>
<path class="st3" d="M649.1-0.2c-11.6,9.1-22.6,20.3-31,29.7c0,0,24.4,3.9,49.9-30"/>
<path class="st3" d="M657.7,58.7c0,0,31.8-37.1,37.9-59.2"/>
<path class="st3" d="M701-0.2c-2.9,7-17.2,40.9-31.5,56.4"/>
<path class="st3" d="M493.5,8.7c0,0,13,23.8,33,24.8s30,0,48,4s23,4.3,23,4.3s21.6-24.7,39-42"/>
<path class="st3" d="M712.1-0.2c-0.4,1.6-1,3.2-1.6,4.7c-4,9-11,23-13,31s-0.2,8.9-0.2,8.9c-2.1,4.6-3.7,9.3-4.8,14.2"/>
<path class="st3" d="M728.3-0.2c1.3,6.6-0.2,14.2-9.8,19.7c-8.2,4.7-17,23-16,19c1.2-5,4-19,11-31c1.6-2.7,2.5-5.2,3.1-7.5"/>
<path class="st3" d="M699.2,60.7c-0.3-14.8,11.3-26.2,15.3-31.2s15-7,18-17c1.1-3.7,0.9-8.3,0.1-12.7"/>
<path class="st3" d="M767.7,0c1.3,5.9,2.7,16.1-2.2,19.5c-7,5-11,5-11,5l0.5,10.4c10.6,4.6,19.9,10.7,24,3.1
	c4.9-8.9,5.1-29.6,1.6-38.5"/>
<path class="st3" d="M748.7,0l2.8,19.5c0,0,11.9,0,11.4-19.5"/>
<path class="st3" d="M711.6,66.5c0,0,12.4-35.5,28.4-35.5c3.1,0.1,6.2,0.6,9.2,1.6c0,0-5.4-20.6-6.6-33.1"/>
<path class="st3" d="M738.6,89c0,0,1.9-8.5-0.1-21.5s-14.7-15.6-14.7-15.6c3.7-6.7,8.2-13.1,12.7-14.4c4.1-1.2,9.4,0.4,14.9,2.7
	c1.9,17.5,2.6,35.1,2.1,52.7"/>
<path class="st3" d="M821.5,62.2c-19-25.2-33.7-33.7-33.7-33.7c-0.2,2.4-0.3,3.9-0.3,3.9s-1,7.2-5.7,11.6c0,0,11.7,20.4,12.7,25.9"
	/>
<path class="st3" d="M758.6,89.5c1.1-9-1.9-47.1-1.9-47.1c6.3,2.8,12.7,5.5,17.7,5c0.6-0.1,1.3-0.2,1.9-0.3c0,0,13.2,18.3,13.1,24.9
	"/>
<path class="st3" d="M788,2.5c0.7,3.4,0.6,10.6,0.3,17c0,0,24.7,21,38.9,42"/>
<path class="st3" d="M715.9,69.1c0,0,2.1-5.6,5.2-12.1c0,0,17.2,3.5,13.8,27.5"/>
<path class="st3" d="M612.8,0c-1.3,2-2.6,3.8-3.3,4.5c0,0,14-3,18-2"/>
<path class="st3" d="M596-0.5c1.5,3.4,3.4,7,4.5,7c1,0,4.2-3.2,7.2-6.5"/>
<path class="st3" d="M506.6,0c4.4,5.2,12.7,12.7,24.4,12c18-1,44.2,4.2,44.2,4.2l21.3-7.7c0,0-2.2-4.8-4.5-8.9"/>
<path class="st3" d="M512.9-0.3c2,2.6,6.1,6.1,13.6,6.8c12,1,30,1.3,41.5,3.2"/>
<path class="st3" d="M508.7,132.4c0,0,17.8,7.1,37.8,3.1s39.7-14.5,39.7-14.5"/>
<path class="st3" d="M513,139.9c0,0,11.5,4.6,32.5,0.6s35.2-10.9,35.2-10.9"/>
<path class="st3" d="M521.2,154.8c0,0,12.3,2.7,23.3-0.3c7.8-2,15.7-3.6,23.7-4.7"/>
<path class="st3" d="M523.8,159.3c0,0,10.7,1.2,18.7-0.8s23.8-4.9,23.8-4.9"/>
<path class="st3" d="M442.5,0c-5.4,9.4-19.9,35.3-24,47.5c-5,15-5.9,18.3-5.9,18.3"/>
<path class="st3" d="M391.8,53.9c0,0,1.7-9.4,14.7-12.4c10.8-2.5,25-31.7,29.5-41.7"/>
<path class="st3" d="M395,55.4c0.5,0.1,8.5-10.9,15.5-8.9s-2,16.2-2,16.2"/>
<path class="st4" d="M426.5,76.6c0,0,4-20,7-27s9-15,13-17c0.8-0.4,1.6-0.8,2.6-1.4c0,0,1.4,3.4,12.4-3.6c0,0,12.4-7.5,18.7-7.2"/>
<path class="st4" d="M460.5-0.2c0.9,5.1,1.5,11.5,0,16.7c-1.7,5.7-7,8-7.7,12c0,0,13.7-12,31.7-12"/>
<path class="st4" d="M423.1,73.1c0,0,3.4-37.6,22.4-45.6c12.3-5.2,12.4-18.8,11-27.7"/>
<path class="st3" d="M355.8,44.5c0,0,4.7-15,1.7-23l12,3c0,0,4,0,3.4,2.9c-1.3,6.1-2,12.3-2.2,18.5"/>
<path class="st4" d="M440.9,69.6c0,0,6.9-26.1,22.2-30.6"/>
<path class="st4" d="M473.3-0.2c2,2.4,5,3.8,8.2,3.7c3.5,0,7.6-1.7,11.1-3.7"/>
<path class="st4" d="M579.4,20.5c0,0,33.6-13.2,42.9-13.6"/>
<path class="st3" d="M562,4.8c0,0,11.7-0.2,17.8-5"/>
<path class="st3" d="M0,125.2c7.4,4.4,18.6,7.3,34.5,3.3c35-9-4-24-4-31s15.8-11.3,15.8-11.3"/>
<path class="st3" d="M0.1,130.2c4.1,1.8,11.3,4.3,18.4,4.3c6.4,0,12.8-0.6,19-2c0,0,37-17,43-24"/>
<path class="st3" d="M0,111.2c4.6,2.7,10.4,4.4,14.5,0.3c8-8-1-17,6-25s11-7,11-7"/>
<path class="st3" d="M25.5,77.5c0,0-9,5-11,11s1,19-4,20c-2.4,0.5-6.8-1.2-10.6-3"/>
<line class="st3" x1="-0.1" y1="78.1" x2="8.2" y2="72.1"/>
<path class="st3" d="M123,161C79.5,80.5-0.1,70.5-0.1,70.5"/>
<path class="st3" d="M-0.1,148.3c6.1-2.8,22.4-8.7,37.6-0.8c19,10,26-12,37-18c6.3-3.5,13.1-6.1,20.2-7.6"/>
<path class="st3" d="M0,153.1c4.6-2.4,14.5-7.1,20.5-5.6c8,2,12,3,16,7s0,24.2,0,24.2"/>
<path class="st3" d="M41,179.4c0,0-0.5-19.9,2.5-22.9s10,0,16-4s11-15,17-19s21.8-6.8,21.8-6.8"/>
<path class="st3" d="M63.1,182.7c0,0-3.6-14.2,8.4-22.2s35.8-22.8,35.8-22.8"/>
<path class="st3" d="M109.9,141.2c0,0-9,5.1-18.6,11.4c0,0,15.6,19.7,17.4,24.7"/>
<path class="st3" d="M67.5,183.7c0-1.2-4-5.2,4-15.2c2.8-3.6,8.5-8,14.6-12.3c0,0,15.9,18.3,18.6,26.3"/>
<path class="st3" d="M153,0c-7,4.8-14.4,9.7-17.4,10.3"/>
<path class="st3" d="M132.7,4.3c0,0,4.5-1.8,9.9-4.3"/>
<path class="st3" d="M-0.1,23L4,39.7c0,0,15.5,10.8,17.5,18.8s0.2,17.3,0.2,17.3"/>
<path class="st3" d="M187,6.3c0,0,5.5,31.2,25.5,35.2s20.1,31.2,20.1,31.2"/>
<path class="st3" d="M221-0.2c5.6,14.4,12.9,34,13.5,40.7c1,11,3.5,33.2,3.5,33.2"/>
<path class="st3" d="M192.5,2.8c0,0,4,26.8,16,30.8s20,9,21,8c0.8-0.8-8.5-27-14.2-41.7"/>
<path class="st3" d="M262.1-0.2c0.3,4.4-0.2,11.5-4.6,17.7c-7,10-9,14-9,31c0.1,10.8,1.9,21.5,5.3,31.8"/>
<path class="st3" d="M244.7,76c0,0-7.2-37.5-0.2-51.5c5.9-11.8,12.5-13.7,12-24.7"/>
<path class="st3" d="M278.4-0.2c-5.2,10.3-12.6,27-11.9,38.7c1,18,9.9,47.7,9.9,47.7"/>
<path class="st3" d="M284.5-0.2c-3.1,7.6-12.9,32.1-12,39.7c1,9,9,40.1,9,40.1"/>
<path class="st3" d="M299.3-0.2c6.7,7.5,18.2,17.8,30,16.2"/>
<path class="st3" d="M308-0.3c4.6,4.8,11.9,11.1,18.3,10.6"/>
<path class="st4" d="M169.3,77.8c-6.2-10.7-3.5-32.2-3.5-32.2c5.2-1,10.4-1.4,15.7-1.1c5.1,0.3,9.5,3.6,13.1,7.8
	c0,0-6.1,19.5-15.6,23.3"/>
<path class="st4" d="M205.8,72.2c-2.2-5.8-5-11.4-8.5-16.5c0,0-5.5,14.1-9.1,17.9"/>
<path class="st3" d="M153.7,30c0,0,11.8-0.5,20.8-5.5s5.5-13.3,5.5-13.3"/>
<path class="st3" d="M165.2,21.7c3.5-0.3,6.6-2.5,7.9-5.7"/>
<path class="st3" d="M421.9-0.2c-2.4,5.1-4.6,10.3-6.4,15.7c-6,18-16,15-18,15s-14-2-16-6c0,0-5,7.2-5,23.6"/>
<path class="st3" d="M389.6-0.2c-0.8,4.7-2.1,9.2-4.1,12.7c-7,12,15,16,21,10c3.4-3.4,5.6-13.2,8.7-22.5"/>
<path class="st3" d="M358.9-0.2l-3.6,14.1c6.6,2.4,13.3,4.5,20.1,6.2c1.1-2.7,2.5-5.2,4.1-7.6c2.6-3.9,4.3-8.3,5.3-12.7"/>
<path class="st3" d="M332.8-0.5c2,4.8,9.6,9.1,17.8,12.6l3.6-12.3"/>
<path class="st3" d="M289.9,70.5c0,0-8.4-39,3.6-45s41.2-1,41.2-1c1.2-5,7.8-11,7.8-11c-7.9-3.2-12.7-10.7-14.3-13.7"/>
<path class="st3" d="M294.2,67.3c0,0-3.7-28.8-0.7-33.8s26,17.3,26,17.3"/>
<path class="st3" d="M323.8,49.4c0,0-20.3-18.9-22.3-19.9s2-3,10-3s25.8,1.5,25.8,1.5s5.2-10.5,10.2-12.5c0,0,9,3.6,4,29.3"/>
<path class="st4" d="M33-0.2c1.3,10.6,6,27.4,22.5,26.7c24-1,47-15,54-7s-37,15-34,22s73.5-1.2,73.5-1.2"/>
<path class="st3" d="M28.3,0c0.1,7.2,2,19.7,12.2,26.5c15,10,56-6,60-5s-30,12-31,16s-8,12,14,12s67.6-4.7,67.6-4.7
	s20.4-7.3,29.4-6.3s18,10,23,19c2.6,4.6,4.9,9.3,6.9,14.2"/>
<path class="st3" d="M15.9,14.9c0,0,6.6,21.6,16.6,24.6s21-2,22,8s-2.1,28.5-18,33.7"/>
<path class="st3" d="M12.3,22.4c0,0,5.2,18.1,13.2,21.1s19-1,23,2s0,19-5,27c-2.9,3.3-6.5,6-10.5,7.7"/>
<path class="st3" d="M49.3,87.7c0,0,19.2-9.2,16.2-18.2s15-9,15-9s33,2,31,22s16.3,13.3,16.3,13.3"/>
<path class="st3" d="M53,89.8c0,0,13.5-6.3,15.5-14.3s-1-10,5-11s25,2,31,8s0,16,4,20s7.3,8.3,13.2,7.7"/>
<path class="st3" d="M2.5,44.2c0,0,10,3.3,14,13.3s0.8,17,0.8,17"/>
<path class="st3" d="M69,99.7c0,0,2.5-10.2,17.5-6.2c8.9,2.4,16.3,8.4,20.3,16.7"/>
<path class="st3" d="M71.4,101.5c0,0,8.1-11,19.1-4s12.8,15.3,12.8,15.3"/>
<path class="st3" d="M143,88.4c0,0-10.5-3.9-13.5-10.9s-1-15,3-17s26.3,1.7,26.3,1.7"/>
<path class="st3" d="M151,84.7c0,0,0.5-8.2,6.5-10.2l6-2"/>
<path class="st4" d="M155,83.1c0,0,0.8-6.3,9.2-8"/>
<path class="st4" d="M121.7,0c-3,2.1-7.6,4.2-13.2,2.5c-4.9-1.5-10-5-18-2s-28,13-34,9c-3.9-2.6-5.2-6.8-5.7-9.5"/>
<path class="st4" d="M45.8,0c0.7,4.6,3,11.2,10.7,12.5c12,2,36-11,45-8c7.7,2.6,23.8,1.2,26.7-4.7"/>
<path class="st4" d="M136.9,13c0,0-23.4,17.5-13.4,19.5s21.9-0.7,21.9-0.7"/>
<path class="st3" d="M175.6-0.2c-13.5,10.5-34.9,21.5-34.9,21.5"/>
<path class="st3" d="M138.4,16.2c0,0-12.9,10.3-10.9,12.3s16.2-0.5,16.2-0.5c3.8-1.9,27.2-19,39.4-28"/>
<path class="st4" d="M169.4,238.5c-10.1,6-9.9,6-10.9,13c-0.9,5.9,1,15-33,17c-11.4,0.7-33.5,1-52.4-2.6c0,0,38.4-9.4,44.4-31.4
	s-5.2-33.5-5.2-33.5"/>
<path class="st4" d="M0.5,247.3c0,0,32.1,10.2,64.7,17c0,0,41.3-11.8,48.3-31.8S99.7,195,99.7,195"/>
<path class="st4" d="M0.5,228.5c0,0,29,9,59-2s29.5-31,25.8-37"/>
<path class="st4" d="M0.5,221.5c0,0,19,7,31,3s-2-16-16-20s-15-9.5-15-9.5"/>
<path class="st4" d="M0.5,189.5c0,0,8,11,26,15s16,18,16,18s13,2,24-6s15-12,15-19s-5.8-11.8-5.8-11.8"/>
<path class="st4" d="M202.3,266.6c0,0-14.8,32.9-50.8,40.9s-34-7-78,0c0,0,30.8,5.1,22,16"/>
<path class="st2" d="M159.3,327.3c0,0,16.2-0.8,27.2-11.8s30-22,30-22"/>
<path class="st2" d="M165.8,330.5c6.2-1.4,12.2-3.8,17.7-7c8-5,14.7-15.7,23.8-20.8"/>
<path class="st2" d="M506.5,251.5c-47-101-147-105-193-87c-29.2,11.4-67,32-67,32"/>
<path class="st6" d="M302.5,169c0,0,8,25.5,74,35.5c2.6,0.4,5.1,0.7,7.6,1c3.7,0.4-38.6-14-40.6-36c0,0-1.6-5.4,4.7-12.7"/>
<path class="st3" d="M297.1,171.4c0,0,5.4,19.1,33.4,26.1s56,52,55,101c0,0-1.3,14-3.2,27.5"/>
<path class="st4" d="M262.5,230.5c-10.2-32.2,24.4-31.4,24.4-31.4c11,3.2,23,8.4,33.6,16.4c3.6,2.8,7,5.9,10.1,9.3
	c0,0-43.1-19.3-48.1,30.7"/>
<path class="st3" d="M385.5,331.5c2.4-11.2,3.7-22.7,4-34.2c0,0,16-38.8,39-58.8s48.9-31.6,48.9-31.6"/>
<path class="st4" d="M474.6,203.8c-20.1,7.7-34,16.4-46.1,27.7l9.4-22.6c18.5-5.5,26-15.4,26-15.4"/>
<path class="st4" d="M423.7,236.2c-25.9,25.3-34.2,52.3-34.2,52.3c-4-67-35-83-35-83s19,7,57,7c7.2,0,14.3-0.7,21.3-2.3L423.7,236.2
	z"/>
<path class="st3" d="M258.3,190.3c0,0,65.7-0.7,94.2,56.2c21,42,14.2,56.2,14.2,56.2"/>
<path class="st3" d="M363,297.3c0.2-4-0.3-8-1.5-11.8c0,0-7.8-31.4-26.2-55c0,0-21.8-7.4-32.8-3.2s-15,28.2-15,28.2"/>
<path class="st3" d="M346.4,279.6c-4.1-36.9-38.9-35.6-38.9-35.6s-7-0.5-10,12.5"/>
<path class="st3" d="M341.3,275.6c-2.2-10.9-3.8-8.1-10.8-18.1s-23-7.9-23-7.9s-4-0.4-5,7.8"/>
<path class="st2" d="M392,344c0,0,9.5-52.5,37.5-81.5s58.9-42.1,58.9-42.1"/>
<path class="st4" d="M394,347.5c0,0,11.5-44,24.5-62s27-30,42-41c0,0-42,57-44.5,86"/>
<path class="st2" d="M419.9,328c1.4-18.5,46.6-86.5,48.6-89.5s22-15.1,22-15.1"/>
<path class="st3" d="M443.3,178.5c0,0-1.8,8-15.8,12s-32-4-47-15s-8.3-18.7-8.3-18.7s10.3-15.3,10.3-21.3s-2-7-2-7s6-8,6-12
	s22.5-0.9,22.5-0.9"/>
<path class="st3" d="M496.6,232.8c0,0-52.6,42.7-51.3,81.2"/>
<path class="st4" d="M506.5,251.5c-24,5-54.5,48.2-54.5,48.2c2.6-6.3,7.1-13.5,12.5-24.2c9-18,34.4-38.8,34.4-38.8s7,5.8,15.8,3.8"
	/>
<path class="st3" d="M50.4,88.4c0,0-14.9,4.1-13.9,9.1s18,18,21,18s19.2-10,19.2-10"/>
<path class="st3" d="M535.5,164.2c0,0,10.5,20.8,51.8,1.5"/>
<path class="st3" d="M531.2,166.5c0,0,2.2,8,16.2,11s44.8-8.4,44.8-8.4"/>
<path class="st3" d="M501.8,190c0,0,0.8,12.5,25.8,15.5s86-18.5,86-18.5"/>
<path class="st3" d="M488.4,203.9c0,0,5.1,17.6,26.1,17.6s68-12,82-12s31.5-7.2,31.5-7.2"/>
<path class="st3" d="M485.8,208.2c3.1,6.9,8.7,12.4,15.8,15.2c12,5,68-5,76-6s31-3,43-6c3.9-1.3,7.8-2.8,11.5-4.6"/>
<path class="st2" d="M495.3,230.7c0,0,9.9,8.2,23.1,6"/>
<path class="st3" d="M566.9,233.1c0,0,60.1-5.1,71.8-18.9"/>
<path class="st3" d="M570.6,236.7c0,0,31.9-2.2,49.9-9.2s20.2-10.9,20.2-10.9"/>
<path class="st3" d="M580.5,248.6c0,0,25-0.1,44-8.1s22-16.1,22-16.1"/>
<path class="st3" d="M583.6,253.4c14.9,0.1,29.6-3.3,42.9-9.9c22-11,22-16.8,22-16.8"/>
<path class="st2" d="M588.9,263.2c0,0,28.6-1.8,44.6-9.8s21.6-18.4,21.6-18.4"/>
<path class="st3" d="M591,268.2c0,0,29.5-2.7,44.5-10.7s21.8-19.5,21.8-19.5s22.2,13.5,35.2,12.5S709,246,709,246"/>
<path class="st2" d="M596.5,281.5c4.7-0.6,9.2-2.2,13.2-4.8"/>
<path class="st2" d="M665.2,249.2c-1,1.8-2.6,3.1-4.5,3.9"/>
<path class="st2" d="M863.5,305.5c0,0-29-30-78-34c0,0,6-9,2-22s-23-35.5-48.5-41.2"/>
<path class="st3" d="M712.8,240.1c0,0,22.1,25.6,67.7,30.9c0,0,18.1-33.8-44.9-59.1"/>
<path class="st3" d="M710.2,244c11.8,11.1,25.9,19.5,41.2,24.5c25,8,55,9,59,13s-8.2,38.5-50.1,11.2"/>
<path class="st3" d="M766.6,300.6c0,0,8.9,7.9,24.9,6.9s22-15,22-15s1-8,4-8s30,10.5,43,23.8"/>
<path class="st3" d="M780.7,320.8c0,0,38.8-22,65.8-1.7"/>
<path class="st3" d="M843.5,322.5c0,0-16-10-32-7c-9.8,1.9-19.4,4.6-28.7,8.3"/>
<path class="st2" d="M793.8,340.7c0,0,14.7-9.2,19.7-7.2s6,1,6,7s-1.2,7.8-1.2,7.8"/>
<path class="st2" d="M754.5,197.2c10,2.8,55,28.2,55,28.2s-13,25,10,34s52.8,40.1,52.8,40.1"/>
<path class="st2" d="M759.2,193.6c0,0,45.1,23,52.3,25.9c5,2,10-3,25-4s48.8,29.1,61.9,44.5"/>
<path class="st3" d="M875.9,297.4c0,0-29.4-34.1-47.4-40.9c-16-6-22-18-15-27s20.9-9.7,27-8c18,5,62,45.7,62,45.7"/>
<path class="st3" d="M785.4,183.8c0,0,29.1,13.8,48.1,15.8s23.9,5.6,23.9,5.6"/>
<path class="st3" d="M1159.7,419c0,0,56-79,104.7-92"/>
<path class="st3" d="M1276.5,328.5c-26.4,2.4-61,35-85.1,61.6"/>
<path class="st3" d="M1185.6,396.6c1.9-2.1,3.8-4.3,5.8-6.5"/>
<path class="st3" d="M1162.7,424.5c0,0,9.1-12.2,22.9-27.9"/>
<path class="st3" d="M1287,332c0,0-101,83.6-106,90.8s-5,12.2-5,12.2"/>
<path class="st3" d="M1293.7,334c0,0-103.2,83.5-107.2,89.5s-3.5,8.3-3.5,8.3"/>
<path class="st3" d="M1216.5,422.2c0,0,60.5-56.2,83.5-68.2c0,0,15-7,23-6"/>
<path class="st3" d="M1224.3,422.2c0,0,71.2-61.7,84.2-64.7c8.1-1.8,16.3-2.9,24.5-3.3"/>
<path class="st3" d="M1244.7,423.7c0,0,60.3-37.7,70.3-45.7s26-11.3,34.5-8.2"/>
<path class="st4" d="M1076,319.8c8.5,2.5,17.5,2.6,26,0.2c14-4,28-41,45-46s17,12,17,12s5,32,22,41s23,8,35,5s22-22.8,22-22.8"/>
<path class="st4" d="M1093.5,334.1c0,0,25.5-0.1,34.5-13.1s20-18,25-6s-27,53.6-27,53.6"/>
<path class="st4" d="M1134,379.5c0,0,16.5-27,30.5-32s40.5,0,40.5,0"/>
<path class="st4" d="M1099.5,339.8c0,0,28-8.2,34-13.2s3-16,11-12s-14,40-14,40l-7.6,10.2"/>
<path class="st4" d="M1136.8,383.5c0,0,18.2-29.5,29.2-31.5s33.3,0,33.3,0"/>
<path class="st4" d="M1176,238.8c0,0,5.5,62.8,19.5,71.8s21,4,29-2s7-16.5,7-16.5"/>
<path class="st4" d="M1181.5,241.5c0,0,9.5,55.5,16.5,62.5s16,7,21,3s8-6,10-19"/>
<path class="st4" d="M1161.2,234.8c0,0-25.2,13.2-40.2,36.2s-37,35-41,26"/>
<path class="st4" d="M1082.2,293.2c0,0,6.2,2.2,17.2-6.8s21-24,33-35c6.5-6.1,13.6-11.7,21-16.8"/>
<path class="st4" d="M1195.2,251.2c0,0,6.8,31.8,11.8,35.8s15.5,2.5,16.2-5.2"/>
<path class="st4" d="M1201.2,256.2c0,0,6.2,24.2,10.2,26.2s7.5,3,9.2-4"/>
<path class="st4" d="M1145.5,396.5c0,0,22-32.5,36-26.8"/>
<path class="st4" d="M1148.5,400.2c0,0,14.5-20.2,18.5-21.2s9-4.5,9-4.5"/>
<path class="st3" d="M628,176c0,0,20.5,56.5,57.5,53.5s39.6-7.1,39.6-7.1"/>
<path class="st3" d="M632.8,170.8c0,0,21.2,48.2,42.2,53.2s57.5-9,57.5-9"/>
<path class="st3" d="M645.3,157.5c0,0,36.2,46,57.2,33s46.3-8.3,46.7,9.8"/>
<path class="st3" d="M648.5,154.8c0,0,33,37.7,46,32.7s20-13,35-11s27,3.1,25,21"/>
<path class="st3" d="M791,154.8c0,0-19,11.2-22,20.2s0,13.5,0,13.5"/>
<path class="st3" d="M797,159.5c0,0-21.5,12-22.5,19s1.3,8,1.3,8"/>
<path class="st3" d="M660.8,146.2c0,0,27.2,27.8,45.2,21.8s24-13,37-11s31.7-2,36.3-10"/>
<path class="st3" d="M666.2,143.5c0,0,24.3,22,34.3,20s23-10,32-11s23-1,32-4s9.8-4.3,9.8-4.3"/>
<path class="st3" d="M652.8,232.2c0,0,25.2,13.8,37.2,13.8c7.4-0.1,14.7-1.6,21.5-4.6"/>
<path class="st3" d="M682.7,136.2c0,0,20.8,17.2,48.8,10.2s23.2-10.2,23.2-10.2"/>
<path class="st3" d="M747.8,134.2c-4.2,6.2-15.8,5.8-26.8,7.8s-31.5-7.8-31.5-7.8s18-9.8,20-26.8s0-41.8,0-41.8"/>
<path class="st3" d="M673.7,56.2c0,0-31.7,41.8-26.7,63.8s28,1,36-13s9.5-48.2,9.5-48.2"/>
<path class="st3" d="M658.7,147.5c0,0-9.2-7-8.2-10c0,0,9,1,19-6s20-19,23-28s4.8-43.8,4.8-43.8"/>
<path class="st4" d="M626.7,178c0,0-19.7-28-19.7-49c-0.7-6.5-0.9-13-0.5-19.5c0,0,9,12,18,15s14.9,1.5,14.9,1.5
	c2,18.4,14.2,24.7,14.2,24.7"/>
<path class="st3" d="M699.2,132c6.1-4,10.7-9.7,13.3-16.5c4-11,1-47.8,1-47.8"/>
<path class="st3" d="M720,130.3c0,0,13-14.3,13-31.3s-4-19.3-4-19.3"/>
<path class="st3" d="M736.5,86.7c0,0,2,13.8,0,24.8c-0.3,1.9-0.9,3.7-1.6,5.4c0,0,15.6,2.6,20.1-3.4"/>
<path class="st3" d="M725.8,130.3c2.7-2.6,4.9-5.5,6.8-8.7c0,0,19.1,4.1,26-2.5"/>
<path class="st3" d="M588.3,117.8c0,0,3.2,50.7,15.2,59.2"/>
<path class="st3" d="M584.3,123.5c0,0,1.2,33.7,10.2,46.3"/>
<path class="st4" d="M507.5,184.5c0,0-17.5-9.5-44.5-18.5c-3.9-1.2-7.8-2.7-11.5-4.6c0,0-1,10.1,1,14.1s6.5,14,6.5,14
	s-13.7,20.7-66,16.9c0,0-68.6-34.3-36.1-50.1"/>
<path class="st3" d="M445.2,158.1c0.5,0.3,1.1,0.7,1.7,1c0,0-3.6,12.4,5.5,25.4"/>
<path class="st3" d="M459,71c0,0,7,40-16,55c-17.2,11.2-12.6,23.1,2.2,32.1"/>
<path class="st4" d="M512,180c0,0-1-2-12-6s-54-20-60-25s-1-12,0-14c0.8-1.6,7.6-4.6,14.4-14.8c0,0,1.1,11.3,9.1,13.3s9-4,10-12
	s1.3-30,6.7-33"/>
<path class="st3" d="M463.5,72.2c0,0,3.5,22.8-4.5,39.8c-0.6,1.4-1.3,2.6-2,3.8c0,0,2.5,14.7,7.5,14.7s7-34,9-38s3.9-8.2,3.9-8.2"/>
<path class="st3" d="M605.8,179.5l-37.2,14c0,0-33,8-42,0C517.1,185.2,516,177,516,177s-4-20-21-32s-10.2-49.8-10.2-49.8
	s18.7,17.3,56.7,10.3s62.3-7.5,62.3-7.5c-12.3,51.5,19.9,83.6,19.9,83.6"/>
<path class="st3" d="M489.5,101.8c0,0-2.5,18.2,1.5,28.2s14,15,17,20s7,10,8,13c2.6-2.3,4.3-5.5,4.5-9"/>
<path class="st3" d="M523.4,158.1c-1.2,3.1-2.7,6.1-4.4,8.9l1.5,6.9c0,0,2,18.6,27,17.6s53.5-15.8,53.5-15.8"/>
<path class="st3" d="M397.7,136.5c0,0,31.3-19.5,36.3-34.5s3.1-21.7,3.1-21.7"/>
<path class="st3" d="M441.8,76.6c0,0,0.2,22.4-4.8,31.4s-29,26-30,31s18.1,30.1,18.1,30.1"/>
<path class="st3" d="M396.5,140.4l5-0.9c0,0,13.3,24.8,14.1,25.9"/>
<path class="st3" d="M853,65.7c0,0-25,13.3-29,25.3s31,40,35,56c0.6,2.6,1.2,5.2,1.5,7.8c0,0,10,8.7,9-2.3c-0.8-7.7-2-15.4-3.5-22.9
	c-7.2-10.6-15.3-20.9-17-27.6c-3-12,21-28.2,21-28.2"/>
<path class="st3" d="M875,76.2c0,0-18.5,10.2-19.5,21.2C854.1,112.6,871,121,876,132s8,20,9,28c0,0,0,12.2,10.8,10.8"/>
<path class="st3" d="M882,82c0,0,1,32,9,40s14,29,14,39"/>
<path class="st3" d="M888,87.8c0,0,0.5,21.8,5.5,27.8s14,27,15,35l1,7"/>
<path class="st4" d="M889.5,178.3c0,0,18.5-9.3,27.5-9.3s-11,15-18,17s-18.5,2.5-18.5,2.5S880,170,878,154
	c-0.7-5.8-0.4-8.7-4.8-15.7c0,0,1.3,21.2-0.7,25.2s-11.1,0.2-11.1,0.2c0.5,10.5-1,20.1-4.4,25.3c-5.5,8.5-7.2,10-7.2,10"/>
<path class="st4" d="M877.7,193.6c0,0,28.3-1.6,33.3-5.6s15-14,18-16s21,7,21,7s-38.5,13.5-35,23c0,0,4,6,0,8c-2,1-33.5,0-42.8-9.5"
	/>
<path class="st4" d="M869.5,205.1c0,0,24,17.4,44,11.4s10-16,10-16s17-4,28,6s-72.3,23.2-72.3,23.2"/>
<path class="st4" d="M927.5,194.5c0,0,19-11,29-13c0,0,14,5,19,12s-15,12-15,12S945.5,192.5,927.5,194.5z"/>
<path class="st3" d="M971.8,130.9c-13.8,2.4-17.7,10-17.7,10c4.4,0.3,8.7,1,13,2.1c19,5,27,6,32,21c0,0,2.5,9.5-5.5,21.5l-8,8
	c0,0,23,8,27-2s5.5-22,3-33"/>
<path class="st3" d="M927.5,142.5c6.1-1.2,12.3-1.8,18.5-1.9c0,0,4-6.6,16.8-10.3"/>
<path class="st4" d="M1009.7,202.2c-9.9,0.7-24.7-2.2-24.7-2.2s-23.5,13.5-35.5,18.5c0,0,28,9,43-1c3.8-2.5,17-9,17-15"/>
<path class="st4" d="M1011.5,211.3c-6,6.3,13.6,8.2,19,9.2c11,2,36,3.5,36,3.5s-7.7-10.2-16.5-12c-6.5-1.3-22.3-8.9-33.3-10
	C1015.7,205.5,1014,208.7,1011.5,211.3z"/>
<path class="st4" d="M882,234.8c0,0,53-12.8,64-10.8s23,7,36,4s18-7,25-6s-1,16-17,17s-35-4-58,0c-13.4,2.3-26.7,5.4-39.8,9.4"/>
<path class="st3" d="M1021,163.7c0,0,0.5,22.8-2.5,29.8s23,6.5,37.5,14.8c0,0,25.5-0.9,30.5,8.7"/>
<path class="st4" d="M895,253c0,0,8.4-2.5,17.8-4.6c0,0-7.8,29.2,8.9,30.6"/>
<path class="st4" d="M1066.5,312.3c-11.2-12.7-19.9-27.4-25.5-43.3c-1.8-4.9-5-9.1-9.3-12.1c0,0-5.2,14.6-18.2,18.6s-18,4-18,4"/>
<path class="st4" d="M1026.5,253.5c-18-10-47-9-47-9h-30c-3.7-0.8-23.9,1.6-30.2,2.6c0,0-2.8,16.4,0.2,21.4s15.8,4.6,15.8,4.6
	l46.4,0.5c0,0,35.8,8,45.1-19.8"/>
<path class="st4" d="M1070.5,229.7c-9.5,3.7-52.5-4.7-52.5-4.7c-1,12-13,15-13,15s24.5,5.5,30.5,12.5s11,12,14,23s34,20,23-7
	s5-27.5,5-27.5"/>
<path class="st4" d="M1072.5,310.5c0,0-12-14-15-20s9,6,15,2s10-7,7-19s-9-20-5-25s7.8-0.1,7.8-0.1"/>
<path class="st3" d="M157.4,82.2c0,0,41.1,4.3,56.1,28.3s38.8,83,38.8,83s4.5-1.7,20.2,2c0,0-17.5,4-15.8,22"/>
<path class="st3" d="M194,73.7c0,0,28,7.3,38,25.3s39.2,84.7,39.2,84.7"/>
<path class="st3" d="M205,72.2c0,0,22.5,5.2,30.5,16.2s40.9,92.7,40.9,92.7"/>
<path class="st3" d="M116.8,103.2c0,0,34.2,10.8,42.2,19.8s13,14.7,13,14.7"/>
<path class="st3" d="M109.9,108.4c0,0,31.6,10.1,40.6,18.1s10.9,11.8,10.9,11.8"/>
<path class="st3" d="M94.7,121.9c0,0,37.4,16,45.1,25.8"/>
<path class="st3" d="M255.4,81.2c0,0,19.1,33.3,23.1,58.3s9.8,36,9.8,36"/>
<path class="st3" d="M264.3,86.2c0,0,9.7,20.8,14.7,33.8s10.7,50.2,14.4,53.1"/>
<path class="st3" d="M289.9,106.2c0,0,17.7,43.2,21.9,59"/>
<path class="st3" d="M1097.5,202.5c0,0,58.2-73,139.8-60.2"/>
<path class="st3" d="M1082.2,223.4c0,0,48.2-45.9,80.2-62.9s82.2-13,82.2-13"/>
<path class="st4" d="M1291.5,195.5c0,0-22,31-42,26c-12.1-3-32-4.2-52.2-4.2c0,0-2.8-7.8,17.2-16.8s65.1-19,65.1-19"/>
<path class="st4" d="M1086.5,255.6c0,0,44-35.1,73-37.1c8.6-0.6,18.3-1,28.2-1.2c0,0-2.2-13.8,23.8-23.8s62.9-17.9,62.9-17.9"/>
<path class="st4" d="M1295.7,201.8c-4.4,5-8.4,10.4-11.7,16.2c-5,9-22,13-39,10c-7.5-1.3-23.7-2.5-41.2-2.9c0,0-1.4,18,44.7,46.4"/>
<path class="st4" d="M1089.7,261c0,0,35.3-28,56.3-33c9.7-2.3,28.1-3.1,46.7-3c0,0,9.8,33.7,50.3,50.6"/>
<path class="st4" d="M1262.2,262c0,0-0.2-11,16.8-21c10.6-6.3,20.7-13.6,30-21.8"/>
<path class="st4" d="M1118.9,177.6c0,0-41.4,3.9-80.4-15.1c-8.9-4.4-19.7-12.8-29.7-21.6"/>
<path class="st4" d="M1004.2,136.7c1.5,1.4,3,2.8,4.6,4.1"/>
<path class="st4" d="M978.3,110.9c0,0,11.6,12.7,25.9,25.9"/>
<path class="st4" d="M1120.6,79.7c0,0,4.9,46.8-14.1,68.8c-14.8,17.1-53,7.6-69.4,2.6c0,0-27.2-42.6-10.4-61.1"/>
<path class="st4" d="M985.4,108c0,0,39.1,39.5,44.1,40.5c0,0-22.5-35.7-11.2-54.8"/>
<path class="st4" d="M1126.5,83.7v29.8c0,0-4,37-29,47s-53-2-53-2s31,15,52,14s28.3-1.2,28.3-1.2"/>
<path class="st4" d="M1038.4,85c0,0-11.4,54,28.6,59s39-54,39-54s-1.3-13.7,5.3-16.3"/>
<path class="st4" d="M1097.5,98.5c-1.2,12.1-2.6,23.6-10.5,31.5c-12,12-24,6-34,1c0,0,3.5-29.5,6.5-38.5s9.8-21.3,9.8-21.3"/>
<path class="st4" d="M1105.7,70.3c0,0-2.2,2.2-4.2,8.2c-0.5,2.6-0.8,5.3-1,8c0,0-4-15.7-11-20.3"/>
<path class="st4" d="M1044.5,82c0,0-1,29.6,4.2,43c0,0,2.2-37.2,14.5-51.3"/>
<path class="st4" d="M1135,161c0,0-11-14,3-33s10.3-26,10.3-26"/>
<path class="st4" d="M1139.8,157c-2-3.8-2.5-8.3-1.3-12.5c2-7,13-19,15-24c1.3-3.7,2.1-7.6,2.2-11.5"/>
<path class="st4" d="M1081.5,66.2c0,0,14.3,8.4,16,32.3"/>
<path class="st4" d="M1107,191c0,0-57.5,3.5-74.8-14.3"/>
<path class="st4" d="M1042.8,190c0,0,37.9,13.5,59.1,7.2"/>
<path class="st4" d="M964.5,116.2c2.9,5.5,6.4,10.6,10.5,15.2"/>
<path class="st4" d="M958.5,119c1.6,4.3,4.2,8.1,7.5,11.3"/>
<path class="st4" d="M940.6,135.6c0,0-5.1-1.9-6.9-6.2"/>
<path class="st4" d="M935.6,137.6c0,0-5.1-1.9-6.9-6.2"/>
<path class="st3" d="M1060.7,214.5c0,0,13.5-2.7,22.7,6.2"/>
<path class="st3" d="M1167.4,121.3c0,0,19.1-8.8,33.1-7.8c0,0,5.8-0.8,10.9-1.4"/>
<path class="st3" d="M1173.8,128.1c0,0,16.8-7.9,25.2-1.8"/>
<path class="st3" d="M474.6,26.3c0,0,17.9,40.2,48.9,38.2s42-8,61-2s29,2.1,29,2.1"/>
<path class="st3" d="M478.2,22.5c0,0,19.3,36,36.3,37s42-7,54-5s23,6,29,6c4.2,0,8.4-0.3,12.5-0.8"/>
<path class="st3" d="M460,43.2c0,0-2.5,34.2,37.5,39.2s48-7,70-4s50,5.2,50,5.2"/>
<path class="st3" d="M454.7,50.3c0,0,1.5,15.2,11.2,23.2"/>
<path class="st4" d="M476.4,82.8c0,0,19.1,9.8,57.1,5.8c0,0,16-4,26-5c11-1.1,52,6,52,6c-2.6,3.7-2,8.3-2.8,15.2
	c0,0,9.8,14.8,17.8,15.8c4.2,0.6,8.4,0.7,12.7,0.2c0.1-4.9,0.7-9.9,1.8-14.7c8-34,25.2-49,25.2-49"/>
<path class="st4" d="M443.3,65.8c0,0,1.2,4.2,6.7,6.4"/>
<path class="st4" d="M440,71c1,1.8,2.6,3.3,4.5,4.2"/>
<path class="st3" d="M490.3,103.3c7.4,5.9,16.7,9.2,26.2,9.2c16,0,44-6,53-7s30.3-2.2,30.3-2.2"/>
<path class="st3" d="M488.7,12.3c0,0,12.8,27.2,49.8,26.2s50.7,10.7,61.3,6.3"/>
<path class="st3" d="M301.7,118.3l8.6-16.7c4.9,1.7,10.1,2.7,15.3,2.9c2.1,0.1,4.1,0.1,6,0.1c0,0-13.6,25.9-13.3,34.9"/>
<path class="st3" d="M325.2,149.9c0,0,68.3-25.4,51.3-39.4c-14.3-11.8-20.8-7.3-39.3-6.1c0,0-14.8,25.6-15.8,40.3"/>
<path class="st6" d="M281.5,80.3c6.4,8.5,14.9,15.3,24.6,19.7l-7.9,14.6c0,0,17.5,40.7,18.4,48.8"/>
<path class="st3" d="M285.7,76.6c0,0,10.8,16,20.8,19s-6.6-32-6.6-32"/>
<path class="st4" d="M303.9,60.5c0,0,11.1,25.5,11.1,30.5s-2,6-2,6s9,4,17,2s15.1-34.4,8-53.2"/>
<path class="st3" d="M342.5,44.8c2,8.1,3.3,16.4,4,24.7c1,13-8,30-8,30s21-3,27-1s11-24,10-29s-21-12.4-21-24.7"/>
<path class="st3" d="M327,153.8c0,0,27-8.8,33-12.8s13-12,17-8s-9.3,23.3-9.3,23.3s-12.2,8.2,3.8,20.2s41,23,61,17s15-12.3,15-12.3"
	/>
<path class="st3" d="M411.1,112c0,0-19.6-2.5-24.6-1.5s-14-10-14-10s6-16,7-20s39,14,39.5,19"/>
<path class="st3" d="M421.9,96c0,0-22.4-19.5-42.4-20.5c0,0,0-6,1-7s32.1,14.3,42.6,5.2"/>
<path class="st3" d="M358.9,44.8c0,0,3.6,11.7,17.6,16.7s27,12,36,11c0,0,4,0,6.5-1.5"/>
<line class="st3" x1="587.5" y1="29.5" x2="602.6" y2="24"/>
<circle class="st3" cx="1115.8" cy="787.2" r="6.2"/>
<circle class="st3" cx="1127.8" cy="787.7" r="1.7"/>
<circle class="st3" cx="1135.8" cy="787.2" r="6.2"/>
<circle class="st3" cx="1115.8" cy="787.2" r="0.4"/>
<circle class="st3" cx="1135.8" cy="787.2" r="0.4"/>
<polyline class="st3" points="1132,776 1127.8,787.7 1118.7,779.3 "/>
<path class="st3" d="M1115.3,787.7l4.2-11.7c0,0-4.2-0.8-4.2,0.8c0,0.8,1.7,1.7,1.7,1.7"/>
<polyline class="st3" points="1118.8,778.1 1131.2,777.7 1136.2,787.7 "/>
<path class="st3" d="M1129.5,774.3h4.2c0.5,0,0.8,0.4,0.8,0.8v0c0,0.5-0.4,0.8-0.8,0.8h-4.2c-0.5,0-0.8-0.4-0.8-0.8v0
	C1128.7,774.7,1129,774.3,1129.5,774.3z"/>
<polyline class="st3" points="1127.8,787.7 1124.5,790.2 1123.7,789.3 "/>
<path d="M1130.9,766.2l-0.3-0.2c-0.6-0.4-1.3-0.7-2-1c-2.3-0.8-5,0-7.3,0.4c-0.4,0.1-0.8,0.1-1.2,0.1c-0.4-0.1-0.9-0.3-1.3-0.5
	c-1.1-0.6-2.3-0.7-3.4-0.5c-1.2,0.3-2.1,1.3-2.2,2.5c0,0.3,0,0.5,0.1,0.8c0.3,0.7,1.1,1.1,1.9,1c0.8-0.1,1.5-0.4,2.1-0.8
	c0.6-0.4,1.4-0.7,2.1-0.8c2.6-0.2,4.5,2.7,5.1,4.9c0.1,0.2,0.1,0.4,0,0.6c-0.1,0.2-0.2,0.3-0.4,0.4c-0.7,0.5-1.4,0.9-2.2,1.2
	c-1.4,0.4-2.9,0-4.2,0.4c-0.3,0.1-0.6,0.2-0.8,0.5c-0.2,0.3-0.1,0.6,0.1,0.8c0.2,0.1,0.4,0.1,0.7,0l6.3-1.4c0.6-0.1,1.1-0.3,1.6-0.5
	c0.5-0.3,0.9-0.7,1-1.3c0.1-0.8-0.7-2.7,0.6-2.8c0.8-0.1,1.8,0.7,1.4,1.5c-0.7,1-1.6,1.8-2.7,2.2c-1.1,0.5-2.1,1.1-3.1,1.8
	c-1,0.7-1.5,1.9-1.5,3.1c0.1,0.5,0.2,1.1,0.5,1.6c0.4,1,0.9,2.1,1.4,3.1c0.5,1.1,1,2.2,1.2,3.3c0.1,0.6,0.2,1.2,0.1,1.8
	c0,0.3-0.5,1-0.2,1.2c0.8,0.7,1.1-1.2,1.2-1.5c0.2-2.4,0.4-4.9-0.4-7.2c-0.3-0.6-0.5-1.2-0.7-1.8c-0.2-0.6-0.1-1.3,0.3-1.8
	c0.5-0.5,1-0.8,1.6-0.9c1.1-0.5,2.2-1.2,3.4-1.5c1.2-0.2,2.4-0.3,3.7-0.2c0.8,0,1.5-0.3,2.1-0.8c1.3-1.2,0.2-2.9-0.5-4.1
	C1133.9,768.1,1132.2,767.1,1130.9,766.2z"/>
</svg>
