<svg id="Layer_1" data-name="Layer 1" xmlns="http://www.w3.org/2000/svg" xmlns:xlink="http://www.w3.org/1999/xlink" viewBox="0 0 1363 840"><defs><style>.cls-1,.cls-5,.cls-6,.cls-8{fill:none;}.cls-2,.cls-4,.cls-7{fill:#c1e8c5;}.cls-3{clip-path:url(#clip-path);}.cls-4,.cls-5,.cls-6,.cls-7,.cls-8{stroke:#000;}.cls-4,.cls-5{stroke-miterlimit:10;}.cls-6,.cls-7,.cls-8{stroke-linejoin:round;}.cls-8{stroke-linecap:round;}</style><clipPath id="clip-path"><rect class="cls-1" width="1363" height="839"/></clipPath></defs><title>landscape-05</title><rect class="cls-2" width="1363" height="840"/><g class="cls-3"><path class="cls-4" d="M63.47,270.29c-.12-32.6,57.05-132.17,104.18-132.66,69.94-.72,89.54,91.78,110.79,125.45"/><path class="cls-5" d="M73.07,235.88S80.5,249.5,82.5,248.5c0,0-2-8,9-17s15-22,15-27-3.59-19.61-3.59-19.61"/><path class="cls-6" d="M210.41,224.46c1.46,1.4,7.06,3.18,5,4.35-4.11,2.32-13.89,2.69-35.89,3.69s-16.25,16.26-16.25,16.26c-15.78,1-33.24,3.51-34.75-.26-2-5,6-15,6-15s11-18,8-29c-1.09-4-1.86-6-6-12,0,0,3,3,14,1s28-12,36-10,19.75,20.55,19.75,20.55a21.1,21.1,0,0,0-1.75,2.45,9.42,9.42,0,0,0-1.52,6.42S153.5,207.5,142.5,227.5s4,3,4,3,5-10,24-12a288.25,288.25,0,0,1,33.79-1.62,30.47,30.47,0,0,0,6.12,7.58"/><path class="cls-6" d="M216.46,293.46s1-17-4-29-18-15-35-16c-2.08-.12-4.37-.14-6.77-.09,0,0-3.23-5.91,1.77-7.91s29-1,38-3,11-4,11-4c15,11,9,47,9,47"/><path class="cls-6" d="M174.5,254.5s20-2,30,7,7,32,7,32"/><path class="cls-6" d="M106.6,180.07s8.9,22.43-.1,38.43-24,24-19,31,16,8,23,16a13.5,13.5,0,0,1,2.55,4.77s10.45,6.23,16.45,1.23,6.75-13.73,6.75-13.73c-8.54-.11-14.41-1.52-14.75-6.27-1-14,21-30,16-44s-23.64-36.18-23.64-36.18"/><path class="cls-4" d="M-.5,185.88s75.23-43.6,214.11,91.51S-.5,394.34-.5,394.34"/><path class="cls-2" d="M269.74,440.56c-50.49,0-117.63-3.4-117.74-32.82-.06-19,18.05-56.71,43.06-89.63,29.82-39.22,61.61-61.86,87.23-62.11h1c66.37,0,96.47,62.44,118.45,108,6.89,14.31,12.85,26.66,19,35.65a5.88,5.88,0,0,1,.37,6.54c-8.75,16.75-84,34-121.1,34.14-3.27,0-6.92,0-10.86.09C283.39,440.49,276.74,440.56,269.74,440.56Z"/><path d="M283.36,255.49v1c29.25,0,53.89,11.93,75.32,36.47,18.51,21.19,31.34,47.8,42.65,71.28,6.91,14.32,12.87,26.69,19.1,35.71a5.43,5.43,0,0,1,.34,6c-8.69,16.62-83.69,33.74-120.67,33.87-3.26,0-6.91,0-10.85.09-5.87.05-12.51.12-19.51.12-21.43,0-52.75-.55-77.25-5.32-26.49-5.14-39.94-14.23-40-27-.06-18.62,18.41-57,43-89.33,29.72-39.1,61.37-61.66,86.84-61.91h1l0-1m0,0h-1c-59.15.58-130.92,114.83-130.79,152.24.11,30.21,69.27,33.32,118.24,33.32,11.67,0,22.2-.18,30.37-.21,42.44-.15,134.28-22.43,121.14-41.47-26.54-38.46-51-143.9-137.91-143.89Z"/><path class="cls-2" d="M535,383.74c-29.13,0-67.86-3-68-28.53-.11-30.91,40.05-131,74.11-131.43h.53c37.8,0,55.07,54.18,67.68,93.74,4,12.41,7.37,23.13,10.93,30.93,1.18,2.6.83,5.4-1,8.33-4,6.2-14.78,12.94-29.65,18.5-13.62,5.09-28.2,8.28-38.06,8.31l-6.21.06C542.15,383.69,538.67,383.74,535,383.74Z"/><path d="M541.67,223.28v1c37.43,0,54.63,54,67.19,93.39,4,12.43,7.39,23.16,10.95,31,1.12,2.46.79,5-1,7.85-3.91,6.11-14.62,12.78-29.39,18.3-13.57,5.07-28.09,8.25-37.89,8.28l-6.22.06c-3.11,0-6.63.09-10.32.09-28.91,0-67.36-2.91-67.45-28-.06-16.45,10.24-49,24.48-77.52,16.88-33.75,34.79-53.22,49.14-53.41h.52v-1m0,0h-.53c-33.81.44-74.72,99.48-74.61,131.93.09,26.46,40.41,29,68.45,29,6.34,0,12.06-.13,16.54-.15,24.26-.08,76.74-19.32,69.21-35.84-15.22-33.41-29.32-125-79.06-125Z"/><path class="cls-4" d="M773.67,410.58c46.55,1.68,81.44.83,69.33-9.58-57-49-71-128-139-146-68.75-18.2-114,41-152,70-24.94,19,14.89,80,86,80,33.13,0,85,3.57,128.63,5.32,0,0,12.87-1.82,8.87-12.82s-75-2.08-75-2.08"/><path class="cls-2" d="M467.94,495.44c-64.32,0-149.83-3.52-149.94-33.94-.07-19.7,23.19-58.79,55.32-92.93,38.31-40.72,79.17-64.24,112.11-64.52h1.46c85.18,0,123.74,64.71,151.9,112,8.83,14.82,16.46,27.63,24.41,36.94a5,5,0,0,1,1,5.76c-8,17.5-107.28,36.34-156.09,36.51-4.19,0-8.86.05-13.92.1C486.31,495.36,477.38,495.44,467.94,495.44Z"/><path d="M486.91,304.54c37.62,0,69.29,12.39,96.8,37.86,23.73,22,40.15,49.53,54.65,73.85,8.84,14.84,16.48,27.66,24.46,37a4.56,4.56,0,0,1,.93,5.23c-8,17.36-106.94,36-155.63,36.22-4.19,0-8.92.05-13.93.1-7.88.06-16.81.14-26.25.14-27.32,0-67.26-.57-98.55-5.54-33.72-5.35-50.84-14.74-50.89-27.9,0-9.27,5.43-23.64,15.37-40.44C344,404,358.12,385.45,373.68,368.91c17.38-18.47,36.05-34,54-45,20.76-12.69,40.19-19.2,57.76-19.35h1.48m0-1h-1.47c-75.88.65-168.06,119.17-167.92,158,.11,31.11,87.69,34.44,150.44,34.44,15.46,0,29.42-.2,40.18-.24,54.46-.19,172.3-23.37,155.46-43.1-34-39.83-65.28-149.07-176.69-149.06Z"/><path class="cls-4" d="M880.5,295s9,9.5,19,12.5,34,5,40,5,13,1,24,3,32.59,1.9,32.59,1.9c4.07,4.19,5.39,6,7.57,8.6,0,0,12.71,13.67,15.84,18.5,8,12.39,20,41,22,53,1,6-2,8-1,17s14,41,14,50-3,6-6,23,17,30,17,30a826.55,826.55,0,0,1-107.63,7.81C838,525.73,704,489.2,740.52,450.92,791,398,837.1,275.79,957,275.37s197,124.63,217.7,174c13.64,32.54-34,55.26-102.92,66.91,0,0-28.27-18.8-16.27-39.8s-13-55-9-71c2.22-8.88-9.92-41.1-23-63,0,0-26-38-60.17-54.17,0,0-19.83-8.83-29.83-10.83"/><path class="cls-4" d="M582.47,553.19c-56.51-9.44-98-13.6-98-42.57C484.5,472,555.47,383,643,383s192,101.42,192,140c0,11.79-10.44,22.26-27.22,30.52"/><path class="cls-4" d="M921.5,279.5c30,3,61.33,25.7,70,34,0,0-20,1-36-3s-52-3-59-8-12.33-9.33-12.33-9.33"/><path class="cls-4" d="M1372.5,531.5c-54-57-78.63-109.5-149.74-109.5S1104.5,512.5,1077.5,538.5c0,0-12,12-26,14s-19,0-21-2,5-4.16,16-6c24-4,27-3,27-3"/><path class="cls-2" d="M71,506.5c-30.75,0-53.88-13.45-68.73-40C-12.36,440.39-13.5,411.29-13.5,403c0-15.25,16.48-35.8,42-52.34C57,332.13,91.77,321.5,123.76,321.5c47.52,0,67.61,24.61,93,55.76,12.25,15,26.12,32,44.87,48.12a6.3,6.3,0,0,1,1.91,7.66c-4.3,11.62-34.15,29.69-76,46C144.22,496,99.56,506.5,71,506.5Z"/><path d="M123.76,322c47.29,0,67.31,24.53,92.66,55.58,12.25,15,26.14,32,44.93,48.18a5.85,5.85,0,0,1,1.76,7.1c-4.26,11.5-34,29.45-75.75,45.75C144.09,495.51,99.5,506,71,506c-16.36,0-30.74-3.93-42.74-11.68-10.24-6.61-18.84-16.05-25.55-28C-11.87,440.25-13,411.26-13,403c0-15.08,16.39-35.47,41.76-51.93,28.48-18.47,63.1-29.07,95-29.07m0-1C52.65,321-14,371.63-14,403S-.11,507,71,507s214.79-61.55,191-82c-57-49-67.13-104-138.24-104Z"/><path class="cls-4" d="M140,560.88c0-25.26,34.06-60.47,66.5-97.38C252.12,411.59,309,360,389.5,360c53.7,0,77.9,26.3,115,59.5,58.1,52,117.36,124,137.5,162.5"/><path class="cls-4" d="M655.5,627.5c9-11,37.94-16.14,51-33,12.34-15.93,32.57-45.27,49-61,28.52-27.29,122.93-52.72,158-23,59,50,81,104,134,139a28,28,0,0,0,13,5"/><path class="cls-4" d="M1129.91,683.4c1.36-.53,2.88-1.14,4.59-1.9,9-4,27-5,35-9"/><path class="cls-4" d="M1019.05,680.26s16.45-15.76,28.45-14.76,12,2,19,7-7,13-13,17c0,0,0,4,7,3,9-1.28,15-10,30-7s29.51,16,38.26,12c4.54-2.08-8.73-4.64-8.26-7,.56-2.82,2.09-4,4.93-5.31,0,0,5.07-.69-11.93-5.69s-24,3-39-9c0,0-7-4-3-10s6-7,6-7-14-7,1-15,16.23-8,27-8c5,0,12-5,12-5"/><path class="cls-5" d="M1070.5,741.5c-4-2-8-9-8-9C1055,717,1026.12,669,984.63,669S917,715,909.5,729.49c-4.3,8.31,8.8,13,22.94,17.15,13.52,4,31.91,8.86,52.19,8.86,17.32,0,54.87,7,68.87,5,10.76-1.54,17.5-1.15,24,1,0,0,10-8,39-14s43-6,53-16,1-15-4-18-9-6-26-12c0,0-.83-.25-2.14-.69l-3.86-1.31s-6,3-15,1c-8.34-1.85-21.27-10.08-28-12-7-2-15,1-25,6s-15-2-15-2a95.08,95.08,0,0,1-10.13,6.88"/><path class="cls-4" d="M.5,660.5c4.4-.2,6.44-.46,10.14-.78l17.6-30C-46.88,597.64-120,616.33-120,579.47c0-38.37,79-164.24,157.5-126.81,66.65,31.78,116,60.08,149.38,92.45"/><path class="cls-4" d="M15.87,659.42c48.72-4.92,33.84-20.3,33.84-20.3A119.78,119.78,0,0,1,37.5,634c-1.41-.69-2.83-1.35-4.24-2Z"/><path class="cls-4" d="M85.57,662.15S77.5,664.5,59.5,675.5c-2.25,1.38-7.42,5.85-6.06,4.08.06-.08-49.94,2.92-53.94-.08s-4,0,0-4c2.92-2.92,16.65-12.29,16.65-12.29,24.3-2.49,68.18-7,75.35-7.71"/><path class="cls-4" d="M99.22,646.18a131.33,131.33,0,0,1-40.76-4.32,10.25,10.25,0,0,1-1.11,9.64s28.71,1,37.93,0"/><path class="cls-4" d="M1103,648c15.5-22.5,28-53.72,60.75-53.72S1202,615,1216.5,633.5c.43.54,9,12,12,14"/><path class="cls-5" d="M186.26,753.66c29.68,3,59.24,4.84,59.24,4.84s51.65,4,53.82-8c1.27-7,4.53-13.12,41.18-15,58-3-4-10-11-12s-27-3,20-18,51-27,40-40-83-12-59-52-13-73-49-75-95,7-95,7-11-22-12-31a57.62,57.62,0,0,1,0-14.75"/><path class="cls-5" d="M186.26,753.66l-1.31-.14s14.55-9,24.55-10,20-3,26-4A45.68,45.68,0,0,0,247.79,735c23.42,9.36,43.27,5.9,51.71-2.54,10-10-3-19,17-29s58-26,40-36-33,4-76,14-55-72-46-74,17,13,17,13c8,14,20,40,20,40,13,20,54-5,48-20s-5-28-1-47,0-36-37-44-103.64,1.64-103.64,1.64"/><path class="cls-5" d="M49.5,699.5c2,10,24,18,54,19,58.05,1.93,90-3,92,6s-83,18-49,24c8.46,1.49,18.84,2.86,29.66,4.08,0,0,21.34-12.08,38.34-14.08A188.6,188.6,0,0,0,243.16,733q-4.28-2-8.66-4.54c-22-15-24-35-63-32-9,1-56,22-69,4a39.09,39.09,0,0,1-2.83-9.74S68.5,699.5,49.5,699.5Z"/><path class="cls-5" d="M91,479.56l15.74,24.94s13.73,31,7.73,45-24,14-34,19-8,10-9,22,26,46,26,46l8-.12c-.06,18.88,7.94,31.23,7.94,31.23-5,1.8-9,7.74-10.89,9.89s-3,7-3,7.77c-12,6.77-51,9.23-51,9.23,0-11,26-23,26-23,36-27,32.94-52.09,66-88,36.39-39.52,116.56-87,176-87,49.65,0,105,38,123,73,25.73,50,64.17,72.11,88,89"/><path class="cls-4" d="M379.5,745.5c17.37-11.58,54-55,105-89,36.14-24.1,59.3-63.63,96.25-63.63,78,0,149.75,97.63,191.75,137.63"/><path class="cls-4" d="M851.5,761.5c-17.32-9.82-33.54-49.16-62-60-21-8-48.59-16-72-16-55.4,0-100,56-125,80,0,0,4,5,18,7s30,5,22,9-22,3-37,2-67-4-58-11c0,0,5-6,27-6,0,0,10,1,11-3s-16-4-13-11,13-14,35-17,29-4,29-4"/><path class="cls-6" d="M965.5,672.5s-8,5-2,7,17,5,27,3,18.33-3,20.67-7"/><path class="cls-6" d="M956.5,676.5s-2,1,0,3,10,7,22,7,22.33-1,27.67-3a20.13,20.13,0,0,0,8.33-6"/><path class="cls-5" d="M1169.5,672.5s29-7,27-14-9-5-16-15-7-43-17-49"/><path class="cls-5" d="M827,734.85c14.48,4.34,1.51,1.65,22.51,6.65s55.33-3.67,55.33-3.67c2.29,3.32,6.8,7.54,15.67,10.67,9.81,3.46,20.62,5.59,33.19,7.16,0,0,.81,6.84-15.19,5.84s-23-13-42-13-28.76,2.7-20,10c12,10-12,12-24,10,0,0-4,1-13-10s-31-41-55-54-52-18-52-18"/><path class="cls-6" d="M0,664.87s2.28-.44,9-1.13c0,0-32.51,19.76-18.51,20.76s58.74-1.44,58.74-1.44c-8.65,8-9.33,15.32-4.74,21.44,6,8,26,17,49,19s79,0,86,3-23,6-37,9-24,9-14,15,29.05,6.26,106,12c67,5,69.63-6.55,69.63-6.55a44.83,44.83,0,0,0,7.37,4.55c14,7,69,2,91,2s46,8,99,12,18-17,0-28-16-27.09-16-27.09c11.24-2.75,20.79-6.24,30-8.91"/><path class="cls-5" d="M1369.5,769.5c7.17,1.84-114.42,36.36-165,28-17.76-2.94-76-2-109-3s-26-8-13-15,2-11,2-11c-13.49-7.07-38-4-38-4-14,1-35-4-62-6-8.63-.64-16.54-1.28-23.87-2,0,0,.87,7-9.13,8s-18,2-33-5-15-8-27-7-11,4-11,4,6,4,5,7-2,10-23,9-19-5-23-9-33-40-49-51a116.36,116.36,0,0,0-39-17c-18-4-17.83-9-47-9"/><path class="cls-5" d="M1167.49,594.38c4-.12,4,2.12,7,9.12s6,31,6,31c2,14,24,19,19,27s-27,14-27,14c-14,6-32,6-42,12s9.12,8.4,36,21c32,15,7,36-30,40s-53,15-53,15c1.76.81,5.77,3.38,7,4,6,3,7,7-6,14-15,8.06-4,7,4,9s77.1-.6,105,2c43,4,89,0,173-27"/><path class="cls-5" d="M1064.5,735.61s-21,8.89-35,10.89-25,7-35,4-69-9-75-14-8-10-8-10c-8.5,2.25-9,6-9,6s-1,3-18,4-23,4-36,0c0,0-12-1-16-3s2-4,9-4,29,4,40,1,10-7,15-9,3-5-23-2-46-3-61-2"/><path class="cls-5" d="M1155.5,595a28.45,28.45,0,0,1,9,16.5c2,11,2,21,4,27s8,9-6,6-8-9-10-16-7.67-22.33-13.33-27.17"/><path class="cls-5" d="M1152.69,595.59a24,24,0,0,1,6.81,9.91c2,6,3,13,4,21s1,11,2,13,6,5-8,0c0,0-3,0-1-6,0,0,1-3-3-13s-7.55-17.07-10.77-21"/><path class="cls-5" d="M815.5,720.5a125.8,125.8,0,0,0,16,1c9.06,0,26,4,45,0s16,0,12,2-7,5-14,5-36-3-41-1-6.81,2.11-7.91,5.56"/><path class="cls-5" d="M434.5,695.5c-3.56,2-10.62,6.46-15,8-31.7,11.19-51.21,1.73-51.21,1.73-15.26,6.1-30.6,10.08-32.79,12.27s8.91,4.59,20,6.7c0,0,19.06-10.64,56.53-8.17"/><path class="cls-5" d="M494.5,634.5c-12,2-25,17-29,23-2.12,3.18-4.37,12.39-12,22"/><path class="cls-6" d="M944.5,684.5s1,8,49,12c0,0,20-2,26-6s6-5,6-5"/><path class="cls-6" d="M941.5,686.5s1,5,9,9c8.49,4.24,26,7,42,6s21-5,27-6,10-7,10-7"/><path class="cls-6" d="M934.12,694.1s-1.62,9.4,25.38,12.4,36,5,47,4,26.75-14.75,27.38-17.88"/><path class="cls-6" d="M930.75,697.75s-3.25,3.75,6.75,8.75,22,5,32,7,34,4,40,2,22-10.75,27.5-19.88"/><path class="cls-6" d="M917.33,716.33S931.5,727.5,956.5,730.5s30,7,45,6,22-9,36-10,16-10,16-10"/><path class="cls-6" d="M1056.38,721.5s2.12,7-7.88,9-17,2-25,6-33,6-41,4-28-5-35-6-29.25-12.5-32.12-15.25"/><path class="cls-6" d="M1062.5,732.5s1,2-12,5c-17,3.93-42,13-55,10s-70-9-76-16-6.38-8.38-6.38-8.38"/><path class="cls-5" d="M1134.58,605.06s10.92,15.44,9.92,27.44-3,10-6,8-3-7-9-13-6.71-9.66-6.71-9.66"/><path class="cls-5" d="M1132.19,607.18s7.31,9.32,8.31,16.32,2,13,0,14-3-6-8-11a51.55,51.55,0,0,1-8.08-10.77"/><path class="cls-5" d="M1114.33,630s5.17-.5,13.17,7.5,15,7,25,12,6,12-11,13c0,0-14-2-27-4s-25,3-34-2c0,0-22,13,16,18,0,0,27.5,2.5,34,9"/><path class="cls-5" d="M1113,632.25s8.5,5.25,13.5,10.25,16,6,18,8,9,2,9,5-9.21,3.72-15,3c-8-1-14-5-31-4s-19,4-26-2c0,0-16-10,13-16,0,0,15-3,20-6"/><path class="cls-6" d="M621.52,384.78c32,10.29,36,23.72,50,40.72,0,0-38,20-54,28s-47.75,10.75-50,29"/><path class="cls-6" d="M700.47,600.7s-20.89,1.8-27,1.8c-7,0-23-3-21-8s23-11,30-15,15-11,17-16,7-18-13-39c0,0-23-14-29-19s-12-12-7-19,4-12,15-26,19-19,15-32-14-19-18-26S644.55,388,629,383.76"/><path class="cls-4" d="M1002.05,671.84s-8.55-27.34,23.45-39.31"/><path class="cls-5" d="M996.36,670.29s-7.18-25.32,25-41.56"/><path class="cls-5" d="M1022.5,682.5s9-9,18-11,22-1,22,6c0,2.24-20,15-24,19"/><path class="cls-5" d="M1014.8,622.39s-7.3,7.11-39.3,27.11-64,31-95,16-30,12-12,15,66.24-.5,75-4c10-4,29.23-6.21,29.23-6.21"/><path class="cls-5" d="M1009.91,617.34S998.5,630.5,988.5,636.5s-47,28-60,29-22,6-35-1-38-13-41-4-3,21,11,24,60.19,3.6,74-1c12-4,19-7,19-7"/><path class="cls-5" d="M937.61,690.5c-1.11,1-33.11,6-42.11,5s-33,2-45-12-45-2-57,3-26-7,15-22,41-29,65-20,41,17,62,8,39-17,48-24S1002,608.69,1002,608.69"/><path class="cls-5" d="M998.31,604.42S986.5,621.5,975.5,628.5s-49,27-60,24-43.16-19.06-60-16c-11,2-18,11-31,16s-44,14-49,25c-4.63,10.18-8,17,9,15s28-13,47-11,14,16,37,18,32,0,40,0,23.34-3,23.34-3"/><path class="cls-6" d="M781.5,698.5s33,5,47,5,22.24,4.87,52,7c28,2,34-4,44.17-4.52,0,0-4.17,6.52,26.83,12.52s46,7,61,3,28-11.67,31.5-17.83"/><path class="cls-6" d="M794.39,703.69s13.11,1.81,24.11,3.81,22,2,35,5,29,2,55,0c0,0,8-1,12.5-1.74,0,0-1.5,3.74,20.5,7.74s36,12,53,12,43.67-14,52.83-22.5"/><path class="cls-4" d="M762.6,692.62s-23.1-18.12-.1-31.12,40-12,59-19,19-25,45-30,25,21,51,23,57-33,17-41-40-29-82-9c0,0-80,39-100,32s-35,0-46-23"/><path class="cls-5" d="M691.75,648c4.17-2.78,17.88-2.62,32.6-2,0,0-9.85,10.54-7.85,16.54,0,0,5,11,32,14"/><path class="cls-5" d="M748.27,673.94c.14-6.89,5.65-11.86,12.23-18.44,9-9,62-18,68-22s4-13,25-22,33-2,38,0,20,16,31,18,15-4,22-9,3-11,3-16-6-6-23-9-24-10-33-14-20,0-32,5-62,27-75,34-28,5-39,1c0,0-17,12,10,12s21-7,35-7-11,18-28,20c-7.14.84-19.32.27-31.65-.27,0,0-8.35,7.27-10.35,12.27s17,14,28,15"/><path class="cls-5" d="M755.47,690.5l-5-8a20.37,20.37,0,0,1-2.1-6.36"/><path class="cls-5" d="M703.17,598.33s2.33,13.17,12.33,16.17c7.16,2.15,13.8,2.76,21,4.4l3,.6s-9,5-6,9,2,11,22,9,28-7,29-5-14,9-19,9-17,3-36-1-41.75,4.12-41.75,4.12"/><path class="cls-5" d="M973.67,574.33S956.5,606.5,964.5,612.5s28.83-14.17,28.83-14.17"/><path class="cls-5" d="M975.5,577.11s-6,13.39-7,20.39-3,8-1,11,23.17-12.92,23.17-12.92"/><path class="cls-4" d="M689.5,608.5s17.47,8.14,20,17c2,7-14,5-22,6a125.3,125.3,0,0,1-14,1"/><path class="cls-4" d="M685.39,610.62s13,5.92,15,9.94,4.1,2,4.1,5-12.31,1-19.49,2S670,630,670,630"/><path class="cls-5" d="M958.5,555.5s-11,29-43,19-58-14-94-14c-33,0-68,9-62,17s38-2,49-3,19,15,2,17-46,16-69,13-30.75-15.25-30.75-15.25-30.25,5.25-31.25,3.25,32.17-9.33,39.08-14.17"/><path class="cls-5" d="M713.75,585.5a23.58,23.58,0,0,0,14.75,10c10,2,14,6,33,3s33-9,38-9,18-2,17-6-6-6-14-4-27,5-36,4-16-4-12-9,14-13,33-15,45-4,73,0,42,7,49,9,18,6,28,1,18-16.75,18-16.75"/><path class="cls-5" d="M951.25,548.25s-9.75,11.25-30.75,7.25-66-10-79-10-22-10,26-12,31-11,16-14-52,6-63,16-53,24-64,25c-10.16.92-24.5,8-30.25,8"/><path class="cls-5" d="M947.75,543.71s-4.25,6.79-14.25,7.79-67-9-76-9-21,1-19-2,12-3,26-3,37-2,39-7,6-11-10-15-37-2-48,3-18,8-24,11-18,13-24,14-31,13-36,12-31.5,8-31.5,8"/><path class="cls-5" d="M749.17,540s-.67,10.5,18.33,3.5,22-14,33-18,42.67-15,42.83-26.5"/><path class="cls-5" d="M745.67,543.71s.83,6.79,9.83,5.79,22-4,29-9,15-12,29-16,26-11,30-16a25.94,25.94,0,0,0,5-10"/><path class="cls-5" d="M856.08,497.58s1.42-1.08,8.42,5.92,39,2,45,7,8,11,8,16-7,12,7,14,17.78-2.06,17.78-2.06"/><path class="cls-5" d="M862.85,497.52s1.65,3,6.65,5,27.8.43,39.4,4.72"/><path class="cls-5" d="M1114.62,492.25c1.13,7.75,7.74,13.32,7.74,13.32,11.63-14.79,23.2-28.72,31.14-35.07,20-16,31-27,52-30s-17,29-14,40,18,17,16,33,16,30,31,11,38-35,22-46-15,10-27,15-23-5-16-17,25-36,19-43-10.17-12.17-25-10c0,0-10,3-21,16-8.5,10-31.25,7.38-31.25,7.38"/><path class="cls-5" d="M916.3,512.74s4.2,8.76,4.2,14.76-3,6,0,9,16.53,3,20.27,0c0,0,100.73-9,115.73-1s-84,12-73,20,89,5,98,0c5-2.75,20.2-23.37,36.25-44,0,0-7.25-8.47-7.25-13.72"/><path class="cls-6" d="M933,528s70.5-.5,103.5-3.5a393.88,393.88,0,0,0,62.17-11.13"/><path class="cls-5" d="M1173.22,524.22c4.76.28,8.89.3,11.28-.72,7-3,6-16,6-22s-2.4-14.68-2.4-14.68c-2.09-2.59-3.6-4.79-3.6-6.32,0-5,20-32,21-34s-9,2-9,2c-33.13,12.31-42.07,32.68-55.65,44.15,0,0,14.16-9.1,21.48-6.32C1186.5,495.5,1173.22,524.22,1173.22,524.22Z"/><path class="cls-5" d="M943.25,539.25s92.25-6.75,96.25-2.75-59,6-66,18,41,14,41,14,53,4,70-5c16.32-8.64,37.25-54.14,52.17-67.5,0,0,15.83-5.17,20.83-6.33s14,5.83,15,10.83,0,15-1,17a53.93,53.93,0,0,1-4.53,6.3c-7.72-.53-15.83-.88-20.47,1.7-9,5-9,5-11,9s-2.16,18.63-2.16,18.63c-8.93,7.18-20.22,15.5-37.84,21.37-39,13-125.17-5.11-125.17-5.11"/><path class="cls-4" d="M733.83,411.83s28.67,3,36.17,2.34"/><path class="cls-5" d="M683.5,389.5s-8,8,10,24-18.08,51.23-20,57a30.11,30.11,0,0,0,1,23c3,7,41,10,50-26s12-45,14-53"/><path class="cls-5" d="M735.5,413.05c-3,5.55-13,48.45-13,48.45-5,21-13,25-13,25-18,12-27,8-30,7s-4-10-4-10c-2-11,3-15,3-15,2.75-3.5,5.44-7.13,7.92-10.59l2.08-3.41s5,8,11,7,10-6,14-8,7-16,7-20-3.12-30.38-3.12-30.38"/><path class="cls-5" d="M686.5,390.5s-3,2,0,8,12,13,15,17c2.47,3.3,2,15-2,23,0,0-3.51,5.62-8.67,13.12,0,0,6.67,9.88,12.67,4.88s18.5-3.5,10.25-54.75"/><path class="cls-5" d="M745.67,419s-4.17,68.5-19.17,79.5-20,4-23,15-1,31,13,36,23.75.1,23.75.1"/><path class="cls-5" d="M744.5,545.17c-16,5.66-18,2.33-28-.67s-11-17-10-27,6-7,15-12,13-9,18-18,8-41,8-41c.22-1.08.43-2.81.64-4.85,0,0,7.36,23.85,7.36,36.85s25,16,26,10,5-28,0-35-17-13.67-16-19.83"/><path class="cls-5" d="M749.5,422.5s-.35,6.68-.85,13.17c0,0,6.52.5,13.18-4.84"/><path class="cls-5" d="M751.5,537.5s-16-24-6-37,29,8,42,5,11.33-40,4.17-49"/><path class="cls-5" d="M753.38,535.38s-8.88-19.88-7.88-23.88,0-15,12-11,19,10,30,8,13-19,13-23-3.32-23.5-3.32-23.5"/><path class="cls-5" d="M751.17,439.33s8.33.17,11.33-3.83c0,0-1,6,9,12s9,19,9,19,0,20-3,21-16,0-18-6-1-15-2-20S751.17,439.33,751.17,439.33Z"/><path class="cls-4" d="M1069.5,544.5s-23,3-25,4S1060.5,550.88,1069.5,544.5Z"/><path class="cls-5" d="M758.5,530.67s-5,8.83,7,4.83,32-17,46-21,18.58-13.17,18.58-13.17"/><path class="cls-5" d="M761.17,528.67s-2.67,4.83.33,4.83,23-11,28-13,16-7,23-9,12.67-9.42,12.67-9.42"/><path class="cls-5" d="M1231.5,422.5c6.25,2.4,12,9,13,16s-11,24-11,24-12,16-12,22,8,3,12,2,9-10,12-14,7-2,14,0,15,9,12,19-14,21-30,36-15,16-29,11-12-21-12-31c0-5.39-4.66-11.37-9-16.52,0,0,7,24.52-5,35.52-5.94,5.45-16-1-35,1S1138,549.36,1138,549.36c8.47-6.85,15.18-11.79,24.51-10.86,20,2,50,31,74,17s35-52,48-60a75,75,0,0,1,15.66-6.85s-25.66-15.15-27.66-23.15,3.33-12,1.67-31.5"/><path class="cls-5" d="M1328.67,482a229.82,229.82,0,0,0-22.85,4.94"/><path class="cls-5" d="M973.5,573.5s39,9,57,10,55,2,78-9c0,0,19-13,31-22s16-15,35-6,33,19,53,17,29-22,34-28,14-23,21-33,49.23-17.12,49.23-17.12,31.77-25.88,41.77-23.88-32.18,18.69-39.09,26.84"/><path class="cls-5" d="M1306,487s-32.53-17.51-30.5-27.81,1.7-23.52,1.7-23.52"/><path class="cls-5" d="M1162.88,443.88s15.62-.38,20.62-3.38,12-13,18.5-16"/><path class="cls-5" d="M691.5,689.5s13-2,41,6,42,14,52,22,43,38,47,45,3,18-14,9-60-40-76-45-21-19-50-18-43,4-43,4"/><path class="cls-5" d="M642.75,717.1s39.75-3.6,59.75,2.4,59,25,71,36,4,13,0,17-9,6-13,0-36-28-45-31-32-8-47-6S624,734,624,734"/><path class="cls-5" d="M619.17,738.67s48.33,6.83,62.33,8.83,38,8,44,10,21,10,12,16-29-4-34,1-15,14-24,12-51-18-64-19-15.33.45-19.67-4.77"/><path class="cls-5" d="M616.83,740.83s49.67,7.67,56.67,8.67,36,7,40,8,17,3,23,10c0,0,3,5-6,5s-14-3-22-2a20.23,20.23,0,0,0-5.59,1.39s-.41-8.39-23.41-10.39-61-8-63-10-7-1.75-7-3.38"/><path class="cls-5" d="M598,760.33c2.5,4.84,9.5,4.17,15.5,3.17s27,5,38,10,28,9,31,10,9-3,13-6c1.59-1.19,4-1.79,4-3.46,0-6.45-6-6.54-11-8.54s-28-3-37-4-33-5-36-7-7.75-4.38-7.75-4.38"/><path class="cls-5" d="M595.5,762.5s-8,1-9,4,18,8,18,8,19,2,18,4-20,1-20,1-49-2-55-6c0,0,1-5,15-4s21-2,19-8-18-7-7-15,47-10.75,47-10.75"/><path class="cls-5" d="M1337.12,490.9S1304,502,1297,510s-28,44-34,49-18,15-34,15-55-21-66-18-47,39-64,38-58,7-74,2-39.58-7.58-39.58-7.58"/><path class="cls-5" d="M988.5,593s8,1.51,16,3.51,10,5,23,5c0,0-20,6-13,9s10,6,22,6,18.51-3,23.25.49c4.2,3.1-10,2.21-13.25,2.51-11,1-18,4-19,9s7,7,7,7c21,3,19,4,19,4,0,4-16,3-16,3"/><path class="cls-5" d="M1174.5,594.5c2.17-3.58,4.28-8.27,7.56-10.86s9.59-6.79,13.44-5.14c5.9,2.53,5.48,13,6.59,19.3a92.79,92.79,0,0,0,5.71,19.52c1.59,3.81,3.84,7.88,7.79,9.1,4.55,1.4,9.48-1.84,11.65-6.07s2.29-9.18,2.4-13.94.34-9.73,2.69-13.87,7.54-7.07,12-5.29c2.83,1.13,4.67,3.84,6.18,6.49a78.5,78.5,0,0,1,10.26,38,10.43,10.43,0,0,0,.75,4.75c2,3.79,7.51,3.27,11.65,2.14,5.77-1.56,11.88-3.46,15.68-8.08,5.6-6.84,4.06-17.1.4-25.15s-9.15-15.43-10.9-24.1c-.76-3.74-.74-7.81,1-11.18s5.67-5.82,9.41-5.06c3.55.72,6,3.91,7.91,7,5.6,9,9.4,19.1,14.7,28.32,1.39,2.41,3,4.85,5.29,6.36s5.63,1.88,7.81.15a8.7,8.7,0,0,0,2.63-4.83c2.2-8.64.13-17.81-2.94-26.18s-7.16-16.43-9.19-25.11-1.71-18.46,3.46-25.73,16.18-10.67,23.45-5.51c2.15,1.53,3.81,3.63,5.74,5.43a25.83,25.83,0,0,0,16.05,6.79"/><path class="cls-5" d="M1202.12,612.88c-3.37-6.63-4.62-24.38-5.62-27.38s-1-4-8-1-11.5,10.88-11.5,10.88a149.25,149.25,0,0,1,10.5,26.12c4,14-2,13,8,19s5-13,5-21a22.18,22.18,0,0,0-4-13"/><path class="cls-5" d="M1213,628.62s1.5,2.88,8.5.88,8-7,10-12,2-21,5-25c0,0,4-6,9-1s10,22,10,22,2,14,2,21,4,8,8,8,20-5,20-5,8-5,9-9,1-14-1-20-14-24-13-29c0,0-3-8,5-11s18,23,18,23,5,14,13,18,11-2,12-3,3-11,1-20-11-36-11-36-3-13,1-19,6-11,16-10,9,10,23,12l5,1"/><path class="cls-5" d="M1363.5,547.17s-19-10.67-26-1.67,15,56,6,67-25,4-32,16,52,13.51,52,13.51"/><path class="cls-5" d="M1364,637.6s-46.5-1.1-44.5-7.1,13-4,22-8,10-11,10-20-16-42-10-53,22,3.75,22,3.75"/><path class="cls-5" d="M1180.42,596.58s6.08,12.14,7.08,16.84,3,8.46,3,12.22,1.37,6.9,4,10.45c4,5.41,5-1.06,5-5.76s-1-12.21-1-15-2.17-9.55-5.08-11.83"/><path class="cls-5" d="M1204.5,616.5s3,19,7,22,10.42,1.83,10.42,1.83"/><path class="cls-5" d="M1208.33,621.75s2.17,11.75,4.17,13.75,7,1.62,7,1.62"/><path class="cls-5" d="M1160.4,594.56c-.46-3-3.72-7-6.81-7.13a16.25,16.25,0,0,0-8.76,2.68c-15.33,9.39-21.19,15.92-34.33,22.39s-31.54,10.11-46.17,10.67c-5.61.22-11.25-.23-16.83.42s-9.21.77-13,4.91c-2,4.19,4.23,5.23,7.8,5.7A103.27,103.27,0,0,0,1058,635c1.5,0,3.32.06,4.07,1.36s0,2.86-1,3.94c-4,4.45-13.73,4.82-19.72,4.88"/><path class="cls-5" d="M1165.5,594s-3-9.47-12-9.47-14,5-28,15-30,14-40,17c-4.12,1.24-10,1.82-16,2.15,0,0,0-6.15-16-6.15s-33,0-29-4,21.3-6,21.3-6c17.19-.08,46-.52,56.7-3,13-3,27-13,27-13s28-23,38-26,31,11,49,17,16,2,41-9,38-45,46-55,36.5-17.9,36.5-17.9"/><path class="cls-5" d="M591.18,448.29c22.19-9,52.41-21.24,55.32-27.79,4-9-12-24-29-25-14.11-.83-23.4,4.54-30.15,14.4,0,0,26.15-6.4,27.15,1.6.47,3.73-11.48,12.25-17,20C591.2,440.35,591.18,448.29,591.18,448.29Z"/><path class="cls-5" d="M533,446s43.5-15.5,50.5-29.5c0,0,17-3,21-3s-10,13-13,20-7,17.51-7,17.51c-5.4,2.2-9.94,4.08-13,5.49-15,7-18.5,10.17-18.5,10.17"/><path class="cls-5" d="M529.5,443.5s33-14,43-24,12-18.5,21.5-22.25,19.5-5.75,29.5-3.75,18.5,6,21.25,11.5,9.75,9.5,7.75,14.5-20.41,16.77-34,22c-13,5-34,15-41,18-5.89,2.52-16,4-22,10"/><path class="cls-6" d="M649.58,505.32c3.48,3.69,8.23,6.84,13.31,9.94,0,0-.39,14.24-20.39,27.24s-33.25-10.25-33.25-10.25c-.86-4.32,1.62-12.06,5-20.39,0,0,9.23,11.64,14.23,8.64s7-13,12-15A12.46,12.46,0,0,1,649.58,505.32Z"/><path class="cls-6" d="M576.5,493.5s19,2.5,30-11.25,21-10.75,21-3.25c0,3.94-5.65,15.31-10.69,26.86,0,0,8.69,14.64,12.69,9.64s4.86-13.47,11-15c4-1,5.33-.3,5.33-.3a18.59,18.59,0,0,1-1.33-13.7c6.12-24.5,32.92-39.81,30.15-54.65,0,0-23.15,12.65-41.15,20.65s-47,15-51,18-12,8.34-10,18"/><path class="cls-6" d="M693.5,605.5s-8,2-25,2-38-11-10-23l7.29-3.1s5.71-3.9,5.71-8.9,3-18-2-17-17,11-22,13c-2.79,1.11-11.51,2.88-11.51,2.88"/><path class="cls-6" d="M619.5,546.45s4,5,12,4,25-11,28-17,7-16,7-16l5.47,3.25c9,5.63,17.53,12,20.53,21.75,6.16,20-.72,27-17,34.61,0,0,8-27.61-5-26.61s-27.33,19.67-38.17,14.83"/><path class="cls-5" d="M724,571.38C697.5,584.5,681.5,586.5,674.5,591.5s3,7.5,33.5.75"/><path class="cls-5" d="M493.38,535.79c-4.94-7.61-4.5-18.63,2.27-21.84,13.41-6.37,14.87,12.55,14.87,12.55s1.84,8.44-4.22,11.23C505.31,538.18,496.1,540,493.38,535.79Z"/><path class="cls-6" d="M551.7,561.48c-12.63,3.24-32.39,17.88-53.77,17.58s-9.65-31.81-27.95-37.73-7.48-37.83-7.48-37.83,5-14,24-15,24-5,29,1,17,31,21,50c0,0,4,9-18,18-10.35,4.23-19-4.5-19-4.5a92.72,92.72,0,0,1-7.62-13.6s5.62,5.1,14.62,1.1,9-10,7-17-4-15-13-14-11,2-12,8-2,11,0,19S496,553,496,553a33.52,33.52,0,0,0,6.5,6.5c4,3,14,4,20,0s17-7,18-18-12-36-16-44-7-13-13-15-7,0-29,4-23,16-23,16-6.88,16.51-3,27A31.23,31.23,0,0,0,472,547.07c4.46,2.26,6.19,12.11,7.58,20s8.85,15.7,8.85,15.7,10.54,2.21,28.1-1.89S558,562.41,558,562.41"/><path class="cls-5" d="M551.7,561.48c9.33-4.69,3.65-17.87.94-23.65s-6.49-11.06-8.59-17.09c-2.87-8.22-10.77-17.29-13.17-25.66C526,478.18,518,474,502.4,471.66c-7.63-1.13-16.64-5-23.7-1.92-6.6,2.92-15.53,6.24-20.28,11.69-5.71,6.56-6.93,18.32-8.92,27.07"/><path class="cls-6" d="M449.5,508.5c-2.16,9.33-3.15,19.73-.26,30.39,2.13,7.85,8.51,13.73,12.5,19.12,0,0,7.47,7.83,11,16.34s11.34,18.32,31,14.85,50.17-14.92,61-22.91,6.16-28.49-1.66-38.29a213.5,213.5,0,0,1-21-32.85c-4.68-9.33-9.94-27.7-27.9-31.65s-39.68-6.22-51.27,2.93-27.64,16-27.82,32.31,1.49,20,2.76,33,19.09,56.55,31.48,63.5,32.14,9.58,45.76,6.17c0,0,35.43-8.93,56.43-20.93s11-40,8-53S564.19,503.41,556.85,491s-19.35-36.88-40.35-42.67-40-5.79-56,4.21-40,24.89-39,42.44,2,41.56,11.5,63.56"/><path class="cls-5" d="M558,562.41c2.78-1.51,2.16-4,2.9-6.6a18.46,18.46,0,0,0-.79-12.71c-3.92-8.34-11.16-15.8-13.51-24.7-2.85-10.77-6.69-13-11.56-23-4-8.21-7.65-19.28-15.63-23.73-4.59-2.55-4.81-1.6-10-2.34s-8.81-2.39-16.46-3.89c-8.15-1.6-16.89.4-24.35,4s-14.23,9.23-17.91,16.67c-3,6.1-3.81,13-5.19,19.66-2,9.74-3.24,17.18-2.34,27.09,1.1,12,8.56,19.82,15,27.81a22.63,22.63,0,0,1,9.32,12.58c2.54,8.69,6.71,15.07,15.45,18.6s21.55,1.29,37.14-2.47S563,573.71,563,573.71s6.72-2.2,11.24-11.12-3.4-30.88-3.4-30.88S556.19,512,554.51,508.19s-7.15-13.72-11-22.82S532.75,465.31,525,461.6s-39-8.37-50.68-5.3-10.32,4.86-24.05,13.36-18.72,20.56-20,24.85,4,39.91,4,39.91A181.27,181.27,0,0,0,445.92,572c8.39,18.84,23.44,29.39,29.06,32.46s30.12,3.84,41.94,1.76A292.11,292.11,0,0,0,563.5,588.5c25-12,21.7-17,23.85-33s-5.85-35-14.85-51-13-17-20-30-25-38-59-34-29,6-46,16-23,17-26,23-9,22.49,3,68.74"/><path class="cls-5" d="M413,537.5s-10.5-37-4.5-58,32-32,41-39,35-16.72,70.5-6.86"/><path class="cls-5" d="M479.5,622.5s29.67,3.67,46.33-1.67"/><path class="cls-4" d="M485.5,627.5s24,.67,34.5-1.17"/><path class="cls-5" d="M579.75,497a33.16,33.16,0,0,0,18.75-3.5c10-5,16-15.5,21-13.75s-15.57,35.25-14.29,47.5c0,0,8.29,36.25,7.29,47.25S600,594.75,600,594.75s-2.52,9.75.48,16.75,2,13-1,18-3,5-3,8,4,10,6,10-2-13,0-15,11-7,12-9S629,604.43,629,604.43"/><path class="cls-5" d="M609.5,532.5s10,35,8,43-12.29,20.86-12.29,20.86"/><path class="cls-5" d="M396.5,524.5s-10-31,0-52,19-24,31-37,33-18,55-17,25.25,4,25.25,4"/><path class="cls-5" d="M390.5,520.5s-8-23-2-45,23-33,29-40,14-17,32-21,48.5-1,48.5-1,17.5,4,30.5,3,34-7,50-21A268.73,268.73,0,0,0,606.33,367"/><path class="cls-5" d="M373.25,511s-.75-34.5,11.25-62.5,17-32,37-39,33-15,42-14,20.5,5.7,20.5,5.7"/><path class="cls-4" d="M622.5,550.75s5,20.75,4,28.75-8.74,20-8.74,20"/><path class="cls-4" d="M623.5,602.5s9-15,9-22-2.5-19-2.5-19"/><path class="cls-4" d="M492.12,633.25s15.63,1.5,19.5.87"/><path class="cls-5" d="M498,637.5l9.5.12s14,7.88,26,5.88,15-14.79,15-14.79"/><path class="cls-5" d="M364.25,506.5s3.79-59,22-80.5,27.23-25.5,38.23-29.5,30-6.5,48-5.25"/><path class="cls-5" d="M358.5,504s2-42.5,18-71.5,32-36,47-40,43-5.5,43-5.5a164.45,164.45,0,0,0,40.14,6.74s4.53,15.76-15.31,14.26c0,0-18.83-8.5-30.83-6.5s-24,8-39,14-24,13-35,45-6,53-6,53c-12,13,30,78,20,102s-38.19,32-38.19,32c-12.66-4.73-26.68-11.15-28.81-17a12,12,0,0,1-.59-6.24s7.59,8.24,23.59,2.24,14-35,14-35-7-27-22-43-14-12-12-23,5.18-26,5.18-26"/><path class="cls-5" d="M454.32,377.73s-30.82-.23-51.82,11.77c-20.27,11.58-28,21-41,60s-11.58,52.58-11.58,52.58"/><path class="cls-5" d="M446.67,373c-4.17.5-25.17-1.5-44.17,11.5s-30,23-34,32S346.5,474,346,486.27s-1.5,14.23-1.5,14.23"/><path class="cls-5" d="M432.5,367.5s-40-6-63,25c-19.19,25.86-39.67,64.11-39.83,87.06l2,17.94"/><path class="cls-5" d="M424.5,364.49s-31-4.94-52,16.81c-22,22.8-49.68,73.36-49.83,96.56L324.52,497"/><path class="cls-5" d="M306.5,496.5s0-30,10-54,14-28,20-39,20.17-37.5,44.58-43.25"/><path class="cls-5" d="M.5,347.83s32.5-3.33,44-6.33"/><path class="cls-5" d="M299.5,497.5s5-61,16-83,29.5-42,45.25-52.5"/><path class="cls-5" d="M351.64,364S326.5,386.5,314.5,407.5s-17,68-17,68l-2,23"/><path class="cls-5" d="M284.5,500.5s-6-44,0-62,11-26,15-35S322.67,373,322.67,373"/><path class="cls-5" d="M302.25,382.25S285.5,402.5,279.5,427.5s-4,37-5,46,5,28,5,28"/><path class="cls-5" d="M274.5,503.5s-5-22-5-32,3-37,7-49S293.75,387,293.75,387"/><path class="cls-5" d="M280.33,395.41S258.5,428.5,259.5,461.5s7.5,43.83,7.5,43.83"/><path class="cls-4" d="M250.67,511s-9.17-25.5-5.17-44.5,9.69-51.83,9.69-51.83"/><path class="cls-5" d="M249.5,419.5s-5,34-11,51,8,42.33,8,42.33"/><path class="cls-5" d="M237,431.51s-7.51,33-6.51,47,8,37.25,8,37.25,13-1.25,19-4.25,4.33-5,4.33-5-8.33-25-6.33-45-.5-27.61,16.25-60.3"/><path class="cls-5" d="M230.41,438.75s-5.91,28.75-4.91,41.75,8.95,37.25,8.95,37.25"/><path class="cls-4" d="M218.5,450.5s-3,32,0,46a113.46,113.46,0,0,0,8.62,25"/><path class="cls-5" d="M214.62,454.75s-4.12,27.75-1.12,41.75a108.13,108.13,0,0,0,10,26.5"/><path class="cls-5" d="M205,465s-3.47,28.5,0,41a87.26,87.26,0,0,0,10,22.27"/><path class="cls-5" d="M200.56,470.67s-4.76,23.93-1.3,36,11.55,22.85,11.55,22.85,51.69-2,69.69-12,9-18,9-18-7-47,2-66,19-38,26-47,20-19,20-19"/><path class="cls-4" d="M190.5,481.5s-1,23,2,32,8.25,22.25,8.25,22.25"/><path class="cls-4" d="M185.25,487.88s.25,20.62,2.25,27.62,9,23.12,9,23.12"/><path class="cls-5" d="M166.25,510.25c.75,7.75,7.25,23.25,7.25,23.25s3.06,13.42-2.47,22.71"/><path class="cls-5" d="M163.25,513.25a53.73,53.73,0,0,0,4.25,15.25s5.75,24.23-2,32"/><path class="cls-5" d="M680.5,693.5c-9.78-1.24-25.76-.64-35,3-9.53,3.75-13.78,8.47-23,13s-19.67,9.5-29.35,6.22c-5.3-1.8-33.65-9.22-52.65-9.22a76.71,76.71,0,0,0-19.36,2.81S510.5,723.5,515.5,730.5s24,10,49,3,69-14.5,75.5-14.25c0,0,38.5-.75,48.5,1.25s13,2,22,6,45,22,45,22,18,9,18,15c0,0,2,3-2,6s-9-3-9-3-21-15-29-20-24-11-33-13-24-2-39-2-33.67-1.08-33.67-1.08"/><path class="cls-5" d="M316.5,496.5c-19,22-14.38,39.78-14.38,39.78,8.15,2,13,4.88,22.38,12.22,14,11,20,26,19,45-.55,10.42-4.7,17.23-7.69,23.07,0,0,24.69,19.93,28.69-12.07s-26-56-32-66,2.5-40,2.5-40"/><path class="cls-5" d="M179.5,494.5a70.41,70.41,0,0,0,0,16c1,9,12,31,12,31s75-11,95-8c2.61.39,4.95.75,7.07,1.1,0,0,6.43-30.6,17.68-37.85,0,0-1.42-32.25,18.42-68.25s28.94-59.5,62.39-68.25"/><path class="cls-5" d="M385.49,517.23c-8,4.74,8,37.27,13,54.27s12,28,6,49S371,650.57,371,650.57c7.19,2.42,12.52,3.93,12.52,3.93a47.11,47.11,0,0,1,9.39,6.55S416.5,649.5,418.5,624.5s-12-73-12-81,.27-11.83.27-11.83S393.5,491.5,404.5,474.5s28-29,38-38,47.33-17,70.17-9.5"/><path class="cls-5" d="M413.5,537.5c-4,7,1,25,5,44s6,47,1,61S397.37,666,397.37,666c3.82,5.22,5.78,11.94,1.13,19.55,0,0,47-23,46-54s-5-62-5-62"/><path class="cls-5" d="M430.5,699.5c-4.31,10.77.32,18.49,7.52,22.07,0,0-11.52,9.93-16.52,15.93s-19.76,18.88-19.76,18.88c-19.79.26-64.74,3.87-75.24,2.12-12-2-25.76-9.3-19-12,20-8,59-6.51,63-8,8-3,10-7,4-10-1.55-.78-5.18-1.62-9.63-2.51,0,0,10.93-4.56,41.78-4.53"/><path class="cls-5" d="M443.33,723.37a22.11,22.11,0,0,0,4,.42c3.65.06,7.7,0,11.8-.16,0,0,2.4,13.87,5.4,21.87s14.77,22.21,14.77,22.21a64,64,0,0,1-6.77-1.21c-12-3-51-9-64-10,0,0,14-13,18-17S443.33,723.37,443.33,723.37Z"/><path class="cls-5" d="M485.44,768.38c14.74,1.3,34.1,1.08,37.06-1.88,4-4-20-11-33-25s-8.28-19.93-8.28-19.93c-4.14.72-9.69,1.31-15.55,1.71,0,0-1.17,14.22,6.83,26.22S485.44,768.38,485.44,768.38Z"/><path class="cls-5" d="M654.67,708.42c13.17-3.09,48.83-3.92,54.83-2.92s26,11,29,14,14,6,18,8,42,26,43,27,25,15,27,15,2-3,0-7-51-49-61-53-40-10-49-14-29.94-5.16-29.94-5.16-25.06-.84-38.06,2.16-37,18-43,20c-4.81,1.6-25.71-3.22-40.5-7.26,0,0,12.5-13.74,11.5-23.74s-1-17-11-20-38,0-50-4a153.61,153.61,0,0,1-20.82-8.65"/><path class="cls-5" d="M434.5,695.5s-8,21,7,22,34-1,34-1,21-5,36-11,31-7,44-3l3,.89s17-14.89,12-29.89-42-8-56-12a219.52,219.52,0,0,1-24.84-8.74"/><path class="cls-5" d="M699.48,687.45s-34-6-60,2-24-8-19-16,42,3,40-9-30-13-29-30,19.56-17.93,19.56-17.93"/><path class="cls-5" d="M708.5,686.5s-26-5-36-5-22,2-39,6-12-9-12-9,0-5,15-4,19,0,23-2a10,10,0,0,0,5-6s-1-6-5-10a24.07,24.07,0,0,0-4.89-3.33s11.89-2.67,25.89,5.61c1.82,1.08,1.42,4.2,2,6.72,3,13,39,20.08,39,20.08"/><path class="cls-5" d="M667,627.62s-14.48,9.88-3.48,14.88c7.39,3.36,12.07,6.72,15.26,12.51,0,0-15.26-8.51-27.76-3.78-2.5.27-11.89-5.89-12.5-7.73-1-3-6-8-1-14s7-7,12-8a29.27,29.27,0,0,1,8-.68"/><path class="cls-4" d="M668.5,629.5s-7,3-6,8,5,2,13,10,7,10,8,12,1.43,5.65,3,8c2,3,16.37,15.17,42.18,17.08"/><path class="cls-5" d="M676.27,634.87s-4.77-.37,3.23,9.63,12,13,15,21,27,11.59,27,11.59"/><path class="cls-5" d="M718.05,673.54s-15.55-2-18.55-7-12-17-16-21-6.48-7.18-4.74-8.59"/><path class="cls-5" d="M440.29,690.5s-4.79,23,16.21,21,49-17,63-19,22,1,32-3-1-22-26-21-43-2-46-8.49"/><path class="cls-5" d="M476.5,662.15s2,4.35,9,6.35,31,3,36,3,18-1,26,6,0,8,0,8-22,2-27,3-19,5-25,8-35,17-45,10-4.62-20.68-4.62-20.68"/><path class="cls-5" d="M450.27,682.22s2.23,16.28,19.23,14.28,25-9,32-11,9-7,4-8-26-1-29-4-4.5-8.07-4.5-8.07"/><path class="cls-5" d="M453.5,679.5s2,13,13,13c9,0,27-7,30-9s7-3-3-4-17,0-19-3a100.51,100.51,0,0,1-5-9.25"/><path class="cls-5" d="M499.88,644.54c-.38,0,14.62,11,34.62,10s42-3,47,3-5,38,0,42,17,6,25,0,0-18,5-26,22-10,31-11-6-12-10-14-9-14-6-21,16.72-15.69,16.72-15.69"/><path class="cls-5" d="M472,614.82c.25-.32,9.15,4.68,25.95,3.68s39.8-7.5,39.8-7.5,4.87,7.27,9,14.58c0,0-4.27,12.92-12.27,13.92s-12.59-3.17-14-6c-2-4,1.34-8.89,1.34-8.89"/><path class="cls-5" d="M503.28,641.6s16.22,9.9,27.22,8.9,21-6,22-11c.39-2-1.17-5.84-4-11"/><path class="cls-5" d="M544,606s-24.82,6.08-43.05,8.44-35.28-7.08-35.28-7.08"/><path class="cls-5" d="M540.7,608.5s15.8,24,15.8,28,0,9-5,12h12s8,0,11,1,10,1,11,8c0,0,0,17-1,25s-3,15,5,17,15,0,16-5-1-15,1-19,5-10,14-12,19-3,19-4-2-4-8-8-11-12-10-17a28.05,28.05,0,0,1,1-5s5-9,10-13,7.9-6.29,7.9-6.29"/><path class="cls-5" d="M551.75,601.5c13.25,14,20.75,34,19.75,38s1,4,1,4,3,2,7-2l10-14s6-13,0-17-5-4-5-8,5.48-9.18,5.48-9.18"/><path class="cls-5" d="M555.17,599.5s13.33,17,15.33,23,4,16,5,17,22-23,10-29,2-18,2-18,18-9,19-18,0-16-3-26-17-44-17-44"/><path class="cls-5" d="M510.5,634.5s5,4,9,5c0,0-5.18-8.58-2.09-10.79"/><path class="cls-5" d="M596.72,594.21s-3.22,15.29,1.78,21.29-9,19-5,24,5,12,10,11-1-15,3-18,9-5,13-10S632.32,606,632.32,606"/><path class="cls-5" d="M636,722.86S578.5,732.5,571.5,735.5s-44,11-56,3,0-27.62,0-27.62"/><path class="cls-5" d="M218,526.19s36.55-1.69,51.55-8.69,14-7,16-11-2.21-5.83-2.21-5.83"/><path class="cls-5" d="M231.5,519.5s26-3,33-7,6.29-8.49,6.29-8.49"/><path class="cls-5" d="M142.22,605.54a64.56,64.56,0,0,1,16.28,10c26.94,21.81,7,33-3,39-3.5,2.1-10.2,4.08-17.73,6.11,0,0-13.27-18.11-7.27-34.11S142.22,605.54,142.22,605.54Z"/><path class="cls-5" d="M128.05,598.64a35.17,35.17,0,0,1,7,.86s24.46-35,42.46-38c19.83-3.3,60-5,84-2,24.55,3.07,39,7,41,26,.88,8.4-1,22.14,1,35a143.82,143.82,0,0,0,9,31c7-5,4-10,1-17s-2-23,0-33,8-19-4-33-38-15-49-18-86,3.08-86,3.08"/><path class="cls-5" d="M302.52,660a63,63,0,0,0,7-5.51s-10-30-11-41,3.53-23.28-4-35c-9-14-42-14-54-16s-46,0-64,5-34.46,34-34.46,34a72,72,0,0,1,10.17,4.5s12.29-30.5,51.29-31.5,66-2,75,7S302.52,660,302.52,660Z"/><path class="cls-5" d="M231.5,603.5c3-3,12,0,18,6s12,21,20,37,12,17,12,17c5.76,2.3,11.2,1.45,16-.68,0,0-10-74.32-30-81.32s-61-3-84,2a31.32,31.32,0,0,0-25.11,26.24,47,47,0,0,1,13.39,13.18s6.72-27.42,31.72-30.42S231.5,603.5,231.5,603.5Z"/><path class="cls-5" d="M232.1,644.48c-2.18-8.12-4.12-16.7-4.6-22-.51-5.62,1.67-9.66,1.52-12.69-.49-9.7-11.52-11.31-11.52-11.31s-4-3-22,3-20,30.46-20,30.46a21.2,21.2,0,0,1,0,7.54,20.26,20.26,0,0,1-3.12,7.89s12.12,4.11,18.12-9.89,13-17,19-17,10,3,13,8Z"/><path class="cls-5" d="M245.5,669.5c-5-6.25-7.18-13.28-13-18a46.64,46.64,0,0,1-10-12s-8-15-16-13-14,22-23,25a39.62,39.62,0,0,1-16.88,1.77c-6.89,5-16.78,7.72-26.62,10.15a64.44,64.44,0,0,0,48.5,9.08C216.5,666.5,245.5,669.5,245.5,669.5Z"/><path class="cls-5" d="M258.29,682.1a21.2,21.2,0,0,0,8.46,3.19s-2.25,14.21-.25,23.21-21.83,21.38-21.83,21.38a43.18,43.18,0,0,1-6.17-3.38c-15-10-19-20-25-23-3.24-1.62-8.22-5.86-16.06-8.79,0,0,15.06-3.21,22.06-2.21s19,4,28,1A16.56,16.56,0,0,0,258.29,682.1Z"/><path class="cls-5" d="M176.16,691.84a51.23,51.23,0,0,1,16.59,1.39s16.75-7.73,39.75-3.73,22.64-9.71,22.64-9.71a53.74,53.74,0,0,1-5.64-5.54s-14-.75-32-.75-13,5-41,6-44.64-14.07-44.64-14.07a86.44,86.44,0,0,0-15.36,5.07,22.78,22.78,0,0,0-9.73,8"/><path class="cls-5" d="M251.42,732.49c14.53,4.75,31.56,5.52,36.08,4,6-2,10-6,13-11s-2-9,5-18,23-14,37-20,16-14,16-14c-7-9-21-5-26-5s-38,13-53,16a52.71,52.71,0,0,1-6.86,1s-4.14,10-.14,26c0,0,1,5-7,11S251.42,732.49,251.42,732.49Z"/><path class="cls-5" d="M104.13,685.27a17.69,17.69,0,0,1,2.64-6.75"/><path class="cls-5" d="M176.16,691.84c-1.81.13-3.69.35-5.66.66-25,4-34,12-45,11s-17-2-20-6a23.34,23.34,0,0,1-1.37-12.23"/><path class="cls-5" d="M445.45,580.21s4.05,43.29,4.05,56.29-9,26-21,37-35.7,18.38-35.7,18.38c-5.17,4.36-12.33,8.15-19.84,11.41,0,0,34.54,7.21,59.54-13.79s35.61-54.63,57.31-58.32"/><path class="cls-4" d="M130.75,502.08s40.2-10.18,57-17.38"/><path class="cls-5" d="M0,532.67C58,555.33,51,632,51,632c-4.1-1.64-8.23-3.29-12.27-4.89,0,0-.23-52.61-18.23-65.61S0,549.67,0,549.67"/><path class="cls-5" d="M0,555.5s9.48-.74,22.5,16c14,18,11,53,11,53-5.43-2.15-10.79-4.22-15.58-6,0,0,2.58-40.29-17.92-45.63"/><path class="cls-5" d="M0,611.81s5.13,1.85,12.64,4.66c0,0-.14-32-12.64-37.47"/><path class="cls-5" d="M0,526.19s34.5,6.31,46.5,45.31,11,63,11,63,25,8,33,5-28-27-24-57,22-20,40-32-25.62-76.3-25.62-76.3"/><path class="cls-5" d="M62.82,465s39.68,49.5,22.68,67.5-36-6-50-11S0,511.75,0,511.75"/><path class="cls-5" d="M0,504s34.5,7.5,44.5,16.5,22,17,33,12,2-32,2-32L55.43,461.34"/><path class="cls-4" d="M0,488.88s28.35,7.33,42.5,8.62c11,1,15-3,13-13-1.93-9.66-6-22-18-32"/><path class="cls-4" d="M0,481.5s35.46,10.71,44.5,8c10-3-3-23-3-23a49.72,49.72,0,0,0-15.87-18.28"/><path class="cls-4" d="M0,471.25s18.5,5.25,25.5.25S13.56,446,13.56,446"/><path class="cls-4" d="M0,465s9.5,4.5,16.5,1.5S6.32,446,6.32,446"/><path class="cls-4" d="M108.33,630.33S92.5,606.5,97.5,593.5s38-30,36-48-12.43-49-12.43-49"/><path class="cls-5" d="M128.05,500.5s13.45,41,10.45,53-32,32-36,43c-3.09,8.51,8.6,29.82,8.6,29.82-5.41,15.81,6.32,39.94,6.32,39.94,4.46-1.41,9.42-2.74,14.31-4,0,0-9.23-17.66-9.23-25.72,0-14,13.84-32.85,13.84-32.85-7.58-1.79-11.84-.15-11.84-.15"/><path class="cls-5" d="M142.87,510.25s19.63,40.25.63,70.25"/><path class="cls-5" d="M148.92,514.37s12.55,39.08,1.56,59.11"/><path class="cls-5" d="M9.09,364.83S21.5,433.5,62.5,436.5s51,32,97,20,71-62,71-62"/><path class="cls-5" d="M13.53,362s9,47.5,31,62.5,16,2,38,10,26,19,54,20,50-17,59-26,33-38,33-38"/><path class="cls-5" d="M0,380.33S2.5,424.5,19.5,434.5c0,0,30,11,58,25s59,21,80,16,75.17-57.74,81.08-73.37"/><path class="cls-5" d="M0,413.33S4.5,430.5,13.5,436.5s34,11,47,20,46,23,64,25,33,1,45-4,40-32,40-32,29.87-30.45,32.93-39.22"/><path class="cls-5" d="M22.29,354.26S37.5,400.5,58.5,406.5s19,2,43,2,21,30,41,28,72.11-62.71,72.11-62.71"/><path class="cls-5" d="M27.05,351S46.5,393.5,55.5,398.5s40,3,52,4,21,28,31,29,26-11,43-28a379.9,379.9,0,0,0,29.79-33.75"/><path class="cls-5" d="M46,340.08S60.5,371.5,74.5,375.5s25,4,44,3,21,5,32,4,20-6,24-11a77.81,77.81,0,0,0,9-13A40.94,40.94,0,0,0,188.35,345s40.15-9.54,56.15-19.54,36-17,36-17"/><path class="cls-5" d="M.5,342.75s44.39-2.89,59-8.25c0,0,2,19,19,26s41,2,59,4,36-16,37.39-28.87"/><path class="cls-5" d="M64.36,332.14s3.14,7.36,6.14,14.36,11,11,26,12,38-2,44,0,16-3,23-9,9-16,9-16"/><path class="cls-5" d="M82.75,327s3.75,12.5,28.75,13.5,27-1,35-4a11.44,11.44,0,0,0,7.75-10.62"/><path class="cls-5" d="M.5,307.92s25.18,5.71,64.22.83A50.41,50.41,0,0,0,78.5,314.5c8,2,12,1,13,5s-3,6-3,6,5,11,26,11,31-4,33-6a15.45,15.45,0,0,0,3.07-5.38"/><path class="cls-5" d="M41.48,342.43s17,47.07,60,42.07,31.48,10,57.74,2.5,33.51-36.94,33.51-36.94,28.75-9.56,45.75-16.56,46-22.69,46-22.69A181.65,181.65,0,0,1,299.73,321s-52.57,50-81.9,56.77"/><path class="cls-5" d="M221.53,382.25c26-2.25,82-58.45,82-58.45,4.45,3.43,8.64,6.88,12.67,10.23,0,0-44.77,64-79.72,65.74"/><path class="cls-5" d="M240.8,404.54c32.31,1,78.77-67.66,78.77-67.66,5.48,4.56,10.67,8.86,15.82,12.55,0,0-11.41,21.39-23.15,27.73"/><path class="cls-5" d="M367.24,361.35c-9.62.27-18.19-3.08-26.7-8.44,0,0-7.11,14.85-15.07,18.72"/><path class="cls-5" d="M180.5,338.5s62-51,100-30"/><path class="cls-5" d="M290.17,256.17s5.33,2.33,8.33,16.33-.29,40.77-.29,40.77c5.36,3.56,10.11,7.11,14.4,10.53,0,0,14.89-13.3,14.89-39.3,0,0,0-13-5-20"/><path class="cls-5" d="M326.75,266.62s5.75,3.88,3.75,24.88a68.28,68.28,0,0,1-14.34,35.2c4.23,3.51,8,6.86,11.55,9.93,0,0,24.53-33.59,22.16-53.36"/><path class="cls-5" d="M353.54,287c3,15.48-22.07,52.89-22.07,52.89,5.22,4.43,10,8.11,15,10.63a35,35,0,0,0,7.35,2.59S372.5,323.25,373,311.38"/><path class="cls-5" d="M285.56,256.17c15.05,9.66,8.19,54.21,8.19,54.21-17.12-11-19.24-13.29-30.43-12.52,0,0-3.62-28.36-15.82-30.36"/><path class="cls-5" d="M186.46,330.13s33-27.63,61-30.63l10.89-1.2s-4.14-22.8-14-28.3"/><path class="cls-5" d="M585.18,343.41A131.53,131.53,0,0,1,561.5,371.5a101.27,101.27,0,0,0-1-23c-1.88-12.23-14-21-13-24s7-4,7-4"/><path class="cls-5" d="M459.5,308.5c-5,4-9,11-11,21-1.75,8.77,15,16,18.17,23.67S453.26,365,453.26,365c11.84,2.81,23.09,5.51,31.24,7.55,28,7,42-5,39-17s-57-18.33-52-30.17,21-17.83,38-19.83"/><path class="cls-5" d="M519.5,307.5s-37,5-41,15,16,12,27,16,20,6,22,15,1,17-11,22-23,3-52-4-77.58-17.24-77.58-17.24-14.39,1.76-27.55-.12c0,0,14.71-25.21,17.92-36.43"/><path class="cls-5" d="M451.5,311.5s-9,14-7,23,20,15,19,20-16.83,8.89-16.83,8.89c-26.95-6.36-54.61-12.72-54.61-12.72"/><path class="cls-5" d="M402.09,342s17.41,10.5,31.41,5.5-3-20-1-27"/><path class="cls-5" d="M405.46,338.25s11,8.25,24,6.25,2-12,1-15a37.58,37.58,0,0,1-1.4-6.62"/><path class="cls-5" d="M548.5,317.5s-5,0-5,6,6,10,10,19,1.77,33.57,1.77,33.57c-8.3,6.69-17.57,12.12-26.77,13.43-28,4-69.18-8.22-69.18-8.22"/><path class="cls-4" d="M543.5,421.5s-22.82,6.36-28.41,7.68"/><path class="cls-4" d="M533.5,429.5s-8.82,2.36-14.41,3.68"/><path class="cls-5" d="M617.23,380.66s2.27-15.16,102.27-6.16c0,0,58,9,69,2s15.58-12.14,13-24"/><path class="cls-5" d="M614.07,376.13s-1.57-2.63,15.43-6.63,62-3,87,0,61,9,69,4,10-10,11-16-1-14-1-14"/><path class="cls-5" d="M594.5,352.5s6,3,16,3,70-8,118-17,62-2,62-2,20-12,28-8a12.17,12.17,0,0,1,7.17,11.67"/><path class="cls-6" d="M786.5,330.5s-18-5-61,3-98,20-116,18-21-5-21-5-26,41-58,46a118.47,118.47,0,0,1-17.83,1.35s1.83,10.65-4.17,14.65c0,0,25,7,43-2s49.36-36.3,51-45"/><path class="cls-4" d="M578,336.06s-2.51-9.56,10.49-11.56,77-1,105-6,69.33-10.67,74.17-15.83"/><path class="cls-5" d="M574.17,333.91s-.67-5.41,5.33-10.41,50-4,50-4,52-3,73-7,54-7.45,62-14.22"/><path class="cls-5" d="M741.5,274.5s-4,13-100,28c-36.23,5.66-48.33,12.67-73.17,9.33"/><path class="cls-5" d="M572.67,307.61s3.83,2.89,20.83-.11,54.23-9.75,79-15c66-14,64-22,64-22"/><path class="cls-5" d="M591.5,291.5s78.13-6.28,94-11c37-11,13-27,13-27"/><path class="cls-5" d="M598.5,285.5s59.32-3.46,77-7c30-6,26-20,12-26,0,0-18-1-36,14,0,0-25.1,16.33-35,6"/><path class="cls-5" d="M482.26,212.5s42.24-58,82.24-56,103,96,103,96a58.4,58.4,0,0,0-18,10c-5,4-15,7-20,9s-8.56-2.64-8.56-2.64"/><path class="cls-5" d="M693.5,392.5s28-4,42-4,38,0,42,4a7.38,7.38,0,0,1,1.27,8.74"/><path class="cls-4" d="M500.25,260.53s13.25,6,18.25,24,21,29,21,29"/><path class="cls-7" d="M548.5,317.5s-16-12-22-23c-.17-.3-.33-.6-.49-.9,0,0,8.49,5.9,18.49,3.9s5-26,0-35-21.25-24-24.62-27"/><path class="cls-5" d="M449.75,312a22.65,22.65,0,0,1,.39-6.12S486.5,263.5,496.5,259.5l6.33-3.15s6.67,3.15,11.67,12.15c4.18,7.52,5.56,12.94,9.4,20.93,0,0,11.6,8.07,19.6,5.07s0-26,0-26-12-18-17-22-9.62-7.75-9.62-7.75"/><path class="cls-4" d="M578.25,302.67s6.25-21.17,4.25-33.17,0-18,0-18"/><path class="cls-4" d="M581.94,299.43s3.56-12.93,3.56-21.93-2.63-17.3-.32-21.15"/><path class="cls-5" d="M572.5,307.5s-15,3-13-10,4-38,0-47,5.4-18.75,5.4-18.75"/><path class="cls-5" d="M575.61,305s-10.11,1.49-11.11-2.51,2-22,2-30-2.7-21.09-4-25c-1-3,1-6,1-6l4.83-7.38"/><path class="cls-5" d="M492.91,273.7S519.43,293,521.5,307.5"/><path class="cls-4" d="M491.42,278s19.36,15.92,23.08,21.5c4,6,3.83,7.67,3.83,7.67"/><path class="cls-4" d="M482.5,297.5s9,6,10,7"/><path class="cls-4" d="M483.5,294.5s11.52,8.35,15,10"/><path class="cls-5" d="M117.39,167.41s6.37,7.52,12.74,16.18c0,0,12.37,10.91,35.37-.09s25-4,31,1,15.08,15.44,15.08,15.44c2.84-1.34,6.19-2.29,10.92-5.44,9-6,11.37-14.95,9.19-21.48,0,0-14.19-22.52-50.19-16.52s-50.14-2.42-50.14-2.42"/><path class="cls-5" d="M235.36,275.43s2.14-13.93.14-21.93-1-13-10-23-18-12-17-18,7-10,16-13,11.85-19.87,11.85-19.87"/><path class="cls-4" d="M248.94,201.29s-13.65,26.68,9.45,59.94"/><path class="cls-4" d="M252.34,208.11s-5.84,9.39-.84,27.39S263.33,260,263.33,260"/><path class="cls-5" d="M103.1,131.37s14.4,8.13,19.4,11.13,12.67,8.56,12.67,8.56a58.13,58.13,0,0,0,34.33,3.44c19-4,37.13-5.61,49.06,3.7"/><path class="cls-6" d="M179.25,246.25S167.5,241.5,165.5,256.5c-1.27,9.49-13.34,14.18-22,16.34,0,0,14,5.66,14,13.66a34,34,0,0,1-4,15s13,0,27-15,17.83-23.19,17.83-23.19"/><path class="cls-6" d="M.5,255.5s73,23,134,19c0,0,23,6,17,19s-15,13-21,11-21-6-33-5-38,6-51,6-46-2.83-46-2.83"/><path class="cls-5" d="M909.67,282.21S866.5,178.5,801.5,181.5,704,255,704,255"/><path class="cls-5" d="M1151,405s42.5-58.5,80.5-72.5,64,2,91,15,43,46,43,46"/><path class="cls-5" d="M94.7,121.93S138.5,72.5,216.5,71.5c66.48-.85,114.09,87.94,114.09,87.94"/><path class="cls-5" d="M528.33,167.67s-18.21-34.79-36.91-62.86C480.2,88,472,72.25,458.5,71.5c-36-2-70.17,86.86-70.17,86.86"/><path class="cls-6" d="M1240,305s-15.5,37.5-46.5,20.5-13-60-40-60-44,47-54,50-29-1-29-1,37-79,86-80S1253,327.44,1253,327.44"/><path class="cls-5" d="M1363,231.5c-80.5,0-134,57-134,57s33.51,38,75.51,38a253.69,253.69,0,0,0,76-12"/><path class="cls-5" d="M1310.5,341.5s21,9,35,4,24-8,35-6v5s-23,5-32,8c-7.41,2.47-21-2-21-2"/><path class="cls-5" d="M497.5,195.19s3,7.31,17,12.31,42,2,62-4,41.64-12,41.64-12,29.36-61,100.36-61,96.21,51.66,96.21,51.66"/><path class="cls-5" d="M778.25,185.75s26.47,14.15,55.25,17.75c24,3,31.21,9,31.21,9s52.79-89,105.79-82,126.15,142.9,126.15,142.9"/><path class="cls-5" d="M564.5,156.5s54-108,117-100,85.66,83.41,85.66,83.41"/><path class="cls-5" d="M622.91,79.1S567.5-17.5,523.5-7.5s-90.68,89.89-90.68,89.89S393.5,41.5,346.5,44.5s-74,47.5-74,47.5"/><path class="cls-5" d="M1198.5,127.5s86-110,122-77,85,40,85,40"/><path class="cls-5" d="M885.33,183.75,885,173s4.33,2.67,6.67,2.33A48.74,48.74,0,0,1,927.46,163l14.8-17.61A166.07,166.07,0,0,0,921.73,147S908.26,106.45,882.5,82.5c-20-18.55-51.32-22.38-64-20C786.5,68.5,746,98,746,98"/><path class="cls-5" d="M950,145.44c17.59.59,38.07,4.57,44.51,19.06,0,0-2,19-14,24a105,105,0,0,0-44-24c-1.11-.29-2.2-.53-3.28-.74Z"/><path class="cls-5" d="M-14.5,83.5s39-94,51-105,77-4,85,5S165.83,79,165.83,79s27.67,4.5,38.67,14.5,22,31,22,31l32,66"/><path class="cls-5" d="M346.5,44.5s-39-78-74-79S147,35.34,147,35.34"/><path class="cls-5" d="M827.38,185.38s3.12-26.88.12-30.88-11-3-19-7c-4.22-2.11-7.39-6.27-9.45-9.73,0,0-16.22-3.6-23.38,6.56"/><path class="cls-6" d="M751.67,106.5s14.83-5,18.83-5,9,3,15,18c3,7.5,7.25,11,10.75,12.63,0,0-18.08-.21-24.42,10.08"/><path class="cls-6" d="M843.5,194.5c10.51-8.95,11-25,11-25,.63-17.52-5-31-24-49,0,0-18,12-28,13,0,0,8,14,24,15s5.17,39,5.17,39"/><path class="cls-6" d="M787.5,73.5c-8.5,10.75-7.45,27-7.45,27-6.41-5.58-13.49-5.4-19.55-3-10,4-12,5-12,5"/><path class="cls-5" d="M798.5,68.5c-13.51,11-14,37.08-14,37.08a51.17,51.17,0,0,1,6,11.92c8,22,36-2,36-2-5.85-7-10.36-15.87-11-21-.25-2-1-8-.31-9.9,0,0,1.31-11.1-1.69-15.1a35.12,35.12,0,0,0-4-4.83"/><path class="cls-6" d="M592,35s65.5-70.5,120.5-71.5S845,64,845,64s-16.54,7.61-24.88,17.89c0,0,.38-14.39-4.62-18.89"/><path class="cls-5" d="M1252.67,425.5s57.83-34,64.83-40,19-10,26-10a28.82,28.82,0,0,1,12.5,3s10.5,13,.5,23-72,38.33-72,38.33"/><path class="cls-5" d="M1290.83,444.5s66.67-31,73.67-38"/><path class="cls-5" d="M1301.89,453.4s45.61-29.9,68.61-28.9-47.5,49.75-47.5,49.75"/><path class="cls-5" d="M1305.77,457s53.73-29.49,58.73-25.49-47,38-47,38"/><path class="cls-5" d="M1346.64,502.29s22.86-9.79,28.86-12.79,1,7,1,7l-25.7,10.92"/><path class="cls-5" d="M1235.5,282s31.67,32.5,68,34.5a206.72,206.72,0,0,0,67.46-8.11"/><path class="cls-5" d="M1251.66,269.38s27.84,33.12,63.84,20.12,23,10,39,10,40-34,40-34-44.56-30.14-54.78-32.57"/><path class="cls-5" d="M1257.61,265.24s16.89,20.26,35.89,19.26,10,1,29-5,25,4,29,9,16-5,16-5,0-23-1-26-37.17-23.17-37.17-23.17"/><path class="cls-6" d="M1258.5,159.5h-23c-28,0-67,10-89,34S1073.86,235,1073.86,235,1143.5,127.5,1198.5,127.5s122,109.19,122,109.19,12,21.81-2,27.81-48.75-6.84-48.75-6.84,1.75-8.16,13.75-14.16,28-20,28-20"/><path class="cls-5" d="M1278.67,252.78s25.83,9.72,34.83,5.72.77-20,.77-20"/><path class="cls-5" d="M1346.17,365.67a222.3,222.3,0,0,0,23.33-5.17c10-3-3,9-3,9l-14.75,2.8"/><path class="cls-5" d="M860.5,68.67s60-74.17,81-78.17,29-18,49-7,67,93,67,93"/><path class="cls-5" d="M918.11,136.25S1045.5,82.5,1077.5,67.5s100,65,100,65"/><path class="cls-5" d="M1339.5,65.67c-7,16.16,42,41.83,38,38.83s-20-6-62,5S1234,86.67,1234,86.67,1160.5-13.5,1130.5-13.5s-89.25,63-89.25,63S1050.5,69,1049,80.25"/><path class="cls-5" d="M1199.33,43.32S1260.5-25.5,1293.5-30.5"/><path class="cls-5" d="M130.5,94.5s68.56,7.22,71.78,51.61"/><path class="cls-5" d="M211.8,152.44s-6.14-20.71-17.3-36.94c-11-16-57-25-57-25s-16-5-14-18,4-18,12-17,21,2.5,21,2.5"/><path class="cls-6" d="M1077.5,239.67s25-7.17,45-19.17,39-33,50-39,43-12,56-14,36.5-1.33,36.5-1.33"/><path class="cls-5" d="M1229,93.67s36.75,28.85,66.5,24.83c37-5,77-11,85-12s-2-11-2-11-31.33-15.67-31.17-25.33"/><path class="cls-5" d="M1244.67,77.84S1280.5,99.5,1303.5,98.5s20-28,23-32a17.53,17.53,0,0,1,6.83-5.5"/><path class="cls-5" d="M1252.26,71.17S1292.5,97.5,1306.5,90.5s8-20,13-26,8-8.07,8-8.07"/><path class="cls-5" d="M1316.25,47.75S1308.5,66.5,1295.5,68.5s-26.4-10.23-26.4-10.23S1310.5.5,1329.5-7.5h6s-45.5,45-52.25,57.49"/><path class="cls-5" d="M1276.32,53.69s13.18,8.81,19.18,6.81S1309,45.25,1309,45.25"/><path class="cls-5" d="M1219.25,104.09s49.25,44.41,80.25,41.41,74,26,74,26l-1,6s-34-20-49-23-21,0-32-1-34-13-47-22S1214.13,109,1214.13,109"/><path class="cls-5" d="M1377.5,156.5s-38-15-39-18,6-15,29-20,13,3,13,3-32,8-31,13,26,13,26,13"/><path class="cls-5" d="M1271.25,171.64s21.25-12.14,43.25-2.14,56,29,56,29v7s-59.26-30.75-69-33c-13-3-24,5.4-24,5.4"/><path class="cls-5" d="M1291.37,195.68s24.13,4.82,43.13,13.82,36,24,36,24"/><path class="cls-5" d="M1296.67,202.5s35.83,10,61.83,29"/><path class="cls-5" d="M1226.14,76.33S1288.5-5.5,1309.5-10.5l-3,8s-63.57,66.67-75.79,84.83"/><path class="cls-5" d="M1318.5,48.5s36-41,39-57h5s-12.13,38.76-39.57,60.88"/><path class="cls-5" d="M1337,63.4s30.52-39.9,38.52-41.9h6l-37.76,46.18"/><line class="cls-5" x1="1355.75" y1="73.67" x2="1374.5" y2="51.5"/><path class="cls-5" d="M1048.25,60.5s38.25,6,52.25-16c13-20.42,72.25-30.25,72.25-30.25"/><path class="cls-5" d="M1044.5,54.71S1078,61,1089,50s11-14,22-20,57.41-19.75,57.41-19.75"/><path class="cls-5" d="M1049.29,41.28s21.21,12.22,37.21-3.78,41-23,51-30a25.75,25.75,0,0,0,11-17l-5,.3s-5,10.7-13,14.7-24,12-33,18-15,15-22,16-21.71-2.62-21.71-2.62"/><path class="cls-5" d="M1067.32,24.33s8.18.17,26.18-9.83,28-21,28-21l-6.25-2.25S1102.5,3.5,1094.5,8.5a59.51,59.51,0,0,1-16.79,6.9"/><path class="cls-5" d="M1099,67.5s11.5-18,31.5-27,51.75-15.75,51.75-15.75"/><path class="cls-5" d="M1186,28.25s-18,5.32-34.33,10.5c0,0-10.22,37-24.2,45.86"/><path class="cls-5" d="M1103.46,69.85s15-18.35,23-22.35c2.54-1.27,9.45-3.67,17.72-6.36,0,0-8.35,30.69-23,38.53"/><path class="cls-5" d="M1135.26,90.79S1153.5,57.5,1163.5,52.5L1194,37.22"/><path class="cls-5" d="M1138.67,93.67S1157.5,65.5,1163.5,60.5s36,21.33,58.5,10.67"/><path class="cls-5" d="M1197.32,41S1173.5,52.5,1174.5,54.5s23,13,32,13,11.68-1.33,11.68-1.33c22.68-31.34,73.32-82.67,73.32-82.67l-9,1c-27,12-68,77-68,77"/><path class="cls-5" d="M1148.5,103s9-19.5,28-20.5,48,10,57,4"/><path class="cls-5" d="M1153.4,107.11s5.1-13.61,18.1-15.61,50.5,5,55.25,3.5"/><path class="cls-5" d="M1163.46,117.18s10-7.68,29-8.68,28-6.5,28-6.5"/><path class="cls-5" d="M1217.85,23.85c-13.65-5.66-6.35-8.35-6.35-8.35,6-3,26-23,26-23l-3-2s-25,26-34,23-13-18-13-18h-8c-.38,5.25,4.31,11.06,10.32,16.28"/><path class="cls-5" d="M1213.5,27.5s-13.67-7-23.68-15.72"/><path class="cls-5" d="M1203.77,37.5S1180.5,9.17,1164,5.83"/><path class="cls-6" d="M859.5-9.5s-30,37.5-40,43.25"/><path class="cls-6" d="M823.68,38.63S850.5,15.5,855.5,8.5s23-10,9,13-30.63,28.82-30.63,28.82"/><path class="cls-6" d="M837.87,55.11S849.5,52.5,860.5,39.5s18-28,17-41"/><path class="cls-6" d="M795,9s28.5-5.5,32.5-14.5h6s-9.11,14.77-32,20.88"/><path class="cls-5" d="M1092.5-5.5s-21,7-37,9-46-7-46-7l-2.07,2.62S1035.5,12.5,1051.5,10.5s52.7-14.34,52.7-14.34"/><path class="cls-5" d="M1021.27,19s42.07,7,51.65.26"/><path class="cls-5" d="M1026,25.76s23.87,5.94,37.21,1.84"/><path class="cls-5" d="M956.5-11.5s50,36,27,73-47,1.74-78.5,49.37"/><path class="cls-5" d="M902.5,106.5s8-17,25-24,36-4,45-14,15-30,10-40-39,15-60,9-25.12-11-25.12-11c7.12-19,5.12-35,5.12-35l-7,1a84.61,84.61,0,0,1-2,24c-3,13-41.33,49.17-41.33,49.17"/><path class="cls-5" d="M900.5,23.5s17,11,28,10,47-11,48-15S960.25-2,960.25-2"/><path class="cls-5" d="M888,36.69S916.5,55.5,937.5,51.5s7,20-12,22-44,8-44,8"/><path class="cls-5" d="M884.52,40.56s25,15.94,38,14.94,17-1,20,1-6,10-12,11-54,10.06-54,10.06"/><path class="cls-5" d="M1010.93,96.74a87.07,87.07,0,0,0-11.69-4.16S995.5,78.5,1000.5,71.5s4-22,6-23,7-7,10,3-7.92,32.85,5,41"/><path class="cls-5" d="M912.25,125S932.5,101.5,938.5,100.5s27,3,35-1,10-5,18-4a101.78,101.78,0,0,1,15,3.13"/><path class="cls-5" d="M995.5-3.5s-4,16,1,31,6,30,0,40c0,0-4,14.59-2,21,1.6,5-12.41,1.85-16,4-10,6-30,1-40,4s-28,24.58-28,24.58"/><path class="cls-5" d="M998.5-2.5s-1,14,0,22,6,24,6,24,6-5,10-2,8,8,7,14-3,20-1,26a40.08,40.08,0,0,0,4.26,9.28"/><path class="cls-5" d="M1012.52,6.74s-1,15.76,9,27.76,13,52.17,13,52.17"/><path class="cls-5" d="M1016.72,12.45s-.22,12.05,7.78,18.05,14,43,14,43l.5,11"/><path class="cls-5" d="M1049.64,63.17s3.86,9.33,3.36,15.33"/><path class="cls-5" d="M909.5,15s25,3.5,31-2.5,2-17,2-17l-4,1s6,8-1,13-25,1.76-25,1.76"/><path class="cls-5" d="M602.84,48s3.61-4.83,9.55-11.85a130.48,130.48,0,0,0,28.36-6.38s-9.37,35.6-10.81,43.66"/><path class="cls-5" d="M657.71,58.7S720.5-14.5,686.5-16.5c-22.17-1.3-51,26.51-68.37,46,0,0,25.37,4,51.37-32l7-1s-11.78,20.19-26.07,28.93c0,0-13,30.55-13,42.81"/><path class="cls-5" d="M493.5,8.67s13,23.83,33,24.83,30,0,48,4,23,4.26,23,4.26,49.62-56.59,58.78-58.43S701.5-1.5,701.5-1.5s-16,40.33-32,57.67"/><path class="cls-5" d="M699.17,60.67C698.83,45.83,710.5,34.5,714.5,29.5s15-7,18-17-4-27-4-27h-7s18,22-3,34c-8.23,4.7-17,23-16,19,1.24-5,4-19,11-31s2-21,2-21l-3,1a28.52,28.52,0,0,1-2,17c-4,9-11,23-13,31s-.25,8.91-.25,8.91a68.66,68.66,0,0,0-4.75,14.25"/><path class="cls-5" d="M711.61,66.5S724,31,740,31a30.09,30.09,0,0,1,9.17,1.63S741.5,3.5,742.5-6.5s5-2,5-2l4,28s14,0,11-25,4,1,4,1,6,19-1,24-11,5-11,5L755,34.88c10.59,4.58,19.87,10.66,24,3.12,6-11,5-40-1.5-42.5"/><path class="cls-5" d="M738.59,89s1.91-8.5-.09-21.5-14.68-15.6-14.68-15.6c3.69-6.68,8.24-13.07,12.68-14.4,4.1-1.23,9.37.4,14.93,2.68a381.17,381.17,0,0,1,2.06,52.68"/><path class="cls-5" d="M821.5,62.25c-19-25.25-33.7-33.66-33.7-33.66-.17,2.38-.3,3.91-.3,3.91s-1,7.18-5.65,11.63c0,0,11.65,20.37,12.65,25.87"/><path class="cls-5" d="M758.62,89.53c1.13-9-1.86-47.06-1.86-47.06,6.34,2.77,12.68,5.49,17.74,5a12.55,12.55,0,0,0,1.9-.32S789.57,65.48,789.54,72"/><path class="cls-5" d="M788,2.5c.73,3.4.63,10.55.34,17,0,0,24.66,21,38.91,42"/><path class="cls-5" d="M715.94,69.09S718,63.5,721.18,57c0,0,17.17,3.5,13.75,27.5"/><path class="cls-5" d="M503-5s10,18,28,17,44.17,4.17,44.17,4.17L596.5,8.5s-5-11-8-14,5-1,5-1,5,13,7,13,13-13,13-13l4-1s-6,10-8,12c0,0,14-3,18-2"/><path class="cls-5" d="M511.17-3s3.33,8.5,15.33,9.5,30,1.33,41.5,3.17"/><path class="cls-5" d="M508.67,132.42s17.83,7.08,37.83,3.08S586.17,121,586.17,121"/><path class="cls-5" d="M513,139.86s11.55,4.64,32.55.64,35.17-10.95,35.17-10.95"/><path class="cls-5" d="M521.17,154.83s12.33,2.67,23.33-.33a208.75,208.75,0,0,1,23.67-4.67"/><path class="cls-5" d="M523.82,159.26s10.68,1.24,18.68-.76,23.83-4.94,23.83-4.94"/><path class="cls-5" d="M391.8,53.91s1.7-9.41,14.7-12.41,31-45,31-45h7s-21,36-26,51-5.87,18.33-5.87,18.33"/><path class="cls-5" d="M395,55.43c.5.07,8.5-10.93,15.5-8.93s-2,16.25-2,16.25"/><path class="cls-6" d="M426.52,76.55s4-20,7-27,9-15,13-17c.76-.38,1.63-.84,2.57-1.39,0,0,1.43,3.39,12.43-3.61,0,0,12.38-7.5,18.69-7.25"/><path class="cls-6" d="M423.07,73.08S426.5,35.5,445.5,27.5s9-36,9-36h4s5,15,2,25c-1.7,5.67-7,8-7.69,12,0,0,13.69-11.95,31.69-11.95"/><path class="cls-5" d="M355.82,44.46s4.68-15,1.68-23l12,3s4,0,3.39,2.86A99.76,99.76,0,0,0,370.7,45.8"/><path class="cls-6" d="M440.88,69.62S447.75,43.5,463.12,39"/><path class="cls-6" d="M471.5-3.5a10.23,10.23,0,0,0,10,7c8,0,19-9,19-9"/><path class="cls-6" d="M579.38,20.5S613,7.25,622.25,6.88"/><path class="cls-5" d="M562,4.75s16.5-.25,20.5-8.25"/><path class="cls-5" d="M-12.5,112.5s12,25,47,16-4-24-4-31S46.26,86.22,46.26,86.22"/><path class="cls-5" d="M-3.5,128.5s11,6,22,6a86.48,86.48,0,0,0,19-2s37-17,43-24"/><path class="cls-5" d="M-7.5,105.5s14,14,22,6-1-17,6-25,11-7,11-7"/><path class="cls-5" d="M25.5,77.5s-9,5-11,11,1,19-4,20-18-7-18-7"/><line class="cls-5" x1="-11.5" y1="86.5" x2="7.5" y2="72.5"/><path class="cls-5" d="M123,161C79.5,80.5.5,71,.5,71s-17-.5-25,2.5"/><path class="cls-5" d="M-2.5,149.5s21-12,40-2,26-12,37-18a72.29,72.29,0,0,1,20.2-7.57"/><path class="cls-5" d="M-2.5,154.5s15-9,23-7,12,3,16,7,0,24.25,0,24.25"/><path class="cls-5" d="M41,179.41s-.5-19.91,2.5-22.91,10,0,16-4,11-15,17-19,21.75-6.79,21.75-6.79"/><path class="cls-5" d="M63.1,182.66s-3.6-14.16,8.4-22.16,35.75-22.79,35.75-22.79"/><path class="cls-5" d="M109.86,141.25s-9,5.14-18.57,11.44c0,0,15.64,19.66,17.43,24.73"/><path class="cls-5" d="M67.51,183.72c0-1.22-4-5.22,4-15.22,2.84-3.55,8.5-8,14.62-12.3,0,0,15.88,18.3,18.63,26.3"/><path class="cls-5" d="M132.67,4.33S157.5-5.5,161.5-12.5s6,2,6,2S141.74,9,135.62,10.26"/><path class="cls-5" d="M21,5S-8.5-2.5-9.5-12.5s-3,9-3,9S7,10.57,17.74,11"/><path class="cls-5" d="M-6.5-3.5,4,39.67S19.5,50.5,21.5,58.5s.17,17.33.17,17.33"/><path class="cls-5" d="M187,6.33s5.5,31.17,25.5,35.17,20.1,31.18,20.1,31.18"/><path class="cls-5" d="M192.5,2.75s4,26.75,16,30.75,20,9,21,8-14.94-44.69-18-50.84,3-7.16,3-7.16,19,46,20,57S238,73.67,238,73.67"/><path class="cls-5" d="M244.67,76s-7.17-37.5-.17-51.5,15-14,11-32,6,3,6,3,3,12-4,22-9,14-9,31a106.09,106.09,0,0,0,5.26,31.76"/><path class="cls-5" d="M283.5-9.5s-18,30-17,48,9.86,47.72,9.86,47.72"/><path class="cls-5" d="M285.5-2.5s-14,33-13,42,8.95,40.09,8.95,40.09"/><path class="cls-5" d="M293.5-7.5s17.67,26,35.83,23.5"/><path class="cls-5" d="M303.5-5.5s12.67,16.67,22.83,15.83"/><path class="cls-6" d="M169.33,77.83c-6.16-10.66-3.54-32.24-3.54-32.24A62.43,62.43,0,0,1,181.5,44.5c5.08.34,9.51,3.63,13.14,7.83,0,0-6.14,19.5-15.64,23.34"/><path class="cls-6" d="M205.83,72.25a75.6,75.6,0,0,0-8.52-16.5s-5.48,14.08-9.14,17.92"/><path class="cls-5" d="M153.67,30s11.83-.5,20.83-5.5S180,11.23,180,11.23"/><path class="cls-5" d="M165.23,21.69A9.44,9.44,0,0,0,173.17,16"/><path class="cls-5" d="M289.89,70.5s-8.39-39,3.61-45,41.25-1,41.25-1c1.25-5,7.75-11,7.75-11-10-4-15-15-15-15h5c1.29,5.15,9.36,9.86,18.16,13.57L357.5-11.5l4,1-6.2,24.41a195.52,195.52,0,0,0,20.09,6.24,47,47,0,0,1,4.11-7.65c10-15,6-37,6-37l5,1s2,24-5,36,15,16,21,10,8-31,18-40h7a156.27,156.27,0,0,0-16,33c-6,18-16,15-18,15s-14-2-16-6c0,0-5,7.24-5,23.62"/><path class="cls-5" d="M294.16,67.35S290.5,38.5,293.5,33.5s26,17.33,26,17.33"/><path class="cls-5" d="M323.76,49.41S303.5,30.5,301.5,29.5s2-3,10-3S337.25,28,337.25,28s5.25-10.5,10.25-12.5c0,0,9,3.58,4,29.29"/><path class="cls-6" d="M32.5-8.5s-1,36,23,35,47-15,54-7-37,15-34,22S149,40.25,149,40.25"/><path class="cls-5" d="M28.5-5.5s-3,22,12,32,56-6,60-5-30,12-31,16-8,12,14,12,67.63-4.74,67.63-4.74S171.5,37.5,180.5,38.5s18,10,23,19a108.34,108.34,0,0,1,6.86,14.18"/><path class="cls-5" d="M15.86,14.93S22.5,36.5,32.5,39.5s21-2,22,8S52.4,76,36.45,81.23"/><path class="cls-5" d="M12.33,22.42S17.5,40.5,25.5,43.5s19-1,23,2,0,19-5,27A29.26,29.26,0,0,1,33,80.23"/><path class="cls-5" d="M49.33,87.67S68.5,78.5,65.5,69.5s15-9,15-9,33,2,31,22,16.33,13.33,16.33,13.33"/><path class="cls-5" d="M53,89.79S66.5,83.5,68.5,75.5s-1-10,5-11,25,2,31,8,0,16,4,20,7.33,8.33,13.17,7.67"/><path class="cls-5" d="M2.5,44.17s10,3.33,14,13.33.83,17,.83,17"/><path class="cls-5" d="M69,99.67S71.5,89.5,86.5,93.5a31.71,31.71,0,0,1,20.33,16.67"/><path class="cls-5" d="M71.43,101.54s8.07-11,19.07-4,12.83,15.33,12.83,15.33"/><path class="cls-5" d="M143,88.38S132.5,84.5,129.5,77.5s-1-15,3-17,26.33,1.67,26.33,1.67"/><path class="cls-5" d="M151,84.71s.48-8.21,6.48-10.21l6-2"/><path class="cls-6" d="M155,83.14s.84-6.31,9.18-8"/><path class="cls-6" d="M45.5-4.5s-1,15,11,17,36-11,45-8,29.67.67,26.83-8.17l-2.83.17s-7,9-17,6c-4.88-1.47-10-5-18-2s-28,13-34,9-6-12-6-12"/><path class="cls-6" d="M136.89,13S113.5,30.5,123.5,32.5s21.91-.7,21.91-.7"/><path class="cls-5" d="M138.38,16.23S125.5,26.5,127.5,28.5,143.71,28,143.71,28C148.91,25.46,190.5-5.5,190.5-5.5s3-14-7-2-42.8,28.82-42.8,28.82"/><path class="cls-6" d="M169.42,238.46c-10.07,6-9.92,6-10.92,13-.85,5.95,1,15-33,17-11.4.67-33.46,1-52.42-2.61,0,0,38.42-9.39,44.42-31.39s-5.17-33.5-5.17-33.5"/><path class="cls-6" d="M.5,247.33s32.12,10.17,64.7,17c0,0,41.3-11.81,48.3-31.81S99.67,195,99.67,195"/><path class="cls-6" d="M.5,228.5s29,9,59-2,29.5-31,25.75-37"/><path class="cls-6" d="M.5,221.5s19,7,31,3-2-16-16-20S.5,195,.5,195"/><path class="cls-6" d="M.5,189.5s8,11,26,15,16,18,16,18,13,2,24-6,15-12,15-19-5.75-11.75-5.75-11.75"/><path class="cls-6" d="M202.28,266.63S187.5,299.5,151.5,307.5s-34-7-78,0c0,0,30.83,5.13,22,16"/><path class="cls-4" d="M159.33,327.33s16.17-.83,27.17-11.83,30-22,30-22"/><path class="cls-4" d="M165.83,330.5a61.67,61.67,0,0,0,17.67-7c8-5,14.67-15.67,23.83-20.83"/><path class="cls-4" d="M506.5,251.5c-47-101-147-105-193-87-29.17,11.41-67,32-67,32"/><path class="cls-8" d="M302.52,169s8,25.46,74,35.46q3.9.58,7.56,1s-38.56-14-40.56-36c0,0-1.56-5.4,4.72-12.7"/><path class="cls-5" d="M297.08,171.43s5.42,19.07,33.42,26.07,56,52,55,101c0,0-1.33,14-3.17,27.5"/><path class="cls-6" d="M262.5,230.5c-10.25-32.25,24.4-31.42,24.4-31.42,11,3.23,23,8.35,33.6,16.42a75.23,75.23,0,0,1,10.09,9.32S287.5,205.5,282.5,255.5"/><path class="cls-5" d="M385.53,331.5a183.93,183.93,0,0,0,4-34.17s16-38.83,39-58.83,48.92-31.64,48.92-31.64"/><path class="cls-6" d="M474.6,203.8c-20.1,7.67-34,16.44-46.1,27.7l9.37-22.58c18.47-5.51,25.95-15.43,25.95-15.43"/><path class="cls-6" d="M423.7,236.21c-25.9,25.34-34.2,52.29-34.2,52.29-4-67-35-83-35-83s19,7,57,7a96.07,96.07,0,0,0,21.32-2.26Z"/><path class="cls-5" d="M258.3,190.27s65.74-.68,94.2,56.23c21,42,14.17,56.17,14.17,56.17"/><path class="cls-5" d="M363,297.33a33.86,33.86,0,0,0-1.5-11.83s-7.84-31.36-26.16-55c0,0-21.81-7.42-32.82-3.21s-15,28.21-15,28.21"/><path class="cls-5" d="M346.41,279.62C342.32,242.74,307.5,244,307.5,244s-7-.5-10,12.5"/><path class="cls-5" d="M341.3,275.64c-2.2-10.86-3.8-8.14-10.8-18.14s-23-7.95-23-7.95-4-.38-5,7.78"/><path class="cls-4" d="M392,344s9.5-52.5,37.5-81.5,58.86-42.08,58.86-42.08"/><path class="cls-6" d="M394,347.5s11.5-44,24.5-62,27-30,42-41c0,0-42,57-44.5,86"/><path class="cls-4" d="M419.88,328c1.37-18.5,46.62-86.5,48.62-89.5s21.95-15.14,21.95-15.14"/><path class="cls-5" d="M443.29,178.5s-1.79,8-15.79,12-32-4-47-15-8.32-18.7-8.32-18.7,10.32-15.3,10.32-21.3-2-7-2-7,6-8,6-12,22.53-.86,22.53-.86"/><path class="cls-5" d="M496.57,232.81S444,275.5,445.25,314"/><path class="cls-6" d="M506.5,251.5c-24,5-54.45,48.25-54.45,48.25,2.57-6.29,7.06-13.48,12.45-24.25,9-18,34.35-38.81,34.35-38.81s7,5.81,15.82,3.81"/><path class="cls-5" d="M50.43,88.38S35.5,92.5,36.5,97.5s18,18,21,18,19.18-10,19.18-10"/><path class="cls-5" d="M535.5,164.25s10.5,20.75,51.75,1.5"/><path class="cls-5" d="M531.25,166.5s2.25,8,16.25,11,44.75-8.41,44.75-8.41"/><path class="cls-5" d="M501.75,190s.75,12.5,25.75,15.5,86-18.47,86-18.47"/><path class="cls-5" d="M488.36,203.85s5.14,17.65,26.14,17.65,68-12,82-12,31.5-7.25,31.5-7.25"/><path class="cls-5" d="M485.75,208.25A29.17,29.17,0,0,0,501.5,223.5c12,5,68-5,76-6s31-3,43-6a92.16,92.16,0,0,0,11.5-4.64"/><path class="cls-4" d="M495.26,230.67s9.91,8.21,23.07,6"/><path class="cls-5" d="M566.94,233.12S627,228,638.75,214.25"/><path class="cls-5" d="M570.62,236.69s31.88-2.19,49.88-9.19,20.25-10.88,20.25-10.88"/><path class="cls-5" d="M580.5,248.62s25-.12,44-8.12,22-16.12,22-16.12"/><path class="cls-5" d="M583.58,253.42a95.14,95.14,0,0,0,42.92-9.92c22-11,22-16.84,22-16.84"/><path class="cls-4" d="M588.88,263.25s28.62-1.75,44.62-9.75,21.62-18.38,21.62-18.38"/><path class="cls-5" d="M591,268.22s29.5-2.72,44.5-10.72S657.25,238,657.25,238s22.25,13.5,35.25,12.5S709,246,709,246"/><path class="cls-4" d="M596.5,281.5a32.19,32.19,0,0,0,13.25-4.75"/><path class="cls-4" d="M665.25,249.19a9.26,9.26,0,0,1-4.5,3.92"/><path class="cls-4" d="M863.5,305.5s-29-30-78-34c0,0,6-9,2-22s-23-35.5-48.5-41.25"/><path class="cls-5" d="M712.75,240.05s22.11,25.56,67.69,30.95c0,0,18.06-33.75-44.94-59.12"/><path class="cls-5" d="M710.25,244a109.69,109.69,0,0,0,41.25,24.5c25,8,55,9,59,13s-8.25,38.5-50.12,11.25"/><path class="cls-5" d="M766.62,300.62s8.88,7.88,24.88,6.88,22-15,22-15,1-8,4-8,30,10.5,43,23.75"/><path class="cls-5" d="M780.67,320.83s38.83-22,65.83-1.66"/><path class="cls-5" d="M843.5,322.5s-16-10-32-7a156.72,156.72,0,0,0-28.66,8.33"/><path class="cls-4" d="M793.83,340.67s14.67-9.17,19.67-7.17,6,1,6,7-1.17,7.83-1.17,7.83"/><path class="cls-4" d="M754.52,197.25c10,2.75,55,28.25,55,28.25s-13,25,10,34,52.75,40.09,52.75,40.09"/><path class="cls-4" d="M759.16,193.58s45.09,23,52.34,25.92c5,2,10-3,25-4s48.78,29.05,61.89,44.52"/><path class="cls-5" d="M875.92,297.39s-29.41-34.14-47.42-40.89c-16-6-22-18-15-27s20.91-9.69,27-8c18,5,62,45.72,62,45.72"/><path class="cls-5" d="M785.38,183.75S814.5,197.5,833.5,199.5s23.88,5.62,23.88,5.62"/><path class="cls-5" d="M1159.67,419s56-79,104.66-92"/><path class="cls-5" d="M1276.5,328.5c-26.4,2.35-61,35-85.1,61.56"/><path class="cls-5" d="M1185.56,396.61c1.86-2.12,3.81-4.32,5.84-6.55"/><path class="cls-5" d="M1162.67,424.5s9.12-12.19,22.89-27.89"/><path class="cls-5" d="M1287,332s-101,83.62-106,90.76-5,12.24-5,12.24"/><path class="cls-5" d="M1293.67,334s-103.17,83.5-107.17,89.5-3.5,8.33-3.5,8.33"/><path class="cls-5" d="M1216.5,422.17S1277,366,1300,354c0,0,15-7,23-6"/><path class="cls-5" d="M1224.33,422.17s71.17-61.67,84.17-64.67a140,140,0,0,1,24.5-3.33"/><path class="cls-5" d="M1244.67,423.67S1305,386,1315,378s26-11.33,34.5-8.17"/><path class="cls-6" d="M1076,319.75a46.74,46.74,0,0,0,26,.25c14-4,28-41,45-46s17,12,17,12,5,32,22,41,23,8,35,5,22-22.75,22-22.75"/><path class="cls-6" d="M1093.5,334.13S1119,334,1128,321s20-18,25-6-27,53.65-27,53.65"/><path class="cls-6" d="M1134,379.5s16.5-27,30.5-32,40.5,0,40.5,0"/><path class="cls-6" d="M1099.5,339.75s28-8.25,34-13.25,3-16,11-12-14,40-14,40l-7.62,10.25"/><path class="cls-6" d="M1136.83,383.5S1155,354,1166,352s33.33,0,33.33,0"/><path class="cls-6" d="M1176,238.75s5.5,62.75,19.5,71.75,21,4,29-2,7-16.5,7-16.5"/><path class="cls-6" d="M1181.5,241.5S1191,297,1198,304s16,7,21,3,8-6,10-19"/><path class="cls-6" d="M1161.25,234.75S1136,248,1121,271s-37,35-41,26"/><path class="cls-6" d="M1082.25,293.25s6.25,2.25,17.25-6.75,21-24,33-35a170.06,170.06,0,0,1,21-16.75"/><path class="cls-6" d="M1195.25,251.25S1202,283,1207,287s15.5,2.5,16.25-5.25"/><path class="cls-6" d="M1201.25,256.25s6.25,24.25,10.25,26.25,7.5,3,9.25-4"/><path class="cls-6" d="M1145.5,396.5s22-32.5,36-26.75"/><path class="cls-6" d="M1148.5,400.25S1163,380,1167,379s9-4.5,9-4.5"/><path class="cls-5" d="M628,176s20.5,56.5,57.5,53.5,39.62-7.14,39.62-7.14"/><path class="cls-5" d="M632.83,170.83S654,219,675,224s57.5-9,57.5-9"/><path class="cls-5" d="M645.33,157.5s36.17,46,57.17,33,46.33-8.33,46.67,9.83"/><path class="cls-5" d="M648.5,154.83s33,37.67,46,32.67,20-13,35-11,27,3.09,25,21"/><path class="cls-5" d="M791,154.83S772,166,769,175s0,13.51,0,13.51"/><path class="cls-5" d="M797,159.53s-21.49,12-22.49,19,1.34,8,1.34,8"/><path class="cls-5" d="M660.75,146.17S688,174,706,168s24-13,37-11,31.66-2,36.33-10"/><path class="cls-5" d="M666.17,143.5s24.33,22,34.33,20,23-10,32-11,23-1,32-4,9.75-4.33,9.75-4.33"/><path class="cls-5" d="M652.83,232.17S678,246,690,246a54.94,54.94,0,0,0,21.5-4.56"/><path class="cls-5" d="M682.67,136.25S703.5,153.5,731.5,146.5s23.21-10.25,23.21-10.25"/><path class="cls-5" d="M747.79,134.25C743.59,140.5,732,140,721,142s-31.5-7.75-31.5-7.75,18-9.75,20-26.75,0-41.83,0-41.83"/><path class="cls-5" d="M673.67,56.17S642,98,647,120s28,1,36-13,9.5-48.17,9.5-48.17"/><path class="cls-5" d="M658.67,147.5s-9.17-7-8.17-10c0,0,9,1,19-6s20-19,23-28,4.75-43.83,4.75-43.83"/><path class="cls-6" d="M626.67,178S607,150,607,129a121.54,121.54,0,0,1-.5-19.5s9,12,18,15S639.42,126,639.42,126c2,18.39,14.16,24.7,14.16,24.7"/><path class="cls-5" d="M699.17,132a34.38,34.38,0,0,0,13.33-16.5c4-11,1-47.83,1-47.83"/><path class="cls-5" d="M720,130.33S733,116,733,99s-4-19.33-4-19.33"/><path class="cls-5" d="M736.5,86.67s2,13.83,0,24.83a29.06,29.06,0,0,1-1.57,5.44s15.62,2.56,20.09-3.44"/><path class="cls-5" d="M725.83,130.33a39.49,39.49,0,0,0,6.79-8.67s19.13,4.09,26-2.54"/><path class="cls-5" d="M588.33,117.83S591.5,168.5,603.5,177"/><path class="cls-5" d="M584.33,123.5s1.17,33.67,10.17,46.33"/><path class="cls-6" d="M507.5,184.5S490,175,463,166a71.19,71.19,0,0,1-11.47-4.56s-1,10.06,1,14.06,6.53,14,6.53,14-13.7,20.73-66,16.89c0,0-68.6-34.33-36.08-50.11"/><path class="cls-5" d="M445.25,158.06c.55.34,1.12.67,1.7,1,0,0-3.64,12.44,5.45,25.44"/><path class="cls-5" d="M459,71s7,40-16,55c-17.25,11.25-12.56,23.06,2.25,32.06"/><path class="cls-6" d="M512,180s-1-2-12-6-54-20-60-25-1-12,0-14c.81-1.63,7.61-4.59,14.42-14.83,0,0,1.08,11.33,9.08,13.33s9-4,10-12,1.33-30,6.67-33"/><path class="cls-5" d="M463.5,72.25S467,95,459,112c-.64,1.36-1.29,2.64-2,3.84,0,0,2.46,14.66,7.46,14.66s7-34,9-38,3.92-8.17,3.92-8.17"/><path class="cls-5" d="M605.75,179.5l-37.25,14s-33,8-42,0C517.13,185.18,516,177,516,177s-4-20-21-32-10.17-49.83-10.17-49.83S503.5,112.5,541.5,105.5,603.84,98,603.84,98c-12.34,51.5,19.91,83.57,19.91,83.57"/><path class="cls-5" d="M489.5,101.83S487,120,491,130s14,15,17,20,7,10,8,13a13.06,13.06,0,0,0,4.5-9"/><path class="cls-5" d="M523.42,158.06A66.49,66.49,0,0,1,519,167l1.5,6.93s2,18.57,27,17.57S601,175.75,601,175.75"/><path class="cls-5" d="M397.74,136.48S429,117,434,102s3.1-21.74,3.1-21.74"/><path class="cls-5" d="M441.81,76.55S442,99,437,108s-29,26-30,31,18.07,30.09,18.07,30.09"/><path class="cls-5" d="M396.51,140.39l5-.89s13.27,24.76,14.13,25.88"/><path class="cls-5" d="M853,65.67S828,79,824,91s31,40,35,56c.64,2.57,1.16,5.2,1.55,7.83,0,0,10,8.67,9-2.33A231.18,231.18,0,0,0,866,129.55c-7.23-10.6-15.32-20.91-17-27.55-3-12,21-28.25,21-28.25"/><path class="cls-5" d="M875,76.25S856.5,86.5,855.5,97.5C854.13,112.57,871,121,876,132s8,20,9,28c0,0,0,12.17,10.75,10.83"/><path class="cls-5" d="M882,82s1,32,9,40,14,29,14,39"/><path class="cls-5" d="M888,87.75s.5,21.75,5.5,27.75,14,27,15,35l1,7"/><path class="cls-6" d="M889.5,178.33S908,169,917,169s-11,15-18,17-18.5,2.51-18.5,2.51S880,170,878,154c-.73-5.82-.37-8.71-4.85-15.68,0,0,1.35,21.18-.65,25.18s-11.08.18-11.08.18c.48,10.51-1,20.11-4.42,25.32-5.5,8.5-7.25,10-7.25,10"/><path class="cls-6" d="M877.67,193.58S906,192,911,188s15-14,18-16,21,7,21,7-38.5,13.5-35,23c0,0,4,6,0,8-2,1-33.49,0-42.75-9.5"/><path class="cls-6" d="M869.5,205.12s24,17.38,44,11.38,10-16,10-16,17-4,28,6-72.33,23.17-72.33,23.17"/><path class="cls-6" d="M927.5,194.5s19-11,29-13c0,0,14,5,19,12s-15,12-15,12S945.5,192.5,927.5,194.5Z"/><path class="cls-5" d="M971.75,130.88c-13.75,2.37-17.74,10-17.74,10A74,74,0,0,1,967,143c19,5,27,6,32,21,0,0,2.5,9.5-5.5,21.5l-8,8s23,8,27-2,5.5-22,3-33"/><path class="cls-5" d="M927.5,142.5a110.74,110.74,0,0,1,18.5-1.92s4-6.58,16.75-10.33"/><path class="cls-6" d="M1009.66,202.24C999.73,202.9,985,200,985,200s-23.5,13.5-35.5,18.5c0,0,28,9,43-1,3.75-2.5,17-9,17-15"/><path class="cls-6" d="M1011.5,211.31c-6,6.27,13.55,8.2,19,9.19,11,2,36,3.5,36,3.5s-7.67-10.23-16.5-12c-6.49-1.3-22.32-8.95-33.28-10A22.66,22.66,0,0,1,1011.5,211.31Z"/><path class="cls-6" d="M882,234.75S935,222,946,224s23,7,36,4,18-7,25-6-1,16-17,17-35-4-58,0a322.35,322.35,0,0,0-39.75,9.42"/><path class="cls-5" d="M1021,163.7s.5,22.8-2.5,29.8,23,6.5,37.5,14.75c0,0,25.53-.89,30.51,8.68"/><path class="cls-6" d="M895,253s8.4-2.54,17.85-4.58c0,0-7.85,29.21,8.9,30.64"/><path class="cls-6" d="M1066.5,312.33A131.44,131.44,0,0,1,1041,269a25.4,25.4,0,0,0-9.27-12.13s-5.23,14.63-18.23,18.63-18,4-18,4"/><path class="cls-6" d="M1026.5,253.5c-18-10-47-9-47-9h-30c-3.65-.79-23.93,1.55-30.21,2.65,0,0-2.79,16.35.21,21.35s15.75,4.58,15.75,4.58l46.42.49s35.8,8,45.06-19.8"/><path class="cls-6" d="M1070.5,229.67C1061,233.33,1018,225,1018,225c-1,12-13,15-13,15s24.5,5.5,30.5,12.5,11,12,14,23,34,20,23-7,5-27.5,5-27.5"/><path class="cls-6" d="M1072.5,310.54s-12-14-15-20,9,6,15,2,10-7,7-19-9-20-5-25,7.75-.08,7.75-.08"/><path class="cls-5" d="M157.45,82.23S198.5,86.5,213.5,110.5s38.83,83,38.83,83,4.52-1.73,20.17,2c0,0-17.5,4-15.75,22"/><path class="cls-5" d="M194,73.67S222,81,232,99s39.19,84.72,39.19,84.72"/><path class="cls-5" d="M205,72.25s22.5,5.25,30.5,16.25,40.86,92.66,40.86,92.66"/><path class="cls-5" d="M116.84,103.25S151,114,159,123s13,14.71,13,14.71"/><path class="cls-5" d="M109.86,108.37S141.5,118.5,150.5,126.5s10.88,11.76,10.88,11.76"/><path class="cls-5" d="M94.7,121.93s37.45,16,45.12,25.8"/><path class="cls-5" d="M255.38,81.23S274.5,114.5,278.5,139.5s9.75,36,9.75,36"/><path class="cls-5" d="M264.32,86.22S274,107,279,120s10.72,50.21,14.36,53.11"/><path class="cls-5" d="M289.89,106.18s17.74,43.15,21.93,59"/><path class="cls-5" d="M1097.5,202.5s58.15-73,139.82-60.23"/><path class="cls-5" d="M1082.25,223.36s48.25-45.86,80.25-62.86,82.17-13,82.17-13"/><path class="cls-6" d="M1291.5,195.5s-22,31-42,26c-12.12-3-32-4.22-52.17-4.25,0,0-2.83-7.75,17.17-16.75s65.11-19,65.11-19"/><path class="cls-6" d="M1086.51,255.63s44-35.13,73-37.13c8.62-.59,18.29-1,28.16-1.17,0,0-2.16-13.83,23.84-23.83s62.88-17.88,62.88-17.88"/><path class="cls-6" d="M1295.67,201.77A95.39,95.39,0,0,0,1284,218c-5,9-22,13-39,10-7.54-1.33-23.72-2.46-41.23-2.88,0,0-1.44,18,44.73,46.38"/><path class="cls-6" d="M1089.68,261S1125,233,1146,228c9.74-2.32,28.1-3.13,46.67-3,0,0,9.83,33.74,50.33,50.64"/><path class="cls-6" d="M1262.25,262s-.25-11,16.75-21a205.24,205.24,0,0,0,30-21.75"/><path class="cls-6" d="M1118.92,177.57s-41.42,3.93-80.42-15.07c-8.93-4.35-19.72-12.8-29.68-21.62"/><path class="cls-6" d="M1004.23,136.74c1.5,1.38,3,2.76,4.59,4.14"/><path class="cls-6" d="M978.3,110.87s11.59,12.71,25.93,25.87"/><path class="cls-6" d="M1120.62,79.67s4.88,46.83-14.12,68.83c-14.75,17.08-53,7.64-69.37,2.57,0,0-27.16-42.57-10.4-61.07"/><path class="cls-6" d="M985.37,108s39.13,39.51,44.13,40.51c0,0-22.48-35.67-11.24-54.83"/><path class="cls-6" d="M1126.5,83.67V113.5s-4,37-29,47-53-2-53-2,31,15,52,14,28.34-1.17,28.34-1.17"/><path class="cls-6" d="M1038.44,85S1027,139,1067,144s39-54,39-54-1.33-13.67,5.33-16.33"/><path class="cls-6" d="M1097.5,98.5c-1.2,12.09-2.64,23.64-10.5,31.5-12,12-24,6-34,1,0,0,3.5-29.5,6.5-38.5s9.83-21.33,9.83-21.33"/><path class="cls-6" d="M1105.67,70.33s-2.17,2.17-4.17,8.17a63,63,0,0,0-1,8s-4-15.67-11-20.33"/><path class="cls-6" d="M1044.5,82s-1,29.61,4.15,43c0,0,2.18-37.18,14.52-51.34"/><path class="cls-6" d="M1135,161s-11-14,3-33,10.33-26,10.33-26"/><path class="cls-6" d="M1139.83,157a16.87,16.87,0,0,1-1.33-12.5c2-7,13-19,15-24a40.73,40.73,0,0,0,2.25-11.52"/><path class="cls-6" d="M1081.5,66.17s14.31,8.37,16,32.33"/><path class="cls-6" d="M1107,191s-57.5,3.49-74.75-14.26"/><path class="cls-6" d="M1042.75,190s37.86,13.5,59.06,7.25"/><path class="cls-6" d="M964.5,116.25A79.85,79.85,0,0,0,975,131.5"/><path class="cls-6" d="M958.5,119a30.83,30.83,0,0,0,7.5,11.28"/><path class="cls-6" d="M940.62,135.62s-5.12-1.87-6.87-6.24"/><path class="cls-6" d="M935.62,137.62s-5.12-1.87-6.87-6.24"/><path class="cls-5" d="M1060.67,214.5s13.5-2.67,22.66,6.17"/><path class="cls-5" d="M1167.41,121.33s19.09-8.83,33.09-7.83c0,0,5.75-.78,10.88-1.39"/><path class="cls-5" d="M1173.83,128.11s16.84-7.94,25.25-1.78"/><path class="cls-5" d="M474.6,26.33S492.5,66.5,523.5,64.5s42-8,61-2,29,2.07,29,2.07"/><path class="cls-5" d="M478.17,22.5s19.33,36,36.33,37,42-7,54-5,23,6,29,6a114.79,114.79,0,0,0,12.5-.83"/><path class="cls-5" d="M460,43.25S457.5,77.5,497.5,82.5s48-7,70-4,50,5.23,50,5.23"/><path class="cls-5" d="M454.67,50.33s1.5,15.17,11.16,23.17"/><path class="cls-6" d="M476.42,82.75S495.5,92.5,533.5,88.5c0,0,16-4,26-5,11-1.1,52,6,52,6-2.59,3.7-2,8.33-2.78,15.17,0,0,9.78,14.83,17.78,15.83a46.56,46.56,0,0,0,12.65.17A64.72,64.72,0,0,1,641,106c8-34,25.17-49,25.17-49"/><path class="cls-6" d="M443.33,65.83S444.5,70,450,72.25"/><path class="cls-6" d="M440,71a10.42,10.42,0,0,0,4.5,4.17"/><path class="cls-5" d="M490.33,103.33a41.74,41.74,0,0,0,26.17,9.17c16,0,44-6,53-7s30.33-2.17,30.33-2.17"/><path class="cls-5" d="M488.73,12.33S501.5,39.5,538.5,38.5s50.67,10.67,61.33,6.33"/><path class="cls-5" d="M301.67,118.33l8.57-16.71a51.85,51.85,0,0,0,15.26,2.88c2.14.08,4.15.09,6,.07,0,0-13.56,25.93-13.3,34.93"/><path class="cls-5" d="M325.24,149.86S393.5,124.5,376.5,110.5c-14.32-11.79-20.84-7.27-39.27-6.14,0,0-14.82,25.56-15.77,40.35"/><path class="cls-8" d="M281.45,80.26A64.11,64.11,0,0,0,306.08,100l-7.88,14.55s17.49,40.67,18.39,48.82"/><path class="cls-5" d="M285.72,76.55s10.78,16,20.78,19-6.63-32-6.63-32"/><path class="cls-6" d="M303.88,60.5S315,86,315,91s-2,6-2,6,9,4,17,2,15.1-34.4,8.05-53.2"/><path class="cls-5" d="M342.54,44.79a165.83,165.83,0,0,1,4,24.71c1,13-8,30-8,30s21-3,27-1,11-24,10-29-21-12.42-21-24.71"/><path class="cls-5" d="M327,153.8s27-8.8,33-12.8,13-12,17-8-9.27,23.3-9.27,23.3-12.23,8.2,3.77,20.2,41,23,61,17,15-12.34,15-12.34"/><path class="cls-5" d="M411.08,112s-19.58-2.49-24.58-1.49-14-10-14-10,6-16,7-20,38.95,14,39.48,19"/><path class="cls-5" d="M421.9,96S399.5,76.5,379.5,75.5c0,0,0-6,1-7s32.14,14.33,42.57,5.17"/><path class="cls-5" d="M358.89,44.79S362.5,56.5,376.5,61.5s27,12,36,11c0,0,3.95,0,6.48-1.5"/><line class="cls-5" x1="587.5" y1="29.5" x2="602.58" y2="24"/></g><circle class="cls-5" cx="1115.75" cy="787.25" r="6.25"/><circle class="cls-5" cx="1127.83" cy="787.67" r="1.67"/><circle class="cls-5" cx="1135.75" cy="787.25" r="6.25"/><circle class="cls-5" cx="1115.75" cy="787.25" r="0.42"/><circle class="cls-5" cx="1135.75" cy="787.25" r="0.42"/><polyline class="cls-5" points="1132 776 1127.83 787.67 1118.67 779.33"/><path class="cls-5" d="M1115.33,787.67,1119.5,776s-4.17-.83-4.17.83c0,.84,1.67,1.67,1.67,1.67"/><polyline class="cls-5" points="1118.76 778.08 1131.17 777.67 1136.17 787.67"/><rect class="cls-5" x="1128.67" y="774.33" width="5.83" height="1.67" rx="0.83" ry="0.83"/><polyline class="cls-5" points="1127.83 787.67 1124.5 790.17 1123.67 789.33"/><path d="M1130.86,766.22l-.31-.2a9.31,9.31,0,0,0-2-1c-2.29-.77-5,0-7.3.38a3.64,3.64,0,0,1-1.23.06,4.69,4.69,0,0,1-1.28-.51,5,5,0,0,0-3.45-.45,3,3,0,0,0-2.24,2.49,1.77,1.77,0,0,0,.1.76,1.82,1.82,0,0,0,1.89,1,5.35,5.35,0,0,0,2.11-.84,5.22,5.22,0,0,1,2.11-.85c2.61-.23,4.5,2.7,5.11,4.87a.86.86,0,0,1,0,.61,1,1,0,0,1-.37.36,7.86,7.86,0,0,1-2.24,1.17c-1.38.37-2.88,0-4.25.36a1.28,1.28,0,0,0-.75.46.59.59,0,0,0,.1.8.91.91,0,0,0,.65,0l6.35-1.37a5.64,5.64,0,0,0,1.61-.53,1.92,1.92,0,0,0,1-1.3c.13-.79-.73-2.65.61-2.8.82-.1,1.85.66,1.39,1.5a6.59,6.59,0,0,1-2.73,2.25,16.9,16.9,0,0,0-3.06,1.84,3.79,3.79,0,0,0-1.47,3.1,5.33,5.33,0,0,0,.48,1.56q.67,1.54,1.38,3.09a15.81,15.81,0,0,1,1.24,3.32,5.4,5.4,0,0,1,.13,1.79c0,.28-.47,1-.22,1.24.76.68,1.12-1.15,1.15-1.51.23-2.41.45-4.93-.44-7.18a15.14,15.14,0,0,1-.71-1.79,2.16,2.16,0,0,1,.27-1.84,3.67,3.67,0,0,1,1.64-.94c1.14-.45,2.18-1.15,3.37-1.5a14.85,14.85,0,0,1,3.65-.22,3.31,3.31,0,0,0,2.06-.75c1.3-1.2.16-2.94-.52-4.13C1133.88,768.09,1132.24,767.09,1130.86,766.22Z"/></svg>