<svg id="Layer_1" data-name="Layer 1" xmlns="http://www.w3.org/2000/svg" viewBox="0 0 1045.56 593.23"><defs><style>.cls-1{fill:#c3ccf4;}.cls-1,.cls-2,.cls-3{stroke:#000;}.cls-1,.cls-2{stroke-linejoin:round;}.cls-2,.cls-3{fill:none;}.cls-3{stroke-miterlimit:10;}</style></defs><title>outcave</title><rect class="cls-1" x="0.5" y="0.5" width="1044.56" height="592.23"/><path class="cls-2" d="M284.87,592.73s93.77-38.07,97.11-54-5-34.32-26.79-41.86-73.85-11.72-79.62-11.72-110.42-31.81-110.42-31.81l-7.54-36s-78-31.54-77.86-34.33C80,377.74,92,364.61,92,364.61H161.8l141.49-12.17L459.84,335.5l51.91-13.91,30.14,13.91,157.63,9.86,235.86,77,101.3,5.86,8.38,15.07v74.51l-169.12-22.6-48.63,22.6L645.1,506.1l-14.72,21.77L500.45,551.31l-40.61,5.86-3.34,35.56"/><polygon class="cls-2" points="562.84 305.17 683.31 182.94 761.13 182.94 728.5 305.17 600.9 321.59 562.84 305.17"/><polygon class="cls-2" points="759.26 308.52 843.29 358.75 972.22 358.75 905.24 138.93 844.96 114.62 759.26 308.52"/><polygon class="cls-1" points="880.12 377.17 983.94 203.03 1017.42 259.96 1029.15 385.54 942.08 400.61 880.12 377.17"/><polygon class="cls-1" points="0.5 172.89 79.75 182.94 153.43 321.59 59.94 340.33 0.5 392.24 0.5 172.89"/><polygon class="cls-1" points="231.36 321.59 231.36 172.89 268.96 139.12 347.66 301.82 277.33 328.61 231.36 321.59"/><polygon class="cls-1" points="364.4 321.59 444.99 266.66 502.64 282.56 510.08 296.62 437.24 321.59 364.4 321.59"/><polyline class="cls-2" points="231.36 216.43 185.24 109.42 121.61 91.6 48.74 179.01"/><polyline class="cls-2" points="135.96 288.71 207.01 301.82 231.36 288.71"/><polyline class="cls-2" points="827.55 154.01 730.44 110.88 609.04 172.89 614.98 252.26"/><line class="cls-2" x1="736.21" y1="276.28" x2="770.73" y2="282.57"/><path class="cls-2" d="M295.92,194.85l51.74-59.44L445,203s18.12,49.91,14.54,49.23-76.15,24-76.15,24l-55.28-14.9"/><polyline class="cls-2" points="484.99 277.69 518.34 182.94 562.84 181.57 596.77 270.74"/><polyline class="cls-2" points="510.08 296.62 536.31 296.62 581.47 286.27"/><path class="cls-2" d="M53.21,376.61s-9.8,13.4,0,24,43.29,11.72,57.8,30.7"/><path class="cls-2" d="M140.05,457.16s-7.83,25.5,67,37.78,62.51,8.93,62.51,8.93"/><path class="cls-2" d="M324.22,510.56s46.88,10.05,23.44,29"/><line class="cls-2" x1="231.36" y1="592.73" x2="305.24" y2="564.15"/><path class="cls-2" d="M54.92,440.24s51.62-3.87,56.09,40.48"/><path class="cls-2" d="M157.31,516.15s29.19,14.51,74.05,14.51,78.35-5.58,86.16,0"/><path class="cls-2" d="M192.9,549.63s59.88,19.22-14.92,43.1"/><path class="cls-2" d="M97.61,510.56s16.34,27.91,55.82,33.49"/><path class="cls-2" d="M605.44,564.15s42.83.89,55.06-18.08,44.4-15.41,44.4-15.41"/><path class="cls-2" d="M789.48,535.12s43.76,19,90.64-11.72"/><line class="cls-2" x1="954.63" y1="530.66" x2="1045.06" y2="540.92"/><path class="cls-2" d="M686.45,573.05s25.86-46.42,129.86-13.37"/><path class="cls-2" d="M486.36,592.73s3.87-19,79.93-21.55"/><path class="cls-2" d="M884.59,564.15s39.07-22.55,108.28-9"/><path class="cls-2" d="M676.74,592.73c8,0,53.8-20.09,94-14.29"/><path class="cls-2" d="M819.29,582s23.44,1.4,43,10.77"/><path class="cls-2" d="M938.73,592.73S970,573,1026.91,582"/><path class="cls-2" d="M869,577.39c1.12-.59,42,10.13,79.26-6.21"/><path class="cls-2" d="M68,362.66s-3.36-19.8,64.81-10.61"/><path class="cls-2" d="M183.66,349.62s47.35-4.26,74.14-5.38"/><path class="cls-2" d="M131.8,342.56S191.24,337,226,335.87"/><path class="cls-2" d="M287.38,341.87a462.26,462.26,0,0,1,77-8.51"/><path class="cls-2" d="M466.54,321.59s42.37-22,79.23-10.84"/><path class="cls-2" d="M545.77,321.59s41.33,14.28,86.54,7"/><path class="cls-2" d="M676.74,330.67s15.85-6.8,70.27,13.57"/><path class="cls-2" d="M736.21,326.13s35.08,3.95,67.73,30"/><path class="cls-2" d="M780.5,358.75s54.69,26.79,81.76,29.3"/><path class="cls-2" d="M904.4,400.61s36.28,19.26,88.47,10.88c0,0,39.63-10,52.19,2.11"/><path class="cls-2" d="M231.36,307.59s-37.75,12.47-68.72,0"/><line class="cls-2" x1="743.66" y1="295.26" x2="764.52" y2="296.62"/><path class="cls-2" d="M336.83,279.42s22.68,9.18,45.15,12"/><path class="cls-2" d="M336.83,318.94S368.4,301.65,396,300.06"/><path class="cls-2" d="M455.53,233.86s23.88,8.82,29.46,18.4"/><path class="cls-2" d="M491.19,260.09s-12.09,6.29-24.65,5.17"/><polyline class="cls-3" points="210.88 168.92 255.57 117.36 311.38 104.8 331.47 154.01"/><polyline class="cls-3" points="322.62 132.34 366.4 102.56 433.61 117.45 460 161.73"/><polyline class="cls-3" points="428.44 191.53 478.87 143.31 519.57 165.08 531.29 181.57"/><path class="cls-3" d="M450.94,220s35,9.49,51,9.67"/><polyline class="cls-3" points="553.61 181.85 588.22 120.98 661.99 145.85"/><path class="cls-3" d="M586.24,243.06s13.73,4.64,28,0"/><line class="cls-3" x1="395.98" y1="283.96" x2="428.44" y2="271.4"/><path class="cls-3" d="M458.57,244.09s23.6,5.54,15.79,13.36"/><path class="cls-3" d="M440.31,265.4s24.31-6.28,26.94-9.9"/><path class="cls-3" d="M468.77,232.05s26.13,6.2,30.51,5.06"/><line class="cls-3" x1="452.57" y1="224.8" x2="462.08" y2="228.15"/><path class="cls-3" d="M589,250.43s11.46,2.51,17,1.83"/><line class="cls-3" x1="600.26" y1="257.45" x2="609.87" y2="257.45"/><path class="cls-1" d="M242.45,333.27s27.35,11,58.6-4.66"/><path class="cls-2" d="M342.64,291.44s21.76,2.29,18.69,7-17,10.22-27.07,14.66c-13.11,5.81-20.09,10.74-20.09,10.74"/><path class="cls-2" d="M109.89,338.1s49.12-8.93,60.56-14.23-12.28-9.49-12.28-9.49"/><line class="cls-2" x1="140.05" y1="296.41" x2="173.57" y2="303.5"/><path class="cls-2" d="M347.66,274.29s26,14.42,44.65,5.13"/><path class="cls-2" d="M361.63,315.63s-23,9.49-15.37,11.73,44.1,1.81,44.1,1.81"/><path class="cls-2" d="M408.31,328.61s37.63,2.79,50.26-4.09"/><path class="cls-2" d="M528.12,301.63s18.65,3.77,45.6-7.51"/><line class="cls-2" x1="560.68" y1="312.8" x2="584.12" y2="322.42"/><line class="cls-2" x1="647.94" y1="323.4" x2="703.56" y2="317.61"/><path class="cls-2" d="M717,316.52s27.54-2.23,26.7-9.3-12.52-12-12.52-12"/><path class="cls-2" d="M750.63,308.33s-2.23,4.9,22.33,17.8"/><path class="cls-2" d="M802.54,342.75s23.26,25.3,44.84,26.79a149.66,149.66,0,0,0,38.67-2.32"/><line class="cls-2" x1="780.5" y1="330.67" x2="793.89" y2="338.94"/><path class="cls-2" d="M1027.26,365.39s22.82,9.83,11.65,20.43-40.46,14.79-40.46,14.79"/><line class="cls-2" x1="957.98" y1="405.08" x2="983.66" y2="402.84"/><path class="cls-2" d="M865.74,376.33s-5.43,5.3,22.48,12.84"/><path class="cls-2" d="M15.29,397.26s29.58-34.6,38.51-39.35"/><path class="cls-2" d="M66.36,349.62s19.53-8.17,30.14-7.89"/><line class="cls-2" x1="147.57" y1="352.33" x2="173.57" y2="349.62"/><path class="cls-2" d="M231.36,314.38s-44.58,7-35,10.18,27.35,3.35,35,6.84"/><path class="cls-2" d="M31.38,404S27.66,422,59.29,425.73"/><path class="cls-2" d="M102.08,406.75s43.53,12.28,48,35.35,15.25,26.79,38.7,34.23"/><path class="cls-2" d="M125.52,493.45a195.29,195.29,0,0,0,19.91,14.88"/><path class="cls-2" d="M9.8,408.61s-7.07,22.16,26.42,31.54"/><path class="cls-2" d="M533.52,557.47s95.23-3.37,112-17.88"/><path class="cls-2" d="M655.17,525.08S660,514.29,747,523.4"/><path class="cls-2" d="M848.87,525.08s29.82-23.85,81.21-12"/><path class="cls-2" d="M846.63,557.47s31.88-8.28,49.4-21.68,38.79-5.13,38.79-5.13"/><line class="cls-2" x1="998.45" y1="522.33" x2="1045.06" y2="529.94"/><path class="cls-2" d="M974.73,564.6s56.1-6,70.33,1.78"/><path class="cls-2" d="M472.68,582s9.49-18.37,42.42-17.81"/><path class="cls-2" d="M569.8,592.73s27.9-12.28,75.35-14.29"/><path class="cls-2" d="M668.59,568.05s27.71-37.34,92.54-32.26"/><path class="cls-2" d="M188.78,508.33s41.67,16.19,98.6,7.82"/><path class="cls-2" d="M223.19,484.33s62.52,16.37,85.4,16.56,41.89,1.86,53,9.67"/><path class="cls-2" d="M246.08,544.05s75.9-5.68,68.09,3.58-63.07,18.19-71.72,28.24"/><line class="cls-2" x1="321.43" y1="559.1" x2="339.22" y2="549.63"/><path class="cls-2" d="M83,431.31s25.82,1.3,46.47,45c0,0,20.65,32,44.14,27.95"/><path class="cls-2" d="M15.29,448.05S12,460.28,66.36,460.44"/><path class="cls-2" d="M83,468s11.3-.2,2.93,32.92,24,43.16,24,43.16"/><polyline class="cls-2" points="917.57 179.4 970.82 151.42 1025.24 219.96"/><line class="cls-2" x1="1008.7" y1="245.13" x2="1045.06" y2="189.08"/><line class="cls-2" x1="1024.68" y1="337.74" x2="1045.06" y2="347.59"/><polyline class="cls-2" points="780.5 133.11 844.3 73.54 888.22 105.36 893.87 134.34"/><polyline class="cls-2" points="983.52 167.42 1016.87 103.94 1045.06 127.68"/><polyline class="cls-2" points="891.26 120.98 940.96 78.56 983.66 73.54 1005.36 125.85"/><polyline class="cls-1" points="0.5 91.69 48.74 60.7 87.81 132.15"/><polyline class="cls-2" points="60.79 82.74 142.26 26.22 233.43 68.52 265.1 115.21"/><polyline class="cls-1" points="400.43 110.1 452.57 58.47 510.63 98.66 520.31 123.59"/><polyline class="cls-2" points="494.03 151.42 550.08 91.6 607.8 104.8 628.08 134.42"/><polyline class="cls-2" points="484.99 80.91 529.61 14.94 577.98 61.08 586.94 100.03"/><polyline class="cls-2" points="430.7 80.13 394.91 26.22 367.01 26.22 318.26 46.94 287.97 110.06"/><polyline class="cls-2" points="203.82 54.78 233.05 0.5 289.51 23.12 308.09 68.14"/><line class="cls-2" x1="296.98" y1="41.23" x2="334.64" y2="0.5"/><line class="cls-2" x1="368.87" y1="0.5" x2="385.61" y2="26.22"/><line class="cls-2" x1="408.22" y1="46.26" x2="442.54" y2="0.5"/><line class="cls-2" x1="506.17" y1="0.5" x2="520.31" y2="28.69"/><polyline class="cls-2" points="565.33 0.5 599.94 34.32 582.63 81.3 633.43 50.66 684.03 75.59 694.19 129.4"/><line class="cls-2" x1="635.66" y1="0.5" x2="599.94" y2="34.32"/><line class="cls-2" x1="647.57" y1="0.5" x2="674.48" y2="70.88"/><polyline class="cls-2" points="663.49 42.13 682.54 17.41 718.3 0.5 768.5 28.69 780.5 54.21"/><polyline class="cls-2" points="689.38 103.94 757.33 49.91 803.47 58.47 823.65 92.82"/><polyline class="cls-2" points="798.14 57.48 833.98 19.77 865.74 25.36 891.26 58.47"/><polyline class="cls-2" points="869.22 91.6 899.1 46.56 941.89 49.91 957.59 76.61"/><line class="cls-2" x1="820.16" y1="34.32" x2="784.5" y2="0.5"/><line class="cls-2" x1="852.77" y1="23.08" x2="871.56" y2="0.5"/><line class="cls-2" x1="991.15" y1="91.6" x2="1045.06" y2="62.57"/><polyline class="cls-2" points="921.01 48.28 951.19 14.94 988.03 23.08 1018.1 45.08 1024.68 73.54"/><line class="cls-2" x1="907.81" y1="0.5" x2="936.88" y2="30.75"/><polyline class="cls-2" points="1003.4 34.32 1022.63 11.79 1045.06 0.5"/><line class="cls-2" x1="988.03" y1="23.08" x2="971.4" y2="0.5"/><polyline class="cls-2" points="0.5 29.47 73.61 36.7 92.55 60.7"/><line class="cls-2" x1="76.96" y1="0.5" x2="36.78" y2="32.64"/><line class="cls-2" x1="170.73" y1="0.5" x2="186.6" y2="46.79"/><line class="cls-2" x1="1029.15" y1="350.38" x2="1045.06" y2="358.75"/><path class="cls-2" d="M1026.4,356.14s18.66,7.3,18.66,13.75"/></svg>