<svg id="Layer_1" data-name="Layer 1" xmlns="http://www.w3.org/2000/svg" viewBox="0 0 234.66 226.77"><defs><style>.cls-1{fill:#c3ccf4;}.cls-1,.cls-2,.cls-3{stroke:#000;stroke-linejoin:round;}.cls-3{fill:none;}</style></defs><title>outcave</title><rect class="cls-1" x="0.5" y="0.5" width="233.66" height="225.61"/><path class="cls-2" d="M127.35,169.83s16.78-89.08,15.08-99.32-26.61-20.83-26.61-20.83L82.7,65.7s.67,29.35-9.59,56.31,9.18,55.3,9.18,55.3Z"/><line class="cls-2" x1="82.29" y1="177.31" x2="90.78" y2="226.3"/><polyline class="cls-3" points="127.35 169.83 159.99 204.54 226.13 226.3"/><path class="cls-3" d="M160,204.54s14-34.61,16.75-36.28,18.69-19,18.69-19V131.14l-7.81-48.83,11.3-61.4L176.74,9.19"/><polyline class="cls-3" points="176.74 168.26 204.64 167.84 221.1 161.28"/><polyline class="cls-3" points="204.64 167.84 210.22 143.7 216.64 115.79 207.99 74.49 234.16 65.28"/><polyline class="cls-3" points="153.43 168.26 174.64 142.86 174.64 122.14 171.29 90.96"/><polyline class="cls-3" points="59.1 17.56 18.92 42.68 13.89 83.7 1.06 118.58"/><polyline class="cls-3" points="59.8 226.3 24.36 177.31 22.41 127.52 35.24 90.96"/><polyline class="cls-3" points="195.71 216.29 195.71 198.06 219.67 171.35 223.3 144.22 234.16 129.61"/><polyline class="cls-3" points="71.97 153.34 62.5 109.93 67.23 86.12"/><polyline class="cls-3" points="53.2 172.95 62.5 196.63 90.14 222.59"/><polyline class="cls-3" points="115.82 49.68 101.94 34.03 57.29 53.75 49.85 113.31 22.41 127.52 51.34 144.54 69.11 140.26"/><polyline class="cls-3" points="101.94 34.03 157.76 49.68 157.76 135.24 135.77 178.78"/><line class="cls-3" x1="130.28" y1="172.95" x2="146.96" y2="131.14"/><polyline class="cls-3" points="53.2 39.61 104.17 17.56 153.43 28.59"/><polyline class="cls-3" points="174.64 37.38 173.01 78.31 187.62 82.31"/><line class="cls-3" x1="25.29" y1="226.11" x2="1.06" y2="195.14"/><polyline class="cls-3" points="204.64 0.5 226.13 32.54 214.93 61.93"/><line class="cls-3" x1="0.5" y1="31.22" x2="28.27" y2="0.5"/><line class="cls-3" x1="104.17" y1="17.56" x2="80.17" y2="0.5"/><line class="cls-3" x1="195.71" y1="198.06" x2="179.45" y2="195.14"/></svg>