<svg id="Layer_1" data-name="Layer 1" xmlns="http://www.w3.org/2000/svg" viewBox="0 0 290.78 290.4"><defs><style>.cls-1{fill:none;stroke:#fff;stroke-linejoin:round;}</style></defs><title>outlines</title><path class="cls-1" d="M115,145.79c-4.19-.42-7.4,1.61-6.36,8.68.69,4.69,4.12,8.44,7.39,11.88l16.67,17.51c3.83,4,7.71,8.12,10.42,13s4.13,10.67,2.72,16.06-6.13,10.07-11.69,10.32c-1.74-1.69-1.76-4.5-1.14-6.84s1.76-4.59,1.92-7c.3-4.78-3.2-8.87-6.47-12.37l-35.28-37.7a30.79,30.79,0,0,1-5-6.43c-2.08-3.95-2.69-2.68-5.5-1.33-2.22,1.07-4.67,1.62-5.11,4.45-.52,3.33,2.34,7.91,4.24,10.4,3.09,4.06,7.24,7.17,11.24,10.34,13.4,10.62,40,29.45,28.55,49.39a3.64,3.64,0,0,1-1.69,1.75c-1.21.46-2.53-.35-3.39-1.3-4.9-5.39-2.14-14.69-6.51-20.51a20.16,20.16,0,0,0-4.06-3.7c-13-9.86-25.36-22.07-40.45-28.71-5.78-2.55-12.18-4.58-16.19-9.45-4.41-5.35-5.71-14.9.89-18.74q20.83-12.1,42.5-22.72a40.84,40.84,0,0,1,8.78-3.47c12.66-2.87,22.87,4.11,33.16,10.18l34,20c1.19.7,2.65,1.42,3.88.8s1.5-2,1.47-3.3c-.08-3.38-2-6.5-4.54-8.76-5.72-5.12-12.94-9.39-19.5-13.38-2.67-1.62-5.4-3.29-7.35-5.73-2.44-3-3.43-6.95-4.63-10.66a79,79,0,0,0-13.41-24.84c-1.4-1.75-2.93-3.53-3.5-5.7-1.85-7.05,5-5.39,8.55-2.78,4,2.92,6.13,8,7.92,12.4l5.25,13c2.47,6.13,5.14,12.53,10.26,16.71a29.18,29.18,0,0,0,11.36,5.25,56.56,56.56,0,0,0,8.48,1.48c2,.19,4.82-.56,4.53-2.54a3.42,3.42,0,0,0-1.29-1.88c-6.26-5.77-16.08-8.72-15.91-18.72.09-5.21,2.49-10.09,5.14-14.59,6.72-11.41,13.73-23.68,29.06-23.57a10,10,0,0,1,5.13,1.13c2.11,1.26,3.27,3.64,4,6,3.26,10.33.29,21.79-5.23,31.12s-9.87,17.28-4,27.74c3.68,6.51,9,12.25,12.43,18.81,2.69,5.16,6.51,11,7.6,16.76.73,3.78.23,7.67-.26,11.48-1.8,13.94-3.64,28-8.7,41.16-1.87,4.86-4.22,10-2.92,15.06.81,3.16,2.88,6.93.59,9.26s-6.36.19-8-2.61c-3.83-6.39-1.91-14.52.21-21.65,3.63-12.17,7.85-25.25,5.3-38.06-.26-1.35-.47-5.11-2-5.75-2.14-.92-5,4-6.52,5.38-5.72,5.18-13.45,9-21.33,7.43a30.62,30.62,0,0,1-8.35-3.25,88.49,88.49,0,0,1-24.78-19.4c-3.6-4-6.85-8.43-10.91-12C123.77,148.75,119,146.19,115,145.79Z"/></svg>