<svg id="Layer_1" data-name="Layer 1" xmlns="http://www.w3.org/2000/svg" viewBox="0 0 290.78 290.4"><defs><style>.cls-1{fill:none;stroke:#fff;stroke-linejoin:round;}</style></defs><title>outlines</title><path class="cls-1" d="M204.3,109.81c4.62-4.08,12.47-6.35,16.68-.53a15.57,15.57,0,0,1,2.22,5.59,152.09,152.09,0,0,1,4.32,43.66c-.57,12.15,8.9,9.18,9.1-.92l.73-35.44c.08-4.06.16-8.18-.78-12.13-3.15-13.17-17.67-21.5-31.17-20.54-3.35.24-7.62.49-9.11-2.52a7.6,7.6,0,0,1-.5-3.61l.28-12.74c.13-5.46.21-11.13-2-16.1s-7.61-9-13-7.86a12.49,12.49,0,0,0-5.75,3.22,20.05,20.05,0,0,0-3.81,23.74c2.53,4.56,6.69,7.78,5.89,13.18-.75,5.08-5.56,9.33-10,11.34-5.07,2.3-10.76,2.75-16.31,3.17a6.9,6.9,0,0,1-3.83-.44A6.37,6.37,0,0,1,145,98.25c-5.29-9.14-7.35-20.08-13.86-28.4-1.34-1.71-3.16-3.41-5.33-3.27-2.37.16-4.06,2.6-4.23,5s.78,4.65,1.71,6.84c6,14,11.67,37,30.47,37.75,5.05.2,10.05-.6,12.57,4.65a9.11,9.11,0,0,1-1.7,10.14c-6.71,7.7-23.14,10.49-32.67,11.25-6.48.52-13.06.16-19.44,1.4-13.88,2.71-25.85,13.72-30,27.2s-7,29.7,1.43,42.28c2.72,4,6.37,7.47,8.52,11.84,5.1,10.35-6.85,19.27-3.83,29.65,2.47,1.77,6,1.1,8.46-.73s3.94-4.58,5.39-7.24c3.86-7.1,6.1-14.42,2.76-22.13-3.09-7.14-9.45-12.43-11.84-20-2-6.24-.78-13.08,1.4-19.26,0-6.34,11.62-22.14,18.59-22,9.65.24,2.48,15.6,1.57,20.1a67.58,67.58,0,0,0,.69,29.58c3.07,12.31,10,20.93,1.9,33.23-2.47,3.75-5.45,8.36,2.44,8.77s14.43-7,15.79-14.79-1.17-15.66-3.89-23.06-5.72-15-5.35-22.88c.56-11.95,10.06-23.07,21.88-24.91,5.79-.9,11.72.24,17.57-.18,9-.66,16.64-5.24,22.94-11.46s6.39-14,6.94-22.6c.51-8.18,1.48-17.56,7.17-24A15.75,15.75,0,0,1,204.3,109.81Z"/></svg>