<svg id="Layer_1" data-name="Layer 1" xmlns="http://www.w3.org/2000/svg" viewBox="0 0 290.78 290.4"><defs><style>.cls-1{fill:none;stroke:#fff;stroke-linejoin:round;}</style></defs><title>outlines</title><path class="cls-1" d="M137.25,149.23a79.63,79.63,0,0,0-6.51-7.86c-4.37-4.65-9.23-8.88-12.93-14.09s-6.16-11.69-4.88-18C115,99.4,125.8,89.63,136.5,93c6.65,2.1,6,8.2,6.44,14.6a90,90,0,0,0,31.75,62.7c8.2,6.84,18.53,12.37,29.11,10.94,1.91-.26,4.3-1.56,3.74-3.41-5.16-6.23-14.48-6.47-21.86-9.8-10.78-4.87-17-16.25-21-27.4a131.92,131.92,0,0,1-5.37-20c-.43-2.32-2-13.92,2.8-13.39,1.61.18,2.76,1.59,3.72,2.89,1.92,2.59,3.87,5.24,4.84,8.3,1.15,3.67.82,7.64,1.69,11.39a36.48,36.48,0,0,0,3.26,8l5.47,10.89c1.63,3.24,3.44,6.67,6.64,8.37a13.5,13.5,0,0,0,6.59,1.29c4.68-.08,9.72-1.59,12.36-5.46a13.85,13.85,0,0,0,2.1-7.47,23,23,0,0,0-1.19-8c-4.31-12.75-18.81-19.62-24-32a8.5,8.5,0,0,1-.85-4.68c.43-2.59,2.22-3.26,4.46-2.92,18.4,2.81,41.17,17.55,39.35,38.38-.55,6.25-2.41,12.33-2.86,18.59-.18,2.5.19,5.55,2.46,6.61,2.93,1.35,8.48-20.39,8.7-22.51.82-7.88,0-17.92-4.17-24.89-3.67-6.09-12-10.33-17.85-14.25C203.94,93.85,194.4,89,184.9,84.15c-13.64-7-30.27-19.47-45.42-22.13-6.46-1.13-12.88,1.86-18.55,5.16C103.24,77.46,83.7,92.44,77.37,112.84c-3,9.57-1.57,21.19,6,27.76,4.26,3.69,9.85,5.36,15,7.67s10.32,5.82,12,11.22c1,3.19.54,6.62.11,9.93-2.73,21-11.73,42.38-11.73,63.52-.06,3.71.28,7.59,2.18,10.77s5.72,5.48,9.32,4.58a3.2,3.2,0,0,0,2.14-1.42c.61-1.18,0-2.58-.51-3.81-4-9.87.91-20.86,5.33-30.55q4.95-10.86,9.25-22c1.45-3.78,2.45-8,4.26-11.64,1.14-2.29,3-4.59,3.91-.12,3.79,19.37-7.55,38.88-5.87,58.54a18.75,18.75,0,0,0,2.46,8.54c1.62,2.51,4.43,4.42,7.42,4.27a3,3,0,0,0,2.12-.83c1.13-1.26.2-3.21-.59-4.71-4.37-8.33-3-18.52,0-27.45s7.37-17.46,8.83-26.76C151.22,175.86,145.94,161.25,137.25,149.23Z"/></svg>