<svg id="Layer_1" data-name="Layer 1" xmlns="http://www.w3.org/2000/svg" viewBox="0 0 290.78 290.4"><defs><style>.cls-1{fill:none;stroke:#fff;stroke-linejoin:round;}</style></defs><title>outlines</title><path class="cls-1" d="M193.2,75.83a132.83,132.83,0,0,0-18.34-11.91c-7.83-4.23-16.82-7.54-25.5-5.58C143.48,59.66,138.42,63.27,133,66c-11.35,5.75-22.91,5-34.57,1.32-6.36-2-14.72-2.38-18.28,3.28-5.88,9.33-3.27,22.47,5.57,27.92,3,1.85,6.34,3.5,9.87,3.4,3.72-.11,7.07-2.13,10.23-4.1,2.64-1.64,5.39-3.39,6.89-6.12,1.25-2.28,1.48-5,2.73-7.31,2.42-4.47,6.8-4.47,11.16-5.27,4.67-.85,9.88-1.19,13.74,1.56,6.16,4.38,5.43,13.61,3.78,21-1.81,8.11-4,16.37-9,23-7.32,9.91-19.58,15-27.68,24.31a3.66,3.66,0,0,0-1.17,2.34,2.65,2.65,0,0,0,2.82,2.25,7.65,7.65,0,0,0,3.68-1.45c8.5-5.18,17.06-10.42,24.4-17.14s13.47-15.12,15.93-24.76c2.06-8.1,6.89-3.24,7.39,2.58.67,7.72-2.19,17.13-6.1,23.68-6.78,11.34-19.13,18-28.57,27.22-2.21,2.15-1,3.35,1.43,3.52,2.69.18,5.93-1.49,8.25-2.65,11.77-5.81,21.13-15.51,28-26.59a100.15,100.15,0,0,0,8.63-17.84,19.76,19.76,0,0,0,1.6-9c-.06-.84-.46-11.06-.06-10.93,10.73,3.58,18.88,23.77,23.08,33.41,1.13,2.59,2.23,5.4,1.61,8.15-.7,3.06-3.34,5.25-5.95,7-8,5.33-17.68,5.44-25.78,9.87-7.13,3.89-11.29,12.2-13.8,19.57a85.55,85.55,0,0,0-4.53,26c-.14,8.1.76,16.52-1.19,24.49a30.62,30.62,0,0,1-9.23,15.4c-1.28,1.15-2.71,2.27-3.32,3.87-1.45,3.79,3,7.77,7,7.24s7.05-3.92,9.09-7.43c6.25-10.8,6.46-23.9,8.06-36.28a150.73,150.73,0,0,1,5.55-25.46c2.69-8.7,6-16.21,16.44-17-4.92,5.37-5,13.44-4.86,20.72q.35,21.85-.6,43.71c-.13,2.91-.3,5.92-1.63,8.52-1.78,3.47-12,7.29-9,10.57,4.11,4.47,14.26-.28,17.19-3.79a20.72,20.72,0,0,0,3.38-6.17c3.1-8.28,3.46-18.66,4.14-27.45.75-9.76.65-19.64,2.71-29.25,1-4.83,2.87-9.87,6.93-12.67,4.93-3.4,11.67-2.55,17.14-5s9.05-7.95,10.48-13.74,1-11.87.23-17.78c-2-15.79-6.55-29.21-15.62-42.39A86.44,86.44,0,0,0,193.2,75.83Z"/></svg>