<?xml version="1.0" encoding="utf-8"?>
<!-- Generator: Adobe Illustrator 22.1.0, SVG Export Plug-In . SVG Version: 6.00 Build 0)  -->
<svg version="1.1" id="Layer_1" xmlns="http://www.w3.org/2000/svg" xmlns:xlink="http://www.w3.org/1999/xlink" x="0px" y="0px"
	 viewBox="0 0 791 1018" style="enable-background:new 0 0 791 1018;" xml:space="preserve">
<style type="text/css">
	.st0{fill:#C1EADB;stroke:#000000;stroke-miterlimit:10;}
	.st1{fill:#C1EADB;}
	.st2{fill:#C1EADB;stroke:#000000;stroke-linejoin:round;}
	.st3{fill:#FFFFFF;}
	.st4{fill:none;stroke:#000000;stroke-miterlimit:10;}
	.st5{fill:#C1EADB;stroke:#000000;stroke-linecap:round;stroke-linejoin:round;}
	.st6{fill:none;stroke:#000000;stroke-width:2;stroke-linejoin:round;}
	.st7{fill:#C1EADB;stroke:#000000;stroke-linejoin:bevel;}
	.st8{fill:none;stroke:#000000;stroke-linecap:round;stroke-linejoin:round;}
	.st9{fill:none;stroke:#000000;stroke-linecap:round;stroke-miterlimit:10;}
</style>
<title>room</title>
<path class="st0" d="M268,0.5h522v825c-5.9-0.2-52.4-0.3-138.4-0.3c-149.7,0-371.5,0.3-383.6,0.3V0.5z"/>
<rect x="0.5" y="0.5" class="st0" width="268" height="1017"/>
<polygon class="st1" points="269.1,825.6 790.5,825.5 790.5,1016.5 1.6,1017.5 "/>
<path d="M790,826v190l-786.9,1l266.1-190.9L790,826 M791,825l-522.1,0.1L0,1018l791-1V825z"/>
<polygon class="st1" points="184.4,983.5 331.2,876.5 770.5,877.5 629.8,983.5 "/>
<path d="M331.3,877l437.7,1L629.7,983H185.9L331.3,877 M331,876L182.8,984H630l142-107L331,876z"/>
<rect x="154.5" y="902.5" class="st0" width="110" height="13"/>
<polygon class="st0" points="430.5,638.5 293.5,836.5 269.5,836.5 405.4,639 "/>
<polygon class="st2" points="433.5,632.5 441.5,627.5 302.5,828.5 293.5,836.5 "/>
<polygon class="st0" points="294.5,638.5 299.5,638.5 434.5,833.5 430.5,836.5 "/>
<rect x="451.5" y="174.5" class="st1" width="217" height="376"/>
<path d="M668,175v375H452V175H668 M669,174H451v377h218V174z"/>
<polygon class="st2" points="271.5,638.5 406.5,836.5 430.5,836.5 294.5,638.5 "/>
<rect x="715.5" y="641.5" class="st1" width="24" height="196"/>
<path d="M739,642v195h-23V642H739 M740,641h-25v197h25V641z"/>
<polygon class="st0" points="264.5,902.5 273.4,895.8 170.2,895.8 154.5,902.5 "/>
<polygon class="st2" points="157.5,912.5 289.5,814.5 289.5,801.5 157.5,899.5 "/>
<polygon class="st2" points="284.5,888.5 293.4,881.8 192.5,881.5 182.5,888.5 "/>
<polygon class="st2" points="398.5,801.5 407.4,794.8 304.2,794.8 289.5,801.5 "/>
<rect x="458.2" y="182.5" class="st3" width="203.3" height="352"/>
<path d="M661,183v351H458.7V183H661 M662,182H457.7v353H662V182z"/>
<polygon class="st1" points="289.5,814.5 289.5,801.5 398,801.5 387.8,814.5 "/>
<path d="M396.9,802l-9.4,12H290v-12H396.9 M399,801H289v14h99L399,801z"/>
<polygon class="st1" points="120.5,729.5 268.2,622.5 742.5,622.5 594.8,729.5 "/>
<path d="M740.9,623L594.7,729H122.1l146.2-106H740.9 M744,622H268L119,730h476L744,622L744,622z"/>
<polygon class="st3" points="73.5,295.2 206.5,199 206.5,532.8 73.5,629 "/>
<path d="M206,200v332.5L74,628V295.5L206,200 M207,198L73,295v335l134-97V198z"/>
<polygon class="st1" points="73.5,294.2 206.5,198 206.5,493.8 73.5,590 "/>
<path d="M206,199v294.5L74,589V294.5L206,199 M207,197L73,294v297l134-97V197z"/>
<polygon class="st0" points="279.5,746.5 142.5,944.5 118.5,944.5 254.4,747 "/>
<rect x="182.5" y="888.5" class="st0" width="103" height="4"/>
<polygon class="st2" points="304.5,874.5 313.4,867.8 212.5,867.5 202.5,874.5 "/>
<rect x="202.5" y="874.5" class="st0" width="103" height="4"/>
<polygon class="st2" points="323.5,860.5 332.4,853.8 231.5,853.5 221.5,860.5 "/>
<rect x="221.5" y="860.5" class="st0" width="103" height="4"/>
<polygon class="st2" points="342.5,846.5 351.4,839.8 250.5,839.5 240.5,846.5 "/>
<rect x="240.5" y="846.5" class="st0" width="103" height="4"/>
<polygon class="st2" points="361.5,832.5 370.4,825.8 269.5,825.5 259.5,832.5 "/>
<rect x="259.5" y="832.5" class="st0" width="103" height="4"/>
<polygon class="st2" points="379.5,818.5 388.4,811.8 287.5,811.5 277.5,818.5 "/>
<rect x="277.5" y="818.5" class="st0" width="103" height="4"/>
<polygon class="st2" points="260.5,915.5 407.5,807.5 407.5,794.5 260.5,902.5 "/>
<polygon class="st2" points="282.5,740.5 290.5,735.5 151.5,936.5 142.5,944.5 "/>
<rect x="120.5" y="729.5" class="st1" width="474" height="17"/>
<path d="M594,730v16H121v-16H594 M595,729H120v18h475V729z"/>
<polygon class="st0" points="143.5,746.5 148.5,746.5 283.5,941.5 279.5,944.5 "/>
<polygon class="st2" points="120.5,746.5 255.5,944.5 279.5,944.5 143.5,746.5 "/>
<polygon class="st0" points="64.5,289.5 72.5,294.5 72.5,629.5 65.5,629.5 "/>
<polygon class="st0" points="64.5,289.5 213.5,181.5 206.5,197.5 72.5,294.5 "/>
<polygon class="st0" points="213.5,181.5 214,533.5 213.5,533.5 213.5,544.5 207.5,544.5 207.5,197.5 "/>
<polygon class="st2" points="73.5,629.5 214,528 220.5,528.5 82.5,629.5 "/>
<path class="st1" d="M366.4,894.9c-4.4,0-8.5-5.5-9.3-12.4c-0.9-7.4,2.2-13.8,6.8-14.4c0.2,0,0.4,0,0.6,0c4.4,0,8.5,5.5,9.4,12.4
	c0.5,3.3,0,6.8-1.4,9.8c-1.3,2.7-3.2,4.3-5.4,4.5L366.4,894.9z"/>
<path d="M364.4,868.6c4.2,0,8,5.3,8.9,12c0.8,7.1-2,13.3-6.4,13.8h-0.6c-4.2,0-8-5.3-8.8-12c-0.9-7.1,2-13.3,6.4-13.8
	C364.1,868.6,364.2,868.6,364.4,868.6 M364.4,867.6c-0.2,0-0.5,0-0.7,0c-4.9,0.6-8.1,7.3-7.2,14.9c0.9,7.3,5.2,12.8,9.8,12.8
	c0.2,0,0.5,0,0.7,0c4.9-0.6,8.1-7.3,7.2-14.9C373.4,873.1,369.1,867.6,364.4,867.6L364.4,867.6z"/>
<polygon class="st2" points="82.5,645.5 220.5,544.5 220.5,528.5 82.5,629.5 "/>
<rect x="65.5" y="629.5" class="st0" width="17" height="16"/>
<polygon class="st2" points="451.5,550.5 441.5,557.5 441.5,541.5 451.5,534.5 "/>
<polygon class="st2" points="441.5,557.5 658.5,557.5 668.5,550.5 451.5,550.5 "/>
<polygon class="st2" points="441.5,541.5 658.5,541.5 668.5,534.5 451.5,534.5 "/>
<polygon class="st2" points="668.5,550.5 658.5,557.5 658.5,541.5 668.5,534.5 "/>
<rect x="441.5" y="541.5" class="st2" width="217" height="16"/>
<line class="st4" x1="451.5" y1="174.5" x2="458.5" y2="182.5"/>
<line class="st4" x1="661" y1="183" x2="668.5" y2="174.5"/>
<path class="st1" d="M354.5,880.5v-9.2c0-5.4,4.4-9.8,9.8-9.8l0,0h1.4c5.4,0,9.8,4.4,9.8,9.8l0,0v9.2H354.5z"/>
<path d="M365.7,862c5.1,0,9.3,4.2,9.3,9.3v8.7h-20v-8.7c0-5.1,4.2-9.3,9.3-9.3H365.7 M365.7,861h-1.4c-5.7,0-10.3,4.6-10.3,10.3l0,0
	v9.7h22v-9.7C376,865.6,371.4,861,365.7,861L365.7,861z"/>
<rect x="570.5" y="746.5" class="st1" width="24" height="196"/>
<path d="M594,747v195h-23V747H594 M595,746h-25v197h25V746z"/>
<polygon class="st1" points="594.5,746.2 598.5,743 598.5,938.7 591.5,942.2 "/>
<path d="M598,744.1v194.3l-6,3l3-194.9L598,744.1 M599,742l-5,4l-3,197l8-4V742L599,742z"/>
<path d="M463.6,784.3c1.5,35.3-3.3,82.3,27.3,107.4c1.3,1.1,2.8,2.3,3.2,4c0.5,2.3-1.5,4.7-3.8,5.2s-4.8-0.5-6.8-1.9
	s-3.5-3.3-5.3-4.9c-12.2-10.9-29.9-9.3-31.9-28.1c-2.1-20.4-11.5-40.6-18-60"/>
<path d="M462.1,784.3c1.1,28.2-1.6,58.4,10.1,84.8c2.8,6.4,6.6,12.3,11.2,17.5c1,1.2,2.2,2.3,3.3,3.4s3.4,2.3,4.1,3.6l-2,5.9
	l-3.4-1.1c-1.1-0.7-2.2-1.5-3.1-2.5c-1.5-1.4-2.9-2.9-4.5-4.2c-9.3-7.5-25.8-9.1-29.3-22.3c-1.3-4.8-1.4-9.9-2.5-14.8
	c-1.2-5.4-2.7-10.7-4.4-16c-3.6-11.2-8.1-22-11.8-33.2c-0.6-1.8-3.5-1-2.9,0.8c3.6,10.8,7.9,21.4,11.5,32.3c1.7,5.3,3.3,10.6,4.5,16
	c1.1,5.2,1.3,10.6,2.7,15.7c3.9,14.5,20.5,15.7,30.6,24c4.3,3.6,10.6,11.7,17,6.8s-1.3-10.3-4.9-13.7c-12.4-12-18-28.6-20.5-45.3
	c-2.9-19.1-2-38.5-2.8-57.8C465,782.4,462,782.4,462.1,784.3L462.1,784.3z"/>
<path class="st5" d="M370,788.5L370,788.5c4.7,0,8.5,3.8,8.5,8.5v72c0,4.7-3.8,8.5-8.5,8.5l0,0c-4.7,0-8.5-3.8-8.5-8.5v-72
	C361.5,792.3,365.3,788.5,370,788.5z"/>
<polygon class="st1" points="594.5,729.3 743.5,622 743.5,638.7 594.5,746 "/>
<path d="M743,623v15.5L595,745v-15.5L743,623 M744,621L594,729v18l150-108V621z"/>
<polygon class="st1" points="479.6,698.5 551.2,647.5 630.4,647.5 558.8,698.5 "/>
<path d="M628.9,648l-70.2,50h-77.5l70.2-50H628.9 M632,647h-81l-73,52h81L632,647z"/>
<path d="M385.8,791.6c4.1,21,8.8,41.8,14,62.5c1.8,7.1,3.9,14.6,9.1,19.7c3.4,3.3,7.7,5.3,12,7.2l18.3,8.2c3.1-4.3,2.2-10.3-0.2-15
	s-6.2-8.5-9.1-13c-14.4-22.5-6.2-57-1.3-81.1"/>
<path d="M384.3,792c4.4,22,8.9,44,14.8,65.6c2,7.5,4.9,14.8,11.4,19.6c8.1,6,18.8,9.3,27.9,13.4c0.7,0.4,1.6,0.2,2-0.5
	c5-7.9,0.4-16.5-4.6-23.1c-6.3-8.3-10.4-16.7-11.8-27.1c-2.7-19.8,2-39.9,6-59.2c0.4-1.9-2.5-2.7-2.9-0.8c-3.7,18-7.9,36.5-6.6,55.1
	c0.6,8.3,2.4,16.7,6.3,24.1c4.5,8.6,17.7,18.8,11,29.5l2-0.5c-8.4-3.8-17.4-7-25.3-11.7c-9-5.4-11.5-14.9-13.9-24.4
	c-5-20.1-9.5-40.3-13.5-60.6C386.8,789.3,383.9,790.1,384.3,792L384.3,792z"/>
<polygon class="st1" points="502.5,712.5 537.2,687.5 616.5,687.5 581.8,712.5 "/>
<path d="M614.9,688l-33.2,24h-77.6l33.2-24H614.9 M618,687h-81l-36,26h81L618,687L618,687z"/>
<polygon class="st1" points="437.5,659.5 472.2,634.5 551.5,634.5 516.8,659.5 "/>
<path d="M549.9,635l-33.2,24h-77.6l33.2-24H549.9 M553,634h-81l-36,26h81L553,634L553,634z"/>
<rect x="288.5" y="561.5" class="st5" width="52" height="70"/>
<rect x="579" y="659.5" class="st1" width="67" height="13.2"/>
<path d="M645.5,660v12.2h-66V660H645.5 M646.5,659h-68v14.2h68V659z"/>
<path class="st1" d="M574.5,675.5v-17.9l41.5-28.8l0.5-0.3h72.2v0.9c0,0.6-0.3,1.2-0.8,1.5l-41.5,29.4h-66.9c-0.3,0-0.5,0.2-0.5,0.5
	v11.4c0,0.3,0.2,0.5,0.5,0.5h67c0.1,0,0.2,0,0.3-0.1l41.2-29.3c0.6,0.2,1.2,0.7,1.5,1.3v0.8l-42.2,30L574.5,675.5z"/>
<path d="M688.1,629v0.4c0,0.5-0.2,0.9-0.6,1.1l-41.3,29.3h-66.7c-0.6,0-1,0.4-1,1v11.4c0,0.6,0.4,1,1,1h67.1c0.2,0,0.4-0.1,0.6-0.2
	l41-29.1c0.4,0.2,0.7,0.5,0.9,0.8v0.4l-41.3,29.3l-0.7,0.5H575v-17.1l41.3-28.6l0.3-0.2H688.1 M688.3,643.9L688.3,643.9 M689.1,628
	h-72.8l-0.6,0.4L574,657.3V676h73.4l0.9-0.6l41.7-29.6v-1c0-0.6-1.3-1.8-2-1.8c-0.1,0-0.2,0-0.3,0.1l-41.2,29.2h-67.1v-11.4h67.1
	l41.6-29.5c0.6-0.4,1-1.2,1-1.9L689.1,628L689.1,628z"/>
<path class="st1" d="M647.1,672.2c-0.6,0-1-0.4-1-1v-10.5c0-0.3,0.2-0.6,0.4-0.8l41.2-28.3v11.5c0,0.3-0.2,0.6-0.4,0.8L647.7,672
	C647.5,672.1,647.3,672.2,647.1,672.2z"/>
<path d="M687.2,632.6v10.6c0,0.1-0.1,0.3-0.2,0.4l-39.6,28.1c-0.1,0.1-0.2,0.1-0.3,0.1c-0.3,0-0.5-0.2-0.5-0.4c0,0,0,0,0,0v-10.5
	c0-0.1,0.1-0.3,0.2-0.3L687.2,632.6 M688.2,630.7l-42,28.9c-0.4,0.3-0.6,0.7-0.6,1.2v10.5c0,0.8,0.7,1.5,1.5,1.5
	c0.3,0,0.6-0.1,0.8-0.3l39.6-28.1c0.4-0.3,0.6-0.7,0.6-1.2L688.2,630.7L688.2,630.7z"/>
<polygon class="st1" points="486.5,690.6 486.5,691 486,691 "/>
<polygon points="486.5,690.6 486,691 486.5,691 486.5,690.6 "/>
<path class="st5" d="M453.6,820H275.7c-12.4,0-18.1-15.5-8.7-23.6l26.8-22.8c2.4-2.1,5.5-3.2,8.7-3.2h177.9
	c12.4,0,18.1,15.5,8.7,23.6l-26.8,22.8C459.8,818.9,456.7,820,453.6,820z"/>
<path d="M405.1,531.8c12.3-8.5,27.8-4.9,42.2,7.7c5.5,4.8,9.4,11.9,9,19.2c-1.1,19.2-36.5,22.1-32.6,37.2
	c1.5,6.1,11.5,7.8,15.8,11.3c9.2,7.6,14.9,18.6,20.4,29c3.2,6,5.9,13.2,10.1,18.7c5.2,6.9,13.5,12.7,19.9,18.6
	c2.4,2.2,4.8,4.5,7.9,5.4c5.1,1.6,10.7-0.6,15-3.8s7.8-7.4,12.1-10.5c8-5.8,18.2-7.5,27.9-9.1c1.7-0.3,3.6-0.5,4.9,0.6
	c1.3,1.3,1.5,3.4,0.5,5c-1.1,1.5-2.6,2.6-4.3,3.2c-6,2.4-13.3,2.3-18.3,6.5c-6.1,5.2-7.6,12.2-14.8,16.4c-8.8,5.2-19.7,9.1-30.1,7.3
	c-12.1-2.1-22.7-13.5-33.6-18.7s-27.1-2.2-31.2,10.9c-0.8,3-1.2,6.1-1.2,9.3c-0.4,9.8-0.4,19.7,0,29.5c0.2,5.4,0.9,11.5,5,15.1
	c10.1,8.8,26.4-2.5,35.5,10.4c3.7,5.3,3.5,13.6-1.8,17.3c-1.3,0.8-2.7,1.5-4.2,2.1c-7,3-13.2,7.6-19.8,11.3
	c-7.9,4.4-16.2,5.8-24.6,8.3c-10,3-21.2,5.5-31.7,5c-12.7-0.7-25.4-3.8-38.2-2.5c-5.7,0.6-11.7,2-16.8-0.7c-4.2-2.2-6.6-6.6-8.4-11
	c-5.2-13-6.4-27.2-3.4-40.9c2.9-13.4,9.3-26.4,9.9-40.2c0.9-20.9-12.7-40.2-13.2-61.1c-0.4-15,7.6-30.7,17.8-41.5
	c13.5-14.5,25.8-5.5,41.8-10.5c16.9-5.4,12.9-25.5,21-40.6C396.7,539.5,400.7,534.9,405.1,531.8z"/>
<path d="M405.8,533.1c8.6-5.6,18.4-5.4,27.5-1.1c8.7,4,18.4,11.2,20.8,21c3.4,14-10.2,20.5-20.2,26.5c-6,3.6-15.1,9.6-11.5,18
	c2.3,5.3,8.9,6.9,13.5,9.4c7.8,4.3,13.1,13.3,17.4,20.8c4.4,7.8,7.9,16.2,12.5,23.9s11.4,13.1,18,18.7c5.5,4.7,10.6,11.1,18.6,10.5
	c8.2-0.6,13.9-7.1,19.6-12.2c7.7-6.8,17-9.4,26.9-11.1c1.1-0.3,2.2-0.5,3.3-0.6l0.8-0.1c3.7,2.1,4.4,3.7,2.1,4.8
	c-1.3,1.6-5,2.1-6.9,2.6c-3.8,0.9-7.7,1.5-11.1,3.5c-6.8,3.8-9.1,11.7-15,16.4c-8.1,6.2-18.1,9.4-28.3,9.1
	c-17.3-1.1-27.5-19-44.3-21.2c-12.4-1.6-24.2,5.2-26.1,18c-1.5,10.2-0.9,21.1-0.6,31.4c0.2,7,0.1,15.5,6.1,20.4
	c10.5,8.6,31.7-3.1,36.5,13.5c1.5,5.2-0.3,10.1-5.1,12.6c-4.4,2.2-8.7,4.2-13,6.8c-3.9,2.6-8,4.9-12.2,7.1c-5.1,2.4-10.6,3.7-16,5.1
	c-9.7,2.6-19.2,5.6-29.3,6.2c-10.7,0.7-21.3-1.7-31.9-2.5c-5-0.4-10-0.3-15,0.3c-5.6,0.6-11.8,1.8-16.4-2.1
	c-7.3-6.2-9.5-19.4-10.3-28.4c-0.9-10.2,0.9-20.1,3.9-29.8c2.7-9,6.1-18,7.1-27.4c2-18.3-7.1-34.7-11.2-52.1
	c-4.7-19.9,2.2-41,17.4-54.9c12.2-11.2,28.8-2.7,42.6-9.6c11.6-5.8,12.1-20.4,15.2-31.4C393.8,546.6,398.5,538.5,405.8,533.1
	c1.6-1.1,0.1-3.7-1.5-2.6c-6.3,4.7-11.2,11.1-14.1,18.4c-2.8,6.8-3.7,14.1-5.7,21.1c-2.4,8.2-6.8,13.9-15.5,15.8
	c-7.7,1.7-15.5,0.2-23.2,1.3c-16.5,2.4-27.7,21.1-32.2,35.7c-5.9,19,2.1,36.5,7.5,54.6c3.1,10.5,4.5,20.8,2.2,31.6
	c-2.2,10.3-6.4,20.1-8.6,30.4c-2,9.3-2.2,19-0.5,28.4c1.4,7.8,4,18,10.3,23.4c7,6,16.7,2.6,25,2.3c11.2-0.3,22.2,2.3,33.4,2.8
	c10.3,0.5,20.5-1.7,30.4-4.5c9.3-2.6,18.9-4.5,27.4-9.4c4.3-2.5,8.5-5.3,12.8-7.7c3.8-2.1,8.6-3.3,11.8-6.3c4.6-4.3,4.8-12,1.8-17.2
	c-3.4-5.8-9.3-8.2-15.8-8.6c-7.6-0.4-17.9,2-22.7-5.8c-2.8-4.5-2.5-10.4-2.7-15.4c-0.2-5.9-0.2-11.8-0.1-17.7
	c0.2-10.2-0.1-22,10.5-27c17.8-8.3,31.7,10,46.4,16.6c14.3,6.4,35.6,1.3,45.3-11.1c2.5-3.2,4.4-6.8,7.3-9.6c4-3.8,9.3-4.4,14.4-5.7
	c4.3-1.1,13.5-4.7,9.8-10.9c-1.2-2.1-3.6-2.4-5.8-2.3c-4.9,0.4-9.8,1.4-14.5,2.8c-8.8,2.3-15.6,6.6-22.2,12.8
	c-3.9,3.6-8.1,7.5-13.5,8.5c-6.9,1.2-11.5-4.4-16.2-8.5c-7.8-6.7-15.5-12.8-20.4-22c-4.5-8.4-8.3-17.1-13.4-25.3
	c-4-6.5-9.1-13.9-16-17.7c-5.1-2.8-15.7-5.8-12.1-13.6c2.1-4.6,7.9-7.4,12.1-9.8c8.2-4.9,18.9-10.6,20.1-21.2
	c1.9-17.1-17.7-30.9-32.6-33.5c-7.2-1.3-14.6,0.3-20.7,4.3C402.7,531.6,404.2,534.2,405.8,533.1z"/>
<path class="st5" d="M415.1,716.5H276.8c-7.1,0-13.2-5.1-14.5-12.2l-13.9-79.7c-1.4-8,3.9-15.6,11.9-17c0.8-0.1,1.7-0.2,2.5-0.2
	h138.2c7.1,0,13.2,5.1,14.5,12.2l13.9,79.7c1.4,8-3.9,15.6-11.9,17C416.8,716.4,415.9,716.5,415.1,716.5z"/>
<path class="st5" d="M310.5,803.5l-9.2,1.3l-25.8-161.1c-0.4-2.4,1.3-4.8,3.7-5.2c0,0,0.1,0,0.1,0l0,0c2.6-0.4,5,1.4,5.5,4
	L310.5,803.5z"/>
<path class="st5" d="M418.5,803.5l-9.2,1.3l-25.5-159.3c-0.6-3.4,1.8-6.7,5.2-7.2c0,0,0.1,0,0.1,0l0,0c1.6-0.2,3.1,0.9,3.3,2.5
	L418.5,803.5z"/>
<path class="st0" d="M298.7,799.5h126.8c3.3,0,6,2.7,6,6v1l0,0h-138l0,0v-1.8C293.5,801.8,295.8,799.5,298.7,799.5
	C298.7,799.5,298.7,799.5,298.7,799.5z"/>
<polygon class="st5" points="388.5,677.5 290.5,677.5 288.5,668.5 387.5,668.5 "/>
<path class="st1" d="M445.6,934.6c-4.2-0.1-8.3-1.7-11.5-4.5c-6.8-5.8-8.5-15.2-3.7-20.8c2.4-2.7,5.9-4.3,9.6-4.2
	c8.7,0.3,16,6.5,17.8,15c1.4,6.4-2.6,12.8-9,14.2C447.7,934.6,446.6,934.7,445.6,934.6L445.6,934.6z"/>
<path d="M440,904.7v1l0,0c4.1,0.1,8.1,1.6,11.2,4.3c6.6,5.6,8.2,14.7,3.6,20.1c-2.3,2.6-5.7,4.1-9.2,4c-8.4-0.3-15.6-6.3-17.2-14.6
	c-1.4-6.1,2.5-12.2,8.6-13.6c1-0.2,2-0.3,3.1-0.3V904.7 M440,904.7c-3.8-0.1-7.5,1.5-10,4.3c-5,5.9-3.3,15.5,3.7,21.5
	c3.3,2.9,7.5,4.5,11.9,4.6c3.8,0.1,7.5-1.5,10-4.3c5-5.9,3.3-15.5-3.7-21.5C448.6,906.4,444.4,904.8,440,904.7z"/>
<path class="st1" d="M321,953.8c-3.2,0.1-6.4-1.2-8.7-3.4c-2.6-2.7-3.8-6.4-3.4-10.1c0.4-4.2,2.3-8.1,5.4-11
	c3.2-3.3,7.7-5.2,12.3-5.3c3.2-0.1,6.4,1.2,8.7,3.4c2.6,2.7,3.8,6.4,3.4,10c-0.4,4.2-2.3,8.1-5.4,11
	C330.1,951.8,325.6,953.7,321,953.8z"/>
<path d="M326.6,923.5v1c3.1-0.1,6.1,1.1,8.3,3.3c5.1,5.1,4.2,14.2-2,20.3c-3.2,3.3-7.5,5.2-12,5.3c-3.1,0.1-6.1-1.1-8.4-3.3
	c-2.5-2.6-3.7-6.1-3.2-9.7c0.4-4.1,2.3-7.8,5.2-10.7c3.2-3.3,7.5-5.2,12-5.3L326.6,923.5 M326.6,923.5c-4.8,0.1-9.3,2.1-12.7,5.5
	c-6.5,6.5-7.4,16.3-2,21.7c2.4,2.4,5.7,3.6,9,3.6c4.8-0.1,9.4-2.1,12.7-5.6c6.5-6.5,7.4-16.3,2-21.7
	C333.2,924.7,330,923.4,326.6,923.5L326.6,923.5z"/>
<path class="st0" d="M360.7,885.1c-0.4-0.4-0.7-0.9-0.9-1.5C360.2,884.4,360.6,884.9,360.7,885.1z"/>
<path class="st0" d="M382.5,876.5c-0.9,6.1-5,9-9,10.8c-1.4,0.5-2.8,0.7-4.2,0.7h-2.5c-3.5-0.2-6.7-2.3-8.2-5.5c0,0-3.9-9.6,3-14.1
	c0,0,2.1,3.7,6,4.1h5c3,0,6-3,6-6.4C381.7,868.6,383.2,872.6,382.5,876.5z"/>
<polygon class="st1" points="380.1,867 380,867.2 380,867 "/>
<polygon points="380,867 380,867.2 380.1,867 380,867 "/>
<path class="st6" d="M450,910l-4,4l-11-4v-8l-58-17.3v-9.7l4.2-3.7l0.1-0.2l61.3,19.1c4.3,1.4,7.3,5.3,7.4,9.9V910z"/>
<path class="st1" d="M450,910l-4,4l-11-4v-8l-58-17.3v-9.7l4.2-3.7l0.1-0.2l61.3,19.1c4.3,1.4,7.3,5.3,7.4,9.9V910z"/>
<path class="st7" d="M367,887l-34.6,33.4l0.1,5.1l-9,9l-9-4v-6.9c0-3,1.2-5.8,3.3-7.8l41.7-40.1l7.5,1.4V887z"/>
<rect x="458.5" y="182.5" class="st1" width="203" height="41"/>
<path d="M661,183v40H459v-40H661 M662,182H458v42h204V182z"/>
<path class="st5" d="M692.5,816.5l10,112c0,0,3.2,13,40,18c37,5,48,0,48,0V825L692.5,816.5z"/>
<path class="st1" d="M772.2,847.5c-44,0-79.7-13.9-79.7-31s35.8-31,79.7-31c6.1,0,12.3,0.3,18.3,0.8v60.4
	C784.5,847.3,778.4,847.5,772.2,847.5z"/>
<path d="M772.2,786c6,0,11.9,0.3,17.8,0.8v59.5c-5.8,0.5-11.8,0.8-17.8,0.8c-21.3,0-41.3-3.3-56.4-9.2
	c-14.8-5.8-22.9-13.4-22.9-21.4s8.1-15.6,22.9-21.4C730.9,789.2,750.9,786,772.2,786 M772.2,785c-44.3,0-80.2,14.1-80.2,31.5
	s35.9,31.5,80.2,31.5c6.5,0,12.7-0.3,18.8-0.9v-61.3C785,785.3,778.7,785,772.2,785z"/>
<path class="st5" d="M790.5,846.5c0,0-54,5.5-87-14.8c0,0,1-2.2,7-3.2c0,0,9-6,12-7s9-6,13-5s9.8,0,9.8,0s0.2-3,11.2-2s20,5,23,2
	s11-5.8,11-5.8V846.5z"/>
<line class="st8" x1="707.5" y1="798.5" x2="710.5" y2="828.5"/>
<polygon class="st1" points="532.6,657 532,657.5 532,657 "/>
<polygon points="532.6,657 532,657 532,657.5 532.6,657 "/>
<polygon class="st5" points="486.7,690.5 486.5,690.6 486.5,690.5 "/>
<path class="st9" d="M432.2,919.5c-0.9-1.3,0-3.2,1.3-3.9c1.4-0.6,3.1-0.6,4.5-0.1c3.7,1.1,7,3.4,9.2,6.6c1.2,1.4,1.7,3.3,1.6,5.1
	c-0.3,1.8-2.1,3.4-3.8,3"/>
<path class="st9" d="M322,948.3c-1-0.1-1.9-0.7-2.3-1.7c-0.4-0.9-0.5-1.9-0.3-2.9c0.5-3.3,2.8-6.1,5.6-8c2.1-1.5,4.8-2.5,7.2-1.6
	c0.3,0.1,0.6,0.3,0.9,0.5c1,1,0.7,2.7,0.3,4"/>
<ellipse class="st5" cx="314.5" cy="562.5" rx="26" ry="12"/>
</svg>
