<svg id="Layer_1" data-name="Layer 1" xmlns="http://www.w3.org/2000/svg" viewBox="0 0 791 1018"><defs><style>.cls-1,.cls-2,.cls-3,.cls-5,.cls-7{fill:#c1eadb;}.cls-2,.cls-3,.cls-5,.cls-6,.cls-7,.cls-8{stroke:#000;}.cls-2,.cls-8{stroke-miterlimit:10;}.cls-3,.cls-5,.cls-6{stroke-linejoin:round;}.cls-4{fill:#fff;}.cls-5,.cls-8{stroke-linecap:round;}.cls-6,.cls-8{fill:none;}.cls-6{stroke-width:2px;}.cls-7{stroke-linejoin:bevel;}</style></defs><title>room</title><path class="cls-1" d="M268.5,1.5h522v824c-5.86-.2-52.38-.3-138.44-.3-149.73,0-371.46.3-383.56.32Z"/><path d="M790,2V825c-7.79-.18-54.12-.28-137.94-.28-148,0-366.37.3-383.06.32V2H790m1-1H268V826s229.09-.32,384.06-.32c77.47,0,136.43.08,138.94.32V1Z"/><rect class="cls-2" x="0.5" y="0.5" width="268" height="1017"/><polygon class="cls-1" points="269.08 825.58 790.5 825.5 790.5 1016.5 1.56 1017.5 269.08 825.58"/><path d="M790,826v190L3.11,1017,269.24,826.08,790,826m1-1-522.08.08L0,1018l791-1V825Z"/><polygon class="cls-1" points="184.35 983.5 331.16 876.5 770.51 877.5 629.83 983.5 184.35 983.5"/><path d="M331.33,877,769,878,629.67,983H185.89L331.33,877m-.33-1L182.82,984H630L772,877l-441-1Z"/><rect class="cls-2" x="154.5" y="902.5" width="110" height="13"/><polygon class="cls-2" points="430.5 638.5 293.5 836.5 269.5 836.5 405.42 639 430.5 638.5"/><polygon class="cls-3" points="433.5 632.5 441.5 627.5 302.5 828.5 293.5 836.5 433.5 632.5"/><polygon class="cls-2" points="294.5 638.5 299.5 638.5 434.5 833.5 430.5 836.5 294.5 638.5"/><rect class="cls-1" x="451.5" y="174.5" width="217" height="376"/><path d="M668,175V550H452V175H668m1-1H451V551H669V174Z"/><polygon class="cls-3" points="271.5 638.5 406.5 836.5 430.5 836.5 294.5 638.5 271.5 638.5"/><rect class="cls-1" x="715.5" y="641.5" width="24" height="196"/><path d="M739,642V837H716V642h23m1-1H715V838h25V641Z"/><polygon class="cls-2" points="264.5 902.5 273.35 895.82 170.19 895.82 154.5 902.5 264.5 902.5"/><polygon class="cls-3" points="157.5 912.5 289.5 814.5 289.5 801.5 157.5 899.5 157.5 912.5"/><polygon class="cls-3" points="284.5 888.5 293.35 881.82 192.5 881.5 182.5 888.5 284.5 888.5"/><polygon class="cls-3" points="398.5 801.5 407.35 794.82 304.19 794.82 289.5 801.5 398.5 801.5"/><rect class="cls-4" x="458.23" y="182.5" width="203.27" height="352"/><path d="M661,183V534H458.73V183H661m1-1H457.73V535H662V182Z"/><polygon class="cls-1" points="289.5 814.5 289.5 801.5 397.97 801.5 387.76 814.5 289.5 814.5"/><path d="M396.94,802l-9.43,12H290V802H396.94m2.06-1H289v14h99l11-14Z"/><polygon class="cls-1" points="120.54 729.5 268.16 622.5 742.46 622.5 594.84 729.5 120.54 729.5"/><path d="M740.92,623,594.68,729H122.08L268.32,623h472.6m3.08-1H268L119,730H595L744,622Z"/><polygon class="cls-4" points="73.5 295.25 206.5 198.98 206.5 532.75 73.5 629.02 73.5 295.25"/><path d="M206,200V532.49L74,628V295.51L206,200m1-2L73,295V630l134-97V198Z"/><polygon class="cls-1" points="73.5 294.25 206.5 197.98 206.5 493.75 73.5 590.02 73.5 294.25"/><path d="M206,199V493.49L74,589V294.51L206,199m1-2L73,294V591l134-97V197Z"/><polygon class="cls-2" points="279.5 746.5 142.5 944.5 118.5 944.5 254.42 747 279.5 746.5"/><rect class="cls-2" x="182.5" y="888.5" width="103" height="4"/><polygon class="cls-3" points="304.5 874.5 313.35 867.82 212.5 867.5 202.5 874.5 304.5 874.5"/><rect class="cls-2" x="202.5" y="874.5" width="103" height="4"/><polygon class="cls-3" points="323.5 860.5 332.35 853.82 231.5 853.5 221.5 860.5 323.5 860.5"/><rect class="cls-2" x="221.5" y="860.5" width="103" height="4"/><polygon class="cls-3" points="342.5 846.5 351.35 839.82 250.5 839.5 240.5 846.5 342.5 846.5"/><rect class="cls-2" x="240.5" y="846.5" width="103" height="4"/><polygon class="cls-3" points="361.5 832.5 370.35 825.82 269.5 825.5 259.5 832.5 361.5 832.5"/><rect class="cls-2" x="259.5" y="832.5" width="103" height="4"/><polygon class="cls-3" points="379.5 818.5 388.35 811.82 287.5 811.5 277.5 818.5 379.5 818.5"/><rect class="cls-2" x="277.5" y="818.5" width="103" height="4"/><polygon class="cls-3" points="260.5 915.5 407.5 807.5 407.5 794.5 260.5 902.5 260.5 915.5"/><polygon class="cls-3" points="282.5 740.5 290.5 735.5 151.5 936.5 142.5 944.5 282.5 740.5"/><rect class="cls-1" x="120.5" y="729.5" width="474" height="17"/><path d="M594,730v16H121V730H594m1-1H120v18H595V729Z"/><polygon class="cls-2" points="143.5 746.5 148.5 746.5 283.5 941.5 279.5 944.5 143.5 746.5"/><polygon class="cls-3" points="120.5 746.5 255.5 944.5 279.5 944.5 143.5 746.5 120.5 746.5"/><polygon class="cls-2" points="64.5 289.5 72.5 294.5 72.5 629.5 65.5 629.5 64.5 289.5"/><polygon class="cls-2" points="64.5 289.5 213.5 181.5 206.5 197.5 72.5 294.5 64.5 289.5"/><polygon class="cls-2" points="213.5 181.5 214 533.5 213.5 533.5 213.5 544.5 207.5 544.5 207.5 197.5 213.5 181.5"/><polygon class="cls-3" points="73.5 629.5 214 528 220.5 528.5 82.5 629.5 73.5 629.5"/><path class="cls-1" d="M366.35,894.88c-4.41,0-8.52-5.45-9.34-12.41-.88-7.38,2.17-13.82,6.8-14.37.21,0,.42,0,.62,0,4.42,0,8.52,5.46,9.35,12.42a18.06,18.06,0,0,1-1.4,9.84c-1.29,2.66-3.21,4.27-5.4,4.53Z"/><path d="M364.43,868.56c4.17,0,8.05,5.26,8.85,12,.84,7.1-2,13.29-6.36,13.81l-.57,0c-4.16,0-8.05-5.26-8.84-12-.85-7.1,2-13.3,6.36-13.81a5.27,5.27,0,0,1,.56,0m0-1c-.22,0-.45,0-.68,0-4.91.59-8.15,7.27-7.24,14.93.87,7.3,5.19,12.85,9.84,12.85a5.32,5.32,0,0,0,.69,0c4.9-.58,8.14-7.26,7.23-14.92-.86-7.3-5.19-12.86-9.84-12.86Z"/><polygon class="cls-3" points="82.5 645.5 220.5 544.5 220.5 528.5 82.5 629.5 82.5 645.5"/><rect class="cls-2" x="65.5" y="629.5" width="17" height="16"/><polygon class="cls-3" points="451.5 550.5 441.5 557.5 441.5 541.5 451.5 534.5 451.5 550.5"/><polygon class="cls-3" points="441.5 557.5 658.5 557.5 668.5 550.5 451.5 550.5 441.5 557.5"/><polygon class="cls-3" points="441.5 541.5 658.5 541.5 668.5 534.5 451.5 534.5 441.5 541.5"/><polygon class="cls-3" points="668.5 550.5 658.5 557.5 658.5 541.5 668.5 534.5 668.5 550.5"/><rect class="cls-3" x="441.5" y="541.5" width="217" height="16"/><line class="cls-2" x1="451.5" y1="174.5" x2="458.5" y2="182.5"/><line class="cls-2" x1="661" y1="183" x2="668.5" y2="174.5"/><path class="cls-1" d="M354.5,880.5v-9.18a9.82,9.82,0,0,1,9.82-9.82h1.36a9.82,9.82,0,0,1,9.82,9.82v9.18Z"/><path d="M365.68,862a9.33,9.33,0,0,1,9.32,9.32V880H355v-8.68a9.33,9.33,0,0,1,9.32-9.32h1.36m0-1h-1.36A10.32,10.32,0,0,0,354,871.32V881h22v-9.68A10.32,10.32,0,0,0,365.68,861Z"/><rect class="cls-1" x="570.5" y="746.5" width="24" height="196"/><path d="M594,747V942H571V747h23m1-1H570V943h25V746Z"/><polygon class="cls-1" points="594.5 746.24 598.5 743.04 598.5 938.69 591.51 942.18 594.5 746.24"/><path d="M598,744.08v194.3l-6,3,3-194.88,3-2.41m1-2.08-5,4-3,197,8-4V742Z"/><path d="M463.59,784.27c1.45,35.35-3.33,82.3,27.34,107.38,1.34,1.1,2.83,2.27,3.23,4,.55,2.35-1.48,4.74-3.84,5.23s-4.82-.5-6.76-1.93-3.51-3.31-5.31-4.92c-12.22-10.94-29.91-9.29-31.88-28.14-2.13-20.37-11.53-40.6-18-60"/><path d="M462.09,784.27c1.09,28.19-1.6,58.38,10.13,84.85a65.74,65.74,0,0,0,11.22,17.47c1.05,1.17,2.16,2.3,3.31,3.39s3.42,2.3,4.13,3.58l-2,5.91-3.35-1.06a15.07,15.07,0,0,1-3.11-2.45c-1.53-1.41-2.93-2.92-4.55-4.23-9.33-7.52-25.84-9.13-29.34-22.28-1.28-4.78-1.43-9.91-2.47-14.77a165,165,0,0,0-4.44-16c-3.64-11.16-8.06-22-11.8-33.17-.62-1.82-3.52-1-2.9.8,3.65,10.83,7.93,21.43,11.51,32.28,1.74,5.28,3.32,10.62,4.53,16.05,1.15,5.16,1.29,10.58,2.68,15.66,3.93,14.49,20.45,15.65,30.59,24,4.34,3.57,10.58,11.74,17,6.84s-1.32-10.28-4.86-13.7c-12.4-12-18-28.62-20.53-45.29-2.89-19.13-2-38.55-2.76-57.82-.07-1.93-3.07-1.94-3,0Z"/><rect class="cls-5" x="361.5" y="788.5" width="17" height="89" rx="8.5" ry="8.5"/><polygon class="cls-1" points="594.5 729.26 743.5 621.98 743.5 638.74 594.5 746.02 594.5 729.26"/><path d="M743,623v15.54L595,745.05V729.51L743,623m1-2L594,729v18L744,639V621Z"/><polygon class="cls-1" points="479.56 698.5 551.16 647.5 630.44 647.5 558.84 698.5 479.56 698.5"/><path d="M628.87,648l-70.19,50H481.13l70.19-50h77.55m3.13-1H551l-73,52h81l73-52Z"/><path d="M385.76,791.64q6.19,31.44,14,62.52c1.79,7.13,3.85,14.62,9.12,19.74,3.36,3.28,7.74,5.27,12,7.19l18.27,8.22c3.11-4.26,2.24-10.34-.21-15s-6.24-8.5-9.07-12.95c-14.35-22.51-6.25-57-1.29-81.07"/><path d="M384.31,792c4.35,22,8.93,44,14.78,65.59,2,7.5,4.93,14.82,11.39,19.57,8.1,6,18.8,9.3,27.92,13.4a1.54,1.54,0,0,0,2.05-.54c5-7.94.43-16.45-4.6-23.08-6.29-8.3-10.39-16.7-11.83-27.12-2.72-19.8,2-39.89,6-59.19.39-1.88-2.5-2.69-2.89-.79-3.72,18-7.94,36.52-6.63,55.07.6,8.34,2.38,16.69,6.32,24.13,4.54,8.59,17.7,18.8,11,29.47l2.05-.54c-8.37-3.76-17.42-7-25.3-11.69-9-5.4-11.51-14.87-13.89-24.44q-7.52-30.14-13.51-60.64c-.38-1.89-3.27-1.09-2.9.8Z"/><polygon class="cls-1" points="502.55 712.5 537.16 687.5 616.45 687.5 581.84 712.5 502.55 712.5"/><path d="M614.91,688l-33.23,24H504.09l33.23-24h77.59m3.09-1H537l-36,26h81l36-26Z"/><polygon class="cls-1" points="437.55 659.5 472.16 634.5 551.45 634.5 516.84 659.5 437.55 659.5"/><path d="M549.91,635l-33.23,24H439.09l33.23-24h77.59m3.09-1H472l-36,26h81l36-26Z"/><rect class="cls-5" x="288.5" y="561.5" width="52" height="70"/><rect class="cls-1" x="579.03" y="659.5" width="66.97" height="13.22"/><path d="M645.5,660v12.22h-66V660h66m1-1h-68v14.22h68V659Z"/><path class="cls-1" d="M574.5,675.5V657.59L616,628.82l.45-.32h72.17v.94a1.9,1.9,0,0,1-.8,1.54l-41.45,29.41h-66.9a.5.5,0,0,0-.5.5v11.44a.5.5,0,0,0,.5.5H646.5a.52.52,0,0,0,.29-.09L688,643.48a2.69,2.69,0,0,1,1.48,1.28v.76l-42.25,30Z"/><path d="M688.09,629v.44a1.38,1.38,0,0,1-.59,1.13l-41.32,29.32H579.44a1,1,0,0,0-1,1v11.44a1,1,0,0,0,1,1H646.5a1,1,0,0,0,.58-.18l41-29.1a2.75,2.75,0,0,1,.91.8v.41l-41.26,29.28-.65.46H575V657.86l41.27-28.64.31-.22h71.51m.22,14.89h0m.78-15.89H616.26l-.57.41L574,657.33V676h73.41l.9-.64L690,645.78v-1c0-.6-1.31-1.75-2-1.75a.44.44,0,0,0-.26.07L646.5,672.33H579.44V660.89H646.5l41.58-29.51a2.36,2.36,0,0,0,1-1.94V628Z"/><path class="cls-1" d="M647.08,672.22a1,1,0,0,1-1-1V660.74a.94.94,0,0,1,.41-.77l41.19-28.35v11.53a1,1,0,0,1-.4.77L647.65,672A1,1,0,0,1,647.08,672.22Z"/><path d="M687.19,632.57v10.58a.45.45,0,0,1-.19.36l-39.64,28.12a.49.49,0,0,1-.28.09.47.47,0,0,1-.49-.45V660.74a.47.47,0,0,1,.18-.35l40.42-27.82m1-1.9-42,28.9a1.43,1.43,0,0,0-.62,1.17v10.53a1.49,1.49,0,0,0,2.35,1.18l39.64-28.13a1.45,1.45,0,0,0,.61-1.17V630.67Z"/><polygon class="cls-1" points="486.5 690.64 486.5 691 486 691 486.5 690.64"/><polygon points="486.5 690.64 486 691 486.5 691 486.5 690.64 486.5 690.64"/><path class="cls-5" d="M453.57,820H275.66c-12.44,0-18.14-15.5-8.66-23.56l26.77-22.76a13.41,13.41,0,0,1,8.66-3.18H480.34c12.44,0,18.14,15.5,8.66,23.56l-26.77,22.76A13.41,13.41,0,0,1,453.57,820Z"/><path d="M405.08,531.81c12.28-8.51,27.8-4.91,42.2,7.66,5.51,4.81,9.37,11.91,9,19.22-1.09,19.17-36.48,22.06-32.65,37.19,1.54,6.09,11.5,7.81,15.77,11.31,9.24,7.6,14.89,18.64,20.44,29,3.22,6,5.94,13.19,10.08,18.65,5.25,6.92,13.47,12.68,19.85,18.58,2.37,2.19,4.84,4.45,7.92,5.44,5.1,1.64,10.7-.59,15-3.8s7.78-7.41,12.12-10.55c8-5.79,18.17-7.54,27.93-9.14,1.69-.27,3.62-.49,4.94.61a4,4,0,0,1,.47,5,8.6,8.6,0,0,1-4.33,3.18c-6,2.42-13.3,2.27-18.27,6.48-6.09,5.17-7.59,12.18-14.76,16.38-8.84,5.19-19.72,9.06-30.09,7.28-12.07-2.08-22.73-13.5-33.61-18.67s-27.12-2.22-31.21,10.9a36.59,36.59,0,0,0-1.25,9.27q-.62,14.76,0,29.53c.24,5.44.89,11.48,5,15.06,10.09,8.78,26.36-2.49,35.47,10.44,3.71,5.26,3.46,13.58-1.82,17.26a24.1,24.1,0,0,1-4.22,2.11c-7,3-13.21,7.56-19.84,11.3-7.85,4.42-16.16,5.79-24.58,8.28-10,3-21.18,5.51-31.71,5-12.74-.66-25.39-3.81-38.2-2.49-5.66.58-11.73,2-16.79-.65-4.17-2.17-6.61-6.6-8.37-11a70.33,70.33,0,0,1-3.4-40.92c2.91-13.36,9.3-26.36,9.92-40.15.94-20.94-12.66-40.18-13.25-61.12-.43-15,7.64-30.66,17.77-41.51,13.48-14.46,25.82-5.47,41.76-10.51,16.94-5.36,12.91-25.45,21-40.64C396.67,539.5,400.66,534.87,405.08,531.81Z"/><path d="M405.84,533.1c8.57-5.61,18.41-5.4,27.54-1.14,8.67,4,18.39,11.16,20.78,21C457.58,567,444,573.42,434,579.46c-6,3.64-15.08,9.62-11.47,18,2.29,5.31,8.89,6.89,13.51,9.42,7.84,4.29,13.12,13.31,17.41,20.85,4.43,7.82,7.86,16.22,12.45,23.93s11.35,13.08,18,18.73c5.52,4.69,10.65,11.11,18.6,10.52,8.2-.61,13.85-7.12,19.57-12.21,7.65-6.81,17-9.4,26.9-11.12a14.36,14.36,0,0,1,3.27-.56l.82-.13q5.59,3.15,2.14,4.82c-1.34,1.59-5,2.12-6.94,2.6-3.75.91-7.69,1.55-11.1,3.45-6.79,3.77-9.14,11.69-15,16.43a43.7,43.7,0,0,1-28.28,9.06c-17.27-1.12-27.46-19-44.28-21.23-12.35-1.62-24.24,5.19-26.11,18-1.48,10.21-.92,21.12-.59,31.41.22,7,.12,15.55,6.07,20.43,10.45,8.6,31.69-3.1,36.52,13.48,1.51,5.2-.26,10.13-5.12,12.63-4.37,2.25-8.74,4.25-13,6.81a122.37,122.37,0,0,1-12.2,7.07c-5.11,2.36-10.61,3.68-16,5.12-9.67,2.57-19.2,5.61-29.26,6.24-10.69.67-21.26-1.68-31.89-2.47A81.14,81.14,0,0,0,343,791c-5.57.63-11.75,1.8-16.42-2.12-7.34-6.16-9.51-19.39-10.28-28.39-.88-10.22.89-20.1,3.86-29.85,2.74-9,6.08-18,7.12-27.43,2-18.32-7.08-34.73-11.17-52.07-4.71-19.94,2.2-41,17.37-54.9,12.2-11.19,28.79-2.72,42.56-9.64,11.63-5.85,12.06-20.41,15.25-31.42,2.5-8.61,7.24-16.72,14.58-22.07,1.54-1.12.05-3.73-1.51-2.59a42.42,42.42,0,0,0-14.11,18.42c-2.75,6.79-3.66,14.09-5.7,21.08-2.39,8.2-6.84,13.86-15.46,15.79-7.67,1.72-15.5.17-23.21,1.28-16.55,2.38-27.72,21.09-32.25,35.72-5.9,19,2.09,36.53,7.49,54.6,3.14,10.49,4.46,20.77,2.19,31.59-2.17,10.32-6.39,20.07-8.6,30.38a72.93,72.93,0,0,0-.45,28.39c1.42,7.78,4,18,10.3,23.4,7.05,6,16.69,2.56,25,2.35,11.22-.29,22.23,2.29,33.4,2.78,10.34.46,20.54-1.72,30.42-4.52,9.29-2.64,18.91-4.55,27.39-9.36,4.33-2.46,8.47-5.26,12.81-7.7,3.76-2.11,8.61-3.34,11.78-6.3,4.6-4.31,4.77-12,1.76-17.2-3.35-5.83-9.29-8.25-15.75-8.57-7.62-.38-17.89,2-22.69-5.76-2.75-4.45-2.5-10.4-2.66-15.43q-.29-8.87-.12-17.72c.2-10.23-.15-22,10.54-27,17.84-8.33,31.72,10,46.43,16.64,14.26,6.4,35.6,1.35,45.32-11.09,2.48-3.16,4.4-6.78,7.34-9.57,4-3.79,9.26-4.41,14.36-5.73,4.31-1.12,13.47-4.67,9.78-10.92-1.25-2.1-3.59-2.44-5.82-2.31a75.88,75.88,0,0,0-14.53,2.76c-8.85,2.32-15.6,6.56-22.23,12.76-3.89,3.64-8.09,7.48-13.53,8.46-6.93,1.25-11.52-4.43-16.22-8.47-7.79-6.69-15.45-12.8-20.35-22-4.47-8.44-8.33-17.13-13.36-25.27-4-6.54-9.1-13.94-16-17.72-5.1-2.79-15.73-5.75-12.06-13.61,2.15-4.6,7.92-7.36,12.07-9.82,8.24-4.88,18.91-10.57,20.08-21.21,1.88-17.06-17.68-30.88-32.59-33.45a28.27,28.27,0,0,0-20.73,4.34C402.72,531.56,404.22,534.16,405.84,533.1Z"/><path class="cls-5" d="M415.06,716.5H276.83a14.68,14.68,0,0,1-14.45-12.15L248.5,624.69a14.66,14.66,0,0,1,14.44-17.19H401.17a14.68,14.68,0,0,1,14.45,12.15l13.88,79.66A14.66,14.66,0,0,1,415.06,716.5Z"/><path class="cls-5" d="M310.5,803.5l-9.25,1.29-25.82-161.1a4.49,4.49,0,0,1,3.82-5.17h0a4.83,4.83,0,0,1,5.45,4Z"/><path class="cls-5" d="M418.5,803.5l-9.25,1.29L383.72,645.51a6.31,6.31,0,0,1,5.35-7.25h0a3,3,0,0,1,3.34,2.47Z"/><path class="cls-2" d="M298.69,799.5H425.48a6,6,0,0,1,6,6v1a0,0,0,0,1,0,0h-138a0,0,0,0,1,0,0v-1.81A5.19,5.19,0,0,1,298.69,799.5Z"/><polygon class="cls-5" points="388.5 677.5 290.5 677.5 288.5 668.5 387.5 668.5 388.5 677.5"/><path class="cls-1" d="M445.59,934.61a18,18,0,0,1-11.53-4.46c-6.83-5.82-8.48-15.15-3.66-20.81a12.3,12.3,0,0,1,9.58-4.16,18.74,18.74,0,0,1,17.75,15,11.88,11.88,0,0,1-12.14,14.46Z"/><path d="M440,904.68v1h0A17.45,17.45,0,0,1,451.2,910c6.62,5.64,8.24,14.66,3.6,20.1a11.82,11.82,0,0,1-9.21,4,18.23,18.23,0,0,1-17.25-14.56A11.38,11.38,0,0,1,440,905.68v-1m0,0A12.84,12.84,0,0,0,430,909c-5,5.87-3.34,15.5,3.71,21.51a18.51,18.51,0,0,0,11.86,4.58,12.84,12.84,0,0,0,10-4.34c5-5.87,3.34-15.5-3.72-21.51A18.49,18.49,0,0,0,440,904.68Z"/><path class="cls-1" d="M321,953.83a12.16,12.16,0,0,1-8.7-3.43,12.3,12.3,0,0,1-3.36-10.06,18,18,0,0,1,5.35-11A17.74,17.74,0,0,1,326.6,924a12.16,12.16,0,0,1,8.7,3.43,12.32,12.32,0,0,1,3.36,10.05,18,18,0,0,1-5.35,11A17.74,17.74,0,0,1,321,953.83Z"/><path d="M326.6,923.46v1a11.63,11.63,0,0,1,8.34,3.28c5.06,5.06,4.17,14.17-2,20.32a17.24,17.24,0,0,1-12,5.27,11.65,11.65,0,0,1-8.35-3.28,11.86,11.86,0,0,1-3.22-9.66,17.55,17.55,0,0,1,5.21-10.66,17.24,17.24,0,0,1,12-5.27v-1m0,0A18.23,18.23,0,0,0,313.91,929c-6.55,6.55-7.44,16.28-2,21.74a12.59,12.59,0,0,0,9.05,3.57,18.25,18.25,0,0,0,12.69-5.56c6.55-6.55,7.44-16.28,2-21.74a12.59,12.59,0,0,0-9-3.57Z"/><path class="cls-2" d="M360.73,885.12a7.27,7.27,0,0,1-.94-1.46C360.22,884.39,360.58,884.9,360.73,885.12Z"/><path class="cls-2" d="M382.5,876.5c-.87,6.1-5,9-9,10.8a12.94,12.94,0,0,1-4.2.7h-2.54a9.75,9.75,0,0,1-8.23-5.5s-3.88-9.63,3-14.12c0,0,2.08,3.68,6,4.12h5c3,0,6-3,6-6.44A10.93,10.93,0,0,1,382.5,876.5Z"/><polygon class="cls-1" points="380.14 867.04 380 867.25 380 867 380.14 867.04"/><polygon points="380 867 380 867.25 380.14 867.04 380 867 380 867"/><path class="cls-6" d="M450,910l-4,4-11-4v-8l-58-17.35v-9.72l4.24-3.65.13-.2,61.27,19.06A10.63,10.63,0,0,1,450,900Z"/><path class="cls-1" d="M450,910l-4,4-11-4v-8l-58-17.35v-9.72l4.24-3.65.13-.2,61.27,19.06A10.63,10.63,0,0,1,450,900Z"/><path class="cls-7" d="M367,887l-34.65,33.38.15,5.12-9,9-9-4v-6.88a11,11,0,0,1,3.3-7.85l41.7-40.14L367,877Z"/><rect class="cls-1" x="458.5" y="182.5" width="203" height="41"/><path d="M661,183v40H459V183H661m1-1H458v42H662V182Z"/><path class="cls-5" d="M692.5,816.5l10,112s3.21,13,40,18c37,5,48,0,48,0V825Z"/><path class="cls-1" d="M772.24,847.54c-44,0-79.74-13.93-79.74-31s35.77-31,79.74-31c6.14,0,12.28.28,18.26.83v60.42C784.52,847.26,778.38,847.54,772.24,847.54Z"/><path d="M772.24,786c6,0,11.94.27,17.76.79v59.5c-5.82.52-11.79.79-17.76.79-21.31,0-41.33-3.26-56.37-9.17C701.12,832.07,693,824.49,693,816.5s8.12-15.57,22.87-21.37c15-5.91,35.06-9.17,56.37-9.17m0-1C727.93,785,692,799.08,692,816.5S727.93,848,772.24,848c6.46,0,12.74-.31,18.76-.87V785.83c-6-.56-12.3-.87-18.76-.87Z"/><path class="cls-5" d="M790.5,846.5s-54,5.5-87-14.75c0,0,1-2.25,7-3.25,0,0,9-6,12-7s9-6,13-5,9.75,0,9.75,0,.25-3,11.25-2,20,5,23,2,11-5.75,11-5.75Z"/><line class="cls-5" x1="707.5" y1="798.5" x2="710.5" y2="828.5"/><polygon class="cls-1" points="532.63 657 532 657.46 532 657 532.63 657"/><polygon points="532.63 657 532 657 532 657.46 532.63 657 532.63 657"/><polygon class="cls-5" points="486.69 690.5 486.5 690.64 486.5 690.5 486.69 690.5"/><path class="cls-8" d="M432.23,919.46c-.87-1.27,0-3.16,1.34-3.86a6.23,6.23,0,0,1,4.52-.07,16.88,16.88,0,0,1,9.18,6.58,7.19,7.19,0,0,1,1.56,5.09c-.29,1.79-2.06,3.41-3.83,3"/><path class="cls-8" d="M322.05,948.34a2.82,2.82,0,0,1-2.28-1.66,5,5,0,0,1-.33-2.89c.46-3.31,2.84-6.08,5.58-8,2.11-1.46,4.81-2.54,7.19-1.61a2.86,2.86,0,0,1,.91.53c1,1,.69,2.68.27,4"/><ellipse class="cls-5" cx="314.5" cy="562.5" rx="26" ry="12"/></svg>