<?xml version="1.0" encoding="utf-8"?>
<!-- Generator: Adobe Illustrator 23.0.1, SVG Export Plug-In . SVG Version: 6.00 Build 0)  -->
<svg version="1.1" id="Layer_1" xmlns="http://www.w3.org/2000/svg" xmlns:xlink="http://www.w3.org/1999/xlink" x="0px" y="0px"
	 viewBox="0 0 238.7 238.7" style="enable-background:new 0 0 238.7 238.7;" xml:space="preserve">
<style type="text/css">
	.st0{fill:#C3CCF4;stroke:#000000;stroke-linejoin:round;}
	.st1{fill:none;stroke:#000000;stroke-linejoin:round;}
	.st2{stroke:#000000;stroke-linejoin:round;}
	.st3{fill:#C3CCF4;}
</style>
<title>spill</title>
<rect x="0.5" y="0.5" class="st0" width="237.7" height="237.7"/>
<g>
	<path class="st1" d="M0.5,169.7c10.7,7,24,9.8,36.6,11.7c18.4,2.8,34.9,10.4,54.1,10.7c2.5,0,5.6-0.3,6.8-2.5c-1.3,2.2,7,4,8,4.1
		c4.7,0.2,9.3,0.2,14,0c9.5-0.4,19.1-1.3,28.5-2.7c17.8-2.6,35.4-6.7,52.5-12.2c11.2-3.5,26.9-9.5,38-14"/>
	<path class="st1" d="M76.4,138.9c0.9-1.4,2.2-2.6,3.6-3.5c3.7-2.5,7.5-5.1,11.9-5.9c5-0.9,8.3,0.8,12.7,2.1
		c5.2,1.6,11.4,1.6,16.8,1.9c11.2,0.6,22.3,0.5,33.5-0.1c0.6-0.1,1.3,0,1.8,0.2c0.7,0.4,1.3,1.1,1.6,1.9c1.8,3.4,3.3,7.2,6.3,9.6
		c4.6,3.5,11.1,2.9,15-1.3"/>
	<path class="st1" d="M154.8,87.7c2.2-7.7,10.3-12.1,18-9.8c1.9,0.6,3.8,1.5,5.3,2.8"/>
	<path class="st1" d="M224.7,81.5c8,20,1.2,55.7-1,60"/>
	<path class="st1" d="M96.7,158.7c-3.3,12.7-2.2,26.1,3,38.1"/>
	<path class="st2" d="M97.9,189.7c0.8,0.8,9.5-6.5,9.8-12.1c0.2-3.8-0.2-6.5-3-9.1c-0.3-0.3-0.7,1.7-2.2,3c-0.8,0.7-1.8,1-2.8,1
		c-1.1,0-2.1-0.3-3-0.9c-0.4-0.2-0.8-0.6-1-1.1c-1-3,2-6,2-6c-0.3-0.1-1.7-1.1-2-1C95.7,163.5,93.5,185.3,97.9,189.7z"/>
	<path class="st1" d="M99.9,155.1c0.7-1.3,1.8-2.8,3.2-2.5s1.7,2.3,1.5,3.7s-0.6,3.1,0.4,4.2"/>
	<path class="st1" d="M113.8,164.6c0.6-0.3,1.3,0,1.7,0.5c0.3,0.6,0.5,1.2,0.6,1.8c0.6,4.9,0.5,9.9-0.3,14.8c-0.5,3-1.4,6.3-4,8.1
		c-0.2,0.1-0.3,0.2-0.3,0.4s0.3,0.3,0.3,0.1"/>
	<path class="st1" d="M102.7,142.8c1.6-0.6,3.4-0.8,5.1-0.5c1.7,0.4,3.1,2.2,2.6,3.8"/>
	<path class="st1" d="M88.1,159.2c-3.4,1.1-5.9,4.3-7.1,7.8s-1.1,11.5-0.3,15.6c1,5,2.6,6.7,5,9"/>
	<path class="st1" d="M205.3,105.5c1.1,4.3,0.6,8.9-1.3,12.9"/>
	<path class="st1" d="M174.5,87.7c-2.2-0.7-4.7,0.5-5.4,2.7c-0.2,0.8-0.3,1.6-0.1,2.4c0.7,3,4.1,4.2,6.8,5.8
		c7,4.4,9.1,13.7,4.7,20.7c-0.2,0.3-0.4,0.6-0.6,0.9c-3.1,4.2-10.6,11.1-3.5,16.1"/>
	<path class="st1" d="M158.9,135.7c1.5,7.4,4.5,14.6,9.8,20s13,8.6,20.5,7.4"/>
	<path class="st1" d="M106.9,77c-1.8-10-1.3-20.2-0.8-30.4c0.3-7.1,0.8-14.5,4.4-20.5"/>
	<path class="st2" d="M106.7,68.5c0.8,0.2,6-2.5,7.9-5c2.5-3.1,4.2-6.7,4.9-10.6c0.4-4.3-0.6-8.7-2.8-12.4c-0.4-0.6,1,6-5,5
		c-1.5-0.2-3.5-1.1-4-3c-1-4,2.5-7.6,2-8c-1.8-1.5,0-0.2-2-1.4C107.8,33.1,103.9,53.3,106.7,68.5z"/>
	<path class="st1" d="M109.6,83.2c0,1.9,0.8,3.7,2.1,5.1c0.2,0.3,0.5,0.5,0.9,0.5c0.4,0,0.8-0.1,1.1-0.3c2.7-1.5,3.6-5,3.8-8.1"/>
	<path class="st1" d="M120.7,68.8c3.1-1.6,5.7-4.1,7.3-7.2c1.6-3.1,2.9-6.3,3.9-9.6c0.9-2.4,1.4-4.8,1.6-7.4c0-1.2-0.2-2.4-0.4-3.5
		c-0.6-3.6-1.5-7.2-2.6-10.8"/>
	<path class="st1" d="M117.7,27.9c4.6,5.1,6.7,12,5.8,18.9"/>
	<path class="st1" d="M107.7,97.4c3.3,2.5,7.9,1.8,10.4-1.5c0.4-0.5,0.7-1,0.9-1.6"/>
	<path class="st1" d="M105.4,74c-5.4-0.8-10.7-2.5-15.6-5.1"/>
	<path class="st1" d="M93.6,78.3c-11.2-14.2-8.8-34.8,5.4-46c3.2-2.5,6.7-4.4,10.6-5.6"/>
	<path class="st1" d="M108.1,189c1.5-2.1,2.6-4.4,3.3-6.9"/>
	<path class="st1" d="M154.6,88.8c1-12.7,8.1-24,19-30.6c7.8-4.6,17.1-6.3,24.8-11.2"/>
	<path class="st2" d="M75.1,21.8c-6.1,14.5-9.3,30-9.5,45.7c0,4.6,1.1,8.6-0.2,13.3c-0.1,0.5-0.3,1-0.6,1.4
		c-0.4,0.5-0.9,0.9-1.5,1.2c-3.2,1.8-6.9,3.7-10.5,2.7c-2.8-0.8-4.9-3.2-6.7-5.7c-2.2-3.3-3.6-8.9-3.8-12.9c-0.2-4.8,1-9.5,2.2-14
		c0.5-1.8,1-3.6,2.4-4.8c0.9-0.5,1.8-1.1,2.6-1.8c0.6-0.8,1.1-1.7,1.3-2.7c3.8-11.9,9-24,18.8-31.4c0.9-0.8,2.1-1.3,3.3-1.4
		c2,0.1,3.5,2.3,3.6,4.4S75.9,19.8,75.1,21.8z"/>
	<path class="st2" d="M50.3,183.8c-2.1-5.4-0.1-11.6,2.4-16.9c0.9-1.9,2-3.8,3.9-4.6c0.7-0.2,1.4-0.5,2.1-0.8
		c0.8-0.6,1.4-1.3,1.9-2.1c0.9-1.2,2-2.3,3.2-3.2c0.9-0.7,2-1.2,3.1-1.3c1.2-0.2,2.3,0.3,3.1,1.2c0.7,1.1,0.5,2.6,0.2,3.8
		c-2,9.4-4.1,19.1-2.6,28.7"/>
	<path class="st2" d="M176.8,99.4c0,0-6-6.2-2.6-8.4s0.5-4.6-1.4-3.4S163.6,92,176.8,99.4z"/>
	<path class="st2" d="M177.6,123.9c0,0-7.9,9.1-2.3,12.5c1.2,0.6,2.7,0.2,3.3-1c0,0,0-0.1,0.1-0.1c1.1-2.3-2.3-1.1-2.3-4.5
		C176.5,128.4,176.9,126.1,177.6,123.9z"/>
	<path class="st3" d="M110.2,49L110.2,49c1.1,0,2,0.9,2,2l0,0c0,1.1-0.9,2-2,2l0,0c-1.1,0-2-0.9-2-2l0,0
		C108.2,49.9,109.1,49,110.2,49z"/>
	<path class="st3" d="M99.2,175L99.2,175c1.1,0,2,0.9,2,2l0,0c0,1.1-0.9,2-2,2l0,0c-1.1,0-2-0.9-2-2l0,0
		C97.2,175.9,98.1,175,99.2,175z"/>
	<path class="st1" d="M221.7,46.5c0,0-6-3-5,4s1,43-2,66c-3,22.8-1,36,0,43c1.6,0.6,3.4,0.6,5,0"/>
	<path class="st1" d="M209.7,37.5c0,0,4-6,12-3"/>
</g>
</svg>
