<?xml version="1.0" encoding="utf-8"?>
<!-- Generator: Adobe Illustrator 23.0.1, SVG Export Plug-In . SVG Version: 6.00 Build 0)  -->
<svg version="1.1" id="Layer_1" xmlns="http://www.w3.org/2000/svg" xmlns:xlink="http://www.w3.org/1999/xlink" x="0px" y="0px"
	 viewBox="0 0 238.7 238.7" style="enable-background:new 0 0 238.7 238.7;" xml:space="preserve">
<style type="text/css">
	.st0{clip-path:url(#SVGID_2_);}
	.st1{clip-path:url(#SVGID_4_);}
	.st2{fill:none;stroke:#000000;stroke-linejoin:round;}
	.st3{fill:#C3CCF4;stroke:#000000;stroke-linejoin:round;}
</style>
<title>spill</title>
<g>
	<defs>
		<polygon id="SVGID_1_" points="361.6,481.3 823.5,481.4 821.5,-242.5 361.6,-242.7 		"/>
	</defs>
	<clipPath id="SVGID_2_">
		<use xlink:href="#SVGID_1_"  style="overflow:visible;"/>
	</clipPath>
	<g class="st0">
		<g>
			<defs>
				<rect id="SVGID_3_" x="360.4" y="335.9" width="463.3" height="145.5"/>
			</defs>
			<clipPath id="SVGID_4_">
				<use xlink:href="#SVGID_3_"  style="overflow:visible;"/>
			</clipPath>
			<g class="st1">
				<path class="st2" d="M34.9,330.1c36.9-39.4,186.8-76.8,220.7-79.7c176-14.7,349.8-14.6,396.5-17.3c17-1,54.7-0.4,89.3,2.4
					c19.9,1.6,38.7,3.8,52,6.8c27.6,6.2,50.6,29.3,72.2,40.5c9.4,5.1,18.5,10.8,27.2,17c9.6,6.8,19.9,14.6,30,23
					c9.3,7.8,18.4,16,26.4,24c9.9,10,17.9,19.7,22,28.1c34.7,70.6,8,111.1-28,134.9c-25.5,16.8-55.6,25.2-72.2,30.4
					c-32.5,10.1-114.3,25.1-191.3,39.5c-40.2,7.5-79.2,14.8-109.1,20.9c-45.7,9.3-165.3,50.1-214.5-2.7
					c-24.8-26.5-47.2-41.4-81-60.5c-4.7-2.6-9.5-5.3-14.6-8.2c-34.9-19.5-112.1-47.5-154.3-56.8C7.7,450.8-14.2,382.3,34.9,330.1z"
					/>
				<path class="st2" d="M1001.7,376.1C985.9,343.3,916.5,291.6,886,276c-23.4-12-48.1-37.3-78-44.1c-39-9-124.1-11.8-152.6-10.2
					c-50.5,2.8-240.7,2.6-433.4,18.7c-36.8,3.1-201,44.1-241.1,87.3c-53.2,57.2-29.1,132.2,79.3,155.5
					c46.2,9.9,129.1,40.8,166.6,62.2c43.9,25.1,74.7,41.7,104.5,74.2c53.2,58.2,184.1,13.1,233.5,3c94.4-19.2,273.5-49.4,326.9-66.1
					C934.9,543,1065.6,508.6,1001.7,376.1z"/>
			</g>
		</g>
	</g>
</g>
<rect x="0.5" y="0.5" class="st3" width="237.7" height="237.7"/>
<g>
	<path class="st2" d="M238.2,46.8c-9.7-4.2-18.8-10.1-29.1-12.8c-14.2-3.7-28.9-0.6-42.2,4.7c-11.8,4.6-24.1,8.9-35.5,14.5
		c-2.7,1.5-5.6,2.6-8.6,3.2c-7.3,1.1-14.5-3.3-21.9-2.9c-1.7,0.1-3.6,0.6-4.4,2.2s-0.2,3.2,0.3,4.7c1.2,3.3,2.4,6.8,4.9,9.2
		c1.5,1.4,3.2,2.5,5.1,3.3c7.9,3.6,17.2,4.9,25.5,2.2s15.8-8.3,25.1-6.7c2,0.3,4.3,1.4,4.5,3.5c0,1.2-0.4,2.3-1.1,3.2
		c-12,19.6-26.2,29.5-49.1,34.7c-7,1.6-14.6,2.4-21.3-0.2s-12.2-9.7-10.9-16.8c0.6-3.3,2.5-6.3,2.4-9.6c-0.2-2.6-1.2-5.1-2.8-7.1
		c-2.2-3.1-5-5.9-8.7-6.7s-8.1,1.5-8.5,5.2s3.1,6.8,4.4,10.4c1.8,5.1-0.9,10.6-1.8,15.9c-2.4,13.6,9.8,27.7,23.5,27.5
		c8.4-0.1,15.6-4.8,23.7-6.1c10.6-1.6,5.3,6.6-0.7,9.8c-9.7,5.3-20.2,10.7-31.2,10c-6.4-0.4-12.6-2.8-18.3-5.7
		c-10.7-5.5-20.6-12.5-29.4-20.7c-4.5-4.2-12.8-16.5-17.3-3.5c-3.1,8.9,5.2,17.4,12.6,23.2l11.1,8.8c6.9,5.5,14,11,22.4,13.7
		c19.3,6.2,39.7-4.2,57.1-14.6c2.1-1.3,4.3-2.6,6.8-2.8s5.2,1.1,5.8,3.5c0.5,2.1-0.6,4.2-1.9,5.9c-8,10.6-21.2,15.8-33.9,19.6
		c-21.1,6.2-43,9.9-65,10.9c-6.1,0.3-14.1,2-14.6,8.1c-0.3,3.5,2.6,6.7,5.9,7.9s7,1,10.5,0.6c25.1-2.5,49.6-8.7,72.8-18.4
		c14.3-6,28.1-13.2,41.8-20.6c9.2-4.9-1.2,14.6-2.8,16.9c-8.5,12.6-18.1,26-32.6,30.6c-2.4,0.8-5,1.3-7.1,2.7s-3.8,3.9-3.2,6.4
		c0.8,3.5,5.1,4.7,8.7,4.7c12.7,0.2,25-5.9,34.5-14.4c8.6-7.6,13.5-17.7,21.2-25.9c5.6-6,15.3-10.1,22.6-13.6
		c16.6-7.8,35.2-12.2,50.6-22.4"/>
	<path class="st3" d="M75.7,69.8c1.2,1.3,2,2.9,3.1,4.2c1,1.2,2.2,2.2,3.2,3.4c1.1,1.2,1.5,2.8,1.3,4.4c-0.2,1.1-1,2-1.2,3.1
		c-0.3,1.6,0.4,3.6-0.6,4.9c-1.1,1.1-2.8,1.1-3.9,0.1c-1-1-1.5-2.4-1.5-3.9c0-1.2,0-2.3-0.1-3.4c-0.3-1.6-1.1-3-2.4-4
		c-1.5-1.3-2.9-2.7-4-4.4c-0.7-0.9-1.2-1.8-1.4-2.9c-0.1-0.6,0-1.2,0.3-1.7c0.2-0.3,0.5-0.5,0.8-0.6C71.7,67.6,73.7,67.7,75.7,69.8z
		"/>
	<path class="st3" d="M135.3,66.3c-2-0.8-4.2-0.9-6.3-0.3c-2,0.6-4,1.3-6,2.2c-4.5,1.7-9.5,2.1-13.5-0.7c-1.8-1.3-3.5-2.9-5.5-3.9
		c-1-0.6-2.2-0.8-3.3-0.7c-1.2,0.1-2.1,1-2.3,2.1c0,0.6,0.1,1.1,0.4,1.6c0.8,2.1,1.9,4.1,3.2,6c1.4,1.8,3,3.5,4.7,5
		c0.9,0.9,2,1.7,3.1,2.4c2.2,1.2,5.2,1.2,6.9,3c2.4,2.5,0.9,6.9,3.3,9.3c0.4,0.4,0.9,0.7,1.4,0.8c1.4,0.1,2.7-0.8,3-2.2
		c0.2-1.3,0.3-2.6,0.1-3.8c-0.1-1.3,0.4-2.6,1.5-3.4c0.5-0.3,1-0.5,1.5-0.6c1.7-0.7,3-2.1,3.5-3.8c0.1-0.9,0.4-1.8,0.8-2.6
		c1.4-2,4.5-1.8,5.6-4.2c1.1-2.1,0.3-4.7-1.9-5.8C135.6,66.4,135.4,66.4,135.3,66.3z"/>
</g>
<path class="st2" d="M62,73.7c3.7-0.3,6.9,2.5,7.1,6.2c0,0.6,0,1.2-0.1,1.8c-0.3,1.3-0.9,2.5-1.8,3.6"/>
<path class="st2" d="M14.7,114.1c0.8,0.1,1.6,0.4,2.3,0.7c2.3,1.2,3.7,3.7,4.7,6.1c1.3,3,1.7,6.3,1.3,9.5"/>
<path class="st2" d="M16.6,191.9l2.9-1.1c0.5-0.2,1-0.4,1.6-0.4c0.4,0,0.9,0,1.3,0.1l8.3,1.1c2.6,0.3,5.5,0.9,6.8,3.2"/>
<path class="st2" d="M105.7,217.6c0.3-1.7,1.4-3.1,3-3.7c1.6-0.5,3.3-0.7,4.9-0.4c2.9,0.4,6,1.5,7.7,3.9"/>
<path class="st2" d="M97.6,54.4c0.1,1.7,0.9,3.2,2.2,4.2c1.3,1,2.8,1.7,4.4,2.1c2.6,0.8,5.4,1.1,8.2,0.6c2.8-0.5,5.2-2.1,6.7-4.4"/>
<path class="st2" d="M122.1,117.3c1.1-1.5,1.4-3.5,0.8-5.3"/>
<path class="st2" d="M120.7,131.3c1.7-0.1,3.3,0.9,3.8,2.5"/>
<path class="st2" d="M136.9,148.9c2-0.5,4.1,0.3,5.3,2"/>
<path class="st2" d="M157.6,163.9c2.9-0.3,5.9,0.1,8.7,1.1"/>
<path class="st2" d="M129.7,123c8.4-1.1,17,0.3,24.6,4.1c1.7,1,3.5,1.8,5.3,2.3c2,0.3,4.1,0.5,6.2,0.5c5.7,0.4,11.1,3.1,15.6,6.6
	s8.2,8,12,12.3"/>
<path class="st2" d="M153.8,97.2c21.7,18,53.1,23.4,79.5,13.8"/>
<path class="st2" d="M164.7,94.1c10.7,1.5,21.5,1,31.9-1.7c8.7-2.2,17.1-5.9,23.6-12.1s10.7-15.1,9.9-24"/>
<path class="st2" d="M162.2,70.5c3.5,1.5,7.4,1.8,11.1,1"/>
<path class="st2" d="M52.8,138.1l2.3-3.7"/>
<path class="st2" d="M81.4,143.1c0.5,1.6,0.5,3.2,0.1,4.8"/>
<path class="st2" d="M80.1,98.4c-1,2.1-3,3.6-5.3,4"/>
<path class="st2" d="M93.2,110.7c0.8,1.8,0.4,3.8-1,5.2"/>
<path class="st2" d="M56.9,179.1c1.6,1,2.4,3,1.8,4.8"/>
<path class="st2" d="M93,172.4c0.7,0.3,1.2,0.8,1.6,1.4"/>
<path class="st2" d="M125.4,199.6c1.7-0.4,3.5,0,4.9,1"/>
<path class="st2" d="M142.2,181.4c1.2-0.4,2.6,0,3.3,1.1"/>
<path class="st2" d="M143.7,70c1.2-1.6,2-3.6,2.1-5.6"/>
<path class="st3" d="M204.7,164.1c5-8.7,20-13,15.8-24.3c-0.7-2.3-1.1-4.6-1-7c0.1-4.4,7.3-4.7,8-9c2-12,10-9,7-18
	c-2.1-6.3-11-14-22-6c-9.9,7.2-4.5,9.2-17,11c-7,1-10-12-21-9c-5.4,1.5-16-2-19,1c-5.4,5.4-14.8,6.4-10.9,12.5
	c4.9,7.5,18.8,4.8,27.9,8c2.8,0.9,5.4,2.2,7.8,3.9c7.6,6.1,7.7,17.4,7.1,27.1c-0.3,2.1-0.1,4.2,0.5,6.2c0.7,1.6,1.6,3.1,2.6,4.5
	c8,13-0.7,30.9,5.4,44.9c0.8,1.8,1.6,6,3.6,5.9c3.1-0.1,4.4-6.6,3.9-9.7C201.4,192,197.6,176.5,204.7,164.1z"/>
</svg>
