<?xml version="1.0" encoding="utf-8"?>
<!-- Generator: Adobe Illustrator 23.0.1, SVG Export Plug-In . SVG Version: 6.00 Build 0)  -->
<svg version="1.1" id="Layer_1" xmlns="http://www.w3.org/2000/svg" xmlns:xlink="http://www.w3.org/1999/xlink" x="0px" y="0px"
	 viewBox="0 0 465.7 725" style="enable-background:new 0 0 465.7 725;" xml:space="preserve">
<style type="text/css">
	.st0{fill:#C3CCF4;stroke:#000000;stroke-linejoin:round;}
	.st1{fill:none;stroke:#000000;stroke-linejoin:round;}
	.st2{stroke:#000000;stroke-linejoin:round;}
	.st3{fill:none;stroke:#000000;stroke-linecap:round;stroke-linejoin:round;}
</style>
<title>spill</title>
<path class="st0" d="M0.5,0.5l-1.1,724h465.8V0.5H0.5z M451.3,495.5H264.6V309.1h186.7V495.5z"/>
<line class="st1" x1="355.4" y1="552" x2="355.4" y2="606"/>
<line class="st1" x1="-0.6" y1="579" x2="464.8" y2="579"/>
<path class="st0" d="M342.4,527.5h26c6.6,0,12,5.4,12,12v5l-25,9l-25-9v-5C330.4,532.8,335.8,527.5,342.4,527.5z"/>
<path class="st2" d="M350.5,462.1c-4.6-3.6-9.6-6.8-14.7-9.6c-6.3-3.4-13.5-6.1-20.5-4.5c-4.7,1.1-8.8,4-13.1,6.1
	c-9.1,4.6-18.4,4-27.8,1.1c-5.1-1.6-11.8-1.9-14.7,2.6c-4.7,7.5-2.6,18,4.5,22.4c2.4,1.5,5.1,2.8,7.9,2.7s5.7-1.7,8.2-3.3
	c2.1-1.3,4.3-2.7,5.5-4.9c1-1.8,1.2-4,2.2-5.9c2-3.6,5.5-3.6,9-4.2c3.8-0.7,7.9-1,11,1.3c4.9,3.5,4.4,10.9,3,16.9
	c-1.5,6.5-3.2,13.1-7.2,18.5c-5.9,8-15.7,12.1-22.2,19.5c-0.5,0.5-0.9,1.2-0.9,1.9c0.2,1.1,1.2,1.9,2.3,1.8c1.1-0.1,2.1-0.5,3-1.2
	c6.8-4.2,13.7-8.4,19.6-13.8s10.8-12.1,12.8-19.9c1.7-6.5,5.5-2.6,5.9,2.1c0.5,6.2-1.8,13.8-4.9,19c-5.5,9.1-15.4,14.4-22.9,21.9
	c-1.8,1.7-0.8,2.7,1.1,2.8c2.1,0.2,4.8-1.2,6.6-2.1c9.5-4.7,17-12.5,22.5-21.4c2.8-4.5,5.1-9.3,6.9-14.3c1-2.3,1.4-4.8,1.3-7.3
	c0-0.7-0.4-8.9,0-8.8c8.6,2.9,15.2,19.1,18.5,26.8c0.9,2.1,1.8,4.3,1.3,6.5c-0.5,2.5-2.7,4.2-4.8,5.6c-6.4,4.3-14.2,4.4-20.7,7.9
	c-5.7,3.1-9.1,9.8-11.1,15.7c-2.3,6.7-3.5,13.8-3.6,20.9c-0.1,6.5,0.6,13.3-1,19.7c-1.2,4.7-2.5,9.3-6.1,12.5c-1,0.9-2.9,2.1-4,3
	c-6.8,5.7,1.6,6.7,5.7,5.8c3.2-0.7,5.7-3.2,7.3-6c5-8.7,5.2-19.2,6.5-29.1c0.9-6.9,2.4-13.8,4.5-20.5c2.2-7,4.8-13,13.2-13.6
	c-3.9,4.3-4,10.8-3.9,16.6c0.2,11.7,0,23.4-0.5,35.1c0.1,2.3-0.4,4.7-1.3,6.8c-1.4,2.8-10.3,4.8-8.4,7.8c3,5,12.7,0.4,15-2.4
	c1.2-1.5,2.1-3.2,2.7-5c2.5-6.7,2.8-15,3.3-22c0.6-7.8,0.5-15.8,2.2-23.5c0.8-3.9,2.3-7.9,5.6-10.2c4-2.7,9.4-2,13.8-4
	s7.3-6.4,8.4-11s0.8-9.5,0.2-14.3c-1.6-12.7-5.2-23.5-12.5-34C360.9,471.4,356,466.4,350.5,462.1z"/>
<line class="st1" x1="380.4" y1="544.5" x2="380.4" y2="598.5"/>
<line class="st1" x1="330.4" y1="545" x2="330.4" y2="599"/>
<path class="st0" d="M285.6,552.1l-107.9,7.3c-0.4,0-0.9,0-1.3-0.2l-78.9-24.6c-1.8-0.6-2.8-2.6-2.2-4.4c0.4-1.3,1.6-2.2,3-2.3
	l107.9-7.3c0.4,0,0.9,0,1.3,0.2l78.9,24.6c1.8,0.6,2.8,2.6,2.2,4.4C288.1,551.1,286.9,552,285.6,552.1z"/>
<line class="st1" x1="176.4" y1="559.5" x2="176.4" y2="631.5"/>
<line class="st1" x1="95.4" y1="533" x2="95.4" y2="605"/>
<line class="st3" x1="215.7" y1="543" x2="227" y2="537.2"/>
<ellipse transform="matrix(0.9232 -0.3843 0.3843 0.9232 -188.0255 129.9873)" class="st3" cx="231.2" cy="535.5" rx="4.5" ry="1.8"/>
<path class="st3" d="M228.7,536.6c1.8-0.2,3.6-0.9,5-2.1"/>
<line class="st1" x1="288.5" y1="550" x2="288.5" y2="621"/>
<line class="st1" x1="205.4" y1="558" x2="205.4" y2="597"/>
<path class="st1" d="M256.2,538.2c-4.6-0.3-9.3-0.2-13.8,0.5c-1.9,0.1-3.7,0.5-5.5,1.1c-0.9,0.4-1.9,1.2-1.6,2.2
	c0.2,0.5,0.6,0.8,0.6,1.3s-0.5,0.7-0.8,0.8c-1.5,0.4-3.1,0.7-4.7,0.8c-1.6,0.2-5.5,1.1-5.5,2.1s2.1,1.5,2.5,1.5
	c2.1,0.3,1.4,1.2,3.5,1.5c2.3,0.3,7.5-0.1,9.6-0.9c1.4-0.5,2.5-1.5,3.9-1.9c1.5-0.3,3.1-0.2,4.5,0.2c6.1,1.1,12.4,1.2,18.5,0.4
	c0.9-0.1,1.7-0.3,2.5-0.8c1.6-1.1,1-3.2-0.6-3.9"/>
<path class="st0" d="M271.4,542.5c-3,3-11.2,3.1-15.2,2.6c-1-0.1-10.9-3.1-9.8-13.6c0.5-5.4,2.1-10.7,6-13c4.5-2.6,13.8-1.1,18,5
	C274.7,529.8,275.2,538.6,271.4,542.5z"/>
<ellipse transform="matrix(0.8486 -0.5291 0.5291 0.8486 -248.9202 214.0792)" class="st0" cx="249.5" cy="541.9" rx="4.5" ry="6"/>
<ellipse transform="matrix(0.8486 -0.5291 0.5291 0.8486 -248.2381 214.4622)" class="st1" cx="250.5" cy="540.9" rx="4.5" ry="6"/>
<path class="st1" d="M296.2,601.3c0.3-1-0.5-2.1-1.6-2.8c-1.2-0.8-2.6-1.2-4-1.4c-7.2-0.7-8.2,0.4-14.2,0.3c-2.4,0-6-1-15,0
	c-4.1,0.5-10,2-14.9,1.9c-2.9,0-8.8,1.1-9.1,4.1c0,0.3,1,5,19,1.8c3.7-0.6,7.6-0.2,11.1,1.1c2,0.7,4,2.2,2.8,3.8
	c-0.9,1.4-3.5,1.8-3.3,3.6c0.2,1.3,2,2.3,3.9,2.7c3,0.7,6.2,0.5,9.1-0.4c1.3-0.6,2.6-1,4-1.2c1.2-0.1,2.4,0,3.6,0.1
	c3.2,0.3,6.4-0.1,9.4-1.1c1.4-0.5,2.8-1.3,2.9-2.5s-1.1-2.1-2.5-2.6s-3-0.7-4.4-1.2c-0.7-0.3-1.5-0.7-1.7-1.2s0.3-1.2,0.8-1.6
	C292.5,604.5,295.9,602.4,296.2,601.3z"/>
<path class="st1" d="M311.5,617.8c-1.5,1.8-3.6,3.1-5.9,3.7c-7.2,2.1-14.8-0.8-22.1,0.5c-10,1.9-27.5,6.5-37.6,3.3
	c-13.4-4.3,10.6-8.4-3.1-12.5c-6.1-1.8-32.3,2.4-34.2-3.3c-0.9-2.6-0.5-9.2,8.5-12c14.4-4.6,29.3-4.5,44-6.5
	c6.2-0.8,11.2-1.6,17.4-1c8.4,0.7,18.7-2.3,25.3,4.6c1,1,1.7,2.5,1.1,3.7c-0.7,1.5-2.8,1.8-3.6,3.2s0,3.1,1.2,4
	c1.3,0.8,2.7,1.4,4.2,1.8C313.4,609.6,314.3,614.3,311.5,617.8z"/>
<path class="st1" d="M289,578.9c4.9,0.4,10,0.3,14.4,0.6c7.6,0.5,14.9,3.4,20.8,8.2c1.6,1.3,3.3,3.2,3.7,5s-0.5,3.1-0.2,5.2
	s1.9,4.4,3.8,6c2.1,1.8,4.4,3,6,4.4c9.9,8.4,7.6,17.4,1.4,22.9c-3.6,3.2-8.5,5.2-12.5,6.4c-9.7,2.9-24.8,1.8-39,4.4
	c-7.1,1.3-14.9,3-22.1,4.3c-12.5,2.4-32.7,6.8-44.1,0.5c-14-7.7,4.7-11.3-10.9-17.3c-1.4-0.5-2.8-0.9-4.3-1.2
	c-11.7-2.4-37.6-2.8-43.4-8.2c-10.7-4.4-12.3-17,0.5-25c8.6-5.3,28.4-10.2,36.7-11.1c25.9-2.8,53.8-3.6,66.7-5"/>
<path class="st1" d="M341.2,578.6c1.1,0.8,2.2,1.5,3.3,2.3c2.5,1.7,4.7,3.9,6.3,6.4c1.5,2.5,1.7,4.4,3.1,7.2c1.6,3,3.7,5.7,6.3,8
	c3,2.7,5.9,4.8,7.8,7c13,15.2,7.7,27.9-1.9,35.3c-6,4.7-13.8,7.4-19.2,9c-12.2,3.7-34.7,4.3-55.9,8.3c-10.8,2-22.1,4.3-31.7,6.2
	c-16.2,3.2-47,11-63,0.2c-14.9-10.1-1.1-14.6-18.7-22.1c-1.8-0.8-3.6-1.4-5.4-2c-14.3-4.3-45.3-9-55.7-13.6
	c-19.6-8.6-24.3-25-7.5-38c6.9-5.3,21.6-10.5,34.7-14.1"/>
<path class="st1" d="M371.2,579c0.9,0.9,1.8,1.8,2.7,2.8c2.5,3,4,5.7,6.5,9.2c2.6,3.6,5.5,7,8.8,10c3.9,3.6,7.4,6.7,9.6,9.7
	c15.9,22.1,7.7,38.3-5.1,47.8c-8.5,6.2-19,9.6-25.8,11.7c-14.8,4.5-44.7,6.9-72.8,12.2c-14.5,2.7-29.2,5.6-41.4,8
	c-19.9,4-61.4,15.6-82-0.2c-15.9-12.2-6.9-17.8-26.5-26.9c-2-0.9-4.2-1.9-6.6-2.8c-16.9-6.2-53.7-13.8-68-19
	C41,630.8,34.1,608.2,55,590.3c4.6-4,12.4-7.8,21.4-11.4"/>
<path class="st1" d="M0,589.4c3.3-3,8.9-7.5,14.6-10.4"/>
<path class="st1" d="M401.3,579c3.6,4.2,12.6,16.6,16.5,20.4c4.7,4.5,9,8.6,11.4,12.3c18.7,29,7.8,48.7-8.4,60.2
	c-10.9,7.7-24.2,11.9-32.4,14.4c-17.3,5.3-54.6,9.5-89.8,16.1c-18.1,3.4-36.3,6.9-51.1,9.8c-23.6,4.7-75.9,20.3-100.9-0.6
	c-17.1-14.2-12.7-21.2-34.2-31.6c-2.3-1.1-4.9-2.4-7.7-3.5c-19.4-8.1-62.1-18.7-80.4-24.5c-9.1-2.9-19.1-8.2-24.9-12.6"/>
<path class="st1" d="M112.8,724.5c-10.2-10.9-14.1-18.1-33-27.7c-2.7-1.4-5.7-2.9-8.9-4.3c-15.9-7.2-47.4-17-71-23.8"/>
<path class="st1" d="M464.9,668.1c-4.1,7-10.1,12.7-16.7,17.3c-13.3,9.3-29.5,14.1-39,17.1c-19.9,6.1-64.6,12.1-106.7,20
	c-3.6,0.7-7.2,1.3-10.7,2"/>
<path class="st1" d="M428.3,579c1.5,1.5,3,3.1,4.6,4.8c4.3,4.6,9.2,9.6,13.8,14c5.6,5.5,10.5,10.4,13.1,15c2,3.3,3.7,6.5,5.1,9.6"/>
<path class="st1" d="M65.1,724.5c-4.8-3.6-10.5-7.1-17.9-11c-3.1-1.6-6.5-3.3-10-5.1c-8.8-4.2-24.1-9.1-37.8-13.8"/>
<path class="st1" d="M465.3,704.9c-13.1,6.9-26.8,11-35.5,13.7c-6.2,1.9-14.6,3.9-24.6,5.9"/>
<path class="st1" d="M458,579c0.4,0.4,0.8,0.8,1.2,1.2c2,2,3.3,3.2,5.4,5.3"/>
<ellipse class="st1" cx="227.8" cy="604.8" rx="3.8" ry="2"/>
<path class="st1" d="M41.7,457h189.6c1.9,0,3.4,1.5,3.4,3.5v2.6c0,1.9-1.5,3.5-3.4,3.5H41.7c-1.9,0-3.5-1.5-3.5-3.5v-2.6
	C38.2,458.5,39.8,457,41.7,457z"/>
<path class="st1" d="M41.7,401.6h189.6c1.9,0,3.4,1.5,3.4,3.5v2.6c0,1.9-1.5,3.5-3.4,3.5H41.7c-1.9,0-3.5-1.5-3.5-3.5v-2.6
	C38.2,403.2,39.8,401.6,41.7,401.6z"/>
<path class="st1" d="M194.1,377.2h24l0,0v17.6c0,3.5-2.9,6.4-6.4,6.4h0h-10.9c-3.7,0-6.6-3-6.6-6.6l0,0V377.2L194.1,377.2z"/>
<path class="st1" d="M199.8,377.2c0,0-7.5-1.1-9.6-4.4s12.8,4.4,12.8,4.4H199.8z"/>
<path class="st1" d="M206.7,377.2c0,0-6.1-11.7-8.1-9.6s4.5,9.6,4.5,9.6H206.7z"/>
<path class="st1" d="M206.7,377.2c0,0,2.6-12.4,6.7-8.9s-4.3,8.9-4.3,8.9H206.7z"/>
<path class="st1" d="M209,377.2c0,0,13-8.8,13-6.5s-7.7,6.5-7.7,6.5H209z"/>
<path class="st1" d="M204.4,373.2c0,0-4.3-9-0.9-9.8s4.6,9.2,4.6,9.2"/>
<path class="st1" d="M196.7,374.1c0,0-8.1-7.5-5.3-8.1s7.4,5,7.4,5"/>
<path class="st1" d="M213.4,368.3c0,0,1.2-5.4,5-4.6s-2.4,9.1-2.4,9.1"/>
<path class="st1" d="M207.2,368.5c0,0,1-6.3,3.9-5.2s1,4.3,1,4.3"/>
<path class="st1" d="M197.4,369.3c0,0-3.8-5.4-0.3-5.9s5.4,4.2,5.4,4.2"/>
<rect x="120.1" y="360.6" class="st1" width="15.3" height="40.7"/>
<rect x="135.6" y="368.1" class="st1" width="17.1" height="33.2"/>
<rect x="152.9" y="361.9" class="st1" width="9.1" height="39.6"/>
<rect x="161.9" y="367.1" class="st1" width="6.4" height="34.4"/>
<rect x="139" y="422.7" class="st1" width="21.9" height="29.2"/>
<path class="st0" d="M140.6,451.1l1.3,2.2c0.7,1.2,0.3,2.7-0.9,3.4l0,0c-1.2,0.7-2.7,0.3-3.4-0.9l-1.3-2.2c-0.7-1.2-0.3-2.7,0.9-3.4
	h0C138.3,449.5,139.9,449.9,140.6,451.1z"/>
<path class="st0" d="M158.2,452.7l1.6-1.9c0.9-1.1,2.5-1.2,3.5-0.3h0c1.1,0.9,1.2,2.5,0.3,3.5l-1.6,1.9c-0.9,1.1-2.5,1.2-3.5,0.3
	l0,0C157.5,455.4,157.3,453.8,158.2,452.7z"/>
<path class="st1" d="M152.6,422.7h-5.6v-2.2c0-1.5,1.2-2.7,2.7-2.7h0.1c1.5,0,2.8,1.2,2.8,2.8L152.6,422.7z"/>
<line class="st1" x1="142.1" y1="454.2" x2="157.7" y2="454.2"/>
<rect x="175.5" y="426.1" class="st1" width="11" height="30.7"/>
<rect x="186.4" y="420.9" class="st1" width="8.6" height="35.9"/>
<rect x="195.1" y="424.7" class="st1" width="5.8" height="32.1"/>
<rect x="200.9" y="424.7" class="st1" width="5.8" height="32.1"/>
<rect x="206.9" y="430.4" class="st1" width="9.1" height="26.4"/>
<path class="st1" d="M220.2,445.9h1.2c2.4,0,4.4,2,4.4,4.4l0,0v4.5c0,1.1-0.9,2-2,2h-3.6c-2.4,0-4.3-1.9-4.3-4.3v-2.2
	C215.9,447.8,217.9,445.9,220.2,445.9z"/>
<rect x="105.6" y="437.6" class="st1" width="19.3" height="19.3"/>
<polygon class="st1" points="110.2,437.6 107.8,437.6 105,422.5 107.2,421.7 "/>
<polygon class="st0" points="107.8,417.7 110.4,417.2 112.8,437.6 110.2,437.6 "/>
<polygon class="st0" points="111.8,437.6 114.9,417.7 117.5,418.4 114.4,437.6 "/>
<polygon class="st0" points="119.5,437.6 122.2,421 124.7,417.7 125.8,421.6 123.4,437.6 "/>
<polygon class="st0" points="121.4,416.7 118.6,416.5 117.3,437.6 119.9,437.6 "/>
<line class="st1" x1="118.3" y1="420.4" x2="121.2" y2="420.5"/>
<polygon class="st0" points="117.3,437.6 111.7,422.8 112,419.9 114.3,421.5 120.4,437.6 "/>
<line class="st1" x1="105.6" y1="425.1" x2="107.7" y2="424.6"/>
</svg>
