<svg id="Layer_1" data-name="Layer 1" xmlns="http://www.w3.org/2000/svg" xmlns:xlink="http://www.w3.org/1999/xlink" viewBox="0 0 238.7 238.7"><defs><style>.cls-1,.cls-2,.cls-5{fill:none;}.cls-1,.cls-5,.cls-6{stroke:#000;}.cls-1{stroke-miterlimit:10;}.cls-3{clip-path:url(#clip-path);}.cls-4{clip-path:url(#clip-path-2);}.cls-5,.cls-6{stroke-linejoin:round;}.cls-6{fill:#c3ccf4;}.cls-7{clip-path:url(#clip-path-3);}</style><clipPath id="clip-path"><polygon class="cls-1" points="361.56 481.34 823.54 481.35 821.47 -242.51 361.56 -242.66 361.56 481.34"/></clipPath><clipPath id="clip-path-2"><rect class="cls-2" x="360.37" y="335.88" width="463.32" height="145.48"/></clipPath><clipPath id="clip-path-3"><rect class="cls-2" x="0.5" y="0.5" width="237.7" height="237.7" transform="translate(0 238.7) rotate(-90)"/></clipPath></defs><title>spill</title><g class="cls-3"><g class="cls-4"><path class="cls-5" d="M34.94,330.09c36.94-39.36,186.75-76.81,220.66-79.66,176-14.71,349.77-14.58,396.53-17.27,17-1,54.66-.37,89.26,2.4,19.88,1.59,38.74,3.79,52,6.76C821,248.53,844,271.6,865.62,282.84a253.39,253.39,0,0,1,27.15,17c9.63,6.8,19.92,14.64,30,23,9.31,7.8,18.44,16,26.37,24,9.92,10,17.92,19.74,22,28.14,34.73,70.63,8,111.09-28,134.88-25.47,16.78-55.63,25.25-72.17,30.41-32.52,10.13-114.34,25.12-191.26,39.49-40.21,7.52-79.16,14.78-109.06,20.86-45.7,9.28-165.26,50.1-214.54-2.66-24.77-26.51-47.23-41.43-81-60.49-4.67-2.63-9.51-5.35-14.57-8.18-34.9-19.48-112.07-47.46-154.3-56.8C7.72,450.78-14.21,382.33,34.94,330.09Z"/><path class="cls-5" d="M1001.73,376.11C985.92,343.28,916.5,291.59,886,276,862.64,264,837.86,238.7,808,231.86c-39-9-124.1-11.79-152.64-10.19-50.51,2.84-240.72,2.65-433.4,18.7-36.76,3.06-201,44.15-241.11,87.28-53.17,57.18-29.09,132.21,79.26,155.5,46.25,9.94,129.15,40.81,166.63,62.2,43.94,25.08,74.72,41.66,104.49,74.23,53.17,58.19,184.09,13.06,233.49,3,94.41-19.2,273.51-49.42,326.9-66.08C934.9,543,1065.56,508.63,1001.73,376.11Z"/></g></g><polygon class="cls-1" points="361.56 481.34 823.54 481.35 821.47 -242.51 361.56 -242.66 361.56 481.34"/><rect class="cls-6" x="0.5" y="0.5" width="237.7" height="237.7" transform="translate(0 238.7) rotate(-90)"/><g class="cls-7"><path class="cls-5" d="M251.65,51C236.53,48.62,224,37.88,209.14,34.06c-14.19-3.67-28.88-.56-42.25,4.66-11.81,4.61-24.14,8.94-35.46,14.47a29.9,29.9,0,0,1-8.63,3.16c-7.32,1.07-14.48-3.33-21.86-2.88-1.71.1-3.63.63-4.43,2.15s-.25,3.15.28,4.67c1.15,3.33,2.41,6.77,4.93,9.22a17.93,17.93,0,0,0,5.11,3.28c7.87,3.63,17.22,4.86,25.47,2.17s15.82-8.3,25.13-6.67c2,.35,4.31,1.45,4.51,3.48A5.38,5.38,0,0,1,160.85,75c-12,19.58-26.2,29.49-49.08,34.65-7,1.58-14.58,2.4-21.29-.24S78.33,99.74,79.6,92.65c.58-3.27,2.49-6.31,2.39-9.62a13.48,13.48,0,0,0-2.85-7.09c-2.15-3.06-5-5.93-8.68-6.68s-8.09,1.47-8.53,5.18S65,81.26,66.3,84.87c1.84,5.09-.92,10.56-1.85,15.9C62.1,114.33,74.22,128.49,88,128.24c8.38-.14,15.61-4.83,23.74-6.08,10.64-1.64,5.3,6.56-.67,9.82-9.73,5.3-20.16,10.68-31.23,10-6.42-.39-12.55-2.8-18.27-5.74a130.65,130.65,0,0,1-29.4-20.71C27.71,111.36,19.4,99,14.89,112c-3.07,8.89,5.17,17.35,12.56,23.18L38.6,144c6.92,5.46,14,11,22.44,13.71,19.31,6.16,39.66-4.21,57.07-14.57,2.12-1.26,4.33-2.56,6.79-2.75s5.21,1.12,5.83,3.51c.53,2.07-.65,4.17-1.94,5.87-8,10.6-21.15,15.8-33.89,19.55a272.68,272.68,0,0,1-65,10.85c-6.12.27-14.15,2-14.64,8.11-.28,3.53,2.57,6.7,5.88,7.95s7,1,10.51.63a255.89,255.89,0,0,0,72.85-18.36c14.35-6,28.12-13.24,41.82-20.59,9.21-4.93-1.17,14.57-2.75,16.91-8.51,12.57-18.08,26-32.55,30.59-2.42.77-5,1.29-7.11,2.66s-3.81,3.89-3.25,6.36c.79,3.48,5.13,4.68,8.69,4.73,12.74.17,25-5.91,34.49-14.35,8.6-7.62,13.5-17.66,21.16-25.85,5.57-6,15.3-10.14,22.62-13.56,19-8.87,40.51-13.43,57-27.11A65.06,65.06,0,0,0,267,98.7"/><path class="cls-6" d="M75.65,69.79c1.18,1.29,2,2.87,3.12,4.22,1,1.2,2.24,2.21,3.21,3.44a5.46,5.46,0,0,1,1.31,4.37c-.25,1.1-1,2-1.23,3.14-.34,1.63.44,3.57-.6,4.87a2.77,2.77,0,0,1-3.86.06A5.45,5.45,0,0,1,76.08,86,27.85,27.85,0,0,0,76,82.55a6.18,6.18,0,0,0-2.44-4,21.12,21.12,0,0,1-4-4.36,7.81,7.81,0,0,1-1.45-2.91,2.14,2.14,0,0,1,.28-1.7,2.65,2.65,0,0,1,.85-.63C71.71,67.6,73.71,67.67,75.65,69.79Z"/><path class="cls-6" d="M135.33,66.34a9.38,9.38,0,0,0-6.26-.28,63.52,63.52,0,0,0-6,2.17c-4.52,1.65-9.49,2.11-13.52-.74-1.84-1.3-3.46-2.88-5.49-3.9a5.7,5.7,0,0,0-3.32-.71A2.59,2.59,0,0,0,98.45,65a3.58,3.58,0,0,0,.4,1.64,29.81,29.81,0,0,0,3.22,6,36.55,36.55,0,0,0,4.72,5A13.88,13.88,0,0,0,109.91,80c2.24,1.15,5.19,1.22,6.87,3,2.37,2.5.86,6.87,3.33,9.27a2.81,2.81,0,0,0,1.44.79,2.88,2.88,0,0,0,3-2.19,13.76,13.76,0,0,0,.12-3.85,3.93,3.93,0,0,1,1.5-3.45,10.08,10.08,0,0,1,1.46-.64,6.07,6.07,0,0,0,3.51-3.78,8.82,8.82,0,0,1,.81-2.58c1.38-2,4.49-1.85,5.59-4.24A4.33,4.33,0,0,0,135.33,66.34Z"/></g><path class="cls-5" d="M62,73.7a6.66,6.66,0,0,1,7,8,8.79,8.79,0,0,1-1.8,3.58"/><path class="cls-5" d="M14.72,114.09a6.84,6.84,0,0,1,2.29.74c2.32,1.23,3.72,3.68,4.68,6.13a17.74,17.74,0,0,1,1.3,9.49"/><path class="cls-5" d="M16.65,191.93l2.86-1.11a6.16,6.16,0,0,1,1.56-.44,6,6,0,0,1,1.34.07l8.3,1.06c2.58.33,5.54.9,6.83,3.16"/><path class="cls-5" d="M105.74,217.55a4.65,4.65,0,0,1,3-3.68,9.94,9.94,0,0,1,4.94-.38c2.94.38,6,1.46,7.73,3.87"/><path class="cls-5" d="M97.59,54.41a5.64,5.64,0,0,0,2.2,4.21,12.27,12.27,0,0,0,4.41,2.08,17.68,17.68,0,0,0,8.16.62,9.88,9.88,0,0,0,6.69-4.4"/><path class="cls-5" d="M122.1,117.32a6.1,6.1,0,0,0,.85-5.27"/><path class="cls-5" d="M120.74,131.32a3.61,3.61,0,0,1,3.76,2.53"/><path class="cls-5" d="M136.93,148.9a4.8,4.8,0,0,1,5.26,2"/><path class="cls-5" d="M157.57,163.86a19.62,19.62,0,0,1,8.69,1.12"/><path class="cls-5" d="M129.73,123a42.15,42.15,0,0,1,24.57,4.13,26,26,0,0,0,5.33,2.34,34.35,34.35,0,0,0,6.18.47c5.72.38,11.1,3.05,15.61,6.59s8.25,8,12,12.32"/><path class="cls-5" d="M153.77,97.22c21.66,18,53.07,23.44,79.53,13.79"/><path class="cls-5" d="M164.74,94.1a82.25,82.25,0,0,0,31.94-1.67c8.67-2.19,17.14-5.92,23.59-12.1s10.66-15.08,9.85-24"/><path class="cls-5" d="M162.23,70.48a18.6,18.6,0,0,0,11.15,1"/><path class="cls-5" d="M52.78,138.15l2.29-3.68"/><path class="cls-5" d="M81.39,143.05a8.43,8.43,0,0,1,.07,4.8"/><path class="cls-5" d="M80.12,98.43a7.18,7.18,0,0,1-5.34,4"/><path class="cls-5" d="M93.25,110.72a4.47,4.47,0,0,1-1,5.15"/><path class="cls-5" d="M56.91,179.15a4.16,4.16,0,0,1,1.81,4.78"/><path class="cls-5" d="M93,172.44a3.11,3.11,0,0,1,1.55,1.44"/><path class="cls-5" d="M125.4,199.62a6,6,0,0,1,4.87,1"/><path class="cls-5" d="M142.16,181.4a3,3,0,0,1,3.33,1.06"/><path class="cls-5" d="M143.69,70a10.55,10.55,0,0,0,2.15-5.63"/><path class="cls-6" d="M204.66,164.11c5-8.69,20-13,15.84-24.28a21.19,21.19,0,0,1-1-7c.06-4.36,7.28-4.69,8-9,2-12,10-9,7-18-2.11-6.31-11-14-22-6-9.94,7.23-4.48,9.21-17,11-7,1-10-12-21-9-5.4,1.48-16-2-19,1-5.39,5.39-14.83,6.39-10.86,12.51,4.86,7.49,18.76,4.82,27.9,8a26.15,26.15,0,0,1,7.81,3.91c7.6,6.08,7.67,17.4,7.11,27.11a15.45,15.45,0,0,0,.48,6.18,25.2,25.2,0,0,0,2.6,4.46c8,13-.7,30.87,5.37,44.89.8,1.84,1.58,6,3.59,5.94,3.1-.11,4.38-6.63,3.95-9.69C201.43,192,197.58,176.54,204.66,164.11Z"/></svg>