<svg id="Layer_1" data-name="Layer 1" xmlns="http://www.w3.org/2000/svg" xmlns:xlink="http://www.w3.org/1999/xlink" viewBox="0 0 238.7 238.7"><defs><style>.cls-1,.cls-4{fill:none;}.cls-2,.cls-6{fill:#c3ccf4;}.cls-2,.cls-4,.cls-5{stroke:#000;stroke-linejoin:round;}.cls-3{clip-path:url(#clip-path);}</style><clipPath id="clip-path"><rect class="cls-1" x="0.5" y="0.5" width="237.7" height="237.7" transform="translate(0 238.7) rotate(-90)"/></clipPath></defs><title>spill</title><rect class="cls-2" x="0.5" y="0.5" width="237.7" height="237.7" transform="translate(0 238.7) rotate(-90)"/><g class="cls-3"><path class="cls-4" d="M-29.15,11.49c-7.69,18.23-15.57,37.8-12.71,57.59,1.7,11.77,8.35,21.73,9.73,33.42,1.62,13.69,6.31,26.86,11.82,39.49,3.28,7.54,7.1,15,12.77,21C4,175.11,21.09,179,37.07,181.37c18.4,2.77,34.93,10.43,54.14,10.71,2.54,0,5.55-.27,6.82-2.48-1.28,2.24,7,4,8,4.1a140.09,140.09,0,0,0,14,0A259.16,259.16,0,0,0,148.55,191a333.66,333.66,0,0,0,52.51-12.17c11.16-3.52,22.21-7.58,33.29-12.11,4.66-1.91,9.39-3.86,13.26-7.06,5.36-4.44,8.62-10.91,11.07-17.42,3.49-9.27,3.72-18.16,5.66-27.54,1.87-9,10.69-13.67,13.79-22.19,5.82-16-4.51-35.57-11.12-49.79-5.85-12.61-12.31-25-20.84-35.7C229.6-13.71,206-26.78,181.38-33.54s-50.2-7.65-75.55-7.23c-39,.65-79.48,4.83-113,26.34C-16.54-8.41-26,.3-26.89,12"/><path class="cls-4" d="M76.39,138.87A11,11,0,0,1,80,135.41c3.67-2.53,7.49-5.12,11.88-5.89,5-.89,8.28.75,12.74,2.13,5.16,1.6,11.41,1.58,16.78,1.91a304.19,304.19,0,0,0,33.49-.15,3.94,3.94,0,0,1,1.84.2,3.83,3.83,0,0,1,1.61,1.88c1.78,3.41,3.27,7.17,6.27,9.57a11.29,11.29,0,0,0,15-1.27"/><path class="cls-4" d="M154.79,87.69a14.49,14.49,0,0,1,23.27-7"/><path class="cls-4" d="M224.7,81.5c8,20,1.24,55.7-1,60"/><path class="cls-4" d="M96.74,158.69a59,59,0,0,0,3,38.15"/><path class="cls-5" d="M97.87,189.67c.83.83,9.54-6.52,9.81-12.06.19-3.82-.21-6.49-3-9.11-.35-.33-.7,1.71-2.2,3a4.17,4.17,0,0,1-2.8,1,5.45,5.45,0,0,1-3-.9,2.29,2.29,0,0,1-1-1.1c-1-3,2-6,2-6-.33-.12-1.67-1.1-2-1C95.7,163.5,93.51,185.31,97.87,189.67Z"/><path class="cls-4" d="M99.89,155.11c.68-1.31,1.81-2.84,3.24-2.47s1.69,2.28,1.46,3.73-.6,3.15.42,4.21"/><path class="cls-4" d="M113.78,164.56a1.39,1.39,0,0,1,1.69.53,4,4,0,0,1,.55,1.84,53.71,53.71,0,0,1-.32,14.82c-.5,3-1.44,6.32-4,8.05-.16.11-.34.24-.33.43s.35.26.35.07"/><path class="cls-4" d="M102.7,142.76a9.66,9.66,0,0,1,5.08-.54c1.67.43,3.14,2.16,2.64,3.81"/><path class="cls-4" d="M88.07,159.17c-3.45,1.13-5.92,4.31-7.07,7.76s-1.11,11.53-.3,15.57c1,5,2.55,6.67,5,9"/><path class="cls-4" d="M205.34,105.49A19,19,0,0,1,204,118.4"/><path class="cls-4" d="M174.54,87.73a4.28,4.28,0,0,0-5.48,5.1c.73,3,4.15,4.21,6.75,5.85a15,15,0,0,1,4.1,21.56c-3.11,4.25-10.59,11.13-3.46,16.09"/><path class="cls-4" d="M158.89,135.67c1.46,7.39,4.52,14.64,9.81,20s13,8.61,20.46,7.43"/><path class="cls-4" d="M106.93,77c-1.78-10-1.32-20.23-.83-30.37.34-7.07.78-14.47,4.41-20.55"/><path class="cls-5" d="M106.7,68.5c.78.22,6-2.54,7.9-5a22.48,22.48,0,0,0,4.88-10.63A20.27,20.27,0,0,0,116.7,40.5c-.38-.6,1,6-5,5-1.48-.25-3.52-1.06-4-3-1-4,2.5-7.57,2-8-1.76-1.49,0-.17-2-1.43C107.75,33.07,103.91,53.28,106.7,68.5Z"/><path class="cls-4" d="M109.57,83.21a7.1,7.1,0,0,0,2.12,5.08,1.79,1.79,0,0,0,.89.54,1.68,1.68,0,0,0,1.08-.26c2.73-1.49,3.55-5,3.79-8.08"/><path class="cls-4" d="M120.68,68.76a17.08,17.08,0,0,0,7.3-7.2,50.57,50.57,0,0,0,3.88-9.65,23.74,23.74,0,0,0,1.56-7.37A20.74,20.74,0,0,0,133,41a86.36,86.36,0,0,0-2.61-10.78"/><path class="cls-4" d="M117.71,27.87a23.57,23.57,0,0,1,5.84,18.86"/><path class="cls-4" d="M107.69,97.39A7.43,7.43,0,0,0,119,94.3"/><path class="cls-4" d="M105.4,74a46.21,46.21,0,0,1-15.55-5.11"/><path class="cls-4" d="M93.55,78.27a32.77,32.77,0,0,1,16-51.6"/><path class="cls-4" d="M108.12,189a23.21,23.21,0,0,0,3.27-6.89"/><path class="cls-4" d="M154.65,88.79A39.24,39.24,0,0,1,173.6,58.22c7.84-4.6,17.13-6.33,24.8-11.22"/><path class="cls-5" d="M75.09,21.75a120.38,120.38,0,0,0-9.46,45.71c0,4.64,1.12,8.58-.2,13.28a4.32,4.32,0,0,1-.6,1.41,4.4,4.4,0,0,1-1.51,1.15C60.08,85.11,56.43,87,52.87,86c-2.85-.79-4.94-3.25-6.65-5.74C44,77,42.57,71.33,42.4,67.34c-.2-4.77,1-9.5,2.25-14.05.47-1.75,1-3.63,2.41-4.75a22.68,22.68,0,0,0,2.62-1.77A6.5,6.5,0,0,0,51,44.11c3.75-11.88,9-24,18.78-31.35a5.56,5.56,0,0,1,3.31-1.42c2,.05,3.53,2.26,3.63,4.37S75.91,19.82,75.09,21.75Z"/><path class="cls-5" d="M50.3,183.84c-2.13-5.44-.12-11.59,2.41-16.85.89-1.86,2-3.82,3.89-4.61a16.75,16.75,0,0,0,2.08-.78,7,7,0,0,0,1.87-2.06,14.9,14.9,0,0,1,3.23-3.21A6.78,6.78,0,0,1,66.92,155,3.28,3.28,0,0,1,70,156.21c.72,1.1.49,2.55.22,3.84-2,9.45-4.07,19.13-2.57,28.66"/><path class="cls-5" d="M176.8,99.44s-6-6.17-2.62-8.43.5-4.62-1.45-3.44S163.56,92,176.8,99.44Z"/><path class="cls-5" d="M177.58,123.86s-7.93,9.07-2.27,12.47a2.48,2.48,0,0,0,3.4-1.14c1.13-2.26-2.26-1.13-2.26-4.53A24.77,24.77,0,0,1,177.58,123.86Z"/><rect class="cls-6" x="108.2" y="49" width="4" height="4" rx="2"/><rect class="cls-6" x="97.2" y="175" width="4" height="4" rx="2"/><path class="cls-4" d="M221.7,46.5s-6-3-5,4,1,43-2,66c-3,22.83-1,36,0,43a6.93,6.93,0,0,0,5,0"/><path class="cls-4" d="M209.7,37.5s4-6,12-3"/></g></svg>