<svg id="Layer_1" data-name="Layer 1" xmlns="http://www.w3.org/2000/svg" viewBox="0 0 238.7 238.7"><defs><style>.cls-1,.cls-3{fill:none;}.cls-1,.cls-2{stroke:#000;stroke-linejoin:round;}.cls-1{stroke-linecap:round;}.cls-2{fill:#c3ccf4;}</style></defs><title>table</title><line class="cls-1" x1="0.5" y1="180.28" x2="0.5" y2="0.5"/><path class="cls-1" d="M144.81,122s14.9,29-8.35,68.59"/><path class="cls-1" d="M144.36,115.21s4.6-4.6,5.44-8.93"/><rect class="cls-2" x="0.5" y="0.5" width="237.7" height="237.7" transform="translate(0 238.7) rotate(-90)"/><path class="cls-1" d="M187.68,238.2c-5.46-3.6-10.76-7.44-15.88-11.42-22.89-17.76-43.5-38.48-67.62-54.52-15.7-10.44-32.7-18.77-49.8-26.74-9.35-4.36-18.76-8.62-28.16-12.89-5.48-2.48-11.72-5.95-12.42-11.93-.54-4.64,2.81-9.07,7-11.08A20.19,20.19,0,0,1,34.57,108c34.33,9.47,56.75,28,85.54,42,0,0,4.65,6.13-7.77,13.53"/><path class="cls-1" d="M25.85,107.9c-4.62-2.42-13.69-6.18-17-9.62S3.29,92,5.38,87.58c1.8-3.84,5.91-6.19,10.09-6.88s8.46.06,12.59,1c35.09,8,69.91,32.21,99,53.36,0,0,4.78,1.81-1.92,9.07"/><path class="cls-1" d="M1,54.71c5.76-2.79,13.3.24,18.82,2.1,10.93,3.69,18.31,7.76,28.88,12.4,5.6,2.46,23.84,10.25,34.51,15.84,14.62,7.67,43.39,26.1,55.12,34.58,0,0,3.73,3.72-1.84,10.7"/><path class="cls-1" d="M13.43,81.17C9.5,79.45,4.57,77.74.89,74.86"/><path class="cls-1" d="M24.71,58.48c1-3.14,6.08-7.87,9.3-8.57,4.89-1.07,13,1.26,16.16,2.28C81.35,62.37,99.92,71.47,126.58,87c28,16.29,55.55,32.47,84.1,47.89,6,3.25,17.66,8.56,23.66,11.42-2.55-5-7.55-12.24-10.4-16.36l-9.76-14.16c-4.69-6.81-9.61-14.83-7.4-22.79C208.66,86.21,216,81.56,223,82.49c6.59.88,10.86,4.89,15,10.35"/><path class="cls-1" d="M202,131.29c-1.17,12,2.79,23.93,6.7,35.38a143.3,143.3,0,0,0,7.54,19.08C224.07,201,228.43,206,238,211.81"/><path class="cls-1" d="M178.39,176.77a104,104,0,0,0-2,34.81"/><path class="cls-1" d="M201.5,131.67a100.69,100.69,0,0,0-7.78,9.94,105.8,105.8,0,0,0-11.17,21.11"/><path class="cls-1" d="M157.23,137.93a40,40,0,0,1,6.18,10.95"/><path class="cls-1" d="M59.91,120.92s1.32,5.63-4.36,11.64"/><path class="cls-1" d="M87.41,134.31s1.33,5.63-4.35,11.65"/><path class="cls-1" d="M54.91,95.26s-.58,7.31-2.44,10.18"/><path class="cls-1" d="M86,110.12s-.58,7.31-2.44,10.18"/><path class="cls-1" d="M45,70.37a15.29,15.29,0,0,1-3.24,7.68"/><path class="cls-1" d="M85.9,89a15.24,15.24,0,0,1-3.24,7.67"/><path class="cls-1" d="M66.18,60.14a15.24,15.24,0,0,1-3.24,7.67"/><path class="cls-1" d="M103.76,76.38a15.29,15.29,0,0,1-3.24,7.68"/><path class="cls-1" d="M229.51,125.52a22.56,22.56,0,0,0,8.69-2.63"/><path class="cls-1" d="M226.42,142.61s7.37,3.35,11.39,5.37"/><path class="cls-1" d="M13.8,120.7s6.25,4.91,10,6.6c4.13,1.85,9.2,5.35,8.79,8.23"/><path class="cls-2" d="M30,131.11s.29,2.28-1.29,2.66"/><path class="cls-1" d="M21.85,105.93s-1-3.79-9-7.14a23.51,23.51,0,0,1-7.55-5"/><path class="cls-1" d="M17.77,103.94s1.11-.54.15-2.43"/><path class="cls-1" d="M10.79,80S12,77.05.5,71.53"/><path class="cls-1" d="M6.17,78s.87-.24-.36-3.1"/><path class="cls-1" d="M210.86,178a17,17,0,0,0-1.44-1.87c-2.88-3.56-6.65-7.66-11.33-8.67-6.67-1.43-13.07-1.13-18.6-5.9-2.89-2.5-4.9-5.88-7.73-8.45a19.42,19.42,0,0,0-23.17-1.67,12.32,12.32,0,0,0-5.34,7c-1.58,6.38,4.28,10.11,8.75,13.13,13.24,9,31.31,2,45.47,8.24,2.56,1.12,5,2.69,7.78,3a6.26,6.26,0,0,0,5.06-1.57C211.48,179.92,211.43,179,210.86,178Z"/><path class="cls-1" d="M144.36,164.92s5.09-7.34,11-5.66,10.6,10.6,18.42,12.28a61,61,0,0,1,15.26,6"/><path class="cls-1" d="M124.34,149a61.38,61.38,0,0,0,51.35-33.81"/><rect class="cls-3" x="0.5" y="0.5" width="237.7" height="237.7" transform="translate(0 238.7) rotate(-90)"/><path class="cls-1" d="M147.08,111.93s5.91-4,5.91-9.42"/></svg>