<svg id="Layer_1" data-name="Layer 1" xmlns="http://www.w3.org/2000/svg" viewBox="0 0 464 721"><defs><style>.cls-1,.cls-3{fill:#c3ccf4;}.cls-1,.cls-2,.cls-3,.cls-4,.cls-5{stroke:#000;stroke-linejoin:round;}.cls-2,.cls-5{fill:none;}.cls-3,.cls-5{stroke-linecap:round;}</style></defs><title>table</title><path class="cls-1" d="M.5.5v720h463V.5Zm235.7,334H49.5V148.17H236.2Z"/><line class="cls-2" x1="1.43" y1="462.22" x2="464.43" y2="462.22"/><rect class="cls-1" x="247.62" y="467.99" width="7" height="73.35" rx="3.5"/><rect class="cls-1" x="157.73" y="438.97" width="7" height="73.35" rx="3.5"/><rect class="cls-3" x="326.83" y="363.41" width="68.94" height="92.37"/><rect class="cls-3" x="395.76" y="363.41" width="67.74" height="92.37"/><rect class="cls-1" x="337.41" y="441.48" width="7" height="73.35" rx="3.5"/><path class="cls-3" d="M344.52,441.48a.66.66,0,0,1,0,.14,10.1,10.1,0,0,1-1.27,4.72,17.57,17.57,0,0,1-3.94,4.84c-12.75,11.46-47.41,19.67-88.17,19.67s-75.41-8.21-88.16-19.66a17.8,17.8,0,0,1-3.95-4.85,10.26,10.26,0,0,1-1.28-4.86,7.71,7.71,0,0,1,.08-1.18c2-15.67,43-28.19,93.31-28.19C302.71,412.11,344.52,425.26,344.52,441.48Z"/><path class="cls-2" d="M344.52,451.19v1.32h-.1A9.77,9.77,0,0,0,344.52,451.19Z"/><path class="cls-4" d="M220.8,364.74c-3.28-.33-5.79,1.26-5,6.79.53,3.66,3.21,6.59,5.77,9.28l13,13.68c3,3.15,6,6.34,8.14,10.14s3.23,8.34,2.13,12.55-4.78,7.87-9.13,8.06c-1.36-1.31-1.37-3.51-.89-5.34s1.38-3.58,1.5-5.48c.23-3.73-2.5-6.92-5.06-9.66l-27.56-29.45a24.07,24.07,0,0,1-3.92-5c-1.63-3.08-2.1-2.09-4.3-1-1.73.83-3.64,1.26-4,3.47-.4,2.6,1.83,6.18,3.31,8.13,2.42,3.17,5.66,5.6,8.78,8.08,10.48,8.29,31.26,23,22.31,38.58a2.88,2.88,0,0,1-1.32,1.37,2.62,2.62,0,0,1-2.65-1c-3.83-4.21-1.67-11.47-5.09-16a15,15,0,0,0-3.17-2.89c-10.18-7.7-19.81-17.25-31.6-22.44-4.51-2-9.51-3.57-12.65-7.38-3.44-4.17-4.46-11.64.7-14.63q16.28-9.47,33.2-17.76a32.33,32.33,0,0,1,6.86-2.71c9.89-2.24,17.87,3.21,25.91,8l26.56,15.66c.93.54,2.07,1.1,3,.62a2.73,2.73,0,0,0,1.15-2.58,9.82,9.82,0,0,0-3.55-6.84c-4.47-4-10.11-7.34-15.23-10.45a21.21,21.21,0,0,1-5.75-4.48c-1.9-2.38-2.67-5.43-3.61-8.33a61.53,61.53,0,0,0-10.48-19.41,12.79,12.79,0,0,1-2.73-4.45c-1.45-5.51,3.9-4.21,6.67-2.17,3.1,2.28,4.8,6.23,6.19,9.68l4.11,10.2c1.93,4.79,4,9.79,8,13.05a22.7,22.7,0,0,0,8.88,4.1,42.47,42.47,0,0,0,6.62,1.16c1.56.15,3.77-.43,3.54-2a2.7,2.7,0,0,0-1-1.47c-4.89-4.51-12.56-6.82-12.43-14.63.07-4.07,1.95-7.88,4-11.39,5.25-8.92,10.72-18.51,22.7-18.42a7.77,7.77,0,0,1,4,.89,8,8,0,0,1,3.13,4.66c2.55,8.08.23,17-4.09,24.32s-7.7,13.5-3.09,21.67c2.88,5.09,7,9.57,9.71,14.7,2.11,4,5.09,8.6,5.94,13.09a28.45,28.45,0,0,1-.2,9c-1.41,10.89-2.84,21.91-6.8,32.16-1.46,3.79-3.3,7.82-2.28,11.76.63,2.47,2.25,5.41.46,7.24s-5,.14-6.28-2c-3-5-1.5-11.35.17-16.92,2.83-9.51,6.12-19.72,4.14-29.73-.21-1.06-.37-4-1.54-4.49-1.68-.72-3.88,3.1-5.1,4.2-4.47,4-10.51,7-16.66,5.8a24.11,24.11,0,0,1-6.52-2.53,69.46,69.46,0,0,1-19.37-15.16c-2.81-3.16-5.34-6.59-8.52-9.37A18.48,18.48,0,0,0,220.8,364.74Z"/><path class="cls-3" d="M344.52,441.62v9.57a9.77,9.77,0,0,1-.1,1.32c-2.19,15.61-43.12,28.05-93.29,28.05-51.58,0-93.4-13.15-93.4-29.37v-9.71a10.16,10.16,0,0,0,1.29,4.86,17.94,17.94,0,0,0,3.94,4.85c12.75,11.45,47.42,19.66,88.17,19.66s75.42-8.21,88.17-19.67a17.34,17.34,0,0,0,3.93-4.84,9.86,9.86,0,0,0,1.27-4.72Z"/><rect class="cls-3" x="131.69" y="542.3" width="4.15" height="31.24" rx="1.76"/><rect class="cls-3" x="161.94" y="551.49" width="4.15" height="31.24" rx="1.76"/><rect class="cls-3" x="192.19" y="542.3" width="4.15" height="31.24" rx="1.76"/><path class="cls-3" d="M196.34,537.83v4.47c0,.21,0,.42,0,.62-.76,7.29-14.93,13.1-32.29,13.1-17.85,0-32.33-6.14-32.33-13.72v-4.53a6.2,6.2,0,0,0,.45,2.27,7.91,7.91,0,0,0,1.37,2.26c4.41,5.35,16.4,9.19,30.51,9.19s26.1-3.84,30.51-9.19A8.14,8.14,0,0,0,195.9,540a6.26,6.26,0,0,0,.44-2.21Z"/><path class="cls-3" d="M196.34,537.77v.06a6.26,6.26,0,0,1-.44,2.21,8.14,8.14,0,0,1-1.37,2.26c-4.41,5.35-16.41,9.19-30.51,9.19s-26.1-3.84-30.51-9.19a7.91,7.91,0,0,1-1.37-2.26,6.2,6.2,0,0,1-.45-2.27,4.93,4.93,0,0,1,0-.55c.68-7.32,14.88-13.17,32.3-13.17C181.87,524.05,196.34,530.19,196.34,537.77Z"/><rect class="cls-3" x="275.51" y="520.16" width="3.52" height="26.5" rx="1.76"/><rect class="cls-3" x="301.17" y="527.95" width="3.52" height="26.5" rx="1.76"/><rect class="cls-3" x="326.83" y="520.16" width="3.52" height="26.5" rx="1.76"/><polyline class="cls-5" points="316.06 420.37 316.06 353.74 463.22 353.74"/><path class="cls-3" d="M330.35,516.36v3.8a4.67,4.67,0,0,1,0,.52c-.64,6.18-12.66,11.11-27.39,11.11-15.14,0-27.42-5.21-27.42-11.63v-3.85a5.09,5.09,0,0,0,.38,1.92,6.84,6.84,0,0,0,1.16,1.93c3.74,4.53,13.92,7.79,25.88,7.79s22.14-3.26,25.89-7.8a6.85,6.85,0,0,0,1.15-1.92,5.29,5.29,0,0,0,.38-1.87Z"/><path class="cls-3" d="M330.35,516.31v.05a5.29,5.29,0,0,1-.38,1.87,6.85,6.85,0,0,1-1.15,1.92c-3.75,4.54-13.92,7.8-25.89,7.8s-22.14-3.26-25.88-7.79a6.84,6.84,0,0,1-1.16-1.93,5.09,5.09,0,0,1-.38-1.92c0-.16,0-.32,0-.47.58-6.21,12.63-11.17,27.4-11.17C318.07,504.67,330.35,509.88,330.35,516.31Z"/><path class="cls-2" d="M251.83,436.78c1.89.55,5.62,2.47,4.26,4.77-.95,1.62-4.6,1.38-6.14,1.46-4.74.27-9.11,2.47-13.65,3.83-8.4,2.53-17.36,2.19-26.12,1.82-4-.16-8.13-.37-11.69-2.18A4.77,4.77,0,0,1,196,444.1c-.93-2.59,2-4.8,4.52-6,6.23-2.95,11.24-4.78,18.28-3.85,3.84.5,7.61,1.47,11.46,1.76C237.47,436.59,244.89,434.79,251.83,436.78Z"/><path class="cls-2" d="M196.89,445.38s5.27-4.66,17.41-6.41c7.95-1.15,13.83,2.58,23.16,1.93,11.54-.81,17.17,1.66,17.17,1.66"/><line class="cls-5" x1="385" y1="417.44" x2="385" y2="405.27"/><line class="cls-5" x1="406.58" y1="405.27" x2="406.58" y2="417.44"/><rect class="cls-5" x="395.76" y="326.39" width="27.35" height="27.35" rx="4.74"/><path class="cls-5" d="M423.11,331.32h4.12a4.74,4.74,0,0,1,4.74,4.74v8.37a4.74,4.74,0,0,1-4.74,4.74h-4.12a0,0,0,0,1,0,0V331.32A0,0,0,0,1,423.11,331.32Z"/><path class="cls-5" d="M423.11,333.57h3.7a2.65,2.65,0,0,1,2.65,2.65v7.67a2.65,2.65,0,0,1-2.65,2.65h-3.7a0,0,0,0,1,0,0v-13A0,0,0,0,1,423.11,333.57Z"/><polygon class="cls-5" points="418.37 326.39 399.32 326.39 396.72 321.27 421.81 321.27 418.37 326.39"/><line class="cls-1" x1="395.76" y1="336.29" x2="423.11" y2="336.29"/><line class="cls-2" x1="409.26" y1="330.39" x2="409.26" y2="348.53"/><line class="cls-2" x1="407.8" y1="330.39" x2="410.73" y2="330.39"/><line class="cls-2" x1="407.8" y1="348.53" x2="410.73" y2="348.53"/><line class="cls-2" x1="407.8" y1="344.81" x2="410.73" y2="344.81"/><line class="cls-2" x1="407.8" y1="339.46" x2="410.73" y2="339.46"/><line class="cls-2" x1="407.8" y1="334.11" x2="410.73" y2="334.11"/><rect class="cls-5" x="353.55" y="313.46" width="18.14" height="40.28"/><line class="cls-5" x1="353.55" y1="323.83" x2="371.69" y2="323.83"/><path class="cls-5" d="M357.53,352.07s12.84-21.76,11.44-41.58-6.49-25.39-6.49-25.39"/><path class="cls-5" d="M368.3,352.07s-6.14-35.44-9.77-53"/><path class="cls-5" d="M363.41,352.07s-8.41-41.23-9-57.21"/><path class="cls-5" d="M355.79,352.07s9.88-30.54,9.67-47.26"/><path class="cls-5" d="M360.35,334.67s-3.77-31.77,16.18-41.22"/></svg>