<svg id="Layer_1" data-name="Layer 1" xmlns="http://www.w3.org/2000/svg" viewBox="0 0 238.7 238.7"><defs><style>.cls-1{fill:#c3ccf4;}.cls-1,.cls-2,.cls-3,.cls-4{stroke:#000;stroke-linejoin:round;}.cls-2{fill:none;}.cls-2,.cls-3{stroke-linecap:round;}</style></defs><title>table</title><rect class="cls-1" x="0.5" y="0.5" width="237.7" height="237.7" transform="translate(0 238.7) rotate(-90)"/><path class="cls-2" d="M25.68,238.2c-7.94-16-6.95-35.82-.75-52.82,6.87-18.84,19.35-35,31.64-50.87Q83.89,99.26,111.21,64c9.4-12.13,19-24.44,31.46-33.4,8.93-6.43,20-15.46,31.48-21.85A177,177,0,0,1,192.67-.14"/><path class="cls-2" d="M183.88,64.14s-15.46,10.42-20.46,15c-30,27.55-46.36,50.24-67.39,85.12-2.47,4.11-4.94,8.43-5.32,13.21-.59,7.21,4.85,13.73,11.36,16.16,7.11,2.67,19.45-4.7,24.89,2.12"/><path class="cls-3" d="M122.12,189.31c1.62-1.43,4.08-1.11,6.2-.7a17.62,17.62,0,0,1,4.35,1.24,5.85,5.85,0,0,1,3.08,3.18,2.22,2.22,0,0,1-.45,2.48c-.85.69-2.18.2-2.9-.62s-1.11-1.89-1.77-2.76c-1.76-2.3-5-2.66-7.93-2.57"/><path class="cls-2" d="M137.9,203.61c7.15,1.45,16.51-2.87,16.9-10.15.27-5-6.21-11.17-8.3-11.15,0,0,15.63,2,15.07,25.17L161,230.64"/><path class="cls-2" d="M74.31,213.43c6.16,1.9,15.28,5.87,21.21,8.37,9.07,3.83,20.15,7.25,29.21,11.07"/><path class="cls-2" d="M79.64,228.35c7.82,7.28,19.5,8,30.18,8.38"/><path class="cls-2" d="M191.16,125.65c-.76-.25-8.59-7.85-6.49-11.27,2.6-4.24,7.5-2,9.71-1.4,4.11,1.18,21.28,8.85,32.51,15l11.37,6.19"/><path class="cls-3" d="M233.88,131.75c-.6,3-4.76,4.81-8.77,5-2.93.12-5.07-4.85-8.84-5.17-4.47-.37,1.56,7.42-5.59,5.77a19.22,19.22,0,0,1-14.06-13.75c-1.74-10.07,5.07-8,9-6.16,6.91,3.23,23.27,11.87,28.29,14.32Z"/><path class="cls-2" d="M238.2,145c-1,1.25-7.16,2.08-8.83,2.17-8.14.47-16.63.24-24-3.27s-18.12-16.3-13.74-29.41"/><path class="cls-2" d="M105.15,72.29A69.46,69.46,0,0,1,124.42,75a110.24,110.24,0,0,1,17.82,6.13c1.06.5,5.22,3.33,4.07,5.63-1.8,3.56-5.33,2.62-9,2.34"/><path class="cls-2" d="M141.85,83.29c-3.7,8.32-14.7,12.28-25.11,11.63-8.06-.5-16.86-3.58-24.33-6.64"/><path class="cls-3" d="M125.61,75.62c1.18-.06,4.7,2.73,4.7,3.91,0,4-7,8.51-10.18,8.37-7.5-.33-6.84-8-11.58-1.4-1.92,2.64-9.86-.51-13-1.23,2.29-3,6.81-11.8,10.29-12.89a58.63,58.63,0,0,1,9.86.63A66.51,66.51,0,0,1,125.61,75.62Z"/><path class="cls-2" d="M176.93,108.45a10.5,10.5,0,0,0-3.81,7.46,5.66,5.66,0,0,0,3.35,5.57"/><path class="cls-2" d="M126.75,100.89c-.66,1.48-5.37,4.37-6.93,4.82a37.58,37.58,0,0,1-22,0"/><path class="cls-2" d="M183.08,131c0,1.2,2.51,19,13.67,27.91"/><path class="cls-3" d="M238.26,102.73a259.9,259.9,0,0,1-30.13-14.3c-2-1.14-4.23-2.5-4.74-4.59-.72-3,2.3-5.65,5.15-7.46,2.28-1.45,4.86-2.84,7.65-2.73a14.62,14.62,0,0,1,5.14,1.48l16.87,7.23"/><path class="cls-4" d="M121.48,51.74a186.66,186.66,0,0,0,28.79,8.94,9.19,9.19,0,0,0,3.37.32c2.08-.32,5.75-2.88,7.17-4.43a1.39,1.39,0,0,0,.52-1.14c-.06-.32-.45-.45-.6-.74-2.79-5.3-9.35-7.68-16.74-11.3-2.35-1.15-10.34-2.85-12.84-2.1-1.31.4-1,.28-2,1.22a78.85,78.85,0,0,0-7.07,7.89c.08.38-1,1.27-.61,1.34"/><path class="cls-2" d="M90.71,177.48S74.87,187,67.24,199.85"/><path class="cls-2" d="M199.21,98.71s27.26,2.32,39,13.73"/><path class="cls-2" d="M114.74,59.49s16.62-1.22,29.13,13.9"/><path class="cls-2" d="M203.27,99.1s-7.15,4.06-8.89,8.12"/></svg>